<svg width="1599" height="625" viewBox="0 0 1599 625" fill="none" xmlns="http://www.w3.org/2000/svg">
<rect width="1598.37" height="625" fill="white"/>
<path d="M395 312.52C395 299.439 378.823 287.043 354.021 279.355C359.744 253.757 357.2 233.391 345.992 226.871C343.408 225.341 340.387 224.617 337.088 224.617V233.592C338.917 233.592 340.387 233.955 341.619 234.639C347.025 237.778 349.37 249.732 347.542 265.107C347.105 268.89 346.389 272.875 345.515 276.94C337.724 275.008 329.218 273.519 320.275 272.553C314.909 265.107 309.345 258.345 303.74 252.429C316.698 240.233 328.861 233.552 337.128 233.552V224.577C326.198 224.577 311.889 232.465 297.421 246.15C282.953 232.546 268.643 224.738 257.713 224.738V233.713C265.941 233.713 278.143 240.354 291.101 252.469C285.536 258.386 279.971 265.107 274.685 272.553C265.702 273.519 257.196 275.008 249.406 276.98C248.492 272.956 247.816 269.051 247.339 265.308C245.471 249.933 247.776 237.979 253.142 234.8C254.334 234.075 255.885 233.753 257.713 233.753V224.778C254.374 224.778 251.353 225.502 248.73 227.032C237.561 233.552 235.057 253.878 240.82 279.395C216.098 287.123 200 299.479 200 312.52C200 325.601 216.177 337.997 240.979 345.685C235.256 371.283 237.8 391.649 249.008 398.169C251.592 399.699 254.613 400.423 257.951 400.423C268.882 400.423 283.191 392.534 297.659 378.85C312.127 392.454 326.436 400.262 337.366 400.262C340.705 400.262 343.726 399.538 346.349 398.008C357.518 391.488 360.022 371.162 354.259 345.645C378.902 337.957 395 325.561 395 312.52ZM343.249 285.674C341.778 290.866 339.95 296.219 337.883 301.572C336.254 298.352 334.544 295.133 332.676 291.913C330.848 288.693 328.9 285.553 326.953 282.494C332.597 283.34 338.042 284.386 343.249 285.674ZM325.045 328.539C321.945 333.973 318.765 339.124 315.466 343.914C309.543 344.437 303.542 344.719 297.5 344.719C291.498 344.719 285.496 344.437 279.614 343.954C276.315 339.165 273.095 334.053 269.995 328.66C266.974 323.387 264.232 318.034 261.727 312.641C264.192 307.247 266.974 301.854 269.955 296.582C273.055 291.148 276.235 285.996 279.534 281.207C285.457 280.683 291.458 280.402 297.5 280.402C303.502 280.402 309.504 280.683 315.386 281.166C318.685 285.956 321.905 291.067 325.005 296.461C328.026 301.733 330.768 307.086 333.273 312.48C330.768 317.873 328.026 323.266 325.045 328.539ZM337.883 323.307C340.03 328.7 341.858 334.093 343.368 339.326C338.161 340.614 332.676 341.7 326.992 342.546C328.94 339.446 330.888 336.267 332.716 333.007C334.544 329.787 336.254 326.527 337.883 323.307ZM297.58 366.252C293.883 362.388 290.187 358.082 286.53 353.372C290.107 353.533 293.764 353.654 297.46 353.654C301.196 353.654 304.893 353.574 308.51 353.372C304.933 358.082 301.236 362.388 297.58 366.252ZM268.008 342.546C262.363 341.7 256.918 340.654 251.711 339.366C253.182 334.174 255.01 328.821 257.077 323.468C258.707 326.688 260.416 329.907 262.284 333.127C264.152 336.347 266.06 339.487 268.008 342.546ZM297.381 258.788C301.077 262.652 304.774 266.959 308.43 271.668C304.853 271.507 301.196 271.386 297.5 271.386C293.764 271.386 290.067 271.466 286.45 271.668C290.028 266.959 293.724 262.652 297.381 258.788ZM267.968 282.494C266.02 285.594 264.073 288.773 262.244 292.033C260.416 295.253 258.707 298.473 257.077 301.693C254.931 296.3 253.102 290.906 251.592 285.674C256.799 284.426 262.284 283.34 267.968 282.494ZM231.997 332.886C217.926 326.808 208.824 318.839 208.824 312.52C208.824 306.201 217.926 298.191 231.997 292.154C235.415 290.665 239.151 289.337 243.007 288.089C245.272 295.978 248.253 304.189 251.95 312.601C248.293 320.972 245.352 329.143 243.126 336.991C239.191 335.743 235.455 334.375 231.997 332.886ZM253.381 390.401C247.975 387.262 245.63 375.308 247.458 359.933C247.895 356.15 248.611 352.165 249.485 348.1C257.276 350.032 265.782 351.521 274.725 352.487C280.091 359.933 285.655 366.695 291.26 372.611C278.302 384.807 266.139 391.488 257.872 391.488C256.083 391.448 254.573 391.085 253.381 390.401ZM347.661 359.732C349.529 375.107 347.224 387.061 341.858 390.24C340.666 390.965 339.115 391.287 337.287 391.287C329.059 391.287 316.857 384.646 303.899 372.531C309.464 366.614 315.029 359.893 320.315 352.447C329.298 351.481 337.804 349.992 345.594 348.019C346.508 352.084 347.224 355.989 347.661 359.732ZM362.964 332.886C359.545 334.375 355.809 335.703 351.954 336.951C349.688 329.062 346.707 320.851 343.011 312.44C346.667 304.068 349.609 295.897 351.834 288.049C355.769 289.297 359.506 290.665 363.003 292.154C377.074 298.232 386.176 306.201 386.176 312.52C386.136 318.839 377.034 326.849 362.964 332.886Z" fill="#00D8FF"/>
<path d="M297.46 330.914C307.492 330.914 315.625 322.679 315.625 312.52C315.625 302.362 307.492 294.126 297.46 294.126C287.428 294.126 279.296 302.362 279.296 312.52C279.296 322.679 287.428 330.914 297.46 330.914Z" fill="#00D8FF"/>
<path fill-rule="evenodd" clip-rule="evenodd" d="M491.049 353.96L469.749 321.78C480.514 320.83 490.214 313.03 490.214 298.78C490.214 284.28 479.924 275 465.489 275H433.789V353.9H443.609V322.55H459.344L479.454 353.9L491.049 353.96ZM464.314 313.975H443.614V283.81H464.314C473.664 283.81 480.049 289.96 480.049 298.835C480.049 307.71 473.659 313.985 464.314 313.985V313.975ZM527.604 355.375C536.954 355.375 544.639 352.3 550.319 346.625L546.059 340.825C541.559 345.44 534.939 348.04 528.434 348.04C516.134 348.04 508.559 339.05 507.849 328.29H554.099V326.04C554.099 308.89 543.924 295.4 526.649 295.4C510.324 295.4 498.499 308.77 498.499 325.33C498.499 343.195 510.684 355.33 527.599 355.33L527.604 355.375ZM545.354 321.775H507.854C508.329 313.025 514.354 302.725 526.544 302.725C539.559 302.725 545.234 313.255 545.354 321.775ZM613.024 353.955V314.68C613.024 300.84 602.974 295.395 590.904 295.395C581.554 295.395 574.224 298.47 568.074 304.86L572.214 311.01C577.299 305.57 582.864 303.085 589.724 303.085C598.004 303.085 604.159 307.46 604.159 315.15V325.44C599.544 320.115 593.039 317.63 585.229 317.63C575.529 317.63 565.229 323.665 565.229 336.44C565.229 348.86 575.519 355.37 585.229 355.37C592.919 355.37 599.429 352.65 604.159 347.445V353.945L613.024 353.955ZM588.424 348.985C580.144 348.985 574.344 343.785 574.344 336.565C574.344 329.23 580.144 324.025 588.424 324.025C594.694 324.025 600.724 326.39 604.159 331.125V341.89C600.729 346.62 594.694 348.985 588.424 348.985ZM655.924 355.375C666.334 355.375 672.484 351.115 676.864 345.44L670.949 340C667.164 345.085 662.314 347.45 656.449 347.45C644.264 347.45 636.699 337.985 636.699 325.33C636.699 312.675 644.269 303.33 656.449 303.33C662.364 303.33 667.214 305.58 670.949 310.78L676.864 305.34C672.489 299.66 666.334 295.405 655.924 295.405C638.889 295.405 627.414 308.42 627.414 325.335C627.414 342.37 638.889 355.335 655.924 355.335V355.375ZM703.724 355.375C708.924 355.375 712.124 353.835 714.374 351.71L711.774 345.085C710.589 346.385 708.274 347.45 705.739 347.45C701.839 347.45 699.939 344.375 699.939 340.115V304.625H711.539V296.82H699.939V281.205H691.064V296.82H681.599V304.63H691.064V342.015C691.064 350.535 695.324 355.385 703.724 355.385V355.375Z" fill="#00D8FF"/>
<path d="M822.14 344.568C821.377 344.568 820.753 344.325 820.268 343.84C819.783 343.355 819.54 342.731 819.54 341.968V322.936H801.028C800.265 322.936 799.607 322.693 799.052 322.208C798.567 321.723 798.324 321.099 798.324 320.336V312.744C798.324 311.981 798.567 311.357 799.052 310.872C799.607 310.387 800.265 310.144 801.028 310.144H819.54V291.632C819.54 290.869 819.783 290.245 820.268 289.76C820.753 289.275 821.377 289.032 822.14 289.032H830.668C831.361 289.032 831.951 289.275 832.436 289.76C832.991 290.245 833.268 290.869 833.268 291.632V310.144H851.676C852.439 310.144 853.063 310.387 853.548 310.872C854.033 311.357 854.276 311.981 854.276 312.744V320.336C854.276 321.099 854.033 321.723 853.548 322.208C853.063 322.693 852.439 322.936 851.676 322.936H833.268V341.968C833.268 342.731 832.991 343.355 832.436 343.84C831.951 344.325 831.361 344.568 830.668 344.568H822.14Z" fill="black"/>
<path d="M1102.1 355.886C1096.09 355.886 1090.44 354.904 1085.16 352.818C1079.88 350.731 1075.34 347.786 1071.42 343.981C1067.49 340.176 1064.42 335.635 1062.21 330.358C1059.88 324.957 1058.77 319.066 1058.77 312.562C1058.77 306.057 1059.88 300.043 1062.21 294.765C1064.54 289.365 1067.61 284.824 1071.54 281.019C1075.47 277.215 1080.01 274.269 1085.29 272.183C1090.56 270.096 1096.09 268.992 1101.85 268.992C1108.11 268.992 1113.51 269.851 1118.05 271.692C1122.6 273.533 1126.4 275.742 1129.59 278.565C1132.78 281.388 1135.24 284.456 1136.96 287.647C1138.67 290.961 1139.9 294.029 1140.64 297.097L1123.09 302.62C1122.72 301.147 1122.1 299.552 1121.25 297.834C1120.39 295.993 1119.04 294.274 1117.44 292.679C1115.85 291.083 1113.64 289.733 1111.18 288.629C1108.6 287.524 1105.54 287.033 1101.85 287.033C1099.03 287.033 1096.21 287.524 1093.39 288.506C1090.56 289.488 1087.99 291.083 1085.78 293.17C1083.44 295.256 1081.6 297.956 1080.25 301.147C1078.78 304.338 1078.17 308.143 1078.17 312.562C1078.17 316.489 1078.78 319.925 1080.13 322.994C1081.48 326.062 1083.2 328.639 1085.53 330.726C1087.74 332.812 1090.32 334.408 1093.14 335.512C1095.96 336.617 1099.03 337.108 1102.1 337.108C1105.66 337.108 1108.85 336.617 1111.43 335.512C1114 334.408 1116.21 333.058 1117.93 331.462C1119.65 329.867 1121 328.148 1121.98 326.308C1122.96 324.467 1123.7 322.871 1124.07 321.398L1141.86 326.43C1141.13 329.376 1139.9 332.444 1138.18 335.881C1136.46 339.317 1133.89 342.385 1130.82 345.331C1127.63 348.277 1123.7 350.731 1119.04 352.695C1114.13 354.904 1108.6 355.886 1102.1 355.886Z" fill="#161616"/>
<path d="M1102.1 355.886C1096.09 355.886 1090.44 354.904 1085.16 352.818C1079.88 350.731 1075.34 347.786 1071.42 343.981C1067.49 340.176 1064.42 335.635 1062.21 330.358C1059.88 324.957 1058.77 319.066 1058.77 312.562C1058.77 306.057 1059.88 300.043 1062.21 294.765C1064.54 289.365 1067.61 284.824 1071.54 281.019C1075.47 277.215 1080.01 274.269 1085.29 272.183C1090.56 270.096 1096.09 268.992 1101.85 268.992C1108.11 268.992 1113.51 269.851 1118.05 271.692C1122.6 273.533 1126.4 275.742 1129.59 278.565C1132.78 281.388 1135.24 284.456 1136.96 287.647C1138.67 290.961 1139.9 294.029 1140.64 297.097L1123.09 302.62C1122.72 301.147 1122.1 299.552 1121.25 297.834C1120.39 295.993 1119.04 294.274 1117.44 292.679C1115.85 291.083 1113.64 289.733 1111.18 288.629C1108.6 287.524 1105.54 287.033 1101.85 287.033C1099.03 287.033 1096.21 287.524 1093.39 288.506C1090.56 289.488 1087.99 291.083 1085.78 293.17C1083.44 295.256 1081.6 297.956 1080.25 301.147C1078.78 304.338 1078.17 308.143 1078.17 312.562C1078.17 316.489 1078.78 319.925 1080.13 322.994C1081.48 326.062 1083.2 328.639 1085.53 330.726C1087.74 332.812 1090.32 334.408 1093.14 335.512C1095.96 336.617 1099.03 337.108 1102.1 337.108C1105.66 337.108 1108.85 336.617 1111.43 335.512C1114 334.408 1116.21 333.058 1117.93 331.462C1119.65 329.867 1121 328.148 1121.98 326.308C1122.96 324.467 1123.7 322.871 1124.07 321.398L1141.86 326.43C1141.13 329.376 1139.9 332.444 1138.18 335.881C1136.46 339.317 1133.89 342.385 1130.82 345.331C1127.63 348.277 1123.7 350.731 1119.04 352.695C1114.13 354.904 1108.6 355.886 1102.1 355.886Z" fill="#161616"/>
<path d="M1102.1 355.886C1096.09 355.886 1090.44 354.904 1085.16 352.818C1079.88 350.731 1075.34 347.786 1071.42 343.981C1067.49 340.176 1064.42 335.635 1062.21 330.358C1059.88 324.957 1058.77 319.066 1058.77 312.562C1058.77 306.057 1059.88 300.043 1062.21 294.765C1064.54 289.365 1067.61 284.824 1071.54 281.019C1075.47 277.215 1080.01 274.269 1085.29 272.183C1090.56 270.096 1096.09 268.992 1101.85 268.992C1108.11 268.992 1113.51 269.851 1118.05 271.692C1122.6 273.533 1126.4 275.742 1129.59 278.565C1132.78 281.388 1135.24 284.456 1136.96 287.647C1138.67 290.961 1139.9 294.029 1140.64 297.097L1123.09 302.62C1122.72 301.147 1122.1 299.552 1121.25 297.834C1120.39 295.993 1119.04 294.274 1117.44 292.679C1115.85 291.083 1113.64 289.733 1111.18 288.629C1108.6 287.524 1105.54 287.033 1101.85 287.033C1099.03 287.033 1096.21 287.524 1093.39 288.506C1090.56 289.488 1087.99 291.083 1085.78 293.17C1083.44 295.256 1081.6 297.956 1080.25 301.147C1078.78 304.338 1078.17 308.143 1078.17 312.562C1078.17 316.489 1078.78 319.925 1080.13 322.994C1081.48 326.062 1083.2 328.639 1085.53 330.726C1087.74 332.812 1090.32 334.408 1093.14 335.512C1095.96 336.617 1099.03 337.108 1102.1 337.108C1105.66 337.108 1108.85 336.617 1111.43 335.512C1114 334.408 1116.21 333.058 1117.93 331.462C1119.65 329.867 1121 328.148 1121.98 326.308C1122.96 324.467 1123.7 322.871 1124.07 321.398L1141.86 326.43C1141.13 329.376 1139.9 332.444 1138.18 335.881C1136.46 339.317 1133.89 342.385 1130.82 345.331C1127.63 348.277 1123.7 350.731 1119.04 352.695C1114.13 354.904 1108.6 355.886 1102.1 355.886Z" fill="#161616"/>
<path d="M1213.17 337.108H1180.89L1174.88 354.045H1155.36L1186.78 270.464H1208.38L1239.44 354.045H1219.19L1213.17 337.108ZM1187.03 320.171H1207.28L1197.22 291.329L1187.03 320.171Z" fill="#161616"/>
<path d="M1301.29 295.747C1301.17 294.765 1300.8 293.784 1300.31 292.556C1299.82 291.329 1298.96 290.224 1297.98 289.12C1296.87 288.015 1295.52 287.156 1293.81 286.42C1292.09 285.683 1290 285.315 1287.42 285.315C1283.99 285.315 1281.17 286.297 1279.08 288.138C1276.99 289.979 1276.01 292.065 1276.01 294.274C1276.01 296.361 1276.62 298.079 1277.97 299.429C1279.32 300.779 1281.41 301.761 1284.23 302.375L1295.4 304.338C1299.45 305.075 1302.89 306.179 1305.83 307.775C1308.78 309.371 1311.36 311.334 1313.32 313.543C1315.41 315.753 1316.88 318.207 1317.86 320.907C1318.84 323.607 1319.33 326.43 1319.33 329.499C1319.33 332.812 1318.72 336.003 1317.37 339.194C1316.02 342.385 1314.06 345.085 1311.48 347.663C1308.9 350.118 1305.59 352.081 1301.78 353.677C1297.98 355.15 1293.56 356.009 1288.53 356.009C1282.76 356.009 1277.73 355.15 1273.56 353.431C1269.38 351.713 1265.95 349.627 1263.25 347.049C1260.55 344.472 1258.46 341.649 1256.99 338.458C1255.51 335.267 1254.66 332.199 1254.41 329.253L1271.47 325.08C1271.59 326.921 1272.08 328.762 1272.82 330.603C1273.56 332.321 1274.66 333.917 1276.01 335.144C1277.48 336.494 1279.2 337.476 1281.29 338.213C1283.37 338.949 1285.83 339.44 1288.65 339.44C1292.33 339.44 1295.28 338.581 1297.37 336.985C1299.45 335.39 1300.43 333.303 1300.43 330.726C1300.43 328.639 1299.58 326.798 1297.98 325.326C1296.38 323.853 1294.17 322.871 1291.47 322.38L1280.06 320.294C1272.94 318.944 1267.3 316.121 1263.37 311.702C1259.32 307.284 1257.36 302.007 1257.36 295.747C1257.36 291.82 1258.21 288.261 1259.81 284.947C1261.41 281.633 1263.61 278.81 1266.31 276.478C1269.01 274.146 1272.21 272.305 1275.89 270.955C1279.45 269.605 1283.25 268.992 1287.3 268.992C1292.46 268.992 1296.87 269.728 1300.56 271.078C1304.24 272.551 1307.31 274.269 1309.64 276.478C1312.09 278.688 1313.81 281.019 1315.16 283.72C1316.39 286.297 1317.25 288.874 1317.74 291.329L1301.29 295.747Z" fill="#161616"/>
<path d="M1345.35 354.045V270.587H1398.25V288.138H1364.01V304.093H1395.06V320.416H1364.01V336.494H1398.37V354.167H1345.35V354.045Z" fill="#161616"/>
<path d="M938.374 270.587V354.045H1021.83V270.587H938.374ZM1014.47 312.316H945.738V277.951H1014.47V312.316Z" fill="#161616"/>
</svg>
