<svg width="1599" height="526" viewBox="0 0 1599 526" fill="none" xmlns="http://www.w3.org/2000/svg">
<rect width="1598.37" height="525.722" fill="white"/>
<path d="M367.716 297.477C362.261 297.614 356.892 296.097 352.315 293.125C348.039 290.306 344.864 286.1 343.323 281.216L352.697 277.772C353.996 280.772 356.119 283.343 358.82 285.185C361.561 287.022 364.799 287.974 368.098 287.912C371.269 288.077 374.399 287.13 376.946 285.234C379.193 283.347 380.416 280.51 380.246 277.581C380.259 276.235 379.947 274.907 379.337 273.707C378.806 272.634 378.113 271.649 377.281 270.789C376.228 269.83 375.034 269.04 373.741 268.445C372.146 267.649 370.823 267.043 369.772 266.627C368.719 266.214 367.173 265.656 365.132 264.953C362.581 264.061 360.667 263.36 359.393 262.85C357.665 262.115 355.988 261.268 354.371 260.314C352.631 259.391 351.048 258.196 349.684 256.776C348.503 255.389 347.55 253.822 346.862 252.135C344.153 245.541 345.963 237.953 351.358 233.292C355.184 229.912 360.382 228.222 366.95 228.222C372.433 228.222 376.945 229.433 380.485 231.857C383.921 234.141 386.444 237.561 387.611 241.519L378.428 244.579C377.506 242.507 375.948 240.781 373.98 239.653C371.6 238.333 368.905 237.687 366.185 237.787C363.517 237.634 360.875 238.375 358.675 239.892C356.852 241.305 355.834 243.519 355.949 245.822C355.965 247.583 356.73 249.253 358.053 250.414C359.324 251.666 360.816 252.671 362.453 253.38C363.984 254.018 366.312 254.878 369.437 255.962C371.349 256.665 372.767 257.191 373.692 257.541C374.617 257.891 375.973 258.48 377.758 259.31C379.189 259.944 380.565 260.696 381.871 261.558C383.04 262.4 384.158 263.31 385.219 264.285C386.372 265.285 387.357 266.464 388.137 267.776C388.88 269.137 389.458 270.582 389.859 272.079C390.347 273.839 390.589 275.658 390.577 277.485C390.577 283.735 388.44 288.629 384.167 292.167C379.895 295.708 374.411 297.478 367.716 297.477ZM429.03 296.33L406.072 229.369H416.787L431.995 276.05C432.836 278.561 433.539 281.115 434.1 283.703C434.66 281.115 435.363 278.56 436.205 276.05L451.223 229.369H461.841L438.978 296.33H429.03ZM482.118 296.33V229.37H523.634V238.745H492.068V257.11H512.441V266.485H492.068V286.955H525.738V296.33H482.118ZM551.086 296.33V229.37H561.035V286.764H593.749V296.33H551.086ZM631.245 238.935V296.33H621.296V238.935H602.357V229.37H650.185V238.935L631.245 238.935ZM670.75 296.33V229.37H712.266V238.745H680.7V257.11H701.074V266.485H680.7V286.955H714.37V296.33H670.75Z" fill="#4A4A55"/>
<path d="M297.944 216.634C286.27 199.926 263.213 194.973 246.542 205.595L217.264 224.255C209.266 229.286 203.758 237.454 202.089 246.754C200.692 254.501 201.92 262.493 205.577 269.464C203.071 273.266 201.362 277.536 200.553 282.017C198.868 291.496 201.072 301.253 206.667 309.087C218.344 325.798 241.401 330.748 258.069 320.127L287.347 301.467C295.345 296.436 300.854 288.269 302.522 278.968C303.918 271.221 302.692 263.229 299.036 256.257C301.541 252.456 303.25 248.185 304.058 243.705C305.744 234.226 303.54 224.468 297.944 216.634Z" fill="#FF3E00"/>
<path d="M243.682 310.66C234.244 313.114 224.279 309.42 218.721 301.408C215.355 296.697 214.029 290.829 215.043 285.128C215.213 284.202 215.447 283.288 215.743 282.394L216.294 280.713L217.794 281.815C221.258 284.36 225.131 286.295 229.247 287.537L230.335 287.867L230.235 288.953C230.102 290.498 230.52 292.04 231.416 293.306C233.088 295.72 236.089 296.834 238.931 296.096C239.568 295.926 240.174 295.659 240.73 295.306L270.008 276.647C271.457 275.735 272.455 274.256 272.759 272.571C273.062 270.853 272.663 269.085 271.65 267.665C269.977 265.251 266.975 264.137 264.132 264.874C263.497 265.044 262.891 265.31 262.336 265.663L251.163 272.786C249.326 273.954 247.321 274.834 245.218 275.397C235.781 277.85 225.814 274.156 220.257 266.144C216.891 261.433 215.565 255.565 216.579 249.865C217.582 244.272 220.895 239.362 225.705 236.337L254.981 217.677C256.819 216.507 258.825 215.626 260.93 215.063C270.368 212.61 280.333 216.304 285.891 224.316C289.257 229.026 290.583 234.895 289.569 240.595C289.399 241.521 289.165 242.435 288.87 243.329L288.318 245.01L286.819 243.91C283.355 241.363 279.481 239.427 275.365 238.185L274.277 237.855L274.377 236.769C274.509 235.224 274.091 233.682 273.196 232.416C271.524 230.003 268.523 228.889 265.681 229.627C265.045 229.797 264.438 230.063 263.883 230.417L234.604 249.076C233.155 249.988 232.157 251.467 231.854 253.152C231.549 254.87 231.948 256.638 232.961 258.059C234.634 260.473 237.636 261.587 240.479 260.85C241.115 260.68 241.722 260.413 242.277 260.06L253.449 252.94C255.285 251.771 257.29 250.889 259.393 250.327C268.831 247.874 278.797 251.568 284.355 259.58C287.72 264.291 289.046 270.159 288.033 275.859C287.029 281.452 283.716 286.363 278.907 289.389L249.631 308.046C247.793 309.216 245.787 310.098 243.682 310.66Z" fill="white"/>
<path d="M822.136 294.929C821.374 294.929 820.75 294.687 820.264 294.201C819.779 293.716 819.536 293.092 819.536 292.329V273.297H801.024C800.262 273.297 799.603 273.055 799.048 272.569C798.563 272.084 798.32 271.46 798.32 270.697V263.105C798.32 262.343 798.563 261.719 799.048 261.233C799.603 260.748 800.262 260.505 801.024 260.505H819.536V241.993C819.536 241.231 819.779 240.607 820.264 240.121C820.75 239.636 821.374 239.393 822.136 239.393H830.664C831.358 239.393 831.947 239.636 832.432 240.121C832.987 240.607 833.264 241.231 833.264 241.993V260.505H851.672C852.435 260.505 853.059 260.748 853.544 261.233C854.03 261.719 854.272 262.343 854.272 263.105V270.697C854.272 271.46 854.03 272.084 853.544 272.569C853.059 273.055 852.435 273.297 851.672 273.297H833.264V292.329C833.264 293.092 832.987 293.716 832.432 294.201C831.947 294.687 831.358 294.929 830.664 294.929H822.136Z" fill="black"/>
<path d="M1102.1 306.247C1096.08 306.247 1090.44 305.265 1085.16 303.178C1079.88 301.092 1075.34 298.146 1071.41 294.342C1067.48 290.537 1064.42 285.996 1062.21 280.719C1059.88 275.318 1058.77 269.427 1058.77 262.922C1058.77 256.418 1059.88 250.404 1062.21 245.126C1064.54 239.726 1067.61 235.185 1071.54 231.38C1075.46 227.576 1080 224.63 1085.28 222.544C1090.56 220.457 1096.08 219.353 1101.85 219.353C1108.11 219.353 1113.51 220.212 1118.05 222.053C1122.59 223.894 1126.4 226.103 1129.59 228.926C1132.78 231.748 1135.23 234.817 1136.95 238.008C1138.67 241.322 1139.9 244.39 1140.63 247.458L1123.08 252.981C1122.71 251.508 1122.1 249.913 1121.24 248.195C1120.38 246.354 1119.03 244.635 1117.44 243.04C1115.84 241.444 1113.63 240.094 1111.18 238.99C1108.6 237.885 1105.53 237.394 1101.85 237.394C1099.03 237.394 1096.2 237.885 1093.38 238.867C1090.56 239.849 1087.98 241.444 1085.77 243.531C1083.44 245.617 1081.6 248.317 1080.25 251.508C1078.78 254.699 1078.16 258.504 1078.16 262.922C1078.16 266.85 1078.78 270.286 1080.13 273.355C1081.48 276.423 1083.19 279 1085.53 281.087C1087.74 283.173 1090.31 284.769 1093.14 285.873C1095.96 286.978 1099.03 287.469 1102.1 287.469C1105.65 287.469 1108.85 286.978 1111.42 285.873C1114 284.769 1116.21 283.419 1117.93 281.823C1119.65 280.228 1121 278.509 1121.98 276.668C1122.96 274.827 1123.7 273.232 1124.06 271.759L1141.86 276.791C1141.12 279.737 1139.9 282.805 1138.18 286.241C1136.46 289.678 1133.88 292.746 1130.81 295.692C1127.62 298.637 1123.7 301.092 1119.03 303.056C1114.12 305.265 1108.6 306.247 1102.1 306.247Z" fill="#161616"/>
<path d="M1102.1 306.247C1096.08 306.247 1090.44 305.265 1085.16 303.178C1079.88 301.092 1075.34 298.146 1071.41 294.342C1067.48 290.537 1064.42 285.996 1062.21 280.719C1059.88 275.318 1058.77 269.427 1058.77 262.922C1058.77 256.418 1059.88 250.404 1062.21 245.126C1064.54 239.726 1067.61 235.185 1071.54 231.38C1075.46 227.576 1080 224.63 1085.28 222.544C1090.56 220.457 1096.08 219.353 1101.85 219.353C1108.11 219.353 1113.51 220.212 1118.05 222.053C1122.59 223.894 1126.4 226.103 1129.59 228.926C1132.78 231.748 1135.23 234.817 1136.95 238.008C1138.67 241.322 1139.9 244.39 1140.63 247.458L1123.08 252.981C1122.71 251.508 1122.1 249.913 1121.24 248.195C1120.38 246.354 1119.03 244.635 1117.44 243.04C1115.84 241.444 1113.63 240.094 1111.18 238.99C1108.6 237.885 1105.53 237.394 1101.85 237.394C1099.03 237.394 1096.2 237.885 1093.38 238.867C1090.56 239.849 1087.98 241.444 1085.77 243.531C1083.44 245.617 1081.6 248.317 1080.25 251.508C1078.78 254.699 1078.16 258.504 1078.16 262.922C1078.16 266.85 1078.78 270.286 1080.13 273.355C1081.48 276.423 1083.19 279 1085.53 281.087C1087.74 283.173 1090.31 284.769 1093.14 285.873C1095.96 286.978 1099.03 287.469 1102.1 287.469C1105.65 287.469 1108.85 286.978 1111.42 285.873C1114 284.769 1116.21 283.419 1117.93 281.823C1119.65 280.228 1121 278.509 1121.98 276.668C1122.96 274.827 1123.7 273.232 1124.06 271.759L1141.86 276.791C1141.12 279.737 1139.9 282.805 1138.18 286.241C1136.46 289.678 1133.88 292.746 1130.81 295.692C1127.62 298.637 1123.7 301.092 1119.03 303.056C1114.12 305.265 1108.6 306.247 1102.1 306.247Z" fill="#161616"/>
<path d="M1102.1 306.247C1096.08 306.247 1090.44 305.265 1085.16 303.178C1079.88 301.092 1075.34 298.146 1071.41 294.342C1067.48 290.537 1064.42 285.996 1062.21 280.719C1059.88 275.318 1058.77 269.427 1058.77 262.922C1058.77 256.418 1059.88 250.404 1062.21 245.126C1064.54 239.726 1067.61 235.185 1071.54 231.38C1075.46 227.576 1080 224.63 1085.28 222.544C1090.56 220.457 1096.08 219.353 1101.85 219.353C1108.11 219.353 1113.51 220.212 1118.05 222.053C1122.59 223.894 1126.4 226.103 1129.59 228.926C1132.78 231.748 1135.23 234.817 1136.95 238.008C1138.67 241.322 1139.9 244.39 1140.63 247.458L1123.08 252.981C1122.71 251.508 1122.1 249.913 1121.24 248.195C1120.38 246.354 1119.03 244.635 1117.44 243.04C1115.84 241.444 1113.63 240.094 1111.18 238.99C1108.6 237.885 1105.53 237.394 1101.85 237.394C1099.03 237.394 1096.2 237.885 1093.38 238.867C1090.56 239.849 1087.98 241.444 1085.77 243.531C1083.44 245.617 1081.6 248.317 1080.25 251.508C1078.78 254.699 1078.16 258.504 1078.16 262.922C1078.16 266.85 1078.78 270.286 1080.13 273.355C1081.48 276.423 1083.19 279 1085.53 281.087C1087.74 283.173 1090.31 284.769 1093.14 285.873C1095.96 286.978 1099.03 287.469 1102.1 287.469C1105.65 287.469 1108.85 286.978 1111.42 285.873C1114 284.769 1116.21 283.419 1117.93 281.823C1119.65 280.228 1121 278.509 1121.98 276.668C1122.96 274.827 1123.7 273.232 1124.06 271.759L1141.86 276.791C1141.12 279.737 1139.9 282.805 1138.18 286.241C1136.46 289.678 1133.88 292.746 1130.81 295.692C1127.62 298.637 1123.7 301.092 1119.03 303.056C1114.12 305.265 1108.6 306.247 1102.1 306.247Z" fill="#161616"/>
<path d="M1213.17 287.469H1180.89L1174.88 304.406H1155.36L1186.78 220.825H1208.38L1239.43 304.406H1219.18L1213.17 287.469ZM1187.03 270.532H1207.28L1197.21 241.69L1187.03 270.532Z" fill="#161616"/>
<path d="M1301.29 246.108C1301.17 245.126 1300.8 244.144 1300.31 242.917C1299.82 241.69 1298.96 240.585 1297.98 239.481C1296.87 238.376 1295.52 237.517 1293.8 236.78C1292.08 236.044 1290 235.676 1287.42 235.676C1283.98 235.676 1281.16 236.658 1279.07 238.499C1276.99 240.34 1276.01 242.426 1276.01 244.635C1276.01 246.722 1276.62 248.44 1277.97 249.79C1279.32 251.14 1281.41 252.122 1284.23 252.736L1295.4 254.699C1299.45 255.436 1302.88 256.54 1305.83 258.136C1308.78 259.731 1311.35 261.695 1313.32 263.904C1315.4 266.113 1316.88 268.568 1317.86 271.268C1318.84 273.968 1319.33 276.791 1319.33 279.859C1319.33 283.173 1318.72 286.364 1317.37 289.555C1316.02 292.746 1314.05 295.446 1311.48 298.024C1308.9 300.478 1305.58 302.442 1301.78 304.038C1297.98 305.51 1293.56 306.369 1288.53 306.369C1282.76 306.369 1277.72 305.51 1273.55 303.792C1269.38 302.074 1265.94 299.987 1263.24 297.41C1260.54 294.833 1258.46 292.01 1256.98 288.819C1255.51 285.628 1254.65 282.559 1254.41 279.614L1271.47 275.441C1271.59 277.282 1272.08 279.123 1272.82 280.964C1273.55 282.682 1274.66 284.278 1276.01 285.505C1277.48 286.855 1279.2 287.837 1281.28 288.573C1283.37 289.31 1285.83 289.801 1288.65 289.801C1292.33 289.801 1295.28 288.942 1297.36 287.346C1299.45 285.751 1300.43 283.664 1300.43 281.087C1300.43 279 1299.57 277.159 1297.98 275.686C1296.38 274.214 1294.17 273.232 1291.47 272.741L1280.06 270.654C1272.94 269.304 1267.29 266.482 1263.37 262.063C1259.32 257.645 1257.35 252.367 1257.35 246.108C1257.35 242.181 1258.21 238.621 1259.81 235.308C1261.4 231.994 1263.61 229.171 1266.31 226.839C1269.01 224.507 1272.2 222.666 1275.88 221.316C1279.44 219.966 1283.25 219.353 1287.3 219.353C1292.45 219.353 1296.87 220.089 1300.55 221.439C1304.23 222.912 1307.3 224.63 1309.64 226.839C1312.09 229.048 1313.81 231.38 1315.16 234.08C1316.39 236.658 1317.24 239.235 1317.74 241.69L1301.29 246.108Z" fill="#161616"/>
<path d="M1345.35 304.405V220.947H1398.25V238.498H1364V254.453H1395.06V270.776H1364V286.854H1398.37V304.528H1345.35V304.405Z" fill="#161616"/>
<path d="M938.37 220.947V304.405H1021.83V220.947H938.37ZM1014.46 262.676H945.734V228.311H1014.46V262.676Z" fill="#161616"/>
</svg>
