<svg width="1479" height="539" viewBox="0 0 1479 539" fill="none" xmlns="http://www.w3.org/2000/svg">
<rect width="1478.59" height="539" fill="white"/>
<path fill-rule="evenodd" clip-rule="evenodd" d="M329.883 200.028H361.821L281.176 339L200 200.028H232.665L281.176 283.692L329.883 200.028Z" fill="#41B883"/>
<path fill-rule="evenodd" clip-rule="evenodd" d="M299.7 200H330.076L281.133 283.838L232.584 200H262.485L281.133 232.276L299.7 200Z" fill="#35495E"/>
<path fill-rule="evenodd" clip-rule="evenodd" d="M380.879 227.436C380.879 226.411 381.448 225.556 382.587 224.873C383.725 224.189 384.915 223.848 386.157 223.848C387.881 223.848 388.95 224.497 389.364 225.796L407.576 286.693L425.684 225.796C426.167 224.497 427.201 223.848 428.788 223.848C430.099 223.848 431.323 224.224 432.461 224.975C433.6 225.727 434.169 226.582 434.169 227.538C434.169 227.607 434.152 227.709 434.117 227.846C434.082 227.983 434.065 228.119 434.065 228.256L413.06 296.433C412.301 298.415 410.473 299.406 407.576 299.406C404.679 299.406 402.92 298.415 402.299 296.433L381.087 228.256C380.949 227.846 380.879 227.573 380.879 227.436ZM434.984 279.926V253.271C434.984 252.451 435.415 251.733 436.278 251.118C437.14 250.503 438.157 250.196 439.33 250.196C440.434 250.196 441.417 250.52 442.279 251.17C443.141 251.819 443.573 252.519 443.573 253.271V279.926C443.573 283.002 444.745 285.77 447.091 288.23C449.436 290.691 452.23 291.921 455.472 291.921C458.645 291.921 461.405 290.708 463.75 288.282C466.095 285.855 467.268 283.07 467.268 279.926V253.167C467.268 252.415 467.699 251.732 468.562 251.117C469.424 250.502 470.441 250.194 471.614 250.194C472.856 250.194 473.873 250.485 474.667 251.066C475.46 251.647 475.857 252.347 475.857 253.167V279.926C475.857 285.189 473.839 289.785 469.803 293.715C465.768 297.645 460.991 299.61 455.472 299.61C449.885 299.61 445.073 297.645 441.038 293.715C437.002 289.785 434.984 285.189 434.984 279.926ZM482.879 279.721V268.956C482.879 263.694 484.897 259.149 488.932 255.321C492.968 251.494 497.814 249.58 503.47 249.58C508.851 249.58 513.507 251.374 517.439 254.962C521.371 258.551 523.337 263.044 523.337 268.444C523.337 270.426 523.096 272.015 522.613 273.211C522.13 274.407 521.389 275.262 520.388 275.774C519.388 276.287 518.457 276.612 517.595 276.748C516.732 276.885 515.577 276.953 514.128 276.953H491.467V280.029C491.467 283.788 492.829 286.795 495.554 289.051C498.279 291.306 501.814 292.434 506.16 292.434C508.437 292.434 510.42 292.092 512.11 291.409C513.8 290.725 515.162 290.059 516.197 289.41C517.232 288.76 518.06 288.436 518.681 288.436C519.646 288.436 520.474 288.863 521.164 289.717C521.854 290.572 522.199 291.443 522.199 292.332C522.199 293.904 520.629 295.51 517.491 297.15C514.352 298.79 510.472 299.611 505.85 299.611C499.089 299.611 493.571 297.782 489.294 294.126C485.017 290.469 482.879 285.667 482.879 279.721ZM491.467 271.212H510.61C512.403 271.212 513.611 270.99 514.232 270.546C514.853 270.101 515.163 269.23 515.163 267.931C515.163 264.856 514.025 262.156 511.748 259.832C509.472 257.508 506.678 256.346 503.367 256.346C500.125 256.346 497.331 257.423 494.985 259.576C492.64 261.729 491.467 264.377 491.467 267.521L491.467 271.212ZM527.671 294.074C527.671 292.57 528.188 291.289 529.223 290.229C530.258 289.17 531.534 288.64 533.051 288.64C534.5 288.64 535.742 289.17 536.776 290.229C537.811 291.289 538.329 292.57 538.329 294.074C538.329 295.509 537.811 296.757 536.776 297.816C535.742 298.875 534.5 299.405 533.051 299.405C531.534 299.405 530.258 298.875 529.223 297.816C528.188 296.757 527.671 295.509 527.671 294.074ZM535.315 318.577C535.315 317.483 535.66 316.578 536.35 315.86C537.04 315.142 537.867 314.783 538.833 314.783C541.523 314.783 543.282 313.792 544.11 311.81C544.938 309.828 545.352 306.855 545.352 302.891V253.168C545.352 252.279 545.749 251.562 546.542 251.015C547.335 250.468 548.353 250.195 549.595 250.195C550.836 250.195 551.871 250.468 552.699 251.015C553.527 251.562 553.94 252.279 553.94 253.168V302.891C553.94 308.837 552.768 313.553 550.422 317.039C548.077 320.525 544.524 322.268 539.765 322.268C536.798 322.268 535.315 321.037 535.315 318.577ZM544.214 231.946C544.214 230.647 544.731 229.52 545.766 228.563C546.801 227.606 548.077 227.128 549.594 227.128C551.043 227.128 552.285 227.606 553.319 228.563C554.354 229.52 554.871 230.647 554.871 231.946C554.871 233.245 554.354 234.389 553.319 235.38C552.285 236.372 551.043 236.867 549.594 236.867C548.146 236.867 546.887 236.372 545.817 235.38C544.748 234.389 544.214 233.245 544.214 231.946ZM560.343 291.818C560.343 290.929 560.636 290.058 561.222 289.204C561.809 288.349 562.516 287.922 563.343 287.922C563.895 287.922 564.689 288.332 565.723 289.152C566.758 289.973 568.241 290.776 570.173 291.562C572.104 292.348 574.38 292.741 577.002 292.741C580.451 292.741 582.952 292.125 584.504 290.895C586.056 289.665 586.832 288.127 586.832 286.282C586.832 284.026 585.97 282.232 584.245 280.899C582.52 279.566 580.416 278.558 577.933 277.875C575.45 277.191 572.966 276.44 570.483 275.619C567.999 274.799 565.896 273.432 564.171 271.518C562.446 269.605 561.584 267.076 561.584 263.932C561.584 260.036 562.981 256.67 565.775 253.834C568.568 250.997 572.828 249.579 578.554 249.579C582.21 249.579 585.555 250.143 588.591 251.271C591.626 252.398 593.144 253.68 593.144 255.115C593.144 255.935 592.816 256.858 592.161 257.883C591.505 258.908 590.695 259.421 589.729 259.421C589.453 259.421 588.125 258.925 585.745 257.934C583.365 256.943 581.003 256.448 578.657 256.448C575.484 256.448 573.121 257.183 571.569 258.652C570.017 260.122 569.241 261.779 569.241 263.624C569.241 265.538 570.103 267.042 571.828 268.135C573.552 269.229 575.674 270.083 578.191 270.698C580.709 271.313 583.21 272.065 585.693 272.954C588.177 273.842 590.281 275.363 592.005 277.516C593.73 279.669 594.592 282.454 594.592 285.872C594.592 290.109 593.075 293.458 590.039 295.919C587.004 298.379 582.762 299.609 577.312 299.609C572.621 299.609 568.62 298.772 565.309 297.098C561.998 295.423 560.343 293.663 560.343 291.818Z" fill="#010101"/>
<path d="M702.358 301.568C701.595 301.568 700.971 301.325 700.486 300.84C700.001 300.355 699.758 299.731 699.758 298.968V279.936H681.246C680.483 279.936 679.825 279.693 679.27 279.208C678.785 278.723 678.542 278.099 678.542 277.336V269.744C678.542 268.981 678.785 268.357 679.27 267.872C679.825 267.387 680.483 267.144 681.246 267.144H699.758V248.632C699.758 247.869 700.001 247.245 700.486 246.76C700.971 246.275 701.595 246.032 702.358 246.032H710.886C711.579 246.032 712.169 246.275 712.654 246.76C713.209 247.245 713.486 247.869 713.486 248.632V267.144H731.894C732.657 267.144 733.281 267.387 733.766 267.872C734.251 268.357 734.494 268.981 734.494 269.744V277.336C734.494 278.099 734.251 278.723 733.766 279.208C733.281 279.693 732.657 279.936 731.894 279.936H713.486V298.968C713.486 299.731 713.209 300.355 712.654 300.84C712.169 301.325 711.579 301.568 710.886 301.568H702.358Z" fill="black"/>
<path d="M982.317 312.885C976.303 312.885 970.658 311.904 965.38 309.817C960.103 307.731 955.561 304.785 951.634 300.98C947.707 297.176 944.638 292.635 942.429 287.357C940.097 281.957 938.993 276.066 938.993 269.561C938.993 263.056 940.097 257.042 942.429 251.765C944.761 246.365 947.829 241.824 951.757 238.019C955.684 234.214 960.225 231.269 965.503 229.182C970.78 227.096 976.303 225.991 982.072 225.991C988.331 225.991 993.731 226.85 998.272 228.691C1002.81 230.532 1006.62 232.741 1009.81 235.564C1013 238.387 1015.45 241.455 1017.17 244.646C1018.89 247.96 1020.12 251.029 1020.85 254.097L1003.3 259.62C1002.94 258.147 1002.32 256.551 1001.46 254.833C1000.6 252.992 999.254 251.274 997.659 249.678C996.063 248.083 993.854 246.733 991.399 245.628C988.822 244.524 985.754 244.033 982.072 244.033C979.249 244.033 976.426 244.524 973.603 245.506C970.78 246.487 968.203 248.083 965.994 250.169C963.662 252.256 961.821 254.956 960.471 258.147C958.998 261.338 958.384 265.143 958.384 269.561C958.384 273.488 958.998 276.925 960.348 279.993C961.698 283.062 963.416 285.639 965.748 287.725C967.957 289.812 970.535 291.407 973.358 292.512C976.18 293.617 979.249 294.107 982.317 294.107C985.876 294.107 989.067 293.617 991.645 292.512C994.222 291.407 996.431 290.057 998.149 288.462C999.868 286.866 1001.22 285.148 1002.2 283.307C1003.18 281.466 1003.92 279.871 1004.29 278.398L1022.08 283.43C1021.35 286.375 1020.12 289.444 1018.4 292.88C1016.68 296.317 1014.1 299.385 1011.04 302.33C1007.85 305.276 1003.92 307.731 999.254 309.694C994.345 311.904 988.822 312.885 982.317 312.885Z" fill="#161616"/>
<path d="M982.317 312.885C976.303 312.885 970.658 311.904 965.38 309.817C960.103 307.731 955.561 304.785 951.634 300.98C947.707 297.176 944.638 292.635 942.429 287.357C940.097 281.957 938.993 276.066 938.993 269.561C938.993 263.056 940.097 257.042 942.429 251.765C944.761 246.365 947.829 241.824 951.757 238.019C955.684 234.214 960.225 231.269 965.503 229.182C970.78 227.096 976.303 225.991 982.072 225.991C988.331 225.991 993.731 226.85 998.272 228.691C1002.81 230.532 1006.62 232.741 1009.81 235.564C1013 238.387 1015.45 241.455 1017.17 244.646C1018.89 247.96 1020.12 251.029 1020.85 254.097L1003.3 259.62C1002.94 258.147 1002.32 256.551 1001.46 254.833C1000.6 252.992 999.254 251.274 997.659 249.678C996.063 248.083 993.854 246.733 991.399 245.628C988.822 244.524 985.754 244.033 982.072 244.033C979.249 244.033 976.426 244.524 973.603 245.506C970.78 246.487 968.203 248.083 965.994 250.169C963.662 252.256 961.821 254.956 960.471 258.147C958.998 261.338 958.384 265.143 958.384 269.561C958.384 273.488 958.998 276.925 960.348 279.993C961.698 283.062 963.416 285.639 965.748 287.725C967.957 289.812 970.535 291.407 973.358 292.512C976.18 293.617 979.249 294.107 982.317 294.107C985.876 294.107 989.067 293.617 991.645 292.512C994.222 291.407 996.431 290.057 998.149 288.462C999.868 286.866 1001.22 285.148 1002.2 283.307C1003.18 281.466 1003.92 279.871 1004.29 278.398L1022.08 283.43C1021.35 286.375 1020.12 289.444 1018.4 292.88C1016.68 296.317 1014.1 299.385 1011.04 302.33C1007.85 305.276 1003.92 307.731 999.254 309.694C994.345 311.904 988.822 312.885 982.317 312.885Z" fill="#161616"/>
<path d="M982.317 312.885C976.303 312.885 970.658 311.904 965.38 309.817C960.103 307.731 955.561 304.785 951.634 300.98C947.707 297.176 944.638 292.635 942.429 287.357C940.097 281.957 938.993 276.066 938.993 269.561C938.993 263.056 940.097 257.042 942.429 251.765C944.761 246.365 947.829 241.824 951.757 238.019C955.684 234.214 960.225 231.269 965.503 229.182C970.78 227.096 976.303 225.991 982.072 225.991C988.331 225.991 993.731 226.85 998.272 228.691C1002.81 230.532 1006.62 232.741 1009.81 235.564C1013 238.387 1015.45 241.455 1017.17 244.646C1018.89 247.96 1020.12 251.029 1020.85 254.097L1003.3 259.62C1002.94 258.147 1002.32 256.551 1001.46 254.833C1000.6 252.992 999.254 251.274 997.659 249.678C996.063 248.083 993.854 246.733 991.399 245.628C988.822 244.524 985.754 244.033 982.072 244.033C979.249 244.033 976.426 244.524 973.603 245.506C970.78 246.487 968.203 248.083 965.994 250.169C963.662 252.256 961.821 254.956 960.471 258.147C958.998 261.338 958.384 265.143 958.384 269.561C958.384 273.488 958.998 276.925 960.348 279.993C961.698 283.062 963.416 285.639 965.748 287.725C967.957 289.812 970.535 291.407 973.358 292.512C976.18 293.617 979.249 294.107 982.317 294.107C985.876 294.107 989.067 293.617 991.645 292.512C994.222 291.407 996.431 290.057 998.149 288.462C999.868 286.866 1001.22 285.148 1002.2 283.307C1003.18 281.466 1003.92 279.871 1004.29 278.398L1022.08 283.43C1021.35 286.375 1020.12 289.444 1018.4 292.88C1016.68 296.317 1014.1 299.385 1011.04 302.33C1007.85 305.276 1003.92 307.731 999.254 309.694C994.345 311.904 988.822 312.885 982.317 312.885Z" fill="#161616"/>
<path d="M1093.39 294.107H1061.11L1055.1 311.044H1035.58L1067 227.464H1088.6L1119.65 311.044H1099.4L1093.39 294.107ZM1067.25 277.17H1087.5L1077.43 248.328L1067.25 277.17Z" fill="#161616"/>
<path d="M1181.51 252.747C1181.39 251.765 1181.02 250.783 1180.53 249.556C1180.04 248.328 1179.18 247.224 1178.2 246.119C1177.09 245.015 1175.74 244.156 1174.02 243.419C1172.31 242.683 1170.22 242.315 1167.64 242.315C1164.21 242.315 1161.38 243.296 1159.3 245.137C1157.21 246.978 1156.23 249.065 1156.23 251.274C1156.23 253.36 1156.84 255.079 1158.19 256.429C1159.54 257.779 1161.63 258.761 1164.45 259.374L1175.62 261.338C1179.67 262.074 1183.11 263.179 1186.05 264.774C1189 266.37 1191.58 268.334 1193.54 270.543C1195.63 272.752 1197.1 275.207 1198.08 277.907C1199.06 280.607 1199.55 283.43 1199.55 286.498C1199.55 289.812 1198.94 293.003 1197.59 296.194C1196.24 299.385 1194.28 302.085 1191.7 304.662C1189.12 307.117 1185.81 309.081 1182 310.676C1178.2 312.149 1173.78 313.008 1168.75 313.008C1162.98 313.008 1157.95 312.149 1153.77 310.431C1149.6 308.713 1146.16 306.626 1143.46 304.049C1140.76 301.471 1138.68 298.649 1137.2 295.457C1135.73 292.266 1134.87 289.198 1134.63 286.253L1151.69 282.08C1151.81 283.921 1152.3 285.762 1153.04 287.603C1153.77 289.321 1154.88 290.916 1156.23 292.144C1157.7 293.494 1159.42 294.476 1161.51 295.212C1163.59 295.948 1166.05 296.439 1168.87 296.439C1172.55 296.439 1175.5 295.58 1177.58 293.985C1179.67 292.389 1180.65 290.303 1180.65 287.725C1180.65 285.639 1179.79 283.798 1178.2 282.325C1176.6 280.852 1174.39 279.871 1171.69 279.38L1160.28 277.293C1153.16 275.943 1147.51 273.12 1143.59 268.702C1139.54 264.284 1137.57 259.006 1137.57 252.747C1137.57 248.819 1138.43 245.26 1140.03 241.946C1141.62 238.633 1143.83 235.81 1146.53 233.478C1149.23 231.146 1152.42 229.305 1156.11 227.955C1159.66 226.605 1163.47 225.991 1167.52 225.991C1172.67 225.991 1177.09 226.728 1180.77 228.078C1184.46 229.55 1187.52 231.269 1189.86 233.478C1192.31 235.687 1194.03 238.019 1195.38 240.719C1196.61 243.296 1197.47 245.874 1197.96 248.328L1181.51 252.747Z" fill="#161616"/>
<path d="M1225.57 311.044V227.586H1278.47V245.137H1244.23V261.092H1275.28V277.415H1244.23V293.493H1278.59V311.166H1225.57V311.044Z" fill="#161616"/>
<path d="M818.592 227.586V311.044H902.05V227.586H818.592ZM894.686 269.315H825.956V234.95H894.686V269.315Z" fill="#161616"/>
</svg>
