<svg width="1599" height="539" viewBox="0 0 1599 539" fill="none" xmlns="http://www.w3.org/2000/svg">
<rect width="1598.37" height="538.982" fill="white"/>
<path d="M351.295 303.044V239.908H359.431L398.102 290.75V239.908H405.836V303.044H397.699L358.983 251.703V303.044H351.249H351.295ZM468.835 300.537C463.562 302.482 457.983 303.467 452.361 303.445C429.459 303.445 418.003 292.514 418.003 270.554C418.003 249.798 429.052 239.367 451.202 239.367C457.533 239.367 463.453 240.267 468.877 241.98V249C463.453 246.9 457.828 245.892 452.1 245.892C434.822 245.892 426.181 254.116 426.181 270.358C426.181 287.907 434.719 296.635 451.697 296.635C454.41 296.635 457.426 296.234 460.741 295.534V274.377H468.877V300.547L468.835 300.537ZM481.895 278.675V239.871H490.031V278.675C490.031 290.81 496.11 296.878 508.267 296.878C520.322 296.878 526.503 290.81 526.503 278.675V239.871H534.64V278.675C534.64 295.221 525.896 303.543 508.314 303.543C490.732 303.543 481.988 295.221 481.988 278.675H481.895ZM557.243 239.908V296.509H590.443V303.128H549.154V239.908H557.29H557.243ZM602.151 303.081H593.613L625.045 231.633L656.49 303.128H647.447L639.311 283.273H618.409L620.621 276.654H636.594L624.741 248.076L602.132 303.128L602.151 303.081ZM665.239 303.081V239.908H692.266C704.321 239.908 710.348 244.921 710.348 255.049C710.348 263.273 704.419 269.387 692.673 273.252L714.369 303.03H703.615L683.522 274.652V269.439C695.577 267.534 701.758 262.923 701.758 255.502C701.758 249.686 698.485 246.774 691.714 246.774H673.633V303.044H665.295L665.239 303.081Z" fill="#B52E31"/>
<path d="M200 223.063L264.795 200.006L331.301 222.666L320.546 308.201L264.795 338.982L209.946 308.644L200 223.063Z" fill="#E23237"/>
<path d="M331.301 222.662L264.794 200.001V338.982L320.551 308.196L331.301 222.662Z" fill="#B52E31"/>
<path d="M264.902 216.244L224.511 305.844L239.582 305.545L247.718 285.289H283.784L292.668 305.746L307.033 306.045L264.94 216.198L264.902 216.244ZM264.996 245.023C264.997 232.692 278.659 273.504 278.659 273.504H253.035L264.996 245.033V245.023Z" fill="white"/>
<path d="M351.296 303.044V239.908H359.432L398.102 290.75V239.908H405.836V303.044H397.7L358.983 251.703V303.044H351.249H351.296ZM468.835 300.537C463.563 302.482 457.983 303.467 452.362 303.445C429.459 303.445 418.003 292.514 418.003 270.554C418.003 249.798 429.052 239.367 451.202 239.367C457.534 239.367 463.453 240.267 468.877 241.98V249C463.453 246.9 457.828 245.892 452.1 245.892C434.822 245.892 426.181 254.116 426.181 270.358C426.181 287.907 434.72 296.635 451.698 296.635C454.41 296.635 457.426 296.234 460.741 295.534V274.377H468.877V300.547L468.835 300.537ZM481.895 278.675V239.871H490.031V278.675C490.031 290.81 496.11 296.878 508.268 296.878C520.322 296.878 526.504 290.81 526.504 278.675V239.871H534.64V278.675C534.64 295.221 525.896 303.543 508.314 303.543C490.733 303.543 481.989 295.221 481.989 278.675H481.895ZM557.244 239.908V296.509H590.443V303.128H549.154V239.908H557.29H557.244ZM602.152 303.081H593.613L625.045 231.633L656.491 303.128H647.448L639.311 283.273H618.41L620.622 276.654H636.595L624.741 248.076L602.133 303.128L602.152 303.081ZM665.24 303.081V239.908H692.267C704.321 239.908 710.349 244.921 710.349 255.049C710.349 263.273 704.419 269.387 692.673 273.252L714.37 303.03H703.615L683.523 274.652V269.439C695.577 267.534 701.759 262.923 701.759 255.502C701.759 249.686 698.486 246.774 691.715 246.774H673.633V303.044H665.296L665.24 303.081Z" fill="#B52E31"/>
<path d="M200 223.061L264.795 200.004L331.301 222.665L320.546 308.199L264.795 338.98L209.946 308.642L200 223.061Z" fill="#E23237"/>
<path d="M331.301 222.66L264.794 200V338.981L320.551 308.195L331.301 222.66Z" fill="#B52E31"/>
<path d="M264.903 216.246L224.512 305.846L239.583 305.547L247.719 285.29H283.785L292.669 305.748L307.034 306.046L264.941 216.199L264.903 216.246ZM264.997 245.025C264.998 232.693 278.66 273.505 278.66 273.505H253.036L264.997 245.034V245.025Z" fill="white"/>
<path d="M822.136 301.559C821.374 301.559 820.75 301.317 820.264 300.831C819.779 300.346 819.536 299.722 819.536 298.959V279.927H801.024C800.262 279.927 799.603 279.685 799.048 279.199C798.563 278.714 798.32 278.09 798.32 277.327V269.735C798.32 268.973 798.563 268.349 799.048 267.863C799.603 267.378 800.262 267.135 801.024 267.135H819.536V248.623C819.536 247.861 819.779 247.237 820.264 246.751C820.75 246.266 821.374 246.023 822.136 246.023H830.664C831.358 246.023 831.947 246.266 832.432 246.751C832.987 247.237 833.264 247.861 833.264 248.623V267.135H851.672C852.435 267.135 853.059 267.378 853.544 267.863C854.03 268.349 854.272 268.973 854.272 269.735V277.327C854.272 278.09 854.03 278.714 853.544 279.199C853.059 279.685 852.435 279.927 851.672 279.927H833.264V298.959C833.264 299.722 832.987 300.346 832.432 300.831C831.947 301.317 831.358 301.559 830.664 301.559H822.136Z" fill="black"/>
<path d="M1102.1 312.877C1096.08 312.877 1090.44 311.895 1085.16 309.809C1079.88 307.722 1075.34 304.777 1071.41 300.972C1067.48 297.167 1064.42 292.626 1062.21 287.349C1059.88 281.949 1058.77 276.058 1058.77 269.553C1058.77 263.048 1059.88 257.034 1062.21 251.757C1064.54 246.356 1067.61 241.815 1071.54 238.011C1075.46 234.206 1080 231.26 1085.28 229.174C1090.56 227.087 1096.08 225.983 1101.85 225.983C1108.11 225.983 1113.51 226.842 1118.05 228.683C1122.59 230.524 1126.4 232.733 1129.59 235.556C1132.78 238.379 1135.23 241.447 1136.95 244.638C1138.67 247.952 1139.9 251.02 1140.63 254.089L1123.08 259.611C1122.71 258.139 1122.1 256.543 1121.24 254.825C1120.38 252.984 1119.03 251.266 1117.44 249.67C1115.84 248.075 1113.63 246.725 1111.18 245.62C1108.6 244.515 1105.53 244.025 1101.85 244.025C1099.03 244.025 1096.2 244.515 1093.38 245.497C1090.56 246.479 1087.98 248.075 1085.77 250.161C1083.44 252.248 1081.6 254.948 1080.25 258.139C1078.78 261.33 1078.16 265.134 1078.16 269.553C1078.16 273.48 1078.78 276.917 1080.13 279.985C1081.48 283.053 1083.19 285.631 1085.53 287.717C1087.74 289.804 1090.31 291.399 1093.14 292.504C1095.96 293.608 1099.03 294.099 1102.1 294.099C1105.65 294.099 1108.85 293.608 1111.42 292.504C1114 291.399 1116.21 290.049 1117.93 288.453C1119.65 286.858 1121 285.14 1121.98 283.299C1122.96 281.458 1123.7 279.862 1124.06 278.389L1141.86 283.421C1141.12 286.367 1139.9 289.435 1138.18 292.872C1136.46 296.308 1133.88 299.377 1130.81 302.322C1127.62 305.268 1123.7 307.722 1119.03 309.686C1114.12 311.895 1108.6 312.877 1102.1 312.877Z" fill="#161616"/>
<path d="M1102.1 312.877C1096.08 312.877 1090.44 311.895 1085.16 309.809C1079.88 307.722 1075.34 304.777 1071.41 300.972C1067.48 297.167 1064.42 292.626 1062.21 287.349C1059.88 281.949 1058.77 276.058 1058.77 269.553C1058.77 263.048 1059.88 257.034 1062.21 251.757C1064.54 246.356 1067.61 241.815 1071.54 238.011C1075.46 234.206 1080 231.26 1085.28 229.174C1090.56 227.087 1096.08 225.983 1101.85 225.983C1108.11 225.983 1113.51 226.842 1118.05 228.683C1122.59 230.524 1126.4 232.733 1129.59 235.556C1132.78 238.379 1135.23 241.447 1136.95 244.638C1138.67 247.952 1139.9 251.02 1140.63 254.089L1123.08 259.611C1122.71 258.139 1122.1 256.543 1121.24 254.825C1120.38 252.984 1119.03 251.266 1117.44 249.67C1115.84 248.075 1113.63 246.725 1111.18 245.62C1108.6 244.515 1105.53 244.025 1101.85 244.025C1099.03 244.025 1096.2 244.515 1093.38 245.497C1090.56 246.479 1087.98 248.075 1085.77 250.161C1083.44 252.248 1081.6 254.948 1080.25 258.139C1078.78 261.33 1078.16 265.134 1078.16 269.553C1078.16 273.48 1078.78 276.917 1080.13 279.985C1081.48 283.053 1083.19 285.631 1085.53 287.717C1087.74 289.804 1090.31 291.399 1093.14 292.504C1095.96 293.608 1099.03 294.099 1102.1 294.099C1105.65 294.099 1108.85 293.608 1111.42 292.504C1114 291.399 1116.21 290.049 1117.93 288.453C1119.65 286.858 1121 285.14 1121.98 283.299C1122.96 281.458 1123.7 279.862 1124.06 278.389L1141.86 283.421C1141.12 286.367 1139.9 289.435 1138.18 292.872C1136.46 296.308 1133.88 299.377 1130.81 302.322C1127.62 305.268 1123.7 307.722 1119.03 309.686C1114.12 311.895 1108.6 312.877 1102.1 312.877Z" fill="#161616"/>
<path d="M1102.1 312.877C1096.08 312.877 1090.44 311.895 1085.16 309.809C1079.88 307.722 1075.34 304.777 1071.41 300.972C1067.48 297.167 1064.42 292.626 1062.21 287.349C1059.88 281.949 1058.77 276.058 1058.77 269.553C1058.77 263.048 1059.88 257.034 1062.21 251.757C1064.54 246.356 1067.61 241.815 1071.54 238.011C1075.46 234.206 1080 231.26 1085.28 229.174C1090.56 227.087 1096.08 225.983 1101.85 225.983C1108.11 225.983 1113.51 226.842 1118.05 228.683C1122.59 230.524 1126.4 232.733 1129.59 235.556C1132.78 238.379 1135.23 241.447 1136.95 244.638C1138.67 247.952 1139.9 251.02 1140.63 254.089L1123.08 259.611C1122.71 258.139 1122.1 256.543 1121.24 254.825C1120.38 252.984 1119.03 251.266 1117.44 249.67C1115.84 248.075 1113.63 246.725 1111.18 245.62C1108.6 244.515 1105.53 244.025 1101.85 244.025C1099.03 244.025 1096.2 244.515 1093.38 245.497C1090.56 246.479 1087.98 248.075 1085.77 250.161C1083.44 252.248 1081.6 254.948 1080.25 258.139C1078.78 261.33 1078.16 265.134 1078.16 269.553C1078.16 273.48 1078.78 276.917 1080.13 279.985C1081.48 283.053 1083.19 285.631 1085.53 287.717C1087.74 289.804 1090.31 291.399 1093.14 292.504C1095.96 293.608 1099.03 294.099 1102.1 294.099C1105.65 294.099 1108.85 293.608 1111.42 292.504C1114 291.399 1116.21 290.049 1117.93 288.453C1119.65 286.858 1121 285.14 1121.98 283.299C1122.96 281.458 1123.7 279.862 1124.06 278.389L1141.86 283.421C1141.12 286.367 1139.9 289.435 1138.18 292.872C1136.46 296.308 1133.88 299.377 1130.81 302.322C1127.62 305.268 1123.7 307.722 1119.03 309.686C1114.12 311.895 1108.6 312.877 1102.1 312.877Z" fill="#161616"/>
<path d="M1213.17 294.099H1180.89L1174.88 311.036H1155.36L1186.78 227.456H1208.38L1239.43 311.036H1219.18L1213.17 294.099ZM1187.03 277.162H1207.28L1197.21 248.32L1187.03 277.162Z" fill="#161616"/>
<path d="M1301.29 252.738C1301.17 251.757 1300.8 250.775 1300.31 249.547C1299.82 248.32 1298.96 247.216 1297.98 246.111C1296.87 245.006 1295.52 244.147 1293.8 243.411C1292.08 242.674 1290 242.306 1287.42 242.306C1283.98 242.306 1281.16 243.288 1279.07 245.129C1276.99 246.97 1276.01 249.057 1276.01 251.266C1276.01 253.352 1276.62 255.07 1277.97 256.42C1279.32 257.77 1281.41 258.752 1284.23 259.366L1295.4 261.33C1299.45 262.066 1302.88 263.171 1305.83 264.766C1308.78 266.362 1311.35 268.325 1313.32 270.535C1315.4 272.744 1316.88 275.198 1317.86 277.899C1318.84 280.599 1319.33 283.421 1319.33 286.49C1319.33 289.804 1318.72 292.995 1317.37 296.186C1316.02 299.377 1314.05 302.077 1311.48 304.654C1308.9 307.109 1305.58 309.072 1301.78 310.668C1297.98 312.141 1293.56 313 1288.53 313C1282.76 313 1277.72 312.141 1273.55 310.422C1269.38 308.704 1265.94 306.618 1263.24 304.04C1260.54 301.463 1258.46 298.64 1256.98 295.449C1255.51 292.258 1254.65 289.19 1254.41 286.244L1271.47 282.071C1271.59 283.912 1272.08 285.753 1272.82 287.594C1273.55 289.313 1274.66 290.908 1276.01 292.135C1277.48 293.485 1279.2 294.467 1281.28 295.204C1283.37 295.94 1285.83 296.431 1288.65 296.431C1292.33 296.431 1295.28 295.572 1297.36 293.976C1299.45 292.381 1300.43 290.294 1300.43 287.717C1300.43 285.631 1299.57 283.79 1297.98 282.317C1296.38 280.844 1294.17 279.862 1291.47 279.371L1280.06 277.285C1272.94 275.935 1267.29 273.112 1263.37 268.694C1259.32 264.275 1257.35 258.998 1257.35 252.738C1257.35 248.811 1258.21 245.252 1259.81 241.938C1261.4 238.624 1263.61 235.801 1266.31 233.47C1269.01 231.138 1272.2 229.297 1275.88 227.947C1279.44 226.597 1283.25 225.983 1287.3 225.983C1292.45 225.983 1296.87 226.719 1300.55 228.069C1304.23 229.542 1307.3 231.26 1309.64 233.47C1312.09 235.679 1313.81 238.011 1315.16 240.711C1316.39 243.288 1317.24 245.865 1317.74 248.32L1301.29 252.738Z" fill="#161616"/>
<path d="M1345.35 311.036V227.578H1398.25V245.129H1364V261.084H1395.06V277.407H1364V293.485H1398.37V311.159H1345.35V311.036Z" fill="#161616"/>
<path d="M938.37 227.578V311.036H1021.83V227.578H938.37ZM1014.46 269.307H945.734V234.942H1014.46V269.307Z" fill="#161616"/>
</svg>
