<svg width="65" height="64" viewBox="0 0 65 64" fill="none" xmlns="http://www.w3.org/2000/svg">
<path d="M48.8239 48.1345L32.8049 40.125L16.7859 48.1345L32.8049 56.144L48.8239 48.1345Z" fill="#9ECC5C"/>
<path d="M48.8242 48.134L32.8052 40.1245V24.1055L48.8242 32.115V48.134Z" fill="#9ECC5C"/>
<path d="M32.8051 40.1245L16.7861 48.134L16.7861 32.115L32.8051 24.1055V40.1245Z" fill="#9ECC5C"/>
<path d="M32.8051 56.1437L16.7861 48.1342L16.7861 32.1152L32.8051 40.1247V56.1437Z" fill="#C6FF73"/>
<path d="M48.8241 32.115L32.8051 24.1055L16.7861 32.115L32.8051 40.1245L48.8241 32.115Z" fill="#9ECC5C"/>
<path d="M48.7829 32.0382L32.7639 24.0288V8.00977L48.7829 16.0193V32.0382Z" fill="#9ECC5C"/>
<path d="M48.783 32.0382L64.8019 24.0288V8.00977L48.783 16.0193L48.783 32.0382Z" fill="#C6FF73"/>
<path d="M48.783 32.0382L64.8019 24.0288V8.00977L48.783 16.0193L48.783 32.0382Z" fill="black" fill-opacity="0.2"/>
<path d="M64.802 8.00949L48.783 0L32.764 8.00949L48.783 16.019L64.802 8.00949Z" fill="#C6FF73"/>
<path d="M32.8382 55.99L16.8192 47.9805L0.800171 55.99L16.8192 63.9995L32.8382 55.99Z" fill="#9ECC5C"/>
<path d="M32.8381 55.9914L16.8191 47.9819L16.8191 31.9629L32.8381 39.9724V55.9914Z" fill="#9ECC5C"/>
<path d="M16.819 47.9819L0.800049 55.9914L0.800049 39.9724L16.819 31.9629L16.819 47.9819Z" fill="#C6FF73"/>
<path d="M16.8192 63.9992L0.800171 55.9897L0.800171 39.9707L16.8192 47.9802L16.8192 63.9992Z" fill="#C6FF73"/>
<path d="M16.8191 63.9992L32.8381 55.9897V39.9707L16.8191 47.9802L16.8191 63.9992Z" fill="#C6FF73"/>
<path d="M16.8191 63.9992L32.8381 55.9897V39.9707L16.8191 47.9802L16.8191 63.9992Z" fill="black" fill-opacity="0.2"/>
<path d="M32.838 39.9724L16.819 31.9629L0.800049 39.9724L16.819 47.9819L32.838 39.9724Z" fill="#C6FF73"/>
<path d="M48.8236 32.0036L32.8046 23.9941L16.7856 32.0036L32.8046 40.0131L48.8236 32.0036Z" fill="#9ECC5C"/>
<path d="M48.8238 32.0031L32.8048 23.9936V7.97461L48.8238 15.9841V32.0031Z" fill="#9ECC5C"/>
<path d="M32.8049 23.9936L16.7859 32.0031L16.7859 15.9841L32.8049 7.97461V23.9936Z" fill="#C6FF73"/>
<path d="M32.8049 40.0129L16.7859 32.0034L16.7859 15.9844L32.8049 23.9939V40.0129Z" fill="#C6FF73"/>
<path d="M32.8048 40.0129L48.8238 32.0034V15.9844L32.8048 23.9939L32.8048 40.0129Z" fill="#C6FF73"/>
<path d="M32.8048 40.0129L48.8238 32.0034V15.9844L32.8048 23.9939L32.8048 40.0129Z" fill="black" fill-opacity="0.2"/>
<path d="M48.8239 15.9841L32.8049 7.97461L16.7859 15.9841L32.8049 23.9936L48.8239 15.9841Z" fill="#C6FF73"/>
<ellipse cx="32.9941" cy="19.2732" rx="2.88831" ry="1.92554" fill="#C6FF73"/>
<ellipse cx="32.9941" cy="19.2732" rx="2.88831" ry="1.92554" fill="black" fill-opacity="0.2"/>
<rect x="30.1058" y="18.3105" width="5.77662" height="0.96277" fill="#C6FF73"/>
<rect x="30.1058" y="18.3105" width="5.77662" height="0.96277" fill="black" fill-opacity="0.2"/>
<ellipse cx="32.9941" cy="18.3103" rx="2.88831" ry="1.92554" fill="#C6FF73"/>
<ellipse cx="25.2921" cy="15.4236" rx="2.88831" ry="1.92554" fill="#C6FF73"/>
<ellipse cx="25.2921" cy="15.4236" rx="2.88831" ry="1.92554" fill="black" fill-opacity="0.2"/>
<rect x="22.4038" y="14.4609" width="5.77662" height="0.96277" fill="#C6FF73"/>
<rect x="22.4038" y="14.4609" width="5.77662" height="0.96277" fill="black" fill-opacity="0.2"/>
<ellipse cx="25.2921" cy="14.4607" rx="2.88831" ry="1.92554" fill="#C6FF73"/>
<ellipse cx="40.6963" cy="15.4236" rx="2.88831" ry="1.92554" fill="#C6FF73"/>
<ellipse cx="40.6963" cy="15.4236" rx="2.88831" ry="1.92554" fill="black" fill-opacity="0.2"/>
<rect x="37.808" y="14.4609" width="5.77662" height="0.96277" fill="#C6FF73"/>
<rect x="37.808" y="14.4609" width="5.77662" height="0.96277" fill="black" fill-opacity="0.2"/>
<ellipse cx="40.6963" cy="14.4607" rx="2.88831" ry="1.92554" fill="#C6FF73"/>
<ellipse cx="32.9943" cy="11.572" rx="2.88831" ry="1.92554" fill="#C6FF73"/>
<ellipse cx="32.9943" cy="11.572" rx="2.88831" ry="1.92554" fill="black" fill-opacity="0.2"/>
<rect x="30.106" y="10.6094" width="5.77662" height="0.96277" fill="#C6FF73"/>
<rect x="30.106" y="10.6094" width="5.77662" height="0.96277" fill="black" fill-opacity="0.2"/>
<ellipse cx="32.9943" cy="10.6091" rx="2.88831" ry="1.92554" fill="#C6FF73"/>
<ellipse cx="48.1682" cy="12.322" rx="2.88831" ry="1.92554" fill="#C6FF73"/>
<ellipse cx="48.1682" cy="12.322" rx="2.88831" ry="1.92554" fill="black" fill-opacity="0.2"/>
<rect x="45.2799" y="11.3594" width="5.77662" height="0.96277" fill="#C6FF73"/>
<rect x="45.2799" y="11.3594" width="5.77662" height="0.96277" fill="black" fill-opacity="0.2"/>
<ellipse cx="48.1682" cy="11.3591" rx="2.88831" ry="1.92554" fill="#C6FF73"/>
<ellipse cx="40.4661" cy="8.47242" rx="2.88831" ry="1.92554" fill="#C6FF73"/>
<ellipse cx="40.4661" cy="8.47242" rx="2.88831" ry="1.92554" fill="black" fill-opacity="0.2"/>
<rect x="37.5778" y="7.50977" width="5.77662" height="0.96277" fill="#C6FF73"/>
<rect x="37.5778" y="7.50977" width="5.77662" height="0.96277" fill="black" fill-opacity="0.2"/>
<ellipse cx="40.4661" cy="7.50952" rx="2.88831" ry="1.92554" fill="#C6FF73"/>
<ellipse cx="55.8705" cy="8.47242" rx="2.88831" ry="1.92554" fill="#C6FF73"/>
<ellipse cx="55.8705" cy="8.47242" rx="2.88831" ry="1.92554" fill="black" fill-opacity="0.2"/>
<rect x="52.9822" y="7.50977" width="5.77662" height="0.96277" fill="#C6FF73"/>
<rect x="52.9822" y="7.50977" width="5.77662" height="0.96277" fill="black" fill-opacity="0.2"/>
<ellipse cx="55.8705" cy="7.50952" rx="2.88831" ry="1.92554" fill="#C6FF73"/>
<ellipse cx="48.1682" cy="4.6189" rx="2.88831" ry="1.92554" fill="#C6FF73"/>
<ellipse cx="48.1682" cy="4.6189" rx="2.88831" ry="1.92554" fill="black" fill-opacity="0.2"/>
<rect x="45.2799" y="3.65625" width="5.77662" height="0.96277" fill="#C6FF73"/>
<rect x="45.2799" y="3.65625" width="5.77662" height="0.96277" fill="black" fill-opacity="0.2"/>
<ellipse cx="48.1682" cy="3.65601" rx="2.88831" ry="1.92554" fill="#C6FF73"/>
<ellipse cx="16.8782" cy="43.1306" rx="2.88831" ry="1.92554" fill="#C6FF73"/>
<ellipse cx="16.8782" cy="43.1306" rx="2.88831" ry="1.92554" fill="black" fill-opacity="0.2"/>
<rect x="13.9899" y="42.168" width="5.77662" height="0.96277" fill="#C6FF73"/>
<rect x="13.9899" y="42.168" width="5.77662" height="0.96277" fill="black" fill-opacity="0.2"/>
<ellipse cx="16.8782" cy="42.1677" rx="2.88831" ry="1.92554" fill="#C6FF73"/>
<ellipse cx="9.17603" cy="39.281" rx="2.88831" ry="1.92554" fill="#C6FF73"/>
<ellipse cx="9.17603" cy="39.281" rx="2.88831" ry="1.92554" fill="black" fill-opacity="0.2"/>
<rect x="6.28772" y="38.3184" width="5.77662" height="0.96277" fill="#C6FF73"/>
<rect x="6.28772" y="38.3184" width="5.77662" height="0.96277" fill="black" fill-opacity="0.2"/>
<ellipse cx="9.17603" cy="38.3181" rx="2.88831" ry="1.92554" fill="#C6FF73"/>
<ellipse cx="24.5803" cy="39.281" rx="2.88831" ry="1.92554" fill="#C6FF73"/>
<ellipse cx="24.5803" cy="39.281" rx="2.88831" ry="1.92554" fill="black" fill-opacity="0.2"/>
<rect x="21.692" y="38.3184" width="5.77662" height="0.96277" fill="#C6FF73"/>
<rect x="21.692" y="38.3184" width="5.77662" height="0.96277" fill="black" fill-opacity="0.2"/>
<ellipse cx="24.5803" cy="38.3181" rx="2.88831" ry="1.92554" fill="#C6FF73"/>
<ellipse cx="16.8782" cy="35.4275" rx="2.88831" ry="1.92554" fill="#C6FF73"/>
<ellipse cx="16.8782" cy="35.4275" rx="2.88831" ry="1.92554" fill="black" fill-opacity="0.2"/>
<rect x="13.9899" y="34.4648" width="5.77662" height="0.96277" fill="#C6FF73"/>
<rect x="13.9899" y="34.4648" width="5.77662" height="0.96277" fill="black" fill-opacity="0.2"/>
<ellipse cx="16.8782" cy="34.4646" rx="2.88831" ry="1.92554" fill="#C6FF73"/>
<path d="M32.8051 56.1437L48.824 48.1342V32.1152L32.8051 40.1247L32.8051 56.1437Z" fill="#C6FF73"/>
<path d="M32.8051 56.1437L48.824 48.1342V32.1152L32.8051 40.1247L32.8051 56.1437Z" fill="black" fill-opacity="0.2"/>
</svg>
