<svg width="86" height="64" viewBox="0 0 86 64" fill="none" xmlns="http://www.w3.org/2000/svg">
<path d="M68.8124 38.1717L51.6547 29.5929V27.9492L68.8124 36.5281V38.1717Z" fill="#8D7AEF"/>
<path d="M68.8124 38.1717L85.9701 29.5929L85.9701 27.9492L68.8124 36.5281V38.1717Z" fill="#8D7AEF"/>
<path d="M68.8124 38.1717L85.9701 29.5929L85.9701 27.9492L68.8124 36.5281V38.1717Z" fill="black" fill-opacity="0.2"/>
<path d="M85.9703 27.948L68.8125 19.3691L51.6548 27.948L68.8125 36.5269L85.9703 27.948Z" fill="#8D7AEF"/>
<ellipse cx="69.1303" cy="31.4452" rx="3.22842" ry="2.15228" fill="#8D7AEF"/>
<ellipse cx="69.1303" cy="31.4452" rx="3.22842" ry="2.15228" fill="black" fill-opacity="0.2"/>
<rect x="65.9019" y="30.3691" width="6.45683" height="1.07614" fill="#8D7AEF"/>
<rect x="65.9019" y="30.3691" width="6.45683" height="1.07614" fill="black" fill-opacity="0.2"/>
<ellipse cx="69.1303" cy="30.3691" rx="3.22842" ry="2.15228" fill="#8D7AEF"/>
<ellipse cx="60.5211" cy="27.1406" rx="3.22842" ry="2.15228" fill="#8D7AEF"/>
<ellipse cx="60.5211" cy="27.1406" rx="3.22842" ry="2.15228" fill="black" fill-opacity="0.2"/>
<rect x="57.2927" y="26.0645" width="6.45683" height="1.07614" fill="#8D7AEF"/>
<rect x="57.2927" y="26.0645" width="6.45683" height="1.07614" fill="black" fill-opacity="0.2"/>
<ellipse cx="60.5211" cy="26.0644" rx="3.22842" ry="2.15228" fill="#8D7AEF"/>
<ellipse cx="77.7395" cy="27.1406" rx="3.22842" ry="2.15228" fill="#8D7AEF"/>
<ellipse cx="77.7395" cy="27.1406" rx="3.22842" ry="2.15228" fill="black" fill-opacity="0.2"/>
<rect x="74.5111" y="26.0645" width="6.45683" height="1.07614" fill="#8D7AEF"/>
<rect x="74.5111" y="26.0645" width="6.45683" height="1.07614" fill="black" fill-opacity="0.2"/>
<ellipse cx="77.7395" cy="26.0644" rx="3.22842" ry="2.15228" fill="#8D7AEF"/>
<ellipse cx="69.1303" cy="22.8359" rx="3.22842" ry="2.15228" fill="#8D7AEF"/>
<ellipse cx="69.1303" cy="22.8359" rx="3.22842" ry="2.15228" fill="black" fill-opacity="0.2"/>
<rect x="65.9019" y="21.7598" width="6.45683" height="1.07614" fill="#8D7AEF"/>
<rect x="65.9019" y="21.7598" width="6.45683" height="1.07614" fill="black" fill-opacity="0.2"/>
<ellipse cx="69.1303" cy="21.7597" rx="3.22842" ry="2.15228" fill="#8D7AEF"/>
<path d="M51.5941 46.7811L34.4364 38.2022V36.5586L51.5941 45.1375V46.7811Z" fill="#8D7AEF"/>
<path d="M51.5942 46.7811L68.752 38.2022L68.752 36.5586L51.5942 45.1375V46.7811Z" fill="#8D7AEF"/>
<path d="M51.5942 46.7811L68.752 38.2022L68.752 36.5586L51.5942 45.1375V46.7811Z" fill="black" fill-opacity="0.2"/>
<path d="M68.752 36.5574L51.5943 27.9785L34.4365 36.5574L51.5943 45.1363L68.752 36.5574Z" fill="#8D7AEF"/>
<ellipse cx="51.9121" cy="40.0527" rx="3.22842" ry="2.15228" fill="#8D7AEF"/>
<ellipse cx="51.9121" cy="40.0527" rx="3.22842" ry="2.15228" fill="black" fill-opacity="0.2"/>
<rect x="48.6837" y="38.9766" width="6.45683" height="1.07614" fill="#8D7AEF"/>
<rect x="48.6837" y="38.9766" width="6.45683" height="1.07614" fill="black" fill-opacity="0.2"/>
<ellipse cx="51.9121" cy="38.9765" rx="3.22842" ry="2.15228" fill="#8D7AEF"/>
<ellipse cx="43.303" cy="35.748" rx="3.22842" ry="2.15228" fill="#8D7AEF"/>
<ellipse cx="43.303" cy="35.748" rx="3.22842" ry="2.15228" fill="black" fill-opacity="0.2"/>
<rect x="40.0746" y="34.6719" width="6.45683" height="1.07614" fill="#8D7AEF"/>
<rect x="40.0746" y="34.6719" width="6.45683" height="1.07614" fill="black" fill-opacity="0.2"/>
<ellipse cx="43.303" cy="34.6718" rx="3.22842" ry="2.15228" fill="#8D7AEF"/>
<ellipse cx="60.5213" cy="35.748" rx="3.22842" ry="2.15228" fill="#8D7AEF"/>
<ellipse cx="60.5213" cy="35.748" rx="3.22842" ry="2.15228" fill="black" fill-opacity="0.2"/>
<rect x="57.2928" y="34.6719" width="6.45683" height="1.07614" fill="#8D7AEF"/>
<rect x="57.2928" y="34.6719" width="6.45683" height="1.07614" fill="black" fill-opacity="0.2"/>
<ellipse cx="60.5213" cy="34.6718" rx="3.22842" ry="2.15228" fill="#8D7AEF"/>
<ellipse cx="51.9121" cy="31.4452" rx="3.22842" ry="2.15228" fill="#8D7AEF"/>
<ellipse cx="51.9121" cy="31.4452" rx="3.22842" ry="2.15228" fill="black" fill-opacity="0.2"/>
<rect x="48.6837" y="30.3691" width="6.45683" height="1.07614" fill="#8D7AEF"/>
<rect x="48.6837" y="30.3691" width="6.45683" height="1.07614" fill="black" fill-opacity="0.2"/>
<ellipse cx="51.9121" cy="30.3691" rx="3.22842" ry="2.15228" fill="#8D7AEF"/>
<path d="M34.376 55.3905L17.2183 46.8116V45.168L34.376 53.7468V55.3905Z" fill="#8D7AEF"/>
<path d="M34.376 55.3905L51.5337 46.8116L51.5337 45.168L34.376 53.7468V55.3905Z" fill="#8D7AEF"/>
<path d="M34.376 55.3905L51.5337 46.8116L51.5337 45.168L34.376 53.7468V55.3905Z" fill="black" fill-opacity="0.2"/>
<path d="M51.5339 45.1668L34.3761 36.5879L17.2184 45.1668L34.3761 53.7456L51.5339 45.1668Z" fill="#8D7AEF"/>
<ellipse cx="34.6939" cy="48.662" rx="3.22842" ry="2.15228" fill="#8D7AEF"/>
<ellipse cx="34.6939" cy="48.662" rx="3.22842" ry="2.15228" fill="black" fill-opacity="0.2"/>
<rect x="31.4655" y="47.5859" width="6.45683" height="1.07614" fill="#8D7AEF"/>
<rect x="31.4655" y="47.5859" width="6.45683" height="1.07614" fill="black" fill-opacity="0.2"/>
<ellipse cx="34.6939" cy="47.5859" rx="3.22842" ry="2.15228" fill="#8D7AEF"/>
<ellipse cx="26.0847" cy="44.3574" rx="3.22842" ry="2.15228" fill="#8D7AEF"/>
<ellipse cx="26.0847" cy="44.3574" rx="3.22842" ry="2.15228" fill="black" fill-opacity="0.2"/>
<rect x="22.8563" y="43.2812" width="6.45683" height="1.07614" fill="#8D7AEF"/>
<rect x="22.8563" y="43.2812" width="6.45683" height="1.07614" fill="black" fill-opacity="0.2"/>
<ellipse cx="26.0847" cy="43.2812" rx="3.22842" ry="2.15228" fill="#8D7AEF"/>
<ellipse cx="43.303" cy="44.3574" rx="3.22842" ry="2.15228" fill="#8D7AEF"/>
<ellipse cx="43.303" cy="44.3574" rx="3.22842" ry="2.15228" fill="black" fill-opacity="0.2"/>
<rect x="40.0746" y="43.2812" width="6.45683" height="1.07614" fill="#8D7AEF"/>
<rect x="40.0746" y="43.2812" width="6.45683" height="1.07614" fill="black" fill-opacity="0.2"/>
<ellipse cx="43.303" cy="43.2812" rx="3.22842" ry="2.15228" fill="#8D7AEF"/>
<ellipse cx="34.6939" cy="40.0527" rx="3.22842" ry="2.15228" fill="#8D7AEF"/>
<ellipse cx="34.6939" cy="40.0527" rx="3.22842" ry="2.15228" fill="black" fill-opacity="0.2"/>
<rect x="31.4655" y="38.9766" width="6.45683" height="1.07614" fill="#8D7AEF"/>
<rect x="31.4655" y="38.9766" width="6.45683" height="1.07614" fill="black" fill-opacity="0.2"/>
<ellipse cx="34.6939" cy="38.9765" rx="3.22842" ry="2.15228" fill="#8D7AEF"/>
<path d="M17.1577 63.9979L0 55.419V53.7754L17.1577 62.3543V63.9979Z" fill="#8D7AEF"/>
<path d="M17.1578 63.9979L34.3156 55.419L34.3156 53.7754L17.1578 62.3543V63.9979Z" fill="#8D7AEF"/>
<path d="M17.1578 63.9979L34.3156 55.419L34.3156 53.7754L17.1578 62.3543V63.9979Z" fill="black" fill-opacity="0.2"/>
<path d="M34.3156 53.7761L17.1579 45.1973L0.00012207 53.7761L17.1579 62.355L34.3156 53.7761Z" fill="#8D7AEF"/>
<ellipse cx="17.4757" cy="57.2714" rx="3.22842" ry="2.15228" fill="#8D7AEF"/>
<ellipse cx="17.4757" cy="57.2714" rx="3.22842" ry="2.15228" fill="black" fill-opacity="0.2"/>
<rect x="14.2473" y="56.1953" width="6.45683" height="1.07614" fill="#8D7AEF"/>
<rect x="14.2473" y="56.1953" width="6.45683" height="1.07614" fill="black" fill-opacity="0.2"/>
<ellipse cx="17.4757" cy="56.1952" rx="3.22842" ry="2.15228" fill="#8D7AEF"/>
<ellipse cx="8.8666" cy="52.9667" rx="3.22842" ry="2.15228" fill="#8D7AEF"/>
<ellipse cx="8.8666" cy="52.9667" rx="3.22842" ry="2.15228" fill="black" fill-opacity="0.2"/>
<rect x="5.63818" y="51.8906" width="6.45683" height="1.07614" fill="#8D7AEF"/>
<rect x="5.63818" y="51.8906" width="6.45683" height="1.07614" fill="black" fill-opacity="0.2"/>
<ellipse cx="8.8666" cy="51.8906" rx="3.22842" ry="2.15228" fill="#8D7AEF"/>
<ellipse cx="26.0849" cy="52.9667" rx="3.22842" ry="2.15228" fill="#8D7AEF"/>
<ellipse cx="26.0849" cy="52.9667" rx="3.22842" ry="2.15228" fill="black" fill-opacity="0.2"/>
<rect x="22.8564" y="51.8906" width="6.45683" height="1.07614" fill="#8D7AEF"/>
<rect x="22.8564" y="51.8906" width="6.45683" height="1.07614" fill="black" fill-opacity="0.2"/>
<ellipse cx="26.0849" cy="51.8906" rx="3.22842" ry="2.15228" fill="#8D7AEF"/>
<ellipse cx="17.4757" cy="48.662" rx="3.22842" ry="2.15228" fill="#8D7AEF"/>
<ellipse cx="17.4757" cy="48.662" rx="3.22842" ry="2.15228" fill="black" fill-opacity="0.2"/>
<rect x="14.2473" y="47.5859" width="6.45683" height="1.07614" fill="#8D7AEF"/>
<rect x="14.2473" y="47.5859" width="6.45683" height="1.07614" fill="black" fill-opacity="0.2"/>
<ellipse cx="17.4757" cy="47.5859" rx="3.22842" ry="2.15228" fill="#8D7AEF"/>
<path d="M25.7669 58.01L8.60913 49.4312V32.2734L25.7669 40.8523V58.01Z" fill="#8D7AEF"/>
<path d="M25.7668 58.01L42.9246 49.4312V32.2734L25.7668 40.8523V58.01Z" fill="#8D7AEF"/>
<path d="M25.7668 58.01L42.9246 49.4312V32.2734L25.7668 40.8523V58.01Z" fill="black" fill-opacity="0.2"/>
<path d="M42.9247 32.2722L25.767 23.6934L8.60925 32.2722L25.767 40.8511L42.9247 32.2722Z" fill="#8D7AEF"/>
<ellipse cx="25.8273" cy="35.5312" rx="3.22842" ry="2.15228" fill="#8D7AEF"/>
<ellipse cx="25.8273" cy="35.5312" rx="3.22842" ry="2.15228" fill="black" fill-opacity="0.2"/>
<rect x="22.5989" y="34.4551" width="6.45683" height="1.07614" fill="#8D7AEF"/>
<rect x="22.5989" y="34.4551" width="6.45683" height="1.07614" fill="black" fill-opacity="0.2"/>
<ellipse cx="25.8273" cy="34.455" rx="3.22842" ry="2.15228" fill="#8D7AEF"/>
<ellipse cx="17.4756" cy="31.4648" rx="3.22842" ry="2.15228" fill="#8D7AEF"/>
<ellipse cx="17.4756" cy="31.4648" rx="3.22842" ry="2.15228" fill="black" fill-opacity="0.2"/>
<rect x="14.2472" y="30.3887" width="6.45683" height="1.07614" fill="#8D7AEF"/>
<rect x="14.2472" y="30.3887" width="6.45683" height="1.07614" fill="black" fill-opacity="0.2"/>
<ellipse cx="17.4756" cy="30.3886" rx="3.22842" ry="2.15228" fill="#8D7AEF"/>
<ellipse cx="34.694" cy="31.4648" rx="3.22842" ry="2.15228" fill="#8D7AEF"/>
<ellipse cx="34.694" cy="31.4648" rx="3.22842" ry="2.15228" fill="black" fill-opacity="0.2"/>
<rect x="31.4656" y="30.3887" width="6.45683" height="1.07614" fill="#8D7AEF"/>
<rect x="31.4656" y="30.3887" width="6.45683" height="1.07614" fill="black" fill-opacity="0.2"/>
<ellipse cx="34.694" cy="30.3886" rx="3.22842" ry="2.15228" fill="#8D7AEF"/>
<ellipse cx="25.8273" cy="26.9042" rx="3.22842" ry="2.15228" fill="#8D7AEF"/>
<ellipse cx="25.8273" cy="26.9042" rx="3.22842" ry="2.15228" fill="black" fill-opacity="0.2"/>
<rect x="22.5989" y="2.15234" width="6.45683" height="24.7512" fill="#8D7AEF"/>
<rect x="22.5989" y="2.15234" width="6.45683" height="24.7512" fill="black" fill-opacity="0.2"/>
<ellipse cx="25.8273" cy="2.15228" rx="3.22842" ry="2.15228" fill="#8D7AEF"/>
<ellipse cx="25.8273" cy="26.9042" rx="3.22842" ry="2.15228" fill="#8D7AEF"/>
<ellipse cx="25.8273" cy="26.9042" rx="3.22842" ry="2.15228" fill="black" fill-opacity="0.2"/>
<ellipse cx="25.8273" cy="2.15228" rx="3.22842" ry="2.15228" fill="#8D7AEF"/>
<ellipse cx="25.8273" cy="10.7617" rx="3.22842" ry="2.15228" fill="#8D7AEF"/>
<rect x="22.5989" y="9.68555" width="6.45683" height="1.07614" fill="#8D7AEF"/>
<ellipse cx="25.8273" cy="9.68548" rx="3.22842" ry="2.15228" fill="#7162BF"/>
<ellipse cx="25.8274" cy="19.3691" rx="3.22842" ry="2.15228" fill="#8D7AEF"/>
<rect x="22.599" y="18.293" width="6.45683" height="1.07614" fill="#8D7AEF"/>
<ellipse cx="25.8274" cy="18.2929" rx="3.22842" ry="2.15228" fill="#7162BF"/>
<path d="M60.2033 40.7737L43.0455 32.1948V15.0371L60.2033 23.616V40.7737Z" fill="#8D7AEF"/>
<path d="M60.2034 40.7737L77.3611 32.1948V15.0371L60.2034 23.616V40.7737Z" fill="#8D7AEF"/>
<path d="M60.2034 40.7737L77.3611 32.1948V15.0371L60.2034 23.616V40.7737Z" fill="black" fill-opacity="0.2"/>
<path d="M77.3611 15.0359L60.2034 6.45703L43.0457 15.0359L60.2034 23.6148L77.3611 15.0359Z" fill="#8D7AEF"/>
<ellipse cx="60.5211" cy="18.5331" rx="3.22842" ry="2.15228" fill="#8D7AEF"/>
<ellipse cx="60.5211" cy="18.5331" rx="3.22842" ry="2.15228" fill="black" fill-opacity="0.2"/>
<rect x="57.2927" y="17.457" width="6.45683" height="1.07614" fill="#8D7AEF"/>
<rect x="57.2927" y="17.457" width="6.45683" height="1.07614" fill="black" fill-opacity="0.2"/>
<ellipse cx="60.5211" cy="17.457" rx="3.22842" ry="2.15228" fill="#8D7AEF"/>
<ellipse cx="51.9121" cy="14.2284" rx="3.22842" ry="2.15228" fill="#8D7AEF"/>
<ellipse cx="51.9121" cy="14.2284" rx="3.22842" ry="2.15228" fill="black" fill-opacity="0.2"/>
<rect x="48.6837" y="13.1523" width="6.45683" height="1.07614" fill="#8D7AEF"/>
<rect x="48.6837" y="13.1523" width="6.45683" height="1.07614" fill="black" fill-opacity="0.2"/>
<ellipse cx="51.9121" cy="13.1523" rx="3.22842" ry="2.15228" fill="#8D7AEF"/>
<ellipse cx="69.1303" cy="14.2284" rx="3.22842" ry="2.15228" fill="#8D7AEF"/>
<ellipse cx="69.1303" cy="14.2284" rx="3.22842" ry="2.15228" fill="black" fill-opacity="0.2"/>
<rect x="65.9019" y="13.1523" width="6.45683" height="1.07614" fill="#8D7AEF"/>
<rect x="65.9019" y="13.1523" width="6.45683" height="1.07614" fill="black" fill-opacity="0.2"/>
<ellipse cx="69.1303" cy="13.1523" rx="3.22842" ry="2.15228" fill="#8D7AEF"/>
<ellipse cx="60.5211" cy="9.92181" rx="3.22842" ry="2.15228" fill="#8D7AEF"/>
<ellipse cx="60.5211" cy="9.92181" rx="3.22842" ry="2.15228" fill="black" fill-opacity="0.2"/>
<rect x="57.2927" y="8.8457" width="6.45683" height="1.07614" fill="#8D7AEF"/>
<rect x="57.2927" y="8.8457" width="6.45683" height="1.07614" fill="black" fill-opacity="0.2"/>
<ellipse cx="60.5211" cy="8.84564" rx="3.22842" ry="2.15228" fill="#8D7AEF"/>
</svg>
