<svg width="80" height="65" viewBox="0 0 80 65" fill="none" xmlns="http://www.w3.org/2000/svg">
<path d="M47.8927 48.0521L31.8979 40.0547L15.9031 48.0521L31.8979 56.0495L47.8927 48.0521Z" fill="#4D4D4D"/>
<path d="M47.8927 48.0527L31.8979 40.0553V24.0605L47.8927 32.0579V48.0527Z" fill="#999999"/>
<path d="M31.8979 40.0553L15.9031 48.0527V32.0579L31.8979 24.0605V40.0553Z" fill="#999999"/>
<path d="M31.8979 56.0508L15.9031 48.0534V32.0586L31.8979 40.056V56.0508Z" fill="#FF1A7D"/>
<path d="M31.8979 56.0508L47.8927 48.0534V32.0586L31.8979 40.056V56.0508Z" fill="#FF006E"/>
<path d="M47.8927 32.0579L31.8979 24.0605L15.9031 32.0579L31.8979 40.0553L47.8927 32.0579Z" fill="#FF1A7D"/>
<path d="M31.9895 56.0033L15.9947 48.0059L-0.00012207 56.0033L15.9947 64.0006L31.9895 56.0033Z" fill="#4D4D4D"/>
<path d="M31.9895 56.0039L15.9948 48.0065V32.0117L31.9895 40.0091V56.0039Z" fill="#999999"/>
<path d="M15.9947 48.0065L-0.00012207 56.0039V40.0091L15.9947 32.0117V48.0065Z" fill="#999999"/>
<path d="M15.9947 64.0019L-0.00012207 56.0046V40.0098L15.9947 48.0072V64.0019Z" fill="#FF1A7D"/>
<path d="M15.9948 64.0013L47.8806 48.0066V32.0118L15.9948 48.0065V64.0013Z" fill="#FF006E"/>
<path d="M15.9948 64.0013L47.8806 48.0066V32.0118L15.9948 48.0065V64.0013Z" fill="black" fill-opacity="0.2"/>
<path d="M47.9031 32.0579L31.9083 24.0605L-0.00012207 40.0085L15.9947 48.0059L47.9031 32.0579Z" fill="#FF1A7D"/>
<path d="M47.8925 31.9427L31.8977 23.9453L15.903 31.9427L31.8977 39.9401L47.8925 31.9427Z" fill="#4D4D4D"/>
<path d="M47.8926 31.9434L31.8978 23.946V7.95117L47.8926 15.9486V31.9434Z" fill="#999999"/>
<path d="M31.8977 23.946L15.903 31.9434V15.9486L31.8977 7.95117V23.946Z" fill="#999999"/>
<path d="M31.8977 39.9414L15.903 31.944V15.9492L31.8977 23.9466V39.9414Z" fill="#FF1A7D"/>
<path d="M31.8978 39.9407L63.7837 23.946V7.95122L31.8978 23.9459V39.9407Z" fill="#FF006E"/>
<path d="M31.8978 39.9407L63.7837 23.946V7.95122L31.8978 23.9459V39.9407Z" fill="black" fill-opacity="0.2"/>
<path d="M63.8063 7.9974L47.8115 0L15.9031 15.9479L31.8979 23.9453L63.8063 7.9974Z" fill="#FF1A7D"/>
<path d="M48.0406 32.0169L32.0458 24.0195L16.051 32.0169L32.0458 40.0143L48.0406 32.0169Z" fill="#4D4D4D"/>
<path d="M48.0407 32.0176L32.0459 24.0202V8.02539L48.0407 16.0228V32.0176Z" fill="#999999"/>
<path d="M32.0459 24.0202L16.0511 32.0176V16.0228L32.0459 8.02539V24.0202Z" fill="#999999"/>
<path d="M32.0458 40.0156L16.051 32.0182V16.0234L32.0458 24.0208V40.0156Z" fill="#FF1A7D"/>
<path d="M32.0459 40.0156L48.0407 32.0182V16.0234L32.0459 24.0208V40.0156Z" fill="#FF006E"/>
<path d="M32.0459 40.0156L48.0407 32.0182V16.0234L32.0459 24.0208V40.0156Z" fill="black" fill-opacity="0.2"/>
<path d="M48.0407 16.0228L32.0459 8.02539L16.0511 16.0228L32.0459 24.0202L48.0407 16.0228Z" fill="#FF1A7D"/>
<ellipse cx="32.3422" cy="19.2818" rx="3.00959" ry="2.0064" fill="#FF006E"/>
<ellipse cx="32.3422" cy="19.2818" rx="3.00959" ry="2.0064" fill="black" fill-opacity="0.2"/>
<rect x="29.3326" y="18.2773" width="6.01919" height="1.0032" fill="#FF006E"/>
<rect x="29.3326" y="18.2773" width="6.01919" height="1.0032" fill="black" fill-opacity="0.2"/>
<ellipse cx="32.3422" cy="18.2779" rx="3.00959" ry="2.0064" fill="#FF1A7D"/>
<ellipse cx="24.3166" cy="15.2701" rx="3.00959" ry="2.0064" fill="#FF006E"/>
<ellipse cx="24.3166" cy="15.2701" rx="3.00959" ry="2.0064" fill="black" fill-opacity="0.2"/>
<rect x="21.307" y="14.2656" width="6.01919" height="1.0032" fill="#FF006E"/>
<rect x="21.307" y="14.2656" width="6.01919" height="1.0032" fill="black" fill-opacity="0.2"/>
<ellipse cx="24.3166" cy="14.2662" rx="3.00959" ry="2.0064" fill="#FF1A7D"/>
<ellipse cx="40.3679" cy="15.2701" rx="3.00959" ry="2.0064" fill="#FF006E"/>
<ellipse cx="40.3679" cy="15.2701" rx="3.00959" ry="2.0064" fill="black" fill-opacity="0.2"/>
<rect x="37.3583" y="14.2656" width="6.01919" height="1.0032" fill="#FF006E"/>
<rect x="37.3583" y="14.2656" width="6.01919" height="1.0032" fill="black" fill-opacity="0.2"/>
<ellipse cx="40.3679" cy="14.2662" rx="3.00959" ry="2.0064" fill="#FF1A7D"/>
<ellipse cx="32.3422" cy="11.2583" rx="3.00959" ry="2.0064" fill="#FF006E"/>
<ellipse cx="32.3422" cy="11.2583" rx="3.00959" ry="2.0064" fill="black" fill-opacity="0.2"/>
<rect x="29.3326" y="10.2539" width="6.01919" height="1.0032" fill="#FF006E"/>
<rect x="29.3326" y="10.2539" width="6.01919" height="1.0032" fill="black" fill-opacity="0.2"/>
<ellipse cx="32.3422" cy="10.2544" rx="3.00959" ry="2.0064" fill="#FF1A7D"/>
<ellipse cx="48.1535" cy="12.0376" rx="3.00959" ry="2.0064" fill="#FF006E"/>
<ellipse cx="48.1535" cy="12.0376" rx="3.00959" ry="2.0064" fill="black" fill-opacity="0.2"/>
<rect x="45.1439" y="11.0332" width="6.01919" height="1.0032" fill="#FF006E"/>
<rect x="45.1439" y="11.0332" width="6.01919" height="1.0032" fill="black" fill-opacity="0.2"/>
<ellipse cx="48.1535" cy="11.0337" rx="3.00959" ry="2.0064" fill="#FF1A7D"/>
<ellipse cx="40.128" cy="8.02593" rx="3.00959" ry="2.0064" fill="#FF006E"/>
<ellipse cx="40.128" cy="8.02593" rx="3.00959" ry="2.0064" fill="black" fill-opacity="0.2"/>
<rect x="37.1184" y="7.02148" width="6.01919" height="1.0032" fill="#FF006E"/>
<rect x="37.1184" y="7.02148" width="6.01919" height="1.0032" fill="black" fill-opacity="0.2"/>
<ellipse cx="40.128" cy="7.02202" rx="3.00959" ry="2.0064" fill="#FF1A7D"/>
<ellipse cx="56.1791" cy="8.02593" rx="3.00959" ry="2.0064" fill="#FF006E"/>
<ellipse cx="56.1791" cy="8.02593" rx="3.00959" ry="2.0064" fill="black" fill-opacity="0.2"/>
<rect x="53.1696" y="7.02148" width="6.01919" height="1.0032" fill="#FF006E"/>
<rect x="53.1696" y="7.02148" width="6.01919" height="1.0032" fill="black" fill-opacity="0.2"/>
<ellipse cx="56.1791" cy="7.02202" rx="3.00959" ry="2.0064" fill="#FF1A7D"/>
<ellipse cx="48.1535" cy="4.01226" rx="3.00959" ry="2.0064" fill="#FF006E"/>
<ellipse cx="48.1535" cy="4.01226" rx="3.00959" ry="2.0064" fill="black" fill-opacity="0.2"/>
<rect x="45.1439" y="3.00781" width="6.01919" height="1.0032" fill="#FF006E"/>
<rect x="45.1439" y="3.00781" width="6.01919" height="1.0032" fill="black" fill-opacity="0.2"/>
<ellipse cx="48.1535" cy="3.00835" rx="3.00959" ry="2.0064" fill="#FF1A7D"/>
<path d="M79.903 47.847L63.9082 39.8496L47.9135 47.847L63.9082 55.8444L79.903 47.847Z" fill="#4D4D4D"/>
<path d="M79.9031 47.8477L63.9083 39.8503V23.8555L79.9031 31.8529V47.8477Z" fill="#999999"/>
<path d="M63.9084 39.8503L47.9136 47.8477V31.8529L63.9084 23.8555V39.8503Z" fill="#999999"/>
<path d="M63.9082 55.8457L47.9135 47.8483V31.8535L63.9082 39.8509V55.8457Z" fill="#FF1A7D"/>
<path d="M63.9083 55.8457L79.9031 47.8483V31.8535L63.9083 39.8509V55.8457Z" fill="#FF006E"/>
<path d="M63.9083 55.8457L79.9031 47.8483V31.8535L63.9083 39.8509V55.8457Z" fill="black" fill-opacity="0.2"/>
<path d="M79.9032 31.8529L63.9084 23.8555L47.9136 31.8529L63.9084 39.8503L79.9032 31.8529Z" fill="#FF1A7D"/>
<ellipse cx="64.2047" cy="35.1138" rx="3.00959" ry="2.0064" fill="#FF006E"/>
<ellipse cx="64.2047" cy="35.1138" rx="3.00959" ry="2.0064" fill="black" fill-opacity="0.2"/>
<rect x="61.1951" y="34.1094" width="6.01919" height="1.0032" fill="#FF006E"/>
<rect x="61.1951" y="34.1094" width="6.01919" height="1.0032" fill="black" fill-opacity="0.2"/>
<ellipse cx="64.2047" cy="34.1099" rx="3.00959" ry="2.0064" fill="#FF1A7D"/>
<ellipse cx="16.0511" cy="43.1392" rx="3.00959" ry="2.0064" fill="#FF006E"/>
<ellipse cx="16.0511" cy="43.1392" rx="3.00959" ry="2.0064" fill="black" fill-opacity="0.2"/>
<rect x="13.0415" y="42.1348" width="6.01919" height="1.0032" fill="#FF006E"/>
<rect x="13.0415" y="42.1348" width="6.01919" height="1.0032" fill="black" fill-opacity="0.2"/>
<ellipse cx="16.0511" cy="42.1353" rx="3.00959" ry="2.0064" fill="#FF1A7D"/>
<ellipse cx="56.1791" cy="31.1001" rx="3.00959" ry="2.0064" fill="#FF006E"/>
<ellipse cx="56.1791" cy="31.1001" rx="3.00959" ry="2.0064" fill="black" fill-opacity="0.2"/>
<rect x="53.1696" y="30.0957" width="6.01919" height="1.0032" fill="#FF006E"/>
<rect x="53.1696" y="30.0957" width="6.01919" height="1.0032" fill="black" fill-opacity="0.2"/>
<ellipse cx="56.1791" cy="30.0962" rx="3.00959" ry="2.0064" fill="#FF1A7D"/>
<ellipse cx="8.02559" cy="39.1255" rx="3.00959" ry="2.0064" fill="#FF006E"/>
<ellipse cx="8.02559" cy="39.1255" rx="3.00959" ry="2.0064" fill="black" fill-opacity="0.2"/>
<rect x="5.01599" y="38.1211" width="6.01919" height="1.0032" fill="#FF006E"/>
<rect x="5.01599" y="38.1211" width="6.01919" height="1.0032" fill="black" fill-opacity="0.2"/>
<ellipse cx="8.02559" cy="38.1216" rx="3.00959" ry="2.0064" fill="#FF1A7D"/>
<ellipse cx="72.2302" cy="31.1001" rx="3.00959" ry="2.0064" fill="#FF006E"/>
<ellipse cx="72.2302" cy="31.1001" rx="3.00959" ry="2.0064" fill="black" fill-opacity="0.2"/>
<rect x="69.2206" y="30.0957" width="6.01919" height="1.0032" fill="#FF006E"/>
<rect x="69.2206" y="30.0957" width="6.01919" height="1.0032" fill="black" fill-opacity="0.2"/>
<ellipse cx="72.2302" cy="30.0962" rx="3.00959" ry="2.0064" fill="#FF1A7D"/>
<ellipse cx="24.0767" cy="39.1255" rx="3.00959" ry="2.0064" fill="#FF006E"/>
<ellipse cx="24.0767" cy="39.1255" rx="3.00959" ry="2.0064" fill="black" fill-opacity="0.2"/>
<rect x="21.0671" y="38.1211" width="6.01919" height="1.0032" fill="#FF006E"/>
<rect x="21.0671" y="38.1211" width="6.01919" height="1.0032" fill="black" fill-opacity="0.2"/>
<ellipse cx="24.0767" cy="38.1216" rx="3.00959" ry="2.0064" fill="#FF1A7D"/>
<ellipse cx="64.2047" cy="27.0884" rx="3.00959" ry="2.0064" fill="#FF006E"/>
<ellipse cx="64.2047" cy="27.0884" rx="3.00959" ry="2.0064" fill="black" fill-opacity="0.2"/>
<rect x="61.1951" y="26.084" width="6.01919" height="1.0032" fill="#FF006E"/>
<rect x="61.1951" y="26.084" width="6.01919" height="1.0032" fill="black" fill-opacity="0.2"/>
<ellipse cx="64.2047" cy="26.0845" rx="3.00959" ry="2.0064" fill="#FF1A7D"/>
<ellipse cx="16.0511" cy="35.1138" rx="3.00959" ry="2.0064" fill="#FF006E"/>
<ellipse cx="16.0511" cy="35.1138" rx="3.00959" ry="2.0064" fill="black" fill-opacity="0.2"/>
<rect x="13.0415" y="34.1094" width="6.01919" height="1.0032" fill="#FF006E"/>
<rect x="13.0415" y="34.1094" width="6.01919" height="1.0032" fill="black" fill-opacity="0.2"/>
<ellipse cx="16.0511" cy="34.1099" rx="3.00959" ry="2.0064" fill="#FF1A7D"/>
</svg>
