<svg width="86" height="65" viewBox="0 0 86 65" fill="none" xmlns="http://www.w3.org/2000/svg">
<path d="M72.7464 45.3709L59.7061 38.8508V37.6016L72.7464 44.1217V45.3709Z" fill="#FFD037"/>
<path d="M72.7463 45.3709L85.7866 38.8508L85.7866 37.6016L72.7463 44.1217V45.3709Z" fill="#FFD037"/>
<path d="M72.7463 45.3709L85.7866 38.8508L85.7866 37.6016L72.7463 44.1217V45.3709Z" fill="black" fill-opacity="0.2"/>
<path d="M85.7868 37.6002L72.7465 31.0801L59.7062 37.6002L72.7465 44.1204L85.7868 37.6002Z" fill="#FFD037"/>
<ellipse cx="72.9881" cy="40.2588" rx="2.45367" ry="1.63578" fill="#FFD037"/>
<ellipse cx="72.9881" cy="40.2588" rx="2.45367" ry="1.63578" fill="black" fill-opacity="0.2"/>
<rect x="70.5344" y="39.4414" width="4.90735" height="0.817891" fill="#FFD037"/>
<rect x="70.5344" y="39.4414" width="4.90735" height="0.817891" fill="black" fill-opacity="0.2"/>
<ellipse cx="72.9881" cy="39.4405" rx="2.45367" ry="1.63578" fill="#FFD037"/>
<ellipse cx="66.4449" cy="36.9873" rx="2.45367" ry="1.63578" fill="#FFD037"/>
<ellipse cx="66.4449" cy="36.9873" rx="2.45367" ry="1.63578" fill="black" fill-opacity="0.2"/>
<rect x="63.9912" y="36.1699" width="4.90735" height="0.817891" fill="#FFD037"/>
<rect x="63.9912" y="36.1699" width="4.90735" height="0.817891" fill="black" fill-opacity="0.2"/>
<ellipse cx="66.4449" cy="36.169" rx="2.45367" ry="1.63578" fill="#FFD037"/>
<ellipse cx="79.5311" cy="36.9873" rx="2.45367" ry="1.63578" fill="#FFD037"/>
<ellipse cx="79.5311" cy="36.9873" rx="2.45367" ry="1.63578" fill="black" fill-opacity="0.2"/>
<rect x="77.0774" y="36.1699" width="4.90735" height="0.817891" fill="#FFD037"/>
<rect x="77.0774" y="36.1699" width="4.90735" height="0.817891" fill="black" fill-opacity="0.2"/>
<ellipse cx="79.5311" cy="36.169" rx="2.45367" ry="1.63578" fill="#FFD037"/>
<ellipse cx="72.9881" cy="33.7159" rx="2.45367" ry="1.63578" fill="#FFD037"/>
<ellipse cx="72.9881" cy="33.7159" rx="2.45367" ry="1.63578" fill="black" fill-opacity="0.2"/>
<rect x="70.5344" y="32.8984" width="4.90735" height="0.817891" fill="#FFD037"/>
<rect x="70.5344" y="32.8984" width="4.90735" height="0.817891" fill="black" fill-opacity="0.2"/>
<ellipse cx="72.9881" cy="32.8975" rx="2.45367" ry="1.63578" fill="#FFD037"/>
<path d="M59.66 51.9139L46.6198 45.3937V44.1445L59.66 50.6647V51.9139Z" fill="#FFD037"/>
<path d="M59.6602 51.9139L72.7005 45.3937L72.7005 44.1445L59.6602 50.6647V51.9139Z" fill="#FFD037"/>
<path d="M59.6602 51.9139L72.7005 45.3937L72.7005 44.1445L59.6602 50.6647V51.9139Z" fill="black" fill-opacity="0.2"/>
<path d="M72.7005 44.1432L59.6602 37.623L46.6199 44.1432L59.6602 50.6633L72.7005 44.1432Z" fill="#FFD037"/>
<ellipse cx="59.9017" cy="46.8018" rx="2.45367" ry="1.63578" fill="#FFD037"/>
<ellipse cx="59.9017" cy="46.8018" rx="2.45367" ry="1.63578" fill="black" fill-opacity="0.2"/>
<rect x="57.448" y="45.9844" width="4.90735" height="0.817891" fill="#FFD037"/>
<rect x="57.448" y="45.9844" width="4.90735" height="0.817891" fill="black" fill-opacity="0.2"/>
<ellipse cx="59.9017" cy="45.9834" rx="2.45367" ry="1.63578" fill="#FFD037"/>
<ellipse cx="53.3587" cy="43.5303" rx="2.45367" ry="1.63578" fill="#FFD037"/>
<ellipse cx="53.3587" cy="43.5303" rx="2.45367" ry="1.63578" fill="black" fill-opacity="0.2"/>
<rect x="50.905" y="42.7129" width="4.90735" height="0.817891" fill="#FFD037"/>
<rect x="50.905" y="42.7129" width="4.90735" height="0.817891" fill="black" fill-opacity="0.2"/>
<ellipse cx="53.3587" cy="42.712" rx="2.45367" ry="1.63578" fill="#FFD037"/>
<ellipse cx="66.4449" cy="43.5303" rx="2.45367" ry="1.63578" fill="#FFD037"/>
<ellipse cx="66.4449" cy="43.5303" rx="2.45367" ry="1.63578" fill="black" fill-opacity="0.2"/>
<rect x="63.9912" y="42.7129" width="4.90735" height="0.817891" fill="#FFD037"/>
<rect x="63.9912" y="42.7129" width="4.90735" height="0.817891" fill="black" fill-opacity="0.2"/>
<ellipse cx="66.4449" cy="42.712" rx="2.45367" ry="1.63578" fill="#FFD037"/>
<ellipse cx="59.9017" cy="40.2588" rx="2.45367" ry="1.63578" fill="#FFD037"/>
<ellipse cx="59.9017" cy="40.2588" rx="2.45367" ry="1.63578" fill="black" fill-opacity="0.2"/>
<rect x="57.448" y="39.4414" width="4.90735" height="0.817891" fill="#FFD037"/>
<rect x="57.448" y="39.4414" width="4.90735" height="0.817891" fill="black" fill-opacity="0.2"/>
<ellipse cx="59.9017" cy="39.4405" rx="2.45367" ry="1.63578" fill="#FFD037"/>
<path d="M46.5739 58.4569L33.5336 51.9367V50.6875L46.5739 57.2076V58.4569Z" fill="#FFD037"/>
<path d="M46.5739 58.4569L59.6142 51.9367L59.6142 50.6875L46.5739 57.2076V58.4569Z" fill="#FFD037"/>
<path d="M46.5739 58.4569L59.6142 51.9367L59.6142 50.6875L46.5739 57.2076V58.4569Z" fill="black" fill-opacity="0.2"/>
<path d="M59.6142 50.6862L46.5739 44.166L33.5336 50.6862L46.5739 57.2063L59.6142 50.6862Z" fill="#FFD037"/>
<ellipse cx="46.8155" cy="53.3428" rx="2.45367" ry="1.63578" fill="#FFD037"/>
<ellipse cx="46.8155" cy="53.3428" rx="2.45367" ry="1.63578" fill="black" fill-opacity="0.2"/>
<rect x="44.3618" y="52.5254" width="4.90735" height="0.817891" fill="#FFD037"/>
<rect x="44.3618" y="52.5254" width="4.90735" height="0.817891" fill="black" fill-opacity="0.2"/>
<ellipse cx="46.8155" cy="52.5245" rx="2.45367" ry="1.63578" fill="#FFD037"/>
<ellipse cx="40.2723" cy="50.0713" rx="2.45367" ry="1.63578" fill="#FFD037"/>
<ellipse cx="40.2723" cy="50.0713" rx="2.45367" ry="1.63578" fill="black" fill-opacity="0.2"/>
<rect x="37.8186" y="49.2539" width="4.90735" height="0.817891" fill="#FFD037"/>
<rect x="37.8186" y="49.2539" width="4.90735" height="0.817891" fill="black" fill-opacity="0.2"/>
<ellipse cx="40.2723" cy="49.253" rx="2.45367" ry="1.63578" fill="#FFD037"/>
<ellipse cx="53.3587" cy="50.0713" rx="2.45367" ry="1.63578" fill="#FFD037"/>
<ellipse cx="53.3587" cy="50.0713" rx="2.45367" ry="1.63578" fill="black" fill-opacity="0.2"/>
<rect x="50.905" y="49.2539" width="4.90735" height="0.817891" fill="#FFD037"/>
<rect x="50.905" y="49.2539" width="4.90735" height="0.817891" fill="black" fill-opacity="0.2"/>
<ellipse cx="53.3587" cy="49.253" rx="2.45367" ry="1.63578" fill="#FFD037"/>
<ellipse cx="46.8155" cy="46.8018" rx="2.45367" ry="1.63578" fill="#FFD037"/>
<ellipse cx="46.8155" cy="46.8018" rx="2.45367" ry="1.63578" fill="black" fill-opacity="0.2"/>
<rect x="44.3618" y="45.9844" width="4.90735" height="0.817891" fill="#FFD037"/>
<rect x="44.3618" y="45.9844" width="4.90735" height="0.817891" fill="black" fill-opacity="0.2"/>
<ellipse cx="46.8155" cy="45.9834" rx="2.45367" ry="1.63578" fill="#FFD037"/>
<path d="M33.4876 64.9998L20.4473 58.4797V57.2305L33.4876 63.7506V64.9998Z" fill="#FFD037"/>
<path d="M33.4875 64.9998L46.5278 58.4797L46.5278 57.2305L33.4875 63.7506V64.9998Z" fill="#FFD037"/>
<path d="M33.4875 64.9998L46.5278 58.4797L46.5278 57.2305L33.4875 63.7506V64.9998Z" fill="black" fill-opacity="0.2"/>
<path d="M46.528 57.2291L33.4877 50.709L20.4474 57.2291L33.4877 63.7493L46.528 57.2291Z" fill="#FFD037"/>
<ellipse cx="33.7293" cy="59.8858" rx="2.45367" ry="1.63578" fill="#FFD037"/>
<ellipse cx="33.7293" cy="59.8858" rx="2.45367" ry="1.63578" fill="black" fill-opacity="0.2"/>
<rect x="31.2756" y="59.0684" width="4.90735" height="0.817891" fill="#FFD037"/>
<rect x="31.2756" y="59.0684" width="4.90735" height="0.817891" fill="black" fill-opacity="0.2"/>
<ellipse cx="33.7293" cy="59.0674" rx="2.45367" ry="1.63578" fill="#FFD037"/>
<ellipse cx="27.1861" cy="56.6143" rx="2.45367" ry="1.63578" fill="#FFD037"/>
<ellipse cx="27.1861" cy="56.6143" rx="2.45367" ry="1.63578" fill="black" fill-opacity="0.2"/>
<rect x="24.7324" y="55.7969" width="4.90735" height="0.817891" fill="#FFD037"/>
<rect x="24.7324" y="55.7969" width="4.90735" height="0.817891" fill="black" fill-opacity="0.2"/>
<ellipse cx="27.1861" cy="55.7959" rx="2.45367" ry="1.63578" fill="#FFD037"/>
<ellipse cx="40.2723" cy="56.6143" rx="2.45367" ry="1.63578" fill="#FFD037"/>
<ellipse cx="40.2723" cy="56.6143" rx="2.45367" ry="1.63578" fill="black" fill-opacity="0.2"/>
<rect x="37.8186" y="55.7969" width="4.90735" height="0.817891" fill="#FFD037"/>
<rect x="37.8186" y="55.7969" width="4.90735" height="0.817891" fill="black" fill-opacity="0.2"/>
<ellipse cx="40.2723" cy="55.7959" rx="2.45367" ry="1.63578" fill="#FFD037"/>
<ellipse cx="33.7293" cy="53.3428" rx="2.45367" ry="1.63578" fill="#FFD037"/>
<ellipse cx="33.7293" cy="53.3428" rx="2.45367" ry="1.63578" fill="black" fill-opacity="0.2"/>
<rect x="31.2756" y="52.5254" width="4.90735" height="0.817891" fill="#FFD037"/>
<rect x="31.2756" y="52.5254" width="4.90735" height="0.817891" fill="black" fill-opacity="0.2"/>
<ellipse cx="33.7293" cy="52.5245" rx="2.45367" ry="1.63578" fill="#FFD037"/>
<path d="M20.4013 36.7147L7.36096 30.1946V17.1543L20.4013 23.6744V36.7147Z" fill="#FFD037"/>
<path d="M20.4012 36.7147L33.4415 30.1946V17.1543L20.4012 23.6744V36.7147Z" fill="#FFD037"/>
<path d="M20.4012 36.7147L33.4415 30.1946V17.1543L20.4012 23.6744V36.7147Z" fill="black" fill-opacity="0.2"/>
<path d="M33.4417 17.153L20.4014 10.6328L7.36108 17.153L20.4014 23.6731L33.4417 17.153Z" fill="#FFD037"/>
<ellipse cx="20.6429" cy="19.8116" rx="2.45367" ry="1.63578" fill="#FFD037"/>
<ellipse cx="20.6429" cy="19.8116" rx="2.45367" ry="1.63578" fill="black" fill-opacity="0.2"/>
<rect x="18.1892" y="18.9941" width="4.90735" height="0.817891" fill="#FFD037"/>
<rect x="18.1892" y="18.9941" width="4.90735" height="0.817891" fill="black" fill-opacity="0.2"/>
<ellipse cx="20.6429" cy="18.9932" rx="2.45367" ry="1.63578" fill="#FFD037"/>
<ellipse cx="14.0998" cy="16.5401" rx="2.45367" ry="1.63578" fill="#FFD037"/>
<ellipse cx="14.0998" cy="16.5401" rx="2.45367" ry="1.63578" fill="black" fill-opacity="0.2"/>
<rect x="11.6461" y="15.7227" width="4.90735" height="0.817891" fill="#FFD037"/>
<rect x="11.6461" y="15.7227" width="4.90735" height="0.817891" fill="black" fill-opacity="0.2"/>
<ellipse cx="14.0998" cy="15.7217" rx="2.45367" ry="1.63578" fill="#FFD037"/>
<ellipse cx="27.1861" cy="16.5401" rx="2.45367" ry="1.63578" fill="#FFD037"/>
<ellipse cx="27.1861" cy="16.5401" rx="2.45367" ry="1.63578" fill="black" fill-opacity="0.2"/>
<rect x="24.7324" y="15.7227" width="4.90735" height="0.817891" fill="#FFD037"/>
<rect x="24.7324" y="15.7227" width="4.90735" height="0.817891" fill="black" fill-opacity="0.2"/>
<ellipse cx="27.1861" cy="15.7217" rx="2.45367" ry="1.63578" fill="#FFD037"/>
<ellipse cx="20.6429" cy="13.2686" rx="2.45367" ry="1.63578" fill="#FFD037"/>
<ellipse cx="20.6429" cy="13.2686" rx="2.45367" ry="1.63578" fill="black" fill-opacity="0.2"/>
<rect x="18.1892" y="12.4512" width="4.90735" height="0.817891" fill="#FFD037"/>
<rect x="18.1892" y="12.4512" width="4.90735" height="0.817891" fill="black" fill-opacity="0.2"/>
<ellipse cx="20.6429" cy="12.4502" rx="2.45367" ry="1.63578" fill="#FFD037"/>
<path d="M33.4876 43.2577L20.4473 36.7376V23.6973L33.4876 30.2174V43.2577Z" fill="#FFD037"/>
<path d="M33.4875 43.2577L46.5278 36.7376V23.6973L33.4875 30.2174V43.2577Z" fill="#FFD037"/>
<path d="M33.4875 43.2577L46.5278 36.7376V23.6973L33.4875 30.2174V43.2577Z" fill="black" fill-opacity="0.2"/>
<path d="M46.528 23.6959L33.4877 17.1758L20.4474 23.6959L33.4877 30.2161L46.528 23.6959Z" fill="#FFD037"/>
<ellipse cx="33.7293" cy="26.3545" rx="2.45367" ry="1.63578" fill="#FFD037"/>
<ellipse cx="33.7293" cy="26.3545" rx="2.45367" ry="1.63578" fill="black" fill-opacity="0.2"/>
<rect x="31.2756" y="25.5371" width="4.90735" height="0.817891" fill="#FFD037"/>
<rect x="31.2756" y="25.5371" width="4.90735" height="0.817891" fill="black" fill-opacity="0.2"/>
<ellipse cx="33.7293" cy="25.5362" rx="2.45367" ry="1.63578" fill="#FFD037"/>
<ellipse cx="27.1861" cy="23.083" rx="2.45367" ry="1.63578" fill="#FFD037"/>
<ellipse cx="27.1861" cy="23.083" rx="2.45367" ry="1.63578" fill="black" fill-opacity="0.2"/>
<rect x="24.7324" y="22.2656" width="4.90735" height="0.817891" fill="#FFD037"/>
<rect x="24.7324" y="22.2656" width="4.90735" height="0.817891" fill="black" fill-opacity="0.2"/>
<ellipse cx="27.1861" cy="22.2647" rx="2.45367" ry="1.63578" fill="#FFD037"/>
<ellipse cx="40.2723" cy="23.083" rx="2.45367" ry="1.63578" fill="#FFD037"/>
<ellipse cx="40.2723" cy="23.083" rx="2.45367" ry="1.63578" fill="black" fill-opacity="0.2"/>
<rect x="37.8186" y="22.2656" width="4.90735" height="0.817891" fill="#FFD037"/>
<rect x="37.8186" y="22.2656" width="4.90735" height="0.817891" fill="black" fill-opacity="0.2"/>
<ellipse cx="40.2723" cy="22.2647" rx="2.45367" ry="1.63578" fill="#FFD037"/>
<ellipse cx="33.7293" cy="19.8116" rx="2.45367" ry="1.63578" fill="#FFD037"/>
<ellipse cx="33.7293" cy="19.8116" rx="2.45367" ry="1.63578" fill="black" fill-opacity="0.2"/>
<rect x="31.2756" y="18.9941" width="4.90735" height="0.817891" fill="#FFD037"/>
<rect x="31.2756" y="18.9941" width="4.90735" height="0.817891" fill="black" fill-opacity="0.2"/>
<ellipse cx="33.7293" cy="18.9932" rx="2.45367" ry="1.63578" fill="#FFD037"/>
<path d="M46.5739 49.8007L33.5336 43.2805V30.2402L46.5739 36.7604V49.8007Z" fill="#FFD037"/>
<path d="M46.5739 49.8007L59.6142 43.2805V30.2402L46.5739 36.7604V49.8007Z" fill="#FFD037"/>
<path d="M46.5739 49.8007L59.6142 43.2805V30.2402L46.5739 36.7604V49.8007Z" fill="black" fill-opacity="0.2"/>
<path d="M59.6143 30.2389L46.574 23.7188L33.5337 30.2389L46.574 36.759L59.6143 30.2389Z" fill="#FFD037"/>
<ellipse cx="46.8155" cy="32.8955" rx="2.45367" ry="1.63578" fill="#FFD037"/>
<ellipse cx="46.8155" cy="32.8955" rx="2.45367" ry="1.63578" fill="black" fill-opacity="0.2"/>
<rect x="44.3618" y="32.0781" width="4.90735" height="0.817891" fill="#FFD037"/>
<rect x="44.3618" y="32.0781" width="4.90735" height="0.817891" fill="black" fill-opacity="0.2"/>
<ellipse cx="46.8155" cy="32.0772" rx="2.45367" ry="1.63578" fill="#FFD037"/>
<ellipse cx="40.2724" cy="29.6241" rx="2.45367" ry="1.63578" fill="#FFD037"/>
<ellipse cx="40.2724" cy="29.6241" rx="2.45367" ry="1.63578" fill="black" fill-opacity="0.2"/>
<rect x="37.8187" y="28.8066" width="4.90735" height="0.817891" fill="#FFD037"/>
<rect x="37.8187" y="28.8066" width="4.90735" height="0.817891" fill="black" fill-opacity="0.2"/>
<ellipse cx="40.2724" cy="28.8057" rx="2.45367" ry="1.63578" fill="#FFD037"/>
<ellipse cx="53.3587" cy="29.6241" rx="2.45367" ry="1.63578" fill="#FFD037"/>
<ellipse cx="53.3587" cy="29.6241" rx="2.45367" ry="1.63578" fill="black" fill-opacity="0.2"/>
<rect x="50.905" y="28.8066" width="4.90735" height="0.817891" fill="#FFD037"/>
<rect x="50.905" y="28.8066" width="4.90735" height="0.817891" fill="black" fill-opacity="0.2"/>
<ellipse cx="53.3587" cy="28.8057" rx="2.45367" ry="1.63578" fill="#FFD037"/>
<ellipse cx="46.8155" cy="26.3545" rx="2.45367" ry="1.63578" fill="#FFD037"/>
<ellipse cx="46.8155" cy="26.3545" rx="2.45367" ry="1.63578" fill="black" fill-opacity="0.2"/>
<rect x="44.3618" y="25.5371" width="4.90735" height="0.817891" fill="#FFD037"/>
<rect x="44.3618" y="25.5371" width="4.90735" height="0.817891" fill="black" fill-opacity="0.2"/>
<ellipse cx="46.8155" cy="25.5362" rx="2.45367" ry="1.63578" fill="#FFD037"/>
<path d="M59.66 56.3437L46.6198 49.8235V36.7832L59.66 43.3034V56.3437Z" fill="#FFD037"/>
<path d="M59.66 56.3437L72.7003 49.8235V36.7832L59.66 43.3034V56.3437Z" fill="#FFD037"/>
<path d="M59.66 56.3437L72.7003 49.8235V36.7832L59.66 43.3034V56.3437Z" fill="black" fill-opacity="0.2"/>
<path d="M72.7005 36.7819L59.6602 30.2617L46.6199 36.7819L59.6602 43.302L72.7005 36.7819Z" fill="#FFD037"/>
<ellipse cx="59.9017" cy="39.4385" rx="2.45367" ry="1.63578" fill="#FFD037"/>
<ellipse cx="59.9017" cy="39.4385" rx="2.45367" ry="1.63578" fill="black" fill-opacity="0.2"/>
<rect x="57.448" y="38.6211" width="4.90735" height="0.817891" fill="#FFD037"/>
<rect x="57.448" y="38.6211" width="4.90735" height="0.817891" fill="black" fill-opacity="0.2"/>
<ellipse cx="59.9017" cy="38.6202" rx="2.45367" ry="1.63578" fill="#FFD037"/>
<ellipse cx="53.3586" cy="36.167" rx="2.45367" ry="1.63578" fill="#FFD037"/>
<ellipse cx="53.3586" cy="36.167" rx="2.45367" ry="1.63578" fill="black" fill-opacity="0.2"/>
<rect x="50.9049" y="35.3496" width="4.90735" height="0.817891" fill="#FFD037"/>
<rect x="50.9049" y="35.3496" width="4.90735" height="0.817891" fill="black" fill-opacity="0.2"/>
<ellipse cx="53.3586" cy="35.3487" rx="2.45367" ry="1.63578" fill="#FFD037"/>
<ellipse cx="66.4449" cy="36.167" rx="2.45367" ry="1.63578" fill="#FFD037"/>
<ellipse cx="66.4449" cy="36.167" rx="2.45367" ry="1.63578" fill="black" fill-opacity="0.2"/>
<rect x="63.9912" y="35.3496" width="4.90735" height="0.817891" fill="#FFD037"/>
<rect x="63.9912" y="35.3496" width="4.90735" height="0.817891" fill="black" fill-opacity="0.2"/>
<ellipse cx="66.4449" cy="35.3487" rx="2.45367" ry="1.63578" fill="#FFD037"/>
<ellipse cx="59.9017" cy="32.8955" rx="2.45367" ry="1.63578" fill="#FFD037"/>
<ellipse cx="59.9017" cy="32.8955" rx="2.45367" ry="1.63578" fill="black" fill-opacity="0.2"/>
<rect x="57.448" y="32.0781" width="4.90735" height="0.817891" fill="#FFD037"/>
<rect x="57.448" y="32.0781" width="4.90735" height="0.817891" fill="black" fill-opacity="0.2"/>
<ellipse cx="59.9017" cy="32.0772" rx="2.45367" ry="1.63578" fill="#FFD037"/>
<path d="M13.0403 20.0391L0 13.5189V6.52148L13.0403 13.0416L13.0403 20.0391Z" fill="#FFD037"/>
<path d="M13.0403 20.0161L26.0806 13.4959V6.52148L13.0403 13.0416V20.0161Z" fill="#FFD037"/>
<path d="M13.0403 20.0161L26.0806 13.4959V6.52148L13.0403 13.0416V20.0161Z" fill="black" fill-opacity="0.2"/>
<path d="M26.0807 6.52015L13.0404 0L0.00012207 6.52015L13.0404 13.0403L26.0807 6.52015Z" fill="#FFD037"/>
<ellipse cx="13.2819" cy="9.1768" rx="2.45367" ry="1.63578" fill="#FFD037"/>
<ellipse cx="13.2819" cy="9.1768" rx="2.45367" ry="1.63578" fill="black" fill-opacity="0.2"/>
<rect x="10.8282" y="8.35938" width="4.90735" height="0.817891" fill="#FFD037"/>
<rect x="10.8282" y="8.35938" width="4.90735" height="0.817891" fill="black" fill-opacity="0.2"/>
<ellipse cx="13.2819" cy="8.35844" rx="2.45367" ry="1.63578" fill="#FFD037"/>
<ellipse cx="6.73883" cy="5.90727" rx="2.45367" ry="1.63578" fill="#FFD037"/>
<ellipse cx="6.73883" cy="5.90727" rx="2.45367" ry="1.63578" fill="black" fill-opacity="0.2"/>
<rect x="4.28516" y="5.08984" width="4.90735" height="0.817891" fill="#FFD037"/>
<rect x="4.28516" y="5.08984" width="4.90735" height="0.817891" fill="black" fill-opacity="0.2"/>
<ellipse cx="6.73883" cy="5.08891" rx="2.45367" ry="1.63578" fill="#FFD037"/>
<ellipse cx="19.825" cy="5.90727" rx="2.45367" ry="1.63578" fill="#FFD037"/>
<ellipse cx="19.825" cy="5.90727" rx="2.45367" ry="1.63578" fill="black" fill-opacity="0.2"/>
<rect x="17.3713" y="5.08984" width="4.90735" height="0.817891" fill="#FFD037"/>
<rect x="17.3713" y="5.08984" width="4.90735" height="0.817891" fill="black" fill-opacity="0.2"/>
<ellipse cx="19.825" cy="5.08891" rx="2.45367" ry="1.63578" fill="#FFD037"/>
<ellipse cx="13.2819" cy="2.63578" rx="2.45367" ry="1.63578" fill="#FFD037"/>
<ellipse cx="13.2819" cy="2.63578" rx="2.45367" ry="1.63578" fill="black" fill-opacity="0.2"/>
<rect x="10.8282" y="1.81836" width="4.90735" height="0.817891" fill="#FFD037"/>
<rect x="10.8282" y="1.81836" width="4.90735" height="0.817891" fill="black" fill-opacity="0.2"/>
<ellipse cx="13.2819" cy="1.81742" rx="2.45367" ry="1.63578" fill="#FFD037"/>
</svg>
