<svg width="67" height="67" viewBox="0 0 67 67" fill="none" xmlns="http://www.w3.org/2000/svg">
    <path d="M49.2919 49.7612L33.3985 41.8145L17.505 49.7612L33.3985 57.7079L49.2919 49.7612Z" fill="#4D4D4D"
        stroke="#161616" stroke-width="2" stroke-miterlimit="1" />
    <path d="M49.2922 49.761L33.3988 41.8143V25.9209L49.2922 33.8676L49.2922 49.761Z" fill="#999999" stroke="#161616"
        stroke-width="2" stroke-miterlimit="1" />
    <path d="M33.3986 41.8143L17.5052 49.761L17.5052 33.8676L33.3986 25.9209V41.8143Z" fill="#999999" stroke="#161616"
        stroke-width="2" stroke-miterlimit="1" />
    <path d="M33.3986 57.7083L17.5052 49.7616L17.5052 33.8682L33.3986 41.8149L33.3986 57.7083Z" fill="white"
        stroke="#161616" stroke-width="2" stroke-miterlimit="1" />
    <path d="M33.3988 57.7083L49.2922 49.7616V33.8682L33.3988 41.8149L33.3988 57.7083Z" fill="white" stroke="#161616"
        stroke-width="2" stroke-miterlimit="1" />
    <path d="M49.2921 33.8676L33.3986 25.9209L17.5052 33.8676L33.3986 41.8143L49.2921 33.8676Z" fill="#C6FF73"
        stroke="#161616" stroke-width="2" stroke-miterlimit="1" />
    <path d="M65.2972 25.6528L49.4038 17.7061L33.5104 25.6528L49.4038 33.5995L65.2972 25.6528Z" fill="#4D4D4D"
        stroke="#161616" stroke-width="2" stroke-miterlimit="1" />
    <path d="M65.2972 25.6526L49.4037 17.7059V1.8125L65.2972 9.75921V25.6526Z" fill="#999999" stroke="#161616"
        stroke-width="2" stroke-miterlimit="1" />
    <path d="M49.4039 17.7059L33.5104 25.6526L33.5104 9.75921L49.4039 1.8125V17.7059Z" fill="#999999" stroke="#161616"
        stroke-width="2" stroke-miterlimit="1" />
    <path d="M49.4038 33.5999L33.5104 25.6532V9.75977L49.4038 17.7065L49.4038 33.5999Z" fill="white" stroke="#161616"
        stroke-width="2" stroke-miterlimit="1" />
    <path d="M49.4037 33.5999L65.2972 25.6532V9.75977L49.4037 17.7065L49.4037 33.5999Z" fill="white" stroke="#161616"
        stroke-width="2" stroke-miterlimit="1" />
    <path d="M65.2973 9.75921L49.4039 1.8125L33.5104 9.75921L49.4039 17.7059L65.2973 9.75921Z" fill="#C6FF73"
        stroke="#161616" stroke-width="2" stroke-miterlimit="1" />
    <path d="M33.2869 57.8657L17.3934 49.9189L1.5 57.8657L17.3934 65.8124L33.2869 57.8657Z" fill="#4D4D4D"
        stroke="#161616" stroke-width="2" stroke-miterlimit="1" />
    <path d="M33.2868 57.8665L17.3934 49.9198L17.3934 34.0264L33.2868 41.9731L33.2868 57.8665Z" fill="#999999"
        stroke="#161616" stroke-width="2" stroke-miterlimit="1" />
    <path d="M17.3933 49.9198L1.49991 57.8665L1.49991 41.9731L17.3933 34.0264L17.3933 49.9198Z" fill="#999999"
        stroke="#161616" stroke-width="2" stroke-miterlimit="1" />
    <path d="M17.3934 65.8128L1.5 57.8661L1.5 41.9727L17.3934 49.9194L17.3934 65.8128Z" fill="white" stroke="#161616"
        stroke-width="2" stroke-miterlimit="1" />
    <path d="M17.3934 65.8128L33.2868 57.8661V41.9727L17.3934 49.9194L17.3934 65.8128Z" fill="white" stroke="#161616"
        stroke-width="2" stroke-miterlimit="1" />
    <path d="M33.2868 41.9731L17.3933 34.0264L1.49991 41.9731L17.3933 49.9198L33.2868 41.9731Z" fill="#C6FF73"
        stroke="#161616" stroke-width="2" stroke-miterlimit="1" />
    <path d="M49.2917 33.7573L33.3983 25.8105L17.5049 33.7573L33.3983 41.704L49.2917 33.7573Z" fill="#4D4D4D"
        stroke="#161616" stroke-width="2" stroke-miterlimit="1" />
    <path d="M49.2919 33.7571L33.3984 25.8104V9.91699L49.2919 17.8637L49.2919 33.7571Z" fill="#999999" stroke="#161616"
        stroke-width="2" stroke-miterlimit="1" />
    <path d="M33.3985 25.8104L17.5051 33.7571L17.5051 17.8637L33.3985 9.91699V25.8104Z" fill="#999999" stroke="#161616"
        stroke-width="2" stroke-miterlimit="1" />
    <path d="M33.3985 41.7034L17.5051 33.7567L17.5051 17.8633L33.3985 25.81L33.3985 41.7034Z" fill="white"
        stroke="#161616" stroke-width="2" stroke-miterlimit="1" />
    <path d="M33.3984 41.7034L49.2919 33.7567V17.8633L33.3984 25.81L33.3984 41.7034Z" fill="white" stroke="#161616"
        stroke-width="2" stroke-miterlimit="1" />
    <path d="M49.2919 17.8637L33.3985 9.91699L17.5051 17.8637L33.3985 25.8104L49.2919 17.8637Z" fill="#C6FF73"
        stroke="#161616" stroke-width="2" stroke-miterlimit="1" />
</svg>
