<svg width="2520" height="636" viewBox="0 0 2520 636" fill="none" xmlns="http://www.w3.org/2000/svg">
<g filter="url(#filter0_f_2001_1556)">
<path d="M1168.59 141.807C1166.43 143.663 1161.63 148.953 1159.78 155.263C1158.01 161.264 1142.68 185.927 1134.13 199.237L1132.86 533.423L2420 533.887L2411.65 507.903C2407.47 496.767 2392.72 471.896 2367.1 461.503C2335.09 448.511 2304.93 451.295 2264.1 423.455C2223.26 395.615 2073.86 351.999 2007.97 357.103C1942.08 362.207 1896.14 355.247 1875.73 349.215C1855.31 343.183 1796.38 306.063 1791.74 303.743C1787.1 301.423 1777.36 302.815 1759.26 296.319C1744.79 291.122 1711.47 257.961 1696.62 242.031C1696.62 241.257 1695.6 239.525 1691.52 238.783C1686.42 237.855 1673.89 242.959 1666.46 242.031C1659.04 241.103 1653.01 232.751 1648.37 231.359C1643.73 229.967 1625.17 231.823 1608.46 229.503C1591.76 227.183 1578.3 220.223 1566.24 207.231C1554.18 194.239 1495.25 157.119 1489.22 154.799C1483.18 152.479 1456.74 141.807 1443.74 132.063C1430.75 122.318 1379.71 103.759 1355.58 100.975C1331.46 98.1907 1255.82 143.199 1241.44 141.807C1227.06 140.415 1200.61 133.919 1189.01 132.991C1179.73 132.249 1171.53 138.559 1168.59 141.807Z" fill="#C6FF73"/>
<path d="M1022.43 243.763C1034.03 241.443 1032.18 247.939 1045.17 243.763C1055.56 240.423 1070.53 217.934 1076.72 207.108C1078.58 204.478 1083.03 199.034 1086 198.292C1088.97 197.549 1090.64 194.889 1091.1 193.652H1094.82C1097.91 196.59 1105.4 202.468 1110.59 202.468C1115.79 202.468 1143.07 203.396 1156.06 203.86C1164.42 193.342 1183.9 171.472 1195.04 168.132C1206.18 164.791 1212.36 158.388 1214.06 155.604C1222.11 159.625 1240.23 168.317 1248.4 170.916C1256.57 173.514 1262.01 170.142 1263.71 168.132C1272.22 173.7 1291.83 186.599 1302.22 193.652C1307.42 197.364 1307.79 199.529 1307.33 200.148C1305.47 207.572 1301.2 223.348 1298.98 227.06C1296.19 231.7 1292.48 235.412 1289.7 235.876C1286.91 236.34 1265.57 233.556 1261.39 233.556C1257.22 233.556 1241.9 234.484 1237.73 238.196C1247.01 242.372 1257.68 249.796 1257.68 251.188C1257.68 252.58 1255.36 266.964 1257.68 268.82C1260 270.676 1306.4 284.132 1315.22 295.268C1322.27 304.176 1329.91 315.374 1332.85 319.86L1325.89 332.852C1327.13 335.017 1329.6 340.368 1329.6 344.452V352.34L1372.29 431.22L1369.04 534.228H989.952L982.528 269.283C990.73 264.978 997.21 259.947 1002.89 255.473C1010.06 249.822 1015.96 245.058 1022.43 243.763Z" fill="#C6FF73"/>
<path d="M1086 198.292C1083.03 199.034 1078.58 204.478 1076.72 207.108C1070.53 217.934 1055.56 240.423 1045.17 243.763C1032.18 247.939 1034.03 241.443 1022.43 243.763C1015.96 245.058 1010.06 249.822 1002.89 255.473M1086 198.292C1088.97 197.549 1090.64 194.889 1091.1 193.652H1094.82C1097.91 196.59 1105.4 202.468 1110.59 202.468C1115.79 202.468 1143.07 203.396 1156.06 203.86C1164.42 193.342 1183.9 171.472 1195.04 168.132C1206.18 164.791 1212.36 158.388 1214.06 155.604C1222.11 159.625 1240.23 168.317 1248.4 170.916C1256.57 173.514 1262.01 170.142 1263.71 168.132C1272.22 173.7 1291.83 186.599 1302.22 193.652C1307.42 197.364 1307.79 199.529 1307.33 200.148C1305.47 207.572 1301.2 223.348 1298.98 227.06C1296.19 231.7 1292.48 235.412 1289.7 235.876C1286.91 236.34 1265.57 233.556 1261.39 233.556C1257.22 233.556 1241.9 234.484 1237.73 238.196C1247.01 242.372 1257.68 249.796 1257.68 251.188C1257.68 252.58 1255.36 266.964 1257.68 268.82C1260 270.676 1306.4 284.132 1315.22 295.268C1322.27 304.176 1329.91 315.374 1332.85 319.86L1325.89 332.852C1327.13 335.017 1329.6 340.368 1329.6 344.452C1329.6 348.535 1329.6 351.412 1329.6 352.34L1372.29 431.22L1369.04 534.228H989.952L982.528 269.283C990.73 264.978 997.21 259.947 1002.89 255.473M1086 198.292C1087.08 199.838 1090.83 204.138 1097.14 208.964C1103.45 213.789 1106.26 212.83 1106.88 211.748C1104.25 227.988 1100.57 262.138 1106.88 268.82C1113.19 275.501 1126.21 281.502 1131.94 283.668L1141.68 308.26L1002.89 255.473" stroke="#C6FF73"/>
<path d="M1627.49 520.772L1635.84 532.836L1492 532.965L1462.77 511.955C1464.16 498.963 1467.5 471.216 1469.73 464.163C1471.95 457.111 1468.8 453.491 1466.94 452.563C1470.97 441.118 1479.66 415.815 1482.26 406.163C1484.85 396.512 1460.76 341.513 1448.38 315.219L1426.58 295.731C1427.81 290.009 1428.25 274.202 1420.08 256.755C1411.91 239.309 1405.7 233.555 1396.88 228.915L1406.62 228.451C1414.05 231.235 1405.7 227.523 1419.62 230.771C1433.54 234.019 1472.51 269.748 1482.26 284.132C1492 298.516 1483.18 308.724 1485.97 324.036C1488.2 336.285 1496.79 338.729 1500.82 338.42C1499.58 339.502 1497.1 347.05 1497.1 368.58C1497.1 395.492 1519.84 390.388 1522.16 395.956C1524.48 401.524 1545.82 408.948 1548.61 422.404C1551.39 435.86 1546.75 486.436 1548.61 489.684C1550.09 492.282 1590.99 515.204 1611.25 526.34L1627.49 520.772Z" fill="#C6FF73"/>
<path d="M1045.17 243.762C1032.18 247.938 1034.03 241.442 1022.43 243.762C1015.96 245.057 1010.06 249.821 1002.89 255.472L1141.68 308.258L1131.94 283.666C1126.21 281.501 1113.19 275.5 1106.88 268.818C1100.57 262.137 1104.25 227.986 1106.88 211.746C1106.26 212.829 1103.45 213.788 1097.14 208.962C1090.83 204.137 1087.08 199.837 1086 198.29C1083.03 199.033 1078.58 204.477 1076.72 207.106C1070.53 217.933 1055.56 240.421 1045.17 243.762Z" fill="#C6FF73"/>
<path d="M355.651 366.718C408.083 324.03 616.883 225.198 647.971 201.07C667.216 186.134 681.304 172.265 695.299 167.057C703.912 163.852 712.489 163.928 722.211 169.054C747.731 182.51 754.227 185.294 764.899 185.294C775.571 185.294 783.459 169.982 794.595 173.23C805.731 176.478 799.235 178.798 810.371 179.262C821.507 179.726 839.139 199.214 855.379 206.638C871.619 214.062 880.435 204.318 895.747 210.35C911.059 216.382 1228.9 331.918 1263.24 337.95C1297.57 343.982 1327.73 338.878 1336.08 342.126C1344.44 345.374 1376.45 356.046 1392.23 372.286C1408 388.526 1446.05 428.894 1450.69 443.742C1455.33 458.59 1454.4 498.958 1463.22 509.63C1470.27 518.168 1494 528.964 1504.98 533.294H918.483H100C172.231 462.517 304.007 408.765 355.651 366.718Z" fill="#C6FF73"/>
<path d="M647.971 201.679C616.883 225.807 408.083 324.639 355.651 367.327C304.007 409.374 172.231 463.126 100 533.903H918.483L901.779 506.991H894.819C888.323 505.908 879.6 500.495 896.675 487.503C913.751 474.511 913.379 437.236 911.059 420.223C902.553 420.532 883.498 419.759 875.331 414.191C865.123 407.231 881.827 385.887 883.683 370.111C885.539 354.335 873.011 355.263 864.195 340.879C857.143 329.372 851.667 311.028 849.811 303.295C843.161 299.119 832.272 289.654 841.923 285.199C853.987 279.631 878.115 286.127 887.859 283.343C897.603 280.559 864.659 258.751 873.011 253.183C881.363 247.615 878.579 249.471 901.779 246.687C924.979 243.903 851.203 210.959 813.619 210.959C776.035 210.959 783.459 226.735 754.691 227.199C725.923 227.663 719.427 248.543 688.803 243.903C664.304 240.191 670.862 228.746 677.203 223.487L673.027 207.247L695.299 179.871V167.666C681.304 172.874 667.216 186.743 647.971 201.679Z" fill="#C6FF73"/>
<path d="M647.971 201.679C616.883 225.807 408.083 324.639 355.651 367.327C304.007 409.374 172.231 463.126 100 533.903H547.747C567.421 521.282 618.121 507.919 641.011 502.815C660.499 490.906 701.981 465.788 712.003 460.591C724.531 454.095 752.835 408.623 761.651 399.807C768.704 392.755 784.078 391.919 790.883 392.383C789.955 391.919 789.12 389.414 793.203 383.103C797.286 376.793 814.393 341.189 822.435 324.175C820.889 324.33 815.939 325.011 808.515 326.495C799.235 328.351 764.899 354.335 756.547 356.655C748.195 358.975 745.411 358.511 734.275 359.903C723.139 361.295 675.347 381.711 671.171 377.999C667.831 375.03 654.313 333.146 647.971 312.575L681.843 298.655C690.041 301.594 706.992 307.471 709.219 307.471C712.003 307.471 717.107 290.303 724.531 278.703C731.955 267.103 741.235 263.391 742.163 253.183C742.906 245.017 724.841 241.457 715.715 240.698C708.523 243.761 700.39 245.659 688.803 243.903C664.304 240.191 670.862 228.746 677.203 223.487L673.027 207.247L695.299 179.871V167.666C681.304 172.874 667.216 186.743 647.971 201.679Z" fill="#C6FF73"/>
<path d="M827.552 462.372L806.208 480.468L780.252 533.308L778.368 535.22L866.528 534.756L891.12 460.98L873.488 414.116C873.952 413.497 873.21 412.91 866.528 415.508C858.176 418.756 853.072 414.58 841.936 422.468C833.027 428.778 828.635 451.7 827.552 462.372Z" fill="#C6FF73"/>
<path d="M911.13 421.01C902.623 421.319 883.568 420.546 875.402 414.978C874.794 414.563 874.282 414.098 873.856 413.586C873.598 414.978 871.968 418.226 867.514 420.082C861.946 422.402 847.098 427.506 841.994 435.858C836.89 444.21 834.57 477.618 835.034 485.042C835.405 490.981 845.087 496.487 849.882 498.498C848.644 502.829 846.355 513.16 847.098 519.842C847.84 526.524 851.119 532.524 852.666 534.69H918.554L901.85 507.778H894.89C888.394 506.695 879.67 501.282 896.746 488.29C913.821 475.298 913.45 438.023 911.13 421.01Z" fill="#C6FF73"/>
<path d="M910.144 421.01C901.638 421.32 882.583 420.546 874.416 414.978C873.809 414.564 873.296 414.099 872.871 413.587C874.468 409.565 881.005 399.852 894.368 393.171C911.072 384.819 919.888 374.147 921.744 369.507C923.229 365.795 923.91 362.392 924.064 361.155L927.776 356.979C933.19 367.341 945.037 391.593 949.12 405.699C953.203 419.804 957.936 446.531 959.792 458.131L967.216 459.059C973.867 478.082 992.272 519.842 1012.69 534.69H917.568L900.864 507.778H893.904C887.408 506.696 878.685 501.282 895.76 488.29C912.835 475.298 912.464 438.024 910.144 421.01Z" fill="#C6FF73"/>
<path d="M1444 131.939C1431.01 122.194 1379.97 103.635 1355.84 100.851C1337.65 105.676 1323.52 120.803 1318.72 127.763C1316.4 132.403 1316.4 146.787 1328.93 156.995C1338.95 165.161 1353.21 167.203 1359.09 167.203C1360.02 168.44 1362.34 171.471 1364.19 173.699C1366.51 176.483 1390.64 189.939 1400.39 197.827C1408.18 204.137 1412.91 216.541 1414.31 221.955C1409.05 218.397 1396.58 210.448 1388.79 207.107C1380.99 203.766 1365.74 205.715 1359.09 207.107C1360.48 207.571 1364.75 209.056 1370.69 211.283C1378.11 214.067 1393.89 230.307 1407.81 233.555C1421.73 236.803 1472.77 270.211 1482.51 284.595C1492.26 298.979 1483.44 309.187 1486.23 324.499C1488.45 336.749 1497.05 339.192 1501.07 338.883C1499.84 339.966 1497.36 347.513 1497.36 369.043C1497.36 395.955 1520.1 390.851 1522.42 396.419C1524.74 401.987 1546.08 409.411 1548.87 422.867C1551.65 436.323 1547.01 486.899 1548.87 490.147C1550.35 492.745 1591.24 515.667 1611.51 526.803L1627.75 521.235L1636.1 533.299L1754.42 533.523L1714.51 516.131C1732.76 512.573 1767.32 504.159 1759.52 498.963C1749.78 492.467 1666.72 467.875 1648.63 464.627C1630.53 461.379 1608.72 443.747 1614.75 436.323C1620.79 428.899 1648.63 430.755 1662.08 429.363C1675.54 427.971 1691.78 423.331 1679.71 402.451C1670.06 385.747 1625.27 370.435 1604.08 364.867L1614.75 336.563C1602.54 328.675 1577.17 311.043 1573.46 303.619C1568.82 294.339 1585.06 266.499 1586.91 254.899C1588.4 245.619 1602.07 234.019 1608.72 229.379C1592.02 227.059 1578.56 220.099 1566.5 207.107C1554.43 194.115 1495.51 156.995 1489.47 154.675C1483.44 152.355 1456.99 141.683 1444 131.939Z" fill="#C6FF73"/>
</g>
<defs>
<filter id="filter0_f_2001_1556" x="0" y="0.850586" width="2520" height="634.37" filterUnits="userSpaceOnUse" color-interpolation-filters="sRGB">
<feFlood flood-opacity="0" result="BackgroundImageFix"/>
<feBlend mode="normal" in="SourceGraphic" in2="BackgroundImageFix" result="shape"/>
<feGaussianBlur stdDeviation="50" result="effect1_foregroundBlur_2001_1556"/>
</filter>
</defs>
</svg>
