<svg width="2500" height="486" viewBox="0 0 2500 486" fill="none" xmlns="http://www.w3.org/2000/svg">
<g clip-path="url(#clip0_1973_1842)">
<circle cx="990" cy="123" r="123" fill="#C6FF73"/>
<path d="M1151.5 65.1341C1149.17 67.1341 1144 72.8341 1142 79.6341C1140.1 86.1011 1123.57 112.677 1114.36 127.02L1113 487.134L2500 487.634L2491 459.634C2486.5 447.634 2470.6 420.834 2443 409.634C2408.5 395.634 2376 398.634 2332 368.634C2288 338.634 2127 291.634 2056 297.134C1985 302.634 1935.5 295.134 1913.5 288.634C1891.5 282.134 1828 242.134 1823 239.634C1818 237.134 1807.5 238.634 1788 231.634C1772.4 226.034 1736.5 190.3 1720.5 173.134C1720.5 172.3 1719.4 170.434 1715 169.634C1709.5 168.634 1696 174.134 1688 173.134C1680 172.134 1673.5 163.134 1668.5 161.634C1663.5 160.134 1643.5 162.134 1625.5 159.634C1607.5 157.134 1593 149.634 1580 135.634C1567 121.634 1503.5 81.6338 1497 79.1338C1490.5 76.6338 1462 65.1341 1448 54.6338C1434 44.1335 1379 24.1337 1353 21.1337C1327 18.1337 1245.5 66.6337 1230 65.1341C1214.5 63.6345 1186 56.6341 1173.5 55.6341C1163.5 54.8341 1154.67 61.6341 1151.5 65.1341Z" fill="#503EA9"/>
<path d="M994 175C1006.5 172.5 1004.5 179.5 1018.5 175C1029.7 171.4 1045.83 147.167 1052.5 135.5C1054.5 132.667 1059.3 126.8 1062.5 126C1065.7 125.2 1067.5 122.333 1068 121H1072C1075.33 124.167 1083.4 130.5 1089 130.5C1094.6 130.5 1124 131.5 1138 132C1147 120.667 1168 97.1 1180 93.5C1192 89.9 1198.67 83 1200.5 80C1209.17 84.3333 1228.7 93.7 1237.5 96.5C1246.3 99.3 1252.17 95.6667 1254 93.5C1263.17 99.5 1284.3 113.4 1295.5 121C1301.1 125 1301.5 127.333 1301 128C1299 136 1294.4 153 1292 157C1289 162 1285 166 1282 166.5C1279 167 1256 164 1251.5 164C1247 164 1230.5 165 1226 169C1236 173.5 1247.5 181.5 1247.5 183C1247.5 184.5 1245 200 1247.5 202C1250 204 1300 218.5 1309.5 230.5C1317.1 240.1 1325.33 252.167 1328.5 257L1321 271C1322.33 273.333 1325 279.1 1325 283.5V292L1371 377L1367.5 488H959L951 202.5C959.838 197.86 966.82 192.439 972.94 187.618C980.67 181.528 987.024 176.395 994 175Z" fill="#EDEBF7"/>
<path d="M1062.5 126C1059.3 126.8 1054.5 132.667 1052.5 135.5C1045.83 147.167 1029.7 171.4 1018.5 175C1004.5 179.5 1006.5 172.5 994 175C987.024 176.395 980.67 181.528 972.94 187.618M1062.5 126C1065.7 125.2 1067.5 122.333 1068 121H1072C1075.33 124.167 1083.4 130.5 1089 130.5C1094.6 130.5 1124 131.5 1138 132C1147 120.667 1168 97.1 1180 93.5C1192 89.9 1198.67 83 1200.5 80C1209.17 84.3333 1228.7 93.7 1237.5 96.5C1246.3 99.3 1252.17 95.6667 1254 93.5C1263.17 99.5 1284.3 113.4 1295.5 121C1301.1 125 1301.5 127.333 1301 128C1299 136 1294.4 153 1292 157C1289 162 1285 166 1282 166.5C1279 167 1256 164 1251.5 164C1247 164 1230.5 165 1226 169C1236 173.5 1247.5 181.5 1247.5 183C1247.5 184.5 1245 200 1247.5 202C1250 204 1300 218.5 1309.5 230.5C1317.1 240.1 1325.33 252.167 1328.5 257L1321 271C1322.33 273.333 1325 279.1 1325 283.5C1325 287.9 1325 291 1325 292L1371 377L1367.5 488H959L951 202.5C959.838 197.86 966.82 192.439 972.94 187.618M1062.5 126C1063.67 127.667 1067.7 132.3 1074.5 137.5C1081.3 142.7 1084.33 141.667 1085 140.5C1082.17 158 1078.2 194.8 1085 202C1091.8 209.2 1105.83 215.667 1112 218L1122.5 244.5L972.94 187.618" stroke="#EDEBF7"/>
<path d="M1646 473.501L1655 486.501L1500 486.64L1468.5 464C1470 450 1473.6 420.1 1476 412.5C1478.4 404.9 1475 401 1473 400C1477.33 387.667 1486.7 360.4 1489.5 350C1492.3 339.6 1466.33 280.334 1453 252L1429.5 231C1430.83 224.834 1431.3 207.8 1422.5 189C1413.7 170.2 1407 164 1397.5 159L1408 158.5C1416 161.5 1407 157.5 1422 161C1437 164.5 1479 203.001 1489.5 218.501C1500 234.001 1490.5 245.001 1493.5 261.501C1495.9 274.701 1505.17 277.334 1509.5 277.001C1508.17 278.167 1505.5 286.301 1505.5 309.501C1505.5 338.501 1530 333.001 1532.5 339.001C1535 345.001 1558 353.001 1561 367.501C1564 382.001 1559 436.501 1561 440.001C1562.6 442.801 1606.67 467.501 1628.5 479.501L1646 473.501Z" fill="#725FD5"/>
<path d="M1018.5 175C1004.5 179.5 1006.5 172.5 994 175C987.024 176.395 980.67 181.528 972.94 187.618L1122.5 244.5L1112 218C1105.83 215.667 1091.8 209.2 1085 202C1078.2 194.8 1082.17 158 1085 140.5C1084.33 141.667 1081.3 142.7 1074.5 137.5C1067.7 132.3 1063.67 127.667 1062.5 126C1059.3 126.8 1054.5 132.667 1052.5 135.5C1045.83 147.167 1029.7 171.4 1018.5 175Z" fill="#503EA9"/>
<path d="M275.486 307.495C331.986 261.495 556.986 154.995 590.486 128.995C611.224 112.9 626.406 97.9547 641.486 92.3431C650.767 88.8896 660.01 88.9711 670.486 94.4951C697.986 108.995 704.986 111.995 716.486 111.995C727.986 111.995 736.486 95.4951 748.486 98.9951C760.486 102.495 753.486 104.995 765.486 105.495C777.486 105.995 796.486 126.995 813.986 134.995C831.486 142.995 840.986 132.495 857.486 138.995C873.986 145.495 1216.49 269.995 1253.49 276.495C1290.49 282.995 1322.99 277.495 1331.99 280.995C1340.99 284.495 1375.49 295.995 1392.49 313.495C1409.49 330.995 1450.49 374.495 1455.49 390.495C1460.49 406.495 1459.49 449.995 1468.99 461.495C1476.59 470.695 1502.15 482.328 1513.99 486.995H881.986H0C77.8349 410.727 219.835 352.805 275.486 307.495Z" fill="white"/>
<path d="M590.486 129.652C556.986 155.652 331.986 262.152 275.486 308.152C219.835 353.461 77.8349 411.384 0 487.652H881.986L863.986 458.652H856.486C849.486 457.485 840.086 451.652 858.486 437.652C876.886 423.652 876.486 383.485 873.986 365.152C864.82 365.485 844.286 364.652 835.486 358.652C824.486 351.152 842.486 328.152 844.486 311.152C846.486 294.152 832.986 295.152 823.486 279.652C815.886 267.252 809.986 247.485 807.986 239.152C800.82 234.652 789.086 224.452 799.486 219.652C812.486 213.652 838.486 220.652 848.986 217.652C859.486 214.652 823.986 191.152 832.986 185.152C841.986 179.152 838.986 181.152 863.986 178.152C888.986 175.152 809.486 139.652 768.986 139.652C728.486 139.652 736.486 156.652 705.486 157.152C674.486 157.652 667.486 180.152 634.486 175.152C608.086 171.152 615.153 158.819 621.986 153.152L617.486 135.652L641.486 106.152V93C626.406 98.6116 611.224 113.557 590.486 129.652Z" fill="#725FD5"/>
<path d="M590.486 129.652C556.986 155.652 331.986 262.152 275.486 308.152C219.835 353.461 77.8349 411.384 0 487.652H482.486C503.686 474.052 558.32 459.652 582.986 454.152C603.986 441.319 648.686 414.252 659.486 408.652C672.986 401.652 703.486 352.652 712.986 343.152C720.586 335.552 737.153 334.652 744.486 335.152C743.486 334.652 742.586 331.952 746.986 325.152C751.386 318.352 769.82 279.986 778.486 261.652C776.82 261.819 771.486 262.552 763.486 264.152C753.486 266.152 716.486 294.152 707.486 296.652C698.486 299.152 695.486 298.652 683.486 300.152C671.486 301.652 619.986 323.652 615.486 319.652C611.886 316.452 597.32 271.319 590.486 249.152L626.986 234.152C635.82 237.319 654.086 243.652 656.486 243.652C659.486 243.652 664.986 225.152 672.986 212.652C680.986 200.152 690.986 196.152 691.986 185.152C692.786 176.352 673.32 172.516 663.486 171.698C655.736 174.999 646.972 177.044 634.486 175.152C608.086 171.152 615.153 158.819 621.986 153.152L617.486 135.652L641.486 106.152V93C626.406 98.6116 611.224 113.557 590.486 129.652Z" fill="#503EA9"/>
<path d="M784 410.571L761 430.071L733.03 487.01L731 489.071L826 488.571L852.5 409.071L833.5 358.571C834 357.905 833.2 357.271 826 360.071C817 363.571 811.5 359.071 799.5 367.571C789.9 374.371 785.167 399.071 784 410.571Z" fill="#503EA9"/>
<path d="M874.062 366C864.896 366.333 844.362 365.5 835.562 359.5C834.908 359.053 834.356 358.552 833.897 358C833.619 359.5 831.862 363 827.062 365C821.062 367.5 805.062 373 799.562 382C794.062 391 791.562 427 792.062 435C792.463 441.4 802.896 447.333 808.062 449.5C806.729 454.167 804.262 465.3 805.062 472.5C805.863 479.7 809.396 486.166 811.062 488.5H882.062L864.062 459.5H856.562C849.562 458.333 840.162 452.5 858.562 438.5C876.963 424.5 876.562 384.333 874.062 366Z" fill="#9887F1"/>
<path d="M873 366C863.833 366.333 843.3 365.5 834.5 359.5C833.845 359.053 833.293 358.552 832.834 358C834.556 353.667 841.6 343.2 856 336C874 327 883.5 315.5 885.5 310.5C887.1 306.5 887.833 302.833 888 301.5L892 297C897.833 308.167 910.6 334.3 915 349.5C919.4 364.7 924.5 393.5 926.5 406L934.5 407C941.667 427.5 961.5 472.499 983.5 488.5H881L863 459.5H855.5C848.5 458.333 839.1 452.5 857.5 438.5C875.9 424.5 875.5 384.333 873 366Z" fill="#9887F1"/>
<path d="M1448.28 54.5001C1434.28 43.9998 1379.28 24 1353.28 21C1333.68 26.1999 1318.44 42.5 1313.28 50.0001C1310.78 55.0001 1310.78 70.5001 1324.28 81.5001C1335.08 90.3001 1350.44 92.5001 1356.78 92.5001C1357.78 93.8334 1360.28 97.1001 1362.28 99.5001C1364.78 102.5 1390.78 117 1401.28 125.5C1409.68 132.3 1414.78 145.667 1416.28 151.5C1410.61 147.667 1397.18 139.101 1388.78 135.501C1380.38 131.901 1363.94 134.001 1356.78 135.501C1358.28 136.001 1362.88 137.601 1369.28 140.001C1377.28 143.001 1394.28 160.501 1409.28 164.001C1424.28 167.501 1479.28 203.501 1489.78 219.001C1500.28 234.501 1490.78 245.501 1493.78 262.001C1496.18 275.201 1505.44 277.834 1509.78 277.501C1508.44 278.667 1505.78 286.801 1505.78 310.001C1505.78 339.001 1530.28 333.501 1532.78 339.501C1535.28 345.501 1558.28 353.501 1561.28 368.001C1564.28 382.501 1559.28 437.001 1561.28 440.501C1562.88 443.301 1606.94 468.001 1628.78 480.001L1646.28 474.001L1655.28 487.001L1782.78 487.241L1739.78 468.5C1759.44 464.667 1796.68 455.6 1788.28 450C1777.78 443 1688.28 416.5 1668.78 413C1649.28 409.5 1625.78 390.5 1632.28 382.5C1638.78 374.5 1668.78 376.5 1683.28 375C1697.78 373.5 1715.28 368.5 1702.28 346C1691.88 328 1643.61 311.5 1620.78 305.5L1632.28 275C1619.11 266.5 1591.78 247.5 1587.78 239.5C1582.78 229.5 1600.28 199.5 1602.28 187C1603.88 177 1618.61 164.5 1625.78 159.5C1607.78 157 1593.28 149.5 1580.28 135.5C1567.28 121.5 1503.78 81.5001 1497.28 79.0001C1490.78 76.5001 1462.28 65.0004 1448.28 54.5001Z" fill="white"/>
</g>
<defs>
<clipPath id="clip0_1973_1842">
<rect width="2500" height="486" fill="white"/>
</clipPath>
</defs>
</svg>
