<svg width="3600" height="2700" viewBox="0 0 3600 2700" fill="none" xmlns="http://www.w3.org/2000/svg">
<path d="M3600 2700L1797.12 1800V0H3600V2700Z" fill="url(#paint0_linear_1973_1847)"/>
<path d="M1797.12 1800L0 2700V0H1797.12V1800Z" fill="url(#paint1_linear_1973_1847)"/>
<rect x="3600" y="2700" width="94" height="2700" transform="rotate(-180 3600 2700)" fill="url(#paint2_linear_1973_1847)"/>
<rect x="3600" y="2700" width="94" height="2700" transform="rotate(-180 3600 2700)" fill="url(#paint3_linear_1973_1847)"/>
<rect width="94" height="2700" fill="url(#paint4_linear_1973_1847)"/>
<rect width="94" height="2700" fill="url(#paint5_linear_1973_1847)"/>
<defs>
<linearGradient id="paint0_linear_1973_1847" x1="1020.05" y1="1669.17" x2="2945.72" y2="1161.29" gradientUnits="userSpaceOnUse">
<stop offset="0.529832" stop-color="#C6FF73"/>
<stop offset="1" stop-color="#23F0C3"/>
</linearGradient>
<linearGradient id="paint1_linear_1973_1847" x1="1020.05" y1="1667.01" x2="2956.27" y2="1166.55" gradientUnits="userSpaceOnUse">
<stop offset="0.514206" stop-color="#C6FF73"/>
<stop offset="1" stop-color="#23F0C3"/>
</linearGradient>
<linearGradient id="paint2_linear_1973_1847" x1="3600" y1="3133.5" x2="3694" y2="3133.5" gradientUnits="userSpaceOnUse">
<stop stop-color="white"/>
<stop offset="1" stop-color="white" stop-opacity="0"/>
</linearGradient>
<linearGradient id="paint3_linear_1973_1847" x1="3600" y1="3133.5" x2="3694" y2="3133.5" gradientUnits="userSpaceOnUse">
<stop stop-color="white"/>
<stop offset="1" stop-color="white" stop-opacity="0"/>
</linearGradient>
<linearGradient id="paint4_linear_1973_1847" x1="-1.18777e-06" y1="433.5" x2="94" y2="433.5" gradientUnits="userSpaceOnUse">
<stop stop-color="white"/>
<stop offset="1" stop-color="white" stop-opacity="0"/>
</linearGradient>
<linearGradient id="paint5_linear_1973_1847" x1="-1.18777e-06" y1="433.5" x2="94" y2="433.5" gradientUnits="userSpaceOnUse">
<stop stop-color="white"/>
<stop offset="1" stop-color="white" stop-opacity="0"/>
</linearGradient>
</defs>
</svg>
