<svg width="360" height="555" viewBox="0 0 360 555" fill="none" xmlns="http://www.w3.org/2000/svg">
<g clip-path="url(#clip0_3168_1085)">
<path fill-rule="evenodd" clip-rule="evenodd" d="M172.391 0.389785C99.4629 7.62285 96.8948 116.317 169.364 128.48C172.648 129.031 173.688 129.321 173.763 129.704C173.818 129.98 173.554 135.461 173.177 141.884C172.8 148.307 172.326 160.936 172.123 169.948C171.92 178.96 171.682 186.386 171.594 186.451C171.507 186.515 170.322 187.118 168.962 187.79C166.414 189.051 163.064 191.819 161.716 193.776C160.961 194.874 160.961 194.874 156.322 195.027C148.997 195.268 144.533 197.07 140.479 201.423C139.355 202.63 138.326 203.485 138.189 203.325C138.053 203.166 133.826 196.899 128.796 189.399C123.767 181.899 118.056 173.452 116.106 170.63L112.56 165.498L114.641 163.177C153.445 119.892 99.1848 54.6986 53.0446 89.1704C7.11781 123.483 48.2805 195.458 101.086 173.174C101.303 173.082 105.226 178.02 110.365 184.854C115.261 191.366 121.376 199.394 123.955 202.695C126.533 205.995 128.861 209.027 129.127 209.431C129.673 210.261 129.849 210.14 126.895 210.957C118.705 213.222 110.984 220.065 109.453 226.416C109.253 227.25 108.923 227.936 108.722 227.942C94.8817 228.311 84.2907 238.66 84.1412 251.96C84.0903 256.484 84.0903 256.484 82.2052 257.61C65.0514 267.86 41.7788 302.246 40.1171 319.797C39.8714 322.392 39.9683 322.306 36.5738 322.89C28.9141 324.206 24.4396 326.99 19.7213 333.374C13.7463 341.461 13.1951 348.413 17.7512 358.229C19.2944 361.556 19.3792 360.966 16.8353 364.575C-10.065 402.724 -4.46113 447.492 31.7301 483.56C55.4002 507.15 88.6263 521.532 125.877 524.307C140.101 525.366 141.729 525.905 145.393 530.764C169.481 562.7 190.274 562.7 214.362 530.764C218.026 525.905 219.654 525.366 233.877 524.307C289.557 520.159 336.141 489.431 353.603 445.332C364.734 417.224 361.201 390.536 342.911 364.549C340.375 360.943 340.461 361.549 342.003 358.229C346.559 348.413 346.008 341.461 340.034 333.374C335.316 326.99 330.84 324.206 323.181 322.89C319.785 322.306 319.884 322.392 319.639 319.797C319.094 314.042 312.974 299.273 307.135 289.617C299.961 277.752 286.021 262.672 277.55 257.61C275.664 256.484 275.664 256.484 275.613 251.96C275.464 238.66 264.873 228.311 251.033 227.942C250.831 227.936 250.502 227.25 250.301 226.416C248.771 220.065 241.049 213.222 232.859 210.957C229.906 210.14 230.082 210.261 230.628 209.431C230.894 209.027 233.221 205.995 235.8 202.695C238.379 199.394 244.494 191.366 249.39 184.854C254.529 178.02 258.451 173.082 258.669 173.174C311.474 195.458 352.638 123.483 306.71 89.1704C260.57 54.6986 206.31 119.892 245.114 163.177L247.195 165.498L243.649 170.63C241.699 173.452 235.988 181.899 230.958 189.399C225.929 196.899 221.702 203.166 221.565 203.325C221.429 203.485 220.4 202.63 219.276 201.423C215.222 197.07 210.758 195.268 203.433 195.027C198.794 194.874 198.794 194.874 198.049 193.791C196.097 190.956 191.6 187.736 187.962 186.568C186.33 186.045 186.33 186.045 186.369 166.791C186.391 156.2 186.337 143.412 186.249 138.37L186.09 129.205L190.391 128.482C271.897 114.776 254.676 -7.77127 172.391 0.389785ZM170.387 16.2542C142.424 21.3398 124.047 47.37 129.063 72.8452C129.425 74.6824 129.908 76.5171 130.519 78.3406C145.13 121.997 214.625 121.997 229.236 78.3406C229.853 76.4971 230.341 74.6519 230.706 72.8119C237.108 40.5461 205.75 9.82306 170.387 16.2542ZM76.4968 96.1717C55.8459 100.016 43.6244 121.111 48.7166 138.999C49.6956 142.438 51.3147 145.758 53.6368 148.815C70.0656 170.439 99.648 168.257 111.836 144.523C112.903 142.446 113.719 140.33 114.301 138.2C120.46 115.684 100.563 91.692 76.4968 96.1717ZM272.157 96.1897C251.556 99.8949 240.88 120.134 245.48 138.17C247.018 144.197 250.261 149.978 255.41 154.813C270.223 168.723 293.043 166.024 306.118 148.815C308.442 145.755 310.054 142.481 311.033 139.117C317.384 117.302 297.136 91.6971 272.157 96.1897ZM176.411 196.871C166.33 198.662 163.074 208.054 168.438 219.877C170.035 223.397 170.035 223.397 172.486 223.423C174.687 223.446 175.188 223.576 177.407 224.704C179.877 225.961 179.877 225.961 182.348 224.704C184.567 223.576 185.067 223.446 187.269 223.423C189.72 223.397 189.72 223.397 191.315 219.877C197.895 205.36 190.746 194.325 176.411 196.871ZM150.552 206.164C142.292 208.381 139.909 218.471 145.149 229.042C147.318 233.418 146.888 233.075 149.513 232.529C151.215 232.176 152.154 232.139 153.32 232.379C157.149 233.163 156.679 233.291 158.302 231.027C159.109 229.902 160.45 228.409 161.283 227.709C162.798 226.436 162.798 226.436 161.799 224.884C159.072 220.653 157.925 216.589 157.667 210.251C157.473 205.479 156.08 204.68 150.552 206.164ZM202.089 210.212C201.83 216.592 200.689 220.644 197.956 224.884C196.957 226.436 196.957 226.436 198.472 227.709C199.305 228.409 200.646 229.902 201.452 231.027C203.075 233.291 202.606 233.163 206.435 232.379C207.601 232.139 208.54 232.176 210.241 232.529C212.867 233.075 212.437 233.418 214.606 229.042C220.729 216.686 216.726 206.247 205.69 205.794L202.275 205.654L202.089 210.212ZM127.948 218.599C115.604 221.814 111.217 236.69 119.56 247.04C121.548 249.506 121.414 249.464 123.404 248.267C126.494 246.409 129.977 245.81 134.04 246.441C135.512 246.67 135.512 246.67 135.885 245.196C136.511 242.718 138.355 239.485 140.355 237.356C142.258 235.332 142.258 235.332 140.962 233.615C138.134 229.869 135.619 222.709 135.595 218.338C135.593 217.924 129.776 218.123 127.948 218.599ZM224.159 218.338C224.136 222.709 221.621 229.869 218.793 233.615C217.497 235.332 217.497 235.332 219.399 237.356C221.4 239.485 223.243 242.718 223.87 245.196C224.243 246.67 224.243 246.67 225.715 246.441C229.778 245.81 233.261 246.409 236.351 248.267C238.34 249.464 238.206 249.506 240.195 247.04C247.148 238.415 245.075 224.669 236.167 220.329C232.342 218.465 224.166 217.11 224.159 218.338ZM167.525 233.474C158.854 237.492 158.067 247.29 165.516 258.491C167.806 261.935 167.806 261.935 168.699 260.534C173.445 253.084 186.31 253.084 191.056 260.534C192.347 262.56 197.544 254.835 198.864 248.927C201.221 238.382 190.887 227.656 185.045 234.585C183.802 236.058 182.276 238.765 181.673 240.563C180.505 244.046 179.249 244.046 178.082 240.563C177.148 237.778 175.18 234.775 173.383 233.395C172.105 232.413 169.745 232.445 167.525 233.474ZM105.966 235.614C90.2128 237.674 87.3347 260.215 101.594 269.854C104.63 271.907 113.293 275.525 113.293 274.741C113.293 274.693 113.007 273.537 112.656 272.173C111.162 266.357 112.722 259.037 116.434 254.453C117.429 253.224 117.429 253.224 114.93 250.596C111.228 246.703 109.223 242.517 108.671 237.525C108.411 235.17 108.558 235.274 105.966 235.614ZM251.388 235.673C251.326 235.863 251.123 237.053 250.937 238.316C250.198 243.323 248.422 246.857 244.691 250.745C242.32 253.215 242.32 253.215 243.318 254.449C247.032 259.037 248.593 266.355 247.099 272.173C246.748 273.537 246.461 274.693 246.461 274.741C246.461 275.525 255.125 271.907 258.161 269.854C270.794 261.314 270.574 242.723 257.771 236.78C255.66 235.8 251.576 235.092 251.388 235.673ZM149.485 239.703C139.465 241.139 137.422 257.512 145.89 268.512C146.623 269.463 147.319 270.382 147.438 270.554C147.565 270.738 148.149 270.524 148.871 270.028C152.953 267.226 157.892 266.617 165.352 267.997C165.599 268.043 166.951 264.692 166.735 264.568C158.622 259.901 153.993 251.618 154.459 242.604C154.595 239.991 154.595 239.991 153.457 239.801C152.832 239.696 152.105 239.571 151.842 239.522C151.579 239.474 150.519 239.555 149.485 239.703ZM207.753 239.528C207.578 239.575 206.923 239.699 206.298 239.803C205.16 239.991 205.16 239.991 205.295 242.604C205.762 251.618 201.133 259.901 193.02 264.568C192.804 264.692 194.156 268.043 194.403 267.997C201.863 266.617 206.802 267.226 210.884 270.028C211.606 270.524 212.19 270.738 212.317 270.554C212.435 270.382 213.131 269.463 213.864 268.512C220.089 260.427 220.846 246.725 215.336 241.897C213.631 240.403 209.404 239.083 207.753 239.528ZM129.16 252.796C116.879 256.087 116.019 272.981 127.581 283.796C135.938 291.613 127.776 289.78 118.674 281.796C116.206 279.631 116.206 279.631 114.325 279.827C106.644 280.626 94.8109 273.864 88.5017 265.07C87.0458 263.04 87.0458 263.04 86.1197 264.118C73.002 279.384 65.5356 293.052 57.0336 317.365C54.9293 323.384 54.9083 322.915 57.3021 323.368C98.1535 331.088 125.109 374.416 125.949 433.712C126.132 446.661 125.807 445.884 130.332 444.2C133.095 443.169 133.654 442.386 135.912 436.401C146.241 409.006 154.937 398.144 169.506 394.437C172.521 393.669 172.433 393.727 172.69 392.36C173.272 389.271 176.548 381.184 177.728 379.921C180.574 376.88 185.345 383.235 187.064 392.36C187.322 393.727 187.234 393.669 190.249 394.437C204.818 398.144 213.513 409.006 223.843 436.401C226.1 442.386 226.66 443.169 229.423 444.2C233.948 445.884 233.623 446.661 233.806 433.712C234.646 374.413 261.599 331.088 302.453 323.368C304.846 322.915 304.825 323.384 302.721 317.365C294.219 293.052 286.753 279.384 273.635 264.118C272.709 263.04 272.709 263.04 271.253 265.07C264.944 273.864 253.111 280.626 245.429 279.827C243.549 279.631 243.549 279.631 241.081 281.796C231.979 289.78 223.817 291.613 232.174 283.796C240.516 275.992 242.622 267.935 238.46 259.741C235.163 253.248 224.99 249.357 224.344 254.341C223.311 262.314 220.144 268.447 215.376 271.714C213.987 272.665 213.987 272.665 215.171 274.798C217.895 279.704 216.549 286.081 211.775 290.885C207.736 294.95 204.491 295.216 208.197 291.178C213.059 285.883 212.721 279.427 207.501 277.884C204.378 276.961 194.532 277.352 194.532 278.4C194.532 280.782 191.368 288.107 189.489 290.074C187.159 292.512 186.67 291.455 188.275 287.445C193.192 275.161 189.094 263.452 179.877 263.452C170.661 263.452 166.563 275.161 171.479 287.445C173.085 291.455 172.596 292.512 170.266 290.074C168.387 288.107 165.222 280.782 165.222 278.4C165.222 277.352 155.377 276.961 152.254 277.884C147.033 279.427 146.695 285.883 151.557 291.178C155.264 295.216 152.019 294.95 147.979 290.885C143.205 286.081 141.859 279.704 144.584 274.798C145.768 272.665 145.768 272.665 144.379 271.714C139.615 268.451 136.443 262.312 135.413 254.361C135.244 253.054 135.064 252.687 134.521 252.542C133.402 252.243 130.755 252.368 129.16 252.796ZM41.3404 331.306C22.5414 334.278 25.3689 354.892 46.9446 372.164C53.7936 377.647 53.9178 377.723 64.8685 383.34C105.238 404.046 115.842 416.77 115.842 444.511C115.842 446.417 117.202 447 119.107 445.909C119.451 445.713 119.396 432.443 119.023 425.352C117.271 392.052 103.869 360.924 84.658 345.537C71.9503 335.356 53.6836 329.356 41.3404 331.306ZM308.745 331.202C273.883 334.897 247.375 368.105 241.533 415.4C240.604 422.929 239.948 445.506 240.647 445.909C242.553 447 243.913 446.417 243.913 444.511C243.913 416.767 254.51 404.05 294.886 383.34C305.837 377.723 305.961 377.647 312.81 372.164C338.668 351.467 336.364 328.275 308.745 331.202ZM27.6846 373.578C13.0202 389.493 8.69865 422.361 18.1883 445.808C31.508 478.721 75.089 509.319 113.453 512.696C130.837 514.225 134.784 513.965 133.121 511.387C130.394 507.165 121.047 490.043 115.586 479.266C114.171 476.475 111.976 472.552 110.708 470.545C105.01 461.535 104.592 454.986 109.388 449.883C112.228 446.861 110.444 432.567 106.15 423.922C104.026 419.647 104.173 419.691 102.152 422.736C78.9095 457.758 31.4889 430.956 32.45 383.343C32.5969 376.078 32.5969 376.078 30.5851 374.47C28.2368 372.598 28.5117 372.681 27.6846 373.578ZM329.101 374.492C327.157 376.078 327.157 376.078 327.304 383.343C328.266 430.956 280.845 457.754 257.603 422.736C255.582 419.691 255.728 419.647 253.605 423.922C249.311 432.567 247.527 446.861 250.366 449.883C255.163 454.986 254.744 461.535 249.047 470.545C247.778 472.552 245.583 476.475 244.169 479.266C238.708 490.043 229.36 507.165 226.634 511.387C224.96 513.981 224.492 513.857 234.282 513.4C254.699 512.452 263.193 510.575 279.753 503.35C339.633 477.237 363.982 421.759 334.931 377.638C331.34 372.183 331.694 372.376 329.101 374.492ZM40.5143 382.141C37.4266 392.344 43.539 411.572 53.0044 421.435C55.9434 424.496 56.1199 424.515 54.9456 421.645C50.2264 410.101 51.9566 395.785 58.6207 391.24C59.8533 390.4 57.6026 388.988 48.9393 385.176C46.9243 384.288 44.3115 383.083 43.1331 382.496C40.5895 381.228 40.7829 381.256 40.5143 382.141ZM317.028 382.287C316.152 382.741 313.428 384.012 310.975 385.113C301.508 389.35 299.862 390.374 301.129 391.237C307.798 395.785 309.53 410.094 304.809 421.645C303.635 424.515 303.811 424.496 306.75 421.435C316.216 411.572 322.327 392.344 319.24 382.141C318.976 381.269 318.989 381.269 317.028 382.287ZM176.107 401.744C163.916 403.916 152.506 417.068 143.658 439.148C139.222 450.219 136.915 451.821 122.214 454.047C112.54 455.512 111.902 457.859 118.55 467.516C123.357 474.5 129.229 484.147 135.43 495.247C146.513 515.091 150.603 521.671 156.239 528.741C175.677 553.126 192.291 549.127 212.902 515.103C216.96 508.405 217.467 507.524 224.325 495.247C230.526 484.147 236.397 474.5 241.204 467.516C247.853 457.859 247.215 455.512 237.541 454.047C222.84 451.821 220.533 450.219 216.097 439.148C205.43 412.53 191.05 399.08 176.107 401.744ZM143.719 454.237C140.741 455.782 139.668 458.747 141.054 461.598C142.153 463.856 145.179 464.982 147.042 463.825C147.554 463.507 147.942 463.625 149.507 464.579C155.104 467.986 157.237 467.326 155.497 462.724C152.843 455.703 147.84 452.1 143.719 454.237ZM210.559 454.38C207.143 456.109 202.775 463.495 203.847 465.734C204.622 467.351 206.144 467.079 210.248 464.579C211.813 463.625 212.2 463.507 212.713 463.825C214.575 464.982 217.602 463.856 218.701 461.598C221.075 456.717 215.575 451.84 210.559 454.38Z" fill="#340707"/>
<path d="M207.753 239.528C207.578 239.575 206.922 239.699 206.297 239.802C205.16 239.991 205.16 239.991 205.295 242.603C205.761 251.618 201.132 259.901 193.019 264.568C192.803 264.692 194.155 268.043 194.403 267.997C201.863 266.617 206.802 267.225 210.883 270.028C211.605 270.524 212.189 270.738 212.317 270.554C212.435 270.382 213.131 269.463 213.864 268.512C220.088 260.427 220.846 246.725 215.335 241.897C213.63 240.403 209.404 239.083 207.753 239.528Z" fill="#2430F0"/>
<path d="M251.389 235.673C251.327 235.863 251.124 237.053 250.938 238.316C250.199 243.323 248.423 246.857 244.692 250.745C242.32 253.215 242.32 253.215 243.318 254.449C247.033 259.037 248.594 266.355 247.099 272.173C246.749 273.537 246.462 274.693 246.462 274.741C246.462 275.525 255.126 271.907 258.162 269.854C270.794 261.314 270.575 242.723 257.772 236.78C255.66 235.8 251.577 235.092 251.389 235.673Z" fill="#2430F0"/>
<path d="M224.16 218.338C224.136 222.709 221.622 229.869 218.794 233.615C217.498 235.332 217.498 235.332 219.4 237.356C221.4 239.485 223.244 242.718 223.871 245.195C224.244 246.67 224.244 246.67 225.716 246.441C229.778 245.81 233.262 246.409 236.352 248.267C238.341 249.464 238.207 249.506 240.196 247.04C247.148 238.415 245.076 224.669 236.168 220.329C232.343 218.465 224.167 217.11 224.16 218.338Z" fill="#2430F0"/>
<path d="M202.09 210.212C201.831 216.592 200.689 220.644 197.957 224.884C196.957 226.436 196.957 226.436 198.472 227.709C199.305 228.408 200.647 229.902 201.453 231.027C203.076 233.291 202.607 233.163 206.435 232.378C207.602 232.139 208.541 232.176 210.242 232.529C212.868 233.075 212.438 233.418 214.607 229.042C220.73 216.686 216.727 206.247 205.69 205.794L202.276 205.654L202.09 210.212Z" fill="#2430F0"/>
<path d="M176.413 196.871C166.331 198.662 163.075 208.054 168.439 219.877C170.036 223.397 170.036 223.397 172.487 223.423C174.688 223.446 175.189 223.576 177.408 224.704C179.878 225.961 179.878 225.961 182.349 224.704C184.568 223.576 185.068 223.446 187.27 223.423C189.721 223.397 189.721 223.397 191.317 219.877C197.896 205.36 190.747 194.325 176.413 196.871Z" fill="#2430F0"/>
<path d="M167.525 233.474C158.854 237.492 158.067 247.29 165.515 258.491C167.806 261.935 167.806 261.935 168.698 260.534C173.445 253.084 186.309 253.084 191.055 260.534C192.346 262.56 197.544 254.835 198.864 248.927C201.221 238.382 190.887 227.656 185.045 234.585C183.802 236.058 182.275 238.765 181.672 240.563C180.505 244.046 179.249 244.046 178.081 240.563C177.148 237.778 175.179 234.775 173.383 233.395C172.105 232.413 169.744 232.445 167.525 233.474Z" fill="#2430F0"/>
<path d="M149.485 239.703C139.464 241.139 137.421 257.512 145.89 268.512C146.623 269.463 147.319 270.382 147.437 270.554C147.564 270.738 148.148 270.524 148.871 270.028C152.952 267.225 157.891 266.617 165.351 267.997C165.599 268.043 166.95 264.692 166.734 264.568C158.622 259.901 153.992 251.618 154.459 242.603C154.594 239.991 154.594 239.991 153.457 239.801C152.831 239.696 152.104 239.571 151.841 239.522C151.579 239.474 150.518 239.555 149.485 239.703Z" fill="#2430F0"/>
<path d="M127.948 218.599C115.604 221.815 111.217 236.69 119.56 247.04C121.549 249.506 121.414 249.464 123.404 248.267C126.494 246.409 129.977 245.81 134.04 246.441C135.512 246.67 135.512 246.67 135.885 245.196C136.512 242.718 138.355 239.485 140.356 237.356C142.258 235.332 142.258 235.332 140.962 233.615C138.134 229.869 135.619 222.709 135.596 218.338C135.593 217.924 129.776 218.123 127.948 218.599Z" fill="#2430F0"/>
<path d="M150.551 206.164C142.291 208.381 139.908 218.471 145.148 229.042C147.317 233.418 146.886 233.075 149.512 232.529C151.213 232.176 152.153 232.139 153.319 232.379C157.147 233.163 156.678 233.291 158.301 231.027C159.107 229.902 160.449 228.409 161.282 227.709C162.797 226.436 162.797 226.436 161.797 224.884C159.071 220.653 157.923 216.589 157.665 210.251C157.471 205.479 156.079 204.68 150.551 206.164Z" fill="#2430F0"/>
<path d="M105.967 235.614C90.2141 237.674 87.336 260.215 101.595 269.854C104.631 271.907 113.295 275.525 113.295 274.741C113.295 274.693 113.008 273.537 112.657 272.173C111.163 266.357 112.724 259.037 116.435 254.453C117.43 253.224 117.43 253.224 114.931 250.596C111.229 246.703 109.225 242.517 108.673 237.525C108.412 235.17 108.56 235.274 105.967 235.614Z" fill="#2430F0"/>
<path d="M308.746 331.202C273.884 334.896 247.377 368.104 241.535 415.4C240.605 422.929 239.949 445.506 240.649 445.909C242.554 447 243.914 446.417 243.914 444.511C243.914 416.767 254.511 404.049 294.887 383.34C305.838 377.723 305.962 377.647 312.811 372.164C338.669 351.467 336.366 328.275 308.746 331.202Z" fill="#2BE1B7"/>
<path d="M329.102 374.492C327.159 376.078 327.159 376.078 327.305 383.343C328.267 430.956 280.846 457.754 257.604 422.736C255.583 419.691 255.73 419.647 253.606 423.922C249.312 432.567 247.528 446.861 250.368 449.883C255.164 454.986 254.746 461.535 249.048 470.545C247.78 472.552 245.585 476.475 244.17 479.266C238.709 490.043 229.362 507.165 226.635 511.387C224.962 513.981 224.493 513.857 234.284 513.4C254.701 512.452 263.194 510.575 279.755 503.35C339.634 477.237 363.984 421.759 334.932 377.638C331.342 372.183 331.695 372.376 329.102 374.492Z" fill="#2BE1B7"/>
<path d="M27.6856 373.578C13.0212 389.493 8.69963 422.361 18.1893 445.808C31.509 478.721 75.09 509.319 113.454 512.696C130.838 514.225 134.785 513.965 133.122 511.387C130.395 507.165 121.048 490.043 115.587 479.266C114.172 476.475 111.977 472.552 110.709 470.545C105.011 461.535 104.593 454.986 109.389 449.883C112.229 446.861 110.445 432.567 106.151 423.922C104.027 419.647 104.174 419.691 102.153 422.736C78.9104 457.758 31.4899 430.956 32.451 383.343C32.5979 376.077 32.5979 376.078 30.586 374.47C28.2378 372.598 28.5127 372.681 27.6856 373.578Z" fill="#2BE1B7"/>
<path d="M41.339 331.306C22.54 334.278 25.3675 354.892 46.9432 372.164C53.7922 377.647 53.9164 377.723 64.8671 383.34C105.236 404.046 115.841 416.77 115.841 444.511C115.841 446.417 117.2 447 119.106 445.909C119.449 445.713 119.395 432.443 119.022 425.352C117.269 392.052 103.868 360.924 84.6566 345.537C71.9489 335.356 53.6822 329.356 41.339 331.306Z" fill="#2BE1B7"/>
<path d="M129.16 252.796C116.88 256.087 116.02 272.981 127.582 283.796C135.939 291.613 127.777 289.78 118.675 281.796C116.207 279.631 116.207 279.631 114.326 279.827C106.644 280.626 94.8116 273.864 88.5024 265.07C87.0465 263.04 87.0465 263.04 86.1203 264.118C73.0026 279.384 65.5363 293.052 57.0342 317.365C54.93 323.384 54.909 322.915 57.3028 323.368C98.1542 331.088 125.11 374.416 125.949 433.712C126.133 446.661 125.808 445.884 130.332 444.2C133.095 443.169 133.655 442.386 135.912 436.401C146.242 409.006 154.938 398.144 169.507 394.437C172.522 393.669 172.433 393.727 172.691 392.36C173.273 389.271 176.549 381.183 177.729 379.921C180.575 376.88 185.346 383.235 187.065 392.36C187.323 393.727 187.234 393.669 190.249 394.437C204.818 398.144 213.514 409.006 223.844 436.401C226.101 442.386 226.661 443.169 229.424 444.2C233.948 445.884 233.623 446.661 233.807 433.712C234.646 374.413 261.599 331.088 302.453 323.368C304.847 322.915 304.826 323.384 302.722 317.365C294.22 293.052 286.753 279.384 273.636 264.118C272.71 263.04 272.71 263.04 271.254 265.07C264.944 273.864 253.112 280.626 245.43 279.827C243.549 279.631 243.549 279.631 241.082 281.796C231.979 289.78 223.817 291.613 232.174 283.796C240.517 275.992 242.623 267.935 238.461 259.741C235.164 253.248 224.991 249.357 224.345 254.341C223.312 262.314 220.145 268.447 215.377 271.714C213.988 272.665 213.988 272.665 215.172 274.798C217.896 279.704 216.55 286.081 211.776 290.885C207.737 294.95 204.492 295.216 208.198 291.178C213.06 285.883 212.722 279.427 207.502 277.884C204.378 276.961 194.533 277.352 194.533 278.4C194.533 280.782 191.368 288.107 189.489 290.074C187.159 292.512 186.671 291.455 188.276 287.445C193.193 275.161 189.094 263.452 179.878 263.452C170.662 263.452 166.563 275.161 171.48 287.445C173.085 291.455 172.597 292.512 170.267 290.074C168.388 288.107 165.223 280.782 165.223 278.4C165.223 277.352 155.378 276.961 152.255 277.884C147.034 279.427 146.696 285.883 151.558 291.178C155.265 295.216 152.019 294.95 147.98 290.885C143.206 286.081 141.86 279.704 144.584 274.798C145.769 272.665 145.769 272.665 144.379 271.714C139.616 268.451 136.444 262.312 135.414 254.361C135.244 253.054 135.064 252.687 134.522 252.542C133.403 252.243 130.756 252.368 129.16 252.796Z" fill="#2430F0"/>
<path fill-rule="evenodd" clip-rule="evenodd" d="M176.105 401.744C163.914 403.916 152.504 417.068 143.656 439.148C139.22 450.219 136.913 451.821 122.212 454.047C112.538 455.512 111.9 457.859 118.548 467.516C123.356 474.5 129.227 484.147 135.428 495.247C146.511 515.091 150.601 521.671 156.237 528.741C175.675 553.126 192.289 549.126 212.9 515.103C216.958 508.405 217.465 507.524 224.323 495.247C230.524 484.147 236.396 474.5 241.203 467.516C247.851 457.859 247.213 455.512 237.539 454.047C222.838 451.821 220.531 450.219 216.095 439.148C205.428 412.53 191.048 399.08 176.105 401.744ZM141.052 461.598C139.666 458.747 140.739 455.782 143.717 454.237C147.838 452.1 152.841 455.703 155.496 462.724C157.236 467.326 155.102 467.985 149.505 464.579C147.94 463.625 147.553 463.507 147.04 463.825C145.178 464.982 142.151 463.856 141.052 461.598ZM203.845 465.734C202.773 463.495 207.142 456.108 210.557 454.38C215.573 451.84 221.073 456.717 218.699 461.598C217.6 463.856 214.573 464.982 212.711 463.825C212.198 463.507 211.811 463.625 210.246 464.579C206.142 467.078 204.621 467.351 203.845 465.734Z" fill="#F2C79C"/>
<path fill-rule="evenodd" clip-rule="evenodd" d="M114.299 138.2C110.06 122.3 96.8554 109.776 78.9144 113.116C64.6781 115.766 52.0284 126.655 48.7148 138.999C49.6939 142.438 51.3129 145.758 53.6351 148.815C70.0638 170.439 99.6462 168.257 111.835 144.523C112.902 142.446 113.717 140.33 114.299 138.2Z" fill="#2430F0"/>
<path fill-rule="evenodd" clip-rule="evenodd" d="M130.518 78.3406C129.908 76.517 129.424 74.6824 129.062 72.8452C132.773 53.7303 151.116 37.1431 172.806 33.1982C201.835 27.919 225.746 47.7167 230.705 72.8119C230.34 74.6519 229.852 76.4971 229.235 78.3406C214.624 121.997 145.129 121.997 130.518 78.3406Z" fill="#2430F0"/>
<path d="M272.157 96.1898C251.556 99.895 240.88 120.134 245.48 138.17C248.523 126.082 260.414 115.681 274.576 113.134C293.139 109.795 306.671 123.119 311.033 139.117C317.384 117.302 297.135 91.6971 272.157 96.1898Z" fill="#2430F0"/>
<path d="M129.063 72.8451C132.774 53.7303 151.116 37.1431 172.806 33.1982C201.835 27.919 225.746 47.7167 230.706 72.8118C237.108 40.5461 205.75 9.82303 170.387 16.2542C142.424 21.3397 124.047 47.37 129.063 72.8451Z" fill="#2430F0"/>
<path d="M78.9153 113.116C96.8564 109.776 110.061 122.3 114.3 138.2C120.459 115.684 100.562 91.692 76.496 96.1717C55.845 100.016 43.6235 121.111 48.7158 138.999C52.0294 126.655 64.6791 115.766 78.9153 113.116Z" fill="#2430F0"/>
<path d="M255.411 154.813C270.223 168.723 293.043 166.024 306.118 148.815C308.443 145.755 310.054 142.481 311.034 139.117C306.672 123.119 293.14 109.795 274.576 113.134C260.415 115.681 248.523 126.082 245.48 138.17C247.018 144.197 250.261 149.978 255.411 154.813Z" fill="#2430F0"/>
<path fill-rule="evenodd" clip-rule="evenodd" d="M136.763 55.623C144.867 44.4193 158.075 35.8825 172.833 33.1982C194.918 29.1818 214.041 39.6803 224.11 55.9836C226.03 54.0608 227.785 52.1066 229.235 50.1923C221.745 27.8667 197.231 11.3772 170.414 16.2542C151.887 19.6237 137.567 32.1878 131.473 47.6929C132.791 50.223 134.653 52.9378 136.763 55.623Z" fill="#F2C79C"/>
<path d="M136.766 55.623C143.96 64.7821 154.033 73.6015 155.247 73.6015C156.165 73.6015 161.244 68.6906 166.519 63.5909C172.216 58.0822 178.142 52.353 179.3 52.353C180.415 52.353 185.194 57.6651 189.972 62.9773C194.751 68.2894 199.53 73.6015 200.645 73.6015C202.067 73.6015 214.961 65.15 224.113 55.9836C214.044 39.6803 194.921 29.1818 172.836 33.1982C158.078 35.8825 144.869 44.4193 136.766 55.623Z" fill="#2BE1B7"/>
<path d="M48.887 138.105C52.5571 126.132 64.9379 115.702 78.8292 113.116C89.4514 111.139 98.4135 114.722 104.837 121.274C106.031 116.882 106.895 111.636 106.794 107.232C99.5836 98.8769 88.5249 93.9164 76.4098 96.1716C56.2466 99.925 44.1194 120.125 48.298 137.727C48.4917 137.854 48.6882 137.98 48.887 138.105Z" fill="#2BE1B7"/>
<path d="M48.8867 138.105C56.699 143.016 67.3499 145.161 70.156 143.532C72.3285 142.27 73.3339 135.908 73.5706 129.356C73.7503 124.376 73.9115 119.918 74.8743 119.096C75.9383 118.188 81.1007 121.143 86.5711 124.275C92.5659 127.706 99.338 130.699 101.087 129.704C102.337 128.993 103.569 125.94 104.837 121.274C98.4132 114.722 89.4511 111.139 78.8288 113.116C64.9376 115.702 52.5568 126.132 48.8867 138.105Z" fill="#2BE1B7"/>
<path fill-rule="evenodd" clip-rule="evenodd" d="M247.851 115.464C248.329 118.953 258.364 137.664 261.072 138.299C262.538 138.642 267.555 135.08 272.15 131.816C276.041 129.053 279.629 126.505 280.506 126.723C281.305 126.922 282.828 129.311 284.609 132.104C287.089 135.993 290.068 140.666 292.293 141.312C295.174 142.148 306.651 136.14 312.267 132.11C313.134 112.224 294.58 92.1722 272.242 96.1898C260.577 98.2877 252.095 105.687 247.766 114.985C247.798 115.131 247.827 115.291 247.851 115.464Z" fill="#2BE1B7"/>
<path d="M317.026 382.287C316.15 382.741 313.426 384.012 310.973 385.113C301.506 389.35 299.861 390.374 301.127 391.237C307.796 395.785 309.528 410.094 304.807 421.645C303.633 424.515 303.809 424.496 306.748 421.435C316.214 411.572 322.326 392.344 319.238 382.141C318.974 381.269 318.987 381.269 317.026 382.287Z" fill="#F1F1F1"/>
<path d="M40.5144 382.141C37.4266 392.344 43.539 411.572 53.0045 421.435C55.9434 424.496 56.1199 424.515 54.9456 421.645C50.2264 410.101 51.9566 395.785 58.6208 391.24C59.8534 390.4 57.6026 388.988 48.9393 385.176C46.9243 384.288 44.3116 383.083 43.1331 382.497C40.5895 381.228 40.7829 381.256 40.5144 382.141Z" fill="#F1F1F1"/>
<path d="M296.282 411.201C296.282 410.148 295.355 409.298 294.211 409.298C293.068 409.298 292.141 410.148 292.141 411.201C292.141 412.251 293.068 413.104 294.211 413.104C295.355 413.104 296.282 412.251 296.282 411.201Z" fill="#F1F1F1"/>
<path opacity="0.2" fill-rule="evenodd" clip-rule="evenodd" d="M227.869 81.9399C210.144 101.592 174.914 112.407 134.66 87.3802C154.565 120.704 212.054 118.891 227.869 81.9399ZM106.757 152.126C88.1002 159.895 62.769 151.942 50.3945 143.471C51.2636 145.318 52.3414 147.107 53.6384 148.815C68.0976 167.846 92.7461 168.438 106.757 152.126ZM309.004 144.234C298.277 154.276 276.557 161.414 251.188 150.093C252.419 151.743 253.825 153.323 255.412 154.813C270.225 168.723 293.045 166.024 306.119 148.815C307.245 147.333 308.203 145.802 309.004 144.234Z" fill="black"/>
<path d="M129.063 72.8452C132.774 53.7304 151.116 37.1432 172.806 33.1985C201.835 27.9191 225.746 47.7167 230.706 72.8119C237.108 40.5464 205.75 9.82314 170.387 16.2543C142.424 21.3398 124.047 47.3704 129.063 72.8452Z" fill="#2430F0"/>
<path fill-rule="evenodd" clip-rule="evenodd" d="M136.763 55.6231C144.867 44.4194 158.075 35.8825 172.833 33.1985C194.918 29.182 214.041 39.6803 224.11 55.9837C226.03 54.0608 227.785 52.1069 229.235 50.1926C221.745 27.8668 197.231 11.3773 170.414 16.2543C151.887 19.6238 137.567 32.1878 131.473 47.6929C132.791 50.2231 134.653 52.9378 136.763 55.6231Z" fill="#2BE1B7"/>
<g opacity="0.2">
<g style="mix-blend-mode:hard-light">
<path fill-rule="evenodd" clip-rule="evenodd" d="M192.651 203.749C190.322 198.333 184.515 195.432 176.411 196.871C171.626 197.721 168.378 200.285 166.861 204.008C170.054 201.383 175.705 200.525 179.921 200.436C183.995 200.522 189.409 201.326 192.651 203.749ZM157.172 207.177C153.225 207.78 146.016 209.692 142.884 214.09C143.928 210.16 146.55 207.238 150.552 206.164C154.558 205.088 156.392 205.212 157.172 207.177ZM135.643 219.381C135.613 219.019 135.597 218.671 135.595 218.338C135.593 217.924 129.775 218.123 127.948 218.599C121.692 220.228 117.48 224.853 115.933 230.365C120.117 224.477 127.907 219.566 135.643 219.381ZM92.3867 251.466C94.2358 245.205 101.125 238.674 106.726 238.674C107.518 238.674 108.208 238.631 108.807 238.553C108.755 238.214 108.71 237.871 108.671 237.525C108.658 237.409 108.647 237.298 108.635 237.194C108.536 236.269 108.484 235.793 108.219 235.579C107.937 235.351 107.413 235.421 106.33 235.565C106.215 235.581 106.094 235.597 105.966 235.614C97.5124 236.72 92.7665 243.723 92.3867 251.466ZM176.383 236.969C173.133 234.457 168.326 233.464 161.575 239.086C162.715 236.703 164.702 234.782 167.525 233.474C169.745 232.445 172.105 232.413 173.383 233.395C174.401 234.177 175.474 235.48 176.383 236.969ZM197.276 238.297C194.361 232.946 188.784 230.151 185.045 234.585C184.5 235.231 183.9 236.115 183.347 237.056C186.438 234.607 190.967 233.509 197.276 238.297ZM154.512 241.472C154.561 239.985 154.399 239.958 153.457 239.801C152.832 239.696 152.105 239.571 151.842 239.522C151.579 239.474 150.518 239.555 149.485 239.703C144.563 240.408 141.566 244.718 140.794 250.223C142.742 243.924 150.087 240.982 154.512 241.472ZM224.527 253.618C226.057 249.78 235.339 253.595 238.46 259.741C239.328 261.449 239.923 263.152 240.246 264.847C237.854 258.154 230.322 255.087 224.527 253.618ZM194.524 278.62C194.53 278.543 194.532 278.469 194.532 278.4C194.532 277.353 204.378 276.961 207.501 277.884C208.981 278.321 210.068 279.153 210.756 280.242C207.768 277.616 201.267 278.104 194.524 278.62ZM171.896 267.772C173.707 265.086 176.435 263.452 179.877 263.452C183.254 263.452 185.944 265.025 187.755 267.621C185.499 265.868 182.409 264.968 179.921 264.735C177.361 264.975 174.166 265.92 171.896 267.772ZM148.889 280.424C149.568 279.246 150.693 278.346 152.254 277.884C155.377 276.961 165.222 277.353 165.222 278.4C165.222 278.467 165.225 278.538 165.23 278.613C158.367 278.088 151.769 277.606 148.889 280.424ZM135.295 253.622C129.369 255.128 121.638 258.303 119.438 265.313C119.794 259.397 123.075 254.427 129.16 252.796C130.755 252.368 133.402 252.243 134.521 252.542C134.943 252.655 135.146 252.902 135.295 253.622ZM216.955 214.087C215.609 209.237 211.688 206.04 205.69 205.794L202.275 205.654L202.215 207.111C206.037 207.632 213.697 209.517 216.955 214.087ZM243.725 230.11C242.613 225.87 240.034 222.213 236.167 220.329C232.342 218.465 224.166 217.11 224.159 218.338C224.158 218.67 224.141 219.018 224.112 219.379C231.764 219.527 239.483 224.314 243.725 230.11ZM267.479 251.551C265.668 245.265 258.741 238.674 253.115 238.674C252.265 238.674 251.533 238.624 250.904 238.536C250.915 238.463 250.926 238.39 250.937 238.316C251.123 237.053 251.326 235.863 251.388 235.673C251.576 235.092 255.659 235.8 257.771 236.78C263.91 239.63 267.156 245.388 267.479 251.551ZM218.862 249.677C218.442 246.404 217.278 243.599 215.336 241.897C213.631 240.403 209.404 239.083 207.753 239.528C207.578 239.575 206.923 239.699 206.297 239.802C205.354 239.959 205.193 239.985 205.243 241.482C209.529 240.959 216.655 243.714 218.862 249.677Z" fill="white"/>
</g>
</g>
<g style="mix-blend-mode:hard-light">
<path fill-rule="evenodd" clip-rule="evenodd" d="M325.612 334.037C313.059 333.098 298.419 337.24 287.841 343.808C273.027 353.005 250.248 377.425 245.469 401.052C244.148 407.586 243.156 409.723 242.422 409.254C249.72 365.244 275.414 334.735 308.745 331.202C316.262 330.406 321.904 331.544 325.612 334.037Z" fill="white" fill-opacity="0.4"/>
</g>
<g style="mix-blend-mode:hard-light">
<path fill-rule="evenodd" clip-rule="evenodd" d="M33.4922 334.338C46.3706 332.921 61.7837 337.129 72.7959 343.967C87.6101 353.164 110.389 377.584 115.168 401.211C115.917 404.915 116.56 407.205 117.111 408.41C112.482 381.799 100.56 358.276 84.6577 345.537C71.9501 335.356 53.6834 329.356 41.3402 331.306C38.0779 331.823 35.4671 332.87 33.4922 334.338Z" fill="white" fill-opacity="0.4"/>
</g>
<g style="mix-blend-mode:hard-light">
<path fill-rule="evenodd" clip-rule="evenodd" d="M148.465 428.514C158.882 417.109 172.229 415.165 179.363 415.165C186.775 415.165 201.465 417.547 212.071 430.077C201.945 409.514 189.244 399.4 176.107 401.744C166.022 403.542 156.472 412.85 148.465 428.514Z" fill="white" fill-opacity="0.4"/>
</g>
<path opacity="0.2" fill-rule="evenodd" clip-rule="evenodd" d="M320.051 388.284C315.287 390.33 309.953 392.407 304.193 394.488C303.331 393.146 302.308 392.039 301.131 391.237C299.865 390.374 301.51 389.35 310.977 385.113C313.43 384.012 316.154 382.741 317.03 382.287L317.064 382.268C318.279 381.637 318.723 381.406 318.952 381.542C319.083 381.618 319.143 381.815 319.239 382.129L319.242 382.141C319.787 383.943 320.045 386.023 320.051 388.284ZM39.7148 387.764C44.5286 389.934 49.8977 392.131 55.6718 394.326C56.5096 393.057 57.4957 392.008 58.6231 391.24C59.8557 390.4 57.6049 388.988 48.9417 385.176C46.9266 384.288 44.3139 383.083 43.1355 382.496C42.9714 382.414 42.8191 382.338 42.677 382.268C41.3947 381.628 40.9688 381.412 40.77 381.545C40.6709 381.608 40.6282 381.758 40.5639 381.983C40.5495 382.03 40.5342 382.084 40.5167 382.141C40.014 383.803 39.755 385.706 39.7148 387.764Z" fill="black"/>
<path opacity="0.2" fill-rule="evenodd" clip-rule="evenodd" d="M108.601 466.853C107.584 477.734 111.332 489.903 113.061 495.52C113.356 496.474 113.592 497.242 113.736 497.781C114.97 502.389 101.555 509.677 52.3477 487.35C70.5162 501.117 92.7451 510.873 113.454 512.696C130.838 514.225 134.785 513.965 133.122 511.386C130.395 507.165 121.048 490.043 115.587 479.266C114.172 476.475 111.977 472.552 110.709 470.545C109.9 469.267 109.197 468.036 108.601 466.853Z" fill="black"/>
<path opacity="0.2" fill-rule="evenodd" clip-rule="evenodd" d="M307.711 487.252C258.327 509.696 244.871 502.395 246.107 497.781C246.252 497.242 246.488 496.478 246.782 495.52C248.519 489.878 252.293 477.623 251.229 466.707C250.617 467.935 249.89 469.213 249.048 470.545C247.78 472.552 245.585 476.475 244.17 479.266C238.709 490.043 229.362 507.165 226.635 511.386C226.028 512.328 225.58 512.909 225.722 513.248C225.97 513.848 228.042 513.692 234.284 513.4C254.701 512.452 263.194 510.575 279.755 503.35C290.182 498.802 299.532 493.366 307.711 487.252Z" fill="black"/>
<path opacity="0.2" fill-rule="evenodd" clip-rule="evenodd" d="M132.645 490.319C143.41 507.651 147.773 513.889 153.658 520.558C175.189 544.962 193.591 540.96 216.42 506.908C220.695 500.534 221.412 499.424 228.008 488.758C226.797 490.855 225.568 493.024 224.325 495.247C217.467 507.524 216.96 508.405 212.902 515.103C192.291 549.126 175.677 553.126 156.239 528.74C150.603 521.671 146.513 515.091 135.43 495.247C134.493 493.569 133.564 491.927 132.645 490.319Z" fill="black"/>
<path d="M179.683 371.241C175.701 371.241 170.603 399.467 168.373 399.467L163.754 403.748L179.683 399.467L198.002 404.858C196.037 403.06 191.821 399.467 190.674 399.467C189.241 399.467 183.665 371.241 179.683 371.241Z" fill="black" fill-opacity="0.2"/>
<path d="M153.24 295.443C151.01 295.443 143.523 290.21 143.523 282.44C144.585 280.484 146.709 277.429 146.709 280.854C146.709 285.136 151.488 290.686 152.762 291.954C154.037 293.223 155.47 295.443 153.24 295.443Z" fill="black" fill-opacity="0.2"/>
<path d="M110.549 282.44C101.47 282.44 89.682 270.547 83.6289 262.46L87.2926 259.289L95.5758 271.182L114.372 276.732L118.036 270.706C118.939 272.08 121.063 275.4 122.337 277.683C123.93 280.537 128.071 282.757 131.417 287.514C134.762 292.272 122.018 286.404 120.425 285.612C119.151 284.977 116.39 283.022 115.169 282.123C115.169 282.229 114.245 282.44 110.549 282.44Z" fill="black" fill-opacity="0.2"/>
<path d="M139.062 268.01C135.398 263.412 136.672 258.02 136.035 253.422L146.389 272.133L145.593 273.56L145.572 273.549C144.548 273.013 141.973 271.664 139.062 268.01Z" fill="black" fill-opacity="0.2"/>
<path d="M171.715 292.589C168.37 291.796 165.344 284.026 165.344 278.159L168.53 276.732L170.6 284.977C171.238 287.515 175.061 293.382 171.715 292.589Z" fill="black" fill-opacity="0.2"/>
<path d="M206.282 295.443C208.512 295.443 215.999 290.21 215.999 282.44C214.937 280.484 212.813 277.429 212.813 280.854C212.813 285.136 208.034 290.686 206.76 291.954C205.486 293.223 204.052 295.443 206.282 295.443Z" fill="black" fill-opacity="0.2"/>
<path d="M248.975 282.44C258.055 282.44 269.842 270.547 275.896 262.46L272.232 259.289L263.949 271.182L245.152 276.732L241.489 270.706C240.586 272.08 238.462 275.4 237.188 277.683C235.595 280.537 231.453 282.757 228.108 287.514C224.763 292.272 237.506 286.404 239.099 285.612C240.373 284.977 243.135 283.021 244.356 282.123C244.356 282.229 245.28 282.44 248.975 282.44Z" fill="black" fill-opacity="0.2"/>
<path d="M220.46 268.01C224.124 263.412 222.85 258.02 223.487 253.422L213.133 272.133L213.929 273.56L213.95 273.549C214.974 273.013 217.549 271.664 220.46 268.01Z" fill="black" fill-opacity="0.2"/>
<path d="M187.646 292.747C190.991 291.954 194.177 284.026 194.177 278.159L190.991 276.732L188.92 284.977C188.283 287.514 184.301 293.54 187.646 292.747Z" fill="black" fill-opacity="0.2"/>
<path opacity="0.2" d="M141.992 462.578C140.877 462.578 144.381 460.834 143.266 457.821C145.921 456.711 150.084 457.853 153.142 460.517C156.965 463.847 156.965 472.092 156.806 475.581C156.646 479.07 143.107 462.578 141.992 462.578Z" fill="black"/>
<path opacity="0.2" d="M217.543 462.683C218.658 462.683 215.154 460.939 216.269 457.926C213.614 456.816 209.451 457.957 206.393 460.621C202.57 463.951 202.57 472.197 202.729 475.686C202.888 479.174 216.428 462.683 217.543 462.683Z" fill="black"/>
<path opacity="0.2" fill-rule="evenodd" clip-rule="evenodd" d="M72.9458 382.106C92.3351 393.654 111.184 404.88 111.184 418.812C111.184 419.26 111.177 419.704 111.163 420.138C104.859 406.999 91.1892 396.876 64.8005 383.34C53.8498 377.723 53.7256 377.647 46.8767 372.164C30.078 358.717 24.6446 343.244 31.9354 335.648C27.0303 354.762 50.3543 368.653 72.9458 382.106Z" fill="black"/>
<path opacity="0.2" fill-rule="evenodd" clip-rule="evenodd" d="M32.243 335.099L32.0927 335.686C29.6614 345.159 34.216 353.357 42.2415 360.886C50.2682 368.415 61.7302 375.24 73.0304 381.97L73.0387 381.976C82.7271 387.745 92.2958 393.444 99.4417 399.445C106.585 405.442 111.347 411.772 111.347 418.813C111.347 419.263 111.339 419.707 111.325 420.141L111.022 420.205C104.744 407.119 91.1202 397.015 64.7306 383.48C59.258 380.673 56.4819 379.246 54.219 377.834C51.9535 376.423 50.2029 375.028 46.78 372.288C38.3656 365.552 32.7869 358.302 30.227 351.769C27.6678 345.239 28.1185 339.397 31.823 335.537L32.243 335.099ZM30.5238 351.654C33.0577 358.121 38.595 365.33 46.9795 372.04C50.4055 374.784 52.1415 376.166 54.3881 377.568C56.637 378.97 59.3985 380.391 64.8766 383.201C90.8721 396.533 104.571 406.577 111.023 419.482C111.026 419.26 111.028 419.038 111.028 418.813C111.028 411.921 106.365 405.67 99.2362 399.686C92.1123 393.704 82.565 388.018 72.867 382.243L72.8558 382.236C61.5684 375.513 50.0774 368.672 42.0229 361.115C34.1348 353.716 29.5076 345.6 31.637 336.216C28.4338 339.952 28.0909 345.445 30.5238 351.654Z" fill="black"/>
<path opacity="0.2" fill-rule="evenodd" clip-rule="evenodd" d="M287.051 382.106C267.662 393.654 248.812 404.88 248.812 418.812C248.812 419.009 248.814 419.206 248.817 419.399C255.273 406.618 268.92 396.622 294.818 383.34C305.769 377.723 305.893 377.647 312.742 372.164C329.535 358.72 334.451 344.227 328.267 336.517C332.256 355.187 309.298 368.859 287.051 382.106Z" fill="black"/>
<path opacity="0.2" fill-rule="evenodd" clip-rule="evenodd" d="M329.271 352.251C326.703 358.549 321.255 365.555 312.845 372.288C309.422 375.028 307.671 376.423 305.406 377.838C303.143 379.246 300.367 380.673 294.894 383.483C268.995 396.765 255.393 406.742 248.962 419.472L248.66 419.402C248.658 419.206 248.656 419.009 248.656 418.813C248.656 411.772 253.418 405.442 260.561 399.445C267.707 393.444 277.276 387.745 286.964 381.976L286.972 381.97C298.1 375.345 309.385 368.622 317.392 361.229C325.4 353.836 330.09 345.803 328.114 336.552L328.395 336.419C331.536 340.332 331.839 345.952 329.271 352.251ZM328.56 337.167C331.214 340.932 331.399 346.19 328.978 352.13C326.435 358.365 321.029 365.33 312.645 372.04C309.219 374.784 307.483 376.166 305.237 377.568C302.988 378.97 300.226 380.391 294.748 383.201C269.241 396.283 255.575 406.193 248.975 418.752C249.002 411.883 253.659 405.654 260.767 399.686C267.891 393.704 277.438 388.018 287.136 382.243L287.147 382.236C298.262 375.618 309.575 368.882 317.609 361.46C325.451 354.22 330.204 346.295 328.56 337.167Z" fill="black"/>
<g style="mix-blend-mode:multiply">
<path fill-rule="evenodd" clip-rule="evenodd" d="M24.8228 376.981C24.6308 392.696 25.2308 460.517 105.292 460.517C105.619 460.517 105.945 460.517 106.268 460.514C105.496 456.34 106.518 452.864 109.321 449.883C112.16 446.861 110.377 432.567 106.082 423.922C104.946 421.632 104.459 420.582 103.943 420.566C103.495 420.554 103.024 421.321 102.085 422.736C78.842 457.758 31.4215 430.956 32.3826 383.343C32.5295 376.078 32.5295 376.078 30.5177 374.47C29.0519 373.303 28.6082 372.897 28.2805 372.973C28.0833 373.02 27.9281 373.242 27.6173 373.578C26.6395 374.641 25.7076 375.776 24.8228 376.981Z" fill="black" fill-opacity="0.2"/>
</g>
<path opacity="0.2" fill-rule="evenodd" clip-rule="evenodd" d="M335.314 378.329C335.435 395.766 333.253 460.834 254.834 460.834C254.314 460.834 253.799 460.831 253.29 460.828C254.173 456.514 253.171 452.94 250.298 449.883C247.459 446.861 249.243 432.564 253.537 423.922C254.674 421.632 255.16 420.582 255.676 420.566C256.125 420.554 256.596 421.321 257.535 422.736C280.777 457.754 328.197 430.956 327.238 383.343C327.133 378.177 327.101 376.683 327.792 375.684C328.073 375.275 328.471 374.952 329.035 374.492C330.086 373.632 330.653 373.093 331.195 373.115C331.988 373.15 332.727 374.397 334.862 377.638C335.015 377.869 335.164 378.101 335.314 378.329Z" fill="#161616"/>
<path opacity="0.2" fill-rule="evenodd" clip-rule="evenodd" d="M165.946 207.25C165.466 210.858 166.236 215.175 168.369 219.877C169.966 223.398 169.966 223.398 172.417 223.423C174.618 223.446 175.119 223.576 177.338 224.705C179.808 225.961 179.808 225.961 182.279 224.705C184.498 223.576 184.998 223.446 187.2 223.423C189.651 223.398 189.651 223.398 191.246 219.877C193.378 215.173 194.069 210.834 193.541 207.204C192.482 213.076 190.045 220.75 184.579 221.39C182.212 221.886 180.566 221.918 179.997 221.869V221.866H179.959H179.519H179.481V221.869C178.913 221.918 177.266 221.886 174.9 221.39C169.448 220.752 167.009 213.115 165.946 207.25ZM197.887 224.885C200.62 220.644 201.761 216.592 202.02 210.213L202.157 206.862C203.204 212.607 202.925 220.652 198.133 227.482C196.891 226.43 196.951 226.338 197.887 224.885ZM217.353 219.482C217.132 222.414 216.215 225.656 214.537 229.042C214.357 229.405 214.195 229.736 214.048 230.036C213.147 231.874 212.794 232.594 212.251 232.787C211.901 232.911 211.472 232.816 210.765 232.659C210.587 232.619 210.39 232.575 210.172 232.53C208.471 232.177 207.532 232.139 206.365 232.379C206.06 232.441 205.782 232.5 205.527 232.553C205.473 232.565 205.42 232.576 205.367 232.587C205.576 231.958 207.2 231.445 208.856 230.923C210.413 230.432 211.998 229.932 212.455 229.319C214.724 226.273 216.458 223.203 217.353 219.482ZM224.09 218.339C224.067 222.709 221.552 229.869 218.724 233.615C217.516 235.216 217.434 235.325 218.969 236.972C222.224 232.288 225.613 223.067 224.332 218.042C224.176 218.116 224.091 218.214 224.09 218.339ZM244.194 233.179C243.777 235.862 242.288 241.509 240.012 243.908C237.304 246.762 236.189 247.079 233.959 246.128C232.633 245.562 230.697 245.837 229.289 246.211C231.846 246.307 234.157 246.989 236.282 248.268L236.349 248.308L236.47 248.381C237.243 248.847 237.671 249.106 238.062 249.059C238.549 249 238.977 248.467 239.937 247.274L240.032 247.155L240.126 247.04C243.352 243.038 244.634 237.935 244.194 233.179ZM267.309 250.345C266.746 254.772 265.142 262.644 258.968 267.852C253.159 272.752 248.773 273.084 247.818 266.107C247.726 265.434 247.595 265.076 247.442 264.972C247.729 267.434 247.609 269.916 247.03 272.174C246.679 273.538 246.392 274.693 246.392 274.741C246.392 275.525 255.056 271.907 258.092 269.855C265.064 265.141 268.122 257.366 267.309 250.345ZM250.841 238.493C250.087 243.406 248.309 246.903 244.622 250.745C242.25 253.216 242.25 253.216 243.249 254.449C243.355 254.581 243.46 254.715 243.564 254.852C246.739 251.64 250.277 245.506 250.841 238.493ZM218.958 253.365C218.369 256.72 217.398 260.392 215.959 262.143C213.092 265.632 209.269 266.583 206.243 266.107C204.721 265.868 202.198 266.535 199.993 267.312C204.467 267.123 207.864 268.003 210.815 270.029C211.537 270.525 212.121 270.738 212.248 270.554C212.366 270.382 213.062 269.464 213.795 268.512C217.035 264.304 218.794 258.574 218.958 253.365ZM193.243 265.761C197.83 263.353 205.181 256.912 205.091 246.662C204.202 254.058 199.828 260.612 192.951 264.568C192.868 264.615 193.016 265.137 193.243 265.761ZM199.055 247.352C197.639 251.508 194.49 258.044 189.517 256.276C185.057 254.69 182.349 254.373 180.119 254.373C179.976 254.373 179.85 254.387 179.739 254.412C179.629 254.387 179.502 254.373 179.36 254.373C177.13 254.373 174.422 254.69 169.962 256.276C165.473 257.872 162.471 252.704 160.887 248.626C161.625 251.694 163.142 255.025 165.447 258.492C166.891 260.663 167.425 261.465 167.845 261.41C168.092 261.378 168.3 261.052 168.63 260.534C173.376 253.084 186.241 253.084 190.987 260.534C192.278 262.561 197.475 254.836 198.795 248.928C198.913 248.402 198.999 247.876 199.055 247.352ZM140.527 253.401C140.582 258.389 142.285 263.919 145.821 268.512C146.554 269.464 147.25 270.382 147.369 270.554C147.496 270.738 148.08 270.525 148.802 270.029C151.718 268.026 155.071 267.144 159.469 267.306C157.267 266.531 154.753 265.869 153.236 266.107C150.209 266.583 146.386 265.632 143.519 262.143C142.085 260.399 141.117 256.747 140.527 253.401ZM154.424 245.607C153.791 256.559 161.62 263.382 166.351 265.821C166.591 265.171 166.751 264.617 166.666 264.568C159.464 260.425 155.007 253.431 154.424 245.607ZM140.568 237.056C142.185 235.328 142.121 235.243 140.893 233.615C138.065 229.869 135.55 222.709 135.526 218.339C135.526 218.272 135.374 218.221 135.112 218.184C133.922 223.27 137.326 232.443 140.568 237.056ZM115.303 233.293C114.817 237.9 116.107 242.842 119.491 247.04C119.556 247.121 119.619 247.199 119.679 247.274C120.64 248.467 121.068 249 121.554 249.059C121.945 249.106 122.374 248.847 123.147 248.381L123.148 248.38C123.208 248.344 123.27 248.306 123.335 248.268C125.426 247.009 127.698 246.329 130.209 246.216C128.799 245.839 126.851 245.559 125.519 246.128C123.289 247.079 122.174 246.762 119.466 243.908C117.222 241.542 115.744 236.019 115.303 233.293ZM142.472 220.756C142.812 223.387 143.67 226.197 145.08 229.042C145.26 229.405 145.422 229.735 145.569 230.036C146.47 231.873 146.823 232.594 147.366 232.787C147.716 232.911 148.145 232.816 148.851 232.659C149.03 232.619 149.227 232.575 149.444 232.53C151.146 232.177 152.085 232.139 153.251 232.379C153.557 232.441 153.835 232.5 154.089 232.553C154.093 232.554 154.096 232.555 154.1 232.555C153.849 231.941 152.251 231.437 150.623 230.923C149.066 230.432 147.481 229.932 147.024 229.319C145.018 226.628 143.432 223.917 142.472 220.756ZM157.214 207.492C157.437 208.201 157.551 209.113 157.598 210.251C157.856 216.589 159.003 220.653 161.73 224.885C162.687 226.371 162.727 226.433 161.397 227.555C156.729 220.955 156.297 213.206 157.214 207.492ZM112.178 264.944C111.963 264.893 111.78 265.235 111.661 266.107C110.705 273.084 106.32 272.752 100.51 267.852C94.8114 263.045 93.0063 255.967 92.3197 251.424C91.9779 258.122 94.9041 265.379 101.525 269.855C104.561 271.907 113.224 275.525 113.224 274.741C113.224 274.693 112.938 273.538 112.587 272.174C112.005 269.909 111.887 267.415 112.178 264.944ZM115.993 254.931C116.114 254.768 116.238 254.609 116.365 254.453C117.36 253.224 117.36 253.224 114.861 250.596C111.159 246.703 109.154 242.517 108.602 237.525C108.59 237.416 108.579 237.313 108.568 237.215C108.776 244.814 112.607 251.55 115.993 254.931Z" fill="black"/>
<path d="M297.559 404.858C297.559 401.005 300.768 397.881 304.727 397.881C308.685 397.881 311.895 401.005 311.895 404.858C311.895 408.711 308.685 411.835 304.727 411.835C300.768 411.835 297.559 408.711 297.559 404.858Z" fill="#F1F1F1"/>
<path d="M47.4688 404.858C47.4688 401.005 50.6782 397.881 54.6369 397.881C58.5956 397.881 61.805 401.005 61.805 404.858C61.805 408.711 58.5956 411.835 54.6369 411.835C50.6782 411.835 47.4688 408.711 47.4688 404.858Z" fill="#F1F1F1"/>
<path d="M66.583 411.201C66.583 410.148 65.6559 409.298 64.5122 409.298C63.3685 409.298 62.4414 410.148 62.4414 411.201C62.4414 412.251 63.3685 413.104 64.5122 413.104C65.6559 413.104 66.583 412.251 66.583 411.201Z" fill="#F1F1F1"/>
</g>
<defs>
<clipPath id="clip0_3168_1085">
<rect width="360" height="555" fill="white"/>
</clipPath>
</defs>
</svg>
