<svg width="375" height="72" viewBox="0 0 375 72" fill="none" xmlns="http://www.w3.org/2000/svg">
<g clip-path="url(#clip0_1644_3212)">
<path d="M133.5 71.2104C128.6 71.2104 124 70.4104 119.7 68.7104C115.4 67.0104 111.7 64.6104 108.5 61.5104C105.3 58.4104 102.8 54.7104 101 50.4104C99.1 46.0104 98.2 41.2104 98.2 35.9104C98.2 30.6104 99.1 25.7104 101 21.4104C102.9 17.0104 105.4 13.3104 108.6 10.2104C111.8 7.1104 115.5 4.7104 119.8 3.0104C124.1 1.3104 128.6 0.4104 133.3 0.4104C138.4 0.4104 142.8 1.1104 146.5 2.6104C150.2 4.1104 153.3 5.9104 155.9 8.2104C158.5 10.5104 160.5 13.0104 161.9 15.6104C163.3 18.3104 164.3 20.8104 164.9 23.3104L150.6 27.8104C150.3 26.6104 149.8 25.3104 149.1 23.9104C148.4 22.4104 147.3 21.0104 146 19.7104C144.7 18.4104 142.9 17.3104 140.9 16.4104C138.8 15.5104 136.3 15.1104 133.3 15.1104C131 15.1104 128.7 15.5104 126.4 16.3104C124.1 17.1104 122 18.4104 120.2 20.1104C118.3 21.8104 116.8 24.0104 115.7 26.6104C114.5 29.2104 114 32.3104 114 35.9104C114 39.1104 114.5 41.9104 115.6 44.4104C116.7 46.9104 118.1 49.0104 120 50.7104C121.8 52.4104 123.9 53.7104 126.2 54.6104C128.5 55.5104 131 55.9104 133.5 55.9104C136.4 55.9104 139 55.5104 141.1 54.6104C143.2 53.7104 145 52.6104 146.4 51.3104C147.8 50.0104 148.9 48.6104 149.7 47.1104C150.5 45.6104 151.1 44.3104 151.4 43.1104L165.9 47.2104C165.3 49.6104 164.3 52.1104 162.9 54.9104C161.5 57.7104 159.4 60.2104 156.9 62.6104C154.3 65.0104 151.1 67.0104 147.3 68.6104C143.3 70.4104 138.8 71.2104 133.5 71.2104Z" fill="white"/>
<path d="M133.5 71.2104C128.6 71.2104 124 70.4104 119.7 68.7104C115.4 67.0104 111.7 64.6104 108.5 61.5104C105.3 58.4104 102.8 54.7104 101 50.4104C99.1 46.0104 98.2 41.2104 98.2 35.9104C98.2 30.6104 99.1 25.7104 101 21.4104C102.9 17.0104 105.4 13.3104 108.6 10.2104C111.8 7.1104 115.5 4.7104 119.8 3.0104C124.1 1.3104 128.6 0.4104 133.3 0.4104C138.4 0.4104 142.8 1.1104 146.5 2.6104C150.2 4.1104 153.3 5.9104 155.9 8.2104C158.5 10.5104 160.5 13.0104 161.9 15.6104C163.3 18.3104 164.3 20.8104 164.9 23.3104L150.6 27.8104C150.3 26.6104 149.8 25.3104 149.1 23.9104C148.4 22.4104 147.3 21.0104 146 19.7104C144.7 18.4104 142.9 17.3104 140.9 16.4104C138.8 15.5104 136.3 15.1104 133.3 15.1104C131 15.1104 128.7 15.5104 126.4 16.3104C124.1 17.1104 122 18.4104 120.2 20.1104C118.3 21.8104 116.8 24.0104 115.7 26.6104C114.5 29.2104 114 32.3104 114 35.9104C114 39.1104 114.5 41.9104 115.6 44.4104C116.7 46.9104 118.1 49.0104 120 50.7104C121.8 52.4104 123.9 53.7104 126.2 54.6104C128.5 55.5104 131 55.9104 133.5 55.9104C136.4 55.9104 139 55.5104 141.1 54.6104C143.2 53.7104 145 52.6104 146.4 51.3104C147.8 50.0104 148.9 48.6104 149.7 47.1104C150.5 45.6104 151.1 44.3104 151.4 43.1104L165.9 47.2104C165.3 49.6104 164.3 52.1104 162.9 54.9104C161.5 57.7104 159.4 60.2104 156.9 62.6104C154.3 65.0104 151.1 67.0104 147.3 68.6104C143.3 70.4104 138.8 71.2104 133.5 71.2104Z" fill="white"/>
<path d="M133.5 71.2104C128.6 71.2104 124 70.4104 119.7 68.7104C115.4 67.0104 111.7 64.6104 108.5 61.5104C105.3 58.4104 102.8 54.7104 101 50.4104C99.1 46.0104 98.2 41.2104 98.2 35.9104C98.2 30.6104 99.1 25.7104 101 21.4104C102.9 17.0104 105.4 13.3104 108.6 10.2104C111.8 7.1104 115.5 4.7104 119.8 3.0104C124.1 1.3104 128.6 0.4104 133.3 0.4104C138.4 0.4104 142.8 1.1104 146.5 2.6104C150.2 4.1104 153.3 5.9104 155.9 8.2104C158.5 10.5104 160.5 13.0104 161.9 15.6104C163.3 18.3104 164.3 20.8104 164.9 23.3104L150.6 27.8104C150.3 26.6104 149.8 25.3104 149.1 23.9104C148.4 22.4104 147.3 21.0104 146 19.7104C144.7 18.4104 142.9 17.3104 140.9 16.4104C138.8 15.5104 136.3 15.1104 133.3 15.1104C131 15.1104 128.7 15.5104 126.4 16.3104C124.1 17.1104 122 18.4104 120.2 20.1104C118.3 21.8104 116.8 24.0104 115.7 26.6104C114.5 29.2104 114 32.3104 114 35.9104C114 39.1104 114.5 41.9104 115.6 44.4104C116.7 46.9104 118.1 49.0104 120 50.7104C121.8 52.4104 123.9 53.7104 126.2 54.6104C128.5 55.5104 131 55.9104 133.5 55.9104C136.4 55.9104 139 55.5104 141.1 54.6104C143.2 53.7104 145 52.6104 146.4 51.3104C147.8 50.0104 148.9 48.6104 149.7 47.1104C150.5 45.6104 151.1 44.3104 151.4 43.1104L165.9 47.2104C165.3 49.6104 164.3 52.1104 162.9 54.9104C161.5 57.7104 159.4 60.2104 156.9 62.6104C154.3 65.0104 151.1 67.0104 147.3 68.6104C143.3 70.4104 138.8 71.2104 133.5 71.2104Z" fill="white"/>
<path d="M224 55.9104H197.7L192.8 69.7104H176.9L202.5 1.61035H220.1L245.4 69.7104H228.9L224 55.9104ZM202.7 42.1104H219.2L211 18.6104L202.7 42.1104Z" fill="white"/>
<path d="M295.8 22.2104C295.7 21.4104 295.4 20.6104 295 19.6104C294.6 18.6104 293.9 17.7104 293.1 16.8104C292.2 15.9104 291.1 15.2104 289.7 14.6104C288.3 14.0104 286.6 13.7104 284.5 13.7104C281.7 13.7104 279.4 14.5104 277.7 16.0104C276 17.5104 275.2 19.2104 275.2 21.0104C275.2 22.7104 275.7 24.1104 276.8 25.2104C277.9 26.3104 279.6 27.1104 281.9 27.6104L291 29.2104C294.3 29.8104 297.1 30.7104 299.5 32.0104C301.9 33.3104 304 34.9104 305.6 36.7104C307.3 38.5104 308.5 40.5104 309.3 42.7104C310.1 44.9104 310.5 47.2104 310.5 49.7104C310.5 52.4104 310 55.0104 308.9 57.6104C307.8 60.2104 306.2 62.4104 304.1 64.5104C302 66.5104 299.3 68.1104 296.2 69.4104C293.1 70.6104 289.5 71.3104 285.4 71.3104C280.7 71.3104 276.6 70.6104 273.2 69.2104C269.8 67.8104 267 66.1104 264.8 64.0104C262.6 61.9104 260.9 59.6104 259.7 57.0104C258.5 54.4104 257.8 51.9104 257.6 49.5104L271.5 46.1104C271.6 47.6104 272 49.1104 272.6 50.6104C273.2 52.0104 274.1 53.3104 275.2 54.3104C276.4 55.4104 277.8 56.2104 279.5 56.8104C281.2 57.4104 283.2 57.8104 285.5 57.8104C288.5 57.8104 290.9 57.1104 292.6 55.8104C294.3 54.5104 295.1 52.8104 295.1 50.7104C295.1 49.0104 294.4 47.5104 293.1 46.3104C291.8 45.1104 290 44.3104 287.8 43.9104L278.5 42.2104C272.7 41.1104 268.1 38.8104 264.9 35.2104C261.6 31.6104 260 27.3104 260 22.2104C260 19.0104 260.7 16.1104 262 13.4104C263.3 10.7104 265.1 8.4104 267.3 6.5104C269.5 4.6104 272.1 3.1104 275.1 2.0104C278 0.9104 281.1 0.4104 284.4 0.4104C288.6 0.4104 292.2 1.0104 295.2 2.1104C298.2 3.3104 300.7 4.7104 302.6 6.5104C304.6 8.3104 306 10.2104 307.1 12.4104C308.1 14.5104 308.8 16.6104 309.2 18.6104L295.8 22.2104Z" fill="white"/>
<path d="M331.7 69.7104V1.71045H374.8V16.0104H346.9V29.0104H372.2V42.3104H346.9V55.4104H374.9V69.8104H331.7V69.7104Z" fill="white"/>
<path d="M0.0999756 1.71045V69.7104H68.1V1.71045H0.0999756ZM62.1 35.7104H6.09998V7.71045H62.1V35.7104Z" fill="white"/>
</g>
<defs>
<clipPath id="clip0_1644_3212">
<rect width="375" height="71" fill="white" transform="translate(0 0.210449)"/>
</clipPath>
</defs>
</svg>
