<svg width="83" height="67" viewBox="0 0 83 67" fill="none" xmlns="http://www.w3.org/2000/svg">
    <path d="M49.2399 49.7121L33.2961 41.7402L17.3523 49.7121L33.2961 57.684L49.2399 49.7121Z" fill="#4D4D4D"
        stroke="#161616" stroke-width="2" stroke-miterlimit="1" />
    <path d="M49.2399 49.7116L33.2961 41.7397V25.7959L49.2399 33.7678V49.7116Z" fill="#999999" stroke="#161616"
        stroke-width="2" stroke-miterlimit="1" />
    <path d="M33.2961 41.7397L17.3523 49.7116V33.7678L33.2961 25.7959V41.7397Z" fill="#999999" stroke="#161616"
        stroke-width="2" stroke-miterlimit="1" />
    <path d="M33.2961 57.6833L17.3523 49.7114V33.7676L33.2961 41.7395V57.6833Z" fill="white" stroke="#161616"
        stroke-width="2" stroke-miterlimit="1" />
    <path d="M33.2961 57.6833L49.2399 49.7114V33.7676L33.2961 41.7395V57.6833Z" fill="#FF006E" stroke="#161616"
        stroke-width="2" stroke-miterlimit="1" />
    <path d="M49.2399 33.7678L33.2961 25.7959L17.3523 33.7678L33.2961 41.7397L49.2399 33.7678Z" fill="white"
        stroke="#161616" stroke-width="2" stroke-miterlimit="1" />
    <path d="M33.3874 57.6369L17.4436 49.665L1.49982 57.6369L17.4436 65.6088L33.3874 57.6369Z" fill="#4D4D4D"
        stroke="#161616" stroke-width="2" stroke-miterlimit="1" />
    <path d="M33.3874 57.6374L17.4436 49.6655V33.7217L33.3874 41.6936V57.6374Z" fill="#999999" stroke="#161616"
        stroke-width="2" stroke-miterlimit="1" />
    <path d="M17.4436 49.6655L1.49982 57.6374V41.6936L17.4436 33.7217V49.6655Z" fill="#999999" stroke="#161616"
        stroke-width="2" stroke-miterlimit="1" />
    <path d="M17.4436 65.6091L1.49982 57.6372V41.6934L17.4436 49.6653V65.6091Z" fill="white" stroke="#161616"
        stroke-width="2" stroke-miterlimit="1" />
    <path d="M17.4436 65.6093L49.2278 49.6655V33.7217L17.4436 49.6655V65.6093Z" fill="#FF006E" stroke="#161616"
        stroke-width="2" stroke-miterlimit="1" />
    <path d="M49.2504 33.7678L33.3065 25.7959L1.49982 41.693L17.4436 49.6649L49.2504 33.7678Z" fill="white"
        stroke="#161616" stroke-width="2" stroke-miterlimit="1" />
    <path d="M49.2399 33.6545L33.2961 25.6826L17.3523 33.6545L33.2961 41.6264L49.2399 33.6545Z" fill="#4D4D4D"
        stroke="#161616" stroke-width="2" stroke-miterlimit="1" />
    <path d="M49.2399 33.654L33.2961 25.6821V9.73828L49.2399 17.7102V33.654Z" fill="#999999" stroke="#161616"
        stroke-width="2" stroke-miterlimit="1" />
    <path d="M33.2961 25.6821L17.3523 33.654V17.7102L33.2961 9.73828V25.6821Z" fill="#999999" stroke="#161616"
        stroke-width="2" stroke-miterlimit="1" />
    <path d="M33.2961 41.6257L17.3523 33.6538V17.71L33.2961 25.6819V41.6257Z" fill="white" stroke="#161616"
        stroke-width="2" stroke-miterlimit="1" />
    <path d="M33.2961 41.6249L65.0803 25.6812V9.73735L33.2961 25.6811V41.6249Z" fill="#FF006E" stroke="#161616"
        stroke-width="2" stroke-miterlimit="1" />
    <path d="M65.103 9.7844L49.1591 1.8125L17.3524 17.7096L33.2962 25.6815L65.103 9.7844Z" fill="white" stroke="#161616"
        stroke-width="2" stroke-miterlimit="1" />
    <path d="M81.1485 49.508L65.2047 41.5361L49.2609 49.508L65.2047 57.4799L81.1485 49.508Z" fill="#4D4D4D"
        stroke="#161616" stroke-width="2" stroke-miterlimit="1" />
    <path d="M81.1485 49.5075L65.2047 41.5356V25.5918L81.1485 33.5637V49.5075Z" fill="#999999" stroke="#161616"
        stroke-width="2" stroke-miterlimit="1" />
    <path d="M65.2047 41.5356L49.2609 49.5075V33.5637L65.2047 25.5918V41.5356Z" fill="#999999" stroke="#161616"
        stroke-width="2" stroke-miterlimit="1" />
    <path d="M65.2047 57.4802L49.2609 49.5083V33.5645L65.2047 41.5364V57.4802Z" fill="white" stroke="#161616"
        stroke-width="2" stroke-miterlimit="1" />
    <path d="M65.2047 57.4802L81.1485 49.5083V33.5645L65.2047 41.5364V57.4802Z" fill="#FF006E" stroke="#161616"
        stroke-width="2" stroke-miterlimit="1" />
    <path d="M81.1485 33.5637L65.2047 25.5918L49.2609 33.5637L65.2047 41.5356L81.1485 33.5637Z" fill="white"
        stroke="#161616" stroke-width="2" stroke-miterlimit="1" />
</svg>
