<svg width="94" height="67" viewBox="0 0 94 67" fill="none" xmlns="http://www.w3.org/2000/svg">
    <path d="M92.5052 29.209L74.2415 20.0771L55.9778 29.209L74.2415 38.3409L92.5052 29.209Z" fill="#4D4D4D"
        stroke="#161616" stroke-width="2" stroke-miterlimit="1" />
    <path d="M92.5052 29.2081L74.2415 20.0762V1.8125L92.5052 10.9444V29.2081Z" fill="#999999" stroke="#161616"
        stroke-width="2" stroke-miterlimit="1" />
    <path d="M74.2415 20.0762L55.9778 29.2081V10.9444L74.2415 1.8125V20.0762Z" fill="#999999" stroke="#161616"
        stroke-width="2" stroke-miterlimit="1" />
    <path d="M74.2415 38.3399L55.9778 29.2081V10.9443L74.2415 20.0762V38.3399Z" fill="white" stroke="#161616"
        stroke-width="2" stroke-miterlimit="1" />
    <path d="M74.2415 38.3399L92.5052 29.2081V10.9443L74.2415 20.0762V38.3399Z" fill="#9887F1" stroke="#161616"
        stroke-width="2" stroke-miterlimit="1" />
    <path d="M92.5052 10.9444L74.2415 1.8125L55.9778 10.9444L74.2415 20.0762L92.5052 10.9444Z" fill="white"
        stroke="#161616" stroke-width="2" stroke-miterlimit="1" />
    <path
        d="M65.8539 25.7558C66.3479 25.5088 66.5481 24.9081 66.3011 24.4141C66.0541 23.9201 65.4534 23.7199 64.9595 23.9669L65.8539 25.7558ZM31.3514 43.007C31.8454 42.76 32.0456 42.1593 31.7986 41.6654C31.5516 41.1714 30.9509 40.9712 30.457 41.2182L31.3514 43.007ZM34.0888 39.4022C33.5948 39.6492 33.3946 40.2499 33.6416 40.7439C33.8886 41.2379 34.4893 41.4381 34.9832 41.1911L34.0888 39.4022ZM38.6151 39.3752C39.1091 39.1282 39.3093 38.5275 39.0623 38.0335C38.8153 37.5395 38.2146 37.3393 37.7206 37.5863L38.6151 39.3752ZM41.3525 35.7704C40.8585 36.0174 40.6583 36.6181 40.9053 37.112C41.1523 37.606 41.7529 37.8062 42.2469 37.5592L41.3525 35.7704ZM45.8788 35.7433C46.3727 35.4963 46.573 34.8957 46.326 34.4017C46.079 33.9077 45.4783 33.7075 44.9843 33.9545L45.8788 35.7433ZM48.6162 32.1385C48.1222 32.3855 47.922 32.9862 48.169 33.4802C48.416 33.9742 49.0166 34.1744 49.5106 33.9274L48.6162 32.1385ZM53.1424 32.1115C53.6364 31.8645 53.8366 31.2638 53.5897 30.7698C53.3427 30.2759 52.742 30.0756 52.248 30.3226L53.1424 32.1115ZM55.8799 28.5067C55.3859 28.7537 55.1857 29.3544 55.4326 29.8483C55.6796 30.3423 56.2803 30.5425 56.7743 30.2956L55.8799 28.5067ZM60.4061 28.4796C60.9001 28.2326 61.1003 27.632 60.8533 27.138C60.6064 26.644 60.0057 26.4438 59.5117 26.6908L60.4061 28.4796ZM63.1435 24.8749C62.6496 25.1218 62.4493 25.7225 62.6963 26.2165C62.9433 26.7105 63.544 26.9107 64.038 26.6637L63.1435 24.8749ZM29.5355 43.915L31.3514 43.007L30.457 41.2182L28.641 42.1261L29.5355 43.915ZM34.9832 41.1911L38.6151 39.3752L37.7206 37.5863L34.0888 39.4022L34.9832 41.1911ZM42.2469 37.5592L45.8788 35.7433L44.9843 33.9545L41.3525 35.7704L42.2469 37.5592ZM49.5106 33.9274L53.1424 32.1115L52.248 30.3226L48.6162 32.1385L49.5106 33.9274ZM56.7743 30.2956L60.4061 28.4796L59.5117 26.6908L55.8799 28.5067L56.7743 30.2956ZM64.038 26.6637L65.8539 25.7558L64.9595 23.9669L63.1435 24.8749L64.038 26.6637Z"
        fill="#8D7AEF" />
    <path d="M38.0275 56.6817L19.7637 47.5498L1.5 56.6817L19.7637 65.8135L38.0275 56.6817Z" fill="#4D4D4D"
        stroke="#161616" stroke-width="2" stroke-miterlimit="1" />
    <path d="M38.0275 56.6808L19.7637 47.5489V29.2852L38.0275 38.417V56.6808Z" fill="#999999" stroke="#161616"
        stroke-width="2" stroke-miterlimit="1" />
    <path d="M19.7637 47.5489L1.5 56.6808V38.417L19.7637 29.2852V47.5489Z" fill="#999999" stroke="#161616"
        stroke-width="2" stroke-miterlimit="1" />
    <path d="M19.7637 65.8126L1.5 56.6807V38.417L19.7637 47.5489V65.8126Z" fill="white" stroke="#161616"
        stroke-width="2" stroke-miterlimit="1" />
    <path d="M19.7637 65.8126L38.0275 56.6807V38.417L19.7637 47.5489V65.8126Z" fill="#9887F1" stroke="#161616"
        stroke-width="2" stroke-miterlimit="1" />
    <path d="M38.0275 38.417L19.7637 29.2852L1.5 38.417L19.7637 47.5489L38.0275 38.417Z" fill="white" stroke="#161616"
        stroke-width="2" stroke-miterlimit="1" />
    <path
        d="M18.9522 39.0708C19.3427 39.4613 19.9759 39.4613 20.3664 39.0708L26.7304 32.7068C27.1209 32.3163 27.1209 31.6831 26.7304 31.2926C26.3399 30.9021 25.7067 30.9021 25.3162 31.2926L19.6593 36.9494L14.0025 31.2926C13.612 30.9021 12.9788 30.9021 12.5883 31.2926C12.1977 31.6831 12.1977 32.3163 12.5883 32.7068L18.9522 39.0708ZM20.6593 2.02344C20.6593 1.47115 20.2116 1.02344 19.6593 1.02344C19.107 1.02344 18.6593 1.47115 18.6593 2.02344H20.6593ZM18.6593 3.84045C18.6593 4.39273 19.107 4.84045 19.6593 4.84045C20.2116 4.84045 20.6593 4.39273 20.6593 3.84045H18.6593ZM20.6593 7.47447C20.6593 6.92219 20.2116 6.47447 19.6593 6.47447C19.107 6.47447 18.6593 6.92219 18.6593 7.47447H20.6593ZM18.6593 11.1085C18.6593 11.6608 19.107 12.1085 19.6593 12.1085C20.2116 12.1085 20.6593 11.6608 20.6593 11.1085H18.6593ZM20.6593 14.7425C20.6593 14.1902 20.2116 13.7425 19.6593 13.7425C19.107 13.7425 18.6593 14.1902 18.6593 14.7425H20.6593ZM18.6593 18.3765C18.6593 18.9288 19.107 19.3765 19.6593 19.3765C20.2116 19.3765 20.6593 18.9288 20.6593 18.3765H18.6593ZM20.6593 22.0106C20.6593 21.4583 20.2116 21.0106 19.6593 21.0106C19.107 21.0106 18.6593 21.4583 18.6593 22.0106H20.6593ZM18.6593 25.6446C18.6593 26.1969 19.107 26.6446 19.6593 26.6446C20.2116 26.6446 20.6593 26.1969 20.6593 25.6446H18.6593ZM20.6593 29.2786C20.6593 28.7263 20.2116 28.2786 19.6593 28.2786C19.107 28.2786 18.6593 28.7263 18.6593 29.2786H20.6593ZM18.6593 32.9126C18.6593 33.4649 19.107 33.9126 19.6593 33.9126C20.2116 33.9126 20.6593 33.4649 20.6593 32.9126H18.6593ZM20.6593 36.5466C20.6593 35.9944 20.2116 35.5466 19.6593 35.5466C19.107 35.5466 18.6593 35.9944 18.6593 36.5466H20.6593ZM18.6593 2.02344V3.84045H20.6593V2.02344H18.6593ZM18.6593 7.47447V11.1085H20.6593V7.47447H18.6593ZM18.6593 14.7425V18.3765H20.6593V14.7425H18.6593ZM18.6593 22.0106V25.6446H20.6593V22.0106H18.6593ZM18.6593 29.2786V32.9126H20.6593V29.2786H18.6593ZM18.6593 36.5466V38.3637H20.6593V36.5466H18.6593Z"
        fill="#8D7AEF" />
    <path
        d="M47.9174 62.3591C48.4405 62.1819 48.7208 61.6142 48.5436 61.0911L45.6553 52.5671C45.4781 52.0441 44.9104 51.7637 44.3873 51.941C43.8642 52.1182 43.5839 52.6859 43.7611 53.209L46.3285 60.7858L38.7516 63.3532C38.2285 63.5304 37.9482 64.0982 38.1254 64.6212C38.3027 65.1443 38.8704 65.4247 39.3935 65.2474L47.9174 62.3591ZM29.1816 51.203C28.6864 50.9584 28.0868 51.1616 27.8422 51.6568C27.5977 52.152 27.8009 52.7517 28.2961 52.9962L29.1816 51.203ZM29.8675 53.7723C30.3627 54.0168 30.9624 53.8136 31.2069 53.3184C31.4515 52.8232 31.2483 52.2236 30.7531 51.979L29.8675 53.7723ZM33.896 53.5311C33.4008 53.2865 32.8012 53.4897 32.5566 53.9849C32.3121 54.4801 32.5153 55.0798 33.0105 55.3243L33.896 53.5311ZM36.1534 56.8764C36.6486 57.121 37.2483 56.9178 37.4928 56.4226C37.7374 55.9274 37.5342 55.3277 37.039 55.0832L36.1534 56.8764ZM40.1819 56.6352C39.6867 56.3907 39.087 56.5939 38.8425 57.0891C38.598 57.5843 38.8012 58.1839 39.2964 58.4285L40.1819 56.6352ZM42.4393 59.9806C42.9345 60.2251 43.5342 60.0219 43.7787 59.5267C44.0232 59.0315 43.8201 58.4318 43.3249 58.1873L42.4393 59.9806ZM46.4678 59.7394C45.9726 59.4948 45.3729 59.698 45.1284 60.1932C44.8838 60.6884 45.087 61.2881 45.5822 61.5326L46.4678 59.7394ZM28.2961 52.9962L29.8675 53.7723L30.7531 51.979L29.1816 51.203L28.2961 52.9962ZM33.0105 55.3243L36.1534 56.8764L37.039 55.0832L33.896 53.5311L33.0105 55.3243ZM39.2964 58.4285L42.4393 59.9806L43.3249 58.1873L40.1819 56.6352L39.2964 58.4285ZM45.5822 61.5326L47.1537 62.3087L48.0393 60.5154L46.4678 59.7394L45.5822 61.5326Z"
        fill="#8D7AEF" />
</svg>
