<svg width="37" height="36" viewBox="0 0 37 36" fill="none" xmlns="http://www.w3.org/2000/svg">
<g clip-path="url(#clip0_2212_4347)">
<path d="M30.0992 12.3502C29.7258 12.2217 29.3388 12.1 28.9403 11.985C29.0058 11.7177 29.0659 11.4539 29.1194 11.1946C29.9966 6.93631 29.4231 3.50582 27.4645 2.37635C25.5864 1.29334 22.515 2.42255 19.4131 5.12209C19.1148 5.38168 18.8157 5.65652 18.5167 5.94455C18.3174 5.75398 18.1185 5.56982 17.9201 5.39366C14.6692 2.50714 11.4106 1.29072 9.45396 2.42345C7.57771 3.5096 7.02208 6.73459 7.81173 10.7702C7.88798 11.16 7.97712 11.558 8.07792 11.9628C7.61673 12.0937 7.17151 12.2333 6.74551 12.3817C2.93412 13.7105 0.5 15.7931 0.5 17.9533C0.5 20.1844 3.11303 22.4222 7.08289 23.779C7.39617 23.8861 7.72125 23.9874 8.05626 24.0835C7.94751 24.5212 7.85293 24.9502 7.77354 25.3685C7.0206 29.3341 7.6086 32.4829 9.47985 33.5622C11.4127 34.6768 14.6565 33.5311 17.8152 30.77C18.0648 30.5518 18.3154 30.3203 18.5664 30.0777C18.8917 30.391 19.2165 30.6875 19.5396 30.9656C22.5992 33.5985 25.621 34.6616 27.4905 33.5793C29.4214 32.4615 30.0489 29.0789 29.2342 24.9635C29.172 24.6492 29.0996 24.3281 29.0183 24.0013C29.2461 23.9339 29.4697 23.8644 29.6878 23.7921C33.8148 22.4247 36.5 20.2142 36.5 17.9533C36.5 15.7853 33.9874 13.6887 30.0992 12.3502ZM29.2041 22.3323C29.0072 22.3975 28.8053 22.4605 28.5994 22.5215C28.1438 21.0792 27.5289 19.5454 26.7764 17.9608C27.4945 16.4139 28.0857 14.8998 28.5285 13.4668C28.8968 13.5733 29.2542 13.6857 29.5986 13.8044C32.93 14.9512 34.9621 16.6468 34.9621 17.9533C34.9621 19.345 32.7675 21.1516 29.2041 22.3323ZM27.7255 25.2622C28.0858 27.082 28.1372 28.7273 27.8986 30.0135C27.6842 31.1692 27.253 31.9398 26.7199 32.2484C25.5853 32.905 23.1592 32.0514 20.5426 29.7998C20.2426 29.5417 19.9405 29.2661 19.6374 28.9744C20.6518 27.865 21.6656 26.5753 22.655 25.1429C24.3954 24.9885 26.0396 24.736 27.5307 24.3913C27.6041 24.6876 27.6693 24.9781 27.7255 25.2622ZM12.7732 32.1349C11.6648 32.5263 10.7819 32.5376 10.2483 32.2298C9.11273 31.5749 8.64066 29.0467 9.2846 25.6553C9.35835 25.267 9.44614 24.868 9.54732 24.4602C11.022 24.7863 12.6542 25.021 14.3987 25.1624C15.3948 26.564 16.4379 27.8523 17.4891 28.9804C17.2594 29.2021 17.0307 29.4132 16.8032 29.6121C15.4064 30.833 14.0067 31.6992 12.7732 32.1349ZM7.58027 22.3238C5.82488 21.7238 4.37521 20.944 3.38153 20.0931C2.48864 19.3285 2.03784 18.5693 2.03784 17.9533C2.03784 16.6424 3.99221 14.9704 7.25174 13.834C7.64724 13.6961 8.06125 13.5661 8.49091 13.444C8.94139 14.9094 9.53233 16.4415 10.2455 17.9907C9.5231 19.563 8.92377 21.1195 8.46886 22.602C8.16256 22.514 7.86581 22.4213 7.58027 22.3238ZM9.32099 10.4748C8.64444 7.01725 9.09377 4.40895 10.2245 3.75444C11.4288 3.0572 14.092 4.05133 16.899 6.5437C17.0784 6.703 17.2585 6.86973 17.4392 7.04224C16.3932 8.16536 15.3597 9.444 14.3724 10.8373C12.6793 10.9943 11.0586 11.2464 9.56847 11.5839C9.47478 11.2071 9.3918 10.8368 9.32099 10.4748ZM24.8498 14.3093C24.4935 13.694 24.1278 13.0933 23.755 12.5089C24.9037 12.6541 26.0042 12.8469 27.0376 13.0828C26.7274 14.0771 26.3406 15.1168 25.8854 16.1827C25.5589 15.5627 25.2135 14.9376 24.8498 14.3093ZM18.5172 8.14133C19.2265 8.90983 19.9369 9.76786 20.6356 10.6988C19.9315 10.6655 19.2187 10.6482 18.5 10.6482C17.7881 10.6482 17.0805 10.6652 16.3808 10.6978C17.0802 9.77555 17.7967 8.91868 18.5172 8.14133ZM12.144 14.3199C11.7882 14.937 11.4492 15.5587 11.1278 16.1815C10.6799 15.1194 10.2968 14.075 9.98383 13.0665C11.011 12.8366 12.1063 12.6487 13.2476 12.5062C12.8695 13.096 12.5008 13.7011 12.144 14.3198V14.3199ZM13.2805 23.5101C12.1013 23.3785 10.9895 23.2003 9.96262 22.9768C10.2806 21.9503 10.6722 20.8835 11.1295 19.7985C11.4518 20.4209 11.7921 21.0429 12.1501 21.6613H12.1502C12.5148 22.2912 12.8927 22.9083 13.2805 23.5101ZM18.5597 27.8737C17.8308 27.0873 17.1038 26.2173 16.3937 25.2816C17.083 25.3086 17.7858 25.3225 18.5 25.3225C19.2338 25.3225 19.9592 25.3059 20.6731 25.2741C19.9721 26.2267 19.2643 27.098 18.5597 27.8737ZM25.9001 19.7432C26.3813 20.84 26.7869 21.9011 27.109 22.9101C26.0652 23.1482 24.9382 23.34 23.7508 23.4825C24.1245 22.8903 24.4934 22.2793 24.8559 21.6507C25.2226 21.0148 25.5709 20.3779 25.9001 19.7432ZM23.5238 20.8824C22.961 21.8581 22.3833 22.7896 21.7968 23.6688C20.7285 23.7452 19.6249 23.7845 18.5 23.7845C17.3797 23.7845 16.29 23.7498 15.2406 23.6816C14.6304 22.7909 14.0401 21.8567 13.481 20.8908H13.4811C12.9234 19.9275 12.4101 18.9562 11.9451 17.9902C12.41 17.022 12.9219 16.0496 13.4764 15.0881L13.4763 15.0883C14.0322 14.1242 14.6174 13.1945 15.2219 12.3093C16.2925 12.2284 17.3904 12.1862 18.4999 12.1862H18.5C19.6145 12.1862 20.7138 12.2287 21.7841 12.3103C22.3794 13.1891 22.9606 14.1157 23.5187 15.0799C24.0832 16.055 24.6017 17.021 25.0707 17.9684C24.6031 18.9321 24.0857 19.9078 23.5238 20.8824ZM26.6963 3.70869C27.9018 4.40389 28.3706 7.20763 27.6132 10.8842C27.5649 11.1188 27.5105 11.3577 27.4514 11.5999C25.9578 11.2553 24.336 10.9988 22.6379 10.8395C21.6487 9.43086 20.6237 8.15024 19.5947 7.04153C19.8714 6.77541 20.1476 6.52165 20.4227 6.28219C23.0805 3.96924 25.5645 3.05604 26.6963 3.70869ZM18.5 14.7386C20.2754 14.7386 21.7147 16.1779 21.7147 17.9533C21.7147 19.7287 20.2754 21.168 18.5 21.168C16.7246 21.168 15.2853 19.7287 15.2853 17.9533C15.2853 16.1779 16.7246 14.7386 18.5 14.7386Z" fill="#00D8FF"/>
</g>
<defs>
<clipPath id="clip0_2212_4347">
<rect width="36" height="36" fill="white" transform="translate(0.5)"/>
</clipPath>
</defs>
</svg>
