<svg width="122" height="102" viewBox="0 0 122 102" fill="none" xmlns="http://www.w3.org/2000/svg">
<path d="M14.09 87.26L11 81L7.91 87.26L1 88.27L6 93.14L4.82 100.02L11 96.77L17.18 100.02L16 93.14L21 88.27L14.09 87.26Z" stroke="#EAC550" stroke-width="2" stroke-linecap="round" stroke-linejoin="round"/>
<path d="M42.7929 56.9695L42.5607 45.9185L33.9296 52.8237L23.3417 49.6367L27.2457 59.9754L20.938 69.0511L31.9815 68.5358L38.6646 77.3427L41.5877 66.6838L52.0256 63.0535L42.7929 56.9695Z" stroke="#EAC550" stroke-width="3.246" stroke-linecap="round" stroke-linejoin="round"/>
<path d="M99.0767 37.0602L109.007 22.1861L91.1606 23.3492L80.0687 9.31227L75.6686 26.6434L58.8931 32.8381L74.0196 42.3862L74.7252 60.2602L88.4778 48.8295L105.687 53.6845L99.0767 37.0602Z" stroke="#EAC550" stroke-width="5.2585" stroke-linecap="round" stroke-linejoin="round"/>
</svg>
