<svg width="695" height="161" viewBox="0 0 695 161" fill="none" xmlns="http://www.w3.org/2000/svg">
<path fill-rule="evenodd" clip-rule="evenodd" d="M350 116.697V107.324C358.556 112.743 367.222 115.452 376 115.452C385.333 115.452 392.417 113.531 397.25 109.688C402.083 105.845 404.5 100.468 404.5 93.556C404.5 87.474 402.875 82.622 399.625 79C396.491 75.508 389.832 70.795 379.646 64.86L378.5 64.196C366.389 57.173 358.722 51.298 355.5 46.571C352.278 41.843 350.667 36.383 350.667 30.19C350.667 21.7855 353.944 14.6528 360.5 8.7916C367.056 2.9305 375.806 0 386.75 0C393.861 0 400.972 1.1888 408.083 3.5664V12.1922C401.083 9.0404 393.611 7.4646 385.667 7.4646C377.556 7.4646 371.125 9.5104 366.375 13.6022C361.625 17.6939 359.25 22.8914 359.25 29.195C359.25 35.277 360.875 40.115 364.125 43.709C367.375 47.303 374.389 52.197 385.167 58.39C396.333 64.693 403.764 70.292 407.458 75.185C411.153 80.079 413 85.705 413 92.063C413 101.187 409.819 108.624 403.458 114.374C397.097 120.125 388.111 123 376.5 123C372.389 123 367.653 122.364 362.292 121.092C356.931 119.821 352.833 118.355 350 116.697ZM53.828 18.7629H88V2H0V18.7629H34.089V121H53.828V18.7629ZM119.5 134.606L158 36H138.5L117.167 97.919C116.661 99.817 116.264 101.362 115.977 102.555L115.667 103.895H115.25C114.806 101.998 114.452 100.516 114.189 99.45L113.75 97.753L93.417 36H72L105.917 120.827L100.167 134.772C96.611 141.854 91.222 145.396 84 145.396C81.5 145.396 78.722 144.898 75.667 143.902V159.921C78.389 160.64 81.778 161 85.833 161C100.278 161 111.5 152.202 119.5 134.606ZM189.647 108.406H189.314V160H170V35.991H189.314V50.922H189.647C196.251 39.64 205.908 34 218.618 34C229.44 34 237.876 37.788 243.926 45.364C249.975 52.94 253 63.115 253 75.889C253 90.046 249.587 101.382 242.76 109.899C235.934 118.415 226.61 122.673 214.788 122.673C203.91 122.673 195.53 117.917 189.647 108.406ZM189 85.889V75.411C189 68.151 191.093 62.101 195.28 57.26C199.466 52.42 204.997 50 211.873 50C218.361 50 223.504 52.351 227.302 57.054C231.101 61.757 233 68.261 233 76.566C233 86.467 230.962 94.181 226.887 99.708C222.811 105.236 217.197 108 210.043 108C203.944 108 198.912 105.855 194.947 101.565C190.982 97.275 189 92.049 189 85.889ZM340 83.73H282.394C282.615 91.59 285.022 97.65 289.616 101.912C294.21 106.174 300.523 108.305 308.556 108.305C317.58 108.305 325.86 105.593 333.398 100.169V115.694C325.695 120.565 315.516 123 302.862 123C290.427 123 280.675 119.139 273.605 111.418C266.535 103.697 263 92.835 263 78.832C263 65.604 266.893 54.825 274.678 46.495C282.463 38.165 292.133 34 303.687 34C315.241 34 324.182 37.736 330.509 45.208C336.836 52.68 340 63.058 340 76.341V83.73ZM317.146 53.792C320.327 57.653 321.945 63.056 322 70H283C283.878 63.444 286.223 58.139 290.035 54.083C293.847 50.028 298.496 48 303.981 48C309.576 48 313.964 49.931 317.146 53.792ZM461.907 123C470.72 123 478.306 121.066 484.665 117.199V109.244C478.306 113.774 470.832 116.039 462.242 116.039C452.87 116.039 445.326 112.697 439.609 106.012C433.891 99.327 431.032 90.488 431.032 79.494C431.032 68.114 434.156 58.847 440.404 51.692C446.651 44.538 454.795 40.961 464.835 40.961C472.143 40.961 478.864 42.839 485 46.596V37.978C478.864 35.326 472.533 34 466.007 34C453.4 34 443.081 38.295 435.049 46.886C427.016 55.477 423 66.512 423 79.992C423 92.809 426.57 103.181 433.71 111.108C440.85 119.036 450.249 123 461.907 123ZM535 43.667C532.46 41.833 529.479 40.917 526.056 40.917C519.375 40.917 513.772 44.389 509.244 51.333C504.717 58.278 502.453 68.139 502.453 80.917V121H495V35.667H502.453V54.583H502.785C504.717 48.083 507.781 43.028 511.977 39.417C516.173 35.806 521.032 34 526.553 34C529.7 34 532.516 34.5 535 35.5V43.667ZM546.942 13.1184C548.236 14.3728 549.727 15 551.416 15C553.216 15 554.764 14.3443 556.058 13.0329C557.353 11.7215 558 10.1535 558 8.3289C558 6.3903 557.339 4.8509 556.016 3.7105C554.694 2.5702 553.16 2 551.416 2C549.784 2 548.306 2.5844 546.984 3.7533C545.661 4.9222 545 6.4474 545 8.3289C545 10.2676 545.647 11.864 546.942 13.1184ZM547 121V36H555V121H547ZM580.624 105.87H580.955C587.032 117.309 596.424 123.029 609.13 123.029C620.51 123.029 629.667 118.649 636.6 109.89C643.533 101.131 647 89.65 647 75.447C647 62.682 643.975 52.582 637.926 45.149C631.877 37.716 623.466 34 612.693 34C605.898 34 599.669 35.699 594.007 39.098C588.344 42.497 583.994 47.318 580.955 53.563H580.624V36.072H573V160H580.624V105.87ZM581 74.278V84.957C581 93.456 583.706 100.754 589.118 106.853C594.53 112.951 601.643 116 610.458 116C619.218 116 626.331 112.289 631.799 104.866C637.266 97.443 640 87.689 640 75.603C640 65.007 637.489 56.591 632.468 50.354C627.447 44.118 620.752 41 612.383 41C602.396 41 594.669 44.311 589.201 50.934C583.734 57.556 581 65.338 581 74.278ZM683.874 123C687.335 123 691.044 122.062 695 120.186V113.067C691.374 115.109 687.995 116.13 684.863 116.13C680.467 116.13 677.349 114.819 675.508 112.198C673.668 109.577 672.747 105.342 672.747 99.492V43.537H695V36.584H672.747V12C671.538 12.4415 670.275 12.8553 668.956 13.2416C667.637 13.6831 666.374 14.1245 665.165 14.566V36.584H650V43.537H665.165V100.485C665.165 115.495 671.401 123 683.874 123Z" fill="#3178C6"/>
</svg>
