<svg width="45" height="42" viewBox="0 0 45 42" fill="none" xmlns="http://www.w3.org/2000/svg">
<g clip-path="url(#clip0_1662_1245)">
<path d="M24.3269 6.5166C24.8564 6.5166 25.2872 6.93925 25.3003 7.4656L25.3006 7.49035V18.6356C25.3006 19.1651 24.878 19.5959 24.3516 19.6091L24.3269 19.6094H15.2389C14.7094 19.6094 14.2786 19.1867 14.2654 18.6604L14.2651 18.6356V7.49035C14.2651 6.96084 14.6878 6.53004 15.2141 6.51691L15.2389 6.5166H24.3269ZM24.3269 6.94984H15.2389C14.9467 6.94984 14.7086 7.1813 14.6979 7.47095L14.6975 7.49035V18.6356C14.698 18.9279 14.9297 19.166 15.2195 19.1766L15.2389 19.177H24.3269C24.6192 19.1765 24.8572 18.9448 24.8679 18.655L24.8682 18.6356V7.49035C24.8678 7.1917 24.6256 6.94984 24.3269 6.94984ZM16.5369 16.9043V17.553H15.8875V16.9043H16.5369ZM23.7864 16.9043V17.553H16.8621V16.9043H23.7864ZM16.5369 14.0912V14.7398H15.8875V14.0912H16.5369ZM23.7864 14.0912V14.7398H16.8621V14.0912H23.7864ZM16.5369 11.3862V12.0348H15.8875V11.3862H16.5369ZM23.7864 11.3862V12.0348H16.8621V11.3862H23.7864ZM23.7864 8.89734V9.54678H15.8875V8.89734H23.7864Z" fill="#A0A0A0"/>
<path d="M24.3269 21.8799V21.8866C24.8538 21.8866 25.2836 22.3053 25.3002 22.829L25.3006 22.8536V33.9989C25.3006 34.5284 24.878 34.9592 24.3516 34.9724L24.3269 34.9727H15.2389C14.9806 34.9727 14.733 34.8701 14.5503 34.6875C14.3748 34.5119 14.2731 34.2761 14.2656 34.0287L14.2651 33.9989V22.8536C14.2651 22.3241 14.6878 21.8933 15.2141 21.8802L15.2389 21.8799H24.3269ZM24.3269 22.3131H15.2389C14.9467 22.3131 14.7086 22.5446 14.6979 22.8342L14.6975 22.8536V33.9989C14.698 34.2912 14.9297 34.5292 15.2195 34.5399L15.2389 34.5403H24.3269C24.6179 34.5398 24.8554 34.3101 24.8678 34.0216L24.8682 34.0023V22.857C24.8678 22.5648 24.636 22.327 24.3463 22.3168L24.3269 22.3165V22.3131ZM16.5369 32.2701V32.9196H15.8875V32.2701H16.5369ZM23.7864 32.2752V32.9146H16.8621V32.2752H23.7864ZM16.5369 29.457V30.1064H15.8875V29.457H16.5369ZM23.7864 29.462V30.1014H16.8621V29.462H23.7864ZM16.5369 26.7528V27.4014H15.8875V26.7528H16.5369ZM23.7864 26.7578V27.3964H16.8621V26.7578H23.7864ZM23.7864 24.264V24.9134H15.8875V24.264H23.7864Z" fill="#A0A0A0"/>
<path d="M26.9478 13.063V13.6035H30.1933V28.304H26.9478V28.8453H30.1933H30.7346V28.304V13.6035V13.063H30.1933H26.9478Z" fill="#A0A0A0"/>
<path d="M3.82264 3.51941C4.46262 2.46983 5.51681 1.85758 6.58173 1.50206L6.72698 1.45516L6.87213 1.41133C6.94465 1.39018 7.01704 1.37013 7.08918 1.35115L7.23311 1.31459C7.25703 1.30872 7.28091 1.30297 7.30475 1.29733L7.44725 1.26482C7.4709 1.25961 7.49451 1.25452 7.51805 1.24953L7.65862 1.22083L7.79762 1.19455L7.93482 1.17059L8.06999 1.14885L8.20291 1.12922L8.33335 1.11161L8.46108 1.0959L8.58587 1.082L8.7075 1.06982L8.88352 1.05451L9.05114 1.04248L9.2096 1.03337L9.38186 1.02598L9.53939 1.02156L9.63562 1.02L9.7244 1.01935H9.80536L9.91137 1.02067L9.97123 1.02196L10.0804 1.02564L10.1285 1.02806V3.62584C7.83086 3.40721 6.80565 4.10115 6.35354 4.84076L6.31281 4.91021C6.25417 5.0145 6.20643 5.11915 6.16765 5.22177L6.14311 5.28985C6.13923 5.30113 6.13546 5.31239 6.13179 5.32361L6.11098 5.39048L6.09251 5.45635L6.07624 5.52107C6.07371 5.53174 6.07126 5.54237 6.06889 5.55294L6.05569 5.61561C6.05365 5.62593 6.05169 5.63618 6.04981 5.64637L6.03939 5.70664L6.03066 5.76512L6.0235 5.82165L6.01542 5.90242L6.01013 5.97791L6.00753 6.03709L6.00636 6.09181L6.00636 6.14173L6.00726 6.18654L6.00881 6.22591L6.01179 6.27407L6.01734 6.33087L6.01725 7.28523L6.01166 9.2337L6.00487 10.6378L5.99691 11.819L5.9882 12.8172L5.97974 13.6032L5.96976 14.3682L5.95953 15.0205L5.94636 15.7117L5.93824 16.0718L5.92952 16.412L5.91823 16.791L5.91426 16.9097L5.91387 17.129L5.91268 17.2633L5.9112 17.3539L5.90759 17.4912L5.90219 17.6237L5.89781 17.7046L5.89248 17.7857L5.8861 17.8671L5.87439 17.9896L5.86501 18.0715L5.85426 18.1534L5.84205 18.2353C5.83989 18.249 5.83766 18.2626 5.83537 18.2763L5.8208 18.3581C5.81823 18.3718 5.81559 18.3854 5.81288 18.399L5.79573 18.4807L5.77676 18.5622L5.75585 18.6434C5.74855 18.6704 5.74092 18.6973 5.73293 18.7242L5.7079 18.8048L5.68066 18.8849L5.65113 18.9645C5.31841 19.8243 4.565 20.59 2.85895 20.9446C4.5186 21.2892 5.27672 22.0222 5.62303 22.8525L5.65479 22.9319C5.68533 23.0115 5.71227 23.092 5.73604 23.1729L5.75878 23.2541C5.77325 23.3083 5.78637 23.3627 5.79827 23.4173L5.81523 23.4992C5.81791 23.5128 5.82051 23.5265 5.82305 23.5402L5.83743 23.6223L5.85021 23.7045L5.86149 23.7866L5.87137 23.8687L5.87992 23.9507L5.88726 24.0325L5.89347 24.1141L5.90087 24.236L5.90468 24.3168L5.90933 24.4522L5.9114 24.5417L5.91279 24.6304L5.9139 24.762L5.91426 24.9804L5.92587 25.3608L5.93624 25.7626L5.9458 26.1934L5.95458 26.6495L5.96388 27.2087L5.97657 28.1325L5.98533 28.9154L5.98962 29.3559L5.99883 30.4809L6.00879 32.1501L6.01566 33.9568L6.01818 33.9553V35.5575L6.0156 35.5802L6.01263 35.6143L6.01059 35.6449L6.0081 35.7018L6.00719 35.7466L6.0072 35.7966L6.00837 35.8513L6.01097 35.9105L6.01617 35.985L6.02113 36.0375L6.0311 36.1203L6.03963 36.178L6.04979 36.2374L6.06173 36.2984C6.06387 36.3087 6.06609 36.319 6.06839 36.3294L6.08321 36.3926C6.08585 36.4032 6.08857 36.4139 6.09138 36.4246L6.10935 36.4895L6.12958 36.5554C6.13315 36.5665 6.13682 36.5776 6.14059 36.5887L6.16444 36.6558C6.17281 36.6783 6.1816 36.7009 6.19085 36.7235L6.21996 36.7917C6.5808 37.6008 7.53265 38.4748 9.99452 38.2745L10.1294 38.2625V40.8603L10.0604 40.8636L9.93249 40.8674L9.82729 40.8691H9.70235L9.60876 40.8681L9.50737 40.8662L9.3986 40.8631L9.25732 40.8574L9.15777 40.8524L9.05416 40.8462L8.94671 40.8388L8.83562 40.8301L8.7211 40.82L8.60336 40.8083L8.4826 40.7951L8.35904 40.7802L8.23288 40.7635C8.21165 40.7605 8.19032 40.7575 8.16889 40.7544L8.03923 40.7349C8.01744 40.7315 7.99557 40.7279 7.97361 40.7243L7.84091 40.7017C7.81864 40.6978 7.7963 40.6937 7.77389 40.6896L7.63862 40.6637C7.61595 40.6592 7.59322 40.6546 7.57043 40.6499L7.43306 40.6206L7.29455 40.5888C7.24822 40.5777 7.20173 40.5663 7.15512 40.5544L7.01495 40.5175C5.72746 40.1664 4.37506 39.4728 3.67934 38.1134C3.83018 36.4424 4.51733 35.0178 5.75169 34.1312C5.80979 34.0903 5.86864 34.0505 5.92823 34.0121L5.9955 33.9693C5.91196 34.021 5.82985 34.0755 5.74918 34.1329C4.51733 35.0178 3.83018 36.4424 3.67934 38.1067C3.36964 37.4813 3.20738 36.7933 3.20504 36.0955L3.18956 35.3793L3.16945 34.5111L3.14429 33.4949L3.11003 32.1997L3.07858 31.0763L3.03527 29.6055L2.98645 28.0301L2.90479 25.551L2.88492 24.9762C2.8366 23.6748 2.31423 23.0408 1.7706 22.7348L1.70658 22.7003C1.6959 22.6948 1.68522 22.6894 1.67454 22.6842L1.61053 22.6539C1.58922 22.6443 1.56794 22.6352 1.54673 22.6265L1.4833 22.6016C1.46224 22.5937 1.44127 22.5862 1.42042 22.5792L1.35825 22.5591C1.33766 22.5528 1.31721 22.5469 1.29694 22.5413L1.24834 22.5284L1.20049 22.5169L1.15348 22.5066L1.1074 22.4975L1.0402 22.4859L0.996801 22.4794L0.95463 22.4739L0.893856 22.4672L0.840332 22.467L0.730836 22.4657C0.675199 22.465 0.618154 22.4646 0.559373 22.4657L0.5 22.4672V19.4228C0.642459 19.4278 0.769833 19.4253 0.893856 19.4186L0.95463 19.412L0.996801 19.4064L1.0402 19.4L1.1074 19.3884L1.15348 19.3792L1.20049 19.3689L1.24834 19.3574L1.29694 19.3446L1.35825 19.3268L1.42042 19.3067L1.4833 19.2843C2.1151 19.048 2.82808 18.4408 2.88492 16.9097L2.959 14.7081L3.01603 12.9095L3.047 11.8888L3.09437 10.2515L3.12546 9.1127L3.14798 8.2453L3.17632 7.08399L3.19275 6.36191L3.20504 5.78953C3.22388 4.8874 3.44622 4.15512 3.79921 3.56057L3.8228 3.5213L3.82264 3.51941ZM34.8706 3.5831V0.985324L34.9405 0.981992L35.0375 0.978946L35.1003 0.977673L35.2113 0.976562H35.296L35.3888 0.97748L35.532 0.98044L35.7145 0.986934L35.8123 0.991636L35.9142 0.99743L36.0742 1.00837L36.1854 1.0173L36.2999 1.02764L36.4175 1.03949L36.5381 1.05293L36.6615 1.06806L36.7874 1.08498L36.9156 1.10377L37.0459 1.12452C37.0678 1.12815 37.0898 1.13186 37.1118 1.13566L37.2449 1.15953L37.3797 1.1856L37.5158 1.21395L37.6532 1.24469L37.7916 1.27789C37.861 1.29512 37.9306 1.31332 38.0005 1.33252L38.1405 1.3723C39.4484 1.75646 40.793 2.5054 41.4246 3.95517C41.6649 4.52183 41.7908 5.13044 41.795 5.74595L41.8104 6.46228L41.8306 7.33057L41.8447 7.91154L41.8669 8.7811L41.8978 9.92633L41.9214 10.7658L41.9647 12.2367L42.0136 13.8121L42.0952 16.2913L42.1151 16.8661C42.1642 18.1892 42.7033 18.822 43.2565 19.1221L43.3204 19.1553C43.3311 19.1606 43.3417 19.1657 43.3524 19.1708L43.4161 19.1998L43.4796 19.2261C43.4901 19.2302 43.5007 19.2343 43.5112 19.2383L43.5739 19.2609C43.5843 19.2644 43.5947 19.2679 43.6051 19.2713L43.6667 19.2904C43.6769 19.2934 43.6871 19.2963 43.6972 19.2991L43.7876 19.3223L43.8465 19.3354L43.904 19.3467L43.9598 19.3563L44.0032 19.3628L44.0454 19.3683L44.1061 19.3751C44.2125 19.3808 44.3231 19.3835 44.4406 19.3809L44.5 19.3792V22.4245C44.3575 22.4195 44.2302 22.422 44.1061 22.4287L44.066 22.4329L44.0244 22.438L43.9598 22.4473L43.8926 22.459L43.8465 22.4681L43.7995 22.4784L43.7517 22.4899L43.7031 22.5027L43.6725 22.5114L43.6108 22.5303C43.6004 22.5336 43.59 22.5371 43.5796 22.5406L43.5167 22.563C43.5062 22.567 43.4956 22.571 43.485 22.5752L43.4214 22.6013C42.8152 22.8624 42.1691 23.4831 42.1151 24.9376L42.041 27.1381L41.984 28.9368L41.953 29.9576L41.9056 31.595L41.8745 32.7339L41.852 33.6014L41.8237 34.7626L41.8072 35.4847L41.795 36.0569C41.7902 36.5924 41.6951 37.123 41.5139 37.6266L41.4921 37.6856L41.4933 37.691C40.8455 39.3643 39.2785 40.1509 37.8316 40.5171L37.6897 40.5517C37.6661 40.5573 37.6426 40.5628 37.6191 40.5681L37.4788 40.5989C37.4555 40.6038 37.4323 40.6086 37.4091 40.6134L37.2709 40.6405C37.248 40.6448 37.2251 40.649 37.2024 40.6532L37.0667 40.6769C37.0442 40.6806 37.0219 40.6843 36.9996 40.6879L36.8669 40.7084L36.7366 40.7268L36.6088 40.7433L36.4838 40.758L36.3618 40.771L36.2429 40.7824L36.0711 40.7966L35.9612 40.8043L35.8038 40.8135L35.6561 40.8201L35.4754 40.8256L35.3727 40.8273L35.2783 40.828H35.1926L35.1162 40.8271L35.0494 40.8259L34.9682 40.8235L34.8975 40.8206L34.8731 40.8193V38.2215C37.2785 38.4504 38.2893 37.6791 38.708 36.9023L38.7439 36.8328C38.7554 36.8096 38.7664 36.7865 38.7768 36.7634L38.8068 36.6942C38.8163 36.6713 38.8254 36.6484 38.834 36.6256L38.8586 36.5575L38.8806 36.4902C38.8841 36.479 38.8874 36.4679 38.8907 36.4568L38.9092 36.391L38.9254 36.3263L38.9396 36.2629L38.9519 36.201L38.9623 36.1407L38.971 36.0822L38.9782 36.0257L38.9863 35.9449L38.9901 35.894L38.9941 35.8102L38.9953 35.7555L38.9953 35.7056L38.9944 35.6608L38.9929 35.6214L38.9909 35.5878L38.9869 35.5391L38.9843 35.5164V34.0919L38.9884 32.7654L38.9949 31.3969L39.0025 30.2434L39.0126 29.0658L39.0244 28.0091L39.0327 27.3946L39.0404 26.8997L39.0506 26.3322L39.058 25.973L39.0659 25.6313L39.0744 25.3091L39.0857 24.9368L39.0861 24.7184L39.0873 24.5855L39.0887 24.4958L39.0909 24.4054L39.0957 24.2686L39.1002 24.1767L39.1052 24.0949L39.1111 24.0129L39.1182 23.9306L39.1265 23.8481L39.1362 23.7655L39.1472 23.6828C39.1491 23.6691 39.1511 23.6553 39.1532 23.6415L39.1665 23.5588L39.1815 23.4762L39.1981 23.3937L39.2167 23.3115C39.2394 23.2156 39.266 23.1202 39.2972 23.0257L39.3252 22.945C39.364 22.8376 39.4091 22.7316 39.4615 22.6275L39.5021 22.5499C39.8949 21.8284 40.6581 21.2093 42.1411 20.901C40.2707 20.5127 39.5453 19.6313 39.264 18.6733L39.2412 18.5921C39.2267 18.5379 39.2136 18.4835 39.2017 18.429L39.1848 18.3471C39.1821 18.3334 39.1795 18.3198 39.177 18.3061L39.1626 18.224L39.1498 18.1419L39.1385 18.0597L39.1286 17.9776L39.1201 17.8957L39.1127 17.8138L39.1065 17.7323L39.0991 17.6104L39.0953 17.5296L39.0907 17.3942L39.0886 17.3048L39.0872 17.2161L39.0861 17.0845L39.0857 16.8661L39.0778 16.6123L39.0689 16.2895L39.0589 15.8741L39.0498 15.4318L39.0414 14.966L39.0313 14.3151L39.0195 13.3791L39.0106 12.5044L39.0022 11.4911L38.9914 9.68935L38.9843 7.73702C39.1321 7.65542 39.2753 7.5659 39.4134 7.46887C40.1016 6.97573 40.6198 6.31133 40.9693 5.52972L40.9933 5.475C40.6435 6.28042 40.1167 6.96456 39.4109 7.4697C39.2958 7.55057 39.1772 7.62621 39.0553 7.6964L38.9818 7.73786V6.28814L38.9844 6.26544L38.9874 6.23133L38.9894 6.20072L38.9919 6.1438L38.9928 6.099V6.04907L38.9916 5.99436L38.989 5.93517L38.9858 5.8861L38.9789 5.80811L38.9689 5.7253L38.9604 5.66766L38.9502 5.60827L38.9383 5.54727C38.9361 5.53697 38.9339 5.52662 38.9316 5.51621L38.9168 5.45308C38.9142 5.44246 38.9114 5.43178 38.9086 5.42105L38.8906 5.35614L38.8704 5.29024C38.8668 5.27918 38.8632 5.26808 38.8594 5.25696L38.8356 5.18985C38.8272 5.16736 38.8184 5.14478 38.8091 5.12212L38.78 5.05393C38.4192 4.24488 37.4674 3.37089 35.0055 3.57119L34.8706 3.5831Z" fill="#A0A0A0"/>
<path d="M5.85714 7.17981C5.88312 7.19866 5.90972 7.21647 5.93654 7.23386L6.0172 7.28539V6.33092L6.01462 6.30823L6.01165 6.27412L6.00961 6.24351L6.00712 6.18659L6.00621 6.14178L6.00622 6.09186L6.00739 6.03714L6.00999 5.97796L6.01322 5.92825L6.01764 5.87611L6.02336 5.8217L6.03052 5.76517L6.03925 5.70669L6.04967 5.64642L6.06191 5.58451C6.06411 5.57406 6.06639 5.56355 6.06875 5.55299L6.08397 5.48891L6.10132 5.4236C6.1044 5.41262 6.10757 5.4016 6.11084 5.39053L6.13165 5.32366C6.13532 5.31244 6.13909 5.30118 6.14297 5.2899L6.16751 5.22182C6.20629 5.1192 6.25403 5.01454 6.31267 4.91026L6.35339 4.84081C6.80551 4.1012 7.83072 3.40726 10.1284 3.62589V1.02811L10.0802 1.02569L9.99764 1.02273L9.94227 1.02133L9.80522 1.0195L9.72426 1.0194L9.63548 1.02005L9.48845 1.02279L9.354 1.02704L9.20946 1.03342L9.051 1.04253L8.88338 1.05456L8.76692 1.06438L8.58573 1.08205L8.46094 1.09595L8.33321 1.11166L8.20277 1.12927L8.06985 1.1489L7.93468 1.17064L7.79748 1.1946L7.65848 1.22088L7.51791 1.24958C7.49437 1.25457 7.47076 1.25966 7.44711 1.26486L7.30461 1.29738C7.28077 1.30302 7.25688 1.30877 7.23297 1.31464L7.08904 1.3512C7.0169 1.37018 6.9445 1.39023 6.87199 1.41138L6.72684 1.45521L6.58159 1.50211C5.51666 1.85763 4.46248 2.46988 3.8225 3.51946C4.02948 5.05215 4.7049 6.35858 5.85714 7.17981ZM10.1292 40.8604V38.2626C7.61615 38.5017 6.6253 37.6491 6.24161 36.8392L6.21019 36.7699C6.1952 36.7353 6.18128 36.7009 6.16835 36.6667L6.1438 36.5986C6.13993 36.5873 6.13615 36.576 6.13249 36.5648L6.11168 36.4979L6.09321 36.4321L6.07694 36.3674L6.06275 36.304L6.05051 36.2421L6.04009 36.1818L6.03136 36.1233L6.0242 36.0668L6.01611 35.986L6.01083 35.9105L6.00823 35.8513L6.00706 35.7966L6.00705 35.7467L6.00796 35.7019L6.00951 35.6625L6.01145 35.6289L6.01546 35.5802L6.01803 35.5561V33.9553C5.92753 34.0112 5.8387 34.0698 5.75155 34.1313C4.51719 35.0179 3.83004 36.4425 3.6792 38.1134C4.37492 39.4728 5.72732 40.1664 7.01481 40.5175L7.15497 40.5545C7.20159 40.5664 7.24808 40.5778 7.29441 40.5888L7.43292 40.6206L7.57029 40.65L7.70631 40.677C7.72885 40.6813 7.75133 40.6855 7.77375 40.6897L7.90735 40.7134C7.92947 40.7171 7.95151 40.7208 7.97347 40.7244L8.10419 40.7449C8.12581 40.7482 8.14733 40.7514 8.16875 40.7545L8.29613 40.7721C8.31716 40.7749 8.33808 40.7776 8.3589 40.7802L8.48246 40.7952L8.60321 40.8084L8.72096 40.82L8.83548 40.8301L8.94657 40.8389L9.05402 40.8463L9.15763 40.8524L9.30537 40.8596L9.39845 40.8631L9.50723 40.8662L9.60861 40.8682L9.70221 40.8691L9.82715 40.8689L9.93235 40.8674L10.0165 40.8652L10.1292 40.8604ZM41.4244 3.95522C40.7526 2.41316 39.2742 1.66401 37.8912 1.30334L37.7533 1.26855L37.6162 1.23627C37.5934 1.23109 37.5707 1.22601 37.548 1.22103L37.4125 1.19233C37.39 1.18774 37.3676 1.18324 37.3453 1.17883L37.2119 1.15351L37.0801 1.13032L36.9502 1.10919L36.8223 1.09002L36.6967 1.07271L36.5735 1.05719L36.453 1.04336L36.3353 1.03113L36.2206 1.02042L36.0547 1.00698L35.8969 0.996436L35.7476 0.988486L35.6077 0.982825L35.52 0.980172L35.4143 0.977919L35.3167 0.976779L35.2275 0.976562L35.1473 0.977081L35.0764 0.978145L34.9885 0.980349L34.9239 0.982714L34.8705 0.985374V3.58315C37.3836 3.34403 38.3744 4.1966 38.7581 5.00658L38.7895 5.07587C38.8045 5.11044 38.8184 5.14487 38.8314 5.17908L38.8559 5.24716C38.8598 5.25845 38.8636 5.2697 38.8672 5.28092L38.888 5.3478L38.9065 5.41367L38.9228 5.47838L38.937 5.54177L38.9492 5.60368L38.9596 5.66396L38.9684 5.72243L38.9755 5.77896L38.9836 5.85973L38.9889 5.93522L38.9915 5.99441L38.9927 6.04912L38.9927 6.09904L38.9918 6.14385L38.9902 6.18322L38.9872 6.23138L38.9817 6.28857V7.73791C39.1294 7.65631 39.2726 7.56679 39.4107 7.46975C40.5278 6.67031 41.1965 5.42254 41.4244 3.95522ZM39.5214 34.4212C39.35 34.2994 39.1705 34.1893 38.9842 34.0919V35.5165L38.9868 35.5392L38.9897 35.5733L38.9918 35.6039L38.9943 35.6608L38.9952 35.7056L38.9952 35.7556L38.994 35.8103L38.9899 35.894L38.9861 35.9449L38.978 36.0257L38.9709 36.0822L38.9621 36.1407L38.9517 36.201L38.9395 36.2629L38.9253 36.3263L38.909 36.391L38.8906 36.4569C38.8873 36.468 38.8839 36.4791 38.8804 36.4902L38.8584 36.5575L38.8339 36.6256C38.8253 36.6484 38.8162 36.6713 38.8067 36.6943L38.7767 36.7634C38.7662 36.7865 38.7553 36.8097 38.7438 36.8328L38.7079 36.9024C38.2892 37.6792 37.2784 38.4504 34.873 38.2215V40.8193L34.9115 40.8213L35.0222 40.8252L35.1581 40.8277L35.2407 40.8281L35.3815 40.8273L35.4861 40.8254L35.5987 40.8222L35.7381 40.8167L35.887 40.8089L35.9912 40.8023L36.1543 40.7901L36.2673 40.7802L36.3834 40.7689L36.5026 40.756L36.6245 40.7414L36.749 40.7252L36.8759 40.7071L37.005 40.687C37.0267 40.6835 37.0484 40.68 37.0703 40.6763L37.2022 40.6532L37.3358 40.628C37.3582 40.6236 37.3807 40.6192 37.4032 40.6146L37.5389 40.586C37.5616 40.581 37.5844 40.576 37.6072 40.5708L37.7446 40.5386C39.2152 40.1821 40.8324 39.3979 41.4931 37.6911C41.2317 36.3277 40.573 35.1746 39.5214 34.4212Z" fill="#EDEDED"/>
</g>
<defs>
<clipPath id="clip0_1662_1245">
<rect width="44" height="40.0469" fill="white" transform="translate(0.5 0.976562)"/>
</clipPath>
</defs>
</svg>
