<svg width="32" height="32" viewBox="0 0 32 32" fill="none" xmlns="http://www.w3.org/2000/svg">
<path d="M0 0H32V32H0V0Z" fill="url(#paint0_linear_2212_4406)"/>
<path d="M15.3646 11.8503H16.8996V14.5003H12.7496V26.2903L12.6396 26.3203C12.4896 26.3603 10.5146 26.3603 10.0896 26.3153L9.74962 26.2853V14.5003H5.59961V11.8503L6.91461 11.8353C7.63461 11.8253 9.48462 11.8253 11.0246 11.8353C12.5646 11.8453 14.5146 11.8503 15.3646 11.8503ZM27.0796 25.0403C26.4696 25.6853 25.8146 26.0453 24.7246 26.3403C24.2496 26.4703 24.1696 26.4753 23.0996 26.4703C22.0296 26.4653 21.9446 26.4653 21.4246 26.3303C20.0796 25.9853 18.9946 25.3103 18.2546 24.3553C18.0446 24.0853 17.6996 23.5253 17.6996 23.4553C17.6996 23.4353 17.7496 23.3903 17.8146 23.3603C17.8796 23.3303 18.0146 23.2453 18.1246 23.1803C18.2346 23.1153 18.4346 22.9953 18.5696 22.9253C18.7046 22.8553 19.0946 22.6253 19.4346 22.4203C19.7746 22.2153 20.0846 22.0503 20.1196 22.0503C20.1546 22.0503 20.2196 22.1203 20.2696 22.2053C20.5696 22.7103 21.2696 23.3553 21.7646 23.5753C22.0696 23.7053 22.7446 23.8503 23.0696 23.8503C23.3696 23.8503 23.9196 23.7203 24.2146 23.5853C24.5296 23.4403 24.6896 23.2953 24.8796 23.0053C25.0096 22.8003 25.0246 22.7453 25.0196 22.3553C25.0196 21.9953 24.9996 21.8953 24.8996 21.7303C24.6196 21.2703 24.2396 21.0303 22.6996 20.3503C21.1096 19.6453 20.3946 19.2253 19.8146 18.6603C19.3846 18.2403 19.2996 18.1253 19.0296 17.6003C18.6796 16.9253 18.6346 16.7053 18.6296 15.7003C18.6246 14.9953 18.6396 14.7653 18.7146 14.5253C18.8196 14.1653 19.1596 13.4703 19.3146 13.2953C19.6346 12.9203 19.7496 12.8053 19.9746 12.6203C20.6546 12.0603 21.7146 11.6903 22.7296 11.6553C22.8446 11.6553 23.2246 11.6753 23.5796 11.7003C24.5996 11.7853 25.2946 12.0353 25.9646 12.5703C26.4696 12.9703 27.2346 13.9103 27.1596 14.0353C27.1096 14.1103 25.1146 15.4403 24.9846 15.4803C24.9046 15.5053 24.8496 15.4753 24.7396 15.3453C24.0596 14.5303 23.7846 14.3553 23.1246 14.3153C22.6546 14.2853 22.4046 14.3403 22.0896 14.5503C21.7596 14.7703 21.5996 15.1053 21.5996 15.5703C21.6046 16.2503 21.8646 16.5703 22.8246 17.0453C23.4446 17.3503 23.9746 17.6003 24.0146 17.6003C24.0746 17.6003 25.3596 18.2403 25.6946 18.4403C27.2546 19.3553 27.8896 20.2953 28.0546 21.9153C28.1746 23.1353 27.8296 24.2503 27.0796 25.0403Z" fill="white"/>
<defs>
<linearGradient id="paint0_linear_2212_4406" x1="32" y1="16.0003" x2="2.5" y2="16.0003" gradientUnits="userSpaceOnUse">
<stop stop-color="#8448F8"/>
<stop offset="1" stop-color="#5065FF"/>
</linearGradient>
</defs>
</svg>
