<svg width="67" height="67" viewBox="0 0 67 67" fill="none" xmlns="http://www.w3.org/2000/svg">
    <path d="M49.2401 25.7287L33.2963 17.7568L17.3524 25.7287L33.2963 33.7006L49.2401 25.7287Z" fill="#4D4D4D"
        stroke="#161616" stroke-width="2" stroke-miterlimit="1" />
    <path d="M49.2401 25.7282L33.2962 17.7563V1.8125L49.2401 9.7844V25.7282Z" fill="#999999" stroke="#161616"
        stroke-width="2" stroke-miterlimit="1" />
    <path d="M33.2963 17.7563L17.3525 25.7282V9.7844L33.2963 1.8125V17.7563Z" fill="#999999" stroke="#161616"
        stroke-width="2" stroke-miterlimit="1" />
    <path d="M33.2963 33.6999L17.3524 25.728V9.78418L33.2963 17.7561V33.6999Z" fill="white" stroke="#161616"
        stroke-width="2" stroke-miterlimit="1" />
    <path d="M33.2962 33.6999L49.2401 25.728V9.78418L33.2962 17.7561V33.6999Z" fill="#FFBE0B" stroke="#161616"
        stroke-width="2" stroke-miterlimit="1" />
    <path d="M49.2401 9.7844L33.2963 1.8125L17.3525 9.7844L33.2963 17.7563L49.2401 9.7844Z" fill="white"
        stroke="#161616" stroke-width="2" stroke-miterlimit="1" />
    <path d="M65.0929 49.7112L49.1491 41.7393L33.2053 49.7112L49.1491 57.6831L65.0929 49.7112Z" fill="#4D4D4D"
        stroke="#161616" stroke-width="2" stroke-miterlimit="1" />
    <path d="M65.0929 49.7106L49.1491 41.7387V25.7949L65.0929 33.7668V49.7106Z" fill="#999999" stroke="#161616"
        stroke-width="2" stroke-miterlimit="1" />
    <path d="M49.149 41.7387L33.2052 49.7106V33.7668L49.149 25.7949V41.7387Z" fill="#999999" stroke="#161616"
        stroke-width="2" stroke-miterlimit="1" />
    <path d="M49.1491 57.6833L33.2053 49.7114V33.7676L49.1491 41.7395V57.6833Z" fill="white" stroke="#161616"
        stroke-width="2" stroke-miterlimit="1" />
    <path d="M49.1491 57.6833L65.0929 49.7114V33.7676L49.1491 41.7395V57.6833Z" fill="#FFBE0B" stroke="#161616"
        stroke-width="2" stroke-miterlimit="1" />
    <path d="M65.0928 33.7668L49.149 25.7949L33.2052 33.7668L49.149 41.7387L65.0928 33.7668Z" fill="white"
        stroke="#161616" stroke-width="2" stroke-miterlimit="1" />
    <path d="M65.0925 33.6555L49.1487 25.6836L33.2049 33.6555L49.1487 41.6274L65.0925 33.6555Z" fill="#4D4D4D"
        stroke="#161616" stroke-width="2" stroke-miterlimit="1" />
    <path d="M65.0925 33.655L49.1487 25.6831V9.73926L65.0925 17.7112V33.655Z" fill="#999999" stroke="#161616"
        stroke-width="2" stroke-miterlimit="1" />
    <path d="M49.1487 25.6831L33.2049 33.655V17.7112L49.1487 9.73926V25.6831Z" fill="#999999" stroke="#161616"
        stroke-width="2" stroke-miterlimit="1" />
    <path d="M49.1487 41.6266L33.2049 33.6547V17.7109L49.1487 25.6828V41.6266Z" fill="white" stroke="#161616"
        stroke-width="2" stroke-miterlimit="1" />
    <path d="M49.1487 41.6266L65.0925 33.6547V17.7109L49.1487 25.6828V41.6266Z" fill="#FFBE0B" stroke="#161616"
        stroke-width="2" stroke-miterlimit="1" />
    <path d="M65.0925 17.7112L49.1487 9.73926L33.2049 17.7112L49.1487 25.6831L65.0925 17.7112Z" fill="white"
        stroke="#161616" stroke-width="2" stroke-miterlimit="1" />
    <path d="M33.3876 49.9153L17.4438 41.9434L1.49997 49.9153L17.4438 57.8872L33.3876 49.9153Z" fill="#4D4D4D"
        stroke="#161616" stroke-width="2" stroke-miterlimit="1" />
    <path d="M33.3876 49.9147L17.4438 41.9428V25.999L33.3876 33.9709V49.9147Z" fill="#999999" stroke="#161616"
        stroke-width="2" stroke-miterlimit="1" />
    <path d="M17.4438 41.9428L1.49997 49.9147V33.9709L17.4438 25.999V41.9428Z" fill="#999999" stroke="#161616"
        stroke-width="2" stroke-miterlimit="1" />
    <path d="M17.4438 57.8864L1.49997 49.9145V33.9707L17.4438 41.9426V57.8864Z" fill="white" stroke="#161616"
        stroke-width="2" stroke-miterlimit="1" />
    <path d="M17.4438 57.8864L33.3876 49.9145V33.9707L17.4438 41.9426V57.8864Z" fill="#FFBE0B" stroke="#161616"
        stroke-width="2" stroke-miterlimit="1" />
    <path d="M33.3876 33.9709L17.4438 25.999L1.49997 33.9709L17.4438 41.9428L33.3876 33.9709Z" fill="white"
        stroke="#161616" stroke-width="2" stroke-miterlimit="1" />
    <path d="M33.3876 33.8576L17.4438 25.8857L1.49997 33.8576L17.4438 41.8295L33.3876 33.8576Z" fill="#4D4D4D"
        stroke="#161616" stroke-width="2" stroke-miterlimit="1" />
    <path d="M33.3876 33.8571L17.4438 25.8852V9.94141L33.3876 17.9133V33.8571Z" fill="#999999" stroke="#161616"
        stroke-width="2" stroke-miterlimit="1" />
    <path d="M17.4438 25.8852L1.49997 33.8571V17.9133L17.4438 9.94141V25.8852Z" fill="#999999" stroke="#161616"
        stroke-width="2" stroke-miterlimit="1" />
    <path d="M17.4438 41.8288L1.49997 33.8569V17.9131L17.4438 25.885V41.8288Z" fill="white" stroke="#161616"
        stroke-width="2" stroke-miterlimit="1" />
    <path d="M17.4438 41.8288L33.3876 33.8569V17.9131L17.4438 25.885V41.8288Z" fill="#FFBE0B" stroke="#161616"
        stroke-width="2" stroke-miterlimit="1" />
    <path d="M33.3876 17.9133L17.4438 9.94141L1.49997 17.9133L17.4438 25.8852L33.3876 17.9133Z" fill="white"
        stroke="#161616" stroke-width="2" stroke-miterlimit="1" />
    <path d="M49.2401 57.8401L33.2963 49.8682L17.3524 57.8401L33.2963 65.812L49.2401 57.8401Z" fill="#4D4D4D"
        stroke="#161616" stroke-width="2" stroke-miterlimit="1" />
    <path d="M49.2401 57.8395L33.2962 49.8676V33.9238L49.2401 41.8957V57.8395Z" fill="#999999" stroke="#161616"
        stroke-width="2" stroke-miterlimit="1" />
    <path d="M33.2963 49.8676L17.3524 57.8395V41.8957L33.2963 33.9238V49.8676Z" fill="#999999" stroke="#161616"
        stroke-width="2" stroke-miterlimit="1" />
    <path d="M33.2963 65.8112L17.3524 57.8393V41.8955L33.2963 49.8674V65.8112Z" fill="white" stroke="#161616"
        stroke-width="2" stroke-miterlimit="1" />
    <path d="M33.2962 65.8112L49.2401 57.8393V41.8955L33.2962 49.8674V65.8112Z" fill="#FFBE0B" stroke="#161616"
        stroke-width="2" stroke-miterlimit="1" />
    <path d="M49.2401 41.8957L33.2963 33.9238L17.3524 41.8957L33.2963 49.8676L49.2401 41.8957Z" fill="white"
        stroke="#161616" stroke-width="2" stroke-miterlimit="1" />
    <path d="M49.2401 41.7844L33.2963 33.8125L17.3524 41.7844L33.2963 49.7563L49.2401 41.7844Z" fill="#4D4D4D"
        stroke="#161616" stroke-width="2" stroke-miterlimit="1" />
    <path d="M49.2401 41.7839L33.2962 33.812V17.8682L49.2401 25.8401V41.7839Z" fill="#999999" stroke="#161616"
        stroke-width="2" stroke-miterlimit="1" />
    <path d="M33.2963 33.812L17.3525 41.7839V25.8401L33.2963 17.8682V33.812Z" fill="#999999" stroke="#161616"
        stroke-width="2" stroke-miterlimit="1" />
    <path d="M33.2963 49.7555L17.3524 41.7836V25.8398L33.2963 33.8117V49.7555Z" fill="white" stroke="#161616"
        stroke-width="2" stroke-miterlimit="1" />
    <path d="M33.2962 49.7555L49.2401 41.7836V25.8398L33.2962 33.8117V49.7555Z" fill="#FFBE0B" stroke="#161616"
        stroke-width="2" stroke-miterlimit="1" />
    <path d="M49.2401 25.8401L33.2963 17.8682L17.3525 25.8401L33.2963 33.812L49.2401 25.8401Z" fill="white"
        stroke="#161616" stroke-width="2" stroke-miterlimit="1" />
</svg>
