<svg width="517" height="343" viewBox="0 0 517 343" fill="none" xmlns="http://www.w3.org/2000/svg">
<rect width="517" height="343" rx="4" fill="#222222"/>
<path d="M28.8 28.632C29.0987 28.632 29.3387 28.7227 29.52 28.904C29.7013 29.0747 29.792 29.2987 29.792 29.576C29.792 29.8533 29.7013 30.0827 29.52 30.264C29.3387 30.4347 29.0987 30.52 28.8 30.52C28.512 30.52 28.2773 30.4347 28.096 30.264C27.9253 30.0827 27.84 29.8533 27.84 29.576C27.84 29.2987 27.9253 29.0747 28.096 28.904C28.2773 28.7227 28.512 28.632 28.8 28.632ZM29.872 32.568V39.928H32.24V41H25.936V39.928H28.528V33.64H26.016V32.568H29.872ZM40.7458 32.392C41.2258 32.392 41.6151 32.5627 41.9138 32.904C42.2231 33.2347 42.3778 33.8427 42.3778 34.728V41H41.1458V34.952C41.1458 34.3653 41.1084 33.9707 41.0338 33.768C40.9591 33.5547 40.7778 33.448 40.4898 33.448C39.9458 33.448 39.4551 33.784 39.0178 34.456V41H37.7698V34.952C37.7698 34.3653 37.7324 33.9707 37.6578 33.768C37.5831 33.5547 37.4018 33.448 37.1138 33.448C36.5698 33.448 36.0791 33.784 35.6418 34.456V41H34.4098V32.568H35.4498L35.5458 33.56C35.8018 33.1867 36.0684 32.8987 36.3458 32.696C36.6338 32.4933 36.9751 32.392 37.3698 32.392C38.1591 32.392 38.6658 32.7653 38.8898 33.512C39.1458 33.1493 39.4178 32.872 39.7058 32.68C39.9938 32.488 40.3404 32.392 40.7458 32.392ZM48.5635 32.392C50.6008 32.392 51.6195 33.8533 51.6195 36.776C51.6195 38.1093 51.3422 39.176 50.7875 39.976C50.2328 40.776 49.4275 41.176 48.3715 41.176C47.4542 41.176 46.7075 40.856 46.1315 40.216V44.232L44.7875 44.392V32.568H45.9395L46.0515 33.752C46.3608 33.3147 46.7288 32.9787 47.1555 32.744C47.5928 32.5093 48.0622 32.392 48.5635 32.392ZM48.2435 33.48C47.8168 33.48 47.4222 33.608 47.0595 33.864C46.7075 34.12 46.3982 34.44 46.1315 34.824V39C46.3555 39.3307 46.6328 39.592 46.9635 39.784C47.3048 39.9653 47.6728 40.056 48.0675 40.056C48.7715 40.056 49.2942 39.7893 49.6355 39.256C49.9875 38.712 50.1635 37.8853 50.1635 36.776C50.1635 35.6667 50.0088 34.84 49.6995 34.296C49.3902 33.752 48.9048 33.48 48.2435 33.48ZM57.6129 32.392C58.7755 32.392 59.6662 32.7867 60.2849 33.576C60.9142 34.3547 61.2289 35.4213 61.2289 36.776C61.2289 38.0987 60.9089 39.1653 60.2689 39.976C59.6395 40.776 58.7489 41.176 57.5969 41.176C56.4342 41.176 55.5382 40.7867 54.9089 40.008C54.2795 39.2187 53.9649 38.1467 53.9649 36.792C53.9649 35.4587 54.2795 34.392 54.9089 33.592C55.5489 32.792 56.4502 32.392 57.6129 32.392ZM57.6129 33.496C56.8769 33.496 56.3275 33.768 55.9649 34.312C55.6022 34.856 55.4209 35.6827 55.4209 36.792C55.4209 37.9013 55.5969 38.728 55.9489 39.272C56.3115 39.8053 56.8609 40.072 57.5969 40.072C58.3329 40.072 58.8769 39.8053 59.2289 39.272C59.5915 38.728 59.7729 37.896 59.7729 36.776C59.7729 35.6667 59.5915 34.8453 59.2289 34.312C58.8769 33.768 58.3382 33.496 57.6129 33.496ZM69.6866 32.392C70.028 32.392 70.4226 32.4507 70.8706 32.568L70.6786 35.432H69.5906V33.624H69.5106C68.2093 33.624 67.2866 34.552 66.7426 36.408V39.96H68.4546V41H64.0706V39.96H65.3986V33.608H64.0706V32.568H66.4066L66.6626 34.568C67.004 33.8427 67.4093 33.2987 67.8786 32.936C68.3586 32.5733 68.9613 32.392 69.6866 32.392ZM80.2884 40.568C80.0004 40.76 79.6484 40.9093 79.2324 41.016C78.827 41.1227 78.4217 41.176 78.0164 41.176C77.131 41.176 76.4377 40.9467 75.9364 40.488C75.435 40.0187 75.1844 39.4053 75.1844 38.648V33.624H73.2484V32.568H75.1844V30.664L76.5284 30.504V32.568H79.4564L79.2804 33.624H76.5284V38.632C76.5284 39.112 76.6564 39.4693 76.9124 39.704C77.1684 39.9387 77.579 40.056 78.1444 40.056C78.7204 40.056 79.259 39.9227 79.7604 39.656L80.2884 40.568ZM164.904 29.016C165.704 29.016 166.467 29.1653 167.192 29.464L166.76 30.472C166.227 30.2373 165.624 30.12 164.952 30.12C163.779 30.12 163.192 30.584 163.192 31.512V33.224H166.04L165.896 34.296H163.192V41H161.832V34.296H159.832V33.224H161.832V31.544C161.832 30.7867 162.12 30.1787 162.696 29.72C163.283 29.2507 164.019 29.016 164.904 29.016ZM175.218 32.392C175.559 32.392 175.954 32.4507 176.402 32.568L176.21 35.432H175.122V33.624H175.042C173.741 33.624 172.818 34.552 172.274 36.408V39.96H173.986V41H169.602V39.96H170.93V33.608H169.602V32.568H171.938L172.194 34.568C172.535 33.8427 172.941 33.2987 173.41 32.936C173.89 32.5733 174.493 32.392 175.218 32.392ZM182.332 32.392C183.494 32.392 184.385 32.7867 185.004 33.576C185.633 34.3547 185.948 35.4213 185.948 36.776C185.948 38.0987 185.628 39.1653 184.988 39.976C184.358 40.776 183.468 41.176 182.316 41.176C181.153 41.176 180.257 40.7867 179.628 40.008C178.998 39.2187 178.684 38.1467 178.684 36.792C178.684 35.4587 178.998 34.392 179.628 33.592C180.268 32.792 181.169 32.392 182.332 32.392ZM182.332 33.496C181.596 33.496 181.046 33.768 180.684 34.312C180.321 34.856 180.14 35.6827 180.14 36.792C180.14 37.9013 180.316 38.728 180.668 39.272C181.03 39.8053 181.58 40.072 182.316 40.072C183.052 40.072 183.596 39.8053 183.948 39.272C184.31 38.728 184.492 37.896 184.492 36.776C184.492 35.6667 184.31 34.8453 183.948 34.312C183.596 33.768 183.057 33.496 182.332 33.496ZM194.261 32.392C194.741 32.392 195.131 32.5627 195.429 32.904C195.739 33.2347 195.893 33.8427 195.893 34.728V41H194.661V34.952C194.661 34.3653 194.624 33.9707 194.549 33.768C194.475 33.5547 194.293 33.448 194.005 33.448C193.461 33.448 192.971 33.784 192.533 34.456V41H191.285V34.952C191.285 34.3653 191.248 33.9707 191.173 33.768C191.099 33.5547 190.917 33.448 190.629 33.448C190.085 33.448 189.595 33.784 189.157 34.456V41H187.925V32.568H188.965L189.061 33.56C189.317 33.1867 189.584 32.8987 189.861 32.696C190.149 32.4933 190.491 32.392 190.885 32.392C191.675 32.392 192.181 32.7653 192.405 33.512C192.661 33.1493 192.933 32.872 193.221 32.68C193.509 32.488 193.856 32.392 194.261 32.392ZM29.424 115.024C30.16 115.024 30.8907 114.779 31.616 114.288L32.256 115.168C31.904 115.477 31.4667 115.723 30.944 115.904C30.4213 116.085 29.9147 116.176 29.424 116.176C28.176 116.176 27.2 115.787 26.496 115.008C25.8027 114.219 25.456 113.157 25.456 111.824C25.456 110.981 25.6107 110.224 25.92 109.552C26.24 108.88 26.6987 108.352 27.296 107.968C27.8933 107.584 28.6027 107.392 29.424 107.392C30.512 107.392 31.4507 107.723 32.24 108.384L31.584 109.264C30.848 108.773 30.1227 108.528 29.408 108.528C28.6507 108.528 28.0427 108.811 27.584 109.376C27.136 109.931 26.912 110.747 26.912 111.824C26.912 112.901 27.136 113.707 27.584 114.24C28.0427 114.763 28.656 115.024 29.424 115.024ZM38.4098 107.392C39.5724 107.392 40.4631 107.787 41.0818 108.576C41.7111 109.355 42.0258 110.421 42.0258 111.776C42.0258 113.099 41.7058 114.165 41.0658 114.976C40.4364 115.776 39.5458 116.176 38.3938 116.176C37.2311 116.176 36.3351 115.787 35.7057 115.008C35.0764 114.219 34.7618 113.147 34.7618 111.792C34.7618 110.459 35.0764 109.392 35.7057 108.592C36.3458 107.792 37.2471 107.392 38.4098 107.392ZM38.4098 108.496C37.6738 108.496 37.1244 108.768 36.7618 109.312C36.3991 109.856 36.2178 110.683 36.2178 111.792C36.2178 112.901 36.3938 113.728 36.7458 114.272C37.1084 114.805 37.6578 115.072 38.3938 115.072C39.1298 115.072 39.6738 114.805 40.0258 114.272C40.3884 113.728 40.5698 112.896 40.5698 111.776C40.5698 110.667 40.3884 109.845 40.0258 109.312C39.6738 108.768 39.1351 108.496 38.4098 108.496ZM44.7875 107.568H45.9395L46.0515 108.752C46.3822 108.325 46.7982 107.995 47.2995 107.76C47.8115 107.515 48.3235 107.392 48.8355 107.392C50.4142 107.392 51.2035 108.224 51.2035 109.888V116H49.8595V110.88C49.8595 110.251 49.8222 109.771 49.7475 109.44C49.6835 109.109 49.5502 108.864 49.3475 108.704C49.1448 108.544 48.8355 108.464 48.4195 108.464C47.9608 108.464 47.5288 108.603 47.1235 108.88C46.7182 109.157 46.3875 109.488 46.1315 109.872V116H44.7875V107.568ZM57.2613 115.072C57.9013 115.072 58.4079 114.949 58.7813 114.704C59.1546 114.459 59.3413 114.133 59.3413 113.728C59.3413 113.451 59.2933 113.227 59.1973 113.056C59.1013 112.875 58.9093 112.715 58.6213 112.576C58.3333 112.427 57.8959 112.277 57.3093 112.128C56.3279 111.883 55.6026 111.589 55.1332 111.248C54.6639 110.896 54.4293 110.379 54.4293 109.696C54.4293 108.992 54.7226 108.432 55.3093 108.016C55.8959 107.6 56.6693 107.392 57.6293 107.392C58.8026 107.392 59.8266 107.701 60.7013 108.32L60.0933 109.248C59.7413 109.003 59.3733 108.816 58.9893 108.688C58.6053 108.549 58.1626 108.48 57.6613 108.48C56.4453 108.48 55.8373 108.848 55.8373 109.584C55.8373 109.84 55.9013 110.048 56.0293 110.208C56.1679 110.368 56.3866 110.512 56.6853 110.64C56.9946 110.757 57.4533 110.901 58.0613 111.072C58.9786 111.317 59.6613 111.632 60.1093 112.016C60.5679 112.389 60.7973 112.939 60.7973 113.664C60.7973 114.507 60.4559 115.136 59.7733 115.552C59.0906 115.968 58.2533 116.176 57.2613 116.176C55.9386 116.176 54.8399 115.797 53.9653 115.04L54.7173 114.16C55.0586 114.437 55.4479 114.661 55.8853 114.832C56.3226 114.992 56.7813 115.072 57.2613 115.072ZM70.679 115.568C70.391 115.76 70.039 115.909 69.623 116.016C69.2177 116.123 68.8123 116.176 68.407 116.176C67.5217 116.176 66.8283 115.947 66.327 115.488C65.8257 115.019 65.575 114.405 65.575 113.648V108.624H63.639V107.568H65.575V105.664L66.919 105.504V107.568H69.847L69.671 108.624H66.919V113.632C66.919 114.112 67.047 114.469 67.303 114.704C67.559 114.939 67.9697 115.056 68.535 115.056C69.111 115.056 69.6497 114.923 70.151 114.656L70.679 115.568ZM131.131 107.568H132.283L132.395 108.752C132.726 108.325 133.142 107.995 133.643 107.76C134.155 107.515 134.667 107.392 135.179 107.392C136.758 107.392 137.547 108.224 137.547 109.888V116H136.203V110.88C136.203 110.251 136.166 109.771 136.091 109.44C136.027 109.109 135.894 108.864 135.691 108.704C135.489 108.544 135.179 108.464 134.763 108.464C134.305 108.464 133.873 108.603 133.467 108.88C133.062 109.157 132.731 109.488 132.475 109.872V116H131.131V107.568ZM141.797 112.256C141.829 113.184 142.069 113.883 142.517 114.352C142.976 114.821 143.552 115.056 144.245 115.056C144.661 115.056 145.04 114.997 145.381 114.88C145.733 114.752 146.106 114.56 146.501 114.304L147.125 115.2C146.73 115.509 146.277 115.749 145.765 115.92C145.264 116.091 144.757 116.176 144.245 116.176C143.029 116.176 142.08 115.781 141.397 114.992C140.725 114.192 140.389 113.125 140.389 111.792C140.389 110.949 140.538 110.197 140.837 109.536C141.136 108.864 141.562 108.341 142.117 107.968C142.672 107.584 143.317 107.392 144.053 107.392C145.12 107.392 145.957 107.765 146.565 108.512C147.184 109.248 147.493 110.256 147.493 111.536C147.493 111.781 147.482 112.021 147.461 112.256H141.797ZM144.069 108.496C143.418 108.496 142.89 108.731 142.485 109.2C142.08 109.659 141.85 110.336 141.797 111.232H146.181C146.17 110.347 145.978 109.669 145.605 109.2C145.232 108.731 144.72 108.496 144.069 108.496ZM156.575 116H154.671L153.567 109.824L152.383 116H150.527L149.007 107.568H150.367L151.455 115.168L152.799 108.64H154.383L155.647 115.168L156.735 107.568H158.031L156.575 116ZM29.424 190.024C30.16 190.024 30.8907 189.779 31.616 189.288L32.256 190.168C31.904 190.477 31.4667 190.723 30.944 190.904C30.4213 191.085 29.9147 191.176 29.424 191.176C28.176 191.176 27.2 190.787 26.496 190.008C25.8027 189.219 25.456 188.157 25.456 186.824C25.456 185.981 25.6107 185.224 25.92 184.552C26.24 183.88 26.6987 183.352 27.296 182.968C27.8933 182.584 28.6027 182.392 29.424 182.392C30.512 182.392 31.4507 182.723 32.24 183.384L31.584 184.264C30.848 183.773 30.1227 183.528 29.408 183.528C28.6507 183.528 28.0427 183.811 27.584 184.376C27.136 184.931 26.912 185.747 26.912 186.824C26.912 187.901 27.136 188.707 27.584 189.24C28.0427 189.763 28.656 190.024 29.424 190.024ZM38.4098 182.392C39.5724 182.392 40.4631 182.787 41.0818 183.576C41.7111 184.355 42.0258 185.421 42.0258 186.776C42.0258 188.099 41.7058 189.165 41.0658 189.976C40.4364 190.776 39.5458 191.176 38.3938 191.176C37.2311 191.176 36.3351 190.787 35.7057 190.008C35.0764 189.219 34.7618 188.147 34.7618 186.792C34.7618 185.459 35.0764 184.392 35.7057 183.592C36.3458 182.792 37.2471 182.392 38.4098 182.392ZM38.4098 183.496C37.6738 183.496 37.1244 183.768 36.7618 184.312C36.3991 184.856 36.2178 185.683 36.2178 186.792C36.2178 187.901 36.3938 188.728 36.7458 189.272C37.1084 189.805 37.6578 190.072 38.3938 190.072C39.1298 190.072 39.6738 189.805 40.0258 189.272C40.3884 188.728 40.5698 187.896 40.5698 186.776C40.5698 185.667 40.3884 184.845 40.0258 184.312C39.6738 183.768 39.1351 183.496 38.4098 183.496ZM44.7875 182.568H45.9395L46.0515 183.752C46.3822 183.325 46.7982 182.995 47.2995 182.76C47.8115 182.515 48.3235 182.392 48.8355 182.392C50.4142 182.392 51.2035 183.224 51.2035 184.888V191H49.8595V185.88C49.8595 185.251 49.8222 184.771 49.7475 184.44C49.6835 184.109 49.5502 183.864 49.3475 183.704C49.1448 183.544 48.8355 183.464 48.4195 183.464C47.9608 183.464 47.5288 183.603 47.1235 183.88C46.7182 184.157 46.3875 184.488 46.1315 184.872V191H44.7875V182.568ZM57.2613 190.072C57.9013 190.072 58.4079 189.949 58.7813 189.704C59.1546 189.459 59.3413 189.133 59.3413 188.728C59.3413 188.451 59.2933 188.227 59.1973 188.056C59.1013 187.875 58.9093 187.715 58.6213 187.576C58.3333 187.427 57.8959 187.277 57.3093 187.128C56.3279 186.883 55.6026 186.589 55.1332 186.248C54.6639 185.896 54.4293 185.379 54.4293 184.696C54.4293 183.992 54.7226 183.432 55.3093 183.016C55.8959 182.6 56.6693 182.392 57.6293 182.392C58.8026 182.392 59.8266 182.701 60.7013 183.32L60.0933 184.248C59.7413 184.003 59.3733 183.816 58.9893 183.688C58.6053 183.549 58.1626 183.48 57.6613 183.48C56.4453 183.48 55.8373 183.848 55.8373 184.584C55.8373 184.84 55.9013 185.048 56.0293 185.208C56.1679 185.368 56.3866 185.512 56.6853 185.64C56.9946 185.757 57.4533 185.901 58.0613 186.072C58.9786 186.317 59.6613 186.632 60.1093 187.016C60.5679 187.389 60.7973 187.939 60.7973 188.664C60.7973 189.507 60.4559 190.136 59.7733 190.552C59.0906 190.968 58.2533 191.176 57.2613 191.176C55.9386 191.176 54.8399 190.797 53.9653 190.04L54.7173 189.16C55.0586 189.437 55.4479 189.661 55.8853 189.832C56.3226 189.992 56.7813 190.072 57.2613 190.072ZM70.679 190.568C70.391 190.76 70.039 190.909 69.623 191.016C69.2177 191.123 68.8123 191.176 68.407 191.176C67.5217 191.176 66.8283 190.947 66.327 190.488C65.8257 190.019 65.575 189.405 65.575 188.648V183.624H63.639V182.568H65.575V180.664L66.919 180.504V182.568H69.847L69.671 183.624H66.919V188.632C66.919 189.112 67.047 189.469 67.303 189.704C67.559 189.939 67.9697 190.056 68.535 190.056C69.111 190.056 69.6497 189.923 70.151 189.656L70.679 190.568ZM204.336 189.16C204.336 189.491 204.389 189.736 204.496 189.896C204.602 190.045 204.778 190.157 205.024 190.232L204.688 191.192C203.866 191.085 203.354 190.685 203.152 189.992C202.853 190.376 202.474 190.669 202.016 190.872C201.568 191.075 201.066 191.176 200.512 191.176C199.669 191.176 199.002 190.941 198.512 190.472C198.032 190.003 197.792 189.373 197.792 188.584C197.792 187.72 198.128 187.053 198.799 186.584C199.482 186.115 200.458 185.88 201.728 185.88H202.976V185.192C202.976 184.595 202.805 184.168 202.464 183.912C202.122 183.645 201.626 183.512 200.976 183.512C200.336 183.512 199.605 183.656 198.784 183.944L198.416 182.92C199.408 182.568 200.33 182.392 201.184 182.392C202.208 182.392 202.986 182.632 203.52 183.112C204.064 183.592 204.336 184.259 204.336 185.112V189.16ZM200.848 190.168C201.264 190.168 201.658 190.061 202.032 189.848C202.416 189.635 202.73 189.341 202.976 188.968V186.808H201.76C200.864 186.808 200.218 186.957 199.824 187.256C199.429 187.555 199.232 187.992 199.232 188.568C199.232 189.635 199.77 190.168 200.848 190.168ZM214.137 191H212.233L211.129 184.824L209.945 191H208.089L206.569 182.568H207.929L209.017 190.168L210.361 183.64H211.945L213.209 190.168L214.297 182.568H215.593L214.137 191ZM223.523 189.16C223.523 189.491 223.576 189.736 223.683 189.896C223.79 190.045 223.966 190.157 224.211 190.232L223.875 191.192C223.054 191.085 222.542 190.685 222.339 189.992C222.04 190.376 221.662 190.669 221.203 190.872C220.755 191.075 220.254 191.176 219.699 191.176C218.856 191.176 218.19 190.941 217.699 190.472C217.219 190.003 216.979 189.373 216.979 188.584C216.979 187.72 217.315 187.053 217.987 186.584C218.67 186.115 219.646 185.88 220.915 185.88H222.163V185.192C222.163 184.595 221.992 184.168 221.651 183.912C221.31 183.645 220.814 183.512 220.163 183.512C219.523 183.512 218.792 183.656 217.971 183.944L217.603 182.92C218.595 182.568 219.518 182.392 220.371 182.392C221.395 182.392 222.174 182.632 222.707 183.112C223.251 183.592 223.523 184.259 223.523 185.112V189.16ZM220.035 190.168C220.451 190.168 220.846 190.061 221.219 189.848C221.603 189.635 221.918 189.341 222.163 188.968V186.808H220.947C220.051 186.808 219.406 186.957 219.011 187.256C218.616 187.555 218.419 187.992 218.419 188.568C218.419 189.635 218.958 190.168 220.035 190.168ZM230.269 178.632C230.567 178.632 230.807 178.723 230.989 178.904C231.17 179.075 231.261 179.299 231.261 179.576C231.261 179.853 231.17 180.083 230.989 180.264C230.807 180.435 230.567 180.52 230.269 180.52C229.981 180.52 229.746 180.435 229.565 180.264C229.394 180.083 229.309 179.853 229.309 179.576C229.309 179.299 229.394 179.075 229.565 178.904C229.746 178.723 229.981 178.632 230.269 178.632ZM231.341 182.568V189.928H233.709V191H227.405V189.928H229.997V183.64H227.485V182.568H231.341ZM243.367 190.568C243.079 190.76 242.727 190.909 242.311 191.016C241.905 191.123 241.5 191.176 241.095 191.176C240.209 191.176 239.516 190.947 239.015 190.488C238.513 190.019 238.263 189.405 238.263 188.648V183.624H236.327V182.568H238.263V180.664L239.607 180.504V182.568H242.535L242.359 183.624H239.607V188.632C239.607 189.112 239.735 189.469 239.991 189.704C240.247 189.939 240.657 190.056 241.223 190.056C241.799 190.056 242.337 189.923 242.839 189.656L243.367 190.568Z" fill="#FF2583"/>
<path d="M210.841 29.8C212.708 29.8 213.977 30.4133 214.649 31.64C215.332 32.856 215.673 34.456 215.673 36.44C215.673 37.8693 215.609 39.016 215.481 39.88C215.353 40.7333 215.118 41.3733 214.777 41.8C214.436 42.2373 213.95 42.456 213.321 42.456C212.905 42.456 212.553 42.328 212.265 42.072C211.977 41.816 211.764 41.5067 211.625 41.144C211.486 40.792 211.422 40.4667 211.433 40.168H211.369C210.942 41.2133 210.212 41.736 209.177 41.736C208.345 41.736 207.737 41.4107 207.353 40.76C206.969 40.0987 206.777 39.2027 206.777 38.072C206.777 36.696 207.044 35.6667 207.577 34.984C208.121 34.2907 208.9 33.944 209.913 33.944C210.308 33.944 210.676 33.9867 211.017 34.072C211.358 34.1573 211.742 34.312 212.169 34.536V39.272C212.169 40.0613 212.265 40.6107 212.457 40.92C212.66 41.2187 212.937 41.368 213.289 41.368C213.598 41.368 213.822 41.176 213.961 40.792C214.11 40.3973 214.201 39.896 214.233 39.288C214.265 38.6693 214.281 37.8107 214.281 36.712C214.281 35.496 214.196 34.4827 214.025 33.672C213.865 32.8507 213.534 32.2 213.033 31.72C212.532 31.2293 211.806 30.984 210.857 30.984C210.249 30.984 209.646 31.0907 209.049 31.304C208.452 31.5173 207.844 31.9013 207.225 32.456L206.441 31.544C207.134 30.9467 207.854 30.5093 208.601 30.232C209.348 29.944 210.094 29.8 210.841 29.8ZM209.961 34.936C209.257 34.936 208.766 35.1867 208.489 35.688C208.212 36.1893 208.073 36.984 208.073 38.072C208.073 38.9147 208.169 39.5707 208.361 40.04C208.553 40.4987 208.878 40.728 209.337 40.728C209.678 40.728 209.956 40.6533 210.169 40.504C210.393 40.344 210.553 40.1787 210.649 40.008C210.756 39.8267 210.868 39.5973 210.985 39.32V35.16C210.676 35.0107 210.334 34.936 209.961 34.936ZM221.315 40.024C222.051 40.024 222.781 39.7787 223.507 39.288L224.147 40.168C223.795 40.4773 223.357 40.7227 222.835 40.904C222.312 41.0853 221.805 41.176 221.315 41.176C220.067 41.176 219.091 40.7867 218.387 40.008C217.693 39.2187 217.347 38.1573 217.347 36.824C217.347 35.9813 217.501 35.224 217.811 34.552C218.131 33.88 218.589 33.352 219.187 32.968C219.784 32.584 220.493 32.392 221.315 32.392C222.403 32.392 223.341 32.7227 224.131 33.384L223.475 34.264C222.739 33.7733 222.013 33.528 221.299 33.528C220.541 33.528 219.933 33.8107 219.475 34.376C219.027 34.9307 218.803 35.7467 218.803 36.824C218.803 37.9013 219.027 38.7067 219.475 39.24C219.933 39.7627 220.547 40.024 221.315 40.024ZM233.132 39.16C233.132 39.4907 233.186 39.736 233.292 39.896C233.399 40.0453 233.575 40.1573 233.82 40.232L233.484 41.192C232.663 41.0853 232.151 40.6853 231.948 39.992C231.65 40.376 231.271 40.6693 230.812 40.872C230.364 41.0747 229.863 41.176 229.308 41.176C228.466 41.176 227.799 40.9413 227.308 40.472C226.828 40.0027 226.588 39.3733 226.588 38.584C226.588 37.72 226.924 37.0533 227.596 36.584C228.279 36.1147 229.255 35.88 230.524 35.88H231.772V35.192C231.772 34.5947 231.602 34.168 231.26 33.912C230.919 33.6453 230.423 33.512 229.772 33.512C229.132 33.512 228.402 33.656 227.58 33.944L227.212 32.92C228.204 32.568 229.127 32.392 229.98 32.392C231.004 32.392 231.783 32.632 232.316 33.112C232.86 33.592 233.132 34.2587 233.132 35.112V39.16ZM229.644 40.168C230.06 40.168 230.455 40.0613 230.828 39.848C231.212 39.6347 231.527 39.3413 231.772 38.968V36.808H230.556C229.66 36.808 229.015 36.9573 228.62 37.256C228.226 37.5547 228.028 37.992 228.028 38.568C228.028 39.6347 228.567 40.168 229.644 40.168ZM239.558 40.072C240.198 40.072 240.705 39.9493 241.078 39.704C241.451 39.4587 241.638 39.1333 241.638 38.728C241.638 38.4507 241.59 38.2267 241.494 38.056C241.398 37.8747 241.206 37.7147 240.918 37.576C240.63 37.4267 240.193 37.2773 239.606 37.128C238.625 36.8827 237.899 36.5893 237.43 36.248C236.961 35.896 236.726 35.3787 236.726 34.696C236.726 33.992 237.019 33.432 237.606 33.016C238.193 32.6 238.966 32.392 239.926 32.392C241.099 32.392 242.123 32.7013 242.998 33.32L242.39 34.248C242.038 34.0027 241.67 33.816 241.286 33.688C240.902 33.5493 240.459 33.48 239.958 33.48C238.742 33.48 238.134 33.848 238.134 34.584C238.134 34.84 238.198 35.048 238.326 35.208C238.465 35.368 238.683 35.512 238.982 35.64C239.291 35.7573 239.75 35.9013 240.358 36.072C241.275 36.3173 241.958 36.632 242.406 37.016C242.865 37.3893 243.094 37.9387 243.094 38.664C243.094 39.5067 242.753 40.136 242.07 40.552C241.387 40.968 240.55 41.176 239.558 41.176C238.235 41.176 237.137 40.7973 236.262 40.04L237.014 39.16C237.355 39.4373 237.745 39.6613 238.182 39.832C238.619 39.992 239.078 40.072 239.558 40.072ZM247.344 37.256C247.376 38.184 247.616 38.8827 248.064 39.352C248.523 39.8213 249.099 40.056 249.792 40.056C250.208 40.056 250.587 39.9973 250.928 39.88C251.28 39.752 251.653 39.56 252.048 39.304L252.672 40.2C252.277 40.5093 251.824 40.7493 251.312 40.92C250.811 41.0907 250.304 41.176 249.792 41.176C248.576 41.176 247.627 40.7813 246.944 39.992C246.272 39.192 245.936 38.1253 245.936 36.792C245.936 35.9493 246.085 35.1973 246.384 34.536C246.683 33.864 247.109 33.3413 247.664 32.968C248.219 32.584 248.864 32.392 249.6 32.392C250.667 32.392 251.504 32.7653 252.112 33.512C252.731 34.248 253.04 35.256 253.04 36.536C253.04 36.7813 253.029 37.0213 253.008 37.256H247.344ZM249.616 33.496C248.965 33.496 248.437 33.7307 248.032 34.2C247.627 34.6587 247.397 35.336 247.344 36.232H251.728C251.717 35.3467 251.525 34.6693 251.152 34.2C250.779 33.7307 250.267 33.496 249.616 33.496ZM260.138 28.632C260.426 28.632 260.66 28.7227 260.842 28.904C261.023 29.0747 261.114 29.2987 261.114 29.576C261.114 29.8533 261.023 30.0827 260.842 30.264C260.66 30.4347 260.426 30.52 260.138 30.52C259.85 30.52 259.615 30.4347 259.434 30.264C259.252 30.0827 259.162 29.8533 259.162 29.576C259.162 29.2987 259.252 29.0747 259.434 28.904C259.615 28.7227 259.85 28.632 260.138 28.632ZM261.386 39.656C261.386 41.0107 260.932 42.0613 260.026 42.808C259.13 43.5653 257.796 44.0933 256.026 44.392L255.802 43.352C257.156 43.128 258.202 42.7333 258.938 42.168C259.674 41.6133 260.042 40.8027 260.042 39.736V33.64H256.538V32.568H261.386V39.656ZM268.339 40.072C268.979 40.072 269.486 39.9493 269.859 39.704C270.233 39.4587 270.419 39.1333 270.419 38.728C270.419 38.4507 270.371 38.2267 270.275 38.056C270.179 37.8747 269.987 37.7147 269.699 37.576C269.411 37.4267 268.974 37.2773 268.387 37.128C267.406 36.8827 266.681 36.5893 266.211 36.248C265.742 35.896 265.507 35.3787 265.507 34.696C265.507 33.992 265.801 33.432 266.387 33.016C266.974 32.6 267.747 32.392 268.707 32.392C269.881 32.392 270.905 32.7013 271.779 33.32L271.171 34.248C270.819 34.0027 270.451 33.816 270.067 33.688C269.683 33.5493 269.241 33.48 268.739 33.48C267.523 33.48 266.915 33.848 266.915 34.584C266.915 34.84 266.979 35.048 267.107 35.208C267.246 35.368 267.465 35.512 267.763 35.64C268.073 35.7573 268.531 35.9013 269.139 36.072C270.057 36.3173 270.739 36.632 271.187 37.016C271.646 37.3893 271.875 37.9387 271.875 38.664C271.875 39.5067 271.534 40.136 270.851 40.552C270.169 40.968 269.331 41.176 268.339 41.176C267.017 41.176 265.918 40.7973 265.043 40.04L265.795 39.16C266.137 39.4373 266.526 39.6613 266.963 39.832C267.401 39.992 267.859 40.072 268.339 40.072ZM275.389 42.648L274.301 42.168L281.133 28.056L282.205 28.568L275.389 42.648ZM288.471 40.024C289.207 40.024 289.938 39.7787 290.663 39.288L291.303 40.168C290.951 40.4773 290.514 40.7227 289.991 40.904C289.468 41.0853 288.962 41.176 288.471 41.176C287.223 41.176 286.247 40.7867 285.543 40.008C284.85 39.2187 284.503 38.1573 284.503 36.824C284.503 35.9813 284.658 35.224 284.967 34.552C285.287 33.88 285.746 33.352 286.343 32.968C286.94 32.584 287.65 32.392 288.471 32.392C289.559 32.392 290.498 32.7227 291.287 33.384L290.631 34.264C289.895 33.7733 289.17 33.528 288.455 33.528C287.698 33.528 287.09 33.8107 286.631 34.376C286.183 34.9307 285.959 35.7467 285.959 36.824C285.959 37.9013 286.183 38.7067 286.631 39.24C287.09 39.7627 287.703 40.024 288.471 40.024ZM297.537 38.92C297.537 39.6773 298.001 40.056 298.929 40.056C299.366 40.056 299.835 39.96 300.337 39.768L300.689 40.744C300.155 41.032 299.489 41.176 298.689 41.176C297.931 41.176 297.323 40.968 296.865 40.552C296.417 40.136 296.193 39.5707 296.193 38.856V30.248H293.601V29.176H297.537V38.92ZM307.034 28.632C307.333 28.632 307.573 28.7227 307.754 28.904C307.936 29.0747 308.026 29.2987 308.026 29.576C308.026 29.8533 307.936 30.0827 307.754 30.264C307.573 30.4347 307.333 30.52 307.034 30.52C306.746 30.52 306.512 30.4347 306.33 30.264C306.16 30.0827 306.074 29.8533 306.074 29.576C306.074 29.2987 306.16 29.0747 306.33 28.904C306.512 28.7227 306.746 28.632 307.034 28.632ZM308.106 32.568V39.928H310.474V41H304.17V39.928H306.762V33.64H304.25V32.568H308.106ZM314.5 37.256C314.532 38.184 314.772 38.8827 315.22 39.352C315.679 39.8213 316.255 40.056 316.948 40.056C317.364 40.056 317.743 39.9973 318.084 39.88C318.436 39.752 318.809 39.56 319.204 39.304L319.828 40.2C319.433 40.5093 318.98 40.7493 318.468 40.92C317.967 41.0907 317.46 41.176 316.948 41.176C315.732 41.176 314.783 40.7813 314.1 39.992C313.428 39.192 313.092 38.1253 313.092 36.792C313.092 35.9493 313.241 35.1973 313.54 34.536C313.839 33.864 314.265 33.3413 314.82 32.968C315.375 32.584 316.02 32.392 316.756 32.392C317.823 32.392 318.66 32.7653 319.268 33.512C319.887 34.248 320.196 35.256 320.196 36.536C320.196 36.7813 320.185 37.0213 320.164 37.256H314.5ZM316.772 33.496C316.121 33.496 315.593 33.7307 315.188 34.2C314.783 34.6587 314.553 35.336 314.5 36.232H318.884C318.873 35.3467 318.681 34.6693 318.308 34.2C317.935 33.7307 317.423 33.496 316.772 33.496ZM323.022 32.568H324.174L324.286 33.752C324.617 33.3253 325.033 32.9947 325.534 32.76C326.046 32.5147 326.558 32.392 327.07 32.392C328.649 32.392 329.438 33.224 329.438 34.888V41H328.094V35.88C328.094 35.2507 328.057 34.7707 327.982 34.44C327.918 34.1093 327.785 33.864 327.582 33.704C327.379 33.544 327.07 33.464 326.654 33.464C326.195 33.464 325.763 33.6027 325.358 33.88C324.953 34.1573 324.622 34.488 324.366 34.872V41H323.022V32.568ZM339.32 40.568C339.032 40.76 338.68 40.9093 338.264 41.016C337.858 41.1227 337.453 41.176 337.048 41.176C336.162 41.176 335.469 40.9467 334.968 40.488C334.466 40.0187 334.216 39.4053 334.216 38.648V33.624H332.28V32.568H334.216V30.664L335.56 30.504V32.568H338.488L338.312 33.624H335.56V38.632C335.56 39.112 335.688 39.4693 335.944 39.704C336.2 39.9387 336.61 40.056 337.176 40.056C337.752 40.056 338.29 39.9227 338.792 39.656L339.32 40.568ZM86.9865 115.024C87.7225 115.024 88.4532 114.779 89.1785 114.288L89.8185 115.168C89.4665 115.477 89.0292 115.723 88.5065 115.904C87.9838 116.085 87.4772 116.176 86.9865 116.176C85.7385 116.176 84.7625 115.787 84.0585 115.008C83.3652 114.219 83.0185 113.157 83.0185 111.824C83.0185 110.981 83.1732 110.224 83.4825 109.552C83.8025 108.88 84.2612 108.352 84.8585 107.968C85.4558 107.584 86.1652 107.392 86.9865 107.392C88.0745 107.392 89.0132 107.723 89.8025 108.384L89.1465 109.264C88.4105 108.773 87.6852 108.528 86.9705 108.528C86.2132 108.528 85.6052 108.811 85.1465 109.376C84.6985 109.931 84.4745 110.747 84.4745 111.824C84.4745 112.901 84.6985 113.707 85.1465 114.24C85.6052 114.763 86.2185 115.024 86.9865 115.024ZM95.6363 115.072C96.2763 115.072 96.7829 114.949 97.1563 114.704C97.5296 114.459 97.7163 114.133 97.7163 113.728C97.7163 113.451 97.6683 113.227 97.5723 113.056C97.4763 112.875 97.2843 112.715 96.9963 112.576C96.7083 112.427 96.2709 112.277 95.6843 112.128C94.7029 111.883 93.9776 111.589 93.5082 111.248C93.0389 110.896 92.8043 110.379 92.8043 109.696C92.8043 108.992 93.0976 108.432 93.6843 108.016C94.2709 107.6 95.0443 107.392 96.0043 107.392C97.1776 107.392 98.2016 107.701 99.0763 108.32L98.4683 109.248C98.1163 109.003 97.7483 108.816 97.3643 108.688C96.9803 108.549 96.5376 108.48 96.0363 108.48C94.8203 108.48 94.2123 108.848 94.2123 109.584C94.2123 109.84 94.2763 110.048 94.4043 110.208C94.5429 110.368 94.7616 110.512 95.0603 110.64C95.3696 110.757 95.8283 110.901 96.4363 111.072C97.3536 111.317 98.0363 111.632 98.4843 112.016C98.9429 112.389 99.1723 112.939 99.1723 113.664C99.1723 114.507 98.8309 115.136 98.1483 115.552C97.4656 115.968 96.6283 116.176 95.6363 116.176C94.3136 116.176 93.2149 115.797 92.3403 115.04L93.0923 114.16C93.4336 114.437 93.8229 114.661 94.2603 114.832C94.6976 114.992 95.1563 115.072 95.6363 115.072ZM118.248 108.928V110.08H112.04V108.928H118.248ZM118.248 111.968V113.12H112.04V111.968H118.248ZM228.877 110.4C228.877 111.488 228.999 112.437 229.245 113.248C229.49 114.048 229.853 114.779 230.333 115.44C230.823 116.091 231.474 116.779 232.285 117.504L231.597 118.24C230.658 117.483 229.89 116.736 229.293 116C228.706 115.264 228.253 114.443 227.933 113.536C227.623 112.629 227.469 111.584 227.469 110.4C227.469 109.216 227.623 108.171 227.933 107.264C228.253 106.357 228.706 105.536 229.293 104.8C229.89 104.064 230.658 103.317 231.597 102.56L232.285 103.296C231.463 104.021 230.807 104.709 230.317 105.36C229.837 106.011 229.474 106.741 229.229 107.552C228.994 108.352 228.877 109.301 228.877 110.4ZM241.255 110.4C241.255 109.301 241.132 108.352 240.887 107.552C240.652 106.741 240.289 106.011 239.799 105.36C239.319 104.709 238.668 104.021 237.847 103.296L238.535 102.56C239.473 103.317 240.236 104.064 240.823 104.8C241.42 105.536 241.873 106.357 242.183 107.264C242.503 108.171 242.663 109.216 242.663 110.4C242.663 111.584 242.503 112.629 242.183 113.536C241.873 114.443 241.42 115.264 240.823 116C240.236 116.736 239.473 117.483 238.535 118.24L237.847 117.504C238.657 116.779 239.303 116.091 239.783 115.44C240.273 114.779 240.641 114.048 240.887 113.248C241.132 112.437 241.255 111.488 241.255 110.4ZM249.44 107.824C249.814 107.824 250.123 107.952 250.368 108.208C250.614 108.453 250.736 108.752 250.736 109.104C250.736 109.467 250.614 109.776 250.368 110.032C250.123 110.288 249.814 110.416 249.44 110.416C249.078 110.416 248.774 110.288 248.528 110.032C248.283 109.776 248.16 109.467 248.16 109.104C248.16 108.752 248.283 108.453 248.528 108.208C248.774 107.952 249.078 107.824 249.44 107.824ZM249.44 113.344C249.803 113.344 250.107 113.472 250.352 113.728C250.608 113.973 250.736 114.277 250.736 114.64C250.736 115.024 250.635 115.445 250.432 115.904L249.12 118.88H247.904L248.672 115.712C248.512 115.595 248.384 115.44 248.288 115.248C248.203 115.056 248.16 114.853 248.16 114.64C248.16 114.277 248.283 113.973 248.528 113.728C248.774 113.472 249.078 113.344 249.44 113.344Z" fill="white" fill-opacity="0.8"/>
<path d="M96.8999 29.8C97.5825 29.8 98.1692 29.8907 98.6599 30.072C99.1505 30.2427 99.6305 30.5093 100.1 30.872L99.3159 31.784C98.6652 31.24 97.8919 30.968 96.9959 30.968C96.0039 30.968 95.1932 31.3307 94.5639 32.056C93.9452 32.7707 93.6359 33.912 93.6359 35.48C93.6359 37.0373 93.9399 38.1787 94.5479 38.904C95.1559 39.6293 95.9665 39.992 96.9799 39.992C97.5345 39.992 98.0092 39.912 98.4039 39.752C98.7985 39.592 99.1772 39.368 99.5399 39.08L100.26 39.976C99.4385 40.776 98.3399 41.176 96.9639 41.176C96.0572 41.176 95.2412 40.9573 94.5159 40.52C93.7905 40.072 93.2199 39.4213 92.8039 38.568C92.3879 37.7147 92.1799 36.6853 92.1799 35.48C92.1799 34.2853 92.3879 33.2613 92.8039 32.408C93.2305 31.544 93.8012 30.8933 94.5159 30.456C95.2412 30.0187 96.0359 29.8 96.8999 29.8ZM105.662 38.92C105.662 39.6773 106.126 40.056 107.054 40.056C107.491 40.056 107.96 39.96 108.462 39.768L108.814 40.744C108.28 41.032 107.614 41.176 106.814 41.176C106.056 41.176 105.448 40.968 104.99 40.552C104.542 40.136 104.318 39.5707 104.318 38.856V30.248H101.726V29.176H105.662V38.92ZM115.159 28.632C115.458 28.632 115.698 28.7227 115.879 28.904C116.061 29.0747 116.151 29.2987 116.151 29.576C116.151 29.8533 116.061 30.0827 115.879 30.264C115.698 30.4347 115.458 30.52 115.159 30.52C114.871 30.52 114.637 30.4347 114.455 30.264C114.285 30.0827 114.199 29.8533 114.199 29.576C114.199 29.2987 114.285 29.0747 114.455 28.904C114.637 28.7227 114.871 28.632 115.159 28.632ZM116.231 32.568V39.928H118.599V41H112.295V39.928H114.887V33.64H112.375V32.568H116.231ZM122.625 37.256C122.657 38.184 122.897 38.8827 123.345 39.352C123.804 39.8213 124.38 40.056 125.073 40.056C125.489 40.056 125.868 39.9973 126.209 39.88C126.561 39.752 126.934 39.56 127.329 39.304L127.953 40.2C127.558 40.5093 127.105 40.7493 126.593 40.92C126.092 41.0907 125.585 41.176 125.073 41.176C123.857 41.176 122.908 40.7813 122.225 39.992C121.553 39.192 121.217 38.1253 121.217 36.792C121.217 35.9493 121.366 35.1973 121.665 34.536C121.964 33.864 122.39 33.3413 122.945 32.968C123.5 32.584 124.145 32.392 124.881 32.392C125.948 32.392 126.785 32.7653 127.393 33.512C128.012 34.248 128.321 35.256 128.321 36.536C128.321 36.7813 128.31 37.0213 128.289 37.256H122.625ZM124.897 33.496C124.246 33.496 123.718 33.7307 123.313 34.2C122.908 34.6587 122.678 35.336 122.625 36.232H127.009C126.998 35.3467 126.806 34.6693 126.433 34.2C126.06 33.7307 125.548 33.496 124.897 33.496ZM131.147 32.568H132.299L132.411 33.752C132.742 33.3253 133.158 32.9947 133.659 32.76C134.171 32.5147 134.683 32.392 135.195 32.392C136.774 32.392 137.563 33.224 137.563 34.888V41H136.219V35.88C136.219 35.2507 136.182 34.7707 136.107 34.44C136.043 34.1093 135.91 33.864 135.707 33.704C135.504 33.544 135.195 33.464 134.779 33.464C134.32 33.464 133.888 33.6027 133.483 33.88C133.078 34.1573 132.747 34.488 132.491 34.872V41H131.147V32.568ZM147.445 40.568C147.157 40.76 146.805 40.9093 146.389 41.016C145.983 41.1227 145.578 41.176 145.173 41.176C144.287 41.176 143.594 40.9467 143.093 40.488C142.591 40.0187 142.341 39.4053 142.341 38.648V33.624H140.405V32.568H142.341V30.664L143.685 30.504V32.568H146.613L146.437 33.624H143.685V38.632C143.685 39.112 143.813 39.4693 144.069 39.704C144.325 39.9387 144.735 40.056 145.301 40.056C145.877 40.056 146.415 39.9227 146.917 39.656L147.445 40.568ZM173.634 104.8C174.317 104.8 174.904 104.891 175.394 105.072C175.885 105.243 176.365 105.509 176.834 105.872L176.05 106.784C175.4 106.24 174.626 105.968 173.73 105.968C172.738 105.968 171.928 106.331 171.298 107.056C170.68 107.771 170.37 108.912 170.37 110.48C170.37 112.037 170.674 113.179 171.282 113.904C171.89 114.629 172.701 114.992 173.714 114.992C174.269 114.992 174.744 114.912 175.138 114.752C175.533 114.592 175.912 114.368 176.274 114.08L176.994 114.976C176.173 115.776 175.074 116.176 173.698 116.176C172.792 116.176 171.976 115.957 171.25 115.52C170.525 115.072 169.954 114.421 169.538 113.568C169.122 112.715 168.914 111.685 168.914 110.48C168.914 109.285 169.122 108.261 169.538 107.408C169.965 106.544 170.536 105.893 171.25 105.456C171.976 105.019 172.77 104.8 173.634 104.8ZM182.396 113.92C182.396 114.677 182.86 115.056 183.788 115.056C184.225 115.056 184.695 114.96 185.196 114.768L185.548 115.744C185.015 116.032 184.348 116.176 183.548 116.176C182.791 116.176 182.183 115.968 181.724 115.552C181.276 115.136 181.052 114.571 181.052 113.856V105.248H178.46V104.176H182.396V113.92ZM191.894 103.632C192.192 103.632 192.432 103.723 192.614 103.904C192.795 104.075 192.886 104.299 192.886 104.576C192.886 104.853 192.795 105.083 192.614 105.264C192.432 105.435 192.192 105.52 191.894 105.52C191.606 105.52 191.371 105.435 191.19 105.264C191.019 105.083 190.934 104.853 190.934 104.576C190.934 104.299 191.019 104.075 191.19 103.904C191.371 103.723 191.606 103.632 191.894 103.632ZM192.966 107.568V114.928H195.334V116H189.03V114.928H191.622V108.64H189.11V107.568H192.966ZM199.36 112.256C199.392 113.184 199.632 113.883 200.08 114.352C200.538 114.821 201.114 115.056 201.808 115.056C202.224 115.056 202.602 114.997 202.944 114.88C203.296 114.752 203.669 114.56 204.064 114.304L204.688 115.2C204.293 115.509 203.84 115.749 203.328 115.92C202.826 116.091 202.32 116.176 201.808 116.176C200.592 116.176 199.642 115.781 198.96 114.992C198.288 114.192 197.952 113.125 197.952 111.792C197.952 110.949 198.101 110.197 198.4 109.536C198.698 108.864 199.125 108.341 199.68 107.968C200.234 107.584 200.88 107.392 201.616 107.392C202.682 107.392 203.52 107.765 204.128 108.512C204.746 109.248 205.056 110.256 205.056 111.536C205.056 111.781 205.045 112.021 205.024 112.256H199.36ZM201.632 108.496C200.981 108.496 200.453 108.731 200.048 109.2C199.642 109.659 199.413 110.336 199.36 111.232H203.744C203.733 110.347 203.541 109.669 203.168 109.2C202.794 108.731 202.282 108.496 201.632 108.496ZM207.881 107.568H209.033L209.145 108.752C209.476 108.325 209.892 107.995 210.393 107.76C210.905 107.515 211.417 107.392 211.929 107.392C213.508 107.392 214.297 108.224 214.297 109.888V116H212.953V110.88C212.953 110.251 212.916 109.771 212.841 109.44C212.777 109.109 212.644 108.864 212.441 108.704C212.239 108.544 211.929 108.464 211.513 108.464C211.055 108.464 210.623 108.603 210.217 108.88C209.812 109.157 209.481 109.488 209.225 109.872V116H207.881V107.568ZM224.179 115.568C223.891 115.76 223.539 115.909 223.123 116.016C222.718 116.123 222.312 116.176 221.907 116.176C221.022 116.176 220.328 115.947 219.827 115.488C219.326 115.019 219.075 114.405 219.075 113.648V108.624H217.139V107.568H219.075V105.664L220.419 105.504V107.568H223.347L223.171 108.624H220.419V113.632C220.419 114.112 220.547 114.469 220.803 114.704C221.059 114.939 221.47 115.056 222.035 115.056C222.611 115.056 223.15 114.923 223.651 114.656L224.179 115.568Z" fill="#8D7AEF"/>
<path d="M26.7454 92.648L25.6574 92.168L32.4894 78.056L33.5614 78.568L26.7454 92.648ZM34.7454 92.648L33.6574 92.168L40.4894 78.056L41.5614 78.568L34.7454 92.648ZM60.7489 79.976V81.096H58.3009V89.896H60.7489V91H54.4449V89.896H56.8929V81.096H54.4449V79.976H60.7489ZM63.9906 82.568H65.1426L65.2546 83.752C65.5853 83.3253 66.0013 82.9947 66.5026 82.76C67.0146 82.5147 67.5266 82.392 68.0386 82.392C69.6173 82.392 70.4066 83.224 70.4066 84.888V91H69.0626V85.88C69.0626 85.2507 69.0253 84.7707 68.9506 84.44C68.8866 84.1093 68.7533 83.864 68.5506 83.704C68.348 83.544 68.0386 83.464 67.6226 83.464C67.164 83.464 66.732 83.6027 66.3266 83.88C65.9213 84.1573 65.5906 84.488 65.3346 84.872V91H63.9906V82.568ZM76.7844 78.632C77.083 78.632 77.323 78.7227 77.5044 78.904C77.6857 79.0747 77.7764 79.2987 77.7764 79.576C77.7764 79.8533 77.6857 80.0827 77.5044 80.264C77.323 80.4347 77.083 80.52 76.7844 80.52C76.4964 80.52 76.2617 80.4347 76.0804 80.264C75.9097 80.0827 75.8244 79.8533 75.8244 79.576C75.8244 79.2987 75.9097 79.0747 76.0804 78.904C76.2617 78.7227 76.4964 78.632 76.7844 78.632ZM77.8564 82.568V89.928H80.2244V91H73.9204V89.928H76.5124V83.64H74.0004V82.568H77.8564ZM89.8821 90.568C89.5941 90.76 89.2421 90.9093 88.8261 91.016C88.4208 91.1227 88.0155 91.176 87.6101 91.176C86.7248 91.176 86.0315 90.9467 85.5301 90.488C85.0288 90.0187 84.7781 89.4053 84.7781 88.648V83.624H82.8421V82.568H84.7781V80.664L86.1221 80.504V82.568H89.0501L88.8741 83.624H86.1221V88.632C86.1221 89.112 86.2501 89.4693 86.5061 89.704C86.7621 89.9387 87.1728 90.056 87.7381 90.056C88.3141 90.056 88.8528 89.9227 89.3541 89.656L89.8821 90.568ZM95.9719 78.632C96.2705 78.632 96.5105 78.7227 96.6919 78.904C96.8732 79.0747 96.9639 79.2987 96.9639 79.576C96.9639 79.8533 96.8732 80.0827 96.6919 80.264C96.5105 80.4347 96.2705 80.52 95.9719 80.52C95.6839 80.52 95.4492 80.4347 95.2679 80.264C95.0972 80.0827 95.0119 79.8533 95.0119 79.576C95.0119 79.2987 95.0972 79.0747 95.2679 78.904C95.4492 78.7227 95.6839 78.632 95.9719 78.632ZM97.0439 82.568V89.928H99.4119V91H93.1079V89.928H95.6999V83.64H93.1879V82.568H97.0439ZM108.414 89.16C108.414 89.4907 108.467 89.736 108.574 89.896C108.68 90.0453 108.856 90.1573 109.102 90.232L108.766 91.192C107.944 91.0853 107.432 90.6853 107.23 89.992C106.931 90.376 106.552 90.6693 106.094 90.872C105.646 91.0747 105.144 91.176 104.59 91.176C103.747 91.176 103.08 90.9413 102.59 90.472C102.11 90.0027 101.87 89.3733 101.87 88.584C101.87 87.72 102.206 87.0533 102.878 86.584C103.56 86.1147 104.536 85.88 105.806 85.88H107.054V85.192C107.054 84.5947 106.883 84.168 106.542 83.912C106.2 83.6453 105.704 83.512 105.054 83.512C104.414 83.512 103.683 83.656 102.862 83.944L102.494 82.92C103.486 82.568 104.408 82.392 105.262 82.392C106.286 82.392 107.064 82.632 107.598 83.112C108.142 83.592 108.414 84.2587 108.414 85.112V89.16ZM104.926 90.168C105.342 90.168 105.736 90.0613 106.11 89.848C106.494 89.6347 106.808 89.3413 107.054 88.968V86.808H105.838C104.942 86.808 104.296 86.9573 103.902 87.256C103.507 87.5547 103.31 87.992 103.31 88.568C103.31 89.6347 103.848 90.168 104.926 90.168ZM115.255 88.92C115.255 89.6773 115.719 90.056 116.647 90.056C117.085 90.056 117.554 89.96 118.055 89.768L118.407 90.744C117.874 91.032 117.207 91.176 116.407 91.176C115.65 91.176 115.042 90.968 114.583 90.552C114.135 90.136 113.911 89.5707 113.911 88.856V80.248H111.319V79.176H115.255V88.92ZM124.753 78.632C125.052 78.632 125.292 78.7227 125.473 78.904C125.654 79.0747 125.745 79.2987 125.745 79.576C125.745 79.8533 125.654 80.0827 125.473 80.264C125.292 80.4347 125.052 80.52 124.753 80.52C124.465 80.52 124.23 80.4347 124.049 80.264C123.878 80.0827 123.793 79.8533 123.793 79.576C123.793 79.2987 123.878 79.0747 124.049 78.904C124.23 78.7227 124.465 78.632 124.753 78.632ZM125.825 82.568V89.928H128.193V91H121.889V89.928H124.481V83.64H121.969V82.568H125.825ZM132.827 89.848H137.515L137.355 91H131.179V89.976L135.851 83.752H131.547V82.568H137.467V83.624L132.827 89.848ZM141.813 87.256C141.845 88.184 142.085 88.8827 142.533 89.352C142.991 89.8213 143.567 90.056 144.261 90.056C144.677 90.056 145.055 89.9973 145.397 89.88C145.749 89.752 146.122 89.56 146.517 89.304L147.141 90.2C146.746 90.5093 146.293 90.7493 145.781 90.92C145.279 91.0907 144.773 91.176 144.261 91.176C143.045 91.176 142.095 90.7813 141.413 89.992C140.741 89.192 140.405 88.1253 140.405 86.792C140.405 85.9493 140.554 85.1973 140.853 84.536C141.151 83.864 141.578 83.3413 142.133 82.968C142.687 82.584 143.333 82.392 144.069 82.392C145.135 82.392 145.973 82.7653 146.581 83.512C147.199 84.248 147.509 85.256 147.509 86.536C147.509 86.7813 147.498 87.0213 147.477 87.256H141.813ZM144.085 83.496C143.434 83.496 142.906 83.7307 142.501 84.2C142.095 84.6587 141.866 85.336 141.813 86.232H146.197C146.186 85.3467 145.994 84.6693 145.621 84.2C145.247 83.7307 144.735 83.496 144.085 83.496ZM163.752 90.024C164.488 90.024 165.219 89.7787 165.944 89.288L166.584 90.168C166.232 90.4773 165.795 90.7227 165.272 90.904C164.749 91.0853 164.243 91.176 163.752 91.176C162.504 91.176 161.528 90.7867 160.824 90.008C160.131 89.2187 159.784 88.1573 159.784 86.824C159.784 85.9813 159.939 85.224 160.248 84.552C160.568 83.88 161.027 83.352 161.624 82.968C162.221 82.584 162.931 82.392 163.752 82.392C164.84 82.392 165.779 82.7227 166.568 83.384L165.912 84.264C165.176 83.7733 164.451 83.528 163.736 83.528C162.979 83.528 162.371 83.8107 161.912 84.376C161.464 84.9307 161.24 85.7467 161.24 86.824C161.24 87.9013 161.464 88.7067 161.912 89.24C162.371 89.7627 162.984 90.024 163.752 90.024ZM172.818 88.92C172.818 89.6773 173.282 90.056 174.21 90.056C174.647 90.056 175.117 89.96 175.618 89.768L175.97 90.744C175.437 91.032 174.77 91.176 173.97 91.176C173.213 91.176 172.605 90.968 172.146 90.552C171.698 90.136 171.474 89.5707 171.474 88.856V80.248H168.882V79.176H172.818V88.92ZM182.316 78.632C182.614 78.632 182.854 78.7227 183.036 78.904C183.217 79.0747 183.308 79.2987 183.308 79.576C183.308 79.8533 183.217 80.0827 183.036 80.264C182.854 80.4347 182.614 80.52 182.316 80.52C182.028 80.52 181.793 80.4347 181.612 80.264C181.441 80.0827 181.356 79.8533 181.356 79.576C181.356 79.2987 181.441 79.0747 181.612 78.904C181.793 78.7227 182.028 78.632 182.316 78.632ZM183.388 82.568V89.928H185.756V91H179.452V89.928H182.044V83.64H179.532V82.568H183.388ZM189.781 87.256C189.813 88.184 190.053 88.8827 190.501 89.352C190.96 89.8213 191.536 90.056 192.229 90.056C192.645 90.056 193.024 89.9973 193.365 89.88C193.717 89.752 194.091 89.56 194.485 89.304L195.109 90.2C194.715 90.5093 194.261 90.7493 193.749 90.92C193.248 91.0907 192.741 91.176 192.229 91.176C191.013 91.176 190.064 90.7813 189.381 89.992C188.709 89.192 188.373 88.1253 188.373 86.792C188.373 85.9493 188.523 85.1973 188.821 84.536C189.12 83.864 189.547 83.3413 190.101 82.968C190.656 82.584 191.301 82.392 192.037 82.392C193.104 82.392 193.941 82.7653 194.549 83.512C195.168 84.248 195.477 85.256 195.477 86.536C195.477 86.7813 195.467 87.0213 195.445 87.256H189.781ZM192.053 83.496C191.403 83.496 190.875 83.7307 190.469 84.2C190.064 84.6587 189.835 85.336 189.781 86.232H194.165C194.155 85.3467 193.963 84.6693 193.589 84.2C193.216 83.7307 192.704 83.496 192.053 83.496ZM198.303 82.568H199.455L199.567 83.752C199.898 83.3253 200.314 82.9947 200.815 82.76C201.327 82.5147 201.839 82.392 202.351 82.392C203.93 82.392 204.719 83.224 204.719 84.888V91H203.375V85.88C203.375 85.2507 203.338 84.7707 203.263 84.44C203.199 84.1093 203.066 83.864 202.863 83.704C202.66 83.544 202.351 83.464 201.935 83.464C201.476 83.464 201.044 83.6027 200.639 83.88C200.234 84.1573 199.903 84.488 199.647 84.872V91H198.303V82.568ZM214.601 90.568C214.313 90.76 213.961 90.9093 213.545 91.016C213.14 91.1227 212.734 91.176 212.329 91.176C211.444 91.176 210.75 90.9467 210.249 90.488C209.748 90.0187 209.497 89.4053 209.497 88.648V83.624H207.561V82.568H209.497V80.664L210.841 80.504V82.568H213.769L213.593 83.624H210.841V88.632C210.841 89.112 210.969 89.4693 211.225 89.704C211.481 89.9387 211.892 90.056 212.457 90.056C213.033 90.056 213.572 89.9227 214.073 89.656L214.601 90.568ZM234.076 87.944C234.076 88.584 233.916 89.1493 233.596 89.64C233.276 90.12 232.812 90.4987 232.204 90.776C231.596 91.0427 230.876 91.176 230.044 91.176C229.244 91.176 228.514 91.0587 227.852 90.824C227.202 90.5787 226.642 90.232 226.172 89.784L227.004 88.84C227.41 89.224 227.858 89.5173 228.348 89.72C228.85 89.9227 229.42 90.024 230.06 90.024C230.786 90.024 231.394 89.848 231.884 89.496C232.375 89.144 232.62 88.6373 232.62 87.976C232.62 87.6027 232.551 87.2933 232.412 87.048C232.274 86.8027 232.028 86.584 231.676 86.392C231.335 86.2 230.85 86.0133 230.22 85.832C229.026 85.48 228.135 85.0693 227.548 84.6C226.962 84.12 226.668 83.4693 226.668 82.648C226.668 82.104 226.818 81.6133 227.116 81.176C227.415 80.7387 227.836 80.4027 228.38 80.168C228.924 79.9227 229.543 79.8 230.236 79.8C230.962 79.8 231.607 79.9067 232.172 80.12C232.748 80.3333 233.276 80.648 233.756 81.064L232.924 81.96C232.167 81.2987 231.287 80.968 230.284 80.968C229.644 80.968 229.116 81.1067 228.7 81.384C228.284 81.6613 228.076 82.0667 228.076 82.6C228.076 82.92 228.162 83.192 228.332 83.416C228.503 83.64 228.786 83.848 229.18 84.04C229.575 84.232 230.13 84.4293 230.844 84.632C231.879 84.9307 232.674 85.32 233.228 85.8C233.794 86.28 234.076 86.9947 234.076 87.944ZM243.926 85.432C243.926 87.5227 243.446 88.9733 242.486 89.784C241.526 90.5947 240.342 91 238.934 91H236.406V79.976H238.758C240.305 79.976 241.553 80.3653 242.502 81.144C243.451 81.9227 243.926 83.352 243.926 85.432ZM242.438 85.432C242.438 84.2373 242.273 83.3253 241.942 82.696C241.622 82.056 241.222 81.6347 240.742 81.432C240.262 81.2187 239.713 81.112 239.094 81.112H237.798V89.88H239.11C240.059 89.88 240.849 89.5547 241.478 88.904C242.118 88.2427 242.438 87.0853 242.438 85.432ZM247.744 91H246.352V79.976H247.744V91ZM247.824 85.112L252.144 79.976H253.76L249.456 85.032L254.064 91H252.32L247.824 85.112ZM26.7454 167.648L25.6574 167.168L32.4894 153.056L33.5614 153.568L26.7454 167.648ZM34.7454 167.648L33.6574 167.168L40.4894 153.056L41.5614 153.568L34.7454 167.648ZM61.2449 162.432C61.2449 163.168 61.0902 163.824 60.7809 164.4C60.4822 164.965 60.0555 165.403 59.5009 165.712C58.9569 166.021 58.3169 166.176 57.5809 166.176C56.8342 166.176 56.1889 166.021 55.6449 165.712C55.1009 165.392 54.6795 164.949 54.3809 164.384C54.0929 163.819 53.9489 163.168 53.9489 162.432V154.976H55.3409V162.48C55.3409 163.312 55.5329 163.936 55.9169 164.352C56.3009 164.768 56.8555 164.976 57.5809 164.976C58.3062 164.976 58.8609 164.768 59.2449 164.352C59.6395 163.936 59.8369 163.312 59.8369 162.48V154.976H61.2449V162.432ZM67.7666 157.392C69.804 157.392 70.8226 158.853 70.8226 161.776C70.8226 163.109 70.5453 164.176 69.9906 164.976C69.436 165.776 68.6306 166.176 67.5746 166.176C66.6573 166.176 65.9106 165.856 65.3346 165.216V169.232L63.9906 169.392V157.568H65.1426L65.2546 158.752C65.564 158.315 65.932 157.979 66.3586 157.744C66.796 157.509 67.2653 157.392 67.7666 157.392ZM67.4466 158.48C67.02 158.48 66.6253 158.608 66.2626 158.864C65.9106 159.12 65.6013 159.44 65.3346 159.824V164C65.5586 164.331 65.836 164.592 66.1666 164.784C66.508 164.965 66.876 165.056 67.2706 165.056C67.9746 165.056 68.4973 164.789 68.8386 164.256C69.1906 163.712 69.3666 162.885 69.3666 161.776C69.3666 160.667 69.212 159.84 68.9026 159.296C68.5933 158.752 68.108 158.48 67.4466 158.48ZM80 154.176V166H78.816L78.688 164.896C78.3787 165.323 78.0213 165.643 77.616 165.856C77.2107 166.069 76.7733 166.176 76.304 166.176C75.2373 166.176 74.432 165.787 73.888 165.008C73.3547 164.229 73.088 163.157 73.088 161.792C73.088 160.949 73.2213 160.197 73.488 159.536C73.7547 158.864 74.1333 158.341 74.624 157.968C75.1253 157.584 75.712 157.392 76.384 157.392C77.312 157.392 78.0693 157.728 78.656 158.4V154.016L80 154.176ZM76.736 158.48C76.032 158.48 75.488 158.757 75.104 159.312C74.7307 159.867 74.544 160.693 74.544 161.792C74.544 162.88 74.7147 163.707 75.056 164.272C75.408 164.827 75.9147 165.104 76.576 165.104C77.376 165.104 78.0693 164.656 78.656 163.76V159.568C78.4213 159.216 78.1387 158.949 77.808 158.768C77.4773 158.576 77.12 158.48 76.736 158.48ZM89.2418 164.16C89.2418 164.491 89.2951 164.736 89.4018 164.896C89.5084 165.045 89.6844 165.157 89.9298 165.232L89.5938 166.192C88.7724 166.085 88.2604 165.685 88.0578 164.992C87.7591 165.376 87.3804 165.669 86.9218 165.872C86.4738 166.075 85.9724 166.176 85.4178 166.176C84.5751 166.176 83.9084 165.941 83.4178 165.472C82.9378 165.003 82.6978 164.373 82.6978 163.584C82.6978 162.72 83.0338 162.053 83.7057 161.584C84.3884 161.115 85.3644 160.88 86.6338 160.88H87.8818V160.192C87.8818 159.595 87.7111 159.168 87.3698 158.912C87.0284 158.645 86.5324 158.512 85.8818 158.512C85.2418 158.512 84.5111 158.656 83.6898 158.944L83.3218 157.92C84.3138 157.568 85.2364 157.392 86.0898 157.392C87.1138 157.392 87.8924 157.632 88.4258 158.112C88.9698 158.592 89.2418 159.259 89.2418 160.112V164.16ZM85.7538 165.168C86.1698 165.168 86.5644 165.061 86.9378 164.848C87.3218 164.635 87.6364 164.341 87.8818 163.968V161.808H86.6658C85.7698 161.808 85.1244 161.957 84.7298 162.256C84.3351 162.555 84.1378 162.992 84.1378 163.568C84.1378 164.635 84.6764 165.168 85.7538 165.168ZM99.4915 165.568C99.2035 165.76 98.8515 165.909 98.4355 166.016C98.0302 166.123 97.6248 166.176 97.2195 166.176C96.3342 166.176 95.6408 165.947 95.1395 165.488C94.6382 165.019 94.3875 164.405 94.3875 163.648V158.624H92.4515V157.568H94.3875V155.664L95.7315 155.504V157.568H98.6595L98.4835 158.624H95.7315V163.632C95.7315 164.112 95.8595 164.469 96.1155 164.704C96.3715 164.939 96.7822 165.056 97.3475 165.056C97.9235 165.056 98.4622 164.923 98.9635 164.656L99.4915 165.568ZM103.453 162.256C103.485 163.184 103.725 163.883 104.173 164.352C104.632 164.821 105.208 165.056 105.901 165.056C106.317 165.056 106.696 164.997 107.037 164.88C107.389 164.752 107.763 164.56 108.157 164.304L108.781 165.2C108.387 165.509 107.933 165.749 107.421 165.92C106.92 166.091 106.413 166.176 105.901 166.176C104.685 166.176 103.736 165.781 103.053 164.992C102.381 164.192 102.045 163.125 102.045 161.792C102.045 160.949 102.195 160.197 102.493 159.536C102.792 158.864 103.219 158.341 103.773 157.968C104.328 157.584 104.973 157.392 105.709 157.392C106.776 157.392 107.613 157.765 108.221 158.512C108.84 159.248 109.149 160.256 109.149 161.536C109.149 161.781 109.139 162.021 109.117 162.256H103.453ZM105.725 158.496C105.075 158.496 104.547 158.731 104.141 159.2C103.736 159.659 103.507 160.336 103.453 161.232H107.837C107.827 160.347 107.635 159.669 107.261 159.2C106.888 158.731 106.376 158.496 105.725 158.496ZM127.617 164.16C127.617 164.491 127.67 164.736 127.777 164.896C127.883 165.045 128.059 165.157 128.305 165.232L127.969 166.192C127.147 166.085 126.635 165.685 126.433 164.992C126.134 165.376 125.755 165.669 125.297 165.872C124.849 166.075 124.347 166.176 123.793 166.176C122.95 166.176 122.283 165.941 121.793 165.472C121.313 165.003 121.073 164.373 121.073 163.584C121.073 162.72 121.409 162.053 122.081 161.584C122.763 161.115 123.739 160.88 125.009 160.88H126.257V160.192C126.257 159.595 126.086 159.168 125.745 158.912C125.403 158.645 124.907 158.512 124.257 158.512C123.617 158.512 122.886 158.656 122.065 158.944L121.697 157.92C122.689 157.568 123.611 157.392 124.465 157.392C125.489 157.392 126.267 157.632 126.801 158.112C127.345 158.592 127.617 159.259 127.617 160.112V164.16ZM124.129 165.168C124.545 165.168 124.939 165.061 125.313 164.848C125.697 164.635 126.011 164.341 126.257 163.968V161.808H125.041C124.145 161.808 123.499 161.957 123.105 162.256C122.71 162.555 122.513 162.992 122.513 163.568C122.513 164.635 123.051 165.168 124.129 165.168ZM144.58 165.024C145.316 165.024 146.047 164.779 146.772 164.288L147.412 165.168C147.06 165.477 146.623 165.723 146.1 165.904C145.578 166.085 145.071 166.176 144.58 166.176C143.332 166.176 142.356 165.787 141.652 165.008C140.959 164.219 140.612 163.157 140.612 161.824C140.612 160.981 140.767 160.224 141.076 159.552C141.396 158.88 141.855 158.352 142.452 157.968C143.05 157.584 143.759 157.392 144.58 157.392C145.668 157.392 146.607 157.723 147.396 158.384L146.74 159.264C146.004 158.773 145.279 158.528 144.564 158.528C143.807 158.528 143.199 158.811 142.74 159.376C142.292 159.931 142.068 160.747 142.068 161.824C142.068 162.901 142.292 163.707 142.74 164.24C143.199 164.763 143.812 165.024 144.58 165.024ZM156.398 164.16C156.398 164.491 156.451 164.736 156.558 164.896C156.665 165.045 156.841 165.157 157.086 165.232L156.75 166.192C155.929 166.085 155.417 165.685 155.214 164.992C154.915 165.376 154.537 165.669 154.078 165.872C153.63 166.075 153.129 166.176 152.574 166.176C151.731 166.176 151.065 165.941 150.574 165.472C150.094 165.003 149.854 164.373 149.854 163.584C149.854 162.72 150.19 162.053 150.862 161.584C151.545 161.115 152.521 160.88 153.79 160.88H155.038V160.192C155.038 159.595 154.867 159.168 154.526 158.912C154.185 158.645 153.689 158.512 153.038 158.512C152.398 158.512 151.667 158.656 150.846 158.944L150.478 157.92C151.47 157.568 152.393 157.392 153.246 157.392C154.27 157.392 155.049 157.632 155.582 158.112C156.126 158.592 156.398 159.259 156.398 160.112V164.16ZM152.91 165.168C153.326 165.168 153.721 165.061 154.094 164.848C154.478 164.635 154.793 164.341 155.038 163.968V161.808H153.822C152.926 161.808 152.281 161.957 151.886 162.256C151.491 162.555 151.294 162.992 151.294 163.568C151.294 164.635 151.833 165.168 152.91 165.168ZM166.648 165.568C166.36 165.76 166.008 165.909 165.592 166.016C165.186 166.123 164.781 166.176 164.376 166.176C163.49 166.176 162.797 165.947 162.296 165.488C161.794 165.019 161.544 164.405 161.544 163.648V158.624H159.608V157.568H161.544V155.664L162.888 155.504V157.568H165.816L165.64 158.624H162.888V163.632C162.888 164.112 163.016 164.469 163.272 164.704C163.528 164.939 163.938 165.056 164.504 165.056C165.08 165.056 165.618 164.923 166.12 164.656L166.648 165.568ZM171.314 164.768C171.314 164.373 171.447 164.043 171.714 163.776C171.991 163.499 172.327 163.36 172.722 163.36C173.127 163.36 173.463 163.499 173.73 163.776C173.996 164.043 174.13 164.373 174.13 164.768C174.13 165.173 173.996 165.509 173.73 165.776C173.463 166.043 173.127 166.176 172.722 166.176C172.327 166.176 171.991 166.043 171.714 165.776C171.447 165.499 171.314 165.163 171.314 164.768Z" fill="#7E7E7E"/>
<path d="M86.9865 190.024C87.7225 190.024 88.4532 189.779 89.1785 189.288L89.8185 190.168C89.4665 190.477 89.0292 190.723 88.5065 190.904C87.9838 191.085 87.4772 191.176 86.9865 191.176C85.7385 191.176 84.7625 190.787 84.0585 190.008C83.3652 189.219 83.0185 188.157 83.0185 186.824C83.0185 185.981 83.1732 185.224 83.4825 184.552C83.8025 183.88 84.2612 183.352 84.8585 182.968C85.4558 182.584 86.1652 182.392 86.9865 182.392C88.0745 182.392 89.0132 182.723 89.8025 183.384L89.1465 184.264C88.4105 183.773 87.6852 183.528 86.9705 183.528C86.2132 183.528 85.6052 183.811 85.1465 184.376C84.6985 184.931 84.4745 185.747 84.4745 186.824C84.4745 187.901 84.6985 188.707 85.1465 189.24C85.6052 189.763 86.2185 190.024 86.9865 190.024ZM98.8043 189.16C98.8043 189.491 98.8576 189.736 98.9643 189.896C99.0709 190.045 99.2469 190.157 99.4923 190.232L99.1562 191.192C98.3349 191.085 97.8229 190.685 97.6203 189.992C97.3216 190.376 96.9429 190.669 96.4843 190.872C96.0363 191.075 95.5349 191.176 94.9803 191.176C94.1376 191.176 93.4709 190.941 92.9803 190.472C92.5003 190.003 92.2603 189.373 92.2603 188.584C92.2603 187.72 92.5963 187.053 93.2682 186.584C93.9509 186.115 94.9269 185.88 96.1963 185.88H97.4443V185.192C97.4443 184.595 97.2736 184.168 96.9323 183.912C96.5909 183.645 96.0949 183.512 95.4443 183.512C94.8043 183.512 94.0736 183.656 93.2523 183.944L92.8843 182.92C93.8763 182.568 94.7989 182.392 95.6523 182.392C96.6763 182.392 97.4549 182.632 97.9883 183.112C98.5323 183.592 98.8043 184.259 98.8043 185.112V189.16ZM95.3163 190.168C95.7323 190.168 96.1269 190.061 96.5003 189.848C96.8843 189.635 97.1989 189.341 97.4443 188.968V186.808H96.2283C95.3323 186.808 94.6869 186.957 94.2923 187.256C93.8976 187.555 93.7003 187.992 93.7003 188.568C93.7003 189.635 94.2389 190.168 95.3163 190.168ZM109.054 190.568C108.766 190.76 108.414 190.909 107.998 191.016C107.593 191.123 107.187 191.176 106.782 191.176C105.897 191.176 105.203 190.947 104.702 190.488C104.201 190.019 103.95 189.405 103.95 188.648V183.624H102.014V182.568H103.95V180.664L105.294 180.504V182.568H108.222L108.046 183.624H105.294V188.632C105.294 189.112 105.422 189.469 105.678 189.704C105.934 189.939 106.345 190.056 106.91 190.056C107.486 190.056 108.025 189.923 108.526 189.656L109.054 190.568ZM118.296 179.976V181.096H115.848V189.896H118.296V191H111.992V189.896H114.44V181.096H111.992V179.976H118.296ZM127.09 182.392C127.57 182.392 127.959 182.563 128.258 182.904C128.567 183.235 128.722 183.843 128.722 184.728V191H127.49V184.952C127.49 184.365 127.452 183.971 127.378 183.768C127.303 183.555 127.122 183.448 126.834 183.448C126.29 183.448 125.799 183.784 125.362 184.456V191H124.114V184.952C124.114 184.365 124.076 183.971 124.002 183.768C123.927 183.555 123.746 183.448 123.458 183.448C122.914 183.448 122.423 183.784 121.986 184.456V191H120.754V182.568H121.794L121.89 183.56C122.146 183.187 122.412 182.899 122.69 182.696C122.978 182.493 123.319 182.392 123.714 182.392C124.503 182.392 125.01 182.765 125.234 183.512C125.49 183.149 125.762 182.872 126.05 182.68C126.338 182.488 126.684 182.392 127.09 182.392ZM137.179 189.16C137.179 189.491 137.233 189.736 137.339 189.896C137.446 190.045 137.622 190.157 137.867 190.232L137.531 191.192C136.71 191.085 136.198 190.685 135.995 189.992C135.697 190.376 135.318 190.669 134.859 190.872C134.411 191.075 133.91 191.176 133.355 191.176C132.513 191.176 131.846 190.941 131.355 190.472C130.875 190.003 130.635 189.373 130.635 188.584C130.635 187.72 130.971 187.053 131.643 186.584C132.326 186.115 133.302 185.88 134.571 185.88H135.819V185.192C135.819 184.595 135.649 184.168 135.307 183.912C134.966 183.645 134.47 183.512 133.819 183.512C133.179 183.512 132.449 183.656 131.627 183.944L131.259 182.92C132.251 182.568 133.174 182.392 134.027 182.392C135.051 182.392 135.83 182.632 136.363 183.112C136.907 183.592 137.179 184.259 137.179 185.112V189.16ZM133.691 190.168C134.107 190.168 134.502 190.061 134.875 189.848C135.259 189.635 135.574 189.341 135.819 188.968V186.808H134.603C133.707 186.808 133.062 186.957 132.667 187.256C132.273 187.555 132.075 187.992 132.075 188.568C132.075 189.635 132.614 190.168 133.691 190.168ZM147.989 182.952C147.669 183.059 147.322 183.128 146.949 183.16C146.576 183.181 146.101 183.192 145.525 183.192C146.506 183.64 146.997 184.349 146.997 185.32C146.997 186.173 146.714 186.867 146.149 187.4C145.584 187.923 144.81 188.184 143.829 188.184C143.328 188.184 142.906 188.125 142.565 188.008C142.437 188.104 142.33 188.227 142.245 188.376C142.17 188.525 142.133 188.675 142.133 188.824C142.133 189.304 142.506 189.544 143.253 189.544H144.773C145.328 189.544 145.829 189.645 146.277 189.848C146.736 190.04 147.093 190.312 147.349 190.664C147.616 191.016 147.749 191.405 147.749 191.832C147.749 192.653 147.397 193.283 146.693 193.72C146 194.168 145.013 194.392 143.733 194.392C142.432 194.392 141.514 194.189 140.981 193.784C140.448 193.379 140.181 192.733 140.181 191.848H141.397C141.397 192.2 141.461 192.477 141.589 192.68C141.728 192.893 141.962 193.048 142.293 193.144C142.634 193.251 143.114 193.304 143.733 193.304C144.64 193.304 145.306 193.187 145.733 192.952C146.17 192.717 146.389 192.371 146.389 191.912C146.389 191.528 146.213 191.229 145.861 191.016C145.509 190.813 145.056 190.712 144.501 190.712H142.997C142.304 190.712 141.776 190.563 141.413 190.264C141.05 189.955 140.869 189.571 140.869 189.112C140.869 188.845 140.949 188.584 141.109 188.328C141.269 188.061 141.498 187.832 141.797 187.64C141.317 187.395 140.96 187.085 140.725 186.712C140.501 186.328 140.389 185.864 140.389 185.32C140.389 184.755 140.528 184.253 140.805 183.816C141.093 183.368 141.488 183.021 141.989 182.776C142.501 182.52 143.088 182.392 143.749 182.392C144.709 182.392 145.44 182.339 145.941 182.232C146.442 182.125 146.992 181.944 147.589 181.688L147.989 182.952ZM143.733 183.384C143.082 183.384 142.592 183.56 142.261 183.912C141.93 184.253 141.765 184.723 141.765 185.32C141.765 185.917 141.93 186.397 142.261 186.76C142.602 187.112 143.104 187.288 143.765 187.288C144.362 187.288 144.816 187.117 145.125 186.776C145.445 186.424 145.605 185.933 145.605 185.304C145.605 184.024 144.981 183.384 143.733 183.384ZM151.391 187.256C151.423 188.184 151.663 188.883 152.111 189.352C152.569 189.821 153.145 190.056 153.839 190.056C154.255 190.056 154.633 189.997 154.975 189.88C155.327 189.752 155.7 189.56 156.095 189.304L156.719 190.2C156.324 190.509 155.871 190.749 155.359 190.92C154.857 191.091 154.351 191.176 153.839 191.176C152.623 191.176 151.673 190.781 150.991 189.992C150.319 189.192 149.983 188.125 149.983 186.792C149.983 185.949 150.132 185.197 150.431 184.536C150.729 183.864 151.156 183.341 151.711 182.968C152.265 182.584 152.911 182.392 153.647 182.392C154.713 182.392 155.551 182.765 156.159 183.512C156.777 184.248 157.087 185.256 157.087 186.536C157.087 186.781 157.076 187.021 157.055 187.256H151.391ZM153.663 183.496C153.012 183.496 152.484 183.731 152.079 184.2C151.673 184.659 151.444 185.336 151.391 186.232H155.775C155.764 185.347 155.572 184.669 155.199 184.2C154.825 183.731 154.313 183.496 153.663 183.496ZM162.793 190.072C163.433 190.072 163.939 189.949 164.313 189.704C164.686 189.459 164.873 189.133 164.873 188.728C164.873 188.451 164.825 188.227 164.729 188.056C164.633 187.875 164.441 187.715 164.153 187.576C163.865 187.427 163.427 187.277 162.841 187.128C161.859 186.883 161.134 186.589 160.664 186.248C160.195 185.896 159.961 185.379 159.961 184.696C159.961 183.992 160.254 183.432 160.841 183.016C161.427 182.6 162.201 182.392 163.161 182.392C164.334 182.392 165.358 182.701 166.233 183.32L165.625 184.248C165.273 184.003 164.905 183.816 164.521 183.688C164.137 183.549 163.694 183.48 163.193 183.48C161.977 183.48 161.369 183.848 161.369 184.584C161.369 184.84 161.433 185.048 161.561 185.208C161.699 185.368 161.918 185.512 162.217 185.64C162.526 185.757 162.985 185.901 163.593 186.072C164.51 186.317 165.193 186.632 165.641 187.016C166.099 187.389 166.329 187.939 166.329 188.664C166.329 189.507 165.987 190.136 165.305 190.552C164.622 190.968 163.785 191.176 162.793 191.176C161.47 191.176 160.371 190.797 159.497 190.04L160.249 189.16C160.59 189.437 160.979 189.661 161.417 189.832C161.854 189.992 162.313 190.072 162.793 190.072ZM185.404 183.928V185.08H179.196V183.928H185.404ZM185.404 186.968V188.12H179.196V186.968H185.404ZM259.674 190.024C260.41 190.024 261.141 189.779 261.866 189.288L262.506 190.168C262.154 190.477 261.717 190.723 261.194 190.904C260.671 191.085 260.165 191.176 259.674 191.176C258.426 191.176 257.45 190.787 256.746 190.008C256.053 189.219 255.706 188.157 255.706 186.824C255.706 185.981 255.861 185.224 256.17 184.552C256.49 183.88 256.949 183.352 257.546 182.968C258.143 182.584 258.853 182.392 259.674 182.392C260.762 182.392 261.701 182.723 262.49 183.384L261.834 184.264C261.098 183.773 260.373 183.528 259.658 183.528C258.901 183.528 258.293 183.811 257.834 184.376C257.386 184.931 257.162 185.747 257.162 186.824C257.162 187.901 257.386 188.707 257.834 189.24C258.293 189.763 258.906 190.024 259.674 190.024ZM268.324 190.072C268.964 190.072 269.47 189.949 269.844 189.704C270.217 189.459 270.404 189.133 270.404 188.728C270.404 188.451 270.356 188.227 270.26 188.056C270.164 187.875 269.972 187.715 269.684 187.576C269.396 187.427 268.958 187.277 268.372 187.128C267.39 186.883 266.665 186.589 266.196 186.248C265.726 185.896 265.492 185.379 265.492 184.696C265.492 183.992 265.785 183.432 266.372 183.016C266.958 182.6 267.732 182.392 268.692 182.392C269.865 182.392 270.889 182.701 271.764 183.32L271.156 184.248C270.804 184.003 270.436 183.816 270.052 183.688C269.668 183.549 269.225 183.48 268.724 183.48C267.508 183.48 266.9 183.848 266.9 184.584C266.9 184.84 266.964 185.048 267.092 185.208C267.23 185.368 267.449 185.512 267.748 185.64C268.057 185.757 268.516 185.901 269.124 186.072C270.041 186.317 270.724 186.632 271.172 187.016C271.63 187.389 271.86 187.939 271.86 188.664C271.86 189.507 271.518 190.136 270.836 190.552C270.153 190.968 269.316 191.176 268.324 191.176C267.001 191.176 265.902 190.797 265.028 190.04L265.78 189.16C266.121 189.437 266.51 189.661 266.948 189.832C267.385 189.992 267.844 190.072 268.324 190.072ZM65.751 213.768C65.751 213.373 65.8843 213.043 66.151 212.776C66.4283 212.499 66.7643 212.36 67.159 212.36C67.5643 212.36 67.9003 212.499 68.167 212.776C68.4337 213.043 68.567 213.373 68.567 213.768C68.567 214.173 68.4337 214.509 68.167 214.776C67.9003 215.043 67.5643 215.176 67.159 215.176C66.7643 215.176 66.4283 215.043 66.151 214.776C65.8843 214.499 65.751 214.163 65.751 213.768ZM113.752 209.4C113.752 210.488 113.874 211.437 114.12 212.248C114.365 213.048 114.728 213.779 115.208 214.44C115.698 215.091 116.349 215.779 117.16 216.504L116.472 217.24C115.533 216.483 114.765 215.736 114.168 215C113.581 214.264 113.128 213.443 112.808 212.536C112.498 211.629 112.344 210.584 112.344 209.4C112.344 208.216 112.498 207.171 112.808 206.264C113.128 205.357 113.581 204.536 114.168 203.8C114.765 203.064 115.533 202.317 116.472 201.56L117.16 202.296C116.338 203.021 115.682 203.709 115.192 204.36C114.712 205.011 114.349 205.741 114.104 206.552C113.869 207.352 113.752 208.301 113.752 209.4ZM183.692 209.4C183.692 208.301 183.569 207.352 183.324 206.552C183.089 205.741 182.727 205.011 182.236 204.36C181.756 203.709 181.105 203.021 180.284 202.296L180.972 201.56C181.911 202.317 182.673 203.064 183.26 203.8C183.857 204.536 184.311 205.357 184.62 206.264C184.94 207.171 185.1 208.216 185.1 209.4C185.1 210.584 184.94 211.629 184.62 212.536C184.311 213.443 183.857 214.264 183.26 215C182.673 215.736 181.911 216.483 180.972 217.24L180.284 216.504C181.095 215.779 181.74 215.091 182.22 214.44C182.711 213.779 183.079 213.048 183.324 212.248C183.569 211.437 183.692 210.488 183.692 209.4ZM65.751 238.768C65.751 238.373 65.8843 238.043 66.151 237.776C66.4283 237.499 66.7643 237.36 67.159 237.36C67.5643 237.36 67.9003 237.499 68.167 237.776C68.4337 238.043 68.567 238.373 68.567 238.768C68.567 239.173 68.4337 239.509 68.167 239.776C67.9003 240.043 67.5643 240.176 67.159 240.176C66.7643 240.176 66.4283 240.043 66.151 239.776C65.8843 239.499 65.751 239.163 65.751 238.768ZM152.127 234.4C152.127 235.488 152.249 236.437 152.495 237.248C152.74 238.048 153.103 238.779 153.583 239.44C154.073 240.091 154.724 240.779 155.535 241.504L154.847 242.24C153.908 241.483 153.14 240.736 152.543 240C151.956 239.264 151.503 238.443 151.183 237.536C150.873 236.629 150.719 235.584 150.719 234.4C150.719 233.216 150.873 232.171 151.183 231.264C151.503 230.357 151.956 229.536 152.543 228.8C153.14 228.064 153.908 227.317 154.847 226.56L155.535 227.296C154.713 228.021 154.057 228.709 153.567 229.36C153.087 230.011 152.724 230.741 152.479 231.552C152.244 232.352 152.127 233.301 152.127 234.4ZM239.863 237.36C240.225 237.36 240.529 237.488 240.775 237.744C241.031 237.989 241.159 238.288 241.159 238.64C241.159 239.035 241.057 239.456 240.855 239.904L239.559 242.864H238.343L239.095 239.712C238.945 239.595 238.823 239.44 238.727 239.248C238.631 239.056 238.583 238.859 238.583 238.656C238.583 238.293 238.705 237.989 238.951 237.744C239.196 237.488 239.5 237.36 239.863 237.36ZM346.786 234.4C346.786 233.301 346.663 232.352 346.418 231.552C346.183 230.741 345.82 230.011 345.33 229.36C344.85 228.709 344.199 228.021 343.378 227.296L344.066 226.56C345.004 227.317 345.767 228.064 346.354 228.8C346.951 229.536 347.404 230.357 347.714 231.264C348.034 232.171 348.194 233.216 348.194 234.4C348.194 235.584 348.034 236.629 347.714 237.536C347.404 238.443 346.951 239.264 346.354 240C345.767 240.736 345.004 241.483 344.066 242.24L343.378 241.504C344.188 240.779 344.834 240.091 345.314 239.44C345.804 238.779 346.172 238.048 346.418 237.248C346.663 236.437 346.786 235.488 346.786 234.4Z" fill="white"/>
<path d="M78.5448 203.016C79.3448 203.016 80.1074 203.165 80.8328 203.464L80.4008 204.472C79.8674 204.237 79.2648 204.12 78.5928 204.12C77.4194 204.12 76.8328 204.584 76.8328 205.512V207.224H79.6808L79.5368 208.296H76.8328V215H75.4728V208.296H73.4728V207.224H75.4728V205.544C75.4728 204.787 75.7608 204.179 76.3368 203.72C76.9234 203.251 77.6594 203.016 78.5448 203.016ZM88.8585 206.392C89.1998 206.392 89.5945 206.451 90.0425 206.568L89.8505 209.432H88.7625V207.624H88.6825C87.3812 207.624 86.4585 208.552 85.9145 210.408V213.96H87.6265V215H83.2425V213.96H84.5705V207.608H83.2425V206.568H85.5785L85.8345 208.568C86.1758 207.843 86.5812 207.299 87.0505 206.936C87.5305 206.573 88.1332 206.392 88.8585 206.392ZM95.9723 206.392C97.1349 206.392 98.0256 206.787 98.6443 207.576C99.2736 208.355 99.5883 209.421 99.5883 210.776C99.5883 212.099 99.2683 213.165 98.6283 213.976C97.9989 214.776 97.1083 215.176 95.9563 215.176C94.7936 215.176 93.8976 214.787 93.2682 214.008C92.6389 213.219 92.3243 212.147 92.3243 210.792C92.3243 209.459 92.6389 208.392 93.2682 207.592C93.9083 206.792 94.8096 206.392 95.9723 206.392ZM95.9723 207.496C95.2363 207.496 94.6869 207.768 94.3243 208.312C93.9616 208.856 93.7803 209.683 93.7803 210.792C93.7803 211.901 93.9563 212.728 94.3083 213.272C94.6709 213.805 95.2203 214.072 95.9563 214.072C96.6923 214.072 97.2363 213.805 97.5883 213.272C97.9509 212.728 98.1323 211.896 98.1323 210.776C98.1323 209.667 97.9509 208.845 97.5883 208.312C97.2363 207.768 96.6976 207.496 95.9723 207.496ZM107.902 206.392C108.382 206.392 108.771 206.563 109.07 206.904C109.379 207.235 109.534 207.843 109.534 208.728V215H108.302V208.952C108.302 208.365 108.265 207.971 108.19 207.768C108.115 207.555 107.934 207.448 107.646 207.448C107.102 207.448 106.611 207.784 106.174 208.456V215H104.926V208.952C104.926 208.365 104.889 207.971 104.814 207.768C104.739 207.555 104.558 207.448 104.27 207.448C103.726 207.448 103.235 207.784 102.798 208.456V215H101.566V206.568H102.606L102.702 207.56C102.958 207.187 103.225 206.899 103.502 206.696C103.79 206.493 104.131 206.392 104.526 206.392C105.315 206.392 105.822 206.765 106.046 207.512C106.302 207.149 106.574 206.872 106.862 206.68C107.15 206.488 107.497 206.392 107.902 206.392ZM79.6168 238.16C79.6168 238.491 79.6701 238.736 79.7768 238.896C79.8834 239.045 80.0594 239.157 80.3048 239.232L79.9688 240.192C79.1474 240.085 78.6354 239.685 78.4328 238.992C78.1341 239.376 77.7554 239.669 77.2968 239.872C76.8488 240.075 76.3474 240.176 75.7928 240.176C74.9501 240.176 74.2834 239.941 73.7928 239.472C73.3128 239.003 73.0728 238.373 73.0728 237.584C73.0728 236.72 73.4088 236.053 74.0807 235.584C74.7634 235.115 75.7394 234.88 77.0088 234.88H78.2568V234.192C78.2568 233.595 78.0861 233.168 77.7448 232.912C77.4034 232.645 76.9074 232.512 76.2568 232.512C75.6168 232.512 74.8861 232.656 74.0648 232.944L73.6968 231.92C74.6888 231.568 75.6114 231.392 76.4648 231.392C77.4888 231.392 78.2674 231.632 78.8008 232.112C79.3448 232.592 79.6168 233.259 79.6168 234.112V238.16ZM76.1288 239.168C76.5448 239.168 76.9394 239.061 77.3128 238.848C77.6968 238.635 78.0114 238.341 78.2568 237.968V235.808H77.0408C76.1448 235.808 75.4994 235.957 75.1048 236.256C74.7101 236.555 74.5128 236.992 74.5128 237.568C74.5128 238.635 75.0514 239.168 76.1288 239.168ZM89.5625 228.176V240H88.3785L88.2505 238.896C87.9412 239.323 87.5838 239.643 87.1785 239.856C86.7732 240.069 86.3358 240.176 85.8665 240.176C84.7998 240.176 83.9945 239.787 83.4505 239.008C82.9172 238.229 82.6505 237.157 82.6505 235.792C82.6505 234.949 82.7838 234.197 83.0505 233.536C83.3172 232.864 83.6958 232.341 84.1865 231.968C84.6878 231.584 85.2745 231.392 85.9465 231.392C86.8745 231.392 87.6318 231.728 88.2185 232.4V228.016L89.5625 228.176ZM86.2985 232.48C85.5945 232.48 85.0505 232.757 84.6665 233.312C84.2932 233.867 84.1065 234.693 84.1065 235.792C84.1065 236.88 84.2772 237.707 84.6185 238.272C84.9705 238.827 85.4772 239.104 86.1385 239.104C86.9385 239.104 87.6318 238.656 88.2185 237.76V233.568C87.9838 233.216 87.7012 232.949 87.3705 232.768C87.0398 232.576 86.6825 232.48 86.2985 232.48ZM99.1562 228.176V240H97.9723L97.8443 238.896C97.5349 239.323 97.1776 239.643 96.7723 239.856C96.3669 240.069 95.9296 240.176 95.4603 240.176C94.3936 240.176 93.5883 239.787 93.0443 239.008C92.5109 238.229 92.2443 237.157 92.2443 235.792C92.2443 234.949 92.3776 234.197 92.6443 233.536C92.9109 232.864 93.2896 232.341 93.7803 231.968C94.2816 231.584 94.8683 231.392 95.5403 231.392C96.4683 231.392 97.2256 231.728 97.8123 232.4V228.016L99.1562 228.176ZM95.8923 232.48C95.1883 232.48 94.6443 232.757 94.2603 233.312C93.8869 233.867 93.7003 234.693 93.7003 235.792C93.7003 236.88 93.8709 237.707 94.2123 238.272C94.5643 238.827 95.0709 239.104 95.7323 239.104C96.5323 239.104 97.2256 238.656 97.8123 237.76V233.568C97.5776 233.216 97.2949 232.949 96.9643 232.768C96.6336 232.576 96.2763 232.48 95.8923 232.48ZM108.702 228.976V230.096H106.254V238.896H108.702V240H102.398V238.896H104.846V230.096H102.398V228.976H108.702ZM117.496 231.392C117.976 231.392 118.365 231.563 118.664 231.904C118.973 232.235 119.128 232.843 119.128 233.728V240H117.896V233.952C117.896 233.365 117.858 232.971 117.784 232.768C117.709 232.555 117.528 232.448 117.24 232.448C116.696 232.448 116.205 232.784 115.768 233.456V240H114.52V233.952C114.52 233.365 114.482 232.971 114.408 232.768C114.333 232.555 114.152 232.448 113.864 232.448C113.32 232.448 112.829 232.784 112.392 233.456V240H111.16V231.568H112.2L112.296 232.56C112.552 232.187 112.818 231.899 113.096 231.696C113.384 231.493 113.725 231.392 114.12 231.392C114.909 231.392 115.416 231.765 115.64 232.512C115.896 232.149 116.168 231.872 116.456 231.68C116.744 231.488 117.09 231.392 117.496 231.392ZM127.586 238.16C127.586 238.491 127.639 238.736 127.746 238.896C127.852 239.045 128.028 239.157 128.274 239.232L127.938 240.192C127.116 240.085 126.604 239.685 126.402 238.992C126.103 239.376 125.724 239.669 125.266 239.872C124.818 240.075 124.316 240.176 123.762 240.176C122.919 240.176 122.252 239.941 121.762 239.472C121.282 239.003 121.042 238.373 121.042 237.584C121.042 236.72 121.378 236.053 122.049 235.584C122.732 235.115 123.708 234.88 124.978 234.88H126.226V234.192C126.226 233.595 126.055 233.168 125.714 232.912C125.372 232.645 124.876 232.512 124.226 232.512C123.586 232.512 122.855 232.656 122.034 232.944L121.666 231.92C122.658 231.568 123.58 231.392 124.434 231.392C125.458 231.392 126.236 231.632 126.77 232.112C127.314 232.592 127.586 233.259 127.586 234.112V238.16ZM124.098 239.168C124.514 239.168 124.908 239.061 125.282 238.848C125.666 238.635 125.98 238.341 126.226 237.968V235.808H125.01C124.114 235.808 123.468 235.957 123.074 236.256C122.679 236.555 122.482 236.992 122.482 237.568C122.482 238.635 123.02 239.168 124.098 239.168ZM138.395 231.952C138.075 232.059 137.729 232.128 137.355 232.16C136.982 232.181 136.507 232.192 135.931 232.192C136.913 232.64 137.403 233.349 137.403 234.32C137.403 235.173 137.121 235.867 136.555 236.4C135.99 236.923 135.217 237.184 134.235 237.184C133.734 237.184 133.313 237.125 132.971 237.008C132.843 237.104 132.737 237.227 132.651 237.376C132.577 237.525 132.539 237.675 132.539 237.824C132.539 238.304 132.913 238.544 133.659 238.544H135.179C135.734 238.544 136.235 238.645 136.683 238.848C137.142 239.04 137.499 239.312 137.755 239.664C138.022 240.016 138.155 240.405 138.155 240.832C138.155 241.653 137.803 242.283 137.099 242.72C136.406 243.168 135.419 243.392 134.139 243.392C132.838 243.392 131.921 243.189 131.387 242.784C130.854 242.379 130.587 241.733 130.587 240.848H131.803C131.803 241.2 131.867 241.477 131.995 241.68C132.134 241.893 132.369 242.048 132.699 242.144C133.041 242.251 133.521 242.304 134.139 242.304C135.046 242.304 135.713 242.187 136.139 241.952C136.577 241.717 136.795 241.371 136.795 240.912C136.795 240.528 136.619 240.229 136.267 240.016C135.915 239.813 135.462 239.712 134.907 239.712H133.403C132.71 239.712 132.182 239.563 131.819 239.264C131.457 238.955 131.275 238.571 131.275 238.112C131.275 237.845 131.355 237.584 131.515 237.328C131.675 237.061 131.905 236.832 132.203 236.64C131.723 236.395 131.366 236.085 131.131 235.712C130.907 235.328 130.795 234.864 130.795 234.32C130.795 233.755 130.934 233.253 131.211 232.816C131.499 232.368 131.894 232.021 132.395 231.776C132.907 231.52 133.494 231.392 134.155 231.392C135.115 231.392 135.846 231.339 136.347 231.232C136.849 231.125 137.398 230.944 137.995 230.688L138.395 231.952ZM134.139 232.384C133.489 232.384 132.998 232.56 132.667 232.912C132.337 233.253 132.171 233.723 132.171 234.32C132.171 234.917 132.337 235.397 132.667 235.76C133.009 236.112 133.51 236.288 134.171 236.288C134.769 236.288 135.222 236.117 135.531 235.776C135.851 235.424 136.011 234.933 136.011 234.304C136.011 233.024 135.387 232.384 134.139 232.384ZM141.797 236.256C141.829 237.184 142.069 237.883 142.517 238.352C142.976 238.821 143.552 239.056 144.245 239.056C144.661 239.056 145.04 238.997 145.381 238.88C145.733 238.752 146.106 238.56 146.501 238.304L147.125 239.2C146.73 239.509 146.277 239.749 145.765 239.92C145.264 240.091 144.757 240.176 144.245 240.176C143.029 240.176 142.08 239.781 141.397 238.992C140.725 238.192 140.389 237.125 140.389 235.792C140.389 234.949 140.538 234.197 140.837 233.536C141.136 232.864 141.562 232.341 142.117 231.968C142.672 231.584 143.317 231.392 144.053 231.392C145.12 231.392 145.957 231.765 146.565 232.512C147.184 233.248 147.493 234.256 147.493 235.536C147.493 235.781 147.482 236.021 147.461 236.256H141.797ZM144.069 232.496C143.418 232.496 142.89 232.731 142.485 233.2C142.08 233.659 141.85 234.336 141.797 235.232H146.181C146.17 234.347 145.978 233.669 145.605 233.2C145.232 232.731 144.72 232.496 144.069 232.496Z" fill="#6C63FF"/>
<path d="M125.842 206.184C125.842 206.515 125.719 206.797 125.474 207.032C125.239 207.256 124.956 207.368 124.626 207.368C124.295 207.368 124.012 207.256 123.778 207.032C123.543 206.797 123.426 206.515 123.426 206.184C123.426 205.875 123.516 205.528 123.698 205.144L125.01 202.376H126.066L125.41 205.32C125.538 205.405 125.639 205.528 125.714 205.688C125.799 205.848 125.842 206.013 125.842 206.184ZM134.955 214.024C135.691 214.024 136.422 213.779 137.147 213.288L137.787 214.168C137.435 214.477 136.998 214.723 136.475 214.904C135.953 215.085 135.446 215.176 134.955 215.176C133.707 215.176 132.731 214.787 132.027 214.008C131.334 213.219 130.987 212.157 130.987 210.824C130.987 209.981 131.142 209.224 131.451 208.552C131.771 207.88 132.23 207.352 132.827 206.968C133.425 206.584 134.134 206.392 134.955 206.392C136.043 206.392 136.982 206.723 137.771 207.384L137.115 208.264C136.379 207.773 135.654 207.528 134.939 207.528C134.182 207.528 133.574 207.811 133.115 208.376C132.667 208.931 132.443 209.747 132.443 210.824C132.443 211.901 132.667 212.707 133.115 213.24C133.574 213.763 134.187 214.024 134.955 214.024ZM146.773 213.16C146.773 213.491 146.826 213.736 146.933 213.896C147.04 214.045 147.216 214.157 147.461 214.232L147.125 215.192C146.304 215.085 145.792 214.685 145.589 213.992C145.29 214.376 144.912 214.669 144.453 214.872C144.005 215.075 143.504 215.176 142.949 215.176C142.106 215.176 141.44 214.941 140.949 214.472C140.469 214.003 140.229 213.373 140.229 212.584C140.229 211.72 140.565 211.053 141.237 210.584C141.92 210.115 142.896 209.88 144.165 209.88H145.413V209.192C145.413 208.595 145.242 208.168 144.901 207.912C144.56 207.645 144.064 207.512 143.413 207.512C142.773 207.512 142.042 207.656 141.221 207.944L140.853 206.92C141.845 206.568 142.768 206.392 143.621 206.392C144.645 206.392 145.424 206.632 145.957 207.112C146.501 207.592 146.773 208.259 146.773 209.112V213.16ZM143.285 214.168C143.701 214.168 144.096 214.061 144.469 213.848C144.853 213.635 145.168 213.341 145.413 212.968V210.808H144.197C143.301 210.808 142.656 210.957 142.261 211.256C141.866 211.555 141.669 211.992 141.669 212.568C141.669 213.635 142.208 214.168 143.285 214.168ZM157.023 214.568C156.735 214.76 156.383 214.909 155.967 215.016C155.561 215.123 155.156 215.176 154.751 215.176C153.865 215.176 153.172 214.947 152.671 214.488C152.169 214.019 151.919 213.405 151.919 212.648V207.624H149.983V206.568H151.919V204.664L153.263 204.504V206.568H156.191L156.015 207.624H153.263V212.632C153.263 213.112 153.391 213.469 153.647 213.704C153.903 213.939 154.313 214.056 154.879 214.056C155.455 214.056 155.993 213.923 156.495 213.656L157.023 214.568ZM162.793 214.072C163.433 214.072 163.939 213.949 164.313 213.704C164.686 213.459 164.873 213.133 164.873 212.728C164.873 212.451 164.825 212.227 164.729 212.056C164.633 211.875 164.441 211.715 164.153 211.576C163.865 211.427 163.427 211.277 162.841 211.128C161.859 210.883 161.134 210.589 160.664 210.248C160.195 209.896 159.961 209.379 159.961 208.696C159.961 207.992 160.254 207.432 160.841 207.016C161.427 206.6 162.201 206.392 163.161 206.392C164.334 206.392 165.358 206.701 166.233 207.32L165.625 208.248C165.273 208.003 164.905 207.816 164.521 207.688C164.137 207.549 163.694 207.48 163.193 207.48C161.977 207.48 161.369 207.848 161.369 208.584C161.369 208.84 161.433 209.048 161.561 209.208C161.699 209.368 161.918 209.512 162.217 209.64C162.526 209.757 162.985 209.901 163.593 210.072C164.51 210.317 165.193 210.632 165.641 211.016C166.099 211.389 166.329 211.939 166.329 212.664C166.329 213.507 165.987 214.136 165.305 214.552C164.622 214.968 163.785 215.176 162.793 215.176C161.47 215.176 160.371 214.797 159.497 214.04L160.249 213.16C160.59 213.437 160.979 213.661 161.417 213.832C161.854 213.992 162.313 214.072 162.793 214.072ZM171.586 203.544C171.586 203.224 171.709 202.952 171.954 202.728C172.2 202.493 172.482 202.376 172.802 202.376C173.144 202.376 173.432 202.488 173.666 202.712C173.912 202.936 174.034 203.213 174.034 203.544C174.034 203.693 174.013 203.843 173.97 203.992C173.928 204.141 173.848 204.344 173.73 204.6L172.418 207.368H171.362L172.018 204.424C171.89 204.328 171.784 204.205 171.698 204.056C171.624 203.896 171.586 203.725 171.586 203.544ZM161.993 228.544C161.993 228.224 162.115 227.952 162.361 227.728C162.606 227.493 162.889 227.376 163.209 227.376C163.55 227.376 163.838 227.488 164.073 227.712C164.318 227.936 164.441 228.213 164.441 228.544C164.441 228.693 164.419 228.843 164.377 228.992C164.334 229.141 164.254 229.344 164.137 229.6L162.825 232.368H161.769L162.424 229.424C162.297 229.328 162.19 229.205 162.105 229.056C162.03 228.896 161.993 228.725 161.993 228.544ZM175.554 238.16C175.554 238.491 175.608 238.736 175.714 238.896C175.821 239.045 175.997 239.157 176.242 239.232L175.906 240.192C175.085 240.085 174.573 239.685 174.37 238.992C174.072 239.376 173.693 239.669 173.234 239.872C172.786 240.075 172.285 240.176 171.73 240.176C170.888 240.176 170.221 239.941 169.73 239.472C169.25 239.003 169.01 238.373 169.01 237.584C169.01 236.72 169.346 236.053 170.018 235.584C170.701 235.115 171.677 234.88 172.946 234.88H174.194V234.192C174.194 233.595 174.024 233.168 173.682 232.912C173.341 232.645 172.845 232.512 172.194 232.512C171.554 232.512 170.824 232.656 170.002 232.944L169.634 231.92C170.626 231.568 171.549 231.392 172.402 231.392C173.426 231.392 174.205 231.632 174.738 232.112C175.282 232.592 175.554 233.259 175.554 234.112V238.16ZM172.066 239.168C172.482 239.168 172.877 239.061 173.25 238.848C173.634 238.635 173.949 238.341 174.194 237.968V235.808H172.978C172.082 235.808 171.437 235.957 171.042 236.256C170.648 236.555 170.45 236.992 170.45 237.568C170.45 238.635 170.989 239.168 172.066 239.168ZM186.14 231.568L183.068 240H181.516L178.46 231.568H179.9L182.332 238.784L184.732 231.568H186.14ZM194.742 238.16C194.742 238.491 194.795 238.736 194.902 238.896C195.008 239.045 195.184 239.157 195.43 239.232L195.094 240.192C194.272 240.085 193.76 239.685 193.558 238.992C193.259 239.376 192.88 239.669 192.422 239.872C191.974 240.075 191.472 240.176 190.918 240.176C190.075 240.176 189.408 239.941 188.918 239.472C188.438 239.003 188.198 238.373 188.198 237.584C188.198 236.72 188.534 236.053 189.206 235.584C189.888 235.115 190.864 234.88 192.134 234.88H193.382V234.192C193.382 233.595 193.211 233.168 192.87 232.912C192.528 232.645 192.032 232.512 191.382 232.512C190.742 232.512 190.011 232.656 189.19 232.944L188.822 231.92C189.814 231.568 190.736 231.392 191.59 231.392C192.614 231.392 193.392 231.632 193.926 232.112C194.47 232.592 194.742 233.259 194.742 234.112V238.16ZM191.254 239.168C191.67 239.168 192.064 239.061 192.438 238.848C192.822 238.635 193.136 238.341 193.382 237.968V235.808H192.166C191.27 235.808 190.624 235.957 190.23 236.256C189.835 236.555 189.638 236.992 189.638 237.568C189.638 238.635 190.176 239.168 191.254 239.168ZM204.992 239.568C204.704 239.76 204.352 239.909 203.936 240.016C203.53 240.123 203.125 240.176 202.72 240.176C201.834 240.176 201.141 239.947 200.64 239.488C200.138 239.019 199.888 238.405 199.888 237.648V232.624H197.952V231.568H199.888V229.664L201.232 229.504V231.568H204.16L203.984 232.624H201.232V237.632C201.232 238.112 201.36 238.469 201.616 238.704C201.872 238.939 202.282 239.056 202.848 239.056C203.424 239.056 203.962 238.923 204.464 238.656L204.992 239.568ZM213.929 238.16C213.929 238.491 213.983 238.736 214.089 238.896C214.196 239.045 214.372 239.157 214.617 239.232L214.281 240.192C213.46 240.085 212.948 239.685 212.745 238.992C212.447 239.376 212.068 239.669 211.609 239.872C211.161 240.075 210.66 240.176 210.105 240.176C209.263 240.176 208.596 239.941 208.105 239.472C207.625 239.003 207.385 238.373 207.385 237.584C207.385 236.72 207.721 236.053 208.393 235.584C209.076 235.115 210.052 234.88 211.321 234.88H212.569V234.192C212.569 233.595 212.399 233.168 212.057 232.912C211.716 232.645 211.22 232.512 210.569 232.512C209.929 232.512 209.199 232.656 208.377 232.944L208.009 231.92C209.001 231.568 209.924 231.392 210.777 231.392C211.801 231.392 212.58 231.632 213.113 232.112C213.657 232.592 213.929 233.259 213.929 234.112V238.16ZM210.441 239.168C210.857 239.168 211.252 239.061 211.625 238.848C212.009 238.635 212.324 238.341 212.569 237.968V235.808H211.353C210.457 235.808 209.812 235.957 209.417 236.256C209.023 236.555 208.825 236.992 208.825 237.568C208.825 238.635 209.364 239.168 210.441 239.168ZM223.171 231.392C223.512 231.392 223.907 231.451 224.355 231.568L224.163 234.432H223.075V232.624H222.995C221.694 232.624 220.771 233.552 220.227 235.408V238.96H221.939V240H217.555V238.96H218.883V232.608H217.555V231.568H219.891L220.147 233.568C220.488 232.843 220.894 232.299 221.363 231.936C221.843 231.573 222.446 231.392 223.171 231.392ZM229.149 228.544C229.149 228.224 229.271 227.952 229.517 227.728C229.762 227.493 230.045 227.376 230.365 227.376C230.706 227.376 230.994 227.488 231.229 227.712C231.474 227.936 231.597 228.213 231.597 228.544C231.597 228.693 231.575 228.843 231.533 228.992C231.49 229.141 231.41 229.344 231.293 229.6L229.981 232.368H228.925L229.581 229.424C229.453 229.328 229.346 229.205 229.261 229.056C229.186 228.896 229.149 228.725 229.149 228.544Z" fill="#65A6E1"/>
<path d="M259.05 227.632C259.349 227.632 259.589 227.723 259.77 227.904C259.951 228.075 260.042 228.299 260.042 228.576C260.042 228.853 259.951 229.083 259.77 229.264C259.589 229.435 259.349 229.52 259.05 229.52C258.762 229.52 258.527 229.435 258.346 229.264C258.175 229.083 258.09 228.853 258.09 228.576C258.09 228.299 258.175 228.075 258.346 227.904C258.527 227.723 258.762 227.632 259.05 227.632ZM260.122 231.568V238.928H262.49V240H256.186V238.928H258.778V232.64H256.266V231.568H260.122ZM270.996 231.392C271.476 231.392 271.865 231.563 272.164 231.904C272.473 232.235 272.628 232.843 272.628 233.728V240H271.396V233.952C271.396 233.365 271.358 232.971 271.284 232.768C271.209 232.555 271.028 232.448 270.74 232.448C270.196 232.448 269.705 232.784 269.268 233.456V240H268.02V233.952C268.02 233.365 267.982 232.971 267.908 232.768C267.833 232.555 267.652 232.448 267.364 232.448C266.82 232.448 266.329 232.784 265.892 233.456V240H264.66V231.568H265.7L265.796 232.56C266.052 232.187 266.318 231.899 266.596 231.696C266.884 231.493 267.225 231.392 267.62 231.392C268.409 231.392 268.916 231.765 269.14 232.512C269.396 232.149 269.668 231.872 269.956 231.68C270.244 231.488 270.59 231.392 270.996 231.392ZM281.086 238.16C281.086 238.491 281.139 238.736 281.246 238.896C281.352 239.045 281.528 239.157 281.774 239.232L281.438 240.192C280.616 240.085 280.104 239.685 279.902 238.992C279.603 239.376 279.224 239.669 278.766 239.872C278.318 240.075 277.816 240.176 277.262 240.176C276.419 240.176 275.752 239.941 275.262 239.472C274.782 239.003 274.542 238.373 274.542 237.584C274.542 236.72 274.878 236.053 275.549 235.584C276.232 235.115 277.208 234.88 278.478 234.88H279.726V234.192C279.726 233.595 279.555 233.168 279.214 232.912C278.872 232.645 278.376 232.512 277.726 232.512C277.086 232.512 276.355 232.656 275.534 232.944L275.166 231.92C276.158 231.568 277.08 231.392 277.934 231.392C278.958 231.392 279.736 231.632 280.27 232.112C280.814 232.592 281.086 233.259 281.086 234.112V238.16ZM277.598 239.168C278.014 239.168 278.408 239.061 278.782 238.848C279.166 238.635 279.48 238.341 279.726 237.968V235.808H278.51C277.614 235.808 276.968 235.957 276.574 236.256C276.179 236.555 275.982 236.992 275.982 237.568C275.982 238.635 276.52 239.168 277.598 239.168ZM291.895 231.952C291.575 232.059 291.229 232.128 290.855 232.16C290.482 232.181 290.007 232.192 289.431 232.192C290.413 232.64 290.903 233.349 290.903 234.32C290.903 235.173 290.621 235.867 290.055 236.4C289.49 236.923 288.717 237.184 287.735 237.184C287.234 237.184 286.813 237.125 286.471 237.008C286.343 237.104 286.237 237.227 286.151 237.376C286.077 237.525 286.039 237.675 286.039 237.824C286.039 238.304 286.413 238.544 287.159 238.544H288.679C289.234 238.544 289.735 238.645 290.183 238.848C290.642 239.04 290.999 239.312 291.255 239.664C291.522 240.016 291.655 240.405 291.655 240.832C291.655 241.653 291.303 242.283 290.599 242.72C289.906 243.168 288.919 243.392 287.639 243.392C286.338 243.392 285.421 243.189 284.887 242.784C284.354 242.379 284.087 241.733 284.087 240.848H285.303C285.303 241.2 285.367 241.477 285.495 241.68C285.634 241.893 285.869 242.048 286.199 242.144C286.541 242.251 287.021 242.304 287.639 242.304C288.546 242.304 289.213 242.187 289.639 241.952C290.077 241.717 290.295 241.371 290.295 240.912C290.295 240.528 290.119 240.229 289.767 240.016C289.415 239.813 288.962 239.712 288.407 239.712H286.903C286.21 239.712 285.682 239.563 285.319 239.264C284.957 238.955 284.775 238.571 284.775 238.112C284.775 237.845 284.855 237.584 285.015 237.328C285.175 237.061 285.405 236.832 285.703 236.64C285.223 236.395 284.866 236.085 284.631 235.712C284.407 235.328 284.295 234.864 284.295 234.32C284.295 233.755 284.434 233.253 284.711 232.816C284.999 232.368 285.394 232.021 285.895 231.776C286.407 231.52 286.994 231.392 287.655 231.392C288.615 231.392 289.346 231.339 289.847 231.232C290.349 231.125 290.898 230.944 291.495 230.688L291.895 231.952ZM287.639 232.384C286.989 232.384 286.498 232.56 286.167 232.912C285.837 233.253 285.671 233.723 285.671 234.32C285.671 234.917 285.837 235.397 286.167 235.76C286.509 236.112 287.01 236.288 287.671 236.288C288.269 236.288 288.722 236.117 289.031 235.776C289.351 235.424 289.511 234.933 289.511 234.304C289.511 233.024 288.887 232.384 287.639 232.384ZM295.297 236.256C295.329 237.184 295.569 237.883 296.017 238.352C296.476 238.821 297.052 239.056 297.745 239.056C298.161 239.056 298.54 238.997 298.881 238.88C299.233 238.752 299.606 238.56 300.001 238.304L300.625 239.2C300.23 239.509 299.777 239.749 299.265 239.92C298.764 240.091 298.257 240.176 297.745 240.176C296.529 240.176 295.58 239.781 294.897 238.992C294.225 238.192 293.889 237.125 293.889 235.792C293.889 234.949 294.038 234.197 294.337 233.536C294.636 232.864 295.062 232.341 295.617 231.968C296.172 231.584 296.817 231.392 297.553 231.392C298.62 231.392 299.457 231.765 300.065 232.512C300.684 233.248 300.993 234.256 300.993 235.536C300.993 235.781 300.982 236.021 300.961 236.256H295.297ZM297.569 232.496C296.918 232.496 296.39 232.731 295.985 233.2C295.58 233.659 295.35 234.336 295.297 235.232H299.681C299.67 234.347 299.478 233.669 299.105 233.2C298.732 232.731 298.22 232.496 297.569 232.496ZM305.819 230.128V233.984H310.139V235.104H305.819V240H304.427V228.976H310.923L310.763 230.128H305.819ZM316.613 227.632C316.911 227.632 317.151 227.723 317.333 227.904C317.514 228.075 317.605 228.299 317.605 228.576C317.605 228.853 317.514 229.083 317.333 229.264C317.151 229.435 316.911 229.52 316.613 229.52C316.325 229.52 316.09 229.435 315.909 229.264C315.738 229.083 315.653 228.853 315.653 228.576C315.653 228.299 315.738 228.075 315.909 227.904C316.09 227.723 316.325 227.632 316.613 227.632ZM317.685 231.568V238.928H320.053V240H313.749V238.928H316.341V232.64H313.829V231.568H317.685ZM326.302 237.92C326.302 238.677 326.766 239.056 327.694 239.056C328.132 239.056 328.601 238.96 329.102 238.768L329.454 239.744C328.921 240.032 328.254 240.176 327.454 240.176C326.697 240.176 326.089 239.968 325.63 239.552C325.182 239.136 324.958 238.571 324.958 237.856V229.248H322.366V228.176H326.302V237.92ZM333.672 236.256C333.704 237.184 333.944 237.883 334.392 238.352C334.851 238.821 335.427 239.056 336.12 239.056C336.536 239.056 336.915 238.997 337.256 238.88C337.608 238.752 337.981 238.56 338.376 238.304L339 239.2C338.605 239.509 338.152 239.749 337.64 239.92C337.139 240.091 336.632 240.176 336.12 240.176C334.904 240.176 333.955 239.781 333.272 238.992C332.6 238.192 332.264 237.125 332.264 235.792C332.264 234.949 332.413 234.197 332.712 233.536C333.011 232.864 333.437 232.341 333.992 231.968C334.547 231.584 335.192 231.392 335.928 231.392C336.995 231.392 337.832 231.765 338.44 232.512C339.059 233.248 339.368 234.256 339.368 235.536C339.368 235.781 339.357 236.021 339.336 236.256H333.672ZM335.944 232.496C335.293 232.496 334.765 232.731 334.36 233.2C333.955 233.659 333.725 234.336 333.672 235.232H338.056C338.045 234.347 337.853 233.669 337.48 233.2C337.107 232.731 336.595 232.496 335.944 232.496Z" fill="#F1F3F5"/>
</svg>
