<?xml version="1.0" encoding="utf-8"?>
<!-- Generator: Adobe Illustrator 24.3.0, SVG Export Plug-In . SVG Version: 6.00 Build 0)  -->
<svg version="1.1" id="Calque_1" xmlns="http://www.w3.org/2000/svg" xmlns:xlink="http://www.w3.org/1999/xlink" x="0px" y="0px"
	 viewBox="0 0 135 91" style="enable-background:new 0 0 135 91;" xml:space="preserve">
<style type="text/css">
	.st0{fill:#203C89;}
	.st1{fill:#FFCC03;}
</style>
<g>
	<rect class="st0" width="135" height="91"/>
	<polygon class="st1" points="67.4,10.1 65.9,14.9 68.2,15.6 	"/>
	<polygon class="st1" points="67.4,10.1 69,14.9 66.6,15.6 	"/>
	<polygon class="st1" points="72.2,13.5 67.1,13.5 67.1,16.1 	"/>
	<polygon class="st1" points="72.2,13.5 68.1,16.5 66.6,14.5 	"/>
	<polygon class="st1" points="70.3,19.2 68.8,14.4 66.4,15.3 	"/>
	<polygon class="st1" points="70.3,19.2 66.3,16.2 67.7,14.3 	"/>
	<polygon class="st1" points="62.7,13.5 67.6,13.5 67.6,16.1 	"/>
	<polygon class="st1" points="62.7,13.5 66.8,16.5 68.2,14.5 	"/>
	<polygon class="st1" points="64.4,19.2 66,14.4 68.4,15.3 	"/>
	<polygon class="st1" points="64.4,19.2 68.5,16.2 67,14.3 	"/>
	<polygon class="st1" points="67.4,70.1 65.9,74.8 68.2,75.6 	"/>
	<polygon class="st1" points="67.4,70.1 69,74.8 66.6,75.6 	"/>
	<polygon class="st1" points="72.2,73.5 67.1,73.5 67.1,76 	"/>
	<polygon class="st1" points="72.2,73.5 68.1,76.5 66.6,74.4 	"/>
	<polygon class="st1" points="70.3,79.1 68.8,74.4 66.4,75.1 	"/>
	<polygon class="st1" points="70.3,79.1 66.3,76.1 67.7,74.2 	"/>
	<polygon class="st1" points="62.7,73.5 67.6,73.5 67.6,76 	"/>
	<polygon class="st1" points="62.7,73.5 66.8,76.5 68.2,74.4 	"/>
	<polygon class="st1" points="64.4,79.1 66,74.4 68.4,75.1 	"/>
	<polygon class="st1" points="64.4,79.1 68.5,76.1 67,74.2 	"/>
	<polygon class="st1" points="37.4,40.2 36,44.8 38.3,45.7 	"/>
	<polygon class="st1" points="37.4,40.2 39,44.8 36.6,45.7 	"/>
	<polygon class="st1" points="42.2,43.6 37.2,43.6 37.2,46.1 	"/>
	<polygon class="st1" points="42.2,43.6 38.2,46.5 36.7,44.5 	"/>
	<polygon class="st1" points="40.4,49.1 38.9,44.3 36.4,45.2 	"/>
	<polygon class="st1" points="40.4,49.1 36.3,46.2 37.8,44.2 	"/>
	<polygon class="st1" points="32.6,43.6 37.7,43.6 37.7,46.1 	"/>
	<polygon class="st1" points="32.6,43.6 36.7,46.5 38.2,44.5 	"/>
	<polygon class="st1" points="34.5,49.1 36.1,44.3 38.4,45.2 	"/>
	<polygon class="st1" points="34.5,49.1 38.5,46.2 37.1,44.2 	"/>
	<polygon class="st1" points="49.5,23.2 53.5,20.3 52,18.2 	"/>
	<polygon class="st1" points="49.5,23.2 51.1,18.4 53.4,19.2 	"/>
	<polygon class="st1" points="47.7,17.6 51.7,20.5 53.1,18.6 	"/>
	<polygon class="st1" points="47.7,17.6 52.6,17.6 52.6,20.2 	"/>
	<polygon class="st1" points="52.4,14.2 50.9,18.9 53.3,19.7 	"/>
	<polygon class="st1" points="52.4,14.2 54,18.9 51.5,19.7 	"/>
	<polygon class="st1" points="55.3,23.2 51.3,20.3 52.8,18.2 	"/>
	<polygon class="st1" points="55.3,23.2 53.9,18.4 51.4,19.2 	"/>
	<polygon class="st1" points="57.2,17.6 53.1,20.5 51.7,18.6 	"/>
	<polygon class="st1" points="57.2,17.6 52.2,17.6 52.2,20.2 	"/>
	<polygon class="st1" points="44.4,34.2 42.8,29.4 40.5,30.2 	"/>
	<polygon class="st1" points="44.4,34.2 40.4,31.2 41.8,29.2 	"/>
	<polygon class="st1" points="38.5,34.2 42.6,31.2 41.1,29.2 	"/>
	<polygon class="st1" points="38.5,34.2 40.1,29.4 42.5,30.2 	"/>
	<polygon class="st1" points="36.7,28.6 40.7,31.5 42.2,29.5 	"/>
	<polygon class="st1" points="36.7,28.6 41.7,28.6 41.7,31.1 	"/>
	<polygon class="st1" points="46.3,28.6 42.2,31.5 40.7,29.5 	"/>
	<polygon class="st1" points="46.3,28.6 41.2,28.6 41.2,31.1 	"/>
	<polygon class="st1" points="41.5,25.1 42.9,29.9 40.6,30.6 	"/>
	<polygon class="st1" points="41.5,25.1 39.9,29.9 42.3,30.6 	"/>
	<polygon class="st1" points="46.3,58.6 41.2,58.6 41.2,61 	"/>
	<polygon class="st1" points="46.3,58.6 42.2,61.5 40.7,59.4 	"/>
	<polygon class="st1" points="44.4,64.1 42.8,59.4 40.5,60.2 	"/>
	<polygon class="st1" points="44.4,64.1 40.4,61.2 41.8,59.2 	"/>
	<polygon class="st1" points="38.5,64.1 42.6,61.2 41.1,59.2 	"/>
	<polygon class="st1" points="38.5,64.1 40.1,59.4 42.5,60.2 	"/>
	<polygon class="st1" points="41.5,55.1 42.9,59.8 40.6,60.7 	"/>
	<polygon class="st1" points="41.5,55.1 39.9,59.8 42.3,60.7 	"/>
	<polygon class="st1" points="36.7,58.6 41.7,58.6 41.7,61 	"/>
	<polygon class="st1" points="36.7,58.6 40.7,61.5 42.2,59.4 	"/>
	<polygon class="st1" points="57.2,69.5 52.2,69.5 52.2,72 	"/>
	<polygon class="st1" points="57.2,69.5 53.1,72.4 51.7,70.5 	"/>
	<polygon class="st1" points="55.3,75.1 53.9,70.4 51.4,71.1 	"/>
	<polygon class="st1" points="55.3,75.1 51.3,72.2 52.8,70.1 	"/>
	<polygon class="st1" points="49.5,75.1 53.5,72.2 52,70.1 	"/>
	<polygon class="st1" points="49.5,75.1 51.1,70.4 53.4,71.1 	"/>
	<polygon class="st1" points="52.4,66.1 54,70.8 51.5,71.6 	"/>
	<polygon class="st1" points="52.4,66.1 50.9,70.8 53.3,71.6 	"/>
	<polygon class="st1" points="47.7,69.5 52.6,69.5 52.6,72 	"/>
	<polygon class="st1" points="47.7,69.5 51.7,72.4 53.1,70.5 	"/>
	<polygon class="st1" points="97.4,40.2 98.9,44.8 96.6,45.7 	"/>
	<polygon class="st1" points="97.4,40.2 95.8,44.8 98.2,45.7 	"/>
	<polygon class="st1" points="92.6,43.6 97.6,43.6 97.6,46.1 	"/>
	<polygon class="st1" points="92.6,43.6 96.7,46.5 98.2,44.5 	"/>
	<polygon class="st1" points="94.5,49.1 96,44.3 98.4,45.2 	"/>
	<polygon class="st1" points="94.5,49.1 98.5,46.2 97.1,44.2 	"/>
	<polygon class="st1" points="102.1,43.6 97.2,43.6 97.2,46.1 	"/>
	<polygon class="st1" points="102.1,43.6 98,46.5 96.6,44.5 	"/>
	<polygon class="st1" points="100.3,49.1 98.8,44.3 96.3,45.2 	"/>
	<polygon class="st1" points="100.3,49.1 96.3,46.2 97.7,44.2 	"/>
	<polygon class="st1" points="85.3,23.2 81.2,20.3 82.7,18.2 	"/>
	<polygon class="st1" points="85.3,23.2 83.8,18.4 81.4,19.2 	"/>
	<polygon class="st1" points="87.1,17.6 83.1,20.5 81.6,18.6 	"/>
	<polygon class="st1" points="87.1,17.6 82.1,17.6 82.1,20.2 	"/>
	<polygon class="st1" points="82.3,14.2 83.9,18.9 81.6,19.7 	"/>
	<polygon class="st1" points="82.3,14.2 80.9,18.9 83.2,19.7 	"/>
	<polygon class="st1" points="79.5,23.2 83.4,20.3 82,18.2 	"/>
	<polygon class="st1" points="79.5,23.2 81,18.4 83.3,19.2 	"/>
	<polygon class="st1" points="77.7,17.6 81.7,20.5 83.2,18.6 	"/>
	<polygon class="st1" points="77.7,17.6 82.6,17.6 82.6,20.2 	"/>
	<polygon class="st1" points="90.4,34.2 91.9,29.4 94.4,30.2 	"/>
	<polygon class="st1" points="90.4,34.2 94.5,31.2 93,29.2 	"/>
	<polygon class="st1" points="96.3,34.2 92.3,31.2 93.8,29.2 	"/>
	<polygon class="st1" points="96.3,34.2 94.7,29.4 92.4,30.2 	"/>
	<polygon class="st1" points="98.2,28.6 94.1,31.5 92.6,29.5 	"/>
	<polygon class="st1" points="98.2,28.6 93.1,28.6 93.1,31.1 	"/>
	<polygon class="st1" points="88.6,28.6 92.6,31.5 94.1,29.5 	"/>
	<polygon class="st1" points="88.6,28.6 93.6,28.6 93.6,31.1 	"/>
	<polygon class="st1" points="93.4,25.1 91.8,29.9 94.2,30.6 	"/>
	<polygon class="st1" points="93.4,25.1 94.9,29.9 92.5,30.6 	"/>
	<polygon class="st1" points="88.6,58.6 93.6,58.6 93.6,61 	"/>
	<polygon class="st1" points="88.6,58.6 92.6,61.5 94.1,59.4 	"/>
	<polygon class="st1" points="90.4,64.1 91.9,59.4 94.4,60.2 	"/>
	<polygon class="st1" points="90.4,64.1 94.5,61.2 93,59.2 	"/>
	<polygon class="st1" points="96.3,64.1 92.3,61.2 93.8,59.2 	"/>
	<polygon class="st1" points="96.3,64.1 94.7,59.4 92.4,60.2 	"/>
	<polygon class="st1" points="93.4,55.1 91.8,59.8 94.2,60.7 	"/>
	<polygon class="st1" points="93.4,55.1 94.9,59.8 92.5,60.7 	"/>
	<polygon class="st1" points="98.2,58.6 93.1,58.6 93.1,61 	"/>
	<polygon class="st1" points="98.2,58.6 94.1,61.5 92.6,59.4 	"/>
	<polygon class="st1" points="77.7,69.5 82.6,69.5 82.6,72 	"/>
	<polygon class="st1" points="77.7,69.5 81.7,72.4 83.2,70.5 	"/>
	<polygon class="st1" points="79.5,75.1 81,70.4 83.3,71.1 	"/>
	<polygon class="st1" points="79.5,75.1 83.4,72.2 82,70.1 	"/>
	<polygon class="st1" points="85.3,75.1 81.2,72.2 82.7,70.1 	"/>
	<polygon class="st1" points="85.3,75.1 83.8,70.4 81.4,71.1 	"/>
	<polygon class="st1" points="82.3,66.1 80.9,70.8 83.2,71.6 	"/>
	<polygon class="st1" points="82.3,66.1 83.9,70.8 81.6,71.6 	"/>
	<polygon class="st1" points="87.1,69.5 82.1,69.5 82.1,72 	"/>
	<polygon class="st1" points="87.1,69.5 83.1,72.4 81.6,70.5 	"/>
</g>
</svg>
