<svg enable-background="new 0 0 102.7 102.7" viewBox="0 0 102.7 102.7" xmlns="http://www.w3.org/2000/svg" xmlns:xlink="http://www.w3.org/1999/xlink"><clipPath id="a"><path d="m3.2 20.8h108.9v22.1h-108.9z"/></clipPath><clipPath id="b"><path d="m3.2 20.8h108.9v22.1h-108.9z"/></clipPath><clipPath id="c"><path d="m3.2 20.8h108.9v22.1h-108.9z"/></clipPath><clipPath id="d"><path d="m3.2 20.8h108.9v22.1h-108.9z"/></clipPath><clipPath id="e"><path d="m3.2 20.8h108.9v22.1h-108.9z"/></clipPath><clipPath id="f"><path d="m3.2 20.8h108.9v22.1h-108.9z"/></clipPath><clipPath id="g"><path d="m3.2 20.8h108.9v22.1h-108.9z"/></clipPath><clipPath id="h"><path d="m3.2 20.8h108.9v22.1h-108.9z"/></clipPath><clipPath id="i"><path d="m3.2 20.8h108.9v22.1h-108.9z"/></clipPath><clipPath id="j"><path d="m3.2 20.8h108.9v22.1h-108.9z"/></clipPath><clipPath id="k"><path d="m-22.6 35.3h131v52.2h-131z"/></clipPath><clipPath id="l"><path d="m-22.6 35.3h131v52.2h-131z"/></clipPath><clipPath id="m"><path d="m-22.6 35.3h131v52.2h-131z"/></clipPath><clipPath id="n"><path d="m-22.6 35.3h131v52.2h-131z"/></clipPath><clipPath id="o"><path d="m-22.6 35.3h131v52.2h-131z"/></clipPath><clipPath id="p"><path d="m-22.6 35.3h131v52.2h-131z"/></clipPath><clipPath id="q"><path d="m-22.6 35.3h131v52.2h-131z"/></clipPath><clipPath id="r"><path d="m-22.6 35.3h131v52.2h-131z"/></clipPath><clipPath id="s"><path d="m-22.6 35.3h131v52.2h-131z"/></clipPath><g fill="#fff"><path clip-path="url(#a)" d="m22.5 33.6c0-.5-.1-.9-.4-1.2-.2-.2-.5-.4-.9-.4-.3 0-.6.1-.8.4-.2.2-.3.7-.3 1.3 0 .5.1 1 .4 1.2.2.2.5.4.8.4.4 0 .7-.1.9-.4s.3-.8.3-1.3m2.8-5.8v9.3h-2.6v-1c-.4.5-.7.7-1 .8-.4.2-.8.3-1.4.3-1 0-1.7-.4-2.3-1-.6-.7-.8-1.5-.8-2.5 0-1.1.3-2 .9-2.5.6-.6 1.4-.9 2.2-.9.5 0 .8.1 1.2.2s.7.3 1 .6v-3.3h2.8l-.1.1h.1z"/><path clip-path="url(#b)" d="m29.6 34.9h1.6c.5 0 .9-.1 1.1-.2s.3-.4.3-.7-.1-.5-.3-.7c-.2-.1-.6-.2-1.1-.2h-1.6zm0-3.6h1.4c.5 0 .8-.1 1-.2s.3-.4.3-.7-.1-.5-.3-.6c-.3-.1-.5-.2-1-.2h-1.4zm-3.2-3.5h5.9c1 0 1.7.2 2.3.7.5.5.8 1 .8 1.6 0 .5-.1 1-.5 1.4-.2.2-.6.5-1 .6.8.1 1.3.5 1.6.8.4.4.5.9.5 1.4s-.1.9-.4 1.3c-.2.4-.6.7-1 .9-.2.1-.7.2-1.2.3-.7.1-1.2.1-1.4.1h-5.4z"/><path clip-path="url(#c)" d="m36.7 27.8h2.8v9.3h-2.8z"/><path clip-path="url(#d)" d="m48.3 36.9h-2.6v-1c-.4.5-.8.8-1.2 1-.5.2-.9.3-1.4.3-.8 0-1.4-.2-1.8-.6-.5-.5-.7-1-.7-2v-4.3h2.8v3.7c0 .5.1.8.2.9s.4.3.8.3c.3 0 .6-.1.8-.4.2-.2.3-.7.3-1.3v-3.3h2.8z"/><path clip-path="url(#e)" d="m54.6 33c-.1-.5-.2-.8-.5-1-.2-.2-.5-.3-.9-.3-.5 0-.8.1-1 .5-.1.2-.3.5-.3.9 0-.1 2.7-.1 2.7-.1zm2.9 1.2h-5.6c.1.4.1.8.4.9.3.3.6.5 1 .5.3 0 .5-.1.8-.2.1-.1.3-.2.5-.5l2.8.2c-.5.7-.9 1.1-1.5 1.4s-1.4.5-2.5.5c-1 0-1.7-.1-2.3-.4-.5-.2-1-.7-1.4-1.2s-.5-1.2-.5-1.9c0-1 .4-1.9 1.1-2.5.8-.7 1.7-1 3-1 1 0 1.9.1 2.5.5.6.3 1 .7 1.4 1.3.3.5.5 1.3.5 2.2v.3z"/><path clip-path="url(#f)" d="m65.5 33.2v-2.9l-2.7 2.9zm0 2h-5.1v-2.1l5.1-5.5h2.5v5.6h1.3v2h-1.3v1.7h-2.5z"/><path clip-path="url(#g)" d="m69.3 30.2h2.9l1.5 4.4 1.4-4.4h2.9l-2.9 7.1c-.3.8-.7 1.4-1 1.6-.5.4-1.2.6-2.3.6-.4 0-1-.1-1.9-.1l-.2-1.8c.4.1.8.1 1.4.1.3 0 .6-.1.8-.2s.4-.4.5-.8z"/><path clip-path="url(#h)" d="m80.3 33.6c0 .6.1 1 .4 1.4.3.3.6.5 1 .5s.8-.1 1-.5c.2-.3.4-.8.4-1.4s-.1-1-.4-1.3-.6-.5-1-.5-.8.1-1 .5c-.3.3-.4.7-.4 1.3m-2.8 0c0-1 .4-1.9 1.1-2.5.7-.7 1.8-1 3.1-1 1.4 0 2.5.4 3.3 1.1.6.6.9 1.4.9 2.3 0 1-.4 1.9-1.1 2.5-.7.7-1.8 1-3.1 1-1.2 0-2.1-.3-2.9-.8-.9-.6-1.3-1.5-1.3-2.6"/><path clip-path="url(#i)" d="m94.3 36.9h-2.6v-1c-.4.5-.8.8-1.2 1s-.9.3-1.4.3c-.8 0-1.4-.2-1.8-.6-.5-.5-.7-1-.7-2v-4.3h2.8v3.7c0 .5.1.8.2.9s.4.3.8.3c.3 0 .6-.1.8-.4.2-.2.3-.7.3-1.3v-3.3h2.8z"/><path clip-path="url(#j)" d="m59 32.8c-.7 0-1.3-.6-1.3-1.3s.6-1.3 1.3-1.3 1.3.6 1.3 1.3-.6 1.3-1.3 1.3zm0-2.4c-.6 0-1 .5-1 1s.5 1 1 1 1-.5 1-1-.4-1-1-1z"/><path d="m13.6 27.8h-3.4l-3.8 9.3h3.1l.5-1.5h3.5l.5 1.5h3.3zm-2.7 5.6 1.1-3.3 1.1 3.3z"/></g><ellipse cx="59" cy="31.5" fill="none" rx="1.2" ry="1.2" stroke="#fff" stroke-width=".4159"/><path d="m58.8 31.4h.4c.1 0 .2-.1.2-.1 0-.1-.1-.1-.2-.1h-.4zm-.4-.6h.8c.2 0 .5.1.5.4 0 .1-.1.3-.2.3.1 0 .2.1.2.3 0 .1 0 .2.1.3h-.3c-.1-.1 0-.2-.1-.3 0-.1-.1-.2-.2-.2h-.3v.5h-.3z" fill="#fff"/><ellipse clip-path="url(#k)" cx="51.2" cy="60.9" fill="none" rx="49.7" ry="16.3" stroke="#fff" stroke-width="2.2872"/><path clip-path="url(#l)" d="m18.2 65.4c-.5.2-1 .4-1.6.5-.8.1-1.4.2-2.2.2-1.6 0-2.9-.5-3.9-1.4-.9-.9-1.4-2.2-1.4-3.8 0-1.5.5-2.8 1.4-3.8s2.2-1.4 3.9-1.4c.6 0 1.2.1 1.8.2.5.1 1.2.4 1.9.6v2.3h-.2c-.1-.1-.4-.2-.5-.5-.2-.2-.5-.4-.6-.5-.2-.1-.5-.2-.9-.4-.4-.1-.6-.1-1.1-.1s-.9.1-1.2.2c-.4.1-.6.4-1 .6-.2.2-.5.5-.6 1s-.2.9-.2 1.4c0 1.1.4 2 .9 2.5s1.4.9 2.5.9h.4.4v-2h-2v-1.9h4.4v4.8h-.3v.6z" fill="#fff"/><path clip-path="url(#m)" d="m25.5 60.8h-.3c-.1 0-.2-.1-.5-.1-.2 0-.5 0-.5 0-.4 0-.6 0-.9.1-.2 0-.5.1-.8.2v5h-2.3v-7.5h2.3v1.1c.5-.5 1-.8 1.4-.9s.8-.2 1-.2h.2.2v2.3z" fill="#fff"/><path clip-path="url(#n)" d="m31.6 61.4c0-.5-.1-.9-.4-1.1-.2-.2-.5-.4-1.1-.4-.5 0-.8.1-1.1.4-.4.2-.5.6-.5 1.1zm2.3 1.4h-5.3c0 .5.2 1 .6 1.4.5.4 1 .5 1.8.5.5 0 1-.1 1.4-.2.5-.2.8-.4 1.1-.5h.2v1.9c-.5.2-1 .4-1.4.5-.5.1-1.1.1-1.6.1-1.4 0-2.5-.4-3.3-1s-1.1-1.6-1.1-2.9c0-1.2.4-2.2 1.1-2.9.8-.8 1.8-1.1 3-1.1s2.1.4 2.6.9c.5.6.9 1.5.9 2.6z" fill="#fff"/><path clip-path="url(#o)" d="m40.3 61.4c0-.5-.1-.9-.4-1.1-.2-.2-.5-.4-1.1-.4-.5 0-.8.1-1.1.4s-.5.6-.5 1.1zm2.4 1.4h-5.3c0 .5.2 1 .6 1.4.5.4 1 .5 1.8.5.5 0 1-.1 1.4-.2.5-.2.8-.4 1.1-.5h.2v1.9c-.5.2-1 .4-1.4.5-.5.1-1.1.1-1.6.1-1.4 0-2.5-.4-3.3-1s-1.1-1.6-1.1-2.9c0-1.2.4-2.2 1.1-2.9.8-.8 1.8-1.1 3-1.1s2.1.4 2.6.9c.5.6.9 1.5.9 2.6z" fill="#fff"/><path clip-path="url(#p)" d="m51.5 66h-2.3v-3.8c0-.4 0-.5 0-.9s-.1-.5-.1-.6c-.1-.1-.2-.4-.4-.4-.1-.1-.5-.1-.6-.1-.2 0-.5 0-.6.1-.2.1-.5.2-.6.4v5.3h-2.3v-7.5h2.2v.8c.5-.4.8-.5 1.2-.8.4-.2.8-.2 1.2-.2.8 0 1.4.2 1.9.6s.6 1.2.6 2.1z" fill="#fff"/><path clip-path="url(#q)" d="m58.1 66.2c-.6 0-1.4-.1-2-.4-.5-.2-1.1-.5-1.5-1-.5-.5-.8-1-1-1.6s-.4-1.4-.4-2.2.1-1.5.4-2.1c.2-.6.5-1.2 1-1.6s.9-.8 1.5-1 1.4-.4 2-.4c.5 0 .8 0 1.1.1.4 0 .6.1.9.2.4.1.5.2.8.4.2.1.5.2.6.4v2.5h-.4c-.1-.1-.2-.2-.5-.4-.2-.1-.5-.4-.6-.5s-.5-.2-.8-.4c-.2-.1-.5-.1-.9-.1s-.6.1-1 .2-.5.4-.9.5c-.2.2-.5.5-.6 1s-.2.9-.2 1.5.1 1.1.2 1.5c.2.5.4.8.6 1s.5.5.9.5.6.1 1 .1.5 0 .9-.1.5-.2.8-.4c.2-.1.5-.2.5-.5.2-.1.4-.2.5-.4h.2v2.3c-.2.1-.5.2-.6.4-.2.1-.5.2-.6.2-.4.1-.5.1-.9.2-.1.1-.6.1-1 .1" fill="#fff"/><path clip-path="url(#r)" d="m70.4 66h-2.3v-3.8c0-.4 0-.5 0-.9s-.1-.5-.1-.6c-.1-.1-.2-.4-.4-.4-.1-.1-.5-.1-.6-.1-.2 0-.5 0-.6.1-.2.1-.5.2-.6.4v5.3h-2.5v-10.4h2.3v3.6c.5-.4.8-.5 1.2-.8.4-.2.8-.2 1.2-.2.8 0 1.4.2 1.9.6.5.5.6 1.2.6 2.1-.1.1-.1 5.1-.1 5.1z" fill="#fff"/><path clip-path="url(#s)" d="m77.4 61.4c0-.5-.1-.9-.4-1.1-.2-.2-.5-.4-1.1-.4-.5 0-.8.1-1.1.4-.4.2-.5.6-.5 1.1zm2.3 1.4h-5.3c0 .5.2 1 .6 1.4.5.4 1 .5 1.8.5.5 0 1-.1 1.4-.2.5-.2.8-.4 1.1-.5h.2v1.9c-.5.2-1 .4-1.4.5-.5.1-1 .1-1.5.1-1.4 0-2.5-.4-3.3-1s-1.1-1.6-1.1-2.9c0-1.2.4-2.2 1.1-2.9.8-.8 1.8-1.1 3-1.1s2.1.4 2.6.9c.5.6.9 1.5.9 2.6z" fill="#fff"/><path d="m88.3 60.7v5.3h-2.3v-3.8c0-.4 0-.6 0-.9s-.1-.5-.1-.6c-.1-.1-.2-.4-.4-.4-.1-.1-.4-.1-.6-.1s-.5 0-.6.1-.5.2-.5.4v5.3h-2.3v-7.5h2.3v.8c.5-.4.8-.5 1.1-.8.4-.2.8-.2 1.2-.2s.9.1 1.2.4c.4.2.6.5.9 1 .5-.5.9-.8 1.4-1s.9-.4 1.4-.4c.8 0 1.4.2 1.8.8.5.5.5 1.2.5 2.1v4.9h-2.3v-3.8c0-.4 0-.6 0-.9s-.1-.5-.1-.6c-.1-.1-.2-.4-.4-.4-.1-.1-.4-.1-.6-.1s-.4 0-.5.1c-.6.1-.8.2-1.1.3" fill="#fff"/></svg>