<svg enable-background="new 0 0 235.9 43.2" viewBox="0 0 235.9 43.2" xmlns="http://www.w3.org/2000/svg"><path clip-rule="evenodd" d="m0 0h3.9v4.2h-3.9zm-4.4 7.7c.1-2.5-1.2-4.8-3.8-4.8-2.1 0-4 1.7-4 4.9 0 2.8 1.6 4.6 3.8 4.6 2.5 0 4-2.1 4-4.7m3.8 0c0 5-3.6 8-7.7 8-4.4 0-7.6-3.3-7.6-8s3.1-8.1 7.8-8.1c4.4-.1 7.5 3.3 7.5 8.1m-23.6 10.3c1.3 0 2.7 0 3.6-.9.4-.3 1.1-1.2 1.1-2.7 0-.8-.1-3-2.6-3.6-.7-.2-1.4-.2-2.2-.2h-2.8v7.4zm-6.9-18h4v7.3h3.1c1.3 0 2.4 0 3.5.3 3.8.9 5.1 3.9 5.1 6.8 0 4.4-2.9 6.2-5 6.8-1.2.3-2.4.3-3.6.3h-7.1zm-15.3 2.2c1.9-1.9 4.5-2.7 7.2-2.7 4.6 0 6.7 2.8 6.7 5.2 0 1.3-.6 2.5-1.5 3.2-1 .8-1.8.9-4.9 1.5-1.9.3-3 .6-3 1.7 0 .8.8 1.6 2.5 1.6 2.6 0 3.6-1.5 4.1-2.3l2.5 2.4c-.3.4-.8.9-1.5 1.4-1 .7-2.7 1.5-4.9 1.5-4.1 0-6.4-2.4-6.4-5 0-1.4.7-3.5 4.2-4.3.5-.2 3-.6 3.5-.7s1.5-.3 1.5-1.3c0-.8-.9-1.8-3-1.8s-3.4.8-4.3 1.9zm-11 7.4c.4 2.1 1.7 3.2 3.6 3.2 1.6 0 3-.8 3.3-3.2zm8-4.4c-.4-.6-1.4-2.1-3.9-2.1-2.4 0-3.8 1.4-4.2 3.8h11c0 1.5-.3 4.2-1.5 5.9-.3.5-1.9 2.9-5.9 2.9-4.2 0-7.4-2.9-7.4-8 0-5.6 3.8-8.1 7.7-8.1 3 0 5.4 1.3 7.3 3.9zm-12 6.2c-.8 1.8-2.7 4.3-6.4 4.3-4.2 0-7.5-3.4-7.5-8.1 0-4.8 3.3-8.1 7.4-8.1 2.6 0 5.5 1.5 6.7 4.7l-3.1 1.6c-.4-1.2-1.3-3-3.6-3-2.4 0-3.8 2-3.8 4.7 0 3 1.6 4.7 3.7 4.7s3.1-1.6 3.4-2.6zm-27.7-11.4h3.6v6.6c0 1.1 0 2.7.6 3.8.5 1 1.6 1.7 2.7 1.7 1.2 0 2.1-.7 2.4-2 .1-.4.1-1.2.1-2.3v-7.8h3.6v8.9c0 2 0 3.6-.9 4.9-.7 1-2.2 1.8-3.9 1.8-1.2 0-2.5-.4-3.4-1.1-.6-.4-1-.9-1.2-1.2v1.8h-3.6zm-12.3 9.6c.4 2.1 1.7 3.2 3.6 3.2 1.6 0 3-.8 3.3-3.2zm8-4.4c-.4-.6-1.4-2.1-3.9-2.1-2.4 0-3.8 1.4-4.2 3.8h11c0 1.5-.3 4.2-1.5 5.9-.3.5-1.9 2.9-5.9 2.9-4.2 0-7.4-2.9-7.4-8 0-5.6 3.8-8.1 7.7-8.1 3 0 5.4 1.3 7.3 3.9zm-16.6-5.2h3.6v15.2h-3.6zm0 17.6h3.6v3.7h-3.6zm-.7-6.2c-.8 1.8-2.7 4.3-6.4 4.3-4.2 0-7.5-3.4-7.5-8.1 0-4.8 3.3-8.1 7.4-8.1 2.6 0 5.5 1.5 6.7 4.7l-3.1 1.6c-.4-1.2-1.3-3-3.6-3-2.4 0-3.8 2-3.8 4.7 0 3 1.6 4.7 3.7 4.7s3.1-1.6 3.4-2.6zm-32.7-7.4c1.6-2.6 4.1-3.7 5.5-4.1 1.3-.4 2.6-.5 3.8-.5 4.5 0 9 2 9 6.9 0 4.6-4 5.8-6.8 6.4l-2.2.5c-1.9.4-3.9.7-3.9 2.6 0 1.6 1.9 2.6 4 2.6 3.4 0 4.7-2.1 5.5-3.2l3.2 2.5c-1.5 2.1-3.9 4.3-8.5 4.3-5 0-8.3-2.6-8.3-6.7 0-3.6 2.6-4.9 3.5-5.3.7-.3 1.3-.4 2.7-.8l2.5-.5c1.9-.5 2-.5 2.4-.7.7-.3 1.6-.8 1.6-2.1 0-.7-.3-1.8-1.8-2.5-.7-.3-1.5-.4-2.3-.4-4.4 0-6 2.5-6.5 3.3zm-21.2 9.3-2.3.1v-.4l2.4-.2zm.1-1-2.4.2v-.4l2.4-.3zm-.1 1.6v.4h-2.2v-.4zm-2.3 1.6 2.1.1v.4l-2-.2v-.3zm0-.8h2.2v.4l-2.1-.1v-.3zm0 1.6 2 .2v.4l-2-.2zm-3.3-3.5 2.3.2v.4l-2.3-.1zm-.1-1 2.5.3v.4l-2.4-.2zm2.5 2.1v.4h-2.2v-.4zm0 2-2 .2v-.4l2.1-.1v.3zm0-.8-2.1.1v-.4h2.2v.3zm0 1.6-2 .2v-.4l2-.2zm-15.2-21.4h30.9v31h-30.9zm-.8-1.7c-.3 0-.5.1-.7.3s-.3.4-.3.7v32.6c0 .3.1.5.3.7s.4.3.7.3h32.6c.3 0 .5-.1.7-.3s.3-.4.3-.7v-32.7c0-.3-.1-.5-.3-.7s-.4-.3-.7-.3h-32.6zm15.1 11.6c-.1 0-.1-.1-.1-.1-.1-.1-.3-.1-.3-.2-.1-.1-.4-.2-.7-.4-.2-.2-.4-.4-.6-.6v-.3c.5-1.2 1.9-1.5 3.1-1.5 1.3 0 2.6.3 3.1 1.5v.3c-.1.3-.3.5-.6.6-.3.2-.5.3-.7.4-.1 0-.2.1-.3.2 0 0-.1.1-.1.1s-.5-.5-1.4-.5-1.4.4-1.4.5m1.5 6.4v5.6l2.6.3.6-6.3zm-.3 0-3.2-.4.6 6.3 2.6-.3zm11.9-6.9s-.3-.1-.7-.1c.1.7.2 1.4.3 1.9.2.8-.1 1.1-.1 1.1l-.4.4-1.1.8v.8l.4.8.4.8-1.5 4.9-.3 1 .7-.5c.9 1.1.5 2.3.5 2.3.1 0 .6-.8.6-.8.1 1.7-.6 2.5-.6 2.5l.9-.2c-.5 1.2-1.5 1.6-1.5 1.6l1 .1c-1.2 1.2-2.7 1.2-2.7 1.2v-.5h-1.2c-.4 0-.5-.5-.5-.5h.7c.6 0 .6-.5.6-.5s-.6 0-.9 0-.4.3-.4.3h-1.3v-1.5s.6.5 1.1.5c0 0 .4 0 .4-.8 0 0 0-.6-.5-.6-.6 0-1 .6-1 .6s-.1-.4.1-.9c.2-.6-.1-.7-.1-.7s.9-.1 1.3.5c0 0 .1-.3.2-.6 0-.2.1-.4.1-.5 0-.9-.5-1.7-.8-2.3l-.9-2.4s-.1-.1-.4-.1h-.2l-.3 2.4 1.7.7c.3.5.5 1.1.5 1.6l-2.4-1.1-.1 1-3.1-.5-3.2.5-.1-1-2.8 1.2c.1-.3.3-.7.4-.9.2-.4.5-.8.6-.9l1.7-.6-.3-2.3h-.3c-.3 0-.4.1-.4.1l-1.1 2.9c-.3.5-1 1.6-1.1 2.7 0 .1.1.4.1.4.1.7 1.2.7 1.2.7l1.3-.2s.6.7.7.8-.2.5-.2.5l-2.2.8c-.1-.1-.3-.4-.7-.4-.6 0-.6.5-.6.5h1.1s-.2.5-.6.5h-.9l-.6.3-.5.3-.2-.6-.5.6s-.3-1.2-.4-1.6c-.1-.7.4-.9.4-.9l-.6-2.2.8.4-.6-2.1.9.4-1.7-5.6s0-.1-.1-.2l.5-1 .3-.5v-.8l-1.1-.8-.4-.4s-.3-.4-.1-1.1c.1-.5.3-1.3.4-1.9-.4 0-.6.1-.6.1-.9.2-1.5.6-1.7 1.2.2-.6.6-1.1.8-1.3.4-.3 1.2-1.5 1.5-1.9s1-.5 1.9-.2 2.1.8 3.6 1.6c.8.4 1.5.7 2 .9.3.1 1.5.7 2.1.7h.2c.1 0 .2-.1.2-.2s-.1-.2-.1-.2c.8.7 0 1.1-.5 1.9s-.6.8-1.7.7c-.1 0-.3-.1-.5-.1-.1.2-.5.5-1.3.7l-.5.2s-.3 0-.2.6l.1 1.3s.1.6-.5 1.2l-.9 1s0 0 0-.1c-.2-.4-.5-1.1-.6-2.3.2-.3.7-.9.7-.9 0-.6 0-1.3 0-2.3l.3-.6c-.6-.3-1.2-.6-1.8-.9 0 .2-.2.7-1.3.3l-.2 1.1 1.6 1.1s.2.1.3.3v1.2c0 3.4 1.3 3.9 1.4 3.9l.2-.2 1.1-1.2s.3-.3.9-.2h.3l-.2-1.4v-.1l4.1.7 4-.7-.2 1.4h.2c.6 0 .9.2.9.2l.3.4 1 1.2c.1 0 1.4-.5 1.4-3.9 0-.1 0-.5 0-.9 0-.1 0-.1 0-.2 0-.3.3-.4.3-.4l1.6-1.1-.1-1.2c-.8.4-1.1.1-1.1-.1-.6.3-1.3.7-2 1l.4 1.1.7 1.9c0 1.7-.3 2.5-.6 3l-.9-1c-.6-.6-.5-1.2-.5-1.2l.1-1.3c.1-.6-.2-.6-.2-.6l-.5-.2c-.7-.2-1-.4-1.2-.6-.1 0-.3.1-.4.1-1.2.1-1.3.1-1.7-.7-.5-.8-1.3-1.3-.5-1.9-.1.1-.1.1-.1.2s.1.2.2.2h.2c.6 0 1.8-.6 2.1-.7.5-.2 1.2-.5 2-.9 1.5-.7 2.7-1.3 3.6-1.6.9-.4 1.6-.2 1.9.2s1 1.6 1.5 1.9c.3.2.6.6.8 1.3 0-1.1-.6-1.6-1.5-1.8m-13.7.4c0 .1 0 .1 0 0 .1.1.2.1.3.2.1 0 .2.1.3.2 0 0 0 0-.1 0-.4 0-1.1-.3-1.6-.5v-.5c.3.3.9.6 1.1.6zm3.4.4c.1 0 .2-.1.3-.2.1 0 .2-.1.2-.1h.1c.2-.1.7-.3 1.1-.7v.5c-.5.2-1.3.5-1.7.5zm9 10 1.3-3.6s.4-.9-.3-1.2c-.3-.1-.5 0-.7.2l-.3-.8c.2-.3.7-.6 1.4-.3 1.1.4.6 2.1.6 2.1l-1.3 3.6s-.3.6-.1 1.4c.2.7.7.7 1 .7.2-.1.2-.6.2-.6l-.2-1.1c-.1-1.8 1.1-2.4 1.1-2.4-.2.5-.3 1.2.1 2.7s-.4 1.8-.4 1.8c.4 1.4-.5 1.9-.5 1.9-.1-1-.6-1.3-.6-1.3l-.7-.5c-1.3-1-.6-2.6-.6-2.6m-23.9-3.9.4.4s-.1-1.7 1-2.1c.7-.3 1.1 0 1.4.2l-.4.8c-.2-.2-.4-.3-.7-.2-.6.3-.3 1.2-.3 1.2l1.3 3.6s.7 1.6-.7 2.7l-.7.5s-1.1.5-1.3 1.2c0 0-.7-1.9-.8-3.4l.6.6s-.5-1.6-.4-2.9l.5.3c.2.1-.1-2.1.1-2.9m26.1-4.2c-.3-.3-.8-1.5-.9-2.3 1.4.3 1.7 1.2 1.7 2.2 0 .5-.1.9-.2 1.3-.1-.4-.4-.9-.6-1.2m-26 1.2c-.1-.4-.2-.8-.2-1.3 0-1 .3-1.9 1.7-2.2-.1.8-.6 2-.9 2.3-.1.3-.4.8-.6 1.2m14.4-9.6c-.1-.1-.1-.1-.3-.1-.1 0-.2 0-.3 0v.1 1.3.1h.3c.3 0 .7-.2.7-.8-.1-.3-.3-.5-.4-.6m-3.1-.3h-.9l.4 1.1.5-1.1c.1 0 .1 0 0 0m6.1-1.3c-.1 0-.2 0-.2 0-.1 0-.2.1-.2.2v.9.8.9c0 .2 0 .2.2.2h.1.1s0 0-.1 0c-.2 0-.5 0-.6 0s-.4 0-.6 0c-.1 0-.1 0-.1 0h.1.2c.1 0 .1-.1.2-.2 0-.1 0-.3 0-.9v-.8c0-.4 0-.8 0-.9s0-.2-.1-.2c0 0 0 0-.1 0-.1 0-.2 0-.5.3s-.6.7-1 1.1c.4.3.6.6.6.9 0 .3-.2.5-.3.6-.2.2-.6.2-.8.2-.1 0-.5 0-.7 0-.1 0-.4 0-.6 0-.1 0-.1 0-.1 0h.1.2c.1 0 .2-.1.2-.2s0-.3 0-.9v-.8c0-.4 0-.7 0-.9 0-.1 0-.2-.1-.2h-.1c-.1 0-.1 0-.2 0s-.2.1-.4.5c-.3.7-1 2.4-1.1 2.6 0 .1-.1.1-.1.1s-.1-.1-.1-.2l-1.2-2.7c-.1-.2-.2-.4-.4-.4h-.1s-.1 0-.1-.1h.1.5.5.1s0 0-.1 0h-.1c-.1 0-.2 0-.2.1 0 0 0 .2.1.3l.2.6h1l.3-.9c0-.1 0-.1 0-.1h-.1.1.9.1.5.7.1s0 0-.1 0-.2 0-.2 0c-.1 0-.2.1-.2.2v.9.1h.4.1c.1-.1.2-.4.4-.6.3-.3.4-.5.6-.6.1-.1.2-.1.5-.1h.4.5c.2.2.5.2.8.2zm1.7 1.9-.2.1c-.4.2-.5.4-.5.6 0 .3.3.5.6.5s.4-.1.5-.2.1-.2.1-.3 0-.1 0-.1.1 0 .1.1v.5s0 0-.1.1c-.1 0-.3.1-.6.1-.6 0-1.1-.3-1.1-.9 0-.4.2-.7.7-1l.3-.2c.4-.2.4-.4.4-.6 0-.3-.2-.5-.6-.5-.3 0-.6.1-.7.4v.2.1s-.1 0-.1-.1 0-.3 0-.6c0-.1 0-.1.1-.1.2-.1.5-.1.7-.1s.5 0 .7.2c.3.2.4.5.4.8 0 .4-.2.7-.7 1m-10.4-1.9c-.1 0-.2 0-.3 0-.2 0-.2.1-.2.3v1.1 2 .1h.2c.1 0 .3 0 .5-.2.3-.3.3-.6.3-.8 0-.5-.4-.8-.7-.8-.1 0-.1 0-.1-.1h.1.1c.7 0 1.2.5 1.2 1.2 0 .3-.1.5-.3.6-.1.1-.3.3-.9.3-.2 0-.5 0-.7 0-.1 0-.5 0-.7 0-.1 0-.1 0-.1 0h.1.2c.2 0 .2-.1.2-.3s0-.3 0-1.1v-.9c0-.5 0-.9 0-1.1 0-.1 0-.3-.1-.3 0 0-.1 0-.2 0s-.1 0-.1 0 0-.1.1-.1h.6c.1.1.5.1.8.1 0 0 .1 0 0 0 .1 0 .1 0 0 0" fill="#fff" fill-rule="evenodd" transform="matrix(1.25 0 0 -1.25 230.97375 35.1175)"/></svg>