<svg enable-background="new 0 0 256.6 57.9" viewBox="0 0 256.6 57.9" xmlns="http://www.w3.org/2000/svg" xmlns:xlink="http://www.w3.org/1999/xlink"><clipPath id="a"><path d="m28.1 16.3h538.6v102.6h-538.6z"/></clipPath><g fill="#fff" transform="matrix(1.25 0 0 -1.25 -243.47513 90.816)"><path d="m-.2-.7-.6-.4h93.1v.4z" transform="translate(303.651 32.0166)"/><path d="m-.2-.7v-.4h93.1l-.6.4z" transform="translate(198.8874 31.9158)"/><g clip-path="url(#a)"><path d="m-.2-.7v-2.6c0-.7-.1-1.7.6-2h-2.8c.7.3.6 1.3.6 2v5.5c0 .7.1 1.7-.6 2h2.8c-.7-.3-.6-1.3-.6-2v-1.9h5.2v1.8c0 .7.1 1.7-.6 2h2.8c-.7-.3-.7-1.3-.7-2v-5.5c0-.7-.1-1.7.7-2h-2.8c.8.3.6 1.4.6 2v2.6h-5.2z" transform="translate(323.6366 55.7322)"/><path d="m-.2-.7c-.9 0-1.6.4-2.3.9-.7-.5-1.5-.9-2.4-.9l2.4 2.2zm-6-5.2c0-2 1.4-4.1 3.7-4.1 2.2 0 3.6 1.6 3.6 3.8 0 2.1-1.3 4.2-3.6 4.2s-3.7-1.7-3.7-3.9m9 0c0-3-2.5-5.1-5.3-5.1-3 0-5.4 2-5.4 5 0 2.8 2.4 5.1 5.4 5 3.1 0 5.3-2.3 5.3-4.9" transform="translate(340.248 61.1241)"/><path d="m-.2-.7c1.9 0 3.3-.9 3.3-2.5 0-1.8-1.5-2.8-3.2-2.8-.4 0-.7 0-1.1.2 1.3.1 2.7.8 2.7 2.2 0 1.3-.9 1.8-2.1 1.8-.3 0-.7 0-1-.1v-6.6c0-.8 0-1.4.8-1.8h-2.9c.7.3.7 1.3.7 2v5.5c0 .7.1 1.7-.6 2h3.4z" transform="translate(348.4706 60.6298)"/><path d="m-.2-.7c0 .7.1 1.7-.6 2h2.8c-.8-.3-.7-1.4-.7-2v-5.5c0-.7-.1-1.7.6-2h-2.8c.7.3.6 1.3.6 2v5.5z" transform="translate(353.7426 58.5807)"/><path d="m-.2-.7c0-.8 0-1.4.8-1.8h-2.9c.7.3.6 1.3.6 2v6.5h-1.3c-.6 0-1.3-.2-1.7-.6l.5 1.6c.2 0 .4 0 .6-.1h.4 5.4c.2 0 .5 0 .7.1l-.5-1.7c-.2.5-.8.6-1.3.6h-1.3z" transform="translate(361.064 52.9562)"/><path d="m-.2-.7-1.4-3.7h2.9zm-1.8-4.8-.8-2.1c-.3-.7-.4-1.2.3-1.4h-2.7c.9.4 1.1 1.2 1.5 2l2.4 6.1c.2.5.5 1.1-.2 1.4h2.3l3-7.5c.3-.8.6-1.6 1.4-2h-3c.7.3.6.5.2 1.5l-.8 2z" transform="translate(369.5077 59.3948)"/><path d="m-.2-.7c-.6-.9-1.8-1.2-2.8-1.2s-2 .3-2.6 1c-.8.8-.8 1.8-.8 2.9v3.9c0 .7.1 1.7-.6 2h2.8c-.7-.3-.6-1.3-.6-2v-3.9c0-1.9.8-2.8 2.3-2.8.8 0 1.6.3 2.1 1 .3.4.3.8.3 1.3v4.4c0 .7.1 1.7-.6 2h2.8c-.7-.3-.7-1.3-.7-2v-5.6c0-.7-.1-1.7.7-2h-2.1v1z" transform="translate(382.8777 52.0257)"/><path d="m-.2-.7c-.3-.5-.8-1.1.1-1.5h-2.8l4 5.1-2.1 3c-.4.6-.8 1.1-1.4 1.4h1.7c.4 0 .6-.1.7-.3l2.1-3 1.4 1.9c.4.5.9 1.3-.1 1.4h2.7l-3.3-4.3 2.3-3.5c.5-.6.9-1.4 1.8-1.7h-1.7c-.6 0-.8.4-.9.5l-2.5 3.6z" transform="translate(388.5878 52.5491)"/><path d="m-.2-.7c.3-.1.7-.1 1.1-.1 2.1 0 4.1 1.1 4.1 3.6s-1.4 3.8-3.9 3.8c-.4 0-.9-.1-1.3-.2zm-1.5 6.4c0 .7.1 1.7-.6 1.9h3.6c3.3 0 5.4-1.8 5.4-4.7 0-2.9-2.2-4.9-5.5-4.9h-3.5c.7.5.6 1.2.6 2 0 .2 0 5.7 0 5.7z" transform="translate(323.8819 38.085)"/><path d="m-.2-.7 1.8-.2c1-.1 2 .2 2.7.9l-.6-2h-6.1c.7.3.7 1.3.7 2v5.5c0 .7.1 1.7-.7 2h4.7c.2 0 .5 0 .7.1v-1.6c-.5.5-1 .6-1.7.6-.5 0-1 0-1.5-.1v-2.7h1.7c.2 0 .5 0 .6.1v-1.6c-.2.4-.8.4-1.2.4h-1.1z" transform="translate(335.6098 38.1574)"/><path d="m-.2-.7c1.9 0 3.3-.9 3.3-2.5 0-1.8-1.5-2.8-3.2-2.8-.4 0-.7 0-1.1.2 1.3.1 2.7.8 2.7 2.2 0 1.3-.9 1.8-2.1 1.8-.3 0-.7 0-1-.1v-6.6c0-.8 0-1.4.8-1.8h-2.9c.7.3.7 1.3.7 2v5.5c0 .7.1 1.7-.6 2h3.4z" transform="translate(355.4993 46.5002)"/><path d="m-.2-.7-1.4-3.7h2.9zm-1.8-4.8-.8-2.1c-.3-.7-.4-1.2.3-1.4h-2.7c.9.4 1.1 1.2 1.5 2l2.4 6.1c.2.5.5 1.1-.2 1.4h2.3l3-7.5c.3-.8.6-1.6 1.4-2h-3c.7.3.6.5.2 1.5l-.8 2z" transform="translate(365.6401 45.2648)"/><path d="m-.2-.7c1.9 0 3-1 3-2.3s-1.1-2.3-2.3-2.6l2.1-2.6c.6-.8 1.5-1.5 2.4-2h-1.4c-.8 0-1.2.2-1.7.7l-1.7 2.1-1.3 2c1.1.2 2.4.8 2.4 2.1 0 1-.9 1.7-1.9 1.6-.3 0-.7-.1-1-.1v-6.5c0-.7-.1-1.7.7-2h-2.8c.8.3.7 1.4.7 2v5.5c0 .7.1 1.7-.6 2h3.4z" transform="translate(376.8457 46.5002)"/><path d="m-.2-.7c0 .7.1 1.7-.6 2h2.8c-.8-.3-.7-1.4-.7-2v-5.5c0-.7-.1-1.7.6-2h-2.8c.7.3.6 1.3.6 2v5.5z" transform="translate(383.5858 44.4506)"/><path d="m-.2-.7c-.6.6-1.5.9-2.3.9s-1.9-.3-1.9-1.3c0-2 5-2 5-4.7 0-1.6-1.6-3-3.9-3-.9 0-1.8.1-2.6.4l-.4 1.8c.9-.7 2-1.2 3.2-1.2.8 0 2.1.5 2.1 1.6 0 2.2-5 1.8-5 4.9 0 1.8 1.9 2.5 3.6 2.5.7 0 1.5-.1 2.2-.3z" transform="translate(394.1484 44.7705)"/><path d="m-.2-.7-1.4-3.7h2.7zm-1.7-4.8-.7-2.1c-.3-.7-.4-1.2.2-1.4h-2.5c.8.4 1 1.2 1.3 2.1l2.3 6.1c.2.5.5 1.1-.2 1.4h2.2l2.9-7.6c.3-.8.6-1.6 1.3-2h-2.8c.7.3.6.5.2 1.5l-.7 2z" transform="translate(203.4881 58.8902)"/><path d="m-.2-.7c-.5.6-1.4.9-2.2.9s-1.8-.3-1.8-1.3c0-2 4.8-2 4.8-4.7 0-1.6-1.5-3-3.7-3-.8 0-1.7.1-2.5.4l-.4 1.8c.8-.7 1.9-1.2 3-1.2.8 0 2 .5 2 1.5 0 2.3-4.7 1.9-4.7 5 0 1.8 1.8 2.5 3.5 2.5.7 0 1.4-.1 2.1-.3z" transform="translate(214.4922 58.3959)"/><path d="m-.2-.7c-.5.6-1.4.9-2.2.9s-1.8-.3-1.8-1.3c0-2 4.7-2 4.7-4.7 0-1.6-1.5-3-3.7-3-.8 0-1.7.1-2.5.4l-.3 1.8c.8-.7 1.9-1.2 3-1.2.8 0 2 .5 2 1.5 0 2.3-4.7 1.9-4.7 5 0 1.8 1.8 2.5 3.5 2.5.7 0 1.4-.1 2.1-.3z" transform="translate(221.5996 58.3959)"/><path d="m-.2-.7c0 .7.1 1.7-.6 2h2.6c-.7-.3-.6-1.4-.6-2v-5.5c0-.7-.1-1.7.6-2h-2.6c.7.3.6 1.3.6 2v5.5z" transform="translate(223.9163 58.076)"/><path d="m-.2-.7c-.5.6-1.4.9-2.2.9s-1.8-.3-1.8-1.3c0-2 4.7-2 4.7-4.7 0-1.6-1.5-3-3.7-3-.8 0-1.7.1-2.5.4l-.3 1.8c.8-.7 1.9-1.2 3-1.2.8 0 2 .5 2 1.5 0 2.3-4.7 1.9-4.7 5 0 1.8 1.8 2.5 3.5 2.5.7 0 1.4-.1 2.1-.3z" transform="translate(232.2247 58.3959)"/><path d="m-.2-.7c0-.8 0-1.4.7-1.8h-2.7c.7.3.6 1.3.6 2v6.5h-1.2c-.6 0-1.2-.2-1.6-.6l.4 1.6c.2 0 .4 0 .5-.1h.3 5.2c.2 0 .5 0 .6.1l-.3-1.7c-.2.5-.8.6-1.3.6h-1.2z" transform="translate(237.2199 52.4515)"/><path d="m-.2-.7-1.4-3.7h2.7zm-1.7-4.8-.7-2.1c-.3-.7-.4-1.2.2-1.4h-2.5c.8.4 1 1.2 1.3 2.1l2.3 6.1c.2.5.5 1.1-.2 1.4h2.2l2.9-7.6c.3-.8.6-1.6 1.3-2h-2.8c.7.3.6.5.2 1.5l-.7 2z" transform="translate(244.482 58.8902)"/><path d="m-.2-.7c0-.8 0-1.4.7-1.8h-2.4c.7.5.7 1 .7 1.8v5.8c0 .8 0 1.4-.7 1.8h2l.2-.4.2-.3 5.1-6.7v5.5c0 .8 0 1.4-.7 1.8h2.4c-.7-.4-.7-1-.7-1.8v-8.2c-1 .3-1.4.8-2 1.7l-4.7 6.3v-5.5z" transform="translate(251.7577 52.4515)"/><path d="m-.2-.7c-.8.5-1.6.8-2.6.8-1.9 0-3.2-1.5-3.2-3.6s1.4-4 3.5-4c1 0 2.1.4 2.9.9l-.7-1.7c-.6-.3-1.4-.4-2.1-.4-3.3 0-5.3 1.9-5.3 5 0 3 2 5 4.8 5 .8 0 1.7-.2 2.5-.4v-1.6z" transform="translate(267.0832 58.3229)"/><path d="m-.2-.7 1.8-.2c.9-.1 1.8.2 2.5.8l-.6-1.9h-5.8c.7.3.6 1.3.6 2v5.5c0 .7.1 1.7-.6 2h4.4c.2 0 .5 0 .6.1v-1.6c-.4.5-1 .6-1.6.6-.5 0-1 0-1.4-.1v-2.7h1.6c.2 0 .4 0 .6.1v-1.6c-.1.4-.6.4-1.1.4h-1z" transform="translate(270.2705 51.7828)"/><path d="m-.2-.7c1.9 0 3.3-.9 3.3-2.5 0-1.8-1.5-2.8-3.2-2.8-.4 0-.7 0-1.1.2 1.3.1 2.7.8 2.7 2.2 0 1.3-.9 1.8-2.1 1.8-.3 0-.7 0-1-.1v-6.6c0-.8 0-1.4.8-1.8h-2.9c.7.3.7 1.3.7 2v5.5c0 .7.1 1.7-.6 2h3.4z" transform="translate(202.7962 46.2982)"/><path d="m-.2-.7c-.6-.9-1.8-1.2-2.8-1.2s-2 .3-2.6 1c-.8.8-.8 1.8-.8 2.9v3.9c0 .7.1 1.7-.6 2h2.8c-.7-.3-.6-1.3-.6-2v-3.9c0-1.9.8-2.8 2.3-2.8.8 0 1.6.3 2.1 1 .3.4.3.8.3 1.3v4.4c0 .7.1 1.7-.6 2h2.8c-.7-.3-.7-1.3-.7-2v-5.6c0-.7-.1-1.7.7-2h-2.1v1z" transform="translate(214.8268 37.6941)"/><path d="m-.2-.7c.9 0 2.3.3 2.3 1.5 0 1-.9 1.5-1.8 1.4l-1-.1v-2.8zm.8-4.7c1.2-.1 2.4.4 2.4 1.8s-1.4 2-2.6 1.9l-1-.1v-3.6c-.1.1 1.2 0 1.2 0zm-2.8 6.5c0 .7.1 1.7-.6 2h3.4c1.9 0 3-.8 3-2.1 0-1-.6-1.5-1.5-1.9 1.4-.3 2.5-1.1 2.5-2.6 0-1.1-.8-2.1-1.7-2.5-1-.5-2.2-.5-3.3-.5h-2.4c.7.3.6 1.3.6 2z" transform="translate(222.121 42.4468)"/><path d="m-.2-.7c1-.1 1.8.3 2.6.9l-.7-2h-6c.7.3.7 1.3.7 2v5.5c0 .7.1 1.7-.7 2h2.8c-.7-.3-.6-1.4-.6-2v-6.3z" transform="translate(233.571 37.7814)"/><path d="m-.2-.7c0 .7.1 1.7-.6 2h2.8c-.8-.3-.7-1.4-.7-2v-5.5c0-.7-.1-1.7.6-2h-2.8c.7.3.6 1.3.6 2v5.5z" transform="translate(239.0177 44.2491)"/><path d="m-.2-.7c0 2-1.2 4.2-3.7 4.2-2.3 0-3.6-1.8-3.6-3.7 0-2.4 1.5-4.2 3.7-4.2 2.2-.1 3.6 1.5 3.6 3.7m3.8-6.5c-.5-.5-1.1-.7-1.8-.7-1.4 0-3.5 1.6-4.6 2.5-.5-.1-.8-.1-1.2-.1-2.8 0-5.1 2.1-5.1 5 0 3 2.5 5 5.4 5s5.3-2 5.3-4.9c0-1.7-1-3.6-2.6-4.3 1.2-1.1 2.8-2.4 4.6-2.4-.2-.1 0-.1 0-.1z" transform="translate(252.3128 41.3129)"/><path d="m-.2-.7c-.6-.9-1.8-1.2-2.8-1.2s-2 .3-2.6 1c-.8.8-.8 1.8-.8 2.9v3.9c0 .7.1 1.7-.6 2h2.8c-.7-.3-.6-1.3-.6-2v-3.9c0-1.9.8-2.8 2.3-2.8.8 0 1.6.3 2.1 1 .3.4.3.8.3 1.3v4.4c0 .7.1 1.7-.6 2h2.8c-.7-.3-.7-1.3-.7-2v-5.6c0-.7-.1-1.7.7-2h-2.1v1z" transform="translate(263.0642 37.6941)"/><path d="m-.2-.7 1.8-.2c1-.1 2 .2 2.7.9l-.6-2h-6.1c.7.3.7 1.3.7 2v5.5c0 .7.1 1.7-.7 2h4.7c.2 0 .5 0 .7.1v-1.6c-.5.5-1 .6-1.7.6-.5 0-1 0-1.5-.1v-2.7h1.7c.2 0 .5 0 .6.1v-1.6c-.2.4-.8.4-1.2.4h-1.1z" transform="translate(269.937 37.9558)"/><path d="m-.2-.7c-.6 0-1 .4-1 .9s.4.9 1 .9 1-.4 1-.9c0-.6-.4-.9-1-.9m8.1 1.4c3.6-.2 6.6-3.6 6.6-7.8 0-4.3-3.1-7.8-6.9-7.8s-6.9 3.5-6.9 7.8c0 4.2 2.9 7.7 6.6 7.8-8.1 5.6-17 .6-17.6-9.3.3-13.9 14.4-16.3 17.9-22.4 3.8 6.3 17.2 9 17.9 22.2-.6 11.7-11.6 14.3-17.6 9.5" transform="translate(289.823 60.5297)"/><path d="m-.2-.7c-.1 0-.2 0-.3 0s-.2 0-.2 0z" transform="translate(297.8973 61.9919)"/><path d="m-.2-.7c-3.4-5.4-2.6-9.5 2.2-15.4-1.2-1.5-1.5-2.5-1.4-3.9 1.6.2 2.2 1.3 2.4 3 1.7-1.5 4.3-2.1 6.1-2-.4 3-2.7 5.3-6.5 3.6-2.9 3.9-6 8-2.3 14.2z" transform="translate(293.1541 68.6528)"/></g></g></svg>