<svg xmlns="http://www.w3.org/2000/svg" width="214.761" height="64" viewBox="0 0 214.761 64"><defs><style>.a{fill:#fff;}.b{fill:#0099e3;}</style></defs><g transform="translate(108.807 41.887)"><g transform="translate(-105.512 -41.887)"><path class="a" d="M-87.44-22.882a.482.482,0,0,1-.036-.233.577.577,0,0,0-.015-.1.223.223,0,0,1-.026-.1v-.233a.215.215,0,0,1-.036-.153v-.042a7.7,7.7,0,0,0-.464-1.515,13.548,13.548,0,0,0-.741-1.476.675.675,0,0,0-.057-.06.442.442,0,0,1-.057-.1.121.121,0,0,0-.036-.078.106.106,0,0,1-.044-.08c-.075-.078-.114-.132-.114-.158l-.042-.036c0-.026-.023-.066-.08-.114l-.034-.042a.213.213,0,0,1-.08-.156h-.036c0,.052-.042.013-.117-.117V-27.7c-.08,0-.114-.042-.114-.122l-.044-.036c-.054,0-.077-.039-.077-.117l-.194-.194c-.054,0-.078-.039-.078-.117H-90l-.117-.117h-.04v-.039c-.078,0-.117-.026-.117-.08l-.194-.191c-.026,0-.062-.026-.114-.08v-.036a.432.432,0,0,0-.083-.057.377.377,0,0,1-.075-.06c-.106-.026-.155-.066-.155-.117a4.764,4.764,0,0,0-.409-.254,1.082,1.082,0,0,1-.251-.174.111.111,0,0,0-.08-.042l-.036-.039a.118.118,0,0,1-.08-.036c-.023,0-.06-.028-.114-.08l-.042-.039a.327.327,0,0,1-.117-.039.109.109,0,0,1-.075-.036c-.057-.026-.08-.052-.08-.08-.049,0-.077-.013-.077-.036a.324.324,0,0,1-.114-.039.133.133,0,0,1-.08-.039.079.079,0,0,1-.06-.021.076.076,0,0,0-.057-.021.117.117,0,0,0-.077-.036.078.078,0,0,1-.06-.023.075.075,0,0,0-.06-.018h-.039l-.036-.039a.1.1,0,0,1-.077-.042.072.072,0,0,1-.06-.018.078.078,0,0,0-.06-.015.1.1,0,0,0-.075-.042.148.148,0,0,0-.114-.042.176.176,0,0,1-.122-.036h-.036l-.039-.039h-.113a.1.1,0,0,0-.08-.036.142.142,0,0,0-.117-.042h-.039c-.026,0-.036-.013-.036-.039h-.119A.112.112,0,0,0-94-30.548a.265.265,0,0,1-.119-.039h-.119a.1.1,0,0,1-.06-.018.066.066,0,0,0-.054-.021.125.125,0,0,1-.078-.036h-.119a.111.111,0,0,1-.075-.042h-.237a.174.174,0,0,0-.119-.039h-.194a.158.158,0,0,0-.117-.039H-95.6a.178.178,0,0,1-.078-.018.146.146,0,0,0-.078-.021h-2.061a9.844,9.844,0,0,0-6.956,3.149v-1.282a1.238,1.238,0,0,0-.35-1.051,1.237,1.237,0,0,0-1.051-.35,1.219,1.219,0,0,0-1.031.36,1.219,1.219,0,0,0-.329,1.041V-4.377a1.219,1.219,0,0,0,.329,1.041,1.219,1.219,0,0,0,1.031.36,1.237,1.237,0,0,0,1.051-.35,1.238,1.238,0,0,0,.35-1.051V-20.823a6.985,6.985,0,0,1,2.054-4.936,7.164,7.164,0,0,1,4.944-2.25h1.667a5.613,5.613,0,0,1,4.162,1.742,5.6,5.6,0,0,1,1.75,4.161V-4.377a1.239,1.239,0,0,0,.35,1.051,1.239,1.239,0,0,0,1.051.35,1.238,1.238,0,0,0,1.05-.35A1.238,1.238,0,0,0-87.4-4.377v-18.31h-.042Zm14.128-7.931v.039l-.042-.039h-1.554a9.912,9.912,0,0,0-6.766,2.877,9.65,9.65,0,0,0-3.069,6.608v9.8A8.18,8.18,0,0,0-82.333-5.7a8.561,8.561,0,0,0,5.8,2.644l.313.057a.8.8,0,0,0,.153.021H-68.8a1.235,1.235,0,0,0,1.049-.351,1.235,1.235,0,0,0,.347-1.05,1.217,1.217,0,0,0-.358-1.029,1.217,1.217,0,0,0-1.038-.33h-6.881c-.132-.026-.265-.052-.388-.078A5.64,5.64,0,0,1-80.23-7.53a5.861,5.861,0,0,1-1.756-4.12v-1.784h8.75a8.263,8.263,0,0,0,6.064-2.529A8.379,8.379,0,0,0-64.6-22.105a8.3,8.3,0,0,0-2.568-6.142,8.385,8.385,0,0,0-6.139-2.566Zm4.156,12.87a5.646,5.646,0,0,1-4.156,1.707h-8.675v-4.586a7.052,7.052,0,0,1,2.1-5.013,6.975,6.975,0,0,1,4.977-2.172h1.6a5.593,5.593,0,0,1,4.156,1.745A5.6,5.6,0,0,1-67.408-22.1,5.512,5.512,0,0,1-69.156-17.944ZM-42.334-30.56a1.233,1.233,0,0,0-1.036-.286,1.233,1.233,0,0,0-.867.636l-7.584,11.079L-59.4-30.21a1.236,1.236,0,0,0-.868-.636,1.236,1.236,0,0,0-1.038.286,1.267,1.267,0,0,0-.662.879,1.267,1.267,0,0,0,.276,1.065l8.2,11.974-8.2,11.971A1.27,1.27,0,0,0-61.968-3.6a1.27,1.27,0,0,0,.661.881,1.213,1.213,0,0,0,1.041.3,1.213,1.213,0,0,0,.865-.652l7.58-11.077,7.584,11.078a1.342,1.342,0,0,0,.877.582,1.342,1.342,0,0,0,1.027-.229,1.275,1.275,0,0,0,.66-.881,1.275,1.275,0,0,0-.271-1.066l-8.206-11.972,8.206-11.973a1.272,1.272,0,0,0,.272-1.066,1.272,1.272,0,0,0-.661-.879ZM-20.881-5.783h-4.4a6.115,6.115,0,0,1-4.009-1.556,5.089,5.089,0,0,1-1.631-3.888v-.036h-.039V-27.592h7.23a1.206,1.206,0,0,0,1.022-.34,1.206,1.206,0,0,0,.342-1.022,1.22,1.22,0,0,0-.332-1.041,1.22,1.22,0,0,0-1.032-.358h-7.23v-5.091a1.239,1.239,0,0,0-.349-1.051,1.239,1.239,0,0,0-1.05-.352,1.239,1.239,0,0,0-1.05.352,1.239,1.239,0,0,0-.349,1.051v5.091H-38.3A1.236,1.236,0,0,0-39.35-30a1.236,1.236,0,0,0-.35,1.05,1.222,1.222,0,0,0,.36,1.031,1.222,1.222,0,0,0,1.041.331h4.547v16.407a.8.8,0,0,0,.039.308,7.737,7.737,0,0,0,2.6,5.6,8.887,8.887,0,0,0,5.868,2.252.309.309,0,0,0,.119.042h4.24a1.259,1.259,0,0,0,1.067-.343,1.259,1.259,0,0,0,.37-1.058,1.259,1.259,0,0,0-.371-1.055,1.259,1.259,0,0,0-1.064-.344Zm14.237-25.03v.039l-.042-.039H-8.241a9.912,9.912,0,0,0-6.767,2.876,9.672,9.672,0,0,0-3.069,6.608v9.8A8.2,8.2,0,0,0-15.663-5.7a8.554,8.554,0,0,0,5.79,2.644c.132.023.236.042.313.057a.878.878,0,0,0,.153.021h7.268a1.238,1.238,0,0,0,1.052-.349A1.238,1.238,0,0,0-.735-4.378,1.221,1.221,0,0,0-1.1-5.409a1.221,1.221,0,0,0-1.041-.329h-6.88l-.388-.078A5.654,5.654,0,0,1-13.567-7.53a5.886,5.886,0,0,1-1.748-4.12v-1.784h8.75A8.258,8.258,0,0,0-.5-15.961,8.367,8.367,0,0,0,2.062-22.1,8.285,8.285,0,0,0-.5-28.245a8.381,8.381,0,0,0-6.14-2.568Zm4.156,12.868a5.655,5.655,0,0,1-4.156,1.707h-8.673v-4.586a7.05,7.05,0,0,1,2.1-5.013,6.978,6.978,0,0,1,4.975-2.172h1.6a5.6,5.6,0,0,1,4.156,1.745A5.6,5.6,0,0,1-.734-22.1,5.517,5.517,0,0,1-2.487-17.944Zm27.345-4.744h-.036v-.194a.382.382,0,0,1-.044-.233.942.942,0,0,0-.013-.1.256.256,0,0,1-.023-.1v-.233A.226.226,0,0,1,24.7-23.7v-.042a7.712,7.712,0,0,0-.471-1.515,11.886,11.886,0,0,0-.738-1.476c-.021-.028-.044-.046-.049-.06a.283.283,0,0,1-.062-.1.125.125,0,0,0-.039-.078.121.121,0,0,1-.042-.08c-.075-.078-.114-.132-.114-.158l-.042-.036c0-.026-.023-.066-.078-.114l-.039-.042a.227.227,0,0,1-.083-.156h-.034c0,.052-.036.013-.117-.117V-27.7a.106.106,0,0,1-.117-.122l-.039-.036q-.077,0-.077-.117l-.189-.194c-.06,0-.083-.039-.083-.117h-.039l-.119-.117h-.04v-.039c-.07,0-.111-.026-.111-.08l-.2-.191c-.026,0-.066-.026-.117-.08v-.036a.24.24,0,0,0-.08-.057.464.464,0,0,1-.072-.06c-.1-.026-.15-.066-.15-.117-.16-.106-.3-.189-.414-.254a1.109,1.109,0,0,1-.254-.174.106.106,0,0,0-.075-.042l-.042-.039a.107.107,0,0,1-.075-.036c-.026,0-.066-.028-.117-.08l-.042-.039a.311.311,0,0,1-.117-.039.124.124,0,0,1-.077-.036c-.046-.026-.078-.052-.078-.08-.052,0-.075-.013-.075-.036a.3.3,0,0,1-.117-.039A.132.132,0,0,1,19.8-30a.072.072,0,0,1-.057-.021.083.083,0,0,0-.06-.021.117.117,0,0,0-.078-.036.078.078,0,0,1-.06-.023.066.066,0,0,0-.054-.018h-.042l-.042-.039a.1.1,0,0,1-.075-.042.081.081,0,0,1-.062-.018c-.011-.013-.028-.015-.054-.015a.106.106,0,0,0-.075-.042.175.175,0,0,0-.119-.042.147.147,0,0,1-.114-.036h-.042l-.039-.039h-.117a.1.1,0,0,0-.078-.036.155.155,0,0,0-.119-.042H18.48a.036.036,0,0,1-.03-.009.036.036,0,0,1-.011-.03h-.122a.093.093,0,0,0-.07-.039.277.277,0,0,1-.119-.039H18.01a.066.066,0,0,1-.052-.018.083.083,0,0,0-.062-.021.12.12,0,0,1-.08-.036H17.7a.111.111,0,0,1-.077-.042h-.23a.174.174,0,0,0-.119-.039h-.189a.176.176,0,0,0-.122-.039h-.313a.15.15,0,0,1-.072-.018.166.166,0,0,0-.077-.021H14.438a9.829,9.829,0,0,0-6.956,3.149v-1.282a1.237,1.237,0,0,0-.35-1.051,1.238,1.238,0,0,0-1.051-.35A1.22,1.22,0,0,0,5.048-30a1.22,1.22,0,0,0-.33,1.042V6.78A1.2,1.2,0,0,0,6.08,8.14a1.22,1.22,0,0,0,1.4-1.359v-11.7a8.227,8.227,0,0,0,5.865,2.367h1.829a9.6,9.6,0,0,0,6.805-3.071,9.739,9.739,0,0,0,2.877-6.956h-.036a.161.161,0,0,0,.036-.117Zm-2.8,10.107A7.1,7.1,0,0,1,20-7.565a7.006,7.006,0,0,1-4.824,2.214h-1.75v.042a5.962,5.962,0,0,1-4.2-1.717,5.946,5.946,0,0,1-1.707-4.2v-.034H7.482v-9.565A6.956,6.956,0,0,1,9.54-25.759a7.146,7.146,0,0,1,4.936-2.252h1.673a5.617,5.617,0,0,1,4.161,1.745,5.615,5.615,0,0,1,1.748,4.161Z" transform="translate(107.553 49.913)"/><path class="b" d="M-40.824-33.787a8.1,8.1,0,0,1-8.092,8.1,8.1,8.1,0,0,1-8.1-8.1,8.1,8.1,0,0,1,8.1-8.1A8.1,8.1,0,0,1-40.824-33.787Z" transform="translate(187.827 41.887)"/><path class="b" d="M-32.29-33.787a8.1,8.1,0,0,1-8.1,8.1,8.1,8.1,0,0,1-8.1-8.1,8.1,8.1,0,0,1,8.1-8.1,8.1,8.1,0,0,1,8.1,8.1Z" transform="translate(201.375 41.887)"/><path class="a" d="M-15.924-33.787a8.1,8.1,0,0,1-8.1,8.1,8.1,8.1,0,0,1-8.1-8.1,8.1,8.1,0,0,1,8.1-8.1,8.1,8.1,0,0,1,8.1,8.1Z" transform="translate(227.39 41.887)"/></g><g transform="translate(-108.807 13.88)"><path class="a" d="M-104.884-16.053c-.013.119-.021.246-.028.368-.06,1.178-.453,2.08-1.795,2.08-1.976,0-2.1-1.253-2.1-2.97v-.92c.049-1.639.179-2.856,2.1-2.856a1.611,1.611,0,0,1,1.257.432,1.61,1.61,0,0,1,.5,1.23,3.484,3.484,0,0,1,.023.4v.085h-1.186c-.049-.409-.005-1.183-.6-1.183-.81,0-.867.829-.867,1.38v2.027c0,.533.046,1.4.867,1.4.662,0,.582-1.064.606-1.476Z" transform="translate(108.807 20.359)"/><path class="a" d="M-105.258-14.622c-1.375,0-1.631-.707-1.631-2.3V-17c.011-1.656.026-2.716,1.709-2.716,1.656,0,1.665,1.064,1.673,2.716v.088c0,1.585-.248,2.292-1.6,2.292h-.153Zm-.512-1.705c0,.6.049.849.59.849.513,0,.556-.256.556-.849v-1.616c0-.456,0-.92-.556-.92-.59,0-.59.464-.59.92Z" transform="translate(111.856 21.349)"/><path class="a" d="M-104-19.1h.015a1.047,1.047,0,0,1,1.007-.624,1.039,1.039,0,0,1,.831.313,1.039,1.039,0,0,1,.285.841v3.814h-1.116v-3.226c0-.474-.052-.782-.471-.8h-.028c-.378,0-.523.352-.523.818v3.208h-1.119V-19.6h1.119Z" transform="translate(114.663 21.352)"/><path class="a" d="M-102.369-16.355a1.864,1.864,0,0,0-.018.256c0,.6.265.611.49.611h.039a.439.439,0,0,0,.332-.107.439.439,0,0,0,.149-.315.5.5,0,0,0-.015-.119c-.015-.277-.331-.43-.549-.58l-.609-.419a1.777,1.777,0,0,1-.922-1.524c0-.746.6-1.176,1.67-1.176a1.367,1.367,0,0,1,1.153.379,1.367,1.367,0,0,1,.4,1.148v.075h-1.116v-.109c0-.458-.156-.637-.515-.637-.265,0-.471.122-.471.394s.207.414.417.559l.912.621a1.7,1.7,0,0,1,.749.948,1.427,1.427,0,0,1,.034.326c0,.729-.324,1.391-1.67,1.391a1.428,1.428,0,0,1-1.134-.382,1.428,1.428,0,0,1-.445-1.111c0-.08,0-.156.005-.231Z" transform="translate(117.258 21.357)"/><path class="a" d="M-99.705-15.551h-.015a1.014,1.014,0,0,1-1.035.849c-.886,0-1.08-.456-1.08-1.263v-3.71h1.114v3.389a1.027,1.027,0,0,0,.114.57.428.428,0,0,0,.342.156c.5,0,.515-.559.515-.94v-3.175h1.114v4.842H-99.7Z" transform="translate(119.885 21.428)"/><path class="a" d="M-100.044-13.853v-6.435h1.114v6.435Z" transform="translate(122.736 20.451)"/><path class="a" d="M-97.2-14c-.182.013-.381.039-.57.039-.523,0-1.023-.145-1.023-.8V-18.04h-.45v-.816h.445v-1.331h1.126v1.331h.474v.816h-.474v3c.018.148.171.174.308.174a1.044,1.044,0,0,0,.166-.008Z" transform="translate(124.015 20.611)"/><path class="a" d="M-98.037-19.276v-1.012h1.116v1.012Zm0,5.422V-18.7h1.116v4.842Z" transform="translate(125.925 20.451)"/><path class="a" d="M-95.956-19.1h.015a1.043,1.043,0,0,1,1-.624,1.037,1.037,0,0,1,.832.313,1.037,1.037,0,0,1,.284.842v3.814h-1.116v-3.226c0-.474-.052-.782-.471-.8h-.027c-.378,0-.521.352-.521.818v3.208h-1.121V-19.6h1.121Z" transform="translate(127.452 21.352)"/><path class="a" d="M-94.193-14.214a.233.233,0,0,0,.132.217.7.7,0,0,0,.342.066c.471,0,.557-.373.557-.751v-.559l-.015-.018a1.051,1.051,0,0,1-1.023.637c-.943,0-1.132-.849-1.157-1.624V-18c.026-1.331.438-1.707,1.157-1.722h.034a.882.882,0,0,1,.935.624h.015v-.5H-92.1v4.7c0,.986-.27,1.776-1.8,1.776-.738,0-1.349-.274-1.408-1.092Zm.974-3.739c0-.4-.066-.912-.521-.912-.521,0-.471.456-.5.935v1.611c.028.468.148.839.49.839.36,0,.536-.3.536-.861v-1.611Z" transform="translate(130.176 21.351)"/><path class="a" d="M-90.141-15.608a4.411,4.411,0,0,0,.246-1.2h.635a4.136,4.136,0,0,1-.464,1.776l.852,1.192h-.871l-.4-.6a1.855,1.855,0,0,1-1.524.735,1.752,1.752,0,0,1-1.375-.5,1.752,1.752,0,0,1-.515-1.371,2.2,2.2,0,0,1,1.32-1.947,2.276,2.276,0,0,1-.606-1.442,1.24,1.24,0,0,1,.324-.927,1.24,1.24,0,0,1,.9-.4,1.239,1.239,0,0,1,.96.334,1.239,1.239,0,0,1,.388.939,2.114,2.114,0,0,1-1.108,1.608Zm-1.779-1.424a1.706,1.706,0,0,0-.893,1.465,1.15,1.15,0,0,0,.336.89,1.15,1.15,0,0,0,.891.332,1.421,1.421,0,0,0,1.06-.6Zm.945-1.984a.633.633,0,0,0-.152-.485.633.633,0,0,0-.459-.217.627.627,0,0,0-.445.211.627.627,0,0,0-.155.468,2.2,2.2,0,0,0,.5,1.157,1.418,1.418,0,0,0,.714-1.134Z" transform="translate(133.062 20.453)"/><path class="a" d="M-91.279-13.853v-6.435h1.2v2.548H-88.4v-2.548h1.2v6.435h-1.2V-16.8h-1.681v2.947Z" transform="translate(136.667 20.451)"/><path class="a" d="M-89.226-18.067a1.485,1.485,0,0,1,.414-1.223,1.485,1.485,0,0,1,1.215-.436c1.554,0,1.715.808,1.715,2.129v.65h-2.229v.707c.015.632.243.756.585.756.386,0,.515-.27.515-.808V-16.4H-85.9v.14c0,1.005-.453,1.631-1.544,1.631-1.263,0-1.784-.585-1.784-1.937v-1.5ZM-87-17.8v-.419c-.011-.49-.14-.645-.58-.645-.521,0-.536.362-.536.756v.308Z" transform="translate(139.945 21.354)"/><path class="a" d="M-85.158-14.75a.773.773,0,0,1-.075-.362.59.59,0,0,1,.011-.132h-.018a1.417,1.417,0,0,1-.448.464.961.961,0,0,1-.533.166c-.9,0-1.295-.456-1.295-1.45,0-1.108.782-1.375,1.66-1.735.386-.163.575-.337.575-.619a1.008,1.008,0,0,0-.026-.186c-.054-.213-.223-.251-.523-.251-.49,0-.588.238-.588.655v.052h-1.06v-.036c0-.9.305-1.528,1.688-1.528,1.434,0,1.6.712,1.6,1.32v2.967a2.6,2.6,0,0,0,.1.681Zm-.15-2.545c-.272.186-.611.373-.906.613a.753.753,0,0,0-.184.582c0,.37.114.621.523.621.662,0,.539-.839.567-1.3Z" transform="translate(142.645 21.348)"/><path class="a" d="M-85.672-13.853v-6.435h1.119v6.435Z" transform="translate(145.579 20.451)"/><path class="a" d="M-82.823-14c-.182.013-.381.039-.564.039-.525,0-1.02-.145-1.02-.8V-18.04h-.458v-.816h.448v-1.331h1.12v1.331h.474v.816H-83.3v3c.018.148.176.174.313.174a1.025,1.025,0,0,0,.16-.008Z" transform="translate(146.86 20.611)"/><path class="a" d="M-83.706-13.853v-6.435h1.116V-18.2h.014a1.217,1.217,0,0,1,.533-.521,1.1,1.1,0,0,1,.468-.1,1.04,1.04,0,0,1,.834.312,1.04,1.04,0,0,1,.287.843v3.814h-1.121v-3.312c0-.476-.046-.784-.468-.8h-.026c-.376,0-.523.352-.523.818v3.294Z" transform="translate(148.704 20.451)"/><path class="a" d="M-81.922-13.853v-6.435H-78.7v.639h-2.509v2.131h2.349v.647h-2.349V-14.5h2.525v.642Z" transform="translate(151.54 20.451)"/><path class="a" d="M-79.582-17.19v.217c0,.624.044,1.735.909,1.735.738,0,.81-.642.841-1.225h.647c-.028.922-.37,1.8-1.434,1.8-1.457,0-1.662-1.22-1.662-2.457,0-1.168.186-2.571,1.647-2.571a1.422,1.422,0,0,1,1.071.482,1.422,1.422,0,0,1,.343,1.123v.023h-.639c0-.523-.137-1.057-.787-1.057C-79.538-19.122-79.582-17.921-79.582-17.19Z" transform="translate(154.148 21.392)"/><path class="a" d="M-77-14.662c-1.026,0-1.707-.619-1.707-2.675,0-1.445.533-2.354,1.707-2.354s1.712.909,1.712,2.354C-75.287-15.276-75.95-14.662-77-14.662Zm0-4.457c-.694,0-1,.552-1,1.994,0,1.121.215,1.89,1,1.89.81,0,1.007-.769,1.007-1.89,0-1.446-.295-2-1.007-2Z" transform="translate(156.653 21.391)"/><path class="a" d="M-76.235-19.048h.021a1.446,1.446,0,0,1,1.192-.65,1.077,1.077,0,0,1,.886.323,1.077,1.077,0,0,1,.292.9V-14.8h-.682v-3.5c0-.495-.158-.831-.7-.831a.959.959,0,0,0-.673.27,1.013,1.013,0,0,0-.311.865V-14.8h-.681v-4.77h.662Z" transform="translate(159.533 21.396)"/><path class="a" d="M-73.516-14.662c-1.031,0-1.709-.619-1.709-2.675,0-1.445.533-2.354,1.709-2.354s1.707.909,1.707,2.354C-71.809-15.276-72.47-14.662-73.516-14.662Zm0-4.457c-.694,0-1,.552-1,1.994,0,1.121.212,1.89,1,1.89s1.005-.769,1.005-1.89c0-1.446-.3-2-1.005-2Z" transform="translate(162.184 21.391)"/><path class="a" d="M-72.728-14.795H-73.4v-4.77h.647v.611h.018a1.335,1.335,0,0,1,1.137-.738,1.249,1.249,0,0,1,1.132.753,1.422,1.422,0,0,1,1.277-.753,1.275,1.275,0,0,1,.875.331,1.44,1.44,0,0,1,.293,1.028v3.538H-68.7v-3.5c0-.53-.142-.831-.729-.831a.976.976,0,0,0-.635.27,1.011,1.011,0,0,0-.308.865v3.193h-.678v-3.5c0-.495-.163-.831-.715-.831a.963.963,0,0,0-.662.27,1.01,1.01,0,0,0-.3.865Z" transform="translate(165.083 21.392)"/><path class="a" d="M-70.754-19.435v-.855h.673v.855Zm0,5.58v-4.77h.673v4.77Z" transform="translate(169.29 20.452)"/><path class="a" d="M-69.327-17.19v.217c0,.624.046,1.735.917,1.735.733,0,.8-.642.836-1.225h.645c-.026.922-.368,1.8-1.432,1.8-1.457,0-1.667-1.22-1.667-2.457,0-1.168.191-2.571,1.65-2.571a1.424,1.424,0,0,1,1.072.481,1.424,1.424,0,0,1,.345,1.123v.023H-67.6c-.008-.523-.145-1.057-.784-1.057C-69.281-19.122-69.327-17.921-69.327-17.19Z" transform="translate(170.443 21.392)"/><path class="a" d="M-66.25-18.293v-.093c0-.495-.212-.738-.753-.738-.479,0-.756.223-.756.723,0,.619.51.694.971.891.686.308,1.375.484,1.375,1.375a1.434,1.434,0,0,1-.46,1.1,1.434,1.434,0,0,1-1.13.372h-.06a1.4,1.4,0,0,1-1.147-.5,1.325,1.325,0,0,1-.269-.914v-.1h.645v.091c0,.533.2.855.8.855.554,0,.917-.228.917-.808,0-.681-.689-.741-1.181-.948-.738-.272-1.171-.523-1.171-1.354a1.3,1.3,0,0,1,.4-.988,1.3,1.3,0,0,1,1-.358c.927,0,1.476.411,1.476,1.365v.039Z" transform="translate(172.912 21.394)"/></g></g></svg>