<svg enable-background="new 0 0 488.3 367.6" viewBox="0 0 488.3 367.6" xmlns="http://www.w3.org/2000/svg"><g fill="#fff"><path d="m65.6 298.5h-2.8v23h14.5v-2.6h-11.7z"/><path d="m94 311.2h11.5v-2.6h-11.5v-7.5h11.8v-2.6h-14.6v23h14.9v-2.6h-12.1z"/><path d="m143.7 309.8c1.8-1 3.3-2.5 3.3-5 0-4.2-3.5-6.4-9.4-6.4h-9.4v23.1h10.5c5.5 0 9.3-1.5 9.3-6.5 0-2.5-1.6-4.4-4.3-5.2zm-10.3-7.1h3.7c3.1 0 4.3.9 4.3 2.6 0 1.6-1.2 2.6-4 2.6h-4.1v-5.2zm4.9 14.6h-4.9v-5.2h4.7c3.4 0 4.5.9 4.5 2.5 0 1.8-1.4 2.7-4.3 2.7z"/><path d="m176.1 307.4h-10.1v-8.9h-5.2v23h5.2v-9.4h10.1v9.4h5.2v-23h-5.2z"/><path d="m208.8 298.5-5.1 12.1h-.2l-5.4-12.1h-5.7l10.7 24.1h.7l10.5-24.1z"/><path d="m248.1 275.4h-3.7l-27.1 69.2h3.6z"/><path d="m277.1 297.3-8.4 19h-.1l-8.5-19h-.4l-7.9 24.2h3l5.4-17h.1l8 18.1h.4l8.1-18.1h.1l5.4 17h3.1l-7.9-24.2z"/><path d="m305.2 297.3-10.4 24.2h2.9l2.5-6.1h10.4l2.6 6.1h3l-10.6-24.2zm-3.9 15.6 4.1-9.7h.1l4.1 9.7z"/><path d="m346.1 305.9c0-4.4-3.1-7.4-8.5-7.4h-8.8v23.1h2.7v-8.2h5.1c.5 0 1.1 0 1.5-.1l6.1 8.3h3.3l-6.7-8.9c3.4-1.1 5.3-3.2 5.3-6.8zm-9 4.9h-5.5v-9.8h5.4c4 0 6.2 1.8 6.2 4.8 0 3.4-2.5 5-6.1 5z"/><path d="m368.4 297.3-10.4 24.2h2.9l2.5-6.1h10.4l2.6 6.1h3l-10.6-24.2zm-4 15.6 4.1-9.7h.1l4.1 9.7z"/><path d="m392 298.5h2.7v23.1h-2.7z"/><path d="m412.4 303.9c0-1.5 1.3-3.3 4.3-3.3 2.8 0 5.1 1.5 6.6 3.4h.1l1-2.6c-1.7-2.2-4.4-3.4-7.6-3.4-5 0-7.2 3-7.2 6 0 8.8 13.7 5.6 13.7 11.8 0 1.8-1.6 3.6-5.6 3.6-3.5 0-6.1-1.4-8-3.5h-.1l-1 2.6c2.1 2.2 5.3 3.5 9.1 3.5 6 0 8.4-3.2 8.4-6.4 0-8.9-13.7-5.5-13.7-11.7z"/><path d="m239.3 70.7c.7.1 2.1.1 3-.9.8-1 2.3-1.7 3.7-2.9s4.4-4.2 5.6-7.4c1.3-3.2 3.2-5.7 3.8-6.3s0 0-.9.4c-.9.5.2-.4 0-.6-.1-.1-1.9 1.2-2.9 2.2-.9 1-10.2 9.8-13.2 11.2 0 0-.7.6-1.6.3s-.8.6-.9 1.1c-.2.5 2.8 2.8 3.4 2.9z"/><path d="m78.3 81.7c-.8 0-5.8 0-7.9 0s-8.6-.4-10.4.7c0 0-1.9.9-2.4 2.4s-.6 2.1-.1 3.5-.9 3.8-1.5 5.2-8.1 11.6-10.8 14.8c-2.6 3.2-6.7 9-12.2 10.8 0 0-6.9-27.1 28.5-59.3 0 0 1.2-1.2 1.8-1.1s1.5.7 2.5 1.1 3.6 2.2 5.7.5c2.2-1.6 3.5-6.1.8-9.4s-7.5-4.2-11-5.5-8.9-.6-13.3.2c-4.3.8-10.2 7.6-15.9 17.7s-5 11.3-6.3 15.1-10.6 25.2-3.8 40.7 11.7 10.7 17.7 9.1 12.3-8.3 16.2-14.1c0 0-.4 5.7-1.6 12.6-1.1 6.8-2.7 16-1.9 21.9s1.5 10.5 2.3 10.6c.8.2 2.7-1 4.4-5.8s2.2-4.6 2.6-8.1c.4-3.4.8-5.1-.3-7 0 0-.3-6 1.5-10.9 0 0 1.4-3.4 2-6.3s2-4 2.8-7.9c0 0 1.6-7.5 2.4-10.8s.4-3.8 3.1-7.5c2.7-3.8 3-4.2 3.9-7.1 0 0 .6-1.8.9-2.9s.4-1.8.8-2.3c.5-.6.2-.9-.5-.9z"/><path d="m312.3 121.6c-.6-6-7-13.6-12.7-18.1-6.4-5-9.4-12.2-9.4-12.2 1-1 5.7-6.3 6.4-9.4s-1.4-3.6-3.2-4.1c-1.9-.5-4.3-.6-5.2-.9s-.9.5-3 2.1-2.7 1-3.1 5.7 2.7 10.2 2.7 10.2c-1.9 2.5-7.6 9.3-14.1 16-6.5 6.8-11 10-11 10l-.2.1c-2.2 1.4-2.2-.7-2.4-2.5-.2-1.7-.1-3.6-.6-5.5s.3-7.2.3-7.2.6-.7.9-1.2 1.2-1.4 1.5-1.7c.2-.4.3-.3.1 0s-.2.4-.5.8c-.4.6-.8 1.3-.8 1.3s.4-.4.9-.9c.5-.6.7-.9 1-1.3s.2-.2.2.1c-.1.3-.6.9-.8 1.3-.4.5-1.1 1.2-1.1 1.2s1-.5 1.3-.8c.2-.2 5.6-6.1 7.3-12.4s-2.4-6.8-3.6-6.9c-1.1-.1-1.3-.4-4.4-.2s-4.7 4.8-8 12.6-3 14.5-3 14.5c-.3.4-.6.7-.8 1 0 0 .1 0 .2-.1 0 0 0 .1-.1.1h.1c.3-.4.7-.7.7-.7-.1.4-.2.5-.4.9-.3.4-.3.4-.6.8s-.7.8-.7.8 0 .2 0-.2c0-.3.1-.3.4-.7 0-.1.1-.2.1-.2-.1 0-.1.1-.2.1v-.1c-8.2 9.9-14.2 12.5-15.2 12.7-1.1.3-.9-1.8-.9-2.8s.9-3.6 1.2-4.9c.2-1.3.8-5.3 2.1-7.5 1.4-2.2 1.8-3.6 3.1-7.1s5.9-20.2 6-21-.3-2.4-.7-3.1c-.5-.7-.9-1.6-1.7-2.2s-1.7-.7-3.8-1-2.2-.2-3.8-.1-1.6 1.8-1.6 1.8c-.8.8-1 .6-.6 4.8s-1.2 9.4-6.6 20.1-10.9 17.2-10.9 17.2-.7-7-.5-9.6 1.4-7.3.6-12.3c-.8-4.9-5.7-7.3-9.4-9.7s-1-6.3-.5-7.9-1-1.7-2.6-1.6-1.4.1-2.2.5c-.7.4.7-.4-.8 2.3s.3 7.1.3 7.1-2.8 4.4-5.1 8.2c-2.4 3.9-11.1 17.5-13 19.6s-5.8 5.2-7.9 3.2-1.6-8.8-1.6-8.8 2.5-3.5 5-6.2 3.7-4.8 3.7-4.8 1.1 0 7.3-7.8c6.2-7.7 5.4-11 5.2-13.3-.1-2.3-2.8-3.7-5.8-5.3s-4.2-1.1-5.1-.9c-.9.1-1.1-.7-1.7-.2s-1 .7-1.8 1.1-1.9 1.9-2.9 2.2c-1 .2-2.3.4-1.4 1.7.8 1.2 0 2 0 2-12.4 16.8-9.8 34.4-9.8 34.4-1.5 1.2-5.3 4.1-7 5.3-.4.2-1.8.9-3.8.7-2.4-.3-7-1.5-9.8-5.7-3.4-5.2-2.7-23-1-34.1 1.6-11.1 8.9-41.6 9.9-45.2.9-3.6.4-6.7.4-6.7.2-2 1.8-6.1 2.3-6.7s.6-.9-.2-1.1-1.2-1.1-1.6-1.7-2.1-.4-2.6-.2-2.7-1-4.2-1.3c-1.4-.3-2.7-.4-3 0-.4.4-.7 1.2-.9 1s-.6-1-.8-.5.1.5-.1 1.1-1 1.4-1.3 1.2c-.4-.1-.3-1-.5-.2s-.2.7-.5.9c-.2.2-.4-.2-.6.1-.1.3-.1.6-.5 1s0 1.3 0 1.3c.2 2.4-1.6 6-4.2 15.4s-5.1 22.9-5.1 22.9c-2.4 11.7-7.2 21.9-8.5 25.1s-4 7.9-5.5 10.2-2 5.7-4 6.4-3.1 2.8-3.1 2.8-.4-7.8.6-15.1c1.1-7.3 3-13.3 3.7-15.3.7-1.9 1.3-4.1 1.6-5.3.4-1.1.7-1.7.1-1.9s-2.8-1.1-3.1-1.4c-.2-.3-1-.7-1.8-.7s-1.9-.5-2.6-.6-1.1-.4-2-.8c-.6-.3-1-.3-1-.3s-.1 0-.3.4-1.2 2.5-1.7 3.5c0 0-2 .1-3.8 1.4s-6 3.5-9.7 9.1-5 7.5-5.9 10.1-1.5 4.3-2.3 8.2c-.8 3.8-.7 6.5 0 7.4.6 1 .8 1.5 1.8 2.3s2 1.8 3.1.9c1.2-.8 4-3.6 5.6-4.3 1.7-.7 3.7-4.5 5.9-5.4 0 0 .2 4.3 0 8.6s-.6 7.3.9 8.5c1.4 1.3 3.3 4.2 4.7 4s1.9-1.1 3.1-.7 2.2.3 4.6-3.7 11.8-19.2 15.8-30.2c0 0-.1 24.7 8.7 33.7 8.8 8.9 13.8 11 25.3 3.2 0 0 .4.5.9.2.5-.2 1.2-2.1 4.8-4 0 0 1.6 6.1 5.5 8.2 3.8 2.1 7.6 2.2 10 .5 2.2-1.6 5.1-5.1 8.9-10.3 2.6-3.6 2.7-6.9 5.5-11.1s2.1-5.9 3.1-7.9c1-1.9 3-6.4 3-6.4s2.2 2.3 4 3.4c1.8 1 1.4 5.9.5 9s-1.4 14.3 2.6 19.9c4 5.5 7.9 5.1 10.4 2.6s4.3-6.2 5.7-9.8c.1 21.9 10.4 15.7 14.4 12.6 4-3.2 11.1-12.1 11.1-12.1 1.4 10.5 7.5 12.2 10.8 11.8s6.1-5.9 8.1-9c1.9-3 6.8-8.2 8-9.5s2.4-3.2 3.6-5.1 7.2-8.4 7.2-8.4 2 3 2.9 4.3c.9 1.4 5.4 5.4 7.5 7.5 2.1 2.2 3.8 5.9 3.8 5.9s-.9.4-1.4.3-1.3-.5-1.9-1-1.8-.4-2.2-.2-1.1-.2-1.6-.5c-.4-.3-.7-.7-1.4-.7-.6 0-.8-.4-1.1-.6s-.1-1-.2-.8c-.2.2-.4.5-.8.5s-.7.3-1 .5-.4-.1-.8-.4-.3-.4-.6.2-.3-.4-.5-.5c-.1-.2 0 .5-.4.3s-.6-.5-.6-.5c.5 12.6 10.2 16.7 14.7 18.1 3.2.9 7.1.7 9.6-1.7.3.3-.3 1.4.1 1.1.3-.3.7-1.7 1-1.4.3.2-.3 2.4-.3 2.4.8-1.1.9-3.4.9-3.8s.3-.2.6.2.4.3.4.3c.6-.9-.7-4.8-.7-4.8zm-53.2-28c.3-1.9.6-3.3 1.8-3 1.3.3 1.1 3 .4 4.9-1.1 2.9-4.1 6.2-4.1 6.2s1.6-6.2 1.9-8.1zm-162.1-11.6s-2 5.4-6.3 11.5c-4.3 6-8.8 9.4-9 5.1s3-10.8 4.7-12.9 8.1-11 12.5-11.4c0 0-1.5 4.9-1.9 7.7zm75.6 13.5c2.8-4.5 6.1-9.6 6.1-9.6s2.2.1 3.3-.3 3-1.5 2.9-.5c-.1 1.1-6.2 11.3-8.7 14.5-2.5 3.1-6.3 6.1-6.3 6.1s-.1-5.6 2.7-10.2zm116.5-6.2s-3.1-5.2-1.9-7c1.1-1.9 3.5-1.4 4.4-.1.8 1.4 1 3.2-2.5 7.1z"/><path d="m198.7 240.9c-.6 0-.6 0-.6 0s-.2.8 0 1.5-.4 1.7-.4 2.4.2 1.2.2 1.2 0-.7.4-1.4.6-.8.5-2c-.1-1.3.5-1.7-.1-1.7z"/><path d="m200.8 234.3c0-.2-.1-.3-.1-.4s0-.2 0-.3c0-.2 0-.3 0-.5 0-.1 0-.1 0-.2s-.1-.1-.1 0v.1s0 0-.1.1-.1.1-.2.2-.1.1-.1.2v.6s0 .1.1.1c0 .1 0 .1.1.2v.2.1c0 .1 0 .2.1.2h.1c.1 0 .1 0 .1-.1.1-.1.1-.2.1-.3 0 0 0 0 0-.2z"/><path d="m199.7 232.9c-.2 0-.3.1-.3.3v.3c0 .1 0 .3.1.4 0 0 .1.1.2.1s.1-.1.1-.2 0-.1 0-.2c0 0 .1-.1.1-.1h.1s.1 0 .1-.1c0 0 0-.1.1-.1 0-.1 0-.3-.1-.4-.2-.1-.3 0-.4 0z"/><path d="m200.4 238.8c-.1.2-.2.3-.2.5v.1.1.1.1.1.1.1.1c.1 0 .1 0 .2-.1 0-.1.1-.1.1-.2v-.1s0 0 0-.1c0 0 .1-.1.1-.1 0-.1.1-.1.1-.2s0-.1 0-.2v-.1-.1c-.1-.1-.3-.2-.3-.1z"/><path d="m119.9 214.1c-3.5 1.5-5.7 2.2-5.1-3.8 0 0 3.4-32.6 16.4-56.9 2-3.7 1.9-7.9 1.7-11.1s-4.3-5.6-5.4-6c-.8-.3-3.3-.7-4.7-.9-1.2-.1-2.9 0-3.2-.2s-1-.3-1.2.2c-.3.4-.8.9-1.2 1s-1.2.3-1.5.9c-.6 1.1-1.4 3.6-7.7 20.9-6.3 17.4-11 35.5-10.4 47 .6 11.4 7.6 17.7 15.3 19.8 7.6 2 18.1-8.4 24-13.8s9.8-9 9.8-9-9.1 3.6-16.2 7c0 0-7.1 3.4-10.6 4.9z"/><path d="m182.6 229.5c.1-.6.3-.8.3-1.5-.1-.6 0-1.5-.3-1.5 0 0-.3.2-.3.6 0 .5.1.6.1 1 .1.5.1 2.6.2 1.4z"/><path d="m396.2 192.3c4.5 18.9 17.9 27.7 27.7 31.3 11.5 4.2 27.6-1 30.1-2.4 2.6-1.5 3.2-2.1.9-2.1-2.4 0-15.3 2.4-20.1 1.9s-7.4-.6-13.1-4.8-11.4-10.4-16.8-22.8c-.7-1.6-1.6-4.9-2.1-7.6l.8-.8c1.2-1.1 2.1-2.1 2.8-2.7 3.5-3.4 10.5-8.2 15.6-13 5.1-4.9 10.4-10.1 11.8-12.1 1.5-2 4.4-6.5 5.2-7.3s.5-1.5.4-2.4c-.1-.8.1-1.5-.4-2s.5-1.4-.2-3.2-3.3-2-4.9-2-6.5-1.1-7.9-1.3c-1.3-.2-3.4-.5-4.1-.6s-.7-.6-.7-.6c-.5.6-3 .1-4.5.1s-3.5-.3-4.4 1.1c-.9 1.3-3.3 3.3-5.8 5.9s-3.6 5.9-3.6 5.9c-2.1 3.7-9.3 12.4-8.2 30.4 0 .4.1.8.1 1.2-11.3 11.8-24.1 24.8-27.6 28.1-5.8 5.4-6.9 7.2-8.3 5.6s4.6-23.5 7-31.2 5.2-19.3 8.5-33c.5-2.3 1.3-5 2.1-8 5.4-1.3 12-3 18-4.4 13.4-3.3 43.2-12.2 51.1-14.7 0 0 10-3.1 13.1-4.5s6.5-2.5 7.7-3c0 0 .7-.2 1.1-.5.3-.2 0-.5.3-.6.2-.1.9-.4 1.1-.6.2-.3-.5.1-.8.2s-.7-.1-.8-.4c-.1-.2-.1-.4-.4-.2-.3.1-2.3.1-2.9 0 0 0-4.4.6-12.3 2 0 0-62.5 13.2-67.7 14.3 0 0-1.6.4-4.2.9 3.8-12.7 7.9-25.3 7.9-25.3.8-1.4 2-4.9 2.2-5.7s.4-1.6 0-2c-.4-.5-.4-1.2-.7-1.4s-1.4-.5-2.3-.5-2-.4-2.7-.2-1.6.2-2.6.5c-1 .2-2.1.1-2.7.1-.5 0-2-.5-2.5 0s-.3.9-1 1.1c-.7.1-.7.5-.7.5-.3 1.7-.5 2.7-.5 2.7s.3 2.8-1.2 7.1-2.6 8.4-5.2 19.3c-.5 1.9-1.2 4.3-2.2 7.1-4.5 1-9 2-12.3 2.7-2.4.5-6.1 1.2-10.2 1.9 1.6-6.6 2.9-13.1 3.4-16 .8-5.4 0-10.6 0-10.6-.8-4.6-1.2-8.9-2.9-11.1s-3.6-3.4-5.2-3.5-2.7 0-3.7 0-.4 1.4-.4 1.4c-1.6.2-2.5.4-2.1 4.1.4 3.8-2.1 20.9-5.4 35.5-.2 1-.4 1.9-.6 2.8-7.3 1-13.6 1.8-15.8 1.9-5.1.1-5.7-.1-6.9-.5 0 0-2-.7-2.1-.1s-.3 1.4-.1 1.5.4.9.2 1.1c-.2.1-.7.4-.3 1s1.8 1.3 3 1.8c1.1.5 2.5 1.1 3.3 1.7 0 0 1.4 1.2 5.4.9 0 0 5.6 0 11 .2-1.6 5.9-2.5 8.5-2.5 8.5s-1.8 4.1-8.9 19-13.1 21.3-15.7 20.8c-1.7-.3-2.1-3.3-2.2-5.3 0-.4.1-.8 0-1.3-.1-2.2-.1-4.3.1-6.4 6.4-6 13.9-14.4 16.9-18 4.1-5.1-.2-7.2-2.2-7.1-2.8.1-5.7.7-11.7 7.4-4 4.5-6.4 12-7.6 18.1-2.4 1.7-4.5 3.1-4.5 3.1-.6.3-2.3 1.4-4 2.6.6-3.1 1.5-5.4 2-7.8 1-5.2 1-5.5 1-5.5.2-.9.3-1.5.3-1.5.9-5.8-.9-8.4-2.1-8.6s-1.3-.9-2.8-1.8c-1.5-.8-1.8-.4-2.7.1s-.9.1-1.2-.1-.3 0-2.5 2.3c-2.1 2.4-5.1 5.8-7.3 8.8s-7.4 6.7-9.6 3c-2.2-3.8-.9-10.2.1-11.6s1.1-1.9.8-2.1c-.2-.2-1.1-.6-2.1-.1-1.1.5-1.2.8-1.8 1.8-.6.9-1.2 2.2-4.4 4.8-3.2 2.7-13.7 16.1-14.5 17.2-.9 1-.9.8-1.2.7-.2-.1.5-4.9.7-7.3.3-2.4 1.7-8.4 3.2-11.3 1.5-3 3.1-6.3 3.1-6.3.5-1.1 1.2-4.1 1.3-4.5s.2-1.5 0-1.7-2-.2-3.3-.5c-1.3-.2-2.8-.4-3.6-.4s-3.1-.7-3.1-.7-1.1 1.9-2.4 4.8c-1.3.2-3.3.6-4.6 1.2-2.3.9-6.7 3.5-9.8 11s-1.1 10-.5 10.3c.7.3 1.8 1.9 3.6.8 1.5-.8 3.9-2.3 5.5-3.5-.8 5.5-1.2 10.8-1 12.7.2 2.8-1.1 3.3 2 5.9s2.9 2.4 4 2 1.7.2 2.5.6c.7.4 2.4 1.5 3 .5.6-1.1 1.4-3 3.6-5.8 2.1-2.8 10.9-17.5 15.3-22.5 0 0-.7 8.2 6.3 9.1s8.9-5.3 15.7-7.5c0 0 .4 3.3 0 6.8 0 0-.6 6-1.3 12.8-2.1 1.7-4.5 3.7-7 5.8-13.8 11.8-24 29.7-15.5 39.4 10.1 11.5 22.5-12.9 26.8-32.3 1.3-5.9 1.7-9.6 2.4-12.9 3.9-3.5 6.3-5.6 7.7-6.8.4-.3.9-.6 1.4-1-.1.7-.1 1.4-.2 2s-1.2 6.5 3.6 10.2 9.4 3.1 17-8.1 8.6-12.9 8.6-12.9-.1 5-1 11.5.7 16.3 9.5 21.5 10.8-1.7 12.7-5.6 11.7-20.1 14.1-25.4 6.5-10.4 6.5-10.4-.9 5.7-2 11.1-1.3 13.1-1.9 21.6 1.3 11.2 1.3 11.2c3.3 5 18.8-9.3 25.9-15.3 3.4-2.8 8-7 12.5-11.2zm-96.9-18.3c4.6-8.1 9-9.3 9.5-7.3.6 2.4-8.6 12.1-11.4 15.3-.5.6-1.3 1.3-2.2 2.1.7-3 1.9-6.3 4.1-10.1zm-74.1 2.7c-.2.8-.4 1.7-.6 2.6-3 3.3-5.5 5.2-6.8 6.1-1.5 1.1-1.4-.8-.8-3.2.7-2.7 2-7 5.9-10.4 2.3-2 3.9-2.7 5-3-1 2.4-2 5.2-2.7 7.9zm46.5 39.7c-1.1 7.6-9.1 23.9-14.5 20.9s-1.6-19.7 14-30.8c.7-.5 1.3-.9 1.9-1.4-.5 4.5-1 8.7-1.4 11.3zm132.6-51.1c2.3-7.4 9.2-16.2 9.2-16.2 1.1-1.7 2.4-2.6 2.8-2.1.4.4 2.9.9 3.8 1.7s1.2.9-.7 4.3c-1.9 3.3-8.2 11.8-8.2 11.8-1.8 2.1-4.9 5.4-8.7 9.4.3-3.1.9-5.9 1.8-8.9zm-60.3 16.9c-9 14.8-14.1 20.5-14.1 20.5s.2-6 .2-9.2.1-4.4 1.3-8c1.2-3.7 2.4-7.9 3.3-13s1.9-9 4.3-16.3c.3-1.1.7-2.4 1.2-3.9 4.3-.5 8.3-1.3 9.9-1.7 2-.5 7.1-1.8 10.9-2.8-5 11.7-11.6 25.4-17 34.4z"/><path d="m200.7 210.2s.1-.1.1-.1c0-.1-.1-.1-.1-.1s0-.1 0-.2 0-.1 0-.1-.1-.1-.1-.1c-.1 0-.1.1-.1.1 0 .1-.1.1-.1.1-.1.2-.2.5 0 .7.1.1.2 0 .3 0 0-.2 0-.2 0-.3z"/><path d="m210.5 180c.5-.5.3-.7.3-.7s-.5-.2-.7-.2c-.2.1-.1 0 0-.2s0-.3-.2-.3 0-.2.1-.4c0-.2-.2-.4-.4-.5-.2-.2-.5-.1-.5-.3s0-.2 0-.2h-.6c.3-.2.1-.4-.4-.3s-.6.2-1.6.4c-.3 0-2.4.4-5.1.8 0-.3.1-.5.1-.6.1-.5 0-.4.2-.8.1-.4-.1-.7.2-1s.2-1.1-.2-1.5l-.5-.8s2.4-3 4.9-5.7 9.4-10.7 12.8-19.9 1.7-10-1.4-11.7-7.3-.8-11-.2c0 0-5.3.9-6.6.9s-1.9.5-1.8 1.2c.2.7-.8 1.5-1.1 2.4-.4.9-.7 2-1.1 2.8s-1.2 2.7-.9 2.6c.2-.1.8-.5.9-.2s.2.9-.1 1.7c0 0-1.1 3-2.2 5.9-1.2 2.8-5.6 13.3-7.1 16.1s-3.2 6.3-4.3 8.3-1 2.9-2.5 3.2-2.5.4-3.2.8c-.9.4-.1 1.1-1.1 1.4.1.1.2.2.3.2-.3.4-.2.3 0 .7-.1.1-.2.3-.4.3.1 0 .2.1.4.1-.1.1-.1.3-.3.4h.6c-.2.4-.2.7.3.8 0 0 .8.5 1.3.8 0 0-6.1 10.4-7 12.2-.8 1.8-1.3 1.8-1.1-1.2s.1-20.4 1.7-24.5c1.5-4.1 2.3-6.7.9-8.6-.4-.6-.7-1.2-1-1.8-.1-.3-.3-.4-.5-.6s-.4-.6-.7-.7-.9 0-1.3 0c-.1 0-.2 0-.3 0-.5 0-.9 0-1.4 0-.6-.1-1-.2-1.6 0s-1.1.4-1.7.5c-.6.2-1.7.5-2.3.1-.1-.1-.2-.3-.4-.3-.3-.1-.6.1-.9.3-1.3.7-.9.2-2.3.1s-2.4.8-8.3 6.1-11.7 17.5-12.8 21.4-3.1 5.9-1.2 8.4 5 .2 8-2.7c3.1-2.9 9.3-7.6 9.3-7.6-.1 9.9 1.8 24.8 2.4 29 .6 4.1 8.4 6.9 12.4 6.4s6.5-9.6 9.1-14.7c2.5-4.9 7.6-14.4 8.1-15.3-.2 1-.3 2-.5 3.1 0 0-.7 10.1-1.4 21.2 0 0-.1 2.6.4 3.3s.4 2.6.3 3.7-.2 4.5-.1 6.2-.9 2.4-1.1 1.3c-.1-.6-.3-.9-.2-1.3-.3 5.2-.5 9.8-.5 12.5 0 5 2 5.9 2.6 6.6.4.4.6-.5 1.5.6 0 0 .9.7 2.4.8s1.7 1.1 2.1.8.3-1 1-1.2c.7-.1 1.4 0 2 .2s1.3 0 1.6.3.4.3.4.3.4-.5.6-1.7.5-2.2.6-4.6c.1-2.3.2-6.3.3-12.1 0-.1 0-.2 0-.3 0-.4.1-1.2.7-1.2.8-.1.5 1.1.2 2.4-.2 1.3-.6 3.2-.2 3.8.3.7.7 0 .8-1.8s.3-2.4.2-3.4-.7-2.6-.4-3.5c.4-.9.1-1.3.9-.9s1.3.5 1.3.5.1-1.1-.7-1.5-.6-1-.6-1-1.5 1.3-1.5 0 .5-1.5.5-3-.8-1.3-.7-2.1.3-.8.7-.8c0 0 0-1.1-.4-1.4s-1.1-.2-1.1-1.6 0-2.8 0-4.2c0 0 .2-1 1.2-1.9s.3-1.1-.4-2 .3-1.8.5-3.4c.1-1.7.1-1.7.1-1.7s.6-.5 1.1-.1c.4.5-.2 1.2-.1 1.9s.1 1.7.3 1.7.3.6.6.8c.2.2.8-.1.5-1.2s.5-1.8.1-1.7-.7 0-.1-.7.1-.8.2-1.8 0-1.1 0-1.1-.5 1.9-.9.2c-.3-1-.1-1.3.1-1.9.1 0 .1 0 .2.1s.1.1.2.1.4-.1.5-.2.1-.1.1-.2.1-.1.1-.2c.1-.2 0-.4-.2-.5-.2 0-.3.3-.4.3-.2 0-.1-.1-.2-.1.1-.3.1-.7.2-1.3.1-2.4 1.1-3.6 1.2-5.6s.5-4.5.5-5.1c0-.4 0-1.6 0-2.2.6-.1 1.1-.2 1.5-.3 4.2-1.2 7.3-3.7 7.3-3.7s.3-.2-.3 0c0 0-1.5.5-.6-.3s1.1-1 1.1-1-.8.7-.3.3zm-.4-32.4c3.6-6.3 6.7-8.9 7.5-8.5.8.5.8 5.2-3.4 13.4-4.3 8.2-12 15.2-12 15.2.9-3.2 4.3-13.8 7.9-20.1zm-53.5 21.2c-.7 1.7-2.8 12.1-2.8 12.1s-10.6 11.9-14.7 14.8 4.6-12.8 7.9-17.6c3.4-4.8 7.7-8.4 8.8-9.5s1.5-1.5.8.2zm40.8 57.5c0 .4.4 1.4.3 1.6s-.2.2-.2.2-.2.1-.2.6-.7.3-.6-.2-.2-1.7-.3-2c-.1-.4.3-.7.3-.7.7-.2.7 0 .7.5zm2.7-27.9c-.2.7-.3 1.4-.8 1.6s-1.1.8-1.3-.5c1.1-8.6 1.6-12.7 1.6-12.7s.1-.4.2-1c0 .8 0 2.8.1 3.5.1.9-.6 2.2-.4 3 .2.7.5 1 .2 1.5-.2.6-.8 1.6-.5 2s.9.7.6.7-.9-.1-.9.5.6 1.1.6 1.1.8-.3.6.3z"/><path d="m200.6 219.9-.7-.5s-.6 1.6-.1 2.4c.5.7.8-1.9.8-1.9z"/><path d="m199.5 215c.2-.1.1-.4.1-.5s0-.3 0-.4.1-.2.1-.3c.1-.2.3-.4.3-.6 0-.1 0-.2 0-.3-.4-.4-.8.5-.9.8v.8c.1.2.1.6.4.5z"/></g></svg>