<?xml version="1.0" encoding="utf-8"?>
<!-- Generator: Adobe Illustrator 19.2.1, SVG Export Plug-In . SVG Version: 6.00 Build 0)  -->
<svg version="1.1" id="layer" xmlns="http://www.w3.org/2000/svg" xmlns:xlink="http://www.w3.org/1999/xlink" x="0px" y="0px"
	 viewBox="0 0 652 652" style="enable-background:new 0 0 652 652;" xml:space="preserve">
<style type="text/css">
	.st0{fill:#91C21D;}
	.st1{fill:#0063A6;}
</style>
<g>
	<path class="st0" d="M297.4,327.1c-12.5,0-22.7-9.3-22.7-21l0-3.8h48.4c16.7,0,30.4-12.7,30.4-28.2v-17.9
		c0-15.6-13.6-28.2-30.4-28.2h-42.2c-2.4,0-4.7,0-7.1,0.5c-13.7,3-23.3,14.6-23.3,27.7v10.4c0,2.4,1.7,4.3,3.9,4.3h16.4
		c2.1,0,3.9-1.9,3.9-4.3V264v-4.1c0-5.4,4.8-9.8,10.8-9.8h33.1c5.9,0,10.8,4.4,10.8,9.8v10.6c0,5.4-4.8,9.8-10.8,9.8h-81.9v22h13.8
		v3.8c0,23.8,21.1,43.1,47,43.1h69.9v-22.1H297.4z"/>
	<path class="st1" d="M189.9,250.1c12.5,0,22.7,9.5,22.7,21.1v74.1c0,2.1,1.9,3.9,4.3,3.9h15.5c2.4,0,4.3-1.7,4.3-3.9v-74.1
		c0-23.8-21-43.2-46.8-43.2H140c-2.1,0-3.9,1.9-3.9,4.3v112.6c0,2.4,1.7,4.3,3.9,4.3h16.4c2.1,0,3.9-1.9,3.9-4.3v-94.8L189.9,250.1z
		"/>
	<path class="st1" d="M54.4,250.1H118c2.3,0,4.2-1.7,4.2-3.8v-14.5c0-2.1-1.8-3.8-4.2-3.8H53.9c-17.8,0-32.4,13.4-32.4,29.8v61.7
		c0,16.4,14.5,29.8,32.4,29.8H118c2.3,0,4.2-1.7,4.2-3.8v-14.5c0-2.1-1.9-3.8-4.2-3.8H54.4c-4.7,0-8.6-3.7-8.6-8.1v-16.9h38
		c2.3,0,4.2-1.7,4.2-3.8v-14.2c0-2.1-1.9-3.8-4.2-3.8h-38v-22.2C45.8,253.8,49.7,250.1,54.4,250.1"/>
	<path class="st1" d="M621.6,307.4c0-1.1,0-2.2-0.1-3.4c-1.2-13.5-15.1-23.7-29.7-23.7h-36.3h-0.9c-5.8,0-10.5-5.2-10.5-11.5l0-8.2
		c0-5.8,5.1-10.5,11.5-10.5h14.3l0.1,0h36.2c1.9,0,3.5-1.1,4.1-2.7c0.2-0.4,0.2-0.8,0.2-1.2v-14.4c0-2.1-1.9-3.9-4.3-3.9l-56.5,0
		c-16.4,0-29.9,12.3-29.9,27.5v17.2c0,16.4,12.3,29.7,27.5,29.7h39.6c5.8,0,10.5,5.2,10.5,11.5v2.7c0,5.8-5.1,10.5-11.4,10.5h-61.8
		c-1.9,0-3.5,1.1-4.1,2.7c-0.2,0.4-0.2,0.8-0.2,1.2v14.4c0,2.1,1.9,3.9,4.3,3.9h50.6l17.2,0c16.4,0,29.6-12.3,29.6-27.5V307.4z"/>
	<path class="st1" d="M423.9,228h-52.6c-2.1,0-3.9,1.9-3.9,4.3v71.3c0,2.4,1.7,4.3,3.9,4.3h16.4c2.1,0,3.9-1.9,3.9-4.3l0-53.5
		l29.6,0c12.5,0,22.7,9.5,22.7,21.1v38.9c0,11.6-10.2,17-22.7,17l-53.8,0.1v22.1l53.8,0c25.8,0,46.8-15.2,46.8-39.1v-39.2
		C468,248.1,448.8,228,423.9,228"/>
	<path class="st1" d="M506,304.3l0-40.5c0-2.4-1.7-4.3-3.9-4.3h-16.3c-2.1,0-3.9,1.9-3.9,4.3v40.5l0,40.5c0,2.4,1.7,4.3,3.9,4.3
		h16.3c2.1,0,3.9-1.9,3.9-4.3V304.3z"/>
	<path class="st1" d="M506,237.2l0-4.9c0-2.4-1.7-4.3-3.9-4.3h-16.3c-2.1,0-3.9,1.9-3.9,4.3v4.9l0,8.6c0,2.4,1.7,4.3,3.9,4.3h16.3
		c2.1,0,3.9-1.9,3.9-4.3V237.2z"/>
	<path class="st1" d="M21.6,414.5v-29.8c0-0.6,0.3-1.1,1-1.4c0.6-0.3,1.4-0.5,2.3-0.5c0.9,0,1.7,0.2,2.3,0.5
		c0.6,0.3,0.9,0.8,0.9,1.4v26.5h12.2c0.6,0,1.1,0.3,1.4,0.8c0.3,0.5,0.5,1.1,0.5,1.8c0,0.7-0.2,1.3-0.5,1.8
		c-0.3,0.5-0.8,0.8-1.4,0.8H24.4c-0.8,0-1.4-0.2-2-0.5C21.9,415.5,21.6,415.1,21.6,414.5"/>
	<path class="st1" d="M57.6,414.5v-29.8c0-0.6,0.3-1,0.8-1.4c0.6-0.3,1.2-0.5,2-0.5h17.8c0.7,0,1.2,0.3,1.5,0.8
		c0.3,0.5,0.5,1.1,0.5,1.8c0,0.7-0.2,1.4-0.5,1.9c-0.4,0.5-0.9,0.8-1.5,0.8H64.1v9.2h7.6c0.6,0,1.1,0.2,1.5,0.7
		c0.4,0.5,0.5,1,0.5,1.7c0,0.6-0.2,1.1-0.5,1.6c-0.4,0.5-0.9,0.7-1.5,0.7h-7.6v9.2h14.2c0.6,0,1.1,0.3,1.5,0.8
		c0.4,0.5,0.5,1.2,0.5,1.9c0,0.7-0.2,1.3-0.5,1.8c-0.3,0.5-0.9,0.8-1.5,0.8H60.4c-0.8,0-1.4-0.2-2-0.5
		C57.9,415.5,57.6,415.1,57.6,414.5"/>
	<path class="st1" d="M87.2,414.5v-29.8c0-0.6,0.3-1.1,1-1.4c0.6-0.3,1.4-0.5,2.3-0.5c0.9,0,1.7,0.2,2.3,0.5
		c0.6,0.3,0.9,0.8,0.9,1.4v26.5h12.2c0.6,0,1.1,0.3,1.4,0.8c0.3,0.5,0.5,1.1,0.5,1.8c0,0.7-0.2,1.3-0.5,1.8
		c-0.3,0.5-0.8,0.8-1.4,0.8H90.1c-0.8,0-1.4-0.2-2-0.5C87.5,415.5,87.2,415.1,87.2,414.5"/>
	<path class="st1" d="M114.5,414.5v-29.8c0-0.6,0.3-1,0.8-1.4c0.6-0.3,1.2-0.5,2-0.5h17.8c0.7,0,1.2,0.3,1.5,0.8
		c0.3,0.5,0.5,1.1,0.5,1.8c0,0.7-0.2,1.4-0.5,1.9c-0.4,0.5-0.9,0.8-1.5,0.8H121v9.2h7.6c0.6,0,1.1,0.2,1.5,0.7
		c0.4,0.5,0.5,1,0.5,1.7c0,0.6-0.2,1.1-0.5,1.6c-0.4,0.5-0.9,0.7-1.5,0.7H121v9.2h14.2c0.6,0,1.1,0.3,1.5,0.8
		c0.4,0.5,0.5,1.2,0.5,1.9c0,0.7-0.2,1.3-0.5,1.8c-0.3,0.5-0.9,0.8-1.5,0.8h-17.8c-0.8,0-1.4-0.2-2-0.5
		C114.8,415.5,114.5,415.1,114.5,414.5"/>
	<path class="st1" d="M143.4,406.1v-12.8c0-3.6,1.1-6.3,3.2-8c2.1-1.7,4.9-2.6,8.4-2.6c3.5,0,6.4,0.8,8.6,2.4
		c2.2,1.6,3.3,3.7,3.3,6.3c0,1.1-0.3,1.9-0.8,2.3c-0.5,0.4-1.3,0.6-2.5,0.6c-2.1,0-3.2-0.6-3.2-1.9c0-0.4-0.1-0.7-0.1-1
		c0-0.3-0.2-0.7-0.4-1.1c-0.2-0.5-0.5-0.9-0.8-1.2c-0.3-0.3-0.8-0.6-1.5-0.8c-0.7-0.2-1.5-0.3-2.4-0.3c-3.5,0-5.3,1.8-5.3,5.3v12.8
		c0,3.5,1.8,5.3,5.4,5.3c1.1,0,2-0.2,2.7-0.5c0.7-0.3,1.2-0.7,1.6-1.3c0.3-0.6,0.5-1.1,0.7-1.5c0.1-0.4,0.2-1,0.2-1.6
		c0.1-1.3,1.2-1.9,3.2-1.9c1.2,0,2,0.2,2.5,0.6c0.5,0.4,0.8,1.2,0.8,2.3c0,2.8-1.1,5-3.3,6.6c-2.2,1.7-5.1,2.5-8.6,2.5
		c-3.4,0-6.2-0.8-8.3-2.5C144.5,412.4,143.4,409.7,143.4,406.1"/>
	<path class="st1" d="M172,385.4c0-0.7,0.2-1.3,0.5-1.8c0.3-0.5,0.9-0.8,1.5-0.8h21.2c0.7,0,1.2,0.3,1.5,0.8
		c0.3,0.5,0.5,1.1,0.5,1.8c0,0.7-0.2,1.3-0.5,1.9c-0.4,0.5-0.9,0.8-1.5,0.8h-7.3v26.4c0,0.6-0.3,1-1,1.4c-0.7,0.3-1.4,0.5-2.3,0.5
		c-0.9,0-1.7-0.2-2.3-0.5c-0.6-0.3-0.9-0.8-0.9-1.4V388H174c-0.6,0-1.1-0.3-1.5-0.8C172.2,386.8,172,386.1,172,385.4"/>
	<path class="st1" d="M203.9,414.5v-29.8c0-0.5,0.2-0.9,0.6-1.3c0.4-0.4,0.9-0.5,1.5-0.5h9.9c7.9,0,11.9,3.2,11.9,9.6
		c0,2.5-0.6,4.5-1.8,6.1c-1.2,1.5-2.8,2.6-4.8,3.1l6.6,11.2c0.2,0.2,0.3,0.4,0.3,0.7c0,0.8-0.4,1.5-1.3,2.1c-0.9,0.7-1.8,1-2.8,1
		c-1,0-1.7-0.5-2.2-1.4l-7.1-12.7h-4.2v12c0,0.6-0.3,1-1,1.4c-0.6,0.3-1.4,0.5-2.3,0.5c-0.9,0-1.6-0.2-2.3-0.5
		C204.2,415.5,203.9,415.1,203.9,414.5 M210.4,397.8h5.5c3.6,0,5.4-1.6,5.4-4.9c0-3.3-1.8-4.9-5.4-4.9h-5.5V397.8z"/>
	<path class="st1" d="M235.5,414.5v-29.8c0-0.6,0.3-1.1,1-1.4c0.6-0.3,1.4-0.5,2.3-0.5c0.9,0,1.7,0.2,2.3,0.5c0.6,0.3,1,0.8,1,1.4
		v29.8c0,0.6-0.3,1-1,1.4c-0.6,0.3-1.4,0.5-2.3,0.5c-0.9,0-1.7-0.2-2.3-0.5C235.9,415.5,235.5,415.1,235.5,414.5"/>
	<path class="st1" d="M250.8,406.1v-12.8c0-3.6,1.1-6.3,3.2-8c2.1-1.7,4.9-2.6,8.4-2.6c3.5,0,6.4,0.8,8.6,2.4
		c2.2,1.6,3.3,3.7,3.3,6.3c0,1.1-0.3,1.9-0.8,2.3c-0.5,0.4-1.3,0.6-2.5,0.6c-2.1,0-3.2-0.6-3.2-1.9c0-0.4-0.1-0.7-0.1-1
		c0-0.3-0.2-0.7-0.4-1.1c-0.2-0.5-0.5-0.9-0.8-1.2c-0.3-0.3-0.8-0.6-1.5-0.8c-0.7-0.2-1.5-0.3-2.4-0.3c-3.5,0-5.3,1.8-5.3,5.3v12.8
		c0,3.5,1.8,5.3,5.4,5.3c1.1,0,2-0.2,2.7-0.5c0.7-0.3,1.2-0.7,1.6-1.3c0.3-0.6,0.5-1.1,0.7-1.5s0.2-1,0.2-1.6
		c0.1-1.3,1.2-1.9,3.2-1.9c1.2,0,2,0.2,2.5,0.6c0.5,0.4,0.8,1.2,0.8,2.3c0,2.8-1.1,5-3.3,6.6c-2.2,1.7-5.1,2.5-8.6,2.5
		c-3.4,0-6.2-0.8-8.3-2.5C251.9,412.4,250.8,409.7,250.8,406.1"/>
	<path class="st1" d="M282,414.5v-29.8c0-0.6,0.3-1.1,1-1.4c0.6-0.3,1.4-0.5,2.3-0.5c0.9,0,1.7,0.2,2.3,0.5c0.6,0.3,0.9,0.8,0.9,1.4
		v29.8c0,0.6-0.3,1-1,1.4c-0.7,0.3-1.4,0.5-2.3,0.5c-0.9,0-1.7-0.2-2.3-0.5C282.3,415.5,282,415.1,282,414.5"/>
	<path class="st1" d="M295.2,385.4c0-0.7,0.2-1.3,0.5-1.8c0.3-0.5,0.9-0.8,1.5-0.8h21.2c0.7,0,1.2,0.3,1.5,0.8
		c0.3,0.5,0.5,1.1,0.5,1.8c0,0.7-0.2,1.3-0.5,1.9c-0.4,0.5-0.9,0.8-1.5,0.8h-7.3v26.4c0,0.6-0.3,1-1,1.4c-0.7,0.3-1.4,0.5-2.3,0.5
		c-0.9,0-1.7-0.2-2.3-0.5c-0.6-0.3-0.9-0.8-0.9-1.4V388h-7.4c-0.6,0-1.1-0.3-1.5-0.8C295.4,386.8,295.2,386.1,295.2,385.4"/>
	<path class="st1" d="M327.1,414.5v-29.8c0-0.6,0.3-1,0.8-1.4c0.6-0.3,1.2-0.5,2-0.5h17.8c0.7,0,1.2,0.3,1.5,0.8
		c0.3,0.5,0.5,1.1,0.5,1.8c0,0.7-0.2,1.4-0.5,1.9c-0.4,0.5-0.9,0.8-1.5,0.8h-14.2v9.2h7.6c0.6,0,1.1,0.2,1.5,0.7
		c0.4,0.5,0.5,1,0.5,1.7c0,0.6-0.2,1.1-0.5,1.6c-0.4,0.5-0.9,0.7-1.5,0.7h-7.6v9.2h14.2c0.6,0,1.1,0.3,1.5,0.8
		c0.4,0.5,0.5,1.2,0.5,1.9c0,0.7-0.2,1.3-0.5,1.8c-0.3,0.5-0.9,0.8-1.5,0.8H330c-0.8,0-1.4-0.2-2-0.5
		C327.4,415.5,327.1,415.1,327.1,414.5"/>
	<path class="st1" d="M369.9,414.5v-29.8c0-0.6,0.3-1,0.8-1.4c0.6-0.3,1.2-0.5,2-0.5h17.8c0.7,0,1.2,0.3,1.5,0.8
		c0.3,0.5,0.5,1.1,0.5,1.8c0,0.7-0.2,1.4-0.5,1.9c-0.4,0.5-0.9,0.8-1.5,0.8h-14.2v9.2h7.6c0.6,0,1.1,0.2,1.5,0.7
		c0.4,0.5,0.6,1,0.6,1.7c0,0.6-0.2,1.1-0.5,1.6c-0.3,0.5-0.9,0.7-1.5,0.7h-7.6v9.2h14.2c0.6,0,1.1,0.3,1.5,0.8
		c0.4,0.5,0.5,1.2,0.5,1.9c0,0.7-0.2,1.3-0.5,1.8c-0.3,0.5-0.9,0.8-1.5,0.8h-17.8c-0.8,0-1.4-0.2-2-0.5
		C370.1,415.5,369.9,415.1,369.9,414.5"/>
	<path class="st1" d="M399.5,414.5v-29.8c0-0.6,0.3-1.1,1-1.4c0.6-0.3,1.4-0.5,2.3-0.5c1.2,0,2.1,0.2,2.8,0.6
		c0.6,0.4,1.3,1.3,2.1,2.6l9.7,17.1v-18.5c0-0.6,0.3-1.1,0.9-1.4c0.6-0.3,1.4-0.5,2.3-0.5c0.9,0,1.7,0.2,2.3,0.5
		c0.6,0.3,1,0.8,1,1.4v29.8c0,0.6-0.3,1-1,1.4c-0.6,0.3-1.4,0.5-2.3,0.5c-1.8,0-3-0.6-3.7-1.9L406,396v18.5c0,0.6-0.3,1-1,1.4
		c-0.6,0.3-1.4,0.5-2.3,0.5c-0.9,0-1.7-0.2-2.3-0.5C399.8,415.5,399.5,415.1,399.5,414.5"/>
	<path class="st1" d="M446,414.5v-29.8c0-0.5,0.2-0.9,0.6-1.3c0.4-0.4,0.9-0.5,1.5-0.5h9.9c7.9,0,11.9,3.2,11.9,9.6
		c0,2.5-0.6,4.5-1.8,6.1c-1.2,1.5-2.8,2.6-4.8,3.1l6.6,11.2c0.2,0.2,0.3,0.4,0.3,0.7c0,0.8-0.4,1.5-1.3,2.1c-0.9,0.7-1.8,1-2.8,1
		c-1,0-1.7-0.5-2.2-1.4l-7.1-12.7h-4.2v12c0,0.6-0.3,1-1,1.4c-0.6,0.3-1.4,0.5-2.3,0.5c-0.9,0-1.6-0.2-2.3-0.5
		C446.3,415.5,446,415.1,446,414.5 M452.5,397.8h5.5c3.6,0,5.4-1.6,5.4-4.9c0-3.3-1.8-4.9-5.4-4.9h-5.5V397.8z"/>
	<path class="st1" d="M477.6,414.5v-29.8c0-0.6,0.3-1,0.8-1.4c0.6-0.3,1.2-0.5,2-0.5h17.8c0.7,0,1.2,0.3,1.5,0.8
		c0.4,0.5,0.5,1.1,0.5,1.8c0,0.7-0.2,1.4-0.5,1.9c-0.4,0.5-0.9,0.8-1.5,0.8h-14.2v9.2h7.6c0.6,0,1.1,0.2,1.5,0.7
		c0.4,0.5,0.5,1,0.5,1.7c0,0.6-0.2,1.1-0.5,1.6c-0.4,0.5-0.9,0.7-1.5,0.7h-7.6v9.2h14.2c0.6,0,1.1,0.3,1.5,0.8
		c0.4,0.5,0.5,1.2,0.5,1.9c0,0.7-0.2,1.3-0.5,1.8c-0.3,0.5-0.9,0.8-1.5,0.8h-17.8c-0.8,0-1.4-0.2-2-0.5
		C477.9,415.5,477.6,415.1,477.6,414.5"/>
	<path class="st1" d="M505.4,411.1c0-0.7,0.3-1.4,0.9-2.1c0.6-0.7,1.2-1.1,2-1.1c0.4,0,0.9,0.2,1.5,0.6c0.5,0.4,1.1,0.8,1.6,1.3
		c0.5,0.5,1.3,0.9,2.2,1.3c1,0.4,2,0.6,3.2,0.6c1.6,0,2.9-0.3,4-1c1.1-0.7,1.6-1.7,1.6-3c0-0.9-0.3-1.7-0.9-2.4
		c-0.6-0.7-1.3-1.3-2.3-1.8c-1-0.5-2-0.9-3.1-1.4c-1.1-0.4-2.3-0.9-3.4-1.5c-1.2-0.6-2.2-1.2-3.2-1.9c-1-0.7-1.7-1.6-2.3-2.8
		c-0.6-1.2-0.9-2.5-0.9-3.9c0-1.6,0.4-3.1,1.1-4.4c0.7-1.3,1.7-2.2,2.9-2.9c1.2-0.7,2.5-1.2,3.9-1.5c1.4-0.3,2.8-0.5,4.4-0.5
		c0.9,0,1.8,0.1,2.7,0.2c1,0.1,2,0.3,3.1,0.5c1.1,0.3,2,0.6,2.7,1.2c0.7,0.5,1,1.2,1,1.9c0,0.7-0.2,1.4-0.7,2.1
		c-0.5,0.7-1.1,1.1-1.9,1.1c-0.3,0-1.1-0.3-2.4-0.9c-1.3-0.6-2.8-0.9-4.5-0.9c-1.8,0-3.2,0.3-4.2,0.9c-1,0.6-1.5,1.5-1.5,2.6
		c0,0.9,0.4,1.7,1.2,2.3c0.8,0.7,1.8,1.2,3,1.6c1.2,0.4,2.5,0.9,3.9,1.6c1.4,0.6,2.7,1.3,3.8,2c1.2,0.7,2.2,1.8,3,3.2
		c0.8,1.4,1.2,3,1.2,4.9c0,3.1-1.1,5.6-3.3,7.3c-2.2,1.7-5.1,2.6-8.6,2.6c-3.2,0-5.9-0.6-8.2-1.8
		C506.6,413.8,505.4,412.5,505.4,411.1"/>
	<path class="st1" d="M537,414.5v-29.8c0-0.6,0.3-1,0.8-1.4c0.6-0.3,1.2-0.5,2-0.5h17.8c0.7,0,1.2,0.3,1.5,0.8
		c0.3,0.5,0.5,1.1,0.5,1.8c0,0.7-0.2,1.4-0.5,1.9c-0.4,0.5-0.9,0.8-1.5,0.8h-14.2v9.2h7.6c0.6,0,1.1,0.2,1.5,0.7
		c0.4,0.5,0.5,1,0.5,1.7c0,0.6-0.2,1.1-0.5,1.6c-0.3,0.5-0.9,0.7-1.5,0.7h-7.6v9.2h14.2c0.6,0,1.1,0.3,1.5,0.8
		c0.4,0.5,0.5,1.2,0.5,1.9c0,0.7-0.2,1.3-0.5,1.8c-0.3,0.5-0.9,0.8-1.5,0.8h-17.8c-0.8,0-1.4-0.2-2-0.5
		C537.3,415.5,537,415.1,537,414.5"/>
	<path class="st1" d="M597.6,406.1v-21.5c0-0.6,0.3-1.1,1-1.4c0.6-0.3,1.4-0.5,2.3-0.5c0.9,0,1.7,0.2,2.3,0.5
		c0.6,0.3,0.9,0.8,0.9,1.4v21.5c0,3.5,1.8,5.3,5.5,5.3c3.7,0,5.5-1.8,5.5-5.3v-21.5c0-0.6,0.3-1.1,1-1.4c0.6-0.3,1.4-0.5,2.3-0.5
		c0.9,0,1.7,0.2,2.3,0.5c0.6,0.3,0.9,0.8,0.9,1.4v21.5c0,3.6-1.1,6.3-3.3,8c-2.2,1.7-5.1,2.5-8.7,2.5c-3.6,0-6.6-0.8-8.7-2.5
		C598.7,412.4,597.6,409.8,597.6,406.1"/>
	<path class="st1" d="M45.6,383.4c0,0,0.8-1,1.9-0.7c0,0,1.9,0.5,2.6,1.3c0,0,0.5,0.8,0.1,1.6l-3.3,6.9c0,0-0.6,0.8-1.9,0.7
		c0,0-0.8,0-1.5-0.7c0,0-1-1-0.5-2L45.6,383.4z"/>
	<path class="st1" d="M584.2,409.1l1.9,6.1c0.3,0.8,1.1,1.2,2.5,1.2c1.1,0,1.6-0.3,2.6-0.8c1-0.5,1.5-1.1,1.5-1.9
		c0-0.1,0-0.2-0.1-0.5l-9.5-28.4c-0.3-0.7-0.8-1.3-1.6-1.7c-1-0.6-2.5-0.6-3.5-0.6c-1,0-2.5,0-3.5,0.6c-0.7,0.4-1.3,1-1.6,1.7
		l-9.5,28.4c-0.1,0.3-0.1,0.4-0.1,0.5c0,0.8,0.5,1.4,1.5,1.9c1,0.5,1.5,0.8,2.6,0.8c1.4,0,2.2-0.4,2.5-1.2l1.9-6.1H584.2z
		 M573.2,404.4l4.8-15.8l4.8,15.8H573.2z"/>
</g>
</svg>
