<?xml version="1.0" encoding="utf-8"?>
<!-- Generator: Adobe Illustrator 21.0.2, SVG Export Plug-In . SVG Version: 6.00 Build 0)  -->
<svg version="1.1" id="Layer_1" xmlns="http://www.w3.org/2000/svg" xmlns:xlink="http://www.w3.org/1999/xlink" x="0px" y="0px"
	 viewBox="0 0 726 150" style="enable-background:new 0 0 726 150;" xml:space="preserve">
<style type="text/css">
	.st0{fill:#0B1726;}
</style>
<g>
	<path class="st0" d="M53.4,6.8c4.5,0,8.8,0.9,12.9,2.6s7.6,4.1,10.5,7c3,3,5.3,6.5,7,10.5c1.7,4.1,2.6,8.4,2.6,12.9
		c0,4.1-0.7,7.9-2.1,11.6s-3.3,6.9-5.7,9.8c2.7,3,4.8,6.4,6.3,10.2s2.3,7.9,2.3,12.3c0,4.8-0.9,9.2-2.7,13.3
		c-1.8,4.1-4.2,7.7-7.2,10.7s-6.6,5.4-10.8,7.2c-4.2,1.8-8.6,2.7-13.2,2.7H13.6c-3.4,0-6.2-1.1-8.4-3.4c-2.3-2.3-3.4-5-3.4-8.3V18.5
		c0-3.1,1.1-5.9,3.4-8.2s5.1-3.5,8.4-3.5H53.4z M41.8,61.3c0-3.1,1.1-5.8,3.4-8.1c2.3-2.3,5-3.4,8.1-3.4c2.9-0.2,5.3-1.3,7.1-3.2
		c1.9-1.9,2.8-4.2,2.8-6.9s-1-5-2.9-6.9c-1.9-1.9-4.2-2.9-6.9-2.9H25.1v64.7h28.2c3,0,5.6-1.1,7.7-3.2c2.1-2.1,3.2-4.7,3.2-7.7
		c0-2.9-1-5.4-3-7.5s-4.7-3.2-7.9-3.5c-3.1,0-5.8-1.1-8.1-3.4C42.9,67.1,41.8,64.4,41.8,61.3z"/>
	<path class="st0" d="M104.4,33.3c3,0,5.7,1.1,8,3.4c2.3,2.3,3.5,5,3.5,8.3v30.6c0,2.7,0.5,5.2,1.6,7.6c1,2.4,2.4,4.4,4.2,6.2
		c1.7,1.7,3.8,3.1,6.2,4.2c2.4,1,4.9,1.6,7.6,1.6c2.6,0,5-0.5,7.3-1.4s4.4-2.2,6.2-3.8c1.8-1.6,3.2-3.6,4.3-5.9
		c1-2.3,1.6-4.8,1.6-7.5V44.8c0-2.9,1.1-5.5,3.3-7.8s4.9-3.5,8-3.7c3.1,0,5.8,1.1,8.1,3.4c2.3,2.3,3.5,4.8,3.6,7.6v31.3
		c0,5.8-1.1,11.3-3.3,16.4s-5.2,9.6-9,13.4s-8.3,6.8-13.4,9c-5.1,2.2-10.6,3.3-16.5,3.3c-5.6,0.2-10.9-0.7-16-2.9
		c-5.1-2.1-9.6-5.1-13.5-8.9s-7-8.2-9.3-13.2s-3.5-10.4-3.5-15.9v-32c0-3,1.1-5.7,3.2-7.9C98.5,34.6,101.2,33.4,104.4,33.3z"/>
	<path class="st0" d="M253.5,6.8c3,0,5.7,1.1,7.9,3.2c2.3,2.1,3.4,4.9,3.4,8.3v57.2c0,5.7-1.1,11.1-3.4,16.2s-5.3,9.6-9.2,13.4
		c-3.9,3.8-8.4,6.9-13.5,9.1c-5.1,2.3-10.4,3.4-16,3.4s-10.9-1.1-16-3.3c-5.1-2.2-9.6-5.2-13.5-9s-7-8.3-9.3-13.4
		s-3.5-10.6-3.5-16.4c0-5.7,1.1-11.1,3.4-16.2c2.3-5.1,5.3-9.6,9.2-13.4c3.9-3.8,8.4-6.9,13.5-9.1c5.1-2.3,10.5-3.4,16.2-3.4
		c7,0,13.4,1.6,19.3,4.7v-20c0-1.5,0.3-3,1-4.4c0.6-1.4,1.5-2.6,2.5-3.7c1-1,2.3-1.9,3.7-2.4C250.6,7.1,252,6.8,253.5,6.8z
		 M222.7,56.1c-2.7,0-5.2,0.5-7.6,1.6c-2.4,1-4.5,2.5-6.3,4.3s-3.2,3.9-4.3,6.3c-1,2.4-1.6,4.8-1.6,7.4c0,2.7,0.5,5.2,1.6,7.6
		c1,2.4,2.5,4.4,4.3,6.2c1.8,1.7,3.9,3.1,6.3,4.2c2.4,1,4.9,1.6,7.6,1.6c2.6,0,5-0.5,7.3-1.6c2.3-1,4.4-2.5,6.2-4.3s3.2-3.9,4.3-6.2
		c1-2.3,1.6-4.8,1.6-7.5c0-2.8-0.5-5.4-1.6-7.7c-1-2.4-2.5-4.4-4.3-6.2c-1.8-1.7-3.9-3.1-6.2-4.1C227.7,56.6,225.3,56.1,222.7,56.1z
		"/>
	<path class="st0" d="M343.2,6.8c3,0,5.7,1.1,7.9,3.2c2.3,2.1,3.4,4.9,3.4,8.3v57.2c0,5.7-1.1,11.1-3.4,16.2s-5.3,9.6-9.2,13.4
		c-3.9,3.8-8.4,6.9-13.5,9.1c-5.1,2.3-10.4,3.4-16,3.4s-10.9-1.1-16-3.3c-5.1-2.2-9.6-5.2-13.5-9s-7-8.3-9.3-13.4
		s-3.5-10.6-3.5-16.4c0-5.7,1.1-11.1,3.4-16.2s5.3-9.6,9.2-13.4c3.9-3.8,8.4-6.9,13.5-9.1c5.1-2.3,10.5-3.4,16.2-3.4
		c7,0,13.4,1.6,19.3,4.7v-20c0-1.5,0.3-3,1-4.4c0.6-1.4,1.5-2.6,2.5-3.7c1-1,2.3-1.9,3.7-2.4C340.2,7.1,341.6,6.8,343.2,6.8z
		 M312.4,56.1c-2.7,0-5.2,0.5-7.6,1.6c-2.4,1-4.5,2.5-6.3,4.3s-3.2,3.9-4.3,6.3c-1,2.4-1.6,4.8-1.6,7.4c0,2.7,0.5,5.2,1.6,7.6
		c1,2.4,2.5,4.4,4.3,6.2c1.8,1.7,3.9,3.1,6.3,4.2c2.4,1,4.9,1.6,7.6,1.6c2.5,0,5-0.5,7.3-1.6c2.3-1,4.4-2.5,6.2-4.3
		c1.8-1.8,3.2-3.9,4.3-6.2c1-2.3,1.6-4.8,1.6-7.5c0-2.8-0.5-5.4-1.6-7.7c-1-2.4-2.5-4.4-4.3-6.2c-1.8-1.7-3.9-3.1-6.2-4.1
		C317.3,56.6,314.9,56.1,312.4,56.1z"/>
	<path class="st0" d="M358.8,60.4V44.9c0-3.2,1.1-6,3.4-8.3s5-3.4,8.1-3.4c3.4,0,6.2,1.1,8.4,3.4c2.3,2.3,3.4,5,3.4,8.3v15.5
		c0,4.8,1.6,8.7,4.8,11.9c3.2,3.2,7.2,4.8,11.9,4.8c4.8,0,8.8-1.6,12-4.8c3.2-3.2,4.9-7.2,4.9-11.9V44.9c0-3.2,1.1-6,3.4-8.3
		s5-3.4,8.1-3.4c3.4,0,6.2,1.1,8.4,3.4c2.3,2.3,3.4,5,3.4,8.3v15.5v0.2c0,4.5-0.7,8.8-2.2,13c-1.5,4.1-3.5,7.9-6,11.2
		c-2.6,3.4-5.6,6.3-9.1,8.7c-3.5,2.4-7.4,4.2-11.6,5.4v33.9c0,3.2-1.1,6-3.4,8.3s-5,3.4-8.1,3.4c-3.4,0-6.2-1.1-8.4-3.4
		c-2.3-2.3-3.4-5-3.4-8.3V98.7c-4.1-1.3-7.8-3.1-11.2-5.6c-3.4-2.4-6.4-5.3-8.9-8.7c-2.5-3.4-4.4-7.1-5.8-11.1
		C359.5,69.2,358.8,64.9,358.8,60.4z"/>
	<path class="st0" d="M474.7,117.7c-4.3,0-8.3-0.8-12.1-2.4c-3.8-1.6-7-3.8-9.8-6.5s-5-5.9-6.6-9.6s-2.4-7.5-2.4-11.6V44.8
		c-0.1-1.5,0.1-3,0.8-4.4c0.6-1.4,1.5-2.6,2.5-3.7c1-1,2.3-1.9,3.7-2.4c1.4-0.6,2.9-0.9,4.5-0.9c3,0,5.6,1,7.7,3s3.3,4.4,3.6,7.2
		v43.2c0.1,2.3,1,4.2,2.5,5.7c1.6,1.5,3.5,2.3,5.7,2.3c2,0,3.8-0.7,5.4-2.2c1.6-1.4,2.5-3.3,2.6-5.7V65.5c0-2.9,1.2-5.4,3.5-7.4
		s4.9-3,7.8-3c3.1,0,5.8,1.1,8.1,3.3c2.3,2.2,3.4,4.9,3.4,8V87c0,2.6,0.8,4.5,2.5,5.8s3.5,2,5.5,2c2.3,0,4.3-0.8,5.8-2.3
		c1.6-1.5,2.3-3.4,2.3-5.6V44.8c0-3,1.1-5.7,3.4-7.9c2.3-2.3,4.9-3.4,7.9-3.4s5.7,1,8,3.1s3.5,4.5,3.5,7.3v43.7
		c0,4.2-0.8,8.1-2.5,11.8c-1.7,3.7-3.9,6.9-6.8,9.6c-2.8,2.7-6.2,4.8-9.9,6.4c-3.8,1.6-7.7,2.3-11.7,2.3c-7.4,0-13.9-2.3-19.5-6.8
		c-2.8,2.3-5.8,4-9.1,5.1C481.6,117.1,478.2,117.7,474.7,117.7z"/>
	<path class="st0" d="M592.3,33.5c5.6,0,10.9,1.2,16,3.5s9.6,5.4,13.5,9.3s7,8.4,9.3,13.4s3.5,10.4,3.5,15.9c0,3-1.1,5.4-3.4,7.1
		c-2.3,1.7-5.1,2.6-8.4,2.4h-46.3c3.8,6.6,9.1,9.9,15.8,9.9c1.9,0,3.4-0.2,4.7-0.5s2.4-0.8,3.4-1.2c1-0.5,2-0.9,3-1.2
		c1-0.3,2.1-0.5,3.4-0.5c2.4,0.1,4.6,0.8,6.4,2.1c1.8,1.3,3.1,2.9,4,4.8s1.2,4,0.9,6.2s-1.3,4.2-3,6.1c-3.1,2.6-6.6,4.3-10.4,5.3
		c-3.8,1-7.9,1.5-12.2,1.7c-5.6,0.2-10.9-0.8-16-3c-5.1-2.3-9.6-5.3-13.5-9.2c-3.9-3.9-7-8.4-9.2-13.7c-2.3-5.2-3.4-10.6-3.4-16.2
		c0-5.5,1.1-10.7,3.4-15.8c2.3-5.1,5.3-9.6,9.1-13.5s8.3-7,13.4-9.3C581.2,34.6,586.6,33.5,592.3,33.5z M608.2,65.8
		c-2-3.6-4.3-6.1-7-7.6c-2.7-1.4-5.6-2.2-8.9-2.2c-3.4,0-6.4,0.7-9,2.2s-4.9,4-6.9,7.6H608.2z"/>
	<path class="st0" d="M650.3,6.7c1.5-0.1,3,0.1,4.3,0.8c1.4,0.6,2.6,1.5,3.7,2.5c1.1,1,1.9,2.3,2.5,3.7c0.6,1.5,0.9,2.9,0.9,4.4v20
		c4.1-2.1,8.3-3.5,12.6-4.1c4.4-0.6,8.7-0.6,13,0s8.5,1.9,12.5,3.8c4.1,1.9,7.8,4.5,11.3,7.7c4.1,4.2,7.1,8.7,9.1,13.5
		s3,10.3,3,16.4c0,5.8-1.1,11.3-3.4,16.4c-2.3,5.1-5.3,9.6-9.1,13.4s-8.3,6.8-13.4,9c-5.1,2.2-10.5,3.3-16.2,3.3
		c-5.6,0-10.9-1.1-16-3.4s-9.6-5.3-13.5-9.1c-3.9-3.8-7-8.3-9.3-13.4s-3.5-10.5-3.5-16.2V17.3c0-1.4,0.3-2.8,1-4.1s1.6-2.5,2.6-3.5
		s2.2-1.8,3.6-2.3C647.5,6.8,648.9,6.5,650.3,6.7z M661.7,75.6c0,2.7,0.5,5.2,1.6,7.6c1,2.4,2.5,4.4,4.3,6.2
		c1.8,1.7,3.9,3.1,6.2,4.2c2.3,1,4.8,1.6,7.5,1.6c2.6,0,5-0.5,7.4-1.6c2.4-1,4.5-2.4,6.3-4.2c1.8-1.7,3.2-3.8,4.3-6.2
		c1-2.4,1.6-4.9,1.6-7.6s-0.5-5.2-1.6-7.6c-1-2.4-2.5-4.4-4.3-6.2c-1.8-1.7-3.9-3.1-6.3-4.2c-2.4-1-4.8-1.6-7.4-1.6
		c-2.7,0-5.2,0.6-7.5,1.7c-2.3,1.1-4.4,2.6-6.2,4.4c-1.8,1.8-3.2,3.9-4.3,6.3C662.3,70.7,661.7,73.1,661.7,75.6z"/>
</g>
</svg>
