<svg xmlns="http://www.w3.org/2000/svg" width="269.159" height="97.823" viewBox="0 0 269.159 97.823">
  <g id="Groupe_560" data-name="Groupe 560" transform="translate(-56.499 -88.736)">
    <path id="Tracé_396" data-name="Tracé 396" d="M117.549,109.524c0,11.414,28.588,20.7,63.726,20.7S245,120.938,245,109.524s-28.587-20.7-63.724-20.7-63.726,9.287-63.726,20.7" fill="#3a9525"/>
    <path id="Tracé_397" data-name="Tracé 397" d="M117.549,109.524c0,11.414,28.588,20.7,63.726,20.7S245,120.938,245,109.524s-28.587-20.7-63.724-20.7S117.549,98.111,117.549,109.524Z" fill="none" stroke="#3a9525" stroke-width="0.176"/>
    <path id="Tracé_398" data-name="Tracé 398" d="M138.943,115.217a16.416,16.416,0,0,1-2.175.644,11.65,11.65,0,0,1-2.7.32,6.694,6.694,0,0,1-4.88-1.717,7.108,7.108,0,0,1,.015-9.391,6.735,6.735,0,0,1,4.962-1.766,11.494,11.494,0,0,1,2.295.22,10.142,10.142,0,0,1,2.427.875v2.9h-.352q-.231-.174-.673-.493a8.128,8.128,0,0,0-.852-.543,5.56,5.56,0,0,0-1.111-.456,4.709,4.709,0,0,0-1.349-.191,4.384,4.384,0,0,0-1.517.25A3.38,3.38,0,0,0,131,107.9a4.855,4.855,0,0,0-.3,1.773,3.793,3.793,0,0,0,4.247,4.233c.12,0,.253,0,.4-.008s.277-.014.4-.024v-2.438H133.3v-2.328h5.644Z" fill="#fff"/>
    <path id="Tracé_399" data-name="Tracé 399" d="M148.3,109.448h-.262a2.719,2.719,0,0,0-.6-.094c-.278-.02-.511-.032-.694-.032a6.572,6.572,0,0,0-1.115.084,6.272,6.272,0,0,0-1.038.282v6.242h-2.973V106.6h2.973v1.372a6.161,6.161,0,0,1,1.693-1.128,3.7,3.7,0,0,1,1.326-.279c.1,0,.221,0,.352.007s.245.015.343.025Z" fill="#fff"/>
    <path id="Tracé_400" data-name="Tracé 400" d="M156.137,110.074a2.126,2.126,0,0,0-.461-1.42,1.761,1.761,0,0,0-1.36-.477,2.145,2.145,0,0,0-1.408.452,1.933,1.933,0,0,0-.619,1.445Zm2.937,1.756H152.3a2.157,2.157,0,0,0,.826,1.675,3.648,3.648,0,0,0,2.239.581,4.964,4.964,0,0,0,1.816-.341,5.612,5.612,0,0,0,1.389-.734h.329v2.4a10.792,10.792,0,0,1-1.889.589,9.7,9.7,0,0,1-1.964.183,6.372,6.372,0,0,1-4.257-1.263,4.471,4.471,0,0,1-1.48-3.6,4.841,4.841,0,0,1,1.4-3.657,5.3,5.3,0,0,1,3.842-1.35,4.016,4.016,0,0,1,4.522,4.467Z" fill="#fff"/>
    <path id="Tracé_401" data-name="Tracé 401" d="M167.309,110.074a2.132,2.132,0,0,0-.461-1.42,1.761,1.761,0,0,0-1.36-.477,2.148,2.148,0,0,0-1.409.452,1.936,1.936,0,0,0-.618,1.445Zm2.937,1.756H163.47a2.154,2.154,0,0,0,.826,1.675,3.648,3.648,0,0,0,2.239.581,4.96,4.96,0,0,0,1.816-.341,5.631,5.631,0,0,0,1.389-.734h.328v2.4a10.749,10.749,0,0,1-1.89.589,9.65,9.65,0,0,1-1.963.183,6.369,6.369,0,0,1-4.256-1.263,4.467,4.467,0,0,1-1.479-3.6,4.837,4.837,0,0,1,1.4-3.657,5.3,5.3,0,0,1,3.842-1.35,4.017,4.017,0,0,1,4.522,4.467Z" fill="#fff"/>
    <path id="Tracé_402" data-name="Tracé 402" d="M181.6,115.93h-2.973v-4.646a11.208,11.208,0,0,0-.057-1.13,2.453,2.453,0,0,0-.2-.829,1,1,0,0,0-.48-.452,2.228,2.228,0,0,0-.881-.141,2.653,2.653,0,0,0-.815.134,4.312,4.312,0,0,0-.9.425v6.639h-2.972V106.6H175.3v1.005a7.437,7.437,0,0,1,1.514-.958,3.8,3.8,0,0,1,1.611-.333,3.071,3.071,0,0,1,2.333.883,3.7,3.7,0,0,1,.841,2.642Z" fill="#fff"/>
    <path id="Tracé_403" data-name="Tracé 403" d="M190,116.181a7.518,7.518,0,0,1-2.516-.408,5.332,5.332,0,0,1-1.982-1.215,5.429,5.429,0,0,1-1.284-2.014,7.859,7.859,0,0,1-.455-2.788,7.759,7.759,0,0,1,.435-2.671,5.724,5.724,0,0,1,1.264-2.056,5.357,5.357,0,0,1,1.973-1.274,7.181,7.181,0,0,1,2.572-.448,10.036,10.036,0,0,1,1.39.087,9.685,9.685,0,0,1,1.146.227,8.237,8.237,0,0,1,1,.354c.3.13.559.25.782.362v3h-.36c-.153-.131-.347-.287-.578-.469a7.907,7.907,0,0,0-.793-.535,5.606,5.606,0,0,0-.976-.445,3.478,3.478,0,0,0-1.126-.18,3.767,3.767,0,0,0-1.263.212,3.073,3.073,0,0,0-1.109.7,3.446,3.446,0,0,0-.782,1.253,5.262,5.262,0,0,0-.3,1.893,5.054,5.054,0,0,0,.326,1.941,3.373,3.373,0,0,0,.817,1.229,2.944,2.944,0,0,0,1.116.651,4,4,0,0,0,1.215.195,3.758,3.758,0,0,0,1.136-.174,4.369,4.369,0,0,0,1.038-.471,7.169,7.169,0,0,0,.748-.512c.229-.183.418-.339.566-.472h.327v2.964c-.306.139-.6.268-.877.39a7.05,7.05,0,0,1-.877.317,10.622,10.622,0,0,1-1.126.267,8.869,8.869,0,0,1-1.443.091" fill="#fff"/>
    <path id="Tracé_404" data-name="Tracé 404" d="M205.753,115.93h-2.972v-4.646a10.925,10.925,0,0,0-.058-1.13,2.406,2.406,0,0,0-.2-.829,1,1,0,0,0-.479-.452,2.235,2.235,0,0,0-.881-.141,2.654,2.654,0,0,0-.816.134,4.354,4.354,0,0,0-.9.425v6.639h-2.972V102.985h2.972v4.621a7.537,7.537,0,0,1,1.512-.958,3.811,3.811,0,0,1,1.612-.333,3.065,3.065,0,0,1,2.332.883,3.691,3.691,0,0,1,.842,2.642Z" fill="#fff"/>
    <path id="Tracé_405" data-name="Tracé 405" d="M214.624,110.074a2.116,2.116,0,0,0-.46-1.42,1.762,1.762,0,0,0-1.36-.477,2.148,2.148,0,0,0-1.409.452,1.936,1.936,0,0,0-.617,1.445Zm2.937,1.756h-6.775a2.153,2.153,0,0,0,.825,1.675,3.652,3.652,0,0,0,2.24.581,4.964,4.964,0,0,0,1.816-.341,5.668,5.668,0,0,0,1.389-.734h.329v2.4a10.783,10.783,0,0,1-1.891.589,9.674,9.674,0,0,1-1.964.183,6.373,6.373,0,0,1-4.256-1.263,4.467,4.467,0,0,1-1.478-3.6,4.84,4.84,0,0,1,1.4-3.657,5.3,5.3,0,0,1,3.844-1.35,4.014,4.014,0,0,1,4.52,4.467Z" fill="#fff"/>
    <path id="Tracé_406" data-name="Tracé 406" d="M228.662,109.291v6.639h-2.973v-4.679q0-.684-.031-1.164a2.087,2.087,0,0,0-.182-.779.909.909,0,0,0-.445-.439,2.316,2.316,0,0,0-1.683.043,6.068,6.068,0,0,0-.736.379v6.639h-2.973V106.6h2.973v1.005a8.035,8.035,0,0,1,1.459-.95,3.464,3.464,0,0,1,1.541-.341,3.1,3.1,0,0,1,1.607.412,2.789,2.789,0,0,1,1.09,1.213,9.083,9.083,0,0,1,1.722-1.192,3.544,3.544,0,0,1,1.639-.433,2.816,2.816,0,0,1,2.268.908,3.919,3.919,0,0,1,.775,2.617v6.09H231.74v-4.679c0-.463-.009-.851-.028-1.168a2.048,2.048,0,0,0-.176-.775.876.876,0,0,0-.442-.439,2.13,2.13,0,0,0-.851-.137,2.091,2.091,0,0,0-.722.129,5.538,5.538,0,0,0-.859.43" fill="#fff"/>
    <path id="Tracé_407" data-name="Tracé 407" d="M76.606,167.593,73.2,157.5l-3.376,10.092Zm1.974,6.059H67.752l-1.506,4.638H56.5l11.6-28.066H78.52L90.1,178.29H80.122Z" fill="#08225a"/>
    <path id="Tracé_408" data-name="Tracé 408" d="M105.6,168.069a5.009,5.009,0,0,0-1.117-3.566,3.725,3.725,0,0,0-2.822-1.176,3.231,3.231,0,0,0-2.507,1.129,5.642,5.642,0,0,0-1.011,3.785,5.332,5.332,0,0,0,1.042,3.642,3.339,3.339,0,0,0,2.581,1.157,3.6,3.6,0,0,0,2.738-1.166,5.452,5.452,0,0,0,1.1-3.8m8.6-17.845V178.29h-8.03v-3.009a10.479,10.479,0,0,1-3.076,2.586,9.5,9.5,0,0,1-4.129.882,8.258,8.258,0,0,1-6.984-3.157,12.27,12.27,0,0,1-2.412-7.674q0-5.051,2.665-7.73A9.15,9.15,0,0,1,99,157.509a10.288,10.288,0,0,1,3.634.612,8.322,8.322,0,0,1,2.9,1.838v-9.735Z" fill="#08225a"/>
    <path id="Tracé_409" data-name="Tracé 409" d="M127.241,172.252h4.86a5.745,5.745,0,0,0,3.471-.794,2.578,2.578,0,0,0,1.01-2.135,2.389,2.389,0,0,0-1-2,6.012,6.012,0,0,0-3.5-.756h-4.839Zm0-11.025h4.153a5.139,5.139,0,0,0,3.11-.7,2.428,2.428,0,0,0,.875-2.017,2.3,2.3,0,0,0-.875-1.912,5.06,5.06,0,0,0-3.046-.688h-4.217Zm-9.625-11h17.858q4.466,0,6.855,2.01a6.247,6.247,0,0,1,2.39,4.975,5.952,5.952,0,0,1-1.7,4.267,7.718,7.718,0,0,1-3.324,1.875,8.837,8.837,0,0,1,4.885,2.5,6.48,6.48,0,0,1,1.565,4.453,7.126,7.126,0,0,1-1.116,3.926,7.9,7.9,0,0,1-3.052,2.758,10.866,10.866,0,0,1-3.621.918q-3.221.382-4.274.384H117.616Z" fill="#08225a"/>
    <rect id="Rectangle_290" data-name="Rectangle 290" width="8.597" height="28.065" transform="translate(148.975 150.224)" fill="#08225a"/>
    <path id="Tracé_410" data-name="Tracé 410" d="M184.669,178.29h-8.007V175a11.533,11.533,0,0,1-3.61,2.888,10.437,10.437,0,0,1-4.473.86,7.69,7.69,0,0,1-5.547-1.924q-2.01-1.921-2.01-5.921V157.968h8.619v11.178a3.846,3.846,0,0,0,.777,2.717,2.9,2.9,0,0,0,2.186.8,3.244,3.244,0,0,0,2.512-1.072q.978-1.071.978-3.847v-9.781h8.575Z" fill="#08225a"/>
    <path id="Tracé_411" data-name="Tracé 411" d="M203.987,166.324a4.927,4.927,0,0,0-1.341-3.226,4.126,4.126,0,0,0-2.86-.974,4.042,4.042,0,0,0-3.273,1.47,5.058,5.058,0,0,0-.992,2.73Zm8.706,3.741H195.5a4.766,4.766,0,0,0,1.118,2.793,4.257,4.257,0,0,0,3.248,1.319,5.272,5.272,0,0,0,2.4-.574,5.476,5.476,0,0,0,1.5-1.285l8.444.7a11.574,11.574,0,0,1-4.675,4.4,18.442,18.442,0,0,1-7.855,1.332,17.519,17.519,0,0,1-6.992-1.138,9.942,9.942,0,0,1-4.223-3.618,10.153,10.153,0,0,1-1.674-5.826,9.768,9.768,0,0,1,3.359-7.711q3.359-2.947,9.275-2.947a17.948,17.948,0,0,1,7.581,1.32,9.421,9.421,0,0,1,4.232,3.828,12.923,12.923,0,0,1,1.453,6.527Z" fill="#08225a"/>
    <path id="Tracé_412" data-name="Tracé 412" d="M237.517,167v-8.864L229.261,167Zm0,6.06H221.9v-6.419l15.618-16.9H245V167h3.871v6.06H245v5.228h-7.482Z" fill="#3a9525"/>
    <path id="Tracé_413" data-name="Tracé 413" d="M249.032,157.968h9.052l4.609,13.528,4.278-13.528h8.442l-8.866,21.72a12.992,12.992,0,0,1-3.094,5.028q-2.232,1.842-6.8,1.843a54.04,54.04,0,0,1-5.725-.46l-.674-5.44a14.674,14.674,0,0,0,4.124.539,4.29,4.29,0,0,0,2.451-.633,4.8,4.8,0,0,0,1.589-2.27Z" fill="#3a9525"/>
    <path id="Tracé_414" data-name="Tracé 414" d="M282.76,168.163a5.726,5.726,0,0,0,1.211,4.015,4.234,4.234,0,0,0,6.086.018,5.912,5.912,0,0,0,1.19-4.109,5.6,5.6,0,0,0-1.2-3.929,3.9,3.9,0,0,0-2.97-1.29,4.054,4.054,0,0,0-3.1,1.309,5.672,5.672,0,0,0-1.221,3.986m-8.6.023a9.718,9.718,0,0,1,3.455-7.663q3.454-3.013,9.333-3.014,6.72,0,10.155,3.54a10.324,10.324,0,0,1-.664,14.706q-3.423,2.994-9.47,2.994a14.208,14.208,0,0,1-8.722-2.487,9.643,9.643,0,0,1-4.087-8.076" fill="#3a9525"/>
    <path id="Tracé_415" data-name="Tracé 415" d="M325.658,178.29h-8.006V175a11.547,11.547,0,0,1-3.611,2.888,10.437,10.437,0,0,1-4.473.86,7.69,7.69,0,0,1-5.547-1.924q-2.01-1.921-2.01-5.921V157.968h8.619v11.178a3.846,3.846,0,0,0,.777,2.717,2.9,2.9,0,0,0,2.186.8,3.244,3.244,0,0,0,2.512-1.072q.977-1.071.978-3.847v-9.781h8.575Z" fill="#3a9525"/>
    <path id="Tracé_416" data-name="Tracé 416" d="M217.515,165.375a3.618,3.618,0,1,0-3.618-3.618,3.618,3.618,0,0,0,3.618,3.618" fill="#fff" fill-rule="evenodd"/>
    <path id="Tracé_417" data-name="Tracé 417" d="M217.515,165.375a3.618,3.618,0,1,0-3.618-3.618A3.618,3.618,0,0,0,217.515,165.375Z" fill="none" stroke="#08225a" stroke-width="0.63"/>
    <path id="Tracé_418" data-name="Tracé 418" d="M216.71,161.573h1.06c.431,0,.665-.169.665-.572,0-.386-.234-.554-.665-.554h-1.06Zm-.967-1.809h2.372a1.162,1.162,0,0,1,1.287,1.1.982.982,0,0,1-.7,1v.012a.907.907,0,0,1,.641.935,2.008,2.008,0,0,0,.185.946h-.967a3.984,3.984,0,0,1-.154-.957c-.068-.42-.247-.6-.733-.6h-.968v1.562h-.967Z" fill="#08225a"/>
  </g>
</svg>
