<svg enable-background="new 0 0 124 124" viewBox="0 0 124 124" xmlns="http://www.w3.org/2000/svg"><path d="m48.6 55c-1.2-1.6-3.5-2-5.1-2s-3 .4-4.2 1.2c-.3.2-1.3 1-1.3 3v3.5s4.5-.2 8.1-.7c0 0 2-.5 2.6-1.6.9-1.8 0-3.2-.1-3.4zm0 0c-1.2-1.6-3.5-2-5.1-2s-3 .4-4.2 1.2c-.3.2-1.3 1-1.3 3v3.5s4.5-.2 8.1-.7c0 0 2-.5 2.6-1.6.9-1.8 0-3.2-.1-3.4zm0 0c-1.2-1.6-3.5-2-5.1-2s-3 .4-4.2 1.2c-.3.2-1.3 1-1.3 3v3.5s4.5-.2 8.1-.7c0 0 2-.5 2.6-1.6.9-1.8 0-3.2-.1-3.4zm0 0c-1.2-1.6-3.5-2-5.1-2s-3 .4-4.2 1.2c-.3.2-1.3 1-1.3 3v3.5s4.5-.2 8.1-.7c0 0 2-.5 2.6-1.6.9-1.8 0-3.2-.1-3.4zm15.8-51h-4.7c-35.9 0-55.6 19.7-55.6 55.7v4.7c0 35.8 19.7 55.7 55.7 55.7h4.7c35.8 0 55.5-19.9 55.5-55.7v-4.7c-.1-36-19.8-55.7-55.6-55.7zm-32.5 67.7h-3.5v-14.2c0-2.2-1-2.9-1.3-3-1.2-.7-2.6-1.2-4.2-1.2 0 0-3.5-.2-5.5 1.4v17h-3.5v-19s2.9-2.6 9-2.6c2.3 0 4.4.6 6.1 1.6 1.9 1.3 2.9 3.3 2.9 5.2zm17.7-1.1c-1.9 1.2-3.8 1.6-6.1 1.6-2.2 0-4.4-.6-6.1-1.6-1.7-1.2-2.9-3-2.9-5.1v-8.5c0-1.9 1-3.9 2.9-5.2 1.7-1 3.9-1.6 6.1-1.6 2.3 0 4.4.6 6.1 1.6 1.7 1.2 2.9 2.9 2.9 4.8 0 3.7-2.9 5.7-5.7 6.1-5.1.7-8.9.9-8.9.9v2c0 1.7.9 2.2 1.3 2.5 1 .7 2.6 1.2 4.2 1.2s3.1-.4 4.2-1.2c.9-.6 1.3-1.6 1.3-1.6l3.6-.2c-.3 1.2-.9 3-2.9 4.3zm18.1 1.1-5.5-7.7-5.4 7.7h-4.4l7.8-10.4-7.5-10.4h4.3l5.2 7.4 5.2-7.4h4.4l-7.5 10.4 7.7 10.4zm9.6 0h-3.5v-19.1c0-.7.6-1 .6-1l2.9-1.3zm12.9-17.1h-4.4v17.1h-3.6v-23.5c0-.7.7-1 .7-1l2.9-1.3v5.7h4.4zm18.6 11.9c-.1 2.8-1.7 4.2-4 5.1-1 .3-2.5.6-4.2.6-5.4 0-7.8-1.6-8-1.7l1.6-2.3c.2 0 2 1.2 6.4 1.2 1.4 0 2.5-.2 3.2-.4 2.2-.7 2-2 2-2.2v-3.2c-5.7 1.2-8 1-8 1-2.9 0-5.7-1.5-5.8-4.5v-8.4h3v8.3c.3 1.4 1.9 1.6 2.7 1.6 4.5 0 8-1 8-1v-9.7h3v15.6zm-60.1-8.1c.9-1.7 0-3.2-.2-3.3-1.2-1.6-3.5-2-5.1-2s-3 .4-4.2 1.2c-.3.2-1.3 1-1.3 3v3.5s4.5-.2 8.1-.7c.1-.1 2.2-.6 2.7-1.7zm-.1-3.4c-1.2-1.6-3.5-2-5.1-2s-3 .4-4.2 1.2c-.3.2-1.3 1-1.3 3v3.5s4.5-.2 8.1-.7c0 0 2-.5 2.6-1.6.9-1.8 0-3.2-.1-3.4zm0 0c-1.2-1.6-3.5-2-5.1-2s-3 .4-4.2 1.2c-.3.2-1.3 1-1.3 3v3.5s4.5-.2 8.1-.7c0 0 2-.5 2.6-1.6.9-1.8 0-3.2-.1-3.4zm0 0c-1.2-1.6-3.5-2-5.1-2s-3 .4-4.2 1.2c-.3.2-1.3 1-1.3 3v3.5s4.5-.2 8.1-.7c0 0 2-.5 2.6-1.6.9-1.8 0-3.2-.1-3.4zm0 0c-1.2-1.6-3.5-2-5.1-2s-3 .4-4.2 1.2c-.3.2-1.3 1-1.3 3v3.5s4.5-.2 8.1-.7c0 0 2-.5 2.6-1.6.9-1.8 0-3.2-.1-3.4z" fill="#fff"/></svg>