<svg enable-background="new 0 0 116.7 93.2" viewBox="0 0 116.7 93.2" xmlns="http://www.w3.org/2000/svg"><g transform="matrix(1.25 0 0 -1.25 -312.6 985.4871)"><path d="m339.9 714.8h2.6v17.8h-2.6z" fill="#fff"/><path clip-rule="evenodd" d="m311.6 730.3-1.3-.1-1.3-.4c-5.7-2.6-4.8-11.3 1.3-12.6l1.3-.1 1.3.1c6.4 1.3 6.8 10.5 1.3 12.6l-1.3.4zm0 2.5h1.1l.9-.1c10.1-2.6 9.2-16.7-1.1-17.9h-1.8c-10.3 1.5-11.1 15.3-.9 17.9l.9.1z" fill="#fff" fill-rule="evenodd"/><path clip-rule="evenodd" d="m256.8 730.5h-.7l-.5-.1-.5-.2-.5-.4-.2-.4-.2-.5-.1-.5v-.7l.1-.4.1-.5.4-.4.4-.2 1.1-.5 3.6-1.3.8-.4.5-.4.7-.8.5-.8c2.5-7.1-7.8-10.3-11-4.3l-.4 1.1-.1 1.1h2.5l.1-.8.2-.7.4-.5.4-.5.5-.2.5-.2.7-.2h1.3l.5.2.7.2.5.2c1.3 1.6 1.5 3.4-.4 4.5l-1 .5-1.4.4-1.6.5-1.1.7-.9.7-.7.7-.4 1.1-.2 1.1.2 1 .2 1 .5.9.6.7.8.7c2.3 1.5 5.5 1.1 7.4-1.1l.7-.8.4-1 .1-1.1h-2.6l-.1.7c-.2 1-1.2 1.7-2.2 1.9z" fill="#fff" fill-rule="evenodd"/><path clip-rule="evenodd" d="m326.9 732.6h8.4v-2.5h-7.6v-5.7h7.6v-2.4h-7.6v-7.2h-2.6v16l.1.8.4.5.5.4z" fill="#fff" fill-rule="evenodd"/><path clip-rule="evenodd" d="m287.1 728.5v-13.7h-2.6v16.2l.1.8.4.5.5.4.8.1h.4l.5-.2.2-.3.4-.4 7.7-12.9.1 13.7h2.6v-16.1l-.1-.8-.4-.5-.7-.4-.7-.1h-.3l-.4.1-.4.2-.3.4z" fill="#fff" fill-rule="evenodd"/><path clip-rule="evenodd" d="m272.7 729.3-2.6-7.1h5.3zm-3.4-9.4-1.8-5h-2.8l6.4 16.8.2.5.4.4.5.1.5.1.5-.1.5-.1.4-.4.2-.5 6.3-16.8h-2.6l-1.8 5z" fill="#fff" fill-rule="evenodd"/><path d="m318.8 771.6-1.4 1.8-.7.8-.8.7c-3.4 2.9-7.9 2.2-11.8.9l-3.1-.9-1.6-.4c-4.2-.9-8.7-.4-10.4 4.1l-.2 1.2-.1 1.1.2 1.1.4 1.2c1.6 4 7.7 5 11.5 4l1.9-.4 1.7-.5c5.1-1.7 9.2-5.2 12.1-9.8l.9-1.6z" fill="#fff"/><path clip-rule="evenodd" d="m319 770.9.2-1.4.4-1.6c1-7.7-2-15.9-8.2-20.8l-1.8-1.4-1.8-1c-6.8-3.8-15.6-3.7-22.4.2l-1.6 1-1.6 1.2 1.2-.4 1.3-.2c6.1-1 11.4.8 15 5.9l1.4 2.3 1.1 2.3c2.9 6.4 5 13.5 13.1 14.1h1.7z" fill="#fff" fill-rule="evenodd"/><path clip-rule="evenodd" d="m288.6 749-1.2-.5c-9.4-2.4-14 10.5-13.3 17.7l.1 1.3.9-1.1 1-1c4.2-4.4 8.1-4.1 13.1-6.8l.5-.5.4-.5c1.8-2.3 1.4-5.4-.4-7.5l-.7-.4z" fill="#fff" fill-rule="evenodd"/><text fill="#fff" transform="matrix(.8 0 0 -.8 134.88 636.1405)"/><text fill="#fff" transform="matrix(.8 0 0 -.8 134.88 621.56)"/><text fill="#fff" transform="matrix(.8 0 0 -.8 134.88 606.9803)"/><text fill="#fff" transform="matrix(.8 0 0 -.8 134.88 592.3405)"/><g fill="#c1c1c1"><text transform="matrix(.8 0 0 -.8 134.8792 273.9811)"/><text transform="matrix(.8 0 0 -.8 134.8792 260.6006)"/><text transform="matrix(.8 0 0 -.8 134.8792 247.2202)"/><text transform="matrix(.8 0 0 -.8 134.8792 233.7811)"/><text transform="matrix(.8 0 0 -.8 134.8792 220.4006)"/><text transform="matrix(.8 0 0 -.8 134.8792 207.021)"/><text transform="matrix(.8 0 0 -.8 134.8792 193.6405)"/><text transform="matrix(.8 0 0 -.8 134.8792 180.26)"/><text transform="matrix(.8 0 0 -.8 134.8792 166.8795)"/><text transform="matrix(.8 0 0 -.8 134.8792 153.4405)"/><text transform="matrix(.8 0 0 -.8 134.8792 140.06)"/><text transform="matrix(.8 0 0 -.8 134.8792 126.6795)"/><text transform="matrix(.8 0 0 -.8 134.8792 113.2999)"/><text transform="matrix(.8 0 0 -.8 134.8792 99.9194)"/><text transform="matrix(.8 0 0 -.8 134.8792 86.5389)"/></g></g></svg>