<svg enable-background="new 0 0 2149.8 2411.5" viewBox="0 0 2149.8 2411.5" xmlns="http://www.w3.org/2000/svg"><path d="m2607.9 1458.8c0-2.4 6.7-38.6 8.7-47.3.8-3.5 3.2-5.6 6.4-5.6 7.9 0 14.2-4.4 18.6-12.8 3.3-6.4 4.6-25.8 7.4-112 1.9-57.4 3.4-114.1 3.5-126l.1-21.7h19.8c10.9 0 19.8.9 19.8 2s-2.2 23.1-4.8 48.9-5.5 57.5-6.3 70.5c-.8 12.9-2.1 28.5-2.9 34.7-2.5 20.8 3.2 6.9 12.2-29.7 14.4-58.7 27.1-109.7 29.5-118.3l2.2-8.1h18.7c16.8 0 18.6.4 17 4.3-.9 2.4-3.8 12.5-6.4 22.4s-9.1 32.2-14.5 49.5-14.9 48.2-21.1 68.7c-6.2 20.4-16.3 53.3-22.3 73.1-6.1 19.8-12.3 40.9-13.9 47-4.1 15.6-20.5 47.3-28.3 54.5-5.5 5.2-9.6 6.3-25 7.1-10.1.5-18.4 0-18.4-1.2zm-855-75.3c-2.3-1.3-6.1-7.5-8.4-13.6-5.3-14-3.8-45 3.7-73.7 9.5-36.8 18.8-48.4 51.1-63.8 21.6-10.3 24.9-14.3 27.5-33.5 2.1-15.4-.4-23.4-7.5-23.4-7.9 0-13.1 6.6-15.7 19.8l-2.2 11.1-16.7.7c-19.4.9-19.1 1.5-11.4-23.4 6.5-21 10.1-28.1 19.9-39.4 9.5-10.8 21.4-16 36.4-16 20.4.1 31.8 10.3 35.1 31.7 2.5 15.6-1.8 47.4-21.2 156.6-3.3 18.4-6.7 40.4-7.6 48.9l-1.7 15.5h-17-17v-15.5-15.5l-7.3 12.8c-4 7-10.3 15.1-13.9 18-6.9 5.5-19.1 6.8-26.1 2.7zm45.6-53.8c2.1-2.4 5.5-9.4 7.6-15.7 4.4-13.1 12.1-52.1 10.6-53.6-.6-.6-6.6 3-13.4 7.9-8.4 6-13.7 12.2-16.4 19-4.3 10.7-6.2 38.6-3 43.7 2.8 4.4 10.1 3.8 14.6-1.3zm254.5 52.1c-14.3-9.8-19.3-22.7-19.6-50-.2-25.5 4.7-59.2 15.7-108.5 15.3-68.2 34.3-94.9 67.6-94.9 14.8 0 26.7 6 31.2 15.7 11.6 25 5.2 99.6-14.5 168-11.1 38.5-20.5 54.7-39.5 67.6-11.4 7.7-31.2 8.8-40.9 2.1zm35.4-49.6c4.9-5.5 9.9-24.6 17.7-68.7 12.7-71.7 13-85.5 1.5-85.5-7 0-13.9 12.3-18.6 33.1-5.4 23.6-16.1 96.2-16.1 109 0 15.3 7.4 21.1 15.5 12.1zm171 49c-14.4-8.8-16.8-16.9-16.8-55.8 0-23.3 1.5-42.4 4.6-58.2 20.9-108.6 38.2-138.7 79.4-138.7 12.9 0 15.1.8 22.5 8.2 7 7 8.4 10.5 9.9 24.4 1 8.9.8 27.3-.4 40.8l-2.1 24.5-18.3.7c-16 .6-18.1.2-16.7-3.3.9-2.2 2.3-11.7 3.1-21.1 1.7-18.1-.7-24.6-8.9-24.6-11.4 0-19.6 24.4-28.6 85-7.3 49.2-7.9 66.6-2.3 71.3 9.2 7.7 19.7-8.6 23.7-37l2.9-20.2h18.1c13.4 0 17.9.8 17.1 3.1-.5 1.7-4 15.9-7.6 31.6-11.9 51.4-30.8 74.3-61.2 74.3-6-.2-13.8-2.2-18.4-5zm116.4 0c-14.7-9-16.9-16.6-16.5-58.3.3-33.3 1.4-42.2 10.5-85.4 10.1-47.9 18.9-72.6 32.7-92 11-15.5 39.4-22.4 56.2-13.7 13.5 7 16.4 19.9 14.6 65.3-.8 21.4-3 46.2-4.7 55.1l-3.2 16.1-31.3.7-31.3.7-4 22c-4.7 25.5-5 35.8-1.5 42.5 6.2 11.6 20.5-.4 23.6-20 3.4-21.2 1.9-19.8 21.1-19.8 15.5 0 17.3.5 16.2 4.3-.7 2.4-3.2 12.1-5.5 21.7-4.8 19.8-12.6 36.6-22.2 48.1-13.9 16.7-38.7 22.5-54.7 12.7zm61.2-159.8c1.3-3.4 3.1-13.3 4-22 1.4-14.1 1-16.4-3.7-21.1-4.2-4.2-6.3-4.8-10-2.8-7.4 4-20.2 43.2-16.2 49.7.8 1.3 6.5 2.4 12.6 2.4 9.4-.1 11.3-.9 13.3-6.2zm97.2 159.7c-14.3-8.7-17.9-17.9-17.9-45 0-13.2.7-25.7 1.5-27.9 1.2-3 5.2-3.9 17.3-3.9h15.8v13.2c0 22.6 10.5 28.3 21.6 11.9 6.7-9.9 7.5-26.2 1.8-34.4-2.1-3.1-9.8-9.9-17-15.2-21.5-15.9-26.9-36-20.4-76.3 6.6-40.7 23.5-66.9 47.6-73.9 13.1-3.8 17.3-3.6 31.5 1.9 13 5 19.8 26.5 17.4 54.6l-1.5 16.7h-16.9-16.9l.5-10.9c.5-10.9-3.4-18.8-9.1-18.8-5.3 0-13.9 11.5-15.4 20.6-2.3 14.4.6 20.4 14.6 29.7 16.7 11.1 20.7 15.7 25.3 28.8 5 14.3 4.7 33.7-1 61.6-11 53.4-48.7 85.6-78.8 67.3zm344 .9c-18-12.6-17.4-57.1 2.4-156.9 10.8-54.9 24.5-85.7 42.2-95.2 16.2-8.8 29.5 1.2 29.5 22.1 0 19.4 4.5 4.1 13.8-47l9.7-53.4h18.7 18.7l-5.9 36.5c-3.2 20.1-10.2 60.5-15.5 89.8s-10.8 62.2-12.3 73c-1.5 10.9-6.4 39.9-11 64.4s-9.1 48.8-10 53.9l-1.6 9.3h-18.2-18.2l3-16.1c3.9-20.8 0-21.3-9-1.2-4.5 10-9.3 16.3-14.9 19.7-9.8 6.2-13.8 6.4-21.4 1.1zm45.8-61.6c4.5-6.8 19.8-79.4 22.4-105.6 2.1-21.9.1-29.4-7.7-29.4-4.5 0-7.3 2.4-10.8 9.3-11.2 22-25.6 118.6-19.2 129 3 4.9 11 3.2 15.3-3.3zm150.3 63.9c-8.1-1.6-19.9-14.4-22.8-25-4.2-15-3-57 2.5-88.8 12.2-70.3 29-118 46.8-133 20.5-17.2 52.8-14.3 61.6 5.6 3 6.7 3.8 16.7 3.6 41.5-.4 44.4.3 42.9-20.9 42.9-15.3 0-17.2-.5-16.1-4.3 2.6-9 4.5-33 3.1-38.7-3.6-14.5-16.5-9.5-23.4 9-8.9 23.8-21.2 102-19.8 125.7.7 12.7 1.2 13.7 7.5 14.4 5.6.6 7.5-.8 11.5-8.7 3.7-7.3 10.3-37 10.3-46.5 0-.8 7.8-1.4 17.3-1.4 20.6 0 20-2.2 10.2 36.1-14.3 56.3-36.1 78-71.4 71.2zm92.7-3.3c-11.8-9.3-14.2-30.3-8-71 6.6-43.3 20.5-63.2 55.2-79.3 16.1-7.4 19-9.8 23.1-18.9 5.3-11.7 6.3-31.4 1.8-35.9-8-8-17-.1-22.9 19.9l-3.1 10.6-15.6.7-15.6.7 1.4-12.1c1.7-14.4 10.6-34.9 21.4-49.7 13.6-18.4 38.3-25.3 57.1-15.9 20.7 10.3 22.3 35.1 7.6 115.3-11.1 60.4-20.6 127.5-18.6 130.8.8 1.2-7.6 2.2-18.8 2.2h-20l1.5-14.2c1.6-15.3 2-15.4-9.9 2.7-5.7 8.8-19.7 19-26 19-2.3.2-7.1-2.1-10.6-4.9zm46.4-54.2c6.1-6.7 13.5-32.3 15.5-53l1.6-17.6-9.7 7.7c-5.3 4.2-11.5 9.8-13.8 12.3-4.8 5.5-12 28.5-12 38.7 0 15.3 9.7 21.6 18.4 11.9zm151.1 56.7c-16.6-5-25.8-23.7-25.8-52.7 0-15.2 7.4-77.8 11.3-95.8 7.5-34.6 21.5-73.8 30.6-85.9 21.8-29.2 57.9-31.1 70.3-3.7 4.4 9.6 5.2 16 5 37.6-.2 21.8-4.2 54.5-9.6 78.6-1.2 5.4-2.1 5.6-32 5.6h-30.7l-2.9 13c-1.6 7.2-3.5 21.4-4.2 31.7-1.1 15.7-.7 19.4 3 23 7.3 7.3 14 .4 21.1-21.5l6.2-19h16.9 16.9l-1.6 8.1c-3 15.2-11.3 37.8-19.3 52.6-12 22.4-35.3 34.3-55.2 28.4zm55.2-176.4c1.9-15.9.8-29.9-2.8-33.5-.7-.7-3.9-.5-7.1.3-7 1.8-13.1 14.5-15.4 32.3-.9 6.6-2.2 13.6-2.9 15.5-1 2.6 1.8 3.4 12.4 3.4h13.7zm-1741.6 127.7c4.5-25.6 13.2-76.6 19.5-113.4s15.3-88.6 19.9-115.2 8.5-49.2 8.5-50.2 8.4-1.8 18.6-1.8c13.2 0 18.6.9 18.5 3.1-.1 6.5-9.7 67.2-18.3 115.8-17.2 96.9-30.9 177.2-32.9 192l-2 14.9-20 .7-20 .7zm276.9 36.4c.8-4.8 2.7-17 4.2-27.2s6-37 10.1-59.5c13.5-74.8 16.7-94.8 15.4-97-.7-1.2-4.1-2.1-7.5-2.1-4.7 0-5.9-1-5-4.3.7-2.4 1.8-7.7 2.5-11.8 6.2-35.4 6.4-35.9 14.1-35.9 5.1 0 7.3-1.2 7.3-4.2 0-2.3 2.9-16.3 6.5-31.2 5.1-21.4 8.1-28.9 14.2-35.8 9.1-10.4 20.1-15.5 33.1-15.5 14.9.1 15.2.9 10.7 27.9-2.2 13.3-4.8 23.6-5.6 22.7-.9-.9-4-.8-6.9.1-6.4 2-12.3 15.1-12.3 27.2 0 8.1.6 8.7 7.6 8.7 7.5 0 7.6.1 6 10.5-.9 5.8-2.9 17.2-4.6 25.4-2.8 13.8-3.5 14.9-10.3 15.7-4 .4-8.1 1.6-9 2.5s-4.6 20.1-8.2 42.5c-6.3 39.5-22.7 131.9-25.3 142.9-1.1 4.8-3.1 5.5-19.9 6.2l-18.6.8zm191.3-1.9c.7-5.1 6.1-37.2 12-71.2 5.9-34.1 14.3-82.6 18.6-107.8s8.4-48.3 9.1-51.4c1.2-5.1 2.7-5.6 19.2-5.6h17.9l-1.9 11.8c-1.1 6.5-2 15.7-2 20.4-.1 8.1.5 7.5 8.6-9.1 4.8-9.8 11.6-20.1 15.2-22.9 7.2-5.7 19.5-7.1 17.6-2-.6 1.7-3.8 17.9-7 35.9l-5.9 32.8h-9c-19.7 0-28 15.4-36.6 68.1-2.9 17.7-8.3 49.8-11.9 71.2l-6.6 39h-19.2-19.4zm590.5 5.9c0-4.5 7.5-50.4 21-129.1 6.1-35.4 12.9-75.3 15.1-88.6l4-24.2h19.3 19.3l-2.2 9.3c-1.2 5.1-2.1 12.1-2.1 15.5 0 5.2 1 4.3 6-5.3 6.5-12.6 18.2-23.7 27.3-25.9 7.7-1.9 18.9 3.7 22.8 11.4 6.6 13 2.8 52.9-12.9 136.2-7.7 41-15.9 92.6-16.1 100.9 0 2.2-5.7 3.1-19.9 3.1-13.2 0-19.8-.9-19.8-2.8 0-1.6 3.3-20.8 7.3-42.7s8-45.5 8.9-52.3 4.4-28.3 7.9-47.8c5-28 5.8-36.7 3.6-41.5-3.3-7.3-10.4-7.9-16.3-1.4-4.1 4.5-13.8 44.6-13.8 57.2 0 3.4-5.3 34.3-11.7 68.7l-11.6 62.5h-18.1c-13.6.2-18-.6-18-3.2zm243.4-3.4c.7-3.7 5.4-30.2 10.3-58.8s14-79.9 20.1-113.9c6.1-34.1 11.1-62.8 11.1-63.8s8.4-1.9 18.6-1.9 18.6.8 18.6 1.9c.1 4.3-11.2 72.6-20.1 122-5.3 29.3-10.3 58.3-11 64.4s-3.2 21.5-5.3 34.1l-3.9 22.9h-19.8-19.8zm295.5-28.5c3-19.4 9.4-57 14.1-83.6 4.8-26.6 9.8-56.1 11.2-65.6s6.4-39.1 11.3-65.6 9.5-54.7 10.3-62.5l1.6-14.2h19.6c10.8 0 19.7.8 19.7 1.9 0 2.2-11 68.3-25.9 154.2-6 34.7-15.1 87.4-20.2 117l-9.3 53.9h-18.9-18.9zm-239.9-239c-13.7-15.2-10.2-44.1 7.6-63.2 7.7-8.2 17.7-8.9 24.2-1.7 3.6 4 4.6 8.7 4.4 21.7-.3 19.6-2.7 26.5-13.3 38.6-8.7 9.8-16.7 11.4-22.9 4.6zm-1302.3-79.2c-6.1-2.3-12.8-9-15.3-15.5-5.7-14.8-3.1-35.2 24-193.3 6-34.7 11.6-68.7 12.4-75.6s5.9-36.4 11.1-65.6 10.2-58.8 11.1-65.6c1.6-12.6 14.7-90.3 34.7-205.6 6.1-35.4 12.3-72.8 13.7-83s6.3-39.2 10.9-64.4 9.1-51.4 10-58.2c1.6-12.4 14.8-90.4 33.6-198.2 5.5-31.3 12-70.9 14.6-87.9s8.6-53.8 13.5-81.7 13.9-80.9 20.1-117.7 16.2-95.9 22.2-131.3c6.1-35.4 11.6-69.2 12.4-75.2 2.1-15.8 9.9-29.2 21.6-36.9l10.3-6.8 379.1-.6c412.6-.7 394.3-1.3 407.5 12.7 7.6 8.1 5.2 12.7-24.4 45.9-13.8 15.6-36.8 42.9-51.1 60.7s-29.3 36.6-33.5 41.7c-13.5 16.7-54.4 79.3-64.7 99.2-5.5 10.6-14.7 24.1-20.4 29.9-18.9 19.4-12.2 18.9-197.9 17.3l-163.9-1.4-11.3 7.4c-6.5 4.3-13.1 11.1-15.5 16.2-5.6 11.7-12.4 40.2-19 79.7-3 17.7-10.3 59.7-16.3 93.3-11 61.7-12.9 82.8-8.4 91.2 1.4 2.5 6.1 7.2 10.5 10.4l8.1 5.7 135.4 1.2 135.4 1.2 6.2 5.8c9.1 8.5 9.9 16.1 4.4 38.5-13 52.3-25.2 105.8-27.3 120.4-5.2 35.2-12.9 81-15.2 89.7-3.1 11.7-14.8 23.4-26.6 26.7-5.8 1.6-57.1 2.6-137.4 2.6h-128.2l-9.6 8.7c-13.2 11.9-19.2 27.5-25.1 64.8-5.5 34.8-22.2 132.2-37.4 217.6-5.3 30-10.9 63.4-12.4 74.3s-6.6 40.4-11.2 65.6-9.6 53.6-10.9 63.2c-2.9 21.1-22.1 130.1-25.2 143.3-3.5 14.9-16 26.7-30.6 29.1-13.5 2.2-218.1 2.7-224 .5zm1008.2-4.7c-28.9-4.9-76.4-21.5-100.3-35-57.5-32.5-103.9-82.3-135.8-145.9-24.2-48.2-47-120.5-56.1-178.1-14.9-94.5-12.2-270 5.8-374 3.3-19.1 7.9-46.4 10.2-60.7 6-37.1 24-112.9 38.6-163.5 68.6-236.6 180.4-420.4 318-522.7 49.4-36.7 105.8-62.7 167.2-77.1 30.5-7.1 90.4-8.9 121.1-3.6 47.3 8.2 94.8 27.9 127.8 52.9 85.1 64.5 139.2 169.7 160.7 312.7 9.3 61.8 11.4 91.7 11.4 162.3 0 67.1-1.6 93.9-10 168.4-7.6 67.9-9.1 77.6-20 135-55.7 291.6-178.5 526.3-338 645.9-31.3 23.5-47.2 33.3-78.8 48.7-27.2 13.3-77.4 29.8-105.7 34.7-24.9 4.5-89.8 4.5-116.1 0zm139.7-326.5c6.4-1.9 19.5-8.2 29-14 64.2-38.8 124.9-134 166.5-261.2 20-61.2 30.1-102.2 41.3-167.6 12.6-73.8 17-113.3 18.9-170.5 5.1-149.4-29.2-253.2-94.4-285.1-16.4-8-18.7-8.5-43.6-8.5h-26.3l-23.6 11.7c-20 9.9-27.4 15.5-48.1 35.9-20.1 19.9-57.9 67.9-57.9 73.6 0 .8-2.9 6.1-6.5 11.8-9.1 14.4-34.2 65.3-38.8 78.7-2.1 6.1-7.1 19-11.1 28.5-19.3 46.4-54.1 178.3-59.9 227.1-1.4 11.3-4.1 32.9-6.2 47.9-11 80.8-10.2 160.3 2.5 231.3 6.8 37.9 13.4 59.1 28.7 91.4 14.9 31.4 47.1 62 74 70.2 10.5 3.2 43.2 2.5 55.5-1.2z" fill="#fff" transform="matrix(1.2037188 0 0 1.2037188 -2010.2028 653.90473)"/></svg>