<svg enable-background="new 0 0 98 53.4" viewBox="0 0 98 53.4" xmlns="http://www.w3.org/2000/svg" xmlns:xlink="http://www.w3.org/1999/xlink"><clipPath id="a"><path d="m0 0h98v53.4h-98z"/></clipPath><g clip-path="url(#a)"><path d="m67.6 31.2c.6-.4 1.2-.9 1.8-1.3 4.4-3.5 7.8-7.4 8.4-9.5 0-.1.1-.3.1-.4 0-.2-.1-.4-.3-.4-2 0-8.5 6.5-10.1 11.7zm-16.2-.8c6.1-4.6 12.6-11.4 13.3-14.2v-.3c0-.2-.1-.3-.3-.3-2 .1-11 8.4-13 14.8m-37.8 4.1c-1.9-1.3-4.1-2-6.4-2.1-2.2 0-3.6.9-3.6 1.9 0 1.2 1.7 1.8 3.6 1.8 2.3 0 4.5-.6 6.4-1.6m18.9-14.5c4.4-1.6 8.4-4.1 11.7-7.4 2.9-2.9 5.2-6.2 5.2-7.9 0-.3-.2-.6-.6-.6h-.1c-1.3 0-3.9 1.8-7.3 5.2-3.2 3.2-6.2 6.8-8.9 10.7m65.5 10.6c-3.8 3.8-15.6 14.1-18.7 22.8l-3.9-1c1.3-3.6 5.1-9.2 9.3-13.5-.8.3-1.7.5-2.6.5-1 .1-1.9-.3-2.6-1-.4-.5-.6-1.2-.6-1.8 0-.2 0-.3 0-.5-3.7 2.3-6.7 3.3-9.6 3.3-2.1.1-4.1-.9-5.1-2.7-3.2 1.7-6.6 2.6-10.2 2.7-2.8 0-5-1.1-6-3.1-3.7 2.1-6.9 3.1-9.4 3.1-1.2.1-2.4-.3-3.3-1.2-.6-.6-.9-1.4-.9-2.2-2.4 1.6-5.9 3.4-9.5 3.4-2.9 0-5.7-.9-8-2.5-3 1.7-6.5 2.5-9.9 2.5-2.7 0-7-1.1-7-5 0-3.1 3.2-5.2 7.6-5.2 3.4.1 6.7 1.2 9.4 3.2 2.6-2.2 4.9-4.6 6.9-7.4-.6 0-1.1 0-1.7 0-5 0-9.2-1.5-11.5-4.1-1.1-1.2-1.7-2.9-1.7-4.7 0-7 8.8-12.4 16.5-13.2.5 1.2 1 2 1.4 3.1-7.6.9-13.9 5.4-13.9 9.8 0 2.9 3.2 5.8 10.1 5.8 1.2 0 2.4-.1 3.5-.3 6.1-8.4 15.4-21.4 23.5-21.4 2.4 0 3.6 1.4 3.6 3.4 0 4-3.4 8.2-5.6 10.5-3.5 3.5-9.8 8.7-18.6 10.5-2.6 3.8-5.6 7.2-9.1 10.2 1.6.9 3.4 1.5 5.2 1.5 4.8 0 9.4-4.3 13-8l.1-.1 2.8 2.2-.1.2c-1.6 1.8-3.1 3.8-3.1 4.8 0 .8.7 1 1.3 1 1.8 0 4.6-1.2 7.9-3.2.4-8.2 11.5-20.6 18.3-20.6 1.9 0 3 .9 3 2.6 0 4.1-7.1 12.9-17.3 19.6.5 1.1 1.8 1.7 3.8 1.7 3-.3 5.9-1.2 8.5-2.7.7-4.5 2.7-8.7 5.9-12 3-3.2 6.5-5.3 9.4-5.3 1.8 0 2.9 1 2.9 2.6 0 3.6-4.1 9.7-14.1 16 .5.9 1.6 1.5 2.6 1.4 3 0 8.2-3.2 12.3-7.1l2.9 2.3c-1.2 1.5-2.5 3.2-2.5 4.1 0 .3.2.5.7.5 3 0 7.7-4 11.3-7.5zm-54.4-8.2c1.3 0 2.4 1.1 2.4 2.4s-1.1 2.4-2.4 2.4-2.4-1.1-2.4-2.4 1.1-2.4 2.4-2.4z" fill="#fff"/></g></svg>