<svg enable-background="new 0 0 1361.1 1135.1" viewBox="0 0 1361.1 1135.1" xmlns="http://www.w3.org/2000/svg"><g fill="#fff"><path d="m224.9 731.6c-39.4-2.7-68.6-14.1-90.9-35.6-23.1-22.2-37-52.4-42.7-92.4-1.7-11.9-1.9-48.8-.4-61.9 5.6-47.9 19.9-81.9 44.8-106.5 9.1-9 19.1-15.9 31.9-22.3 21.8-10.8 44.2-15.5 73.4-15.5 58.7 0 105.6 25.2 126.9 68.1 7.5 15 13 35.2 13.3 48l.1 5.1h-83.8l-1.8-6.9c-5.9-22.3-17.8-36.7-35.1-42.1-7.2-2.3-26.3-2.4-34.6-.3-8.9 2.3-17.4 6.9-23.9 13-12.3 11.5-19.2 25-24 47.4-2 9.4-2.1 10.4-2.1 34.7 0 26.9.7 34.5 4.6 49.5 6.7 26 21.5 42.3 42.8 47.4 8.8 2.1 22.8 2.1 31 0 20-5.1 35.8-22.2 40.9-44.4.7-2.9 1.5-6.1 1.7-7.2l.5-1.9h83l.2 2.8c.3 4.1-2.6 17.3-6.1 27.9-17.6 52.6-58.4 85.2-114.9 91.9-7.5 1-28.3 1.7-34.8 1.2zm330.3 0c-50.5-3.2-92.8-24.2-119.2-59.1-11.7-15.5-20.9-35.2-26.2-56.4-6.4-25.2-7.6-60.7-3-88.6 11.4-69.5 57.6-115.7 127.6-127.7 17.7-3 43.7-3.2 61.8-.4 68.5 10.7 115 54.8 128.6 121.8 3.6 18.1 5 46.5 3.1 65.6-7.2 72.9-48.4 122.7-115.3 139.4-18 4.6-39.2 6.5-57.4 5.4zm32.1-72.4c12.6-3.3 20.7-7.6 29.1-15.4 15.5-14.2 24.4-37.6 26-68 1.7-31.1-3.1-56.9-13.8-75.1-7-11.9-15.8-20-28-25.8-8.7-4.1-13.8-5.5-25.2-6.6-10-1-23-.1-31.7 2.1-7 1.8-19.4 8.2-25 12.8-12.4 10.3-21.3 27-25.8 48.5-1.7 8-2 11.9-2.4 27.5-.6 24.8.9 36.5 6.6 53.4 9.2 27.1 28.3 43.8 55.1 48 7.8 1.2 28.3.4 35.1-1.4zm447.6 72.1c-29.5-3.1-52.7-15.1-67.9-35.2-4.8-6.3-10.9-18.6-13-26.3-4.9-17.6-5.2-41.5-.8-59.3 8.7-35.2 33.3-58.8 71.9-69.1 5.3-1.4 25.2-4.8 52-8.8 23.9-3.6 45.6-7.1 48.3-7.7 9.4-2.3 16.5-7.3 19.7-13.8 2.3-4.6 2.1-18.2-.3-24.4-2.3-5.8-8.6-12.6-14.6-15.8-8.4-4.5-14.7-5.7-32.4-6-18.6-.4-23.9.4-33.5 5.1-12.4 6.1-19.1 15.7-22.5 32l-1.3 6.2h-40-40l.2-4.2c.4-6.9 3.8-22.8 7-32.4 5.7-17 13-29.1 24.6-40.8 10.8-10.9 22.2-17.9 37.8-23.3 19.9-6.9 39.8-9.7 70.3-9.7 25.6 0 43.8 2.6 63.1 8.9 36.9 12.1 57.4 33.1 64 65.6 1 5.2 1.3 19.7 1.7 109 .5 95.8.6 103.4 1.9 108.4 2.7 10.5 7.6 17.9 13.4 20.3 1.2.5 2.4 1.7 2.7 2.6.7 2.7.5 8.2-.3 9.8-.8 1.4-2.1 1.5-45 1.5h-44.2l-1.1-2.6c-2-4.7-4.8-16.8-5.8-24.7-.5-4.2-1.2-8-1.6-8.4-.3-.4-4 2.5-8.1 6.4-22.6 21.2-43.3 31.6-71 35.7-9.7 1.3-27.3 1.9-35.2 1zm51.8-60.4c30.5-5.3 53.4-24.5 59-49.3 1-4.4 1.2-10.1 1.2-28.6 0-15.2-.3-23.1-.8-23.1-.4 0-2.1.8-3.7 1.9-7.4 4.9-23 9.2-49 13.8-18.4 3.3-27.7 5.7-35.5 9.3s-12.9 7.5-16.9 12.9c-4.2 5.7-6.2 11-7.3 19.4-2.9 21.8 7.7 38.6 27.7 43.8 5.8 1.4 16.9 1.4 25.3-.1zm-329.9 52.2c-.3-.3-.5-71.7-.5-158.7 0-143.6.1-158.3 1.2-158.7 2.2-.8 75.7-.5 77.3.3 1.4.8 1.5 1.9 1.5 27.3 0 15.7.3 26.5.7 26.5s3.2-4.3 6.2-9.6c17.4-30.3 33-43.9 58.2-50.5 5.9-1.5 8.7-1.8 21.8-1.8 8.2 0 15.6.2 16.3.5 1.3.5 1.3 3.1 1.2 42.3l-.2 41.7-16.5-.2c-24.2-.3-35.7 1.6-49.6 8.3-16.6 8.1-27.4 22.5-32.4 43.1-1.3 5.3-1.4 12.8-1.8 96.9-.2 50.1-.7 91.6-1 92.1-.5.7-9.6 1-41.2 1-22.4.1-40.9-.2-41.2-.5z"/><path d="m647.9 1134.3c-87.4-4.6-181-26.3-266.8-61.9-129.9-53.8-234.5-135-299.7-232.6-26.2-39.2-47.2-82.9-60.3-125.8-10.4-33.8-17.1-69.4-20.1-106.1-1.3-16.1-1.3-64.6 0-80.7 7-85.2 33.6-162 80.3-231.9 56.2-83.9 140.7-155.4 246.6-208.4 110.3-55.2 239-86.9 352.7-86.9s242.4 31.7 352.6 86.9c105.9 53 190.4 124.4 246.6 208.4 26.1 38.9 47.1 82.8 60.2 125.7 10.4 33.8 17.1 69.4 20.1 106.1 1.3 16.1 1.3 64.6 0 80.7-5.4 65.5-21.6 123.6-50.5 180.7-38.1 75.3-96.2 141.4-173.8 197.7-136.1 98.8-326.7 156.6-487.9 148.1zm71.9-144.6c183.2-8.8 361.8-75.8 477.6-179.2 19.9-17.8 41.4-40.6 56-59.4 36.7-47.3 57.7-94.2 66-147.4 1.5-9.9 1.7-14 1.7-36.1 0-27-.8-35.3-5.4-56.1-17.7-79.7-71.6-154.6-157.1-218.4-107.2-80-256.1-133.1-408.4-145.7-129.1-10.7-264.4 9.3-384.9 56.8-126.4 49.8-225.5 124.9-280 211.8-23.2 37.1-37.1 73.9-43.6 115.4-1.5 9.9-1.7 14-1.7 36.1 0 27 .8 35.3 5.4 56.1 17.7 79.7 71.6 154.6 157.1 218.4 107.3 80.1 255.7 133 408.8 145.8 31.2 2.6 77.2 3.4 108.5 1.9z"/></g></svg>