<svg height="1135.0874" viewBox="0 0 104.94552 87.517963" width="1361.1188" xmlns="http://www.w3.org/2000/svg"><g stroke-width=".059294"><path d="m55.496764 76.310081c14.127788-.678947 27.893554-5.845683 36.821669-13.820368 1.532379-1.368745 3.192479-3.129703 4.317664-4.579973 2.832388-3.650737 4.452203-7.266853 5.090703-11.364598.11871-.76184.13396-1.079258.13396-2.786823 0-2.084013-.0616-2.719663-.41969-4.328475-1.36765-6.145049-5.523556-11.921335-12.113854-16.837-8.265193-6.164961-19.742262-10.2601-31.488337-11.235374-9.950603-.826196-20.383727.714556-29.676723 4.382629-9.739519 3.844317-17.384743 9.631247-21.583492 16.33727-1.7907277 2.86006-2.8613192 5.694016-3.3599436 8.89412-.1187077.76184-.1339653 1.079258-.1339653 2.78683 0 2.084014.061599 2.719664.4196911 4.32847 1.3678374 6.145913 5.5226363 11.920645 12.1138568 16.837 8.27473 6.172068 19.713493 10.250956 31.517984 11.238823 2.398493.200717 5.949195.263347 8.360477.147469z" fill="#fff"/><path d="m17.340971 56.411359c-3.037573-.209714-5.288335-1.090247-7.009435-2.742196-1.7795687-1.708072-2.8562662-4.040205-3.2890078-7.124021-.1289819-.919123-.1470003-3.766115-.0302229-4.773176.4282427-3.692789 1.5315334-6.315444 3.4548187-8.212518.699819-.690284 1.471795-1.229538 2.456417-1.715895 1.679664-.829671 3.407023-1.193906 5.662592-1.194023 4.527295-.000238 8.140888 1.939418 9.785123 5.252312.575181 1.158924 1.005946 2.710434 1.027548 3.701016l.0085.390281h-6.459617l-.139717-.532856c-.451075-1.720239-1.375413-2.828702-2.709843-3.249633-.556948-.175684-2.024098-.186866-2.668239-.02034-.686306.177429-1.340883.533461-1.843121 1.002492-.952153.889209-1.477148 1.927072-1.848375 3.654082-.155836.724981-.160643.804498-.161619 2.674252-.000769 2.074777.05291 2.656841.3536 3.814249.520434 2.003041 1.656417 3.261661 3.299329 3.655513.681392.16335 1.755275.16468 2.38758.0031 1.538409-.39346 2.756885-1.714409 3.155389-3.420782.05206-.222942.11261-.472054.13455-.553587l.03991-.148231h6.400908l.01784.213022c.02615.312373-.197703 1.33683-.470424 2.152634-1.355964 4.056293-4.499056 6.571002-8.856602 7.085976-.596807.07052-2.19743.123015-2.697885.08846zm25.466839-.0038c-3.895612-.244975-7.158197-1.862586-9.187593-4.555279-.902474-1.197436-1.608268-2.716857-2.019592-4.347734-.490549-1.94501-.583033-4.683854-.230601-6.829212.879956-5.356551 4.444262-8.923254 9.836847-9.843456 1.368499-.233524 3.366435-.245435 4.761103-.02838 5.27767.821357 8.869845 4.22511 9.911875 9.39196.280742 1.392081.383862 3.583759.237792 5.05407-.558355 5.620203-3.735223 9.462737-8.887779 10.75011-1.383364.345634-3.016686.496302-4.422052.407925zm2.475065-5.58522c.969418-.255949 1.598324-.587586 2.245587-1.184146 1.191744-1.098392 1.877705-2.895318 2.00278-5.246447.127413-2.394955-.237807-4.385164-1.062824-5.791706-.536284-.914291-1.21963-1.543447-2.162254-1.990788-.66978-.317856-1.063832-.42165-1.941881-.511496-.76717-.0785-1.771679-.01132-2.445889.163581-.539529.139961-1.495158.630458-1.927538.989345-.953506.791446-1.638852 2.078555-1.992075 3.741216-.131551.619224-.157621.919184-.184529 2.123479-.04276 1.913865.06829 2.812755.50876 4.118324.706117 2.09288 2.184941 3.380192 4.247621 3.697525.608296.09359 2.185141.0303 2.712242-.108887zm34.509754 5.565564c-2.271119-.237162-4.060816-1.164352-5.236803-2.713035-.371588-.489365-.837813-1.432628-1.003417-2.030119-.37541-1.354479-.399888-3.2011-.0606-4.57366.671118-2.715157 2.564096-4.535507 5.543238-5.330563.408479-.10901 1.945373-.369534 4.008253-.679462 1.840161-.276466 3.515434-.544089 3.722834-.59473.725158-.177039 1.270201-.55936 1.522297-1.067792.17547-.35391.161074-1.406221-.02576-1.882673-.174117-.444039-.662244-.972905-1.126162-1.220171-.646771-.344725-1.135021-.435854-2.496637-.46598-1.432928-.03171-1.845859.03142-2.583022.394801-.957405.471964-1.475494 1.20681-1.737495 2.464459l-.09882.474353h-3.082331-3.082339l.01846-.326117c.03015-.532389.296846-1.759294.542875-2.497012.438355-1.314484.999379-2.245582 1.893985-3.143333.835883-.838827 1.712917-1.380544 2.914721-1.800334 1.532087-.535157 3.065474-.746097 5.421509-.745807 1.97764.000237 3.380622.197675 4.866022.684757 2.842331.932039 4.422829 2.552443 4.931989 5.056525.08089.397776.09848 1.516407.13222 8.40427.03614 7.383076.04645 7.974792.145677 8.360469.207808.807936.587548 1.383164 1.035647 1.56877.09497.03937.188205.129382.207169.200086.05545.206754.0413.630706-.0253.755043-.0596.111348-.160697.114693-3.47173.114693h-3.410359l-.08512-.203716c-.151445-.36246-.369658-1.293188-.445738-1.901222-.04084-.326123-.09515-.616656-.120769-.645633-.02561-.02899-.308366.192973-.628337.493226-1.742248 1.634907-3.334727 2.436453-5.475902 2.756208-.743115.110971-2.096694.157775-2.710243.0937zm3.99424-4.657053c2.354597-.410609 4.119555-1.885534 4.551658-3.80369.07706-.34205.09614-.780482.09614-2.208704 0-1.173365-.02069-1.781945-.0606-1.781945-.0333 0-.160051.06498-.281643.144454-.573643.374811-1.771471.713085-3.778735 1.067139-1.422338.250881-2.138475.437656-2.735259.713384-.602613.278428-.996611.579096-1.301401.993119-.321109.436195-.475069.846096-.561362 1.494528-.223603 1.680272.593531 2.972367 2.137315 3.379661.433472.114363 1.284666.115263 1.933852.0023zm-25.434108 4.024963c-.02176-.02176-.03953-5.528796-.03953-12.237894 0-11.068622.0087-12.201705.09379-12.234363.169333-.06498 5.834363-.04084 5.958108.02539.109987.05886.114693.145217.114693 2.104942 0 1.21245.0223 2.043562.05483 2.043562.03015 0 .245582-.333448.478699-.740996 1.337868-2.338963 2.544886-3.385576 4.488697-3.892203.455889-.118818.667742-.136239 1.677995-.137984.635935-.0011 1.203165.01726 1.260512.04081.09797.04021.10335.237412.08895 3.25901l-.0153 3.216204-1.274823-.01768c-1.866339-.02588-2.755001.12331-3.82643.642393-1.281206.620715-2.114952 1.73098-2.495153 3.322684-.09797.410179-.108741.990267-.138679 7.471062-.01784 3.864497-.05406 7.059714-.08042 7.100473-.03738.05775-.738924.07414-3.177183.07414-1.721061 0-3.146999-.01777-3.16874-.03953z" fill="#eb212e"/><path d="m49.952756 87.45422c-6.739836-.356007-13.957994-2.029889-20.573723-4.771039-10.017778-4.150746-18.084154-10.411014-23.1089505-17.934739-2.016446-3.019255-3.6297967-6.38805-4.6428492-9.694592-.79848511-2.606239-1.31851941-5.350196-1.55075146-8.182592-.10198123-1.243847-.10198123-4.982031 0-6.225885.53834494-6.565903 2.58933586-12.484142 6.19492336-17.875747 4.3279928-6.471858 10.8468468-11.981306 19.0136208-16.0694735 8.500825-4.2553874 18.421143-6.70015303 27.18773-6.70015303 8.766594 0 18.686913 2.44476563 27.18773 6.70015303 8.165166 4.0873595 14.679084 9.5921055 19.013759 16.0680345 2.009125 3.001595 3.630355 6.385964 4.644045 9.694594.79848 2.60624 1.31852 5.3502 1.55075 8.182592.10198 1.243854.10198 4.982038 0 6.225885-.41434 5.053458-1.66493 9.531542-3.89137 13.934123-2.935807 5.805301-7.417621 10.901517-13.402768 15.240107-10.495531 7.608141-25.193517 12.065231-37.622146 11.408732zm5.544008-11.144139c14.127788-.678947 27.893554-5.845683 36.821669-13.820368 1.532379-1.368745 3.192479-3.129703 4.317664-4.579973 2.832388-3.650737 4.452203-7.266853 5.090703-11.364598.11871-.76184.13396-1.079258.13396-2.786823 0-2.084013-.0616-2.719663-.41969-4.328475-1.36765-6.145049-5.523556-11.921335-12.113854-16.837-8.265193-6.164961-19.742262-10.2601-31.488337-11.235374-9.950603-.826196-20.383727.714556-29.676723 4.382629-9.739519 3.844317-17.384743 9.631247-21.583492 16.33727-1.7907277 2.86006-2.8613192 5.694016-3.3599436 8.89412-.1187077.76184-.1339653 1.079258-.1339653 2.78683 0 2.084014.061599 2.719664.4196911 4.32847 1.3678374 6.145913 5.5226363 11.920645 12.1138568 16.837 8.27473 6.172068 19.713493 10.250956 31.517984 11.238823 2.398493.200717 5.949195.263347 8.360477.147469z" fill="#283f93"/></g></svg>