<?xml version="1.0" encoding="utf-8"?>
<!-- Generator: Adobe Illustrator 24.2.1, SVG Export Plug-In . SVG Version: 6.00 Build 0)  -->
<svg version="1.1" id="Calque_1" xmlns="http://www.w3.org/2000/svg" xmlns:xlink="http://www.w3.org/1999/xlink" x="0px" y="0px"
	 viewBox="0 0 134.3 92.6" style="enable-background:new 0 0 134.3 92.6;" xml:space="preserve">
<style type="text/css">
	.st0{fill:#003D76;}
	.st1{fill:#FDFDFB;}
	.st2{fill:#F50016;}
</style>
<g>
	<g>
		<ellipse class="st0" cx="67.1" cy="46.3" rx="67.1" ry="46.2"/>
	</g>
	<g>
		<path class="st1" d="M39.3,26.5c-0.2,0-0.4,0-0.7-0.1c-1.7-0.5-3.4-0.7-5-0.7c-0.8,0-1.7,0.1-2.6,0.2c-0.9,0.1-1.9,0.3-2.9,0.6
			c0,1.4-0.1,3.6-0.1,6.3c0.6-0.1,2.6-0.2,6.3-0.6c2-0.2,3.3-0.3,3.9-0.3c0.6,0,1.2,0.2,1.6,0.6c0.4,0.4,0.7,0.9,0.7,1.6
			c0,1.3-0.7,2-2,2.2c-0.8,0.1-2.2,0.1-3.8,0.3c-1.5,0.1-3.8,0.3-6.8,0.6c-0.1,1.3-0.1,2.4-0.1,3.3c0,2.1,0.1,3.3,0.3,3.6
			c0.1,0.1,0.8,0.2,2,0.2c0.6,0,1.7,0,3-0.1c1.3,0,2.3-0.1,3-0.1c0.2,0,0.6,0,1-0.1c0.4-0.1,0.7-0.1,0.9-0.1c0.6,0,1.1,0.2,1.6,0.6
			c0.5,0.4,0.8,1,0.8,1.7c0,1.2-0.6,1.9-1.9,2.2c-1,0.2-3.3,0.3-6.6,0.3c-3.5,0-5.7-0.5-6.8-1.4c-1.2-1-1.7-3.3-1.7-6.7
			c0-1.4,0.1-3.6,0.3-6.4c0.2-2.9,0.3-5,0.3-6.4c0-0.3-0.1-0.9-0.1-1.7c-0.1-0.7-0.1-1.3-0.1-1.7c0-1.6,0.8-2.4,2.2-2.4
			c0.5,0,0.9,0.1,1.3,0.4c1.3-0.3,2.4-0.6,3.6-0.7c1.1-0.1,2.2-0.2,3.1-0.2c2.7,0,4.8,0.3,6.4,0.9c1,0.3,1.5,1,1.5,2
			c0,0.6-0.2,1-0.6,1.5C40.5,26.3,39.9,26.5,39.3,26.5z"/>
		<path class="st1" d="M77.2,37.7c-0.7,3.2-2.2,5.7-4.4,7.6c-2.2,1.9-4.8,2.9-7.8,2.9c-2.9,0-4.9-0.8-6.4-2.2
			c-1.4-1.5-2.2-3.8-2.2-6.8c0-2.7,0.7-5.5,2-8.4c1.3-2.9,3.1-5.2,5.2-7c1.5-1.3,3.1-1.9,4.7-1.9c1,0,2.4,0.3,4.2,1.1
			c2.1,0.9,3.1,1.8,3.1,2.9c0,0.6-0.2,1.1-0.6,1.5c-0.4,0.5-1,0.7-1.6,0.7c-0.3,0-1-0.3-2.1-0.9c-1.1-0.6-2.1-0.9-3-0.9
			c-1,0-2.2,1-3.9,3.1c-2.4,3-3.6,6.3-3.6,9.7c0,1.8,0.3,3,0.8,3.6c0.6,0.7,1.6,1,3.2,1s3.1-0.5,4.3-1.4c1.3-1,2.3-2.4,2.9-4.3
			c-2.4,0.2-4.6,0.7-6.5,1.5c-0.3,0.1-0.6,0.2-1,0.2c-0.6,0-1.2-0.3-1.7-0.8c-0.4-0.4-0.6-0.9-0.6-1.5c0-1.6,1.9-2.8,5.8-3.4
			c2.2-0.3,4.7-0.6,7.6-0.6c0.6,0,1.2,0.2,1.6,0.6c0.4,0.4,0.6,0.9,0.6,1.5C78.2,36.6,77.9,37.2,77.2,37.7z"/>
		<path class="st1" d="M112,47.5c-0.8,0-1.7-1-2.5-3c-0.6-1.3-1-2.7-1.5-4.3c-0.8,0.1-2.1,0.2-3.9,0.3c-1.7,0.1-3,0.3-3.9,0.4
			c-0.5,1.2-1.3,2.9-2.6,5.3c-0.5,0.8-1.1,1.2-1.9,1.2c-0.6,0-1.1-0.2-1.6-0.6c-0.5-0.4-0.7-0.9-0.7-1.5c0-0.6,0.8-2.4,2.4-5.5
			c-0.1-0.3-0.2-0.6-0.2-0.9c0.1-0.5,0.6-0.9,1.5-1.2c1.5-2.6,3.2-5.4,5.1-8.1c2.6-4,4.3-6.1,4.9-6.1c1.2,0,1.9,0.7,2.4,2.2
			c0.2,1.1,0.6,2.9,1,5.2c0.6,3.1,1.5,6.5,2.4,10.5c0.1,0.3,0.3,1,0.8,2.1c0.4,0.9,0.6,1.6,0.6,2.1c0,0.6-0.2,1.1-0.7,1.5
			C113.2,47.4,112.6,47.6,112,47.5z M106.1,31.1c-0.8,1.5-1.9,3.3-3.4,5.8c0.5-0.1,1.3-0.2,2.2-0.3c1.2-0.1,1.9-0.1,2.2-0.2
			C106.8,35.2,106.5,33.4,106.1,31.1z"/>
	</g>
	<g>
		
			<rect x="13.1" y="50.4" transform="matrix(1 -2.965021e-03 2.965021e-03 1 -0.1532 0.2042)" class="st2" width="111.4" height="2.8"/>
	</g>
	<g>
		<path class="st1" d="M54.6,59.1c-0.1,0.1-0.1,0.3-0.1,0.6c0,0.1,0,0.2,0,0.4s0,0.3,0,0.4c0,0.3,0,0.8-0.1,1.4s-0.1,1.1-0.1,1.4
			c0,0.2,0,0.6,0.1,1.1c0.1,0.5,0.1,0.8,0.1,1.1c0,0.1-0.1,0.2-0.1,0.3C54.3,66,54.2,66,54,66c-0.1,0-0.2-0.1-0.3-0.1
			c-0.1-0.1-0.1-0.2-0.1-0.3c0-0.3,0-0.6-0.1-1.1c-0.1-0.5-0.1-0.8-0.1-1.1c0-0.2,0-0.5,0-0.7c-0.6,0-1.2,0.1-2,0.2l-1.9,0.5
			c0,0.3,0,0.7-0.1,1.2c-0.1,0.6-0.1,0.9-0.1,1.3c0,0.1-0.1,0.2-0.1,0.3c-0.1,0.1-0.2,0.1-0.3,0.1c-0.1,0-0.2-0.1-0.3-0.1
			c-0.1-0.1-0.1-0.2-0.1-0.3c0-0.3,0-0.8,0.1-1.5c0.1-0.7,0.1-1.2,0.1-1.5c0-0.2,0-0.4,0-0.8c0-0.3,0-0.6,0-0.8c0-0.3,0-0.6,0.1-1.1
			c0-0.5,0.1-0.9,0.1-1.1c0-0.1,0.1-0.3,0.1-0.3s0.2-0.1,0.3-0.1c0.1,0,0.2,0.1,0.3,0.1c0.1,0.1,0.1,0.2,0.1,0.3
			c0,0.3,0,0.6-0.1,1.1c0,0.5-0.1,0.9-0.1,1.1v1.2l2-0.4c0.8-0.1,1.5-0.2,2.1-0.2c0.1-0.5,0.1-1.1,0.1-2c0-0.2,0.1-0.5,0.1-0.8
			c0.1-0.3,0.3-0.5,0.4-0.5c0.1,0,0.2,0.1,0.3,0.1c0.1,0.1,0.1,0.2,0.1,0.3C54.6,59,54.6,59.1,54.6,59.1z"/>
		<path class="st1" d="M61.6,59.8c-0.2,0-0.6,0-1.1-0.1c-0.5,0-0.8-0.1-1.1-0.1h-0.3c0,0.4,0.1,1.1,0.1,2.2c0.1,0.9,0.1,1.6,0.1,2.2
			c0,0.1,0,0.3,0,0.5s0,0.4,0,0.5c0,0.2-0.1,0.4-0.1,0.6c-0.1,0.2-0.2,0.3-0.4,0.3c-0.1,0-0.2-0.1-0.3-0.1c-0.1-0.1-0.1-0.2-0.1-0.3
			c0-0.1,0-0.1,0-0.2c0-0.1,0-0.1,0-0.2c0-0.1,0-0.4,0-0.7c0-0.3,0-0.6,0-0.7c0-0.5-0.1-1.1-0.1-1.9c-0.1-0.9-0.1-1.5-0.1-1.9h-0.4
			c-0.7,0-1.3-0.1-1.7-0.1c-0.3-0.1-0.4-0.2-0.4-0.5c0-0.1,0.1-0.3,0.1-0.3c0.1-0.1,0.2-0.1,0.3-0.1c0.1,0,0.3,0,0.8,0.1
			c0.3,0.1,0.6,0.1,0.8,0.1s0.5,0,0.8,0c0.4,0,0.7,0,0.8,0c0.3,0,0.6,0,1.1,0.1s0.8,0.1,1.1,0.1c0.1,0,0.3,0.1,0.3,0.1
			s0.1,0.2,0.1,0.3c0,0.1-0.1,0.3-0.1,0.3C61.9,59.8,61.8,59.8,61.6,59.8z"/>
		<path class="st1" d="M67.7,66c-0.3,0-0.6-0.3-0.8-1.1c-0.1-0.3-0.2-0.8-0.3-1.5c-0.3,0.1-0.8,0.1-1.3,0.2l-1.3,0.3
			c-0.1,0.4-0.4,1-0.8,1.8c-0.1,0.2-0.2,0.3-0.4,0.3c-0.1,0-0.2-0.1-0.3-0.1c-0.1-0.1-0.1-0.2-0.1-0.3s0.2-0.8,0.7-1.7
			C63,63.6,63,63.5,63,63.4c0-0.3,0.1-0.4,0.5-0.5c0.3-0.7,0.8-1.5,1.4-2.4c0.8-1.2,1.3-1.8,1.4-1.8c0.3,0,0.4,0.2,0.5,0.6l0.3,1.6
			l0.7,3.3L68,65c0.1,0.3,0.1,0.4,0.1,0.5c0,0.1-0.1,0.3-0.1,0.3C68,65.9,67.8,66,67.7,66z M66,60.5l-1.4,2.2c0.4-0.1,1-0.2,1.7-0.3
			L66,60.5z"/>
		<path class="st1" d="M75.1,63.6c-0.4,0.1-1.2,0.1-2.3,0.1c-0.3,0-0.4-0.1-0.4-0.3s0.1-0.3,0.4-0.3c0.3,0,0.6,0,1.1,0
			c0.5,0,0.9,0,1.1,0c0.3,0,0.4,0.1,0.4,0.3C75.4,63.4,75.3,63.5,75.1,63.6z"/>
		<path class="st1" d="M83,65.6c-0.7,0.3-1.6,0.4-2.7,0.4c-0.1,0-0.3-0.1-0.4-0.2s-0.2-0.3-0.2-0.4V64c0-0.5,0-1.1,0.1-1.9
			c0.1-0.9,0.1-1.5,0.1-1.9c0-0.3,0-0.7,0.1-1.3c0-0.1,0.1-0.3,0.1-0.3c0.4-0.1,0.9-0.2,1.5-0.2c0.6,0,1.1,0.2,1.6,0.6
			c0.6,0.4,0.9,1,0.9,1.6c0,0.8-0.3,1.5-1,1.9c0.5,0.2,0.8,0.4,1,0.7c0.2,0.3,0.3,0.5,0.3,0.8c0,0.4-0.2,0.8-0.6,1.1
			C83.6,65.3,83.4,65.5,83,65.6z M82.1,63.1L81.6,63c-0.1,0-0.1,0-0.2,0c-0.1,0-0.1,0-0.2,0c-0.1,0-0.3,0-0.6-0.1c0,0.4,0,0.8,0,1v1
			c0.8,0,1.5-0.1,2-0.3c0.2-0.1,0.4-0.2,0.6-0.4c0.2-0.1,0.3-0.3,0.3-0.3c0-0.1-0.2-0.3-0.6-0.5C82.7,63.3,82.4,63.2,82.1,63.1z
			 M81.5,59.3c-0.3,0-0.6,0-0.7,0v0.8L80.8,62c0.4,0.1,0.7,0.1,0.7,0.1c0.5-0.1,0.9-0.2,1.2-0.4c0.3-0.3,0.5-0.6,0.5-1.1
			c0-0.3-0.1-0.6-0.5-0.8C82.3,59.4,82,59.3,81.5,59.3z"/>
		<path class="st1" d="M91.4,59.8c-0.2,0-0.6,0-1.1-0.1c-0.5,0-0.8-0.1-1.1-0.1h-0.3c0,0.4,0.1,1.1,0.1,2.2c0.1,0.9,0.1,1.6,0.1,2.2
			c0,0.1,0,0.3,0,0.5s0,0.4,0,0.5c0,0.2,0,0.4-0.1,0.6c-0.1,0.2-0.2,0.3-0.4,0.3c-0.1,0-0.2-0.1-0.3-0.1c-0.1-0.1-0.1-0.2-0.1-0.3
			c0-0.1,0-0.1,0-0.2c0-0.1,0-0.1,0-0.2c0-0.1,0-0.4,0-0.7c0-0.3,0-0.6,0-0.7c0-0.5-0.1-1.1-0.1-1.9c-0.1-0.9-0.1-1.5-0.1-1.9h-0.4
			c-0.7,0-1.3-0.1-1.7-0.1c-0.3-0.1-0.4-0.2-0.4-0.5c0-0.1,0.1-0.3,0.1-0.3c0.1-0.1,0.2-0.1,0.3-0.1s0.3,0,0.8,0.1
			c0.3,0.1,0.6,0.1,0.8,0.1c0.2,0,0.5,0,0.8,0c0.4,0,0.7,0,0.8,0c0.3,0,0.6,0,1.1,0.1c0.5,0,0.8,0.1,1.1,0.1c0.1,0,0.3,0.1,0.3,0.1
			s0.1,0.2,0.1,0.3c0,0.1-0.1,0.3-0.1,0.3C91.6,59.8,91.6,59.8,91.4,59.8z"/>
	</g>
	<g>
		<path class="st1" d="M29.2,68.7c-0.1,0-0.1,0-0.1,0c-0.5-0.1-0.9-0.2-1.3-0.2c-0.2,0-0.5,0-0.7,0.1c-0.2,0.1-0.6,0.1-0.8,0.2
			c0,0.2,0.1,0.3,0.1,0.4c0,0.3,0,0.9-0.1,1.5l1.8-0.1c0.6-0.1,0.8-0.1,1-0.1c0.1,0,0.2,0.1,0.3,0.1s0.1,0.2,0.1,0.3
			c0,0.3-0.1,0.4-0.3,0.4l-1,0.1l-1.9,0.1c0,0.2,0,0.3,0,0.6s0,0.3,0,0.5c0,0.6,0.1,1,0.1,1c0.1,0.1,0.3,0.1,0.6,0.1
			c0.1,0,0.4,0,0.8,0c0.3,0,0.6,0,0.8,0c0.1,0,0.1,0,0.2,0c0.1,0,0.2,0,0.2,0c0.3,0,0.4,0.1,0.4,0.4c0,0.2-0.1,0.3-0.3,0.4
			c-0.3,0.1-0.8,0.1-1.7,0.1c-0.8,0-1.4-0.1-1.6-0.3c-0.3-0.2-0.4-0.8-0.4-1.7c0-0.1,0-0.3,0-0.6c0-0.2,0-0.4,0-0.7
			c0-0.1-0.1-0.1-0.1-0.2s0-0.2,0.1-0.3c0.1-0.8,0.1-1.4,0.1-1.7c0-0.1,0-0.3-0.1-0.4c-0.1-0.1-0.1-0.3-0.1-0.4
			c0-0.3,0.1-0.5,0.4-0.5c0.1,0,0.2,0.1,0.3,0.1c0.3-0.1,0.6-0.1,0.9-0.2c0.3-0.1,0.6-0.1,0.8-0.1c0.6,0,1.2,0.1,1.6,0.2
			c0.2,0.1,0.3,0.2,0.3,0.4c0,0.1-0.1,0.2-0.1,0.3C29.4,68.6,29.3,68.7,29.2,68.7z"/>
		<path class="st1" d="M33.4,72.9l-0.2,1.5c-0.1,0.6-0.1,1.1-0.1,1.6c0,0.1-0.1,0.2-0.1,0.3c-0.1,0.1-0.1,0.1-0.3,0.1
			c-0.3,0-0.4-0.1-0.4-0.4c0-0.1,0-0.3,0-0.5l0.1-0.5l0.1-0.9c-0.2,0.1-0.4,0.1-0.5,0.1c-0.6,0-1-0.1-1.5-0.5s-0.6-0.8-0.6-1.4
			c0-0.8,0.2-1.5,0.7-1.9s1.1-0.8,1.9-0.8c0.1,0,0.3,0.1,0.3,0.2c0.1-0.1,0.2-0.1,0.3-0.1c0.1,0,0.2,0.1,0.3,0.1
			c0.1,0.1,0.1,0.2,0.1,0.3C33.6,71.1,33.6,71.9,33.4,72.9z M32.2,70.6c-0.5,0.1-0.9,0.3-1.1,0.8c-0.2,0.3-0.3,0.8-0.3,1.2
			c0,0.3,0.1,0.6,0.3,0.8c0.2,0.2,0.5,0.3,0.9,0.3c0.3,0,0.4-0.1,0.6-0.4c0.1-0.3,0.2-0.8,0.2-1.5l0.1-1.1c-0.1,0-0.1,0-0.3,0
			C32.4,70.6,32.3,70.6,32.2,70.6z"/>
		<path class="st1" d="M37.9,71.8c0,0.2,0,0.5,0,0.9c0,0.4,0,0.7,0,0.9c0,0.1,0,0.1,0,0.3c0,0.1,0,0.2,0,0.3c0,0.1-0.1,0.2-0.1,0.3
			c-0.1,0.1-0.2,0.1-0.3,0.1c-0.2,0-0.3-0.1-0.4-0.4c-0.3,0.2-0.8,0.3-1.2,0.3c-0.3,0-0.6-0.1-0.9-0.2c-0.3-0.1-0.4-0.4-0.5-0.8
			c-0.1-0.7-0.1-1.4-0.1-1.9c0-0.3,0.1-0.8,0.1-1.3c0.1-0.2,0.1-0.3,0.4-0.3c0.1,0,0.2,0.1,0.3,0.1c0.1,0.1,0.1,0.1,0.1,0.3
			c0,0.1,0,0.3-0.1,0.6c-0.1,0.3-0.1,0.5-0.1,0.6c0,0.5,0,0.8,0.1,1.2c0.1,0.3,0.1,0.6,0.1,0.8c0.1,0.1,0.2,0.1,0.3,0.1
			c0.1,0.1,0.1,0.1,0.3,0.1c0.3,0,0.8-0.1,1.2-0.2v-0.8v-0.8c0-0.6,0-1.1,0.1-1.5c0-0.3,0.1-0.3,0.4-0.3c0.1,0,0.2,0.1,0.3,0.1
			s0.1,0.1,0.1,0.3L37.9,71.8z"/>
		<path class="st1" d="M39.8,72.3c0,0.1,0,0.4,0,0.8c0,0.3,0,0.6,0,0.8c0,0.1-0.1,0.2-0.1,0.3c-0.1,0.1-0.1,0.1-0.3,0.1
			c-0.1,0-0.2-0.1-0.3-0.1C39,74,39,73.9,39,73.8c0-0.1,0-0.4,0-0.8c0-0.3,0-0.6,0-0.8c0-0.3,0-0.6,0.1-1c0.1-0.4,0.1-0.7,0.1-1
			c0-0.1,0.1-0.2,0.1-0.3c0.1-0.1,0.1-0.1,0.3-0.1s0.2,0.1,0.3,0.1c0.1,0.1,0.1,0.2,0.1,0.3c0,0.3,0,0.6-0.1,1S39.8,72.1,39.8,72.3z
			 M39.6,69c-0.1,0-0.2-0.1-0.3-0.1c-0.1-0.1-0.1-0.2-0.1-0.3s0.1-0.2,0.1-0.3c0.1-0.1,0.2-0.1,0.3-0.1s0.2,0.1,0.3,0.1
			c0.1,0.1,0.1,0.2,0.1,0.3s-0.1,0.2-0.1,0.3C39.8,69,39.7,69,39.6,69z"/>
		<path class="st1" d="M42.8,74.3c-0.3,0-0.6-0.1-0.9-0.1v1.9c0,0.1-0.1,0.2-0.1,0.3c-0.1,0.1-0.1,0.1-0.3,0.1
			c-0.1,0-0.2-0.1-0.3-0.1c-0.1-0.1-0.1-0.1-0.1-0.3v-1.6v-1.6c0-0.6,0-1.1-0.1-1.6l-0.1-0.8c0-0.2,0.1-0.3,0.1-0.5
			c0.1-0.1,0.2-0.2,0.3-0.2s0.2,0.1,0.3,0.1c0.1,0.1,0.1,0.1,0.1,0.3c0,0,0,0.1,0,0.1c0,0.1,0,0.1,0,0.2c0.2-0.1,0.5-0.3,0.7-0.3
			s0.4-0.1,0.6-0.1c0.6,0,1,0.3,1.3,0.8c0.2,0.4,0.3,0.9,0.3,1.5c0,0.6-0.1,1-0.5,1.5C43.7,74.1,43.3,74.3,42.8,74.3z M43,70.8
			c-0.3,0-0.5,0.1-0.7,0.1c-0.1,0.1-0.3,0.2-0.6,0.4c0.1,0.6,0.1,1.3,0.1,1.9c0.3,0.1,0.6,0.1,0.9,0.1c0.3,0,0.6-0.1,0.8-0.3
			c0.1-0.2,0.2-0.5,0.2-0.8c0-0.5-0.1-0.8-0.2-1.1C43.4,70.8,43.3,70.8,43,70.8z"/>
		<path class="st1" d="M47.3,74.4c-0.6,0-1.1-0.1-1.5-0.5c-0.4-0.3-0.6-0.8-0.6-1.5c0-0.7,0.1-1.3,0.5-1.8c0.3-0.6,0.8-0.8,1.5-0.8
			c0.4,0,0.8,0.1,1.1,0.2c0.3,0.2,0.6,0.5,0.6,0.8c0,0.3-0.1,0.5-0.5,0.8c-0.1,0.1-0.4,0.3-0.8,0.5L46,72.9c0.1,0.2,0.3,0.4,0.6,0.5
			c0.2,0.1,0.5,0.1,0.8,0.1c0.2,0,0.4-0.1,0.6-0.1c0.3-0.1,0.6-0.2,0.6-0.3c0.1-0.1,0.2-0.2,0.3-0.2c0.1,0,0.2,0.1,0.3,0.1
			c0.1,0.1,0.1,0.1,0.1,0.3c0,0.3-0.2,0.6-0.7,0.8C48.1,74.2,47.7,74.4,47.3,74.4z M47.2,70.6c-0.3,0-0.6,0.1-0.8,0.4
			c-0.2,0.3-0.4,0.6-0.5,1.2l1.3-0.6c0.5-0.2,0.8-0.4,1-0.6C47.9,70.8,47.6,70.6,47.2,70.6z"/>
		<path class="st1" d="M55,74.5c-0.2,0-0.3-0.1-0.4-0.3c-0.1-0.3-0.1-0.7-0.1-1.3l-0.1-1.3c0-0.2-0.1-0.3-0.1-0.6
			c-0.1-0.3-0.2-0.3-0.3-0.3c-0.1,0-0.3,0.1-0.6,0.3c-0.3,0.1-0.4,0.3-0.5,0.3c0,0.3,0,0.5,0,0.8l0.1,1.1c0.1,0.4,0.1,0.8,0.1,1
			c0,0.1-0.1,0.2-0.1,0.3c-0.1,0.1-0.1,0.1-0.3,0.1s-0.2-0.1-0.3-0.1c-0.1-0.1-0.1-0.2-0.1-0.3c0-0.3,0-0.8-0.1-1.5
			s-0.1-1.1-0.1-1.5c0-0.3-0.1-0.5-0.1-0.7c-0.2,0.1-0.4,0.2-0.6,0.4l-0.5,0.6c-0.1,0.1-0.1,0.1-0.2,0.3c0,0.1,0,0.4-0.1,0.7
			c-0.1,0.3-0.1,0.6-0.1,0.7c0,0.1,0,0.2,0.1,0.3c0.1,0.1,0.1,0.3,0.1,0.3c0,0.1-0.1,0.2-0.1,0.3c-0.1,0.1-0.2,0.1-0.3,0.1
			c-0.3,0-0.5-0.3-0.5-1c0-0.1,0-0.4,0.1-0.7c0.1-0.3,0.1-0.6,0.1-0.7c0-0.1,0-0.3-0.1-0.6c-0.1-0.3-0.1-0.5-0.1-0.6
			c0-0.6,0.1-0.9,0.4-0.9c0.1,0,0.2,0.1,0.3,0.1c0.1,0.1,0.1,0.2,0.1,0.3c0,0.1,0,0.1,0,0.2s0,0.2,0,0.3v0.4
			c0.1-0.3,0.3-0.6,0.6-0.8c0.3-0.2,0.5-0.3,0.7-0.3c0.4,0,0.7,0.2,0.9,0.6c0.1-0.2,0.3-0.3,0.6-0.4c0.2-0.1,0.4-0.1,0.7-0.1
			c0.5,0,0.8,0.3,0.9,0.8c0,0.1,0.1,0.5,0.1,1.1c0.1,0.5,0.1,1.3,0.3,2.4c0,0.1,0,0.2-0.1,0.3C55.2,74.7,55.2,74.5,55,74.5z"/>
		<path class="st1" d="M58.1,74.4c-0.6,0-1.1-0.1-1.5-0.5c-0.4-0.3-0.6-0.8-0.6-1.5c0-0.7,0.1-1.3,0.5-1.8c0.3-0.6,0.8-0.8,1.5-0.8
			c0.4,0,0.8,0.1,1.1,0.2c0.3,0.2,0.6,0.5,0.6,0.8c0,0.3-0.1,0.5-0.5,0.8c-0.1,0.1-0.4,0.3-0.8,0.5l-1.5,0.8
			c0.1,0.2,0.3,0.4,0.6,0.5c0.2,0.1,0.5,0.1,0.8,0.1c0.2,0,0.4-0.1,0.6-0.1c0.3-0.1,0.6-0.2,0.6-0.3c0.1-0.1,0.2-0.2,0.3-0.2
			c0.1,0,0.2,0.1,0.3,0.1c0.1,0.1,0.1,0.1,0.1,0.3c0,0.3-0.2,0.6-0.7,0.8C58.9,74.2,58.6,74.4,58.1,74.4z M58,70.6
			c-0.3,0-0.6,0.1-0.8,0.4c-0.2,0.3-0.4,0.6-0.5,1.2l1.3-0.6c0.5-0.2,0.8-0.4,1-0.6C58.8,70.8,58.4,70.6,58,70.6z"/>
		<path class="st1" d="M63.9,74.5c-0.2,0-0.3-0.1-0.4-0.4l-0.1-0.9c-0.1-0.3-0.1-0.6-0.1-0.9c0-0.1,0-0.2,0-0.4c0-0.2,0-0.3,0-0.4
			c0-0.6-0.1-0.9-0.3-0.9c-0.3,0-0.6,0.2-0.9,0.6c-0.3,0.3-0.4,0.8-0.6,1.3c0,0.1,0,0.2-0.1,0.4c0,0.1,0,0.3,0,0.4
			c0,0.1,0,0.2,0,0.3s0,0.3,0,0.3c0,0.1-0.1,0.2-0.1,0.3c-0.1,0.1-0.1,0.1-0.3,0.1c-0.1,0-0.2-0.1-0.3-0.1c-0.1-0.1-0.1-0.2-0.1-0.3
			c0-0.1,0-0.2,0-0.3s0-0.3,0-0.3c0-0.3,0-0.7,0.1-1.2s0.1-0.9,0.1-1.2c0-0.1,0-0.2,0-0.4s0-0.3,0-0.4s0.1-0.2,0.1-0.3
			s0.1-0.1,0.3-0.1c0.3,0,0.4,0.2,0.4,0.6v0.5c0.5-0.6,0.9-0.9,1.4-0.9c0.4,0,0.8,0.2,0.9,0.6c0.1,0.3,0.2,0.6,0.2,1.1v0.4v0.3
			c0,0.2,0,0.5,0.1,0.9c0.1,0.4,0.1,0.6,0.1,0.9c0,0.1-0.1,0.2-0.1,0.3C63.9,74.2,63.9,74.5,63.9,74.5z"/>
		<path class="st1" d="M67.7,70.7c-0.1,0-0.1,0-0.2,0s-0.1,0-0.2,0c-0.1,0-0.3,0-0.6,0.1l0.1,2.4v0.2v0.2c0,0.6-0.1,0.9-0.4,0.9
			c-0.1,0-0.2-0.1-0.3-0.1c-0.1-0.1-0.1-0.1-0.1-0.3c0-0.1,0-0.3,0-0.5c0-0.2,0-0.3,0-0.5l-0.1-2.4c-0.2,0-0.5,0-0.9-0.1
			c-0.2,0-0.3-0.1-0.3-0.4c0-0.1,0.1-0.2,0.1-0.3c0.1-0.1,0.1-0.1,0.3-0.1l0.8,0.1c0-0.1,0-0.3,0-0.6c0-0.2,0-0.4,0-0.5
			c0-0.1,0.1-0.2,0.1-0.3c0.1-0.1,0.2-0.1,0.3-0.1c0.3,0,0.4,0.2,0.4,0.6c0,0.1,0,0.2,0,0.3v0.2v0.3c0.3-0.1,0.6-0.1,0.6-0.1
			c0.3,0,0.5,0,0.6,0.1c0.1,0.1,0.3,0.2,0.3,0.4c0,0.1-0.1,0.2-0.1,0.3C67.9,70.7,67.8,70.7,67.7,70.7z"/>
		<path class="st1" d="M73.1,74.4c-0.6,0-1.1-0.1-1.5-0.5c-0.4-0.3-0.6-0.8-0.6-1.5c0-0.7,0.1-1.3,0.5-1.8c0.3-0.6,0.8-0.8,1.5-0.8
			c0.4,0,0.8,0.1,1.1,0.2c0.3,0.2,0.6,0.5,0.6,0.8c0,0.3-0.1,0.5-0.5,0.8c-0.1,0.1-0.4,0.3-0.8,0.5l-1.5,0.8
			c0.1,0.2,0.3,0.4,0.6,0.5c0.2,0.1,0.5,0.1,0.8,0.1c0.2,0,0.4-0.1,0.6-0.1c0.3-0.1,0.6-0.2,0.6-0.3c0.1-0.1,0.2-0.2,0.3-0.2
			c0.1,0,0.2,0.1,0.3,0.1c0.1,0.1,0.1,0.1,0.1,0.3c0,0.3-0.2,0.6-0.7,0.8C73.9,74.2,73.5,74.4,73.1,74.4z M73,70.6
			c-0.3,0-0.6,0.1-0.8,0.4s-0.4,0.6-0.5,1.2l1.3-0.6c0.5-0.2,0.8-0.4,1-0.6C73.7,70.8,73.4,70.6,73,70.6z M73,69.3
			c-0.1,0-0.2-0.1-0.3-0.1c-0.1-0.1-0.1-0.1-0.1-0.3c0-0.1,0.1-0.2,0.1-0.3c0.1-0.1,0.3-0.3,0.6-0.6c0.2-0.2,0.3-0.4,0.6-0.6
			c0.1-0.1,0.1-0.1,0.2-0.1c0.1,0,0.2,0.1,0.3,0.1c0.1,0.1,0.1,0.1,0.1,0.3c0,0.1-0.1,0.2-0.1,0.3c-0.2,0.1-0.3,0.3-0.6,0.6
			c-0.2,0.3-0.3,0.5-0.6,0.6C73.2,69.3,73.1,69.3,73,69.3z"/>
		<path class="st1" d="M76.7,71l-0.1,2c0,0.2,0,0.6,0,1c0,0.3-0.1,0.4-0.4,0.4c-0.3,0-0.4-0.1-0.4-0.4c0-0.3,0-0.8,0.1-1.5
			c0.1-0.6,0.1-1.2,0.1-1.5c0-0.4,0-0.9,0-1.5c0-0.6,0-1,0-1.5c0-0.3,0.1-0.4,0.4-0.4s0.4,0.1,0.4,0.4c0,0.4,0,0.9,0,1.5
			C76.7,70.1,76.7,70.6,76.7,71z"/>
		<path class="st1" d="M79.7,74.4c-0.6,0-1.1-0.1-1.5-0.5c-0.4-0.3-0.6-0.8-0.6-1.5c0-0.7,0.1-1.3,0.5-1.8c0.3-0.6,0.8-0.8,1.5-0.8
			c0.4,0,0.8,0.1,1.1,0.2c0.3,0.2,0.6,0.5,0.6,0.8c0,0.3-0.1,0.5-0.5,0.8c-0.1,0.1-0.4,0.3-0.8,0.5l-1.5,0.8
			c0.1,0.2,0.3,0.4,0.6,0.5c0.2,0.1,0.5,0.1,0.8,0.1c0.2,0,0.4-0.1,0.6-0.1c0.3-0.1,0.6-0.2,0.6-0.3c0.1-0.1,0.2-0.2,0.3-0.2
			c0.1,0,0.2,0.1,0.3,0.1c0.1,0.1,0.1,0.1,0.1,0.3c0,0.3-0.2,0.6-0.7,0.8C80.6,74.2,80.2,74.4,79.7,74.4z M79.7,70.6
			c-0.3,0-0.6,0.1-0.8,0.4c-0.2,0.3-0.4,0.6-0.5,1.2l1.3-0.6c0.5-0.2,0.8-0.4,1-0.6C80.4,70.8,80.1,70.6,79.7,70.6z"/>
		<path class="st1" d="M84.1,74.5c-0.6,0-1-0.1-1.4-0.5c-0.4-0.3-0.6-0.8-0.6-1.4c0-0.6,0.2-1.1,0.6-1.7c0.4-0.6,0.8-1,1.4-1
			c0.3,0,0.6,0.1,0.9,0.2c0.4,0.1,0.6,0.3,0.6,0.6c0,0.1,0,0.2-0.1,0.3C85.5,71,85.4,71,85.3,71c-0.1,0-0.1,0-0.2-0.1
			C85,70.9,85,70.9,85,70.8c-0.1-0.1-0.4-0.2-0.8-0.2c-0.3,0-0.6,0.3-0.8,0.8c-0.3,0.5-0.3,0.8-0.3,1.2c0,0.3,0.1,0.6,0.3,0.8
			c0.2,0.2,0.6,0.3,0.9,0.3c0.1,0,0.3-0.1,0.6-0.1l0.5-0.3c0.1-0.1,0.1-0.1,0.2-0.1s0.2,0.1,0.3,0.1c0.1,0.1,0.1,0.1,0.1,0.3
			c0,0.2-0.2,0.4-0.6,0.6C84.7,74.3,84.4,74.5,84.1,74.5z"/>
		<path class="st1" d="M89.2,70.7c-0.1,0-0.1,0-0.2,0s-0.1,0-0.2,0c-0.1,0-0.3,0-0.6,0.1l0.1,2.4v0.2v0.2c0,0.6-0.1,0.9-0.4,0.9
			c-0.1,0-0.2-0.1-0.3-0.1s-0.1-0.1-0.1-0.3c0-0.1,0-0.3,0-0.5c0-0.2,0-0.3,0-0.5l-0.1-2.4c-0.2,0-0.5,0-0.9-0.1
			c-0.2,0-0.3-0.1-0.3-0.4c0-0.1,0.1-0.2,0.1-0.3c0.1-0.1,0.1-0.1,0.3-0.1l0.8,0.1c0-0.1,0-0.3,0-0.6c0-0.2,0-0.4,0-0.5
			c0-0.1,0.1-0.2,0.1-0.3c0.1-0.1,0.2-0.1,0.3-0.1c0.3,0,0.4,0.2,0.4,0.6c0,0.1,0,0.2,0,0.3v0.2v0.3c0.3-0.1,0.6-0.1,0.6-0.1
			c0.3,0,0.5,0,0.6,0.1c0.1,0.1,0.3,0.2,0.3,0.4c0,0.1-0.1,0.2-0.1,0.3S89.3,70.7,89.2,70.7z"/>
		<path class="st1" d="M93.5,71.2c0,0.3-0.1,0.5-0.4,0.5c-0.2,0-0.3-0.1-0.3-0.4c0-0.1,0-0.1,0-0.3v-0.3c-0.4,0.1-0.8,0.1-1,0.3
			c-0.2,0.2-0.4,0.4-0.6,0.8V74c0,0.3-0.1,0.4-0.4,0.4c-0.2,0-0.3-0.1-0.3-0.4v-2.9c0-0.1,0-0.2,0-0.4c0-0.2,0-0.3,0-0.4
			c0-0.3,0.1-0.4,0.3-0.4c0.3,0,0.4,0.2,0.4,0.7c0.6-0.5,1.1-0.8,1.7-0.8c0.2,0,0.4,0.1,0.5,0.3c0.1,0.2,0.1,0.4,0.1,0.8
			C93.5,71,93.5,71.1,93.5,71.2z"/>
		<path class="st1" d="M95.2,72.3c0,0.1,0,0.4,0,0.8c0,0.3,0,0.6,0,0.8c0,0.1-0.1,0.2-0.1,0.3c-0.1,0.1-0.1,0.1-0.3,0.1
			s-0.2-0.1-0.3-0.1c-0.1-0.1-0.1-0.1-0.1-0.3c0-0.1,0-0.4,0-0.8c0-0.3,0-0.6,0-0.8c0-0.3,0-0.6,0.1-1s0.1-0.7,0.1-1
			c0-0.1,0.1-0.2,0.1-0.3c0.1-0.1,0.1-0.1,0.3-0.1s0.2,0.1,0.3,0.1c0.1,0.1,0.1,0.2,0.1,0.3c0,0.3,0,0.6-0.1,1
			C95.2,71.7,95.2,72.1,95.2,72.3z M95,69c-0.1,0-0.2-0.1-0.3-0.1c-0.1-0.1-0.1-0.2-0.1-0.3s0.1-0.2,0.1-0.3C94.7,68,94.8,68,95,68
			c0.1,0,0.2,0.1,0.3,0.1c0.1,0.1,0.1,0.2,0.1,0.3s-0.1,0.2-0.1,0.3C95.3,69,95.1,69,95,69z"/>
		<path class="st1" d="M99.6,72.9l-0.2,1.5c-0.1,0.6-0.1,1.1-0.1,1.6c0,0.1-0.1,0.2-0.1,0.3c-0.1,0.1-0.1,0.1-0.3,0.1
			c-0.3,0-0.4-0.1-0.4-0.4c0-0.1,0-0.3,0-0.5l0.1-0.5l0.1-0.9c-0.2,0.1-0.4,0.1-0.5,0.1c-0.6,0-1-0.1-1.5-0.5s-0.6-0.8-0.6-1.4
			c0-0.8,0.2-1.5,0.7-1.9c0.5-0.5,1.1-0.8,1.9-0.8c0.1,0,0.3,0.1,0.3,0.2c0.1-0.1,0.2-0.1,0.3-0.1c0.1,0,0.2,0.1,0.3,0.1
			c0.1,0.1,0.1,0.2,0.1,0.3C99.7,71.1,99.7,71.9,99.6,72.9z M98.4,70.6c-0.5,0.1-0.9,0.3-1.1,0.8c-0.2,0.3-0.3,0.8-0.3,1.2
			c0,0.3,0.1,0.6,0.3,0.8c0.2,0.2,0.5,0.3,0.9,0.3c0.3,0,0.4-0.1,0.6-0.4c0.1-0.3,0.2-0.8,0.2-1.5l0.1-1.1c-0.1,0-0.1,0-0.3,0
			C98.5,70.6,98.5,70.6,98.4,70.6z"/>
		<path class="st1" d="M104,71.8c0,0.2,0,0.5,0,0.9c0,0.4,0,0.7,0,0.9c0,0.1,0,0.1,0,0.3c0,0.1,0,0.2,0,0.3c0,0.1-0.1,0.2-0.1,0.3
			c-0.1,0.1-0.2,0.1-0.3,0.1c-0.2,0-0.3-0.1-0.4-0.4c-0.3,0.2-0.8,0.3-1.2,0.3c-0.3,0-0.6-0.1-0.9-0.2c-0.3-0.1-0.4-0.4-0.5-0.8
			c-0.1-0.7-0.1-1.4-0.1-1.9c0-0.3,0.1-0.8,0.1-1.3c0.1-0.2,0.1-0.3,0.4-0.3c0.1,0,0.2,0.1,0.3,0.1c0.1,0.1,0.1,0.1,0.1,0.3
			c0,0.1,0,0.3-0.1,0.6c-0.1,0.3-0.1,0.5-0.1,0.6c0,0.5,0,0.8,0.1,1.2s0.1,0.6,0.1,0.8c0.1,0.1,0.2,0.1,0.3,0.1
			c0.1,0.1,0.1,0.1,0.3,0.1c0.3,0,0.8-0.1,1.2-0.2v-0.8v-0.8c0-0.6,0-1.1,0.1-1.5c0-0.3,0.1-0.3,0.4-0.3c0.1,0,0.2,0.1,0.3,0.1
			c0.1,0.1,0.1,0.1,0.1,0.3L104,71.8z"/>
		<path class="st1" d="M106.8,74.4c-0.6,0-1.1-0.1-1.5-0.5c-0.4-0.3-0.6-0.8-0.6-1.5c0-0.7,0.1-1.3,0.5-1.8c0.3-0.6,0.8-0.8,1.5-0.8
			c0.4,0,0.8,0.1,1.1,0.2c0.3,0.2,0.6,0.5,0.6,0.8c0,0.3-0.1,0.5-0.5,0.8c-0.1,0.1-0.4,0.3-0.8,0.5l-1.5,0.8
			c0.1,0.2,0.3,0.4,0.6,0.5c0.2,0.1,0.5,0.1,0.8,0.1c0.2,0,0.4-0.1,0.6-0.1c0.3-0.1,0.6-0.2,0.6-0.3c0.1-0.1,0.2-0.2,0.3-0.2
			c0.1,0,0.2,0.1,0.3,0.1c0.1,0.1,0.1,0.1,0.1,0.3c0,0.3-0.2,0.6-0.7,0.8C107.7,74.2,107.2,74.4,106.8,74.4z M106.8,70.6
			c-0.3,0-0.6,0.1-0.8,0.4s-0.4,0.6-0.5,1.2l1.3-0.6c0.5-0.2,0.8-0.4,1-0.6C107.5,70.8,107.2,70.6,106.8,70.6z"/>
	</g>
</g>
</svg>
