<?xml version="1.0" encoding="utf-8"?>
<!-- Generator: Adobe Illustrator 25.4.1, SVG Export Plug-In . SVG Version: 6.00 Build 0)  -->
<svg version="1.1" id="Calque_1" xmlns="http://www.w3.org/2000/svg" xmlns:xlink="http://www.w3.org/1999/xlink" x="0px" y="0px"
	 viewBox="0 0 136 36" style="enable-background:new 0 0 136 36;" xml:space="preserve">
<style type="text/css">
	.st0{enable-background:new    ;}
	.st1{fill:#263045;}
	.st2{fill:#2E5BFF;}
</style>
<g id="Groupe_43" transform="translate(-39.967 -19.967)">
	<g class="st0">
		<path class="st1" d="M90.4,45.9c-0.1-0.1-0.1-0.2-0.1-0.3V34.5c0-0.1,0-0.2,0.1-0.3c0.1-0.1,0.2-0.1,0.3-0.1H92
			c0.1,0,0.2,0,0.3,0.1c0.1,0.1,0.1,0.1,0.2,0.2l4.9,7.6v-7.5c0-0.1,0-0.2,0.1-0.3c0.1-0.1,0.2-0.1,0.3-0.1h1.4c0.1,0,0.2,0,0.3,0.1
			c0.1,0.1,0.1,0.2,0.1,0.3v11c0,0.1,0,0.2-0.1,0.3C99.5,46,99.4,46,99.3,46H98c-0.2,0-0.4-0.1-0.5-0.3l-4.9-7.4v7.3
			c0,0.1,0,0.2-0.1,0.3C92.4,46,92.3,46,92.2,46h-1.4C90.6,46,90.5,46,90.4,45.9z"/>
		<path class="st1" d="M102.5,45.9c-0.1-0.1-0.1-0.2-0.1-0.3V34.5c0-0.1,0-0.2,0.1-0.3c0.1-0.1,0.2-0.1,0.3-0.1h7.5
			c0.1,0,0.2,0,0.3,0.1c0.1,0.1,0.1,0.2,0.1,0.3v1.1c0,0.1,0,0.2-0.1,0.3c-0.1,0.1-0.2,0.1-0.3,0.1h-5.6v3h5.2c0.1,0,0.2,0,0.3,0.1
			c0.1,0.1,0.1,0.2,0.1,0.3v1.1c0,0.1,0,0.2-0.1,0.3c-0.1,0.1-0.2,0.1-0.3,0.1h-5.2V44h5.7c0.1,0,0.2,0,0.3,0.1
			c0.1,0.1,0.1,0.2,0.1,0.3v1.1c0,0.1,0,0.2-0.1,0.3c-0.1,0.1-0.2,0.1-0.3,0.1h-7.6C102.6,46,102.5,46,102.5,45.9z"/>
		<path class="st1" d="M113.8,45c-0.9-0.8-1.3-1.9-1.4-3.5c0-0.3,0-0.8,0-1.4c0-0.6,0-1.1,0-1.5c0-1.5,0.5-2.7,1.4-3.5
			s2.1-1.2,3.6-1.2s2.7,0.4,3.6,1.2s1.4,2,1.4,3.5c0,0.7,0,1.1,0,1.5c0,0.3,0,0.8,0,1.4c-0.1,1.5-0.5,2.7-1.4,3.5s-2.1,1.2-3.6,1.2
			C115.8,46.2,114.6,45.8,113.8,45z M119.2,43.5c0.5-0.5,0.7-1.2,0.7-2.1c0-0.7,0-1.1,0-1.4c0-0.3,0-0.7,0-1.4
			c0-0.9-0.3-1.6-0.7-2.1c-0.5-0.5-1.1-0.7-1.8-0.7c-0.7,0-1.3,0.2-1.8,0.7c-0.5,0.5-0.7,1.2-0.7,2.1c0,0.3,0,0.8,0,1.4
			c0,0.6,0,1,0,1.4c0,0.9,0.3,1.6,0.7,2.1c0.4,0.5,1.1,0.7,1.8,0.7C118.1,44.2,118.8,44,119.2,43.5z"/>
		<path class="st1" d="M128.6,45.9c-0.1-0.1-0.1-0.2-0.1-0.3V34.5c0-0.1,0-0.2,0.1-0.3c0.1-0.1,0.2-0.1,0.3-0.1h4.4
			c1.4,0,2.5,0.3,3.3,1c0.8,0.6,1.2,1.6,1.2,2.8c0,0.8-0.2,1.5-0.6,2.1c-0.4,0.6-1,1-1.7,1.2l2.5,4.3c0,0.1,0.1,0.1,0.1,0.2
			c0,0.1,0,0.2-0.1,0.3c-0.1,0.1-0.2,0.1-0.2,0.1h-1.5c-0.2,0-0.3,0-0.4-0.1c-0.1-0.1-0.2-0.2-0.3-0.3l-2.2-4h-2.4v4.1
			c0,0.1,0,0.2-0.1,0.3s-0.2,0.1-0.3,0.1h-1.5C128.8,46,128.7,46,128.6,45.9z M133.3,39.6c0.7,0,1.2-0.2,1.5-0.5
			c0.3-0.3,0.5-0.7,0.5-1.3s-0.2-1-0.5-1.3S134,36,133.3,36h-2.4v3.6H133.3z"/>
		<path class="st1" d="M140.1,45.9c-0.1-0.1-0.1-0.2-0.1-0.3V34.5c0-0.1,0-0.2,0.1-0.3c0.1-0.1,0.2-0.1,0.3-0.1h1.5
			c0.1,0,0.2,0,0.3,0.1c0.1,0.1,0.1,0.2,0.1,0.3v4.4h5v-4.4c0-0.1,0-0.2,0.1-0.3c0.1-0.1,0.2-0.1,0.3-0.1h1.5c0.1,0,0.2,0,0.3,0.1
			c0.1,0.1,0.1,0.2,0.1,0.3v11.1c0,0.1,0,0.2-0.1,0.3s-0.2,0.1-0.3,0.1h-1.5c-0.1,0-0.2,0-0.3-0.1s-0.1-0.2-0.1-0.3V41h-5v4.6
			c0,0.1,0,0.2-0.1,0.3c-0.1,0.1-0.2,0.1-0.3,0.1h-1.5C140.3,46,140.2,46,140.1,45.9z"/>
		<path class="st1" d="M152.5,45.9c-0.1-0.1-0.1-0.2-0.1-0.3V34.5c0-0.1,0-0.2,0.1-0.3c0.1-0.1,0.2-0.1,0.3-0.1h7.5
			c0.1,0,0.2,0,0.3,0.1c0.1,0.1,0.1,0.2,0.1,0.3v1.1c0,0.1,0,0.2-0.1,0.3c-0.1,0.1-0.2,0.1-0.3,0.1h-5.6v3h5.2c0.1,0,0.2,0,0.3,0.1
			c0.1,0.1,0.1,0.2,0.1,0.3v1.1c0,0.1,0,0.2-0.1,0.3c-0.1,0.1-0.2,0.1-0.3,0.1h-5.2V44h5.7c0.1,0,0.2,0,0.3,0.1
			c0.1,0.1,0.1,0.2,0.1,0.3v1.1c0,0.1,0,0.2-0.1,0.3c-0.1,0.1-0.2,0.1-0.3,0.1h-7.6C152.7,46,152.6,46,152.5,45.9z"/>
		<path class="st1" d="M162,45.9c-0.1-0.1-0.1-0.2-0.1-0.3l0-0.2l4.1-11c0.1-0.3,0.3-0.4,0.6-0.4h1.9c0.3,0,0.5,0.1,0.6,0.4l4.1,11
			c0,0,0,0.1,0,0.2c0,0.1,0,0.2-0.1,0.3c-0.1,0.1-0.1,0.1-0.2,0.1h-1.5c-0.1,0-0.3,0-0.3-0.1c-0.1-0.1-0.1-0.1-0.2-0.2l-0.8-2.1h-5
			l-0.8,2.1c-0.1,0.2-0.3,0.3-0.5,0.3h-1.5C162.1,46,162,46,162,45.9z M169.4,41.6l-1.9-5.3l-1.9,5.3H169.4z"/>
	</g>
	<g id="Groupe_40" transform="translate(-68)">
		<g id="Rectangle_35">
			<rect x="111" y="41" class="st2" width="15" height="15"/>
		</g>
		<g id="Rectangle_33">
			<rect x="128" y="24" class="st2" width="15" height="15"/>
		</g>
		<g id="Rectangle_34">
			<rect x="128" y="41" class="st2" width="15" height="15"/>
		</g>
		<g id="Rectangle_36">
			<rect x="110" y="22" transform="matrix(0.3256 -0.9455 0.9455 0.3256 51.3525 130.9939)" class="st2" width="15" height="15"/>
		</g>
	</g>
</g>
</svg>
