<svg xmlns="http://www.w3.org/2000/svg" version="1.1" xmlns:xlink="http://www.w3.org/1999/xlink" xmlns:svgjs="http://svgjs.dev/svgjs" viewBox="0 0 800 800" preserveAspectRatio="xMidYMid slice"><defs><pattern id="pppixelate-pattern" width="20" height="20" patternUnits="userSpaceOnUse" patternTransform="scale(5.5) rotate(20)" shape-rendering="crispEdges">
    <rect width="1" height="1" x="0" y="10" fill="hsl(0, 0%, 0%)"></rect><rect width="1" height="1" x="1" y="10" fill="hsl(0, 0%, 0%)"></rect><rect width="1" height="1" x="2" y="10" fill="hsl(0, 0%, 0%)"></rect><rect width="1" height="1" x="3" y="10" fill="hsl(0, 0%, 0%)"></rect><rect width="1" height="1" x="4" y="10" fill="hsl(0, 0%, 0%)"></rect><rect width="1" height="1" x="5" y="10" fill="hsl(0, 0%, 0%)"></rect><rect width="1" height="1" x="6" y="10" fill="hsl(0, 0%, 0%)"></rect><rect width="1" height="1" x="7" y="10" fill="hsl(0, 0%, 0%)"></rect><rect width="1" height="1" x="8" y="10" fill="hsl(0, 0%, 0%)"></rect><rect width="1" height="1" x="9" y="10" fill="hsl(0, 0%, 0%)"></rect><rect width="1" height="1" x="0" y="11" fill="hsl(0, 0%, 0%)"></rect><rect width="1" height="1" x="9" y="11" fill="hsl(0, 0%, 0%)"></rect><rect width="1" height="1" x="0" y="12" fill="hsl(0, 0%, 0%)"></rect><rect width="1" height="1" x="9" y="12" fill="hsl(0, 0%, 0%)"></rect><rect width="1" height="1" x="0" y="13" fill="hsl(0, 0%, 0%)"></rect><rect width="1" height="1" x="9" y="13" fill="hsl(0, 0%, 0%)"></rect><rect width="1" height="1" x="0" y="14" fill="hsl(0, 0%, 0%)"></rect><rect width="1" height="1" x="9" y="14" fill="hsl(0, 0%, 0%)"></rect><rect width="1" height="1" x="0" y="15" fill="hsl(0, 0%, 0%)"></rect><rect width="1" height="1" x="1" y="15" fill="hsl(0, 0%, 0%)"></rect><rect width="1" height="1" x="2" y="15" fill="hsl(0, 0%, 0%)"></rect><rect width="1" height="1" x="3" y="15" fill="hsl(0, 0%, 0%)"></rect><rect width="1" height="1" x="4" y="15" fill="hsl(0, 0%, 0%)"></rect><rect width="1" height="1" x="5" y="15" fill="hsl(0, 0%, 0%)"></rect><rect width="1" height="1" x="6" y="15" fill="hsl(0, 0%, 0%)"></rect><rect width="1" height="1" x="7" y="15" fill="hsl(0, 0%, 0%)"></rect><rect width="1" height="1" x="8" y="15" fill="hsl(0, 0%, 0%)"></rect><rect width="1" height="1" x="9" y="15" fill="hsl(0, 0%, 0%)"></rect><rect width="1" height="1" x="0" y="16" fill="hsl(0, 0%, 0%)"></rect><rect width="1" height="1" x="1" y="16" fill="hsl(0, 0%, 0%)"></rect><rect width="1" height="1" x="2" y="16" fill="hsl(0, 0%, 0%)"></rect><rect width="1" height="1" x="3" y="16" fill="hsl(0, 0%, 0%)"></rect><rect width="1" height="1" x="4" y="16" fill="hsl(0, 0%, 0%)"></rect><rect width="1" height="1" x="5" y="16" fill="hsl(0, 0%, 0%)"></rect><rect width="1" height="1" x="6" y="16" fill="hsl(0, 0%, 0%)"></rect><rect width="1" height="1" x="7" y="16" fill="hsl(0, 0%, 0%)"></rect><rect width="1" height="1" x="8" y="16" fill="hsl(0, 0%, 0%)"></rect><rect width="1" height="1" x="9" y="16" fill="hsl(0, 0%, 0%)"></rect><rect width="1" height="1" x="0" y="17" fill="hsl(0, 0%, 0%)"></rect><rect width="1" height="1" x="1" y="17" fill="hsl(0, 0%, 0%)"></rect><rect width="1" height="1" x="2" y="17" fill="hsl(0, 0%, 0%)"></rect><rect width="1" height="1" x="3" y="17" fill="hsl(0, 0%, 0%)"></rect><rect width="1" height="1" x="4" y="17" fill="hsl(0, 0%, 0%)"></rect><rect width="1" height="1" x="5" y="17" fill="hsl(0, 0%, 0%)"></rect><rect width="1" height="1" x="6" y="17" fill="hsl(0, 0%, 0%)"></rect><rect width="1" height="1" x="7" y="17" fill="hsl(0, 0%, 0%)"></rect><rect width="1" height="1" x="8" y="17" fill="hsl(0, 0%, 0%)"></rect><rect width="1" height="1" x="9" y="17" fill="hsl(0, 0%, 0%)"></rect><rect width="1" height="1" x="0" y="18" fill="hsl(0, 0%, 0%)"></rect><rect width="1" height="1" x="1" y="18" fill="hsl(0, 0%, 0%)"></rect><rect width="1" height="1" x="2" y="18" fill="hsl(0, 0%, 0%)"></rect><rect width="1" height="1" x="3" y="18" fill="hsl(0, 0%, 0%)"></rect><rect width="1" height="1" x="4" y="18" fill="hsl(0, 0%, 0%)"></rect><rect width="1" height="1" x="5" y="18" fill="hsl(0, 0%, 0%)"></rect><rect width="1" height="1" x="6" y="18" fill="hsl(0, 0%, 0%)"></rect><rect width="1" height="1" x="7" y="18" fill="hsl(0, 0%, 0%)"></rect><rect width="1" height="1" x="8" y="18" fill="hsl(0, 0%, 0%)"></rect><rect width="1" height="1" x="9" y="18" fill="hsl(0, 0%, 0%)"></rect><rect width="1" height="1" x="0" y="19" fill="hsl(0, 0%, 0%)"></rect><rect width="1" height="1" x="1" y="19" fill="hsl(0, 0%, 0%)"></rect><rect width="1" height="1" x="2" y="19" fill="hsl(0, 0%, 0%)"></rect><rect width="1" height="1" x="3" y="19" fill="hsl(0, 0%, 0%)"></rect><rect width="1" height="1" x="4" y="19" fill="hsl(0, 0%, 0%)"></rect><rect width="1" height="1" x="5" y="19" fill="hsl(0, 0%, 0%)"></rect><rect width="1" height="1" x="6" y="19" fill="hsl(0, 0%, 0%)"></rect><rect width="1" height="1" x="7" y="19" fill="hsl(0, 0%, 0%)"></rect><rect width="1" height="1" x="8" y="19" fill="hsl(0, 0%, 0%)"></rect><rect width="1" height="1" x="9" y="19" fill="hsl(0, 0%, 0%)"></rect>
  </pattern></defs><rect width="100%" height="100%" fill="url(#pppixelate-pattern)"></rect></svg>