<svg xmlns="http://www.w3.org/2000/svg" version="1.1" xmlns:xlink="http://www.w3.org/1999/xlink" xmlns:svgjs="http://svgjs.dev/svgjs" viewBox="0 0 800 800"><g fill="#25ae90" shape-rendering="crispEdges"><rect width="100" height="100" x="700" y="0"></rect><rect width="100" height="100" x="600" y="0"></rect><rect width="100" height="100" x="600" y="100"></rect><rect width="100" height="100" x="700" y="100"></rect><rect width="100" height="100" x="500" y="0"></rect><rect width="100" height="100" x="400" y="0"></rect><rect width="100" height="100" x="400" y="100"></rect><rect width="100" height="100" x="500" y="100"></rect><rect width="50" height="50" x="550" y="200"></rect><rect width="50" height="50" x="500" y="200"></rect><rect width="50" height="50" x="500" y="250"></rect><rect width="50" height="50" x="550" y="250"></rect><rect width="50" height="50" x="450" y="200"></rect><rect width="50" height="50" x="400" y="200"></rect><rect width="50" height="50" x="400" y="250"></rect><rect width="50" height="50" x="450" y="250"></rect><rect width="50" height="50" x="450" y="300"></rect><rect width="50" height="50" x="400" y="300"></rect><rect width="50" height="50" x="400" y="350"></rect><rect width="50" height="50" x="450" y="350"></rect><rect width="100" height="100" x="500" y="300"></rect><rect width="100" height="100" x="700" y="200"></rect><rect width="100" height="100" x="600" y="200"></rect><rect width="100" height="100" x="600" y="300"></rect><rect width="100" height="100" x="700" y="300"></rect><rect width="100" height="100" x="300" y="0"></rect><rect width="100" height="100" x="200" y="0"></rect><rect width="50" height="50" x="250" y="100"></rect><rect width="50" height="50" x="200" y="100"></rect><rect width="50" height="50" x="200" y="150"></rect><rect width="50" height="50" x="250" y="150"></rect><rect width="100" height="100" x="300" y="100"></rect><rect width="200" height="200" x="0" y="0"></rect><rect width="100" height="100" x="100" y="200"></rect><rect width="100" height="100" x="0" y="200"></rect><rect width="100" height="100" x="0" y="300"></rect><rect width="100" height="100" x="100" y="300"></rect><rect width="50" height="50" x="350" y="200"></rect><rect width="50" height="50" x="300" y="200"></rect><rect width="50" height="50" x="300" y="250"></rect><rect width="50" height="50" x="350" y="250"></rect><rect width="50" height="50" x="250" y="200"></rect><rect width="50" height="50" x="200" y="200"></rect><rect width="50" height="50" x="200" y="250"></rect><rect width="50" height="50" x="250" y="250"></rect><rect width="50" height="50" x="250" y="300"></rect><rect width="50" height="50" x="200" y="300"></rect><rect width="50" height="50" x="200" y="350"></rect><rect width="50" height="50" x="250" y="350"></rect><rect width="100" height="100" x="300" y="300"></rect><rect width="100" height="100" x="300" y="400"></rect><rect width="100" height="100" x="200" y="400"></rect><rect width="100" height="100" x="200" y="500"></rect><rect width="50" height="50" x="350" y="500"></rect><rect width="50" height="50" x="300" y="500"></rect><rect width="50" height="50" x="300" y="550"></rect><rect width="50" height="50" x="350" y="550"></rect><rect width="50" height="50" x="150" y="400"></rect><rect width="50" height="50" x="100" y="400"></rect><rect width="50" height="50" x="100" y="450"></rect><rect width="50" height="50" x="150" y="450"></rect><rect width="100" height="100" x="0" y="400"></rect><rect width="100" height="100" x="0" y="500"></rect><rect width="100" height="100" x="100" y="500"></rect><rect width="200" height="200" x="0" y="600"></rect><rect width="50" height="50" x="350" y="600"></rect><rect width="50" height="50" x="300" y="600"></rect><rect width="50" height="50" x="300" y="650"></rect><rect width="50" height="50" x="350" y="650"></rect><rect width="100" height="100" x="200" y="600"></rect><rect width="100" height="100" x="200" y="700"></rect><rect width="100" height="100" x="300" y="700"></rect><rect width="100" height="100" x="700" y="400"></rect><rect width="50" height="50" x="650" y="400"></rect><rect width="50" height="50" x="600" y="400"></rect><rect width="50" height="50" x="600" y="450"></rect><rect width="50" height="50" x="650" y="450"></rect><rect width="100" height="100" x="600" y="500"></rect><rect width="100" height="100" x="700" y="500"></rect><rect width="50" height="50" x="550" y="400"></rect><rect width="50" height="50" x="500" y="400"></rect><rect width="50" height="50" x="500" y="450"></rect><rect width="50" height="50" x="550" y="450"></rect><rect width="50" height="50" x="450" y="400"></rect><rect width="50" height="50" x="400" y="400"></rect><rect width="50" height="50" x="400" y="450"></rect><rect width="50" height="50" x="450" y="450"></rect><rect width="100" height="100" x="400" y="500"></rect><rect width="50" height="50" x="550" y="500"></rect><rect width="50" height="50" x="500" y="500"></rect><rect width="50" height="50" x="500" y="550"></rect><rect width="50" height="50" x="550" y="550"></rect><rect width="100" height="100" x="500" y="600"></rect><rect width="100" height="100" x="400" y="600"></rect><rect width="100" height="100" x="400" y="700"></rect><rect width="100" height="100" x="500" y="700"></rect><rect width="100" height="100" x="700" y="600"></rect><rect width="100" height="100" x="600" y="600"></rect><rect width="100" height="100" x="600" y="700"></rect><rect width="100" height="100" x="700" y="700"></rect></g><g fill="#ffb61b" shape-rendering="crispEdges"><polygon points="700,0 800,0 800,100"></polygon><polygon points="700,100 700,0 600,0"></polygon><polygon points="700,100 600,200 600,100"></polygon><polygon points="800,200 800,100 700,100"></polygon><polygon points="600,0 600,100 500,0"></polygon><polygon points="500,0 400,0 400,100"></polygon><polygon points="500,200 400,200 400,100"></polygon><polygon points="500,200 600,200 500,100"></polygon><polygon points="600,250 550,200 550,250"></polygon><polygon points="500,250 500,200 550,200"></polygon><polygon points="500,250 550,300 500,300"></polygon><polygon points="550,300 550,250 600,300"></polygon><polygon points="500,250 450,250 500,200"></polygon><polygon points="450,200 450,250 400,200"></polygon><polygon points="400,300 450,300 450,250"></polygon><polygon points="500,300 500,250 450,300"></polygon><polygon points="500,350 450,350 500,300"></polygon><polygon points="450,350 450,300 400,300"></polygon><polygon points="450,350 450,400 400,400"></polygon><polygon points="500,400 450,400 500,350"></polygon><polygon points="500,300 500,400 600,300"></polygon><polygon points="700,300 700,200 800,200"></polygon><polygon points="600,300 700,200 600,200"></polygon><polygon points="700,400 600,400 600,300"></polygon><polygon points="800,400 800,300 700,400"></polygon><polygon points="300,100 400,0 300,0"></polygon><polygon points="200,100 300,100 200,0"></polygon><polygon points="300,150 250,100 250,150"></polygon><polygon points="250,150 200,150 250,100"></polygon><polygon points="250,150 200,200 200,150"></polygon><polygon points="250,150 300,150 300,200"></polygon><polygon points="400,200 400,100 300,200"></polygon><polygon points="200,200 0,0 200,0"></polygon><polygon points="200,200 200,300 100,300"></polygon><polygon points="0,300 100,200 0,200"></polygon><polygon points="0,300 100,300 0,400"></polygon><polygon points="200,300 100,300 100,400"></polygon><polygon points="350,250 400,200 350,200"></polygon><polygon points="350,200 350,250 300,250"></polygon><polygon points="350,250 350,300 300,250"></polygon><polygon points="400,250 350,300 350,250"></polygon><polygon points="300,250 300,200 250,250"></polygon><polygon points="250,200 250,250 200,200"></polygon><polygon points="200,300 200,250 250,250"></polygon><polygon points="300,250 250,250 300,300"></polygon><polygon points="300,300 300,350 250,350"></polygon><polygon points="250,300 200,300 250,350"></polygon><polygon points="250,350 250,400 200,400"></polygon><polygon points="300,400 300,350 250,350"></polygon><polygon points="400,300 300,300 300,400"></polygon><polygon points="300,400 300,500 400,400"></polygon><polygon points="200,500 300,500 300,400"></polygon><polygon points="200,500 300,600 200,600"></polygon><polygon points="350,550 400,500 400,550"></polygon><polygon points="350,550 350,500 300,550"></polygon><polygon points="300,600 350,600 300,550"></polygon><polygon points="400,550 350,550 350,600"></polygon><polygon points="200,450 150,400 200,400"></polygon><polygon points="100,450 100,400 150,450"></polygon><polygon points="150,450 150,500 100,500"></polygon><polygon points="200,450 150,450 200,500"></polygon><polygon points="100,400 0,500 0,400"></polygon><polygon points="0,600 100,500 0,500"></polygon><polygon points="200,500 100,600 200,600"></polygon><polygon points="200,600 0,800 0,600"></polygon><polygon points="350,600 350,650 400,600"></polygon><polygon points="300,600 350,600 300,650"></polygon><polygon points="350,650 350,700 300,650"></polygon><polygon points="350,700 400,700 350,650"></polygon><polygon points="300,700 200,700 200,600"></polygon><polygon points="300,700 300,800 200,700"></polygon><polygon points="400,800 400,700 300,800"></polygon><polygon points="800,400 700,400 800,500"></polygon><polygon points="650,400 700,400 700,450"></polygon><polygon points="650,450 650,400 600,450"></polygon><polygon points="650,500 650,450 600,450"></polygon><polygon points="650,500 700,450 700,500"></polygon><polygon points="700,600 600,500 700,500"></polygon><polygon points="800,600 700,600 700,500"></polygon><polygon points="600,400 550,400 550,450"></polygon><polygon points="550,400 500,400 550,450"></polygon><polygon points="500,500 550,450 550,500"></polygon><polygon points="600,500 600,450 550,450"></polygon><polygon points="500,400 450,450 500,450"></polygon><polygon points="400,450 450,450 400,400"></polygon><polygon points="450,500 400,500 450,450"></polygon><polygon points="500,500 500,450 450,500"></polygon><polygon points="400,500 500,600 500,500"></polygon><polygon points="550,500 600,550 600,500"></polygon><polygon points="550,500 550,550 500,500"></polygon><polygon points="550,600 550,550 500,600"></polygon><polygon points="600,600 600,550 550,600"></polygon><polygon points="600,700 600,600 500,600"></polygon><polygon points="500,700 500,600 400,700"></polygon><polygon points="500,700 500,800 400,800"></polygon><polygon points="500,700 600,800 600,700"></polygon><polygon points="700,600 800,700 700,700"></polygon><polygon points="600,600 700,600 700,700"></polygon><polygon points="600,800 700,800 600,700"></polygon><polygon points="800,800 800,700 700,800"></polygon></g><g fill="hsl(71, 43%, 95%)" stroke-width="3" stroke="#25ae90"></g></svg>