<svg fill="none" height="23" viewBox="0 0 118 23" width="118" xmlns="http://www.w3.org/2000/svg">
    <g fill="#fff">
        <path
            d="m42.2704 22.3144c-1.4738.0157-2.9372-.2509-4.3118-.7857-1.3046-.5124-2.4943-1.2818-3.4994-2.2628-1.0101-.9895-1.8076-2.1768-2.3434-3.4886-.601-1.4421-.8989-2.9937-.8748-4.5572-.0272-1.56372.2708-3.11593.8748-4.5571.5501-1.32096 1.3575-2.5178 2.3746-3.52 1.0051-.98108 2.1948-1.7504 3.4994-2.262855 1.3417-.53918 2.7732-.8165 4.2181-.8171447 1.4061-.0377071 2.8063.1970357 4.1243.6914297 1.0719.41333 2.0653 1.00864 2.937 1.76.7563.65804 1.3909 1.4454 1.8747 2.32571.4094.7652.7241 1.5779.9373 2.42l-4.468 1.41429c-.1116-.42444-.2688-.83542-.4687-1.22572-.2447-.49289-.5724-.93947-.9685-1.32-.4661-.43767-1.0056-.78882-1.5935-1.03714-.7559-.29651-1.5638-.43551-2.3746-.40857-.7346.00277-1.4635.13028-2.1559.37714-.7225.2558-1.3827.66286-1.9372 1.19429-.6133.56781-1.0935 1.26557-1.406 2.04285-.3848.92428-.566 1.92142-.5312 2.92282-.0213.9159.149 1.8261.4999 2.6715.3102.7524.7793 1.428 1.3748 1.98.5612.5302 1.219.9464 1.9372 1.2257.7285.2775 1.5019.4161 2.2809.4085.8106.0241 1.6179-.1148 2.3746-.4085.6066-.2484 1.1667-.5991 1.6559-1.0372.4145-.379.763-.8252 1.0311-1.32.2261-.3963.4044-.8183.5312-1.2571l4.5305 1.2886c-.2239.8386-.5382 1.6501-.9374 2.42-.483.9084-1.117 1.7268-1.8747 2.42-2.0131 1.7925-4.6232 2.7574-7.3112 2.7028z" />
        <path
            d="m42.2704 22.3144c-1.4738.0157-2.9372-.2509-4.3118-.7857-1.3046-.5124-2.4943-1.2818-3.4994-2.2628-1.0101-.9895-1.8076-2.1768-2.3434-3.4886-.601-1.4421-.8989-2.9937-.8748-4.5572-.0272-1.56372.2708-3.11593.8748-4.5571.5501-1.32096 1.3575-2.5178 2.3746-3.52 1.0051-.98108 2.1948-1.7504 3.4994-2.262855 1.3417-.53918 2.7732-.8165 4.2181-.8171447 1.4061-.0377071 2.8063.1970357 4.1243.6914297 1.0719.41333 2.0653 1.00864 2.937 1.76.7563.65804 1.3909 1.4454 1.8747 2.32571.4094.7652.7241 1.5779.9373 2.42l-4.468 1.41429c-.1116-.42444-.2688-.83542-.4687-1.22572-.2447-.49289-.5724-.93947-.9685-1.32-.4661-.43767-1.0056-.78882-1.5935-1.03714-.7559-.29651-1.5638-.43551-2.3746-.40857-.7346.00277-1.4635.13028-2.1559.37714-.7225.2558-1.3827.66286-1.9372 1.19429-.6133.56781-1.0935 1.26557-1.406 2.04285-.3848.92428-.566 1.92142-.5312 2.92282-.0213.9159.149 1.8261.4999 2.6715.3102.7524.7793 1.428 1.3748 1.98.5612.5302 1.219.9464 1.9372 1.2257.7285.2775 1.5019.4161 2.2809.4085.8106.0241 1.6179-.1148 2.3746-.4085.6066-.2484 1.1667-.5991 1.6559-1.0372.4145-.379.763-.8252 1.0311-1.32.2261-.3963.4044-.8183.5312-1.2571l4.5305 1.2886c-.2239.8386-.5382 1.6501-.9374 2.42-.483.9084-1.117 1.7268-1.8747 2.42-2.0131 1.7925-4.6232 2.7574-7.3112 2.7028z" />
        <path
            d="m42.2704 22.3144c-1.4738.0157-2.9372-.2509-4.3118-.7857-1.3046-.5124-2.4943-1.2818-3.4994-2.2628-1.0101-.9895-1.8076-2.1768-2.3434-3.4886-.601-1.4421-.8989-2.9937-.8748-4.5572-.0272-1.56372.2708-3.11593.8748-4.5571.5501-1.32096 1.3575-2.5178 2.3746-3.52 1.0051-.98108 2.1948-1.7504 3.4994-2.262855 1.3417-.53918 2.7732-.8165 4.2181-.8171447 1.4061-.0377071 2.8063.1970357 4.1243.6914297 1.0719.41333 2.0653 1.00864 2.937 1.76.7563.65804 1.3909 1.4454 1.8747 2.32571.4094.7652.7241 1.5779.9373 2.42l-4.468 1.41429c-.1116-.42444-.2688-.83542-.4687-1.22572-.2447-.49289-.5724-.93947-.9685-1.32-.4661-.43767-1.0056-.78882-1.5935-1.03714-.7559-.29651-1.5638-.43551-2.3746-.40857-.7346.00277-1.4635.13028-2.1559.37714-.7225.2558-1.3827.66286-1.9372 1.19429-.6133.56781-1.0935 1.26557-1.406 2.04285-.3848.92428-.566 1.92142-.5312 2.92282-.0213.9159.149 1.8261.4999 2.6715.3102.7524.7793 1.428 1.3748 1.98.5612.5302 1.219.9464 1.9372 1.2257.7285.2775 1.5019.4161 2.2809.4085.8106.0241 1.6179-.1148 2.3746-.4085.6066-.2484 1.1667-.5991 1.6559-1.0372.4145-.379.763-.8252 1.0311-1.32.2261-.3963.4044-.8183.5312-1.2571l4.5305 1.2886c-.2239.8386-.5382 1.6501-.9374 2.42-.483.9084-1.117 1.7268-1.8747 2.42-2.0131 1.7925-4.6232 2.7574-7.3112 2.7028z" />
        <path
            d="m70.5474 17.5057h-8.2174l-1.531 4.3371h-4.9679l7.9986-21.402859h5.4991l7.9049 21.402859h-5.1553zm-6.6552-4.3372h5.1554l-2.5621-7.3857z" />
        <path
            d="m92.9804 6.91424c-.0487-.28189-.1327-.55645-.2499-.81715-.1464-.32536-.3472-.62302-.5937-.88-.3062-.29752-.667-.53235-1.0623-.69142-.5169-.20411-1.0697-.30035-1.6247-.28286-.7728-.03225-1.53.22536-2.1247.72286-.2369.1882-.4297.42655-.5647.69814-.135.27158-.2089.56974-.2164.87328-.0108.24272.0279.48509.1139.71214.086.22704.2174.43393.386.60786.4495.39802 1.0021.65958 1.5935.75429l2.8433.50286c.926.14982 1.8225.44686 2.6558.88.715.37856 1.3597.87826 1.9059 1.47716.511.5412.9047 1.1834 1.1561 1.8857.2532.7053.3802 1.4501.3749 2.2.0032.8532-.1669 1.6981-.4999 2.4829-.3531.8151-.8628 1.552-1.4998 2.1685-.7235.6592-1.5598 1.181-2.4683 1.54-1.0783.4077-2.2226.6102-3.3744.5972-1.3012.0308-2.5959-.1933-3.8119-.66-.9683-.3757-1.8585-.93-2.6246-1.6343-.6655-.6246-1.2064-1.3713-1.5934-2.2-.3541-.7411-.5762-1.5389-.6562-2.3572l4.343-1.0685c.0402.4866.1561.9639.3437 1.4143.1861.441.463.8373.8124 1.1628.3894.3521.8467.6195 1.3435.7857.6026.2114 1.2366.3177 1.8747.3143.788.0407 1.5674-.1801 2.2184-.6286.2501-.1829.4521-.4246.5882-.7039.1361-.2794.2024-.588.1929-.8989-.0004-.262-.0563-.5208-.1641-.7593-.1078-.2384-.2648-.451-.4608-.6236-.4696-.4044-1.044-.666-1.656-.7543l-2.9057-.5342c-1.8122-.3458-3.2495-1.0686-4.2493-2.2-1.0197-1.10951-1.569-2.5753-1.531-4.08576-.0045-.95782.2093-1.90394.6249-2.76572.3972-.83009.9611-1.56844 1.656-2.16857.7202-.61634 1.5461-1.095587 2.4371-1.414284.9299-.344655 1.9147-.5150868 2.9057-.5028593 1.1472-.0218739 2.2894.1589663 3.3745.5342873.8502.310819 1.6345.779956 2.3121 1.382856.5833.52093 1.0608 1.15063 1.406 1.85429.2973.62.5177 1.27444.6561 1.94857z" />
        <path
            d="m104.197 21.8431v-21.37142h13.467v4.49429h-8.718v4.08571h7.905v4.18002h-7.905v4.1171h8.749v4.5257h-13.498z" />
        <path d="m.589844.47168v21.37142h21.246456v-21.37142zm19.371756 10.68572h-17.49707v-8.80001h17.49707z" />
    </g>
</svg>
