<svg xmlns="http://www.w3.org/2000/svg" version="1.1" xmlns:xlink="http://www.w3.org/1999/xlink" xmlns:svgjs="http://svgjs.dev/svgjs" viewBox="0 0 800 800"><g fill="#f9ecc3" shape-rendering="crispEdges"><rect width="200" height="200" x="600" y="0"></rect><rect width="100" height="100" x="500" y="0"></rect><rect width="100" height="100" x="400" y="0"></rect><rect width="100" height="100" x="400" y="100"></rect><rect width="100" height="100" x="500" y="100"></rect><rect width="100" height="100" x="500" y="200"></rect><rect width="100" height="100" x="400" y="200"></rect><rect width="50" height="50" x="450" y="300"></rect><rect width="50" height="50" x="400" y="300"></rect><rect width="50" height="50" x="400" y="350"></rect><rect width="50" height="50" x="450" y="350"></rect><rect width="50" height="50" x="550" y="300"></rect><rect width="50" height="50" x="500" y="300"></rect><rect width="50" height="50" x="500" y="350"></rect><rect width="50" height="50" x="550" y="350"></rect><rect width="100" height="100" x="700" y="200"></rect><rect width="100" height="100" x="600" y="200"></rect><rect width="100" height="100" x="600" y="300"></rect><rect width="100" height="100" x="700" y="300"></rect><rect width="100" height="100" x="300" y="0"></rect><rect width="100" height="100" x="200" y="0"></rect><rect width="100" height="100" x="200" y="100"></rect><rect width="50" height="50" x="350" y="100"></rect><rect width="50" height="50" x="300" y="100"></rect><rect width="50" height="50" x="300" y="150"></rect><rect width="50" height="50" x="350" y="150"></rect><rect width="200" height="200" x="0" y="0"></rect><rect width="100" height="100" x="100" y="200"></rect><rect width="100" height="100" x="0" y="200"></rect><rect width="100" height="100" x="0" y="300"></rect><rect width="50" height="50" x="150" y="300"></rect><rect width="50" height="50" x="100" y="300"></rect><rect width="50" height="50" x="100" y="350"></rect><rect width="50" height="50" x="150" y="350"></rect><rect width="100" height="100" x="300" y="200"></rect><rect width="100" height="100" x="200" y="200"></rect><rect width="100" height="100" x="200" y="300"></rect><rect width="50" height="50" x="350" y="300"></rect><rect width="50" height="50" x="300" y="300"></rect><rect width="50" height="50" x="300" y="350"></rect><rect width="50" height="50" x="350" y="350"></rect><rect width="100" height="100" x="300" y="400"></rect><rect width="50" height="50" x="250" y="400"></rect><rect width="50" height="50" x="200" y="400"></rect><rect width="50" height="50" x="200" y="450"></rect><rect width="50" height="50" x="250" y="450"></rect><rect width="50" height="50" x="250" y="500"></rect><rect width="50" height="50" x="200" y="500"></rect><rect width="50" height="50" x="200" y="550"></rect><rect width="50" height="50" x="250" y="550"></rect><rect width="100" height="100" x="300" y="500"></rect><rect width="50" height="50" x="150" y="400"></rect><rect width="50" height="50" x="100" y="400"></rect><rect width="50" height="50" x="100" y="450"></rect><rect width="50" height="50" x="150" y="450"></rect><rect width="100" height="100" x="0" y="400"></rect><rect width="100" height="100" x="0" y="500"></rect><rect width="100" height="100" x="100" y="500"></rect><rect width="100" height="100" x="100" y="600"></rect><rect width="100" height="100" x="0" y="600"></rect><rect width="100" height="100" x="0" y="700"></rect><rect width="100" height="100" x="100" y="700"></rect><rect width="50" height="50" x="350" y="600"></rect><rect width="50" height="50" x="300" y="600"></rect><rect width="50" height="50" x="300" y="650"></rect><rect width="50" height="50" x="350" y="650"></rect><rect width="100" height="100" x="200" y="600"></rect><rect width="100" height="100" x="200" y="700"></rect><rect width="100" height="100" x="300" y="700"></rect><rect width="100" height="100" x="700" y="400"></rect><rect width="100" height="100" x="600" y="400"></rect><rect width="100" height="100" x="600" y="500"></rect><rect width="100" height="100" x="700" y="500"></rect><rect width="100" height="100" x="500" y="400"></rect><rect width="50" height="50" x="450" y="400"></rect><rect width="50" height="50" x="400" y="400"></rect><rect width="50" height="50" x="400" y="450"></rect><rect width="50" height="50" x="450" y="450"></rect><rect width="50" height="50" x="450" y="500"></rect><rect width="50" height="50" x="400" y="500"></rect><rect width="50" height="50" x="400" y="550"></rect><rect width="50" height="50" x="450" y="550"></rect><rect width="100" height="100" x="500" y="500"></rect><rect width="100" height="100" x="500" y="600"></rect><rect width="100" height="100" x="400" y="600"></rect><rect width="100" height="100" x="400" y="700"></rect><rect width="100" height="100" x="500" y="700"></rect><rect width="200" height="200" x="600" y="600"></rect></g><g fill="#fbf0cc" shape-rendering="crispEdges"><polygon points="600,0 600,200 800,0"></polygon><polygon points="600,100 500,100 600,0"></polygon><polygon points="400,0 500,0 400,100"></polygon><polygon points="500,200 400,200 500,100"></polygon><polygon points="600,200 600,100 500,100"></polygon><polygon points="600,300 500,200 600,200"></polygon><polygon points="500,200 500,300 400,300"></polygon><polygon points="500,350 500,300 450,350"></polygon><polygon points="400,300 450,300 400,350"></polygon><polygon points="450,350 400,350 450,400"></polygon><polygon points="500,350 500,400 450,350"></polygon><polygon points="600,350 550,350 550,300"></polygon><polygon points="500,300 550,350 500,350"></polygon><polygon points="550,400 500,400 550,350"></polygon><polygon points="600,350 600,400 550,400"></polygon><polygon points="800,200 700,200 800,300"></polygon><polygon points="600,300 700,200 700,300"></polygon><polygon points="700,400 700,300 600,300"></polygon><polygon points="800,300 800,400 700,400"></polygon><polygon points="400,0 400,100 300,0"></polygon><polygon points="300,100 300,0 200,0"></polygon><polygon points="300,100 300,200 200,100"></polygon><polygon points="350,100 400,100 400,150"></polygon><polygon points="350,150 300,150 300,100"></polygon><polygon points="350,200 300,200 350,150"></polygon><polygon points="400,150 400,200 350,200"></polygon><polygon points="0,0 200,200 0,200"></polygon><polygon points="200,200 200,300 100,300"></polygon><polygon points="0,300 100,200 100,300"></polygon><polygon points="100,300 0,400 0,300"></polygon><polygon points="200,350 150,350 150,300"></polygon><polygon points="100,350 150,300 150,350"></polygon><polygon points="150,400 150,350 100,400"></polygon><polygon points="200,400 200,350 150,400"></polygon><polygon points="400,300 300,300 400,200"></polygon><polygon points="300,300 200,300 200,200"></polygon><polygon points="300,400 200,300 200,400"></polygon><polygon points="350,350 400,300 350,300"></polygon><polygon points="350,300 350,350 300,300"></polygon><polygon points="300,400 350,400 300,350"></polygon><polygon points="350,400 400,400 350,350"></polygon><polygon points="300,500 400,400 300,400"></polygon><polygon points="300,400 300,450 250,400"></polygon><polygon points="250,450 250,400 200,400"></polygon><polygon points="200,500 250,450 250,500"></polygon><polygon points="300,500 300,450 250,450"></polygon><polygon points="250,550 300,550 250,500"></polygon><polygon points="200,500 250,500 200,550"></polygon><polygon points="250,600 200,600 250,550"></polygon><polygon points="300,600 300,550 250,600"></polygon><polygon points="400,600 300,500 400,500"></polygon><polygon points="150,400 200,400 200,450"></polygon><polygon points="100,450 150,400 100,400"></polygon><polygon points="100,450 150,450 100,500"></polygon><polygon points="200,500 200,450 150,450"></polygon><polygon points="100,400 100,500 0,400"></polygon><polygon points="100,500 100,600 0,500"></polygon><polygon points="100,500 200,600 200,500"></polygon><polygon points="100,600 100,700 200,700"></polygon><polygon points="100,600 100,700 0,600"></polygon><polygon points="0,800 0,700 100,800"></polygon><polygon points="200,800 200,700 100,700"></polygon><polygon points="400,600 400,650 350,600"></polygon><polygon points="350,650 300,650 300,600"></polygon><polygon points="350,650 350,700 300,700"></polygon><polygon points="350,700 400,650 400,700"></polygon><polygon points="300,600 200,700 300,700"></polygon><polygon points="300,800 200,800 300,700"></polygon><polygon points="300,800 400,700 300,700"></polygon><polygon points="700,400 800,500 800,400"></polygon><polygon points="700,500 700,400 600,400"></polygon><polygon points="700,600 700,500 600,500"></polygon><polygon points="800,500 700,500 700,600"></polygon><polygon points="600,400 600,500 500,500"></polygon><polygon points="500,400 450,400 450,450"></polygon><polygon points="450,400 400,450 400,400"></polygon><polygon points="450,450 400,500 400,450"></polygon><polygon points="450,500 500,450 450,450"></polygon><polygon points="500,500 450,550 450,500"></polygon><polygon points="400,550 450,500 450,550"></polygon><polygon points="450,600 400,550 400,600"></polygon><polygon points="450,550 450,600 500,600"></polygon><polygon points="600,600 600,500 500,500"></polygon><polygon points="600,600 600,700 500,600"></polygon><polygon points="500,600 400,700 400,600"></polygon><polygon points="500,800 500,700 400,800"></polygon><polygon points="600,800 500,700 500,800"></polygon><polygon points="800,800 600,600 800,600"></polygon></g><g fill="hsl(71, 43%, 95%)" stroke-width="3" stroke="#f9ecc3"></g></svg>