<svg width="192" height="52" viewBox="0 0 192 52" fill="none" xmlns="http://www.w3.org/2000/svg">
<g clip-path="url(#clip0_1194_5139)">
<mask id="mask0_1194_5139" style="mask-type:luminance" maskUnits="userSpaceOnUse" x="0" y="0" width="34" height="52">
<path d="M33.3317 0H0V52H33.3317V0Z" fill="white"/>
</mask>
<g mask="url(#mask0_1194_5139)">
<path fill-rule="evenodd" clip-rule="evenodd" d="M15.9613 0.0365203C9.20908 0.714215 8.97127 10.8981 15.6811 12.0378C15.9851 12.0894 16.0814 12.1165 16.0884 12.1525C16.0935 12.1783 16.069 12.6919 16.0342 13.2936C15.9993 13.8954 15.9553 15.0787 15.9365 15.923C15.9177 16.7675 15.8957 17.4632 15.8875 17.4693C15.8795 17.4753 15.7698 17.5317 15.6439 17.5948C15.408 17.7129 15.0977 17.9722 14.973 18.1556C14.9031 18.2585 14.9031 18.2585 14.4736 18.2727C13.7954 18.2954 13.382 18.4642 13.0066 18.872C12.9026 18.9851 12.8073 19.0653 12.7947 19.0503C12.782 19.0354 12.3907 18.4482 11.925 17.7455C11.4593 17.0427 10.9306 16.2514 10.75 15.987L10.4217 15.5061L10.6143 15.2887C14.2072 11.2331 9.1833 5.12491 4.91129 8.3547C0.659025 11.5696 4.47019 18.3132 9.35938 16.2253C9.37948 16.2167 9.74269 16.6794 10.2185 17.3197C10.6718 17.9298 11.238 18.682 11.4767 18.9912C11.7155 19.3005 11.9309 19.5845 11.9556 19.6224C12.0062 19.7001 12.0225 19.6888 11.749 19.7653C10.9907 19.9775 10.2758 20.6187 10.1341 21.2137C10.1155 21.2919 10.085 21.3562 10.0663 21.3567C8.78493 21.3914 7.8043 22.361 7.79045 23.607C7.78576 24.0309 7.78576 24.0309 7.61124 24.1364C6.02298 25.0968 3.86821 28.3185 3.71436 29.963C3.69162 30.2061 3.70058 30.198 3.38629 30.2527C2.6771 30.376 2.26281 30.6369 1.82596 31.2351C1.27274 31.9928 1.22171 32.6441 1.64355 33.5638C1.78643 33.8755 1.79428 33.8202 1.55875 34.1584C-0.931901 37.7327 -0.413047 41.9272 2.93782 45.3065C5.12939 47.5167 8.20574 48.8642 11.6547 49.1242C12.9716 49.2235 13.1224 49.274 13.4616 49.7292C15.6919 52.7215 17.617 52.7215 19.8473 49.7292C20.1866 49.274 20.3373 49.2235 21.6542 49.1242C26.8095 48.7356 31.1226 45.8566 32.7394 41.7248C33.77 39.0912 33.4429 36.5908 31.7495 34.156C31.5146 33.8181 31.5226 33.8749 31.6654 33.5638C32.0872 32.6441 32.0362 31.9928 31.4831 31.2351C31.0462 30.6369 30.6318 30.376 29.9227 30.2527C29.6083 30.198 29.6174 30.2061 29.5947 29.963C29.5443 29.4238 28.9776 28.0399 28.4371 27.1354C27.7727 26.0237 26.4821 24.6107 25.6977 24.1364C25.5232 24.0309 25.5232 24.0309 25.5185 23.607C25.5047 22.361 24.524 21.3914 23.2427 21.3567C23.224 21.3562 23.1935 21.2919 23.1749 21.2137C23.0332 20.6187 22.3183 19.9775 21.56 19.7653C21.2865 19.6888 21.3028 19.7001 21.3534 19.6224C21.378 19.5845 21.5935 19.3005 21.8322 18.9912C22.071 18.682 22.6372 17.9298 23.0905 17.3197C23.5663 16.6794 23.9295 16.2167 23.9496 16.2253C28.8388 18.3132 32.65 11.5696 28.3977 8.3547C24.1256 5.12491 19.1018 11.2331 22.6946 15.2887L22.8873 15.5061L22.559 15.987C22.3784 16.2514 21.8496 17.0427 21.384 17.7455C20.9183 18.4482 20.527 19.0354 20.5143 19.0503C20.5016 19.0653 20.4064 18.9851 20.3023 18.872C19.927 18.4642 19.5136 18.2954 18.8354 18.2727C18.4059 18.2585 18.4059 18.2585 18.337 18.157C18.1562 17.8914 17.7398 17.5897 17.403 17.4803C17.2519 17.4312 17.2519 17.4312 17.2556 15.6272C17.2575 14.635 17.2525 13.4367 17.2444 12.9644L17.2297 12.1057L17.6279 12.0379C25.1744 10.7538 23.58 -0.728117 15.9613 0.0365203ZM15.7758 1.52292C13.1868 1.9994 11.4853 4.43827 11.9497 6.82516C11.9832 6.99729 12.0279 7.16916 12.0845 7.34001C13.4373 11.4304 19.8717 11.4304 21.2245 7.34001C21.2817 7.1673 21.3268 6.99442 21.3606 6.82203C21.9534 3.79891 19.05 0.920357 15.7758 1.52292ZM7.08267 9.0107C5.17066 9.37088 4.03909 11.3474 4.51057 13.0233C4.60122 13.3455 4.75112 13.6566 4.96612 13.943C6.48723 15.969 9.22621 15.7646 10.3547 13.5409C10.4535 13.3463 10.529 13.148 10.5829 12.9485C11.1531 10.8388 9.31089 8.59098 7.08267 9.0107ZM25.1984 9.0124C23.2911 9.35952 22.3026 11.2558 22.7285 12.9456C22.8708 13.5103 23.1712 14.052 23.6479 14.505C25.0194 15.8083 27.1323 15.5554 28.3429 13.943C28.5581 13.6563 28.7073 13.3496 28.7979 13.0344C29.3859 10.9905 27.5112 8.59146 25.1984 9.0124ZM16.3336 18.4456C15.4002 18.6133 15.0987 19.4934 15.5953 20.6011C15.7432 20.9309 15.7432 20.9309 15.9701 20.9333C16.1739 20.9355 16.2203 20.9477 16.4257 21.0534C16.6545 21.1711 16.6545 21.1711 16.8832 21.0534C17.0886 20.9477 17.135 20.9355 17.3388 20.9333C17.5657 20.9309 17.5657 20.9309 17.7135 20.6011C18.3227 19.2409 17.6608 18.2071 16.3336 18.4456ZM13.9393 19.3162C13.1746 19.524 12.9539 20.4693 13.439 21.4598C13.6398 21.8698 13.6001 21.8376 13.8432 21.7866C14.0007 21.7535 14.0876 21.75 14.1956 21.7724C14.5501 21.8459 14.5066 21.8579 14.6569 21.6457C14.7316 21.5403 14.8558 21.4004 14.9329 21.3349C15.0732 21.2156 15.0732 21.2156 14.9806 21.0702C14.7282 20.6738 14.6219 20.293 14.598 19.6992C14.5801 19.2521 14.4512 19.1772 13.9393 19.3162ZM18.7111 19.6956C18.687 20.2933 18.5814 20.6729 18.3284 21.0702C18.2358 21.2156 18.2358 21.2156 18.3761 21.3349C18.4532 21.4004 18.5774 21.5403 18.6521 21.6457C18.8023 21.8579 18.7589 21.8459 19.1134 21.7724C19.2213 21.75 19.3083 21.7535 19.4658 21.7866C19.7089 21.8376 19.6691 21.8698 19.87 21.4598C20.4369 20.3021 20.0662 19.324 19.0444 19.2817L18.7282 19.2685L18.7111 19.6956ZM11.8464 20.4813C10.7035 20.7826 10.2974 22.1764 11.0698 23.146C11.2539 23.3772 11.2415 23.3732 11.4257 23.2611C11.7118 23.0869 12.0344 23.0309 12.4105 23.09C12.5468 23.1114 12.5468 23.1114 12.5813 22.9733C12.6393 22.7411 12.81 22.4383 12.9952 22.2388C13.1714 22.0492 13.1714 22.0492 13.0514 21.8882C12.7895 21.5373 12.5567 20.8664 12.5545 20.4569C12.5543 20.4181 12.0157 20.4367 11.8464 20.4813ZM20.7544 20.4569C20.7523 20.8664 20.5195 21.5373 20.2576 21.8882C20.1376 22.0492 20.1376 22.0492 20.3137 22.2388C20.4989 22.4383 20.6697 22.7411 20.7277 22.9733C20.7622 23.1114 20.7622 23.1114 20.8985 23.09C21.2746 23.0309 21.5972 23.0869 21.8833 23.2611C22.0674 23.3732 22.0551 23.3772 22.2392 23.146C22.8829 22.3379 22.691 21.0501 21.8663 20.6435C21.5121 20.4688 20.7551 20.3418 20.7544 20.4569ZM15.5108 21.875C14.708 22.2515 14.6351 23.1696 15.3248 24.219C15.5368 24.5417 15.5368 24.5417 15.6195 24.4104C16.0589 23.7124 17.25 23.7124 17.6895 24.4104C17.809 24.6002 18.2902 23.8765 18.4125 23.3229C18.6307 22.3348 17.6739 21.3299 17.133 21.9791C17.0179 22.1172 16.8766 22.3708 16.8207 22.5392C16.7126 22.8656 16.5964 22.8656 16.4882 22.5392C16.4018 22.2783 16.2196 21.997 16.0532 21.8676C15.9349 21.7757 15.7164 21.7787 15.5108 21.875ZM9.81118 22.0755C8.35261 22.2686 8.08616 24.3805 9.40636 25.2837C9.68744 25.4759 10.4896 25.815 10.4896 25.7415C10.4896 25.737 10.4631 25.6287 10.4306 25.5009C10.2923 24.956 10.4367 24.2701 10.7804 23.8406C10.8725 23.7255 10.8725 23.7255 10.6411 23.4793C10.2983 23.1145 10.1128 22.7223 10.0616 22.2546C10.0375 22.0339 10.0512 22.0437 9.81118 22.0755ZM23.2755 22.0811C23.2698 22.0989 23.251 22.2103 23.2337 22.3287C23.1654 22.7978 23.0009 23.129 22.6554 23.4932C22.4359 23.7247 22.4359 23.7247 22.5283 23.8402C22.8723 24.2701 23.0168 24.9558 22.8783 25.5009C22.8459 25.6287 22.8194 25.737 22.8194 25.7415C22.8194 25.815 23.6215 25.4759 23.9026 25.2837C25.0722 24.4835 25.0519 22.7416 23.8665 22.1848C23.671 22.093 23.2929 22.0266 23.2755 22.0811ZM13.8405 22.4586C12.9127 22.5932 12.7236 24.1273 13.5077 25.1579C13.5755 25.247 13.64 25.3331 13.6509 25.3491C13.6628 25.3664 13.7168 25.3464 13.7837 25.3C14.1616 25.0374 14.6189 24.9803 15.3096 25.1096C15.3325 25.1139 15.4576 24.8 15.4376 24.7883C14.6865 24.3511 14.2579 23.575 14.3011 22.7304C14.3136 22.4856 14.3136 22.4856 14.2083 22.4678C14.1504 22.458 14.0831 22.4463 14.0587 22.4417C14.0344 22.4371 13.9362 22.4448 13.8405 22.4586ZM19.2355 22.4423C19.2193 22.4467 19.1586 22.4583 19.1007 22.468C18.9954 22.4856 18.9954 22.4856 19.0079 22.7304C19.0511 23.575 18.6225 24.3511 17.8713 24.7883C17.8513 24.8 17.9765 25.1139 17.9994 25.1096C18.6901 24.9803 19.1474 25.0374 19.5253 25.3C19.5922 25.3464 19.6462 25.3664 19.658 25.3491C19.669 25.3331 19.7334 25.247 19.8013 25.1579C20.3776 24.4004 20.4477 23.1166 19.9375 22.6642C19.7796 22.5242 19.3883 22.4005 19.2355 22.4423ZM11.9586 23.6854C10.8216 23.9937 10.742 25.5766 11.8125 26.5899C12.5862 27.3223 11.8306 27.1506 10.9878 26.4025C10.7593 26.1997 10.7593 26.1997 10.5852 26.218C9.87394 26.2929 8.77837 25.6593 8.19418 24.8354C8.05939 24.6452 8.05939 24.6452 7.97367 24.7462C6.75909 26.1765 6.06782 27.4572 5.28062 29.7351C5.0858 30.2991 5.08385 30.2551 5.30547 30.2976C9.08783 31.0208 11.5836 35.0804 11.6613 40.6361C11.6783 41.8493 11.6482 41.7765 12.0672 41.6187C12.323 41.5222 12.3748 41.4488 12.5838 40.888C13.5402 38.3213 14.3453 37.3036 15.6942 36.9562C15.9734 36.8843 15.9652 36.8897 15.9891 36.7616C16.043 36.4722 16.3462 35.7145 16.4555 35.5962C16.719 35.3113 17.1607 35.9067 17.3199 36.7616C17.3438 36.8897 17.3356 36.8843 17.6148 36.9562C18.9636 37.3036 19.7688 38.3213 20.7252 40.888C20.9342 41.4488 20.986 41.5222 21.2418 41.6187C21.6607 41.7765 21.6306 41.8493 21.6476 40.6361C21.7254 35.0801 24.2209 31.0208 28.0035 30.2976C28.2251 30.2551 28.2232 30.2991 28.0283 29.7351C27.2411 27.4572 26.5499 26.1765 25.3353 24.7462C25.2496 24.6452 25.2496 24.6452 25.1148 24.8354C24.5306 25.6593 23.435 26.2929 22.7238 26.218C22.5497 26.1997 22.5497 26.1997 22.3212 26.4025C21.4784 27.1506 20.7228 27.3223 21.4965 26.5899C22.2689 25.8587 22.4639 25.1038 22.0785 24.3361C21.7732 23.7278 20.8314 23.3632 20.7716 23.8302C20.6759 24.5772 20.3827 25.1518 19.9412 25.4579C19.8126 25.547 19.8126 25.547 19.9222 25.7468C20.1745 26.2065 20.0498 26.804 19.6078 27.2541C19.2338 27.6349 18.9334 27.6599 19.2765 27.2816C19.7267 26.7854 19.6954 26.1806 19.2121 26.036C18.9229 25.9494 18.0113 25.9862 18.0113 26.0843C18.0113 26.3075 17.7183 26.9938 17.5444 27.1781C17.3286 27.4065 17.2834 27.3075 17.432 26.9318C17.8872 25.7809 17.5078 24.6838 16.6545 24.6838C15.8011 24.6838 15.4217 25.7809 15.8769 26.9318C16.0256 27.3075 15.9804 27.4065 15.7646 27.1781C15.5906 26.9938 15.2976 26.3075 15.2976 26.0843C15.2976 25.9862 14.3861 25.9494 14.0969 26.036C13.6135 26.1806 13.5822 26.7854 14.0324 27.2816C14.3756 27.6599 14.0751 27.6349 13.7011 27.2541C13.2591 26.804 13.1345 26.2065 13.3867 25.7468C13.4964 25.547 13.4964 25.547 13.3677 25.4579C12.9267 25.1522 12.633 24.577 12.5376 23.832C12.5219 23.7096 12.5053 23.6752 12.4551 23.6616C12.3514 23.6336 12.1063 23.6453 11.9586 23.6854ZM3.82763 31.0413C2.08707 31.3198 2.34885 33.2512 4.34651 34.8694C4.98064 35.3832 4.99214 35.3903 6.00606 35.9166C9.74374 37.8566 10.7256 39.0487 10.7256 41.6479C10.7256 41.8264 10.8515 41.8811 11.0279 41.7789C11.0597 41.7605 11.0547 40.5172 11.0201 39.8528C10.8578 36.7328 9.61702 33.8163 7.83831 32.3746C6.66175 31.4208 4.97046 30.8586 3.82763 31.0413ZM28.586 31.0315C25.3583 31.3777 22.904 34.4891 22.3631 38.9204C22.277 39.6258 22.2163 41.7411 22.281 41.7789C22.4575 41.8811 22.5834 41.8264 22.5834 41.6479C22.5834 39.0484 23.5646 37.8569 27.3029 35.9166C28.3168 35.3903 28.3283 35.3832 28.9625 34.8694C31.3566 32.9303 31.1433 30.7573 28.586 31.0315ZM2.56326 35.0019C1.20552 36.493 0.805393 39.5726 1.68402 41.7694C2.91726 44.8531 6.95236 47.72 10.5043 48.0364C12.114 48.1796 12.4794 48.1553 12.3254 47.9137C12.0729 47.5182 11.2075 45.9139 10.7019 44.9042C10.5709 44.6427 10.3677 44.2752 10.2502 44.0871C9.7227 43.2429 9.684 42.6293 10.128 42.1512C10.3909 41.868 10.2258 40.5288 9.82821 39.7188C9.63161 39.3183 9.64515 39.3224 9.45807 39.6077C7.30605 42.889 2.91549 40.3778 3.00448 35.9168C3.01808 35.2361 3.01808 35.2361 2.83181 35.0855C2.61439 34.9101 2.63984 34.9178 2.56326 35.0019ZM30.4708 35.0875C30.2908 35.2361 30.2908 35.2361 30.3044 35.9168C30.3935 40.3778 26.0029 42.8887 23.8509 39.6077C23.6638 39.3224 23.6774 39.3183 23.4808 39.7188C23.0832 40.5288 22.918 41.868 23.1809 42.1512C23.625 42.6293 23.5863 43.2429 23.0588 44.0871C22.9413 44.2752 22.7381 44.6427 22.6071 44.9042C22.1015 45.9139 21.236 47.5182 20.9835 47.9137C20.8286 48.1568 20.7853 48.1452 21.6917 48.1024C23.5821 48.0135 24.3685 47.8376 25.9018 47.1607C31.4459 44.7141 33.7004 39.5161 31.0105 35.3823C30.6781 34.8712 30.7109 34.8893 30.4708 35.0875ZM3.75114 35.8042C3.46526 36.7601 4.03119 38.5617 4.90757 39.4858C5.17969 39.7726 5.19602 39.7744 5.0873 39.5055C4.65036 38.4239 4.81056 37.0825 5.4276 36.6567C5.5417 36.578 5.33333 36.4457 4.53119 36.0886C4.34462 36.0054 4.10272 35.8925 3.99361 35.8375C3.7581 35.7186 3.77601 35.7213 3.75114 35.8042ZM29.353 35.8179C29.2718 35.8604 29.0197 35.9795 28.7925 36.0826C27.916 36.4796 27.7637 36.5756 27.8809 36.6564C28.4984 37.0825 28.6588 38.4232 28.2217 39.5055C28.1129 39.7744 28.1293 39.7726 28.4014 39.4858C29.2778 38.5617 29.8437 36.7601 29.5578 35.8042C29.5333 35.7225 29.5345 35.7225 29.353 35.8179ZM16.3053 37.6409C15.1766 37.8444 14.1202 39.0767 13.301 41.1454C12.8903 42.1827 12.6767 42.3328 11.3155 42.5414C10.4198 42.6786 10.3607 42.8985 10.9763 43.8033C11.4214 44.4576 11.965 45.3615 12.5392 46.4015C13.5654 48.2608 13.944 48.8773 14.4658 49.5397C16.2656 51.8244 17.8039 51.4497 19.7121 48.2619C20.0879 47.6344 20.1348 47.5518 20.7698 46.4015C21.3439 45.3615 21.8876 44.4576 22.3326 43.8033C22.9482 42.8985 22.8892 42.6786 21.9934 42.5414C20.6323 42.3328 20.4187 42.1827 20.008 41.1454C19.0203 38.6514 17.6889 37.3913 16.3053 37.6409ZM13.3066 42.5592C13.031 42.7039 12.9315 42.9817 13.0599 43.2488C13.1616 43.4604 13.4419 43.5659 13.6143 43.4575C13.6618 43.4277 13.6976 43.4387 13.8425 43.5281C14.3607 43.8473 14.5583 43.7855 14.3972 43.3543C14.1514 42.6965 13.6882 42.3589 13.3066 42.5592ZM19.4953 42.5726C19.179 42.7345 18.7745 43.4265 18.8738 43.6363C18.9456 43.7879 19.0864 43.7623 19.4664 43.5281C19.6114 43.4387 19.6472 43.4277 19.6946 43.4575C19.8671 43.5659 20.1473 43.4604 20.2491 43.2488C20.4689 42.7915 19.9597 42.3345 19.4953 42.5726Z" fill="#22110C"/>
<path d="M19.2354 22.4423C19.2192 22.4467 19.1585 22.4583 19.1006 22.468C18.9953 22.4856 18.9953 22.4856 19.0078 22.7304C19.051 23.575 18.6224 24.3511 17.8713 24.7883C17.8513 24.8 17.9764 25.1139 17.9994 25.1096C18.6901 24.9803 19.1473 25.0374 19.5252 25.3C19.5921 25.3464 19.6462 25.3665 19.658 25.3492C19.6689 25.3331 19.7333 25.247 19.8012 25.1579C20.3775 24.4004 20.4477 23.1166 19.9374 22.6642C19.7796 22.5242 19.3883 22.4005 19.2354 22.4423Z" fill="#2430F0"/>
<path d="M23.2755 22.0811C23.2698 22.0989 23.251 22.2103 23.2337 22.3287C23.1653 22.7978 23.0009 23.129 22.6554 23.4932C22.4358 23.7247 22.4358 23.7247 22.5283 23.8402C22.8722 24.2701 23.0168 24.9558 22.8783 25.5009C22.8459 25.6287 22.8194 25.737 22.8194 25.7415C22.8194 25.815 23.6215 25.4759 23.9025 25.2837C25.0722 24.4835 25.0519 22.7416 23.8665 22.1848C23.671 22.093 23.2929 22.0266 23.2755 22.0811Z" fill="#2430F0"/>
<path d="M20.7544 20.4569C20.7523 20.8664 20.5194 21.5373 20.2576 21.8882C20.1376 22.0492 20.1376 22.0492 20.3137 22.2388C20.4989 22.4383 20.6696 22.7411 20.7276 22.9733C20.7622 23.1114 20.7622 23.1114 20.8985 23.09C21.2746 23.0309 21.5971 23.0869 21.8833 23.2611C22.0674 23.3732 22.055 23.3772 22.2391 23.146C22.8829 22.3379 22.691 21.0501 21.8662 20.6435C21.5121 20.4688 20.755 20.3418 20.7544 20.4569Z" fill="#2430F0"/>
<path d="M18.7111 19.6956C18.6871 20.2933 18.5814 20.6729 18.3284 21.0702C18.2359 21.2156 18.2359 21.2156 18.3761 21.3349C18.4532 21.4004 18.5775 21.5403 18.6521 21.6457C18.8024 21.8579 18.759 21.846 19.1134 21.7724C19.2214 21.75 19.3084 21.7535 19.4659 21.7865C19.709 21.8376 19.6692 21.8698 19.8699 21.4598C20.4369 20.3021 20.0662 19.3241 19.0444 19.2816L18.7283 19.2686L18.7111 19.6956Z" fill="#2430F0"/>
<path d="M16.3336 18.4456C15.4001 18.6133 15.0987 19.4934 15.5953 20.6011C15.7432 20.9309 15.7432 20.9309 15.9701 20.9333C16.1739 20.9354 16.2203 20.9477 16.4257 21.0534C16.6545 21.1711 16.6545 21.1711 16.8832 21.0534C17.0886 20.9477 17.135 20.9354 17.3388 20.9333C17.5657 20.9309 17.5657 20.9309 17.7135 20.6011C18.3227 19.2409 17.6608 18.2071 16.3336 18.4456Z" fill="#2430F0"/>
<path d="M15.5108 21.875C14.708 22.2515 14.6351 23.1696 15.3247 24.219C15.5368 24.5417 15.5368 24.5417 15.6195 24.4104C16.0589 23.7124 17.25 23.7124 17.6895 24.4104C17.809 24.6002 18.2902 23.8765 18.4125 23.3229C18.6307 22.3348 17.6738 21.3299 17.1329 21.9791C17.0179 22.1172 16.8765 22.3708 16.8207 22.5392C16.7126 22.8656 16.5964 22.8656 16.4882 22.5392C16.4018 22.2783 16.2195 21.997 16.0531 21.8676C15.9349 21.7757 15.7163 21.7787 15.5108 21.875Z" fill="#2430F0"/>
<path d="M13.8405 22.4586C12.9127 22.5932 12.7236 24.1273 13.5077 25.1579C13.5755 25.247 13.64 25.3331 13.6509 25.3492C13.6628 25.3665 13.7168 25.3465 13.7837 25.3C14.1616 25.0374 14.6189 24.9803 15.3096 25.1096C15.3325 25.1139 15.4576 24.8 15.4376 24.7883C14.6865 24.3511 14.2579 23.575 14.3011 22.7304C14.3136 22.4856 14.3136 22.4856 14.2083 22.4678C14.1504 22.458 14.083 22.4463 14.0587 22.4417C14.0344 22.4372 13.9362 22.4448 13.8405 22.4586Z" fill="#2430F0"/>
<path d="M11.8465 20.4813C10.7036 20.7826 10.2974 22.1764 11.0699 23.1461C11.254 23.3772 11.2416 23.3732 11.4257 23.2611C11.7119 23.0869 12.0344 23.0309 12.4105 23.09C12.5468 23.1114 12.5468 23.1114 12.5813 22.9733C12.6394 22.7411 12.81 22.4383 12.9953 22.2388C13.1714 22.0492 13.1714 22.0492 13.0514 21.8882C12.7896 21.5373 12.5567 20.8664 12.5545 20.4569C12.5544 20.4181 12.0157 20.4367 11.8465 20.4813Z" fill="#2430F0"/>
<path d="M13.9393 19.3163C13.1746 19.524 12.954 20.4693 13.4391 21.4598C13.6399 21.8698 13.6001 21.8376 13.8432 21.7866C14.0007 21.7535 14.0877 21.75 14.1956 21.7724C14.5501 21.8459 14.5067 21.8579 14.6569 21.6457C14.7316 21.5403 14.8558 21.4004 14.9329 21.3349C15.0732 21.2156 15.0732 21.2156 14.9807 21.0702C14.7282 20.6738 14.622 20.293 14.5981 19.6992C14.5801 19.2521 14.4512 19.1772 13.9393 19.3163Z" fill="#2430F0"/>
<path d="M9.8112 22.0755C8.35263 22.2686 8.08618 24.3805 9.40638 25.2837C9.68746 25.4759 10.4896 25.815 10.4896 25.7415C10.4896 25.737 10.4631 25.6287 10.4307 25.5009C10.2923 24.956 10.4367 24.2701 10.7804 23.8406C10.8725 23.7255 10.8725 23.7255 10.6412 23.4793C10.2984 23.1145 10.1128 22.7223 10.0617 22.2546C10.0375 22.0339 10.0512 22.0437 9.8112 22.0755Z" fill="#2430F0"/>
<path d="M28.586 31.0315C25.3583 31.3777 22.904 34.4891 22.3631 38.9204C22.277 39.6258 22.2163 41.7411 22.281 41.7789C22.4575 41.8811 22.5834 41.8264 22.5834 41.6479C22.5834 39.0484 23.5646 37.8569 27.3029 35.9166C28.3168 35.3903 28.3283 35.3832 28.9625 34.8694C31.3566 32.9303 31.1433 30.7573 28.586 31.0315Z" fill="#2BE1B7"/>
<path d="M30.4707 35.0875C30.2908 35.2361 30.2908 35.2361 30.3043 35.9168C30.3934 40.3778 26.0028 42.8887 23.8508 39.6077C23.6638 39.3224 23.6773 39.3182 23.4807 39.7188C23.0831 40.5288 22.918 41.868 23.1809 42.1512C23.6249 42.6293 23.5862 43.2429 23.0587 44.0871C22.9413 44.2752 22.738 44.6427 22.607 44.9042C22.1014 45.9139 21.236 47.5182 20.9835 47.9137C20.8285 48.1567 20.7852 48.1452 21.6917 48.1024C23.5821 48.0135 24.3684 47.8376 25.9017 47.1607C31.4459 44.7141 33.7004 39.5161 31.0105 35.3823C30.6781 34.8712 30.7108 34.8893 30.4707 35.0875Z" fill="#2BE1B7"/>
<path d="M2.56325 35.0019C1.2055 36.493 0.805379 39.5726 1.68401 41.7694C2.91725 44.8531 6.95234 47.72 10.5044 48.0364C12.114 48.1796 12.4794 48.1553 12.3254 47.9137C12.0729 47.5182 11.2075 45.9139 10.7018 44.9042C10.5709 44.6427 10.3676 44.2752 10.2502 44.0871C9.72268 43.2429 9.68398 42.6293 10.128 42.1512C10.3909 41.868 10.2258 40.5288 9.82819 39.7188C9.63159 39.3183 9.64513 39.3224 9.45805 39.6077C7.30608 42.889 2.91548 40.3778 3.00447 35.9168C3.01807 35.2361 3.01807 35.2361 2.8318 35.0855C2.61438 34.9102 2.63983 34.9178 2.56325 35.0019Z" fill="#2BE1B7"/>
<path d="M3.82768 31.0414C2.08712 31.3198 2.34891 33.2512 4.34656 34.8694C4.98069 35.3832 4.9922 35.3903 6.0061 35.9166C9.74378 37.8566 10.7256 39.0487 10.7256 41.6479C10.7256 41.8264 10.8515 41.8811 11.028 41.7789C11.0598 41.7605 11.0547 40.5172 11.0202 39.8528C10.8579 36.7328 9.61712 33.8163 7.83836 32.3746C6.6618 31.4208 4.97051 30.8586 3.82768 31.0414Z" fill="#2BE1B7"/>
<path d="M11.9586 23.6854C10.8216 23.9937 10.7419 25.5766 11.8124 26.5899C12.5862 27.3223 11.8305 27.1506 10.9877 26.4025C10.7593 26.1997 10.7593 26.1997 10.5851 26.218C9.8739 26.2929 8.77833 25.6593 8.19414 24.8354C8.05935 24.6452 8.05935 24.6452 7.97363 24.7462C6.75905 26.1765 6.06778 27.4572 5.28058 29.7351C5.08575 30.2991 5.08381 30.2551 5.30543 30.2976C9.08779 31.0208 11.5836 35.0804 11.6613 40.6361C11.6782 41.8493 11.6482 41.7765 12.0671 41.6187C12.3229 41.5222 12.3748 41.4488 12.5838 40.888C13.5401 38.3213 14.3452 37.3036 15.6942 36.9562C15.9733 36.8843 15.9652 36.8897 15.989 36.7616C16.0429 36.4722 16.3462 35.7145 16.4554 35.5962C16.719 35.3113 17.1607 35.9067 17.3199 36.7616C17.3437 36.8897 17.3356 36.8843 17.6147 36.9562C18.9636 37.3036 19.7687 38.3213 20.7251 40.888C20.9341 41.4488 20.986 41.5222 21.2418 41.6187C21.6607 41.7765 21.6306 41.8493 21.6476 40.6361C21.7253 35.0801 24.2208 31.0208 28.0034 30.2976C28.2251 30.2551 28.2231 30.2991 28.0283 29.7351C27.2411 27.4572 26.5498 26.1765 25.3353 24.7462C25.2495 24.6452 25.2495 24.6452 25.1147 24.8354C24.5306 25.6593 23.435 26.2929 22.7238 26.218C22.5496 26.1997 22.5496 26.1997 22.3211 26.4025C21.4784 27.1506 20.7227 27.3223 21.4964 26.5899C22.2689 25.8588 22.4638 25.1038 22.0785 24.3361C21.7732 23.7278 20.8314 23.3632 20.7715 23.8302C20.6759 24.5772 20.3827 25.1518 19.9412 25.4579C19.8126 25.547 19.8126 25.547 19.9222 25.7468C20.1744 26.2065 20.0498 26.804 19.6078 27.2541C19.2338 27.6349 18.9333 27.6599 19.2765 27.2816C19.7267 26.7854 19.6954 26.1806 19.212 26.036C18.9229 25.9495 18.0113 25.9862 18.0113 26.0843C18.0113 26.3075 17.7183 26.9938 17.5444 27.1781C17.3286 27.4065 17.2834 27.3075 17.432 26.9318C17.8872 25.7809 17.5077 24.6838 16.6544 24.6838C15.8011 24.6838 15.4217 25.7809 15.8769 26.9318C16.0255 27.3075 15.9803 27.4065 15.7645 27.1781C15.5906 26.9938 15.2976 26.3075 15.2976 26.0843C15.2976 25.9862 14.386 25.9495 14.0969 26.036C13.6135 26.1806 13.5822 26.7854 14.0323 27.2816C14.3755 27.6599 14.0751 27.6349 13.7011 27.2541C13.259 26.804 13.1345 26.2065 13.3867 25.7468C13.4963 25.547 13.4963 25.547 13.3677 25.4579C12.9266 25.1522 12.633 24.577 12.5376 23.832C12.5219 23.7096 12.5052 23.6752 12.455 23.6616C12.3514 23.6336 12.1063 23.6453 11.9586 23.6854Z" fill="#2430F0"/>
<path d="M11.9586 23.6854C10.8216 23.9937 10.7419 25.5766 11.8124 26.5899C12.5862 27.3223 11.8305 27.1506 10.9877 26.4025C10.7593 26.1997 10.7593 26.1997 10.5851 26.218C9.8739 26.2929 8.77833 25.6593 8.19414 24.8354C8.05935 24.6452 8.05935 24.6452 7.97363 24.7462C6.75905 26.1765 6.06778 27.4572 5.28058 29.7351C5.08575 30.2991 5.08381 30.2551 5.30543 30.2976C9.08779 31.0208 11.5836 35.0804 11.6613 40.6361C11.6782 41.8493 11.6482 41.7765 12.0671 41.6187C12.3229 41.5222 12.3748 41.4488 12.5838 40.888C13.5401 38.3213 14.3452 37.3036 15.6942 36.9562C15.9733 36.8843 15.9652 36.8897 15.989 36.7616C16.0429 36.4722 16.3462 35.7145 16.4554 35.5962C16.719 35.3113 17.1607 35.9067 17.3199 36.7616C17.3437 36.8897 17.3356 36.8843 17.6147 36.9562C18.9636 37.3036 19.7687 38.3213 20.7251 40.888C20.9341 41.4488 20.986 41.5222 21.2418 41.6187C21.6607 41.7765 21.6306 41.8493 21.6476 40.6361C21.7253 35.0801 24.2208 31.0208 28.0034 30.2976C28.2251 30.2551 28.2231 30.2991 28.0283 29.7351C27.2411 27.4572 26.5498 26.1765 25.3353 24.7462C25.2495 24.6452 25.2495 24.6452 25.1147 24.8354C24.5306 25.6593 23.435 26.2929 22.7238 26.218C22.5496 26.1997 22.5496 26.1997 22.3211 26.4025C21.4784 27.1506 20.7227 27.3223 21.4964 26.5899C22.2689 25.8588 22.4638 25.1038 22.0785 24.3361C21.7732 23.7278 20.8314 23.3632 20.7715 23.8302C20.6759 24.5772 20.3827 25.1518 19.9412 25.4579C19.8126 25.547 19.8126 25.547 19.9222 25.7468C20.1744 26.2065 20.0498 26.804 19.6078 27.2541C19.2338 27.6349 18.9333 27.6599 19.2765 27.2816C19.7267 26.7854 19.6954 26.1806 19.212 26.036C18.9229 25.9495 18.0113 25.9862 18.0113 26.0843C18.0113 26.3075 17.7183 26.9938 17.5444 27.1781C17.3286 27.4065 17.2834 27.3075 17.432 26.9318C17.8872 25.7809 17.5077 24.6838 16.6544 24.6838C15.8011 24.6838 15.4217 25.7809 15.8769 26.9318C16.0255 27.3075 15.9803 27.4065 15.7645 27.1781C15.5906 26.9938 15.2976 26.3075 15.2976 26.0843C15.2976 25.9862 14.386 25.9495 14.0969 26.036C13.6135 26.1806 13.5822 26.7854 14.0323 27.2816C14.3755 27.6599 14.0751 27.6349 13.7011 27.2541C13.259 26.804 13.1345 26.2065 13.3867 25.7468C13.4963 25.547 13.4963 25.547 13.3677 25.4579C12.9266 25.1522 12.633 24.577 12.5376 23.832C12.5219 23.7096 12.5052 23.6752 12.455 23.6616C12.3514 23.6336 12.1063 23.6453 11.9586 23.6854Z" fill="#2430F0"/>
<path fill-rule="evenodd" clip-rule="evenodd" d="M16.3054 37.6409C15.1767 37.8444 14.1203 39.0767 13.301 41.1454C12.8903 42.1827 12.6767 42.3328 11.3156 42.5413C10.4198 42.6786 10.3608 42.8985 10.9764 43.8033C11.4215 44.4576 11.9651 45.3615 12.5393 46.4015C13.5654 48.2608 13.944 48.8773 14.4659 49.5396C16.2656 51.8244 17.8039 51.4497 19.7122 48.2619C20.0879 47.6344 20.1349 47.5518 20.7698 46.4015C21.344 45.3615 21.8876 44.4576 22.3327 43.8033C22.9482 42.8985 22.8892 42.6786 21.9935 42.5413C20.6323 42.3328 20.4187 42.1827 20.008 41.1454C19.0203 38.6514 17.689 37.3913 16.3054 37.6409ZM13.0599 43.2488C12.9316 42.9817 13.031 42.7039 13.3067 42.5592C13.6882 42.3589 14.1514 42.6964 14.3972 43.3543C14.5583 43.7855 14.3608 43.8473 13.8426 43.5281C13.6976 43.4387 13.6618 43.4277 13.6144 43.4574C13.4419 43.5659 13.1617 43.4604 13.0599 43.2488ZM18.8738 43.6363C18.7746 43.4265 19.179 42.7345 19.4953 42.5725C19.9597 42.3345 20.4689 42.7915 20.2491 43.2488C20.1474 43.4604 19.8671 43.5659 19.6947 43.4574C19.6472 43.4277 19.6114 43.4387 19.4664 43.5281C19.0864 43.7623 18.9456 43.7879 18.8738 43.6363Z" fill="#F2C79C"/>
<path fill-rule="evenodd" clip-rule="evenodd" d="M10.583 12.9485C10.1905 11.4588 8.96788 10.2853 7.30671 10.5982C5.98865 10.8466 4.81742 11.8668 4.51062 13.0233C4.60126 13.3455 4.75117 13.6566 4.96617 13.943C6.48727 15.969 9.22625 15.7647 10.3547 13.5409C10.4535 13.3463 10.529 13.148 10.583 12.9485Z" fill="#2430F0"/>
<path fill-rule="evenodd" clip-rule="evenodd" d="M12.0844 7.34001C12.0279 7.16915 11.9832 6.99729 11.9497 6.82516C12.2933 5.03419 13.9915 3.48008 15.9998 3.11046C18.6876 2.61584 20.9015 4.47075 21.3606 6.82203C21.3268 6.99442 21.2816 7.1673 21.2245 7.34001C19.8717 11.4304 13.4373 11.4304 12.0844 7.34001Z" fill="#2430F0"/>
<path d="M25.1985 9.0124C23.2911 9.35953 22.3027 11.2558 22.7286 12.9456C23.0103 11.8131 24.1113 10.8386 25.4225 10.5999C27.1413 10.2871 28.3941 11.5355 28.798 13.0344C29.386 10.9905 27.5112 8.59147 25.1985 9.0124Z" fill="#2430F0"/>
<path d="M11.9498 6.82517C12.2933 5.03421 13.9916 3.48009 15.9998 3.11048C18.6876 2.61585 20.9015 4.47077 21.3606 6.82204C21.9534 3.79893 19.05 0.92037 15.7758 1.52293C13.1868 1.99941 11.4853 4.43829 11.9498 6.82517Z" fill="#2430F0"/>
<path d="M7.30669 10.5982C8.96781 10.2853 10.1905 11.4588 10.5829 12.9485C11.1531 10.8388 9.31091 8.59099 7.08269 9.0107C5.17067 9.37088 4.03911 11.3474 4.51059 13.0234C4.81739 11.8668 5.98858 10.8466 7.30669 10.5982Z" fill="#2430F0"/>
<path d="M23.6479 14.505C25.0194 15.8083 27.1323 15.5554 28.3429 13.943C28.5581 13.6563 28.7073 13.3496 28.798 13.0344C28.3941 11.5355 27.1412 10.2871 25.4224 10.5999C24.1113 10.8386 23.0103 11.8131 22.7285 12.9456C22.8709 13.5103 23.1712 14.052 23.6479 14.505Z" fill="#2430F0"/>
<path fill-rule="evenodd" clip-rule="evenodd" d="M12.6626 5.21154C13.4129 4.16183 14.6359 3.36198 16.0023 3.11048C18.0471 2.73417 19.8177 3.71781 20.75 5.24533C20.9277 5.06517 21.0902 4.88207 21.2244 4.70272C20.531 2.61095 18.2612 1.06599 15.7783 1.52293C14.0629 1.83863 12.7371 3.01581 12.1729 4.46854C12.2949 4.7056 12.4673 4.95995 12.6626 5.21154Z" fill="#F2C79C"/>
<path d="M4.52622 12.9395C4.86603 11.8178 6.01234 10.8405 7.29853 10.5982C8.28202 10.413 9.11177 10.7487 9.70653 11.3626C9.81705 10.9511 9.89704 10.4596 9.88767 10.047C9.2201 9.26413 8.19624 8.79942 7.07453 9.01071C5.20763 9.36234 4.0848 11.2549 4.47168 12.9041C4.48962 12.9161 4.50782 12.9278 4.52622 12.9395Z" fill="#2BE1B7"/>
<path d="M4.52625 12.9395C5.24959 13.3997 6.23569 13.6006 6.49552 13.448C6.69666 13.3298 6.78978 12.7337 6.81165 12.1198C6.82832 11.6532 6.84321 11.2356 6.93238 11.1586C7.03091 11.0735 7.50886 11.3503 8.01534 11.6438C8.57042 11.9653 9.19742 12.2457 9.35939 12.1525C9.47517 12.0858 9.58922 11.7998 9.70656 11.3626C9.1118 10.7487 8.282 10.413 7.2985 10.5982C6.01237 10.8405 4.86605 11.8178 4.52625 12.9395Z" fill="#2BE1B7"/>
<path fill-rule="evenodd" clip-rule="evenodd" d="M22.948 10.8183C22.9922 11.1451 23.9214 12.8983 24.1721 12.9577C24.3079 12.9899 24.7723 12.6561 25.1978 12.3504C25.558 12.0915 25.8903 11.8527 25.9714 11.8731C26.0454 11.8918 26.1865 12.1156 26.3514 12.3773C26.5809 12.7416 26.8568 13.1795 27.0628 13.24C27.3296 13.3184 28.3921 12.7554 28.9121 12.3779C28.9924 10.5147 27.2745 8.63593 25.2063 9.0124C24.1263 9.20894 23.3409 9.90218 22.9401 10.7733C22.9431 10.7871 22.9457 10.802 22.948 10.8183Z" fill="#2BE1B7"/>
<path d="M29.353 35.8179C29.2719 35.8604 29.0197 35.9795 28.7926 36.0826C27.9161 36.4796 27.7637 36.5756 27.881 36.6564C28.4985 37.0825 28.6588 38.4232 28.2217 39.5055C28.113 39.7744 28.1293 39.7726 28.4014 39.4858C29.2778 38.5617 29.8437 36.7601 29.5578 35.8042C29.5334 35.7225 29.5346 35.7225 29.353 35.8179Z" fill="#F1F1F1"/>
<path d="M3.75114 35.8042C3.46525 36.7601 4.03118 38.5617 4.90757 39.4858C5.17968 39.7726 5.19602 39.7744 5.0873 39.5055C4.65036 38.4239 4.81056 37.0825 5.42759 36.6567C5.5417 36.578 5.33333 36.4457 4.53119 36.0886C4.34462 36.0054 4.10272 35.8925 3.9936 35.8375C3.7581 35.7186 3.776 35.7214 3.75114 35.8042Z" fill="#F1F1F1"/>
<path d="M27.4323 38.527C27.4323 38.4283 27.3464 38.3487 27.2405 38.3487C27.1347 38.3487 27.0488 38.4283 27.0488 38.527C27.0488 38.6253 27.1347 38.7053 27.2405 38.7053C27.3464 38.7053 27.4323 38.6253 27.4323 38.527Z" fill="#F1F1F1"/>
<path opacity="0.2" fill-rule="evenodd" clip-rule="evenodd" d="M21.0979 7.67728C19.4567 9.51855 16.1949 10.5318 12.4678 8.18698C14.3108 11.3092 19.6337 11.1393 21.0979 7.67728ZM9.88441 14.2533C8.15699 14.9812 5.81164 14.236 4.66589 13.4424C4.74636 13.6154 4.84615 13.783 4.96623 13.943C6.305 15.7261 8.58713 15.7816 9.88441 14.2533ZM28.61 13.5139C27.6168 14.4547 25.6058 15.1235 23.257 14.0628C23.3709 14.2173 23.5011 14.3654 23.648 14.505C25.0195 15.8083 27.1324 15.5554 28.343 13.943C28.4471 13.8042 28.5359 13.6607 28.61 13.5139Z" fill="#22110C"/>
<path d="M11.9498 6.82517C12.2933 5.0342 13.9916 3.48009 15.9998 3.1105C18.6876 2.61585 20.9015 4.47076 21.3606 6.82204C21.9534 3.79895 19.05 0.92037 15.7758 1.52293C13.1868 1.99941 11.4853 4.43831 11.9498 6.82517Z" fill="#2430F0"/>
<path fill-rule="evenodd" clip-rule="evenodd" d="M20.3622 4.69959C20.5038 4.87194 20.6334 5.05438 20.75 5.24532C20.9277 5.06516 21.0902 4.88209 21.2244 4.70274C20.531 2.61095 18.2612 1.06599 15.7783 1.52293C14.0629 1.83863 12.7371 3.0158 12.1729 4.46853C12.2949 4.70559 12.4673 4.95994 12.6626 5.21152C12.6626 5.21152 12.6626 5.21153 12.6626 5.21153C13.3288 6.06968 14.2614 6.896 14.3738 6.896C14.4587 6.896 14.9284 6.43657 15.4164 5.95912L15.4175 5.95809C15.9449 5.44196 16.4936 4.90515 16.6008 4.90515C16.704 4.90515 17.1465 5.40286 17.5889 5.90057L17.5896 5.90131C18.0318 6.39878 18.4739 6.896 18.5771 6.896C18.7088 6.896 19.9025 6.10417 20.75 5.24532C20.6334 5.05438 20.5038 4.87193 20.3622 4.69959Z" fill="#2BE1B7"/>
<g opacity="0.2">
<g style="mix-blend-mode:hard-light">
<path fill-rule="evenodd" clip-rule="evenodd" d="M17.8372 19.09C17.6216 18.5825 17.0839 18.3107 16.3336 18.4456C15.8905 18.5253 15.5899 18.7654 15.4493 19.1142C15.745 18.8683 16.2682 18.7879 16.6586 18.7796C17.0358 18.7876 17.5371 18.863 17.8372 19.09ZM14.5523 19.4112C14.1869 19.4677 13.5194 19.6468 13.2293 20.0589C13.3261 19.6907 13.5689 19.4169 13.9394 19.3162C14.3102 19.2155 14.4801 19.227 14.5523 19.4112ZM12.559 20.5546C12.5563 20.5207 12.5547 20.488 12.5545 20.4569C12.5543 20.4181 12.0157 20.4367 11.8465 20.4813C11.2673 20.634 10.8773 21.0673 10.7341 21.5838C11.1214 21.032 11.8427 20.5719 12.559 20.5546ZM8.55396 23.5608C8.72514 22.9742 9.36303 22.3623 9.8816 22.3623C9.95493 22.3623 10.0188 22.3582 10.0743 22.3509C10.0695 22.3192 10.0653 22.287 10.0617 22.2546C10.0605 22.2437 10.0595 22.2333 10.0584 22.2236C10.0492 22.1369 10.0444 22.0923 10.0199 22.0722C9.99373 22.0509 9.94519 22.0575 9.84499 22.071C9.83431 22.0725 9.82306 22.074 9.81124 22.0755C9.02857 22.1791 8.58911 22.8353 8.55396 23.5608ZM16.331 22.2025C16.0301 21.9671 15.585 21.8741 14.96 22.4009C15.0655 22.1776 15.2495 21.9976 15.5108 21.875C15.7164 21.7787 15.9349 21.7757 16.0532 21.8676C16.1475 21.9409 16.2469 22.063 16.331 22.2025ZM18.2655 22.3269C17.9956 21.8256 17.4791 21.5637 17.133 21.9791C17.0825 22.0397 17.027 22.1225 16.9758 22.2106C17.262 21.9812 17.6813 21.8783 18.2655 22.3269ZM14.306 22.6244C14.3105 22.4851 14.2955 22.4826 14.2084 22.4678C14.1504 22.4581 14.0831 22.4463 14.0588 22.4417C14.0345 22.4371 13.9362 22.4448 13.8406 22.4586C13.3849 22.5248 13.1074 22.9285 13.0359 23.4444C13.2163 22.8541 13.8963 22.5785 14.306 22.6244ZM20.7886 23.7624C20.9303 23.4028 21.7896 23.7603 22.0786 24.3361C22.159 24.4961 22.2141 24.6556 22.244 24.8144C22.0225 24.1874 21.3251 23.9 20.7886 23.7624ZM18.0107 26.105C18.0111 26.0977 18.0114 26.0908 18.0114 26.0843C18.0114 25.9862 18.923 25.9495 19.2121 26.036C19.3491 26.0769 19.4498 26.1549 19.5135 26.2569C19.2369 26.0109 18.635 26.0566 18.0107 26.105ZM15.9156 25.0886C16.0833 24.8368 16.3359 24.6838 16.6545 24.6838C16.9672 24.6838 17.2162 24.8311 17.3839 25.0744C17.1751 24.9102 16.889 24.8259 16.6586 24.804C16.4216 24.8264 16.1258 24.915 15.9156 25.0886ZM13.7854 26.274C13.8483 26.1636 13.9524 26.0792 14.0969 26.036C14.3861 25.9495 15.2977 25.9862 15.2977 26.0843C15.2977 26.0906 15.2979 26.0973 15.2984 26.1043C14.6629 26.0551 14.052 26.0099 13.7854 26.274ZM12.5267 23.7628C11.9781 23.9039 11.2623 24.2014 11.0586 24.8582C11.0915 24.3039 11.3953 23.8382 11.9587 23.6854C12.1064 23.6453 12.3515 23.6336 12.4551 23.6616C12.4942 23.6721 12.513 23.6953 12.5267 23.7628ZM20.0875 20.0586C19.9628 19.6042 19.5998 19.3047 19.0444 19.2817L18.7282 19.2685L18.7228 19.405C19.0767 19.4538 19.7859 19.6304 20.0875 20.0586ZM22.566 21.5599C22.4631 21.1626 22.2244 20.82 21.8663 20.6435C21.5122 20.4688 20.7551 20.3418 20.7545 20.4569C20.7543 20.488 20.7529 20.5206 20.7501 20.5545C21.4587 20.5683 22.1733 21.0168 22.566 21.5599ZM24.7654 23.5687C24.5977 22.9798 23.9564 22.3623 23.4355 22.3623C23.3568 22.3623 23.289 22.3576 23.2307 22.3493C23.2318 22.3425 23.2328 22.3356 23.2338 22.3287C23.251 22.2103 23.2698 22.0989 23.2756 22.0811C23.293 22.0266 23.6711 22.093 23.8666 22.1848C24.435 22.4518 24.7355 22.9913 24.7654 23.5687ZM20.2641 23.3932C20.2252 23.0865 20.1174 22.8237 19.9376 22.6642C19.7797 22.5242 19.3884 22.4005 19.2355 22.4423C19.2193 22.4467 19.1586 22.4583 19.1007 22.468C19.0134 22.4826 18.9985 22.4851 19.0031 22.6253C19.3999 22.5764 20.0597 22.8345 20.2641 23.3932Z" fill="white"/>
</g>
</g>
<g style="mix-blend-mode:hard-light">
<path fill-rule="evenodd" clip-rule="evenodd" d="M30.1478 31.2972C28.9855 31.2092 27.6301 31.5973 26.6506 32.2127C25.279 33.0744 23.17 35.3624 22.7275 37.5761C22.6051 38.1882 22.5133 38.3885 22.4453 38.3445C23.1211 34.221 25.5001 31.3625 28.586 31.0315C29.282 30.9569 29.8044 31.0636 30.1478 31.2972Z" fill="white" fill-opacity="0.4"/>
</g>
<g style="mix-blend-mode:hard-light">
<path fill-rule="evenodd" clip-rule="evenodd" d="M3.10095 31.3254C4.29334 31.1926 5.7204 31.5869 6.74003 32.2275C8.11163 33.0893 10.2206 35.3773 10.6631 37.591C10.7325 37.938 10.7921 38.1526 10.843 38.2655C10.4144 35.7721 9.31063 33.5682 7.83826 32.3746C6.6617 31.4208 4.97042 30.8586 3.82758 31.0414C3.52554 31.0897 3.28381 31.1878 3.10095 31.3254Z" fill="white" fill-opacity="0.4"/>
</g>
<g style="mix-blend-mode:hard-light">
<path fill-rule="evenodd" clip-rule="evenodd" d="M13.7461 40.149C14.7106 39.0805 15.9464 38.8984 16.6069 38.8984C17.2931 38.8984 18.6533 39.1215 19.6353 40.2955C18.6978 38.3689 17.5217 37.4213 16.3054 37.6409C15.3717 37.8094 14.4875 38.6815 13.7461 40.149Z" fill="white" fill-opacity="0.4"/>
</g>
<path opacity="0.2" fill-rule="evenodd" clip-rule="evenodd" d="M29.6328 36.3798C29.1917 36.5714 28.6978 36.7661 28.1645 36.961C28.0847 36.8353 27.99 36.7316 27.881 36.6564C27.7637 36.5756 27.9161 36.4796 28.7927 36.0826C29.0198 35.9795 29.272 35.8604 29.3531 35.8179L29.3562 35.8161C29.4687 35.757 29.5098 35.7353 29.531 35.7481C29.5431 35.7552 29.5487 35.7736 29.5576 35.8031L29.5578 35.8042C29.6083 35.973 29.6322 36.1679 29.6328 36.3798ZM3.677 36.3311C4.1227 36.5343 4.61981 36.7402 5.15442 36.9458C5.232 36.827 5.3233 36.7287 5.42767 36.6568C5.54183 36.578 5.3334 36.4458 4.5313 36.0886C4.34473 36.0054 4.10282 35.8925 3.99371 35.8375C3.97852 35.8298 3.96442 35.8226 3.95126 35.8161C3.83254 35.7561 3.7931 35.7359 3.77469 35.7484C3.76552 35.7543 3.76157 35.7683 3.75561 35.7894C3.75428 35.7938 3.75287 35.7989 3.75125 35.8042C3.7047 35.9599 3.68072 36.1382 3.677 36.3311Z" fill="#22110C"/>
<path opacity="0.2" fill-rule="evenodd" clip-rule="evenodd" d="M10.055 43.7412C9.9609 44.7607 10.3079 45.9008 10.4681 46.4271C10.4953 46.5166 10.5172 46.5885 10.5305 46.639C10.6448 47.0707 9.4027 47.7535 4.84668 45.6616C6.52889 46.9516 8.58701 47.8656 10.5044 48.0364C12.114 48.1797 12.4794 48.1553 12.3254 47.9137C12.0729 47.5182 11.2075 45.9139 10.7019 44.9042C10.5709 44.6427 10.3677 44.2752 10.2503 44.0871C10.1753 43.9673 10.1103 43.852 10.055 43.7412Z" fill="#22110C"/>
<path opacity="0.2" fill-rule="evenodd" clip-rule="evenodd" d="M28.4903 45.6524C23.9179 47.7553 22.6721 47.0713 22.7865 46.639C22.7999 46.5884 22.8217 46.5168 22.849 46.4271C23.0099 45.8985 23.3592 44.7503 23.2607 43.7275C23.2041 43.8425 23.1368 43.9623 23.0588 44.0871C22.9414 44.2752 22.7382 44.6427 22.6072 44.9042C22.1015 45.9139 21.2361 47.5182 20.9836 47.9137C20.9274 48.0019 20.886 48.0563 20.899 48.0881C20.922 48.1443 21.1139 48.1297 21.6918 48.1024C23.5822 48.0135 24.3685 47.8376 25.9019 47.1607C26.8673 46.7346 27.733 46.2253 28.4903 45.6524Z" fill="#22110C"/>
<path opacity="0.2" fill-rule="evenodd" clip-rule="evenodd" d="M12.2812 45.9398C13.278 47.5636 13.682 48.1481 14.2269 48.773C16.2203 51.0595 17.9241 50.6846 20.0378 47.4941C20.4337 46.8969 20.5 46.7929 21.1108 45.7936C20.9986 45.99 20.8848 46.1932 20.7697 46.4015C20.1348 47.5518 20.0879 47.6344 19.7121 48.2619C17.8038 51.4497 16.2655 51.8244 14.4658 49.5396C13.944 48.8773 13.5653 48.2608 12.5392 46.4015C12.4524 46.2443 12.3663 46.0904 12.2812 45.9398Z" fill="#22110C"/>
<path d="M16.6364 34.783C16.2676 34.783 15.7957 37.4275 15.5892 37.4275L15.1615 37.8287L16.6364 37.4275L18.3324 37.9327C18.1505 37.7642 17.7602 37.4275 17.654 37.4275C17.5213 37.4275 17.0051 34.783 16.6364 34.783Z" fill="black" fill-opacity="0.2"/>
<path d="M14.1881 27.6811C13.9816 27.6811 13.2885 27.1908 13.2885 26.4628C13.3868 26.2796 13.5834 25.9934 13.5834 26.3143C13.5834 26.7154 14.0259 27.2354 14.1439 27.3543C14.2619 27.4731 14.3946 27.6811 14.1881 27.6811Z" fill="black" fill-opacity="0.2"/>
<path d="M10.2355 26.4629C9.39476 26.4629 8.30341 25.3486 7.74292 24.5909L8.08217 24.2937L8.84906 25.408L10.5894 25.928L10.9286 25.3634C11.0122 25.4922 11.2088 25.8032 11.3269 26.0171C11.4743 26.2846 11.8578 26.4926 12.1675 26.9383C12.4772 27.384 11.2973 26.8343 11.1498 26.76C11.0319 26.7006 10.7762 26.5174 10.6631 26.4331C10.6631 26.4431 10.5776 26.4629 10.2355 26.4629Z" fill="black" fill-opacity="0.2"/>
<path d="M12.8754 25.1108C12.5362 24.68 12.6542 24.1748 12.5952 23.744L13.5539 25.4971L13.4801 25.6308L13.4781 25.6298C13.3834 25.5796 13.1449 25.4532 12.8754 25.1108Z" fill="black" fill-opacity="0.2"/>
<path d="M15.8989 27.4137C15.5892 27.3394 15.309 26.6114 15.309 26.0617L15.6039 25.928L15.7957 26.7006C15.8547 26.9383 16.2086 27.488 15.8989 27.4137Z" fill="black" fill-opacity="0.2"/>
<path d="M19.0993 27.6811C19.3058 27.6811 19.999 27.1908 19.999 26.4628C19.9006 26.2796 19.704 25.9934 19.704 26.3143C19.704 26.7154 19.2616 27.2354 19.1435 27.3543C19.0256 27.4731 18.8928 27.6811 19.0993 27.6811Z" fill="black" fill-opacity="0.2"/>
<path d="M23.052 26.4629C23.8927 26.4629 24.9841 25.3486 25.5445 24.5909L25.2053 24.2937L24.4384 25.408L22.698 25.928L22.3588 25.3634C22.2753 25.4922 22.0786 25.8032 21.9606 26.0171C21.8131 26.2846 21.4297 26.4926 21.1199 26.9383C20.8102 27.384 21.9901 26.8343 22.1376 26.76C22.2556 26.7006 22.5112 26.5174 22.6243 26.4331C22.6243 26.4431 22.7099 26.4629 23.052 26.4629Z" fill="black" fill-opacity="0.2"/>
<path d="M20.4119 25.1108C20.7511 24.68 20.6332 24.1748 20.6922 23.744L19.7335 25.4971L19.8073 25.6308L19.8092 25.6298C19.9039 25.5796 20.1424 25.4532 20.4119 25.1108Z" fill="black" fill-opacity="0.2"/>
<path d="M17.3737 27.4286C17.6835 27.3543 17.9784 26.6114 17.9784 26.0617L17.6835 25.928L17.4917 26.7006C17.4327 26.9383 17.064 27.5029 17.3737 27.4286Z" fill="black" fill-opacity="0.2"/>
<path opacity="0.2" d="M13.1468 43.3407C13.0436 43.3407 13.368 43.1772 13.2647 42.8949C13.5106 42.7909 13.896 42.8979 14.1792 43.1475C14.5332 43.4595 14.5332 44.2321 14.5184 44.5589C14.5036 44.8858 13.25 43.3407 13.1468 43.3407Z" fill="#22110C"/>
<path opacity="0.2" d="M20.1421 43.3505C20.2453 43.3505 19.9209 43.1871 20.0241 42.9048C19.7783 42.8008 19.3928 42.9077 19.1097 43.1573C18.7557 43.4693 18.7557 44.2419 18.7705 44.5688C18.7852 44.8956 20.0388 43.3505 20.1421 43.3505Z" fill="#22110C"/>
<path opacity="0.2" fill-rule="evenodd" clip-rule="evenodd" d="M6.75401 35.8009C8.54923 36.8829 10.2945 37.9347 10.2945 39.2401C10.2945 39.282 10.2938 39.3236 10.2924 39.3643C9.70881 38.1332 8.44315 37.1848 5.99983 35.9166C4.98595 35.3903 4.97445 35.3832 4.34032 34.8694C2.78496 33.6095 2.2819 32.1598 2.95694 31.4481C2.50278 33.239 4.66231 34.5405 6.75401 35.8009Z" fill="#22110C"/>
<path opacity="0.2" fill-rule="evenodd" clip-rule="evenodd" d="M2.98512 31.3967L2.9712 31.4517C2.74609 32.3392 3.16779 33.1073 3.91086 33.8128C4.65403 34.5182 5.71529 35.1576 6.76154 35.7882L6.76232 35.7888C7.65936 36.3293 8.54531 36.8632 9.20689 37.4255C9.86832 37.9873 10.3092 38.5804 10.3092 39.2401C10.3092 39.2823 10.3085 39.3239 10.3071 39.3646L10.2791 39.3705C9.6978 38.1445 8.43646 37.1978 5.99309 35.9296C5.4864 35.6666 5.22933 35.5329 5.01983 35.4007C4.81007 35.2685 4.64799 35.1377 4.33107 34.881C3.55199 34.2499 3.03547 33.5706 2.79846 32.9585C2.56151 32.3467 2.60323 31.7993 2.94623 31.4377L2.98512 31.3967ZM2.82594 32.9478C3.06054 33.5537 3.57323 34.2291 4.34954 34.8578C4.66674 35.1149 4.82748 35.2444 5.03549 35.3758C5.2437 35.5071 5.49937 35.6402 6.00658 35.9035C8.41344 37.1527 9.68176 38.0937 10.2791 39.3028C10.2795 39.282 10.2797 39.2612 10.2797 39.2401C10.2797 38.5944 9.8479 38.0087 9.18788 37.448C8.52828 36.8876 7.64431 36.3548 6.74639 35.8137L6.7454 35.8131C5.70029 35.1832 4.63637 34.5423 3.89062 33.8342C3.16027 33.1409 2.73185 32.3806 2.929 31.5013C2.63243 31.8513 2.60068 32.366 2.82594 32.9478Z" fill="#22110C"/>
<path opacity="0.2" fill-rule="evenodd" clip-rule="evenodd" d="M26.5777 35.8009C24.7825 36.8829 23.0372 37.9347 23.0372 39.2401C23.0372 39.2585 23.0374 39.2769 23.0376 39.2951C23.6354 38.0976 24.899 37.161 27.2968 35.9166C28.3107 35.3903 28.3222 35.3832 28.9563 34.8694C30.5112 33.6098 30.9664 32.2519 30.3938 31.5295C30.7631 33.2788 28.6375 34.5598 26.5777 35.8009Z" fill="#22110C"/>
<path opacity="0.2" fill-rule="evenodd" clip-rule="evenodd" d="M30.4864 33.0037C30.2487 33.5938 29.7443 34.2502 28.9656 34.881C28.6486 35.1377 28.4865 35.2685 28.2768 35.401C28.0673 35.5329 27.8102 35.6666 27.3035 35.9299C24.9055 37.1744 23.6462 38.1091 23.0508 39.3019L23.0228 39.2953C23.0226 39.2769 23.0225 39.2585 23.0225 39.2401C23.0225 38.5804 23.4633 37.9873 24.1247 37.4255C24.7864 36.8632 25.6723 36.3293 26.5693 35.7888L26.5701 35.7882C27.6004 35.1674 28.6452 34.5375 29.3866 33.8449C30.128 33.1522 30.5622 32.3995 30.3793 31.5328L30.4053 31.5203C30.6961 31.887 30.7242 32.4135 30.4864 33.0037ZM30.4206 31.5904C30.6664 31.9432 30.6834 32.4358 30.4593 32.9923C30.2239 33.5766 29.7233 34.229 28.9471 34.8578C28.6298 35.1149 28.4691 35.2444 28.2612 35.3758C28.0529 35.5071 27.7972 35.6402 27.29 35.9034C24.9283 37.1292 23.663 38.0577 23.0519 39.2344C23.0545 38.5908 23.4857 38.0072 24.1438 37.448C24.8034 36.8876 25.6873 36.3548 26.5853 35.8137L26.5862 35.8131C27.6154 35.193 28.6628 34.5618 29.4066 33.8665C30.1327 33.1882 30.5728 32.4456 30.4206 31.5904Z" fill="#22110C"/>
<g style="mix-blend-mode:multiply">
<path fill-rule="evenodd" clip-rule="evenodd" d="M2.29843 35.3208C2.28066 36.7931 2.3362 43.1475 9.74888 43.1475C9.77919 43.1475 9.80934 43.1475 9.83924 43.1472C9.76783 42.7562 9.86241 42.4305 10.1219 42.1512C10.3848 41.868 10.2197 40.5288 9.8221 39.7188C9.71685 39.5042 9.67185 39.4059 9.62399 39.4044C9.58253 39.4032 9.53889 39.4751 9.45196 39.6077C7.29999 42.889 2.90939 40.3778 2.99838 35.9168C3.01198 35.2361 3.01198 35.2361 2.82571 35.0855C2.69 34.9761 2.64892 34.9381 2.61858 34.9452C2.60032 34.9496 2.58595 34.9704 2.55717 35.0019C2.46663 35.1015 2.38036 35.2079 2.29843 35.3208Z" fill="black" fill-opacity="0.2"/>
</g>
<path opacity="0.2" fill-rule="evenodd" clip-rule="evenodd" d="M31.0462 35.4471C31.0575 37.0808 30.8554 43.1772 23.5948 43.1772C23.5466 43.1772 23.499 43.1769 23.4518 43.1767C23.5336 42.7725 23.4408 42.4377 23.1748 42.1512C22.912 41.868 23.077 40.5285 23.4747 39.7188C23.5799 39.5042 23.6249 39.4059 23.6727 39.4044C23.7143 39.4032 23.7579 39.4751 23.8448 39.6077C25.9968 42.8887 30.3873 40.3778 30.2985 35.9168C30.2888 35.4328 30.2858 35.2928 30.3498 35.1992C30.3758 35.1609 30.4127 35.1306 30.4649 35.0875C30.5622 35.007 30.6147 34.9565 30.6648 34.9585C30.7383 34.9618 30.8068 35.0786 31.0044 35.3823C31.0185 35.404 31.0324 35.4257 31.0462 35.4471Z" fill="#22110C"/>
<path opacity="0.2" fill-rule="evenodd" clip-rule="evenodd" d="M15.3648 19.418C15.3204 19.7561 15.3916 20.1606 15.5892 20.6011C15.737 20.931 15.737 20.931 15.9639 20.9333C16.1678 20.9355 16.2141 20.9477 16.4196 21.0534C16.6483 21.1711 16.6483 21.1711 16.877 21.0534C17.0825 20.9477 17.1288 20.9355 17.3327 20.9333C17.5596 20.931 17.5596 20.931 17.7073 20.6011C17.9047 20.1603 17.9687 19.7538 17.9197 19.4137C17.8218 19.9639 17.5961 20.6829 17.09 20.7429C16.8709 20.7893 16.7184 20.7923 16.6658 20.7877L16.6623 20.7874H16.6215H16.618C16.5654 20.7919 16.4129 20.7893 16.1938 20.7429C15.689 20.6831 15.4632 19.9676 15.3648 19.418ZM18.3221 21.0703C18.5752 20.673 18.6808 20.2933 18.7048 19.6956L18.7175 19.3817C18.8145 19.92 18.7886 20.6737 18.345 21.3136C18.23 21.215 18.2355 21.2065 18.3221 21.0703ZM20.1245 20.5641C20.104 20.8388 20.0191 21.1426 19.8637 21.4598C19.8471 21.4938 19.8321 21.5248 19.8184 21.5529C19.735 21.7251 19.7023 21.7926 19.6521 21.8107C19.6197 21.8223 19.5799 21.8134 19.5145 21.7987C19.498 21.7949 19.4798 21.7908 19.4596 21.7866C19.3021 21.7535 19.2152 21.75 19.1072 21.7725C19.0788 21.7783 19.0531 21.7838 19.0296 21.7888C19.0245 21.7899 19.0196 21.7909 19.0148 21.7919C19.034 21.733 19.1844 21.685 19.3377 21.636C19.4819 21.59 19.6286 21.5432 19.671 21.4857C19.8811 21.2004 20.0416 20.9127 20.1245 20.5641ZM20.7483 20.457C20.7461 20.8664 20.5132 21.5373 20.2514 21.8883C20.1396 22.0382 20.132 22.0484 20.2741 22.2028C20.5755 21.764 20.8893 20.8999 20.7706 20.4292C20.7562 20.4361 20.7483 20.4452 20.7483 20.457ZM22.6096 21.8474C22.571 22.0988 22.4332 22.6279 22.2225 22.8526C21.9718 23.1201 21.8685 23.1498 21.662 23.0606C21.5392 23.0076 21.36 23.0334 21.2296 23.0684C21.4664 23.0774 21.6804 23.1413 21.8771 23.2611L21.8833 23.2649L21.8945 23.2718C21.9661 23.3154 22.0057 23.3397 22.0419 23.3352C22.087 23.3297 22.1266 23.2798 22.2155 23.168L22.2243 23.1569L22.233 23.1461C22.5316 22.7712 22.6504 22.293 22.6096 21.8474ZM24.7498 23.4557C24.6977 23.8706 24.5492 24.6082 23.9775 25.096C23.4397 25.5551 23.0336 25.5863 22.9451 24.9326C22.9366 24.8695 22.9246 24.836 22.9104 24.8262C22.937 25.0568 22.9259 25.2895 22.8722 25.501C22.8397 25.6287 22.8132 25.737 22.8132 25.7415C22.8132 25.815 23.6153 25.476 23.8964 25.2837C24.542 24.842 24.8251 24.1135 24.7498 23.4557ZM23.2251 22.3453C23.1552 22.8057 22.9906 23.1333 22.6492 23.4932C22.4297 23.7247 22.4297 23.7247 22.5221 23.8403C22.532 23.8527 22.5417 23.8652 22.5513 23.878C22.8453 23.5771 23.1728 23.0024 23.2251 22.3453ZM20.2731 23.7387C20.2186 24.0531 20.1287 24.3971 19.9954 24.5611C19.73 24.8881 19.376 24.9771 19.0958 24.9326C18.9549 24.9102 18.7213 24.9726 18.5171 25.0455C18.9314 25.0278 19.246 25.1102 19.5191 25.3C19.586 25.3464 19.64 25.3665 19.6518 25.3492C19.6628 25.3331 19.7272 25.2471 19.7951 25.1579C20.0951 24.7636 20.2579 24.2267 20.2731 23.7387ZM17.8922 24.9001C18.3168 24.6745 18.9975 24.071 18.9891 23.1107C18.9068 23.8036 18.5018 24.4177 17.8651 24.7883C17.8575 24.7928 17.8712 24.8417 17.8922 24.9001ZM18.4303 23.1753C18.2992 23.5647 18.0077 24.1771 17.5472 24.0114C17.1342 23.8629 16.8835 23.8331 16.677 23.8331C16.6638 23.8331 16.6522 23.8344 16.6419 23.8368C16.6317 23.8344 16.62 23.8331 16.6068 23.8331C16.4003 23.8331 16.1495 23.8629 15.7366 24.0114C15.321 24.161 15.0431 23.6767 14.8964 23.2947C14.9648 23.5821 15.1052 23.8943 15.3186 24.2191C15.4523 24.4225 15.5017 24.4976 15.5407 24.4925C15.5635 24.4895 15.5827 24.4589 15.6133 24.4104C16.0527 23.7124 17.2439 23.7124 17.6833 24.4104C17.8028 24.6003 18.284 23.8765 18.4063 23.323C18.4171 23.2737 18.4251 23.2245 18.4303 23.1753ZM13.0113 23.7421C13.0164 24.2095 13.1741 24.7276 13.5015 25.1579C13.5694 25.2471 13.6338 25.3331 13.6448 25.3492C13.6565 25.3665 13.7106 25.3464 13.7775 25.3C14.0475 25.1124 14.3579 25.0297 14.7651 25.0449C14.5612 24.9723 14.3285 24.9103 14.188 24.9326C13.9078 24.9771 13.5538 24.8881 13.2883 24.5611C13.1556 24.3977 13.0659 24.0556 13.0113 23.7421ZM14.298 23.0118C14.2394 24.038 14.9643 24.6773 15.4023 24.9058C15.4245 24.8449 15.4394 24.793 15.4315 24.7883C14.7646 24.4002 14.3519 23.745 14.298 23.0118ZM13.0151 22.2106C13.1648 22.0487 13.1589 22.0408 13.0452 21.8883C12.7834 21.5373 12.5505 20.8664 12.5483 20.457C12.5483 20.4507 12.5342 20.4459 12.5099 20.4425C12.3997 20.919 12.715 21.7785 13.0151 22.2106ZM10.6759 21.8581C10.6309 22.2897 10.7503 22.7528 11.0636 23.1461C11.0696 23.1536 11.0755 23.161 11.0811 23.168C11.17 23.2798 11.2096 23.3297 11.2547 23.3352C11.2909 23.3397 11.3305 23.3154 11.4021 23.2718C11.4077 23.2684 11.4135 23.2647 11.4195 23.2611C11.6132 23.1432 11.8236 23.0795 12.0559 23.0688C11.9254 23.0336 11.7451 23.0073 11.6218 23.0606C11.4153 23.1498 11.3121 23.1201 11.0614 22.8526C10.8536 22.631 10.7167 22.1135 10.6759 21.8581ZM13.1914 20.6835C13.2229 20.93 13.3023 21.1932 13.4329 21.4598C13.4495 21.4938 13.4645 21.5248 13.4782 21.5529C13.5615 21.7251 13.5943 21.7926 13.6445 21.8107C13.6769 21.8223 13.7166 21.8134 13.7821 21.7987C13.7986 21.7949 13.8168 21.7908 13.8369 21.7866C13.9945 21.7535 14.0814 21.75 14.1894 21.7725C14.2177 21.7783 14.2435 21.7838 14.267 21.7888C14.2673 21.7889 14.2677 21.7889 14.268 21.789C14.2447 21.7314 14.0968 21.6842 13.9461 21.636C13.8019 21.59 13.6552 21.5432 13.6128 21.4857C13.4272 21.2336 13.2803 20.9797 13.1914 20.6835ZM14.5563 19.4407C14.577 19.5071 14.5876 19.5925 14.5919 19.6992C14.6157 20.2931 14.722 20.6738 14.9744 21.0703C15.0631 21.2095 15.0668 21.2154 14.9436 21.3205C14.5114 20.7021 14.4714 19.9761 14.5563 19.4407ZM10.3865 24.8236C10.3667 24.8188 10.3497 24.8509 10.3386 24.9326C10.2501 25.5863 9.84413 25.5551 9.30624 25.096C8.77861 24.6457 8.61148 23.9825 8.54789 23.5569C8.51622 24.1844 8.7872 24.8643 9.40019 25.2837C9.68127 25.476 10.4834 25.815 10.4834 25.7415C10.4834 25.737 10.4569 25.6287 10.4244 25.501C10.3705 25.2887 10.3596 25.0551 10.3865 24.8236ZM10.7398 23.8854C10.751 23.8702 10.7625 23.8553 10.7741 23.8407C10.8663 23.7255 10.8663 23.7255 10.635 23.4793C10.2922 23.1145 10.1066 22.7223 10.0555 22.2546C10.0543 22.2444 10.0533 22.2348 10.0523 22.2255C10.0715 22.9376 10.4263 23.5687 10.7398 23.8854Z" fill="#22110C"/>
<path d="M27.5503 37.9327C27.5503 37.5716 27.8475 37.279 28.214 37.279C28.5805 37.279 28.8777 37.5716 28.8777 37.9327C28.8777 38.2937 28.5805 38.5864 28.214 38.5864C27.8475 38.5864 27.5503 38.2937 27.5503 37.9327Z" fill="#F1F1F1"/>
<path d="M4.39502 37.9327C4.39502 37.5716 4.69218 37.279 5.05871 37.279C5.42521 37.279 5.72239 37.5716 5.72239 37.9327C5.72239 38.2937 5.42521 38.5864 5.05871 38.5864C4.69218 38.5864 4.39502 38.2937 4.39502 37.9327Z" fill="#F1F1F1"/>
<path d="M6.16484 38.527C6.16484 38.4283 6.07901 38.3487 5.97308 38.3487C5.8672 38.3487 5.78137 38.4283 5.78137 38.527C5.78137 38.6253 5.8672 38.7053 5.97308 38.7053C6.07901 38.7053 6.16484 38.6253 6.16484 38.527Z" fill="#F1F1F1"/>
</g>
<path d="M190.699 38.4657L191.43 42.0628C190.923 42.4142 190.192 42.7347 189.239 43.0241C188.305 43.2928 187.372 43.4272 186.438 43.4272C184.633 43.4272 183.131 42.8483 181.934 41.6907C180.757 40.533 180.169 38.7965 180.169 36.4812V30.1864H177.186V26.0002H180.169V22.3101L184.521 21.3488V26.0002H190.73V30.1864H184.521V36.2331C184.521 38.2797 185.414 39.303 187.199 39.303C187.991 39.303 189.157 39.0239 190.699 38.4657Z" fill="#22110C"/>
<path d="M167.969 43.4271C165.717 43.4271 163.84 42.9 162.339 41.8457C160.837 40.7707 159.934 39.3029 159.63 37.4424H164.043C164.409 38.9722 165.758 39.7371 168.091 39.7371C169.978 39.7371 170.922 39.2719 170.922 38.3417C170.922 38.2176 170.901 38.104 170.861 38.0006C170.841 37.8972 170.79 37.8042 170.709 37.7215C170.648 37.6388 170.577 37.5664 170.496 37.5044C170.414 37.4217 170.293 37.3494 170.13 37.2873C169.988 37.2254 169.856 37.1737 169.735 37.1323C169.613 37.091 169.43 37.0393 169.187 36.9773C168.964 36.9153 168.761 36.8636 168.578 36.8222C168.416 36.7809 168.182 36.7292 167.878 36.6672C167.573 36.6052 167.31 36.5432 167.087 36.4811C164.591 35.8816 162.846 35.2304 161.852 34.5276C160.878 33.804 160.391 32.7291 160.391 31.3026C160.391 29.5248 161.05 28.1397 162.369 27.1475C163.709 26.1345 165.494 25.628 167.726 25.628C169.958 25.628 171.693 26.1242 172.931 27.1165C174.168 28.0881 174.939 29.4111 175.243 31.0856H170.831C170.465 29.9279 169.38 29.3491 167.573 29.3491C165.707 29.3491 164.774 29.8245 164.774 30.7755C164.774 31.1476 164.966 31.4163 165.352 31.5817C165.738 31.7471 166.61 31.9848 167.969 32.2949C169.329 32.605 170.404 32.8945 171.196 33.1632C171.987 33.4113 172.738 33.742 173.448 34.1555C174.158 34.5689 174.665 35.065 174.969 35.6439C175.274 36.2227 175.426 36.9256 175.426 37.7525C175.426 39.5924 174.726 40.9981 173.326 41.9697C171.926 42.9413 170.141 43.4271 167.969 43.4271Z" fill="#22110C"/>
<path d="M148.724 25.628C151.464 25.628 153.625 26.5893 155.207 28.5118C156.811 30.4344 157.5 32.8221 157.277 35.6749H144.433C144.575 36.9979 145.042 38.0109 145.833 38.7138C146.625 39.4166 147.608 39.7681 148.785 39.7681C149.637 39.7681 150.398 39.582 151.068 39.2099C151.738 38.8172 152.214 38.29 152.499 37.6285H157.003C156.415 39.551 155.38 40.9981 153.899 41.9697C152.418 42.9413 150.723 43.4271 148.816 43.4271C146.219 43.4271 144.098 42.5899 142.455 40.9154C140.811 39.241 139.99 37.122 139.99 34.5586C139.99 31.9952 140.811 29.8659 142.455 28.1707C144.098 26.4756 146.188 25.628 148.724 25.628ZM148.694 29.287C147.659 29.287 146.797 29.5765 146.107 30.1553C145.417 30.7135 144.93 31.468 144.646 32.419H152.651C152.407 31.468 151.94 30.7135 151.251 30.1553C150.561 29.5765 149.709 29.287 148.694 29.287Z" fill="#22110C"/>
<path d="M135.458 22.6822C133.49 22.6822 132.506 23.7675 132.506 25.9381V26.0002H138.076V30.1864H132.506V43.055H128.154V30.1864H125.171V26.0002H128.154V25.7211C128.154 23.4471 128.813 21.7312 130.132 20.5736C131.451 19.3953 133.064 18.8061 134.971 18.8061C136.493 18.8061 137.812 19.0645 138.928 19.5813L138.137 23.1783L137.559 23.0233C136.787 22.7959 136.088 22.6822 135.458 22.6822Z" fill="#22110C"/>
<path d="M120.582 18.1239C121.373 18.1239 122.022 18.3719 122.529 18.8681C123.037 19.3435 123.29 19.9637 123.29 20.7286C123.29 21.4935 123.037 22.124 122.529 22.6202C122.022 23.1163 121.373 23.3643 120.582 23.3643C119.811 23.3643 119.161 23.1163 118.634 22.6202C118.126 22.124 117.873 21.4935 117.873 20.7286C117.873 19.9844 118.126 19.3642 118.634 18.8681C119.161 18.3719 119.811 18.1239 120.582 18.1239ZM118.39 43.055V26.0001H122.742V43.055H118.39Z" fill="#22110C"/>
<path d="M109.013 25.628C110.9 25.628 112.381 26.2275 113.456 27.4266C114.532 28.6255 115.069 30.269 115.069 32.3569V43.055H110.717V33.3182C110.717 32.1606 110.474 31.2923 109.987 30.7135C109.5 30.1346 108.698 29.8452 107.582 29.8452C105.066 29.8452 103.808 31.2613 103.808 34.0934V43.055H99.4556V26.0001H103.808V28.3258C105.066 26.5273 106.801 25.628 109.013 25.628Z" fill="#22110C"/>
<path d="M91.635 26.0001H95.9874L95.9572 43.055H91.6048V40.7604C90.3262 42.5382 88.5815 43.4271 86.3697 43.4271C84.1578 43.4271 82.3319 42.6002 80.8913 40.9464C79.4507 39.2719 78.7305 37.1323 78.7305 34.5276C78.7305 31.9228 79.4507 29.7936 80.8913 28.1398C82.3522 26.4652 84.1682 25.628 86.3395 25.628C88.5711 25.628 90.3367 26.548 91.635 28.3878V26.0001ZM87.3436 39.2099C88.5815 39.2099 89.606 38.7758 90.4179 37.9075C91.2293 37.0393 91.635 35.9126 91.635 34.5276C91.635 33.1425 91.2293 32.0159 90.4179 31.1476C89.606 30.2793 88.5815 29.8452 87.3436 29.8452C86.1061 29.8452 85.0916 30.2793 84.3 31.1476C83.5089 32.0159 83.1131 33.1425 83.1131 34.5276C83.1131 35.9126 83.5089 37.0393 84.3 37.9075C85.1119 38.7758 86.1265 39.2099 87.3436 39.2099Z" fill="#22110C"/>
<path d="M70.0242 25.628C71.81 25.628 73.2204 26.2172 74.2552 27.3955C75.2901 28.5738 75.8072 30.1967 75.8072 32.2639V43.055H71.4548V33.2252C71.4548 32.1089 71.2215 31.2716 70.7549 30.7135C70.3085 30.1346 69.5778 29.8452 68.5633 29.8452C67.4274 29.8452 66.565 30.2173 65.9765 30.9615C65.3879 31.6851 65.0937 32.7291 65.0937 34.0934V43.055H60.7413V33.2252C60.7413 32.1089 60.508 31.2716 60.0413 30.7135C59.595 30.1346 58.8643 29.8452 57.8498 29.8452C56.7139 29.8452 55.841 30.2173 55.2327 30.9615C54.6442 31.6851 54.3499 32.7291 54.3499 34.0934L54.3802 43.055H49.9976V26.0001H54.3802V28.2638C55.5978 26.5066 57.2514 25.628 59.3414 25.628C61.7761 25.628 63.4703 26.703 64.4244 28.8529C65.7228 26.703 67.5894 25.628 70.0242 25.628Z" fill="#22110C"/>
</g>
<defs>
<clipPath id="clip0_1194_5139">
<rect width="191.657" height="52" fill="white"/>
</clipPath>
</defs>
</svg>
