<svg width="207" height="154" viewBox="0 0 207 154" fill="none" xmlns="http://www.w3.org/2000/svg">
<path d="M185.7 137.6L96.4004 94.6V0L185.7 137.6ZM192.8 154L96.4004 113.3V154H192.8Z" fill="#98002E"/>
<path d="M7.09961 137.6L96.3996 0V94.6L7.09961 137.6Z" fill="#E31837"/>
<path d="M0 154H96.4V113.3L0 154Z" fill="#E31837"/>
<path d="M200.6 125.8C204.1 125.8 207 128.6 207 132.1C207 135.6 204.2 138.5 200.7 138.5C197.2 138.5 194.3 135.7 194.3 132.2C194.3 128.6 197.1 125.8 200.6 125.8ZM200.6 137.5C203.6 137.5 206 135.1 206 132.1C206 129.1 203.6 126.7 200.6 126.7C197.6 126.7 195.2 129.1 195.2 132.1C195.2 135.1 197.6 137.5 200.6 137.5ZM199.2 135.8H198.3V128.5H201.1C202.8 128.5 203.4 129.2 203.4 130.5C203.5 131.6 202.6 132.5 201.6 132.6L203.8 135.8H202.8L200.6 132.6H199.3L199.2 135.8ZM199.2 131.7H200.4C201.4 131.7 202.5 131.6 202.5 130.4C202.5 129.5 201.6 129.2 200.9 129.2H199.3V131.7H199.2Z" fill="#98002E"/>
</svg>
