<svg width="83" height="83" viewBox="0 0 83 83" fill="none" xmlns="http://www.w3.org/2000/svg">
<path d="M82.293 0V82.243H65.247C68.857 72.792 69.661 61.103 67.11 50.856C64.038 37.844 55.518 25.47 43.44 17.831C32.026 10.563 17.529 7.711 3.27899 10.643L0.00198364 11.45V0H82.293ZM22.655 12.894C18.277 10.476 12.524 10.123 7.36798 11.007L9.186 11.215L9.444 11.087C11.833 10.911 14.353 10.995 16.582 11.486C15.852 11.687 14.594 12.096 13.714 12.46C14.215 12.648 14.851 12.967 15.285 13.248C16.231 12.903 18.219 12.376 19.187 12.183C20.053 12.436 22.276 13.465 23.655 14.474C22.017 14.648 19.791 14.97 17.996 15.386C18.42 15.756 18.779 16.195 19.1 16.674C20.84 16.357 23.386 16.065 25.589 15.981C26.701 16.943 27.614 18.104 28.232 19.306C25.811 19.145 22.594 19.185 20.623 19.399C20.826 19.752 21.105 20.653 21.224 21.193C23.673 21.089 27.664 21.27 29.339 21.513C29.888 22.831 30.204 24.256 30.331 25.744C27.536 25.193 24.243 24.729 21.671 24.605C21.699 25.432 21.665 26.223 21.589 26.998C24.648 27.316 27.615 27.869 30.484 28.609C30.445 30.067 30.232 31.883 29.849 33.287C27.573 32.474 23.931 31.396 20.852 30.771C20.544 32.034 20.133 33.278 19.591 34.47C22.606 35.478 25.582 36.79 28.431 38.203C27.962 39.554 27.282 41.069 26.652 42.191C23.798 40.587 20.859 39.018 17.952 37.777C17.071 39.385 15.952 41.101 14.901 42.51C17.737 44.234 20.414 46.102 23.075 48.106C22.277 49.275 21.13 50.677 20.441 51.512C17.889 49.39 12.653 45.224 12.653 45.224C11.113 47.078 9.79598 48.464 7.85498 49.967C10.004 52.165 12.815 55.308 14.571 57.484C13.667 58.432 12.78 59.185 11.711 59.922C9.579 57.304 7.014 53.994 5.521 51.917C3.425 53.561 2.14499 54.452 0.00299072 55.558V58.636L3.405 65.44C2.633 65.935 2.004 66.236 1.013 66.663L0.00198364 64.679V68.255C13.121 62.429 26.475 49.581 30.357 35.63C31.779 30.808 32.026 24.603 29.702 20.108C28.338 17.151 25.582 14.393 22.655 12.894ZM20.698 10.866C21.269 11.053 21.815 11.307 22.362 11.545L22.67 11.492C25.472 11.956 28.149 12.89 30.552 14.2C29.248 14.211 27.9 14.191 26.598 14.299C27.141 14.784 27.716 15.353 28.188 15.876C29.95 15.842 31.657 15.88 33.337 15.991C35.005 17.215 36.7 18.854 37.648 20.545C35.698 20.097 33.019 19.714 30.628 19.507C30.938 20.218 31.254 20.951 31.517 21.711C34.174 22.101 36.804 22.586 39.367 23.234C40.212 24.983 40.854 26.826 41.13 28.775C38.305 27.768 35.41 26.811 32.439 26.207C32.514 27.166 32.521 28.151 32.527 29.122C35.59 30.007 38.578 31.035 41.477 32.347C41.49 34.315 41.281 36.19 40.839 37.971C37.927 36.518 34.954 35.08 31.861 34.031C31.469 35.766 30.955 37.45 30.355 39.089C33.322 40.612 36.264 42.162 39.072 43.995C38.543 45.502 37.77 47.139 36.874 48.604C34.117 46.718 31.356 44.885 28.479 43.289C27.5 45.324 26.259 47.41 24.791 49.31C27.354 51.328 29.979 53.431 32.449 55.664C31.637 56.888 30.547 58.302 29.322 59.596C27.519 57.696 24.507 54.99 22.001 52.877C20.23 55.016 18.135 57.378 16.025 59.148C17.635 60.84 22.415 66.599 22.415 66.599C21.46 67.552 20.267 68.534 19.045 69.412C19.045 69.412 14.164 63.152 12.962 61.643C10.076 63.932 7.76801 65.534 4.38901 67.329C5.72701 69.609 9.04999 75.79 9.04999 75.79C8.19599 76.313 7.305 76.804 6.414 77.131C4.845 74.527 2.957 70.755 1.952 68.603C0.980996 69.137 0.00299072 69.482 0.00299072 69.482V80.737C10.178 77.431 19.554 71.589 27.489 63.132C34.72 55.295 40.441 46.834 42.139 36.723C43.494 28.664 40.824 21.07 34.424 15.939C30.543 12.614 25.732 11.457 20.698 10.866ZM17.31 16.234C12.857 11.733 6.02701 11.356 0.00100708 12.773C0.00300708 12.771 0.00100708 13.32 0.00100708 13.32C1.26001 13.053 2.89099 12.795 4.38699 12.8C3.41099 13.39 2.47199 14.105 1.62399 14.803C1.98499 14.881 2.368 15.004 2.72 15.152C4.079 14.181 5.39399 13.34 6.48999 12.742C7.91299 12.754 9.75 13.018 10.948 13.498C8.967 14.21 6.567 15.31 5.022 16.351C5.306 16.503 5.60698 16.754 5.82898 16.984C7.73098 15.969 10.462 14.796 12.704 14.08C13.767 14.505 14.911 15.259 15.559 15.894C12.693 16.573 9.94798 17.323 7.18698 18.447C7.45298 18.761 7.74399 19.236 7.88199 19.531C9.87799 18.821 13.792 17.681 16.862 17.095C17.425 17.696 18.098 18.653 18.442 19.548C15.05 19.901 11.182 20.491 8.569 21.235C8.733 21.674 8.835 22.103 8.905 22.513C12.121 21.896 15.66 21.435 19.121 21.297C19.429 22.291 19.602 23.356 19.609 24.447C16.159 24.229 12.208 24.38 9.06598 24.694C9.06598 25.103 9.00799 25.921 8.95499 26.427C12.14 26.33 15.701 26.365 19.504 26.793C19.368 27.825 19.121 29.159 18.789 30.309C15.234 29.498 11.996 29.103 8.414 28.867C8.286 29.559 7.988 30.406 7.655 31.129C11.002 31.737 14.345 32.665 17.573 33.825C17.128 34.868 16.611 35.887 16.045 36.883C13.629 35.746 9.34098 34.143 6.52798 33.356C6.06398 34.294 5.28599 35.572 4.51099 36.52C6.53199 37.505 10.407 39.692 13.065 41.41C12.43 42.261 11.715 43.143 10.966 43.924C8.393 41.919 5.83998 40.035 3.04498 38.257C2.15198 39.282 1.044 40.39 0 41.266V41.59L6.422 48.426C5.709 49.075 4.98298 49.674 4.22198 50.226L0 44.829V54.353C6.52 50.527 13.119 44.247 16.83 37.593C19.857 32.266 22.149 25.055 19.216 18.93C18.699 17.983 18.149 17.063 17.31 16.234ZM36.494 16.302L38.39 16.534C40.282 17.516 42.024 18.901 43.589 20.559C44.166 21.189 44.788 21.826 45.189 22.514C43.625 22.071 42.11 21.533 40.494 21.183C41.041 22.042 41.43 22.88 41.832 23.861C43.636 24.38 45.426 25.003 47.178 25.626C48.301 27.758 49.121 30.046 49.513 32.469C47.492 31.457 45.465 30.472 43.384 29.655C43.545 30.843 43.59 32.062 43.545 33.241C45.831 34.283 48.392 35.687 49.976 36.704C50.035 38.377 49.868 41.351 49.377 43.246C47.553 41.917 44.926 40.212 42.794 39.113C42.504 40.756 41.72 43.315 40.907 45.12C43.13 46.629 45.355 48.174 47.46 49.988C46.816 51.767 45.989 53.476 45.095 55.139C42.985 53.326 40.838 51.591 38.605 49.916C37.338 52.421 35.937 54.679 34.024 57.028C36.17 59.007 38.216 60.943 40.266 63.064C39.262 64.518 38.138 65.962 36.826 67.318C34.874 65.225 32.866 63.077 30.827 61.071C28.702 63.52 26.303 66.09 23.801 68.196C24.954 69.399 27.447 72.308 29.26 74.921C28.013 75.989 26.85 76.994 25.605 77.908L20.331 71.101C17.075 73.641 13.616 75.734 10.157 77.623L12.924 82.24H21.502C34.611 73.289 46.452 59.997 50.101 45.159C52.304 36.086 50.212 26.785 43.959 20.029C40.617 16.429 36.913 15.225 34.298 14.417C34.967 14.862 35.736 15.533 36.494 16.302ZM0.0039978 15.546V17.131L0.890991 16.516C1.63099 16.686 2.47299 17.06 3.03799 17.426C2.01399 18.027 0.960984 18.619 0.0149841 19.267V20.261C1.27898 19.49 2.76599 18.588 3.94299 17.991C4.41699 18.295 4.84399 18.746 5.17499 19.196C3.47599 19.874 1.10598 21.029 0.00198364 21.613V22.638C1.88698 21.718 3.973 20.797 5.957 20.181C6.212 20.633 6.47098 21.2 6.56198 21.723C4.45398 22.131 2.01101 23.021 0.0140076 23.795V24.731C2.12701 23.995 4.966 23.25 6.827 22.951C6.965 23.55 6.98299 24.324 6.98499 24.87C4.18299 25.139 2.29698 25.466 0.0189819 25.925V26.994C2.04898 26.723 5.41499 26.476 6.87299 26.53C6.73299 27.263 6.57299 28.023 6.29199 28.689C4.61599 28.535 1.902 28.411 0.0130005 28.462C4.88013e-07 28.462 0 29.889 0 29.895C1.848 29.997 3.87499 30.45 5.49799 30.757C5.27799 31.324 4.86499 32.112 4.51099 32.682C3.24599 32.254 1.381 31.667 0 31.447V34.26C0.889 34.66 2.17799 35.299 2.61499 35.583C2.32099 36.016 1.73699 36.722 1.34399 37.077C0.753994 36.684 0 36.246 0 36.246V39.842C1.484 38.383 2.94299 36.854 4.10199 35.242C6.97299 31.103 9.23498 25.735 7.17398 20.559C5.92798 17.72 2.9 15.938 0.0039978 15.546ZM48.066 23.469C48.665 24.486 49.236 25.529 49.71 26.594L51.997 27.648C53.62 30.294 54.914 33.077 55.622 36.109C54.36 35.313 53.076 34.486 51.789 33.787C51.992 35.162 52.038 36.402 52.073 37.848C53.519 38.861 55.03 39.929 56.43 41.173C56.564 43.715 56.38 46.221 55.995 48.573C54.459 47.079 52.86 45.762 51.287 44.663C50.904 46.837 50.116 49.297 49.203 51.478C50.811 52.76 52.571 54.43 54.112 56.117C53.44 58.067 52.64 59.875 51.678 61.633C50.121 59.957 48.422 58.216 46.725 56.725C45.683 58.753 43.567 62.031 41.712 64.553C43.408 66.291 44.977 68.11 46.53 69.934C45.43 71.476 44.17 72.946 42.874 74.374C41.301 72.561 39.827 70.699 38.184 68.931C35.696 71.829 33.614 74.08 30.641 76.577C32.397 78.708 35.057 82.245 35.057 82.245H36.556C39.336 79.776 42.016 76.996 44.452 74.185C50.451 66.844 55.196 59.003 56.852 49.893C58.647 40.339 56.143 31.038 49.82 24.127L48.066 23.469ZM54.066 28.253L54.038 28.323C56.779 31.694 58.962 35.311 60.087 39.336L60.066 39.379L57.951 37.778C58.222 39.413 58.435 40.932 58.494 42.636C59.491 43.389 60.581 44.374 61.432 45.406C61.577 48.181 61.577 51.14 61.101 53.867C60.152 52.604 59.306 51.686 57.822 50.207C57.495 52.225 56.737 55.406 55.825 57.527C57.128 58.934 58.451 60.714 59.29 62.013C58.801 63.686 57.858 65.932 56.852 67.808C55.658 66.267 54.812 65.02 53.254 63.186C51.708 66.04 49.893 68.941 47.885 71.605C49.246 73.21 50.5 74.884 51.685 76.577C50.565 78.153 49.353 79.709 48.04 81.18C46.801 79.475 45.48 77.782 44.191 76.098C42.392 78.195 40.581 80.325 38.391 82.244H48.489C54.992 74.7 59.709 66.35 61.635 56.908C63.621 47.397 62.05 37.329 55.921 30.158C55.348 29.523 54.753 28.722 54.066 28.253ZM62.684 41.478C63.08 43.294 63.247 44.797 63.476 47.188C64.224 48.001 65.122 49.384 65.122 49.384C65.216 52.164 65.059 54.966 64.478 57.841L62.945 55.952C62.485 58.595 61.831 61.053 60.87 63.746L62.565 66.691C62.063 68.459 61.099 70.899 60.157 72.843C59.521 71.814 58.93 70.679 58.276 69.78C56.75 72.748 54.921 75.636 52.941 78.42L55.312 82.243H55.861C61.579 73.761 65.41 64.402 65.803 53.762C65.999 49.308 64.601 45.426 62.921 41.711L62.684 41.478ZM67.222 56.736C67.028 58.166 66.93 59.612 66.671 60.967L66.219 60.351C65.733 63.267 65.026 65.976 64.016 68.676L64.721 70.628C64.148 72.586 63.417 74.684 62.477 76.884C62.26 76.214 61.839 75.418 61.461 74.801C60.195 77.323 58.693 80.008 57.187 82.243H60.973C63.041 78.263 64.646 74.028 65.84 69.662C66.835 65.575 67.742 61.211 67.239 56.735L67.222 56.736ZM67.455 67.158C66.661 71.33 65.224 76.472 64.023 80.143C63.878 79.857 63.738 79.578 63.621 79.274C63.055 80.415 62.196 82.243 62.196 82.243H64.137C65.81 78.3 66.988 72.604 67.455 67.158ZM7.21399 79.023C4.84499 80.103 2.48501 81.002 0.00100708 81.793V82.236H9.009L7.21399 79.023ZM26.937 79.627C25.999 80.298 24.81 81.355 23.38 82.257H28.659C28.66 82.257 27.518 80.54 26.937 79.627Z" fill="#005DAA"/>
</svg>
