<svg width="553" height="98" viewBox="0 0 553 98" fill="none" xmlns="http://www.w3.org/2000/svg">
<mask id="mask0_3174_1238" style="mask-type:luminance" maskUnits="userSpaceOnUse" x="0" y="0" width="64" height="98">
<path d="M64 0H0V98H64V0Z" fill="white"/>
</mask>
<g mask="url(#mask0_3174_1238)">
<path fill-rule="evenodd" clip-rule="evenodd" d="M30.6472 0.0688267C17.6823 1.34602 17.2257 20.5388 30.1092 22.6866C30.6929 22.7839 30.8779 22.835 30.8913 22.9027C30.901 22.9515 30.854 23.9193 30.7871 25.0534C30.7201 26.1875 30.6357 28.4175 30.5996 30.0088C30.5635 31.6002 30.5212 32.9115 30.5056 32.9229C30.4901 32.9342 30.2795 33.0406 30.0377 33.1594C29.5848 33.382 28.9891 33.8707 28.7496 34.2163C28.6153 34.4102 28.6153 34.4102 27.7906 34.4371C26.4884 34.4797 25.6947 34.798 24.974 35.5665C24.7742 35.7796 24.5913 35.9307 24.567 35.9025C24.5427 35.8744 23.7913 34.7678 22.8971 33.4434C22.003 32.119 20.9877 30.6276 20.641 30.1293L20.0106 29.2231L20.3805 28.8133C27.2791 21.1701 17.6328 9.65849 9.43015 15.7454C1.26539 21.8042 8.58319 34.5133 17.9709 30.5784C18.0095 30.5622 18.7069 31.4342 19.6204 32.6409C20.4908 33.7907 21.578 35.2083 22.0364 35.7911C22.4948 36.374 22.9085 36.9092 22.9558 36.9806C23.053 37.1271 23.0843 37.1058 22.5592 37.25C21.1032 37.6499 19.7305 38.8583 19.4584 39.9797C19.4227 40.127 19.3641 40.2482 19.3283 40.2492C16.8679 40.3145 14.985 42.1418 14.9584 44.4902C14.9494 45.289 14.9494 45.289 14.6143 45.4879C11.5647 47.2978 7.42734 53.3695 7.13192 56.4687C7.08826 56.9268 7.10547 56.9117 6.502 57.0147C5.14028 57.2471 4.34481 57.7388 3.50602 58.8661C2.44379 60.2941 2.3458 61.5216 3.15577 63.2548C3.43012 63.8422 3.44519 63.7381 2.99294 64.3754C-1.78934 71.1116 -0.793089 79.0166 5.6409 85.3854C9.84892 89.5507 15.7558 92.0903 22.3782 92.5803C24.9068 92.7674 25.1963 92.8626 25.8476 93.7205C30.13 99.3597 33.8264 99.3597 38.1088 93.7205C38.7601 92.8626 39.0496 92.7674 41.5782 92.5803C51.4767 91.8478 59.7584 86.422 62.8627 78.6352C64.8416 73.6719 64.2135 68.9595 60.962 64.3709C60.5111 63.7342 60.5264 63.8411 60.8006 63.2548C61.6105 61.5216 61.5125 60.2941 60.4505 58.8661C59.6117 57.7388 58.816 57.2471 57.4544 57.0147C56.8507 56.9117 56.8682 56.9268 56.8246 56.4687C56.7278 55.4525 55.6398 52.8445 54.6019 51.1397C53.3263 49.0446 50.8481 46.3817 49.3421 45.4879C49.007 45.289 49.007 45.289 48.9979 44.4902C48.9714 42.1418 47.0885 40.3145 44.6281 40.2492C44.5923 40.2482 44.5337 40.127 44.498 39.9797C44.2259 38.8583 42.8532 37.6499 41.3972 37.25C40.8721 37.1058 40.9034 37.1271 41.0006 36.9806C41.0478 36.9092 41.4616 36.374 41.92 35.7911C42.3784 35.2083 43.4656 33.7907 44.336 32.6409C45.2495 31.4342 45.9469 30.5622 45.9855 30.5784C55.3732 34.5133 62.6911 21.8042 54.5262 15.7454C46.3235 9.65849 36.6773 21.1701 43.5758 28.8133L43.9458 29.2231L43.3154 30.1293C42.9687 30.6276 41.9534 32.119 41.0593 33.4434C40.1651 34.7678 39.4137 35.8744 39.3894 35.9025C39.3651 35.9307 39.1822 35.7796 38.9823 35.5665C38.2617 34.798 37.468 34.4797 36.1658 34.4371C35.3411 34.4102 35.3411 34.4102 35.2087 34.219C34.8617 33.7184 34.0622 33.1498 33.4155 32.9436C33.1253 32.8511 33.1253 32.8511 33.1323 29.4513C33.1361 27.5813 33.1265 25.3231 33.1109 24.433L33.0826 22.8145L33.8472 22.6868C48.3373 20.2667 45.2758 -1.37222 30.6472 0.0688267ZM30.291 2.87012C25.3199 3.7681 22.0529 8.36444 22.9446 12.8628C23.0089 13.1872 23.0948 13.5111 23.2033 13.8331C25.8009 21.5419 38.1555 21.5419 40.753 13.8331C40.8628 13.5076 40.9495 13.1818 41.0144 12.8569C42.1526 7.15949 36.5778 1.73452 30.291 2.87012ZM13.5994 16.9817C9.92816 17.6605 7.75544 21.3854 8.66073 24.544C8.83478 25.1512 9.12261 25.7375 9.53543 26.2772C12.4561 30.0955 17.7152 29.7103 19.882 25.5194C20.0717 25.1526 20.2166 24.7789 20.3202 24.403C21.415 20.427 17.8778 16.1907 13.5994 16.9817ZM48.3834 16.9849C44.7211 17.6391 42.8231 21.2129 43.6409 24.3975C43.9142 25.4617 44.4909 26.4826 45.4063 27.3364C48.0396 29.7926 52.0966 29.3159 54.421 26.2772C54.8342 25.7369 55.1207 25.1588 55.2948 24.5648C56.4238 20.7128 52.8241 16.1916 48.3834 16.9849ZM31.362 34.7628C29.5698 35.079 28.991 36.7375 29.9445 38.8251C30.2284 39.4467 30.2284 39.4467 30.6642 39.4512C31.0555 39.4553 31.1446 39.4783 31.539 39.6775C31.9782 39.8994 31.9782 39.8994 32.4174 39.6775C32.8118 39.4783 32.9009 39.4553 33.2922 39.4512C33.7279 39.4467 33.7279 39.4467 34.0116 38.8251C35.1813 36.2617 33.9104 34.3133 31.362 34.7628ZM26.7648 36.4037C25.2964 36.7952 24.8728 38.5768 25.8042 40.4434C26.1898 41.2162 26.1134 41.1555 26.5802 41.0593C26.8826 40.9969 27.0496 40.9903 27.2569 41.0326C27.9375 41.1712 27.8541 41.1937 28.1426 40.7939C28.286 40.5952 28.5245 40.3316 28.6726 40.208C28.9419 39.9832 28.9419 39.9832 28.7642 39.7093C28.2795 38.9621 28.0755 38.2445 28.0296 37.1254C27.9951 36.2828 27.7476 36.1416 26.7648 36.4037ZM35.927 37.1186C35.8809 38.245 35.678 38.9605 35.1922 39.7093C35.0145 39.9832 35.0145 39.9832 35.2838 40.208C35.4319 40.3316 35.6704 40.5952 35.8138 40.7939C36.1023 41.1937 36.0189 41.1712 36.6995 41.0326C36.9068 40.9903 37.0738 40.9969 37.3762 41.0593C37.843 41.1555 37.7666 41.2162 38.1522 40.4434C39.2408 38.2617 38.529 36.4184 36.5671 36.3385L35.96 36.3138L35.927 37.1186ZM22.7463 38.5994C20.5518 39.1672 19.7719 41.7939 21.2551 43.6214C21.6086 44.057 21.5848 44.0495 21.9384 43.8382C22.4878 43.51 23.1071 43.4044 23.8293 43.5158C24.091 43.5561 24.091 43.5561 24.1573 43.2958C24.2687 42.8583 24.5964 42.2875 24.9521 41.9116C25.2903 41.5542 25.2903 41.5542 25.0599 41.2509C24.5571 40.5895 24.11 39.3252 24.1059 38.5534C24.1055 38.4803 23.0712 38.5153 22.7463 38.5994ZM39.8505 38.5534C39.8463 39.3252 39.3993 40.5895 38.8965 41.2509C38.6661 41.5542 38.6661 41.5542 39.0043 41.9116C39.3599 42.2875 39.6877 42.8583 39.7991 43.2958C39.8654 43.5561 39.8654 43.5561 40.1271 43.5158C40.8493 43.4044 41.4686 43.51 42.018 43.8382C42.3716 44.0495 42.3478 44.057 42.7013 43.6214C43.9374 42.0984 43.5689 39.6714 41.9853 38.905C41.3053 38.5759 39.8517 38.3365 39.8505 38.5534ZM29.7823 41.226C28.2407 41.9355 28.1008 43.6657 29.425 45.6435C29.8322 46.2516 29.8322 46.2516 29.9909 46.0042C30.8347 44.6887 33.1217 44.6887 33.9655 46.0042C34.195 46.362 35.119 44.998 35.3537 43.9547C35.7727 42.0926 33.9355 40.1987 32.8969 41.4221C32.676 41.6824 32.4046 42.1603 32.2974 42.4778C32.0898 43.0928 31.8666 43.0928 31.659 42.4778C31.493 41.9861 31.1431 41.4559 30.8236 41.2121C30.5965 41.0388 30.1769 41.0444 29.7823 41.226ZM18.8384 41.6039C16.0378 41.9677 15.5262 45.9479 18.0611 47.65C18.6008 48.0123 20.141 48.6513 20.141 48.5128C20.141 48.5043 20.0901 48.3003 20.0278 48.0594C19.7621 47.0324 20.0395 45.7398 20.6993 44.9304C20.8762 44.7134 20.8762 44.7134 20.432 44.2494C19.7738 43.5619 19.4175 42.8228 19.3193 41.9413C19.273 41.5255 19.2993 41.5439 18.8384 41.6039ZM44.6912 41.6143C44.6802 41.6479 44.6441 41.8579 44.611 42.081C44.4797 42.9651 44.1639 43.5892 43.5006 44.2757C43.079 44.7119 43.079 44.7119 43.2565 44.9297C43.9169 45.7398 44.1944 47.032 43.9286 48.0594C43.8663 48.3003 43.8154 48.5043 43.8154 48.5128C43.8154 48.6513 45.3556 48.0123 45.8953 47.65C48.1411 46.142 48.1021 42.8592 45.826 41.8098C45.4506 41.6368 44.7246 41.5117 44.6912 41.6143ZM26.5751 42.3259C24.7937 42.5794 24.4305 45.4707 25.9361 47.4129C26.0663 47.5809 26.1901 47.7431 26.2111 47.7734C26.2338 47.806 26.3376 47.7683 26.466 47.6807C27.1916 47.1858 28.0696 47.0783 29.3958 47.322C29.4398 47.3301 29.6801 46.7384 29.6417 46.7164C28.1995 45.8924 27.3765 44.4298 27.4595 42.8381C27.4835 42.3767 27.4835 42.3767 27.2813 42.3432C27.1701 42.3247 27.0408 42.3026 26.9941 42.294C26.9474 42.2854 26.7589 42.2998 26.5751 42.3259ZM36.9339 42.2951C36.9028 42.3034 36.7863 42.3252 36.6751 42.3435C36.4729 42.3767 36.4729 42.3767 36.4969 42.8381C36.5799 44.4298 35.7569 45.8924 34.3146 46.7164C34.2762 46.7384 34.5166 47.3301 34.5606 47.322C35.8868 47.0783 36.7648 47.1858 37.4904 47.6807C37.6188 47.7683 37.7226 47.806 37.7453 47.7734C37.7663 47.7431 37.89 47.5809 38.0203 47.4129C39.1269 45.9854 39.2616 43.5659 38.2819 42.7133C37.9788 42.4495 37.2274 42.2164 36.9339 42.2951ZM22.9617 44.6378C20.7785 45.2189 20.6256 48.202 22.6811 50.1117C24.1667 51.492 22.7158 51.1684 21.0976 49.7586C20.6589 49.3763 20.6589 49.3763 20.3245 49.4109C18.9589 49.552 16.8553 48.358 15.7336 46.8051C15.4748 46.4467 15.4748 46.4467 15.3102 46.6371C12.9781 49.3326 11.6508 51.7462 10.1393 56.0392C9.76521 57.1021 9.76147 57.0192 10.187 57.0993C17.4495 58.4623 22.2416 66.113 22.3909 76.5834C22.4234 78.8698 22.3657 78.7326 23.1701 78.4353C23.6613 78.2533 23.7608 78.115 24.1621 77.0582C25.9984 72.221 27.5444 70.303 30.1344 69.6483C30.6704 69.5128 30.6547 69.5229 30.7005 69.2815C30.804 68.7361 31.3863 67.3081 31.5961 67.0852C32.1021 66.5482 32.9502 67.6704 33.2559 69.2815C33.3017 69.5229 33.286 69.5128 33.822 69.6483C36.412 70.303 37.9579 72.221 39.7943 77.0582C40.1956 78.115 40.2951 78.2533 40.7863 78.4353C41.5907 78.7326 41.5329 78.8698 41.5655 76.5834C41.7148 66.1125 46.5064 58.4623 53.7693 57.0993C54.1949 57.0192 54.1912 57.1021 53.8171 56.0392C52.3056 51.7462 50.9783 49.3326 48.6462 46.6371C48.4816 46.4467 48.4816 46.4467 48.2228 46.8051C47.1011 48.358 44.9975 49.552 43.6319 49.4109C43.2975 49.3763 43.2975 49.3763 42.8588 49.7586C41.2406 51.1684 39.7897 51.492 41.2753 50.1117C42.7584 48.7338 43.1328 47.311 42.3929 45.8642C41.8067 44.7177 39.9983 44.0306 39.8834 44.9107C39.6997 46.3185 39.1368 47.4015 38.289 47.9783C38.0421 48.1463 38.0421 48.1463 38.2526 48.5228C38.7369 49.3892 38.4976 50.5152 37.6489 51.3635C36.9308 52.0812 36.3539 52.1282 37.0128 51.4153C37.8772 50.4802 37.8171 49.3403 36.889 49.0678C36.3338 48.9047 34.5835 48.9739 34.5835 49.1589C34.5835 49.5796 34.0209 50.873 33.6869 51.2202C33.2726 51.6508 33.1858 51.4641 33.4711 50.756C34.3452 48.587 33.6167 46.5195 31.9782 46.5195C30.3397 46.5195 29.6112 48.587 30.4852 50.756C30.7706 51.4641 30.6838 51.6508 30.2695 51.2202C29.9355 50.873 29.3729 49.5796 29.3729 49.1589C29.3729 48.9739 27.6226 48.9047 27.0674 49.0678C26.1392 49.3403 26.0791 50.4802 26.9435 51.4153C27.6025 52.1282 27.0256 52.0812 26.3075 51.3635C25.4587 50.5152 25.2195 49.3892 25.7038 48.5228C25.9143 48.1463 25.9143 48.1463 25.6673 47.9783C24.8204 47.4022 24.2566 46.3182 24.0734 44.9142C24.0433 44.6834 24.0113 44.6186 23.9149 44.593C23.7159 44.5402 23.2453 44.5623 22.9617 44.6378ZM7.34941 58.501C4.00737 59.0257 4.51002 62.6657 8.34571 65.7154C9.5633 66.6837 9.58539 66.6971 11.5322 67.6889C18.7089 71.3451 20.5941 73.5918 20.5941 78.4902C20.5941 78.8267 20.8359 78.9298 21.1747 78.7371C21.2357 78.7024 21.226 76.3594 21.1597 75.1072C20.8481 69.2272 18.4656 63.7308 15.0503 61.0137C12.7912 59.2161 9.54376 58.1566 7.34941 58.501ZM54.8879 58.4825C48.6903 59.1349 43.9779 64.9986 42.9392 73.3499C42.774 74.6794 42.6574 78.666 42.7817 78.7371C43.1205 78.9298 43.3623 78.8267 43.3623 78.4902C43.3623 73.5913 45.2462 71.3457 52.4242 67.6889C54.371 66.6971 54.3931 66.6837 55.6107 65.7154C60.2076 62.0609 59.7981 57.9656 54.8879 58.4825ZM4.92171 65.9652C2.31471 68.7753 1.54643 74.5791 3.23348 78.7192C5.60142 84.5309 13.3492 89.9338 20.1693 90.5302C23.26 90.8001 23.9616 90.7542 23.666 90.2989C23.1812 89.5535 21.5195 86.5301 20.5486 84.6272C20.2971 84.1344 19.9069 83.4417 19.6814 83.0872C18.6685 81.4962 18.5942 80.3398 19.4468 79.4388C19.9516 78.9051 19.6345 76.3812 18.8711 74.8546C18.4936 74.0998 18.5196 74.1076 18.1604 74.6452C14.0283 80.8293 5.59802 76.0967 5.76889 67.6894C5.795 66.4065 5.795 66.4065 5.43734 66.1226C5.01987 65.7922 5.06874 65.8067 4.92171 65.9652ZM58.5068 66.1265C58.1613 66.4065 58.1613 66.4065 58.1873 67.6894C58.3584 76.0967 49.928 80.8287 45.796 74.6452C45.4368 74.1076 45.4628 74.0998 45.0853 74.8546C44.3219 76.3812 44.0048 78.9051 44.5096 79.4388C45.3622 80.3398 45.2879 81.4962 44.275 83.0872C44.0495 83.4417 43.6593 84.1344 43.4078 84.6272C42.4369 86.5301 40.7752 89.5535 40.2904 90.2989C39.9929 90.757 39.9097 90.7351 41.6502 90.6545C45.2799 90.487 46.7898 90.1555 49.7339 88.8798C60.3792 84.2688 64.708 74.4727 59.5432 66.682C58.9049 65.7188 58.9678 65.753 58.5068 66.1265ZM7.20255 67.4772C6.65362 69.2787 7.74026 72.674 9.42301 74.4156C9.94549 74.956 9.97686 74.9594 9.7681 74.4526C8.92913 72.4142 9.23673 69.8863 10.4215 69.0838C10.6406 68.9354 10.2405 68.6862 8.70032 68.0131C8.34209 67.8563 7.87761 67.6435 7.66811 67.5399C7.21591 67.3159 7.25029 67.321 7.20255 67.4772ZM56.3605 67.503C56.2047 67.583 55.7205 67.8076 55.2844 68.0019C53.6014 68.7501 53.3089 68.931 53.534 69.0833C54.7197 69.8863 55.0276 72.413 54.1883 74.4526C53.9795 74.9594 54.0109 74.956 54.5334 74.4156C56.2161 72.674 57.3027 69.2787 56.7538 67.4772C56.7068 67.3232 56.7091 67.3232 56.3605 67.503ZM31.3078 70.9386C29.1406 71.3222 27.1122 73.6445 25.5392 77.5432C24.7506 79.4982 24.3404 79.781 21.7269 80.1741C20.007 80.4328 19.8936 80.8472 21.0756 82.5524C21.9302 83.7855 22.974 85.489 24.0765 87.449C26.0468 90.953 26.7738 92.115 27.7758 93.3632C31.2315 97.669 34.1851 96.9629 37.8492 90.9552C38.5707 89.7725 38.6608 89.6168 39.8799 87.449C40.9824 85.489 42.0262 83.7855 42.8808 82.5524C44.0628 80.8472 43.9494 80.4328 42.2295 80.1741C39.6159 79.781 39.2058 79.4982 38.4172 77.5432C36.5208 72.8431 33.9644 70.4682 31.3078 70.9386ZM25.55 80.2077C25.0207 80.4804 24.8298 81.004 25.0762 81.5074C25.2716 81.9062 25.8097 82.105 26.1408 81.9006C26.2319 81.8446 26.3007 81.8653 26.579 82.0338C27.574 82.6353 27.9533 82.5188 27.644 81.7062C27.172 80.4664 26.2826 79.8302 25.55 80.2077ZM37.4328 80.2329C36.8255 80.5381 36.0489 81.8423 36.2395 82.2377C36.3773 82.5233 36.6478 82.4751 37.3774 82.0338C37.6557 81.8653 37.7245 81.8446 37.8156 81.9006C38.1467 82.105 38.6848 81.9062 38.8802 81.5074C39.3022 80.6456 38.3245 79.7843 37.4328 80.2329Z" fill="#22110C"/>
<path d="M36.934 42.2951C36.9028 42.3034 36.7863 42.3252 36.6751 42.3435C36.4729 42.3767 36.4729 42.3767 36.4969 42.8381C36.5799 44.4298 35.7569 45.8924 34.3147 46.7164C34.2763 46.7384 34.5166 47.3301 34.5606 47.322C35.8868 47.0783 36.7648 47.1858 37.4904 47.6807C37.6188 47.7683 37.7226 47.806 37.7453 47.7734C37.7663 47.7431 37.89 47.5809 38.0203 47.4129C39.1269 45.9854 39.2616 43.5659 38.2819 42.7133C37.9789 42.4495 37.2274 42.2164 36.934 42.2951Z" fill="#2430F0"/>
<path d="M44.6912 41.6143C44.6802 41.6479 44.6441 41.8579 44.611 42.081C44.4797 42.9651 44.1639 43.5892 43.5006 44.2757C43.079 44.7119 43.079 44.7119 43.2565 44.9297C43.9168 45.7399 44.1944 47.0321 43.9286 48.0594C43.8663 48.3003 43.8154 48.5043 43.8154 48.5128C43.8154 48.6513 45.3555 48.0123 45.8952 47.65C48.1411 46.142 48.1021 42.8592 45.826 41.8098C45.4506 41.6368 44.7246 41.5117 44.6912 41.6143Z" fill="#2430F0"/>
<path d="M39.8505 38.5534C39.8464 39.3252 39.3993 40.5895 38.8965 41.2509C38.6661 41.5542 38.6661 41.5542 39.0043 41.9116C39.3599 42.2875 39.6877 42.8583 39.7991 43.2958C39.8654 43.5561 39.8654 43.5561 40.1271 43.5158C40.8493 43.4044 41.4686 43.51 42.018 43.8382C42.3716 44.0495 42.3478 44.057 42.7013 43.6214C43.9374 42.0984 43.5689 39.6714 41.9853 38.905C41.3053 38.5759 39.8517 38.3365 39.8505 38.5534Z" fill="#2430F0"/>
<path d="M35.927 37.1186C35.8809 38.245 35.678 38.9605 35.1922 39.7093C35.0145 39.9832 35.0145 39.9832 35.2838 40.208C35.4319 40.3316 35.6704 40.5952 35.8138 40.7939C36.1023 41.1937 36.0189 41.1712 36.6995 41.0326C36.9068 40.9903 37.0738 40.9969 37.3762 41.0592C37.843 41.1555 37.7666 41.2162 38.1521 40.4434C39.2408 38.2617 38.529 36.4184 36.567 36.3384L35.96 36.3138L35.927 37.1186Z" fill="#2430F0"/>
<path d="M31.362 34.7628C29.5697 35.079 28.991 36.7375 29.9445 38.8251C30.2284 39.4467 30.2284 39.4467 30.6641 39.4512C31.0555 39.4552 31.1445 39.4783 31.539 39.6775C31.9782 39.8994 31.9782 39.8994 32.4174 39.6775C32.8118 39.4783 32.9009 39.4552 33.2922 39.4512C33.7279 39.4467 33.7279 39.4467 34.0116 38.8251C35.1813 36.2617 33.9104 34.3133 31.362 34.7628Z" fill="#2430F0"/>
<path d="M29.7823 41.226C28.2407 41.9356 28.1008 43.6657 29.425 45.6435C29.8322 46.2516 29.8322 46.2516 29.9909 46.0042C30.8347 44.6887 33.1217 44.6887 33.9655 46.0042C34.195 46.362 35.119 44.998 35.3537 43.9547C35.7727 42.0926 33.9355 40.1987 32.8969 41.4221C32.676 41.6824 32.4046 42.1603 32.2974 42.4778C32.0898 43.0928 31.8666 43.0928 31.659 42.4778C31.493 41.9861 31.1431 41.4559 30.8236 41.2121C30.5965 41.0388 30.1768 41.0444 29.7823 41.226Z" fill="#2430F0"/>
<path d="M26.5751 42.3259C24.7937 42.5794 24.4305 45.4707 25.9361 47.4129C26.0663 47.5809 26.1901 47.7431 26.2111 47.7734C26.2338 47.806 26.3376 47.7683 26.466 47.6807C27.1916 47.1858 28.0696 47.0783 29.3958 47.322C29.4398 47.3301 29.6801 46.7384 29.6417 46.7164C28.1995 45.8924 27.3765 44.4298 27.4594 42.8381C27.4835 42.3767 27.4835 42.3767 27.2813 42.3432C27.1701 42.3247 27.0408 42.3026 26.9941 42.294C26.9474 42.2854 26.7588 42.2998 26.5751 42.3259Z" fill="#2430F0"/>
<path d="M22.7463 38.5994C20.5518 39.1672 19.7719 41.7939 21.2551 43.6214C21.6086 44.057 21.5848 44.0495 21.9384 43.8382C22.4878 43.51 23.1071 43.4044 23.8293 43.5157C24.091 43.5561 24.091 43.5561 24.1573 43.2958C24.2687 42.8583 24.5964 42.2875 24.9521 41.9116C25.2902 41.5542 25.2902 41.5542 25.0598 41.2509C24.5571 40.5895 24.11 39.3252 24.1058 38.5534C24.1055 38.4803 23.0712 38.5153 22.7463 38.5994Z" fill="#2430F0"/>
<path d="M26.7648 36.4037C25.2964 36.7952 24.8728 38.5768 25.8042 40.4434C26.1898 41.2162 26.1134 41.1555 26.5802 41.0593C26.8826 40.9969 27.0496 40.9903 27.2569 41.0326C27.9375 41.1712 27.8541 41.1937 28.1426 40.7939C28.286 40.5952 28.5245 40.3316 28.6726 40.208C28.9419 39.9832 28.9419 39.9832 28.7642 39.7093C28.2795 38.9621 28.0755 38.2445 28.0296 37.1254C27.9951 36.2828 27.7476 36.1416 26.7648 36.4037Z" fill="#2430F0"/>
<path d="M18.8384 41.6039C16.0378 41.9678 15.5262 45.9479 18.0611 47.65C18.6008 48.0123 20.141 48.6513 20.141 48.5128C20.141 48.5043 20.0901 48.3003 20.0278 48.0594C19.7621 47.0324 20.0395 45.7398 20.6993 44.9304C20.8762 44.7134 20.8762 44.7134 20.432 44.2494C19.7739 43.5619 19.4175 42.8228 19.3193 41.9413C19.273 41.5255 19.2993 41.5439 18.8384 41.6039Z" fill="#2430F0"/>
<path d="M54.8879 58.4825C48.6904 59.1349 43.9779 64.9986 42.9393 73.3499C42.774 74.6794 42.6574 78.666 42.7817 78.7371C43.1205 78.9298 43.3623 78.8267 43.3623 78.4902C43.3623 73.5913 45.2463 71.3457 52.4242 67.6889C54.371 66.6971 54.3931 66.6837 55.6107 65.7154C60.2076 62.0609 59.7981 57.9656 54.8879 58.4825Z" fill="#2BE1B7"/>
<path d="M58.5067 66.1265C58.1612 66.4065 58.1612 66.4065 58.1872 67.6894C58.3583 76.0967 49.9279 80.8287 45.7959 74.6452C45.4367 74.1076 45.4627 74.0997 45.0852 74.8546C44.3218 76.3812 44.0047 78.9051 44.5095 79.4388C45.3621 80.3398 45.2878 81.4962 44.2749 83.0872C44.0494 83.4417 43.6592 84.1344 43.4077 84.6272C42.4368 86.5301 40.7751 89.5535 40.2903 90.2989C39.9928 90.7569 39.9096 90.7351 41.6501 90.6545C45.2798 90.487 46.7897 90.1555 49.7338 88.8798C60.3791 84.2688 64.7079 74.4727 59.5431 66.682C58.9048 65.7188 58.9677 65.753 58.5067 66.1265Z" fill="#2BE1B7"/>
<path d="M4.92167 65.9652C2.31466 68.7753 1.54638 74.5791 3.23343 78.7192C5.60138 84.5309 13.3491 89.9338 20.1693 90.5302C23.2599 90.8001 23.9615 90.7542 23.6659 90.2989C23.1811 89.5535 21.5194 86.5301 20.5485 84.6272C20.297 84.1344 19.9068 83.4417 19.6813 83.0872C18.6684 81.4962 18.5941 80.3398 19.4467 79.4388C19.9515 78.9051 19.6344 76.3812 18.871 74.8546C18.4935 74.0998 18.5195 74.1076 18.1603 74.6452C14.0283 80.8293 5.59798 76.0967 5.76885 67.6894C5.79496 66.4065 5.79496 66.4065 5.4373 66.1226C5.01983 65.7922 5.0687 65.8067 4.92167 65.9652Z" fill="#2BE1B7"/>
<path d="M7.34936 58.501C4.00732 59.0257 4.50997 62.6657 8.34566 65.7154C9.56325 66.6837 9.58534 66.6971 11.5321 67.6889C18.7088 71.3451 20.594 73.5918 20.594 78.4902C20.594 78.8267 20.8358 78.9298 21.1746 78.7371C21.2356 78.7024 21.2259 76.3594 21.1596 75.1072C20.8481 69.2272 18.4656 63.7308 15.0502 61.0137C12.7911 59.2161 9.54371 58.1566 7.34936 58.501Z" fill="#2BE1B7"/>
<path d="M22.9617 44.6378C20.7785 45.2189 20.6256 48.202 22.6811 50.1117C24.1667 51.492 22.7157 51.1684 21.0976 49.7586C20.6589 49.3763 20.6589 49.3763 20.3245 49.4109C18.9589 49.552 16.8553 48.358 15.7336 46.8051C15.4748 46.4467 15.4748 46.4467 15.3102 46.6371C12.9781 49.3326 11.6508 51.7462 10.1393 56.0392C9.76518 57.1021 9.76144 57.0192 10.187 57.0993C17.4495 58.4623 22.2416 66.113 22.3909 76.5834C22.4234 78.8698 22.3657 78.7326 23.1701 78.4353C23.6612 78.2533 23.7608 78.115 24.1621 77.0582C25.9984 72.221 27.5443 70.303 30.1344 69.6483C30.6704 69.5128 30.6547 69.5229 30.7005 69.2815C30.804 68.7361 31.3863 67.3081 31.5961 67.0852C32.1021 66.5482 32.9502 67.6704 33.2559 69.2815C33.3017 69.5229 33.286 69.5128 33.822 69.6483C36.412 70.303 37.9579 72.221 39.7943 77.0582C40.1956 78.115 40.2951 78.2533 40.7863 78.4353C41.5907 78.7326 41.5329 78.8698 41.5655 76.5834C41.7148 66.1125 46.5064 58.4623 53.7693 57.0993C54.1949 57.0192 54.1912 57.1021 53.8171 56.0392C52.3056 51.7462 50.9783 49.3326 48.6462 46.6371C48.4816 46.4467 48.4816 46.4467 48.2227 46.8051C47.1011 48.358 44.9975 49.552 43.6319 49.4109C43.2975 49.3763 43.2975 49.3763 42.8588 49.7586C41.2406 51.1684 39.7896 51.492 41.2753 50.1117C42.7584 48.7338 43.1328 47.311 42.3929 45.8642C41.8067 44.7177 39.9983 44.0306 39.8834 44.9107C39.6997 46.3185 39.1368 47.4015 38.289 47.9783C38.0421 48.1463 38.0421 48.1463 38.2526 48.5228C38.7369 49.3892 38.4976 50.5153 37.6489 51.3635C36.9308 52.0812 36.3539 52.1282 37.0128 51.4153C37.8772 50.4802 37.8171 49.3403 36.889 49.0678C36.3338 48.9048 34.5835 48.9739 34.5835 49.1589C34.5835 49.5796 34.0209 50.873 33.6869 51.2202C33.2726 51.6508 33.1858 51.4641 33.4711 50.7561C34.3452 48.587 33.6166 46.5195 31.9782 46.5195C30.3397 46.5195 29.6112 48.587 30.4852 50.7561C30.7706 51.4641 30.6837 51.6508 30.2695 51.2202C29.9355 50.873 29.3729 49.5796 29.3729 49.1589C29.3729 48.9739 27.6226 48.9048 27.0674 49.0678C26.1392 49.3403 26.0791 50.4802 26.9435 51.4153C27.6025 52.1282 27.0256 52.0812 26.3075 51.3635C25.4587 50.5153 25.2195 49.3892 25.7038 48.5228C25.9143 48.1463 25.9143 48.1463 25.6673 47.9783C24.8204 47.4022 24.2566 46.3182 24.0734 44.9142C24.0433 44.6834 24.0113 44.6186 23.9149 44.593C23.7159 44.5402 23.2453 44.5623 22.9617 44.6378Z" fill="#2430F0"/>
<path fill-rule="evenodd" clip-rule="evenodd" d="M31.3078 70.9386C29.1406 71.3222 27.1122 73.6445 25.5392 77.5432C24.7505 79.4982 24.3404 79.781 21.7269 80.1741C20.007 80.4328 19.8936 80.8472 21.0756 82.5524C21.9302 83.7855 22.974 85.489 24.0765 87.449C26.0467 90.953 26.7738 92.115 27.7758 93.3632C31.2315 97.669 34.1851 96.9629 37.8492 90.9552C38.5707 89.7725 38.6608 89.6168 39.8799 87.449C40.9824 85.489 42.0262 83.7855 42.8808 82.5524C44.0627 80.8472 43.9494 80.4328 42.2295 80.1741C39.6159 79.781 39.2058 79.4982 38.4172 77.5432C36.5208 72.8431 33.9644 70.4682 31.3078 70.9386ZM25.0762 81.5074C24.8298 81.004 25.0207 80.4804 25.55 80.2077C26.2826 79.8302 27.172 80.4664 27.644 81.7062C27.9533 82.5188 27.574 82.6353 26.579 82.0338C26.3007 81.8653 26.2319 81.8446 26.1408 81.9006C25.8097 82.105 25.2716 81.9062 25.0762 81.5074ZM36.2395 82.2377C36.0489 81.8423 36.8255 80.5381 37.4327 80.2329C38.3245 79.7843 39.3022 80.6456 38.8802 81.5074C38.6848 81.9062 38.1467 82.105 37.8156 81.9006C37.7245 81.8446 37.6557 81.8653 37.3773 82.0338C36.6477 82.4751 36.3773 82.5233 36.2395 82.2377Z" fill="#F2C79C"/>
<path fill-rule="evenodd" clip-rule="evenodd" d="M20.3202 24.403C19.5666 21.5954 17.2191 19.3839 14.0295 19.9736C11.4987 20.4416 9.24985 22.3643 8.66077 24.544C8.83481 25.1512 9.12264 25.7375 9.53547 26.2772C12.4561 30.0955 17.7152 29.7103 19.882 25.5194C20.0717 25.1526 20.2166 24.7789 20.3202 24.403Z" fill="#2430F0"/>
<path fill-rule="evenodd" clip-rule="evenodd" d="M23.2033 13.8331C23.0948 13.5111 23.0089 13.1872 22.9446 12.8628C23.6043 9.48752 26.8651 6.55861 30.7211 5.86203C35.8819 4.92985 40.1328 8.42565 41.0144 12.8569C40.9495 13.1818 40.8628 13.5076 40.753 13.8331C38.1555 21.5419 25.8009 21.5419 23.2033 13.8331Z" fill="#2430F0"/>
<path d="M48.3835 16.9849C44.7212 17.6391 42.8232 21.2129 43.641 24.3975C44.182 22.2632 46.296 20.4266 48.8136 19.9768C52.1138 19.3873 54.5194 21.74 55.2949 24.5648C56.4239 20.7128 52.8242 16.1916 48.3835 16.9849Z" fill="#2430F0"/>
<path d="M22.9445 12.8628C23.6042 9.48753 26.865 6.55862 30.721 5.86204C35.8818 4.92986 40.1328 8.42566 41.0144 12.8569C42.1526 7.1595 36.5778 1.73453 30.291 2.87013C25.3199 3.76811 22.0528 8.36445 22.9445 12.8628Z" fill="#2430F0"/>
<path d="M14.0295 19.9736C17.219 19.3839 19.5666 21.5954 20.3202 24.403C21.415 20.427 17.8778 16.1907 13.5994 16.9817C9.92814 17.6605 7.75543 21.3854 8.66071 24.544C9.2498 22.3643 11.4986 20.4416 14.0295 19.9736Z" fill="#2430F0"/>
<path d="M45.4063 27.3364C48.0396 29.7926 52.0966 29.3159 54.421 26.2772C54.8342 25.7369 55.1207 25.1588 55.2948 24.5649C54.5193 21.74 52.1137 19.3873 48.8135 19.9768C46.2959 20.4266 44.1819 22.2632 43.6409 24.3975C43.9142 25.4617 44.4909 26.4826 45.4063 27.3364Z" fill="#2430F0"/>
<path fill-rule="evenodd" clip-rule="evenodd" d="M24.3134 9.82174C25.7541 7.84343 28.1022 6.33602 30.726 5.86204C34.6522 5.15284 38.0519 7.00662 39.8419 9.88541C40.1831 9.54589 40.4951 9.20081 40.7529 8.8628C39.4214 4.92063 35.0633 2.00896 30.2959 2.87013C27.0021 3.4651 24.4565 5.68362 23.373 8.42146C23.6074 8.86823 23.9384 9.34759 24.3134 9.82174Z" fill="#F2C79C"/>
<path d="M24.3135 9.82173C25.5926 11.439 27.3833 12.9963 27.5991 12.9963C27.7624 12.9963 28.6653 12.1292 29.6031 11.2287C30.6158 10.256 31.6693 9.24431 31.8752 9.24431C32.0734 9.24431 32.923 10.1823 33.7725 11.1203C34.6221 12.0583 35.4716 12.9963 35.6699 12.9963C35.9227 12.9963 38.2149 11.504 39.842 9.8854C38.052 7.00661 34.6523 5.15283 30.7261 5.86202C28.1023 6.33601 25.7542 7.84342 24.3135 9.82173Z" fill="#2BE1B7"/>
<path d="M8.69081 24.386C9.34327 22.272 11.5443 20.4302 14.0139 19.9736C15.9023 19.6245 17.4955 20.2572 18.6375 21.4142C18.8497 20.6386 19.0033 19.7123 18.9853 18.9347C17.7035 17.4593 15.7376 16.5835 13.5838 16.9817C9.99919 17.6444 7.84324 21.2112 8.58609 24.3193C8.62053 24.3418 8.65547 24.364 8.69081 24.386Z" fill="#2BE1B7"/>
<path d="M8.6908 24.386C10.0797 25.2533 11.9731 25.632 12.472 25.3443C12.8582 25.1216 13.037 23.9982 13.079 22.8412C13.111 21.9619 13.1396 21.1747 13.3108 21.0296C13.5 20.8692 14.4177 21.391 15.3902 21.944C16.456 22.5499 17.6599 23.0784 17.9709 22.9027C18.1932 22.7771 18.4122 22.238 18.6375 21.4142C17.4955 20.2572 15.9022 19.6245 14.0138 19.9736C11.5443 20.4302 9.34326 22.272 8.6908 24.386Z" fill="#2BE1B7"/>
<path fill-rule="evenodd" clip-rule="evenodd" d="M44.0624 20.3883C44.1473 21.0043 45.9314 24.3083 46.4128 24.4203C46.6735 24.481 47.5653 23.8519 48.3823 23.2757C49.0739 22.7878 49.7119 22.3378 49.8677 22.3763C50.0098 22.4114 50.2806 22.8332 50.5972 23.3265C51.038 24.0131 51.5678 24.8382 51.9632 24.9523C52.4755 25.1 54.5157 24.0391 55.5141 23.3276C55.6683 19.8161 52.3697 16.2754 48.3986 16.9849C46.3249 17.3553 44.8169 18.6618 44.0472 20.3036C44.0531 20.3295 44.0581 20.3576 44.0624 20.3883Z" fill="#2BE1B7"/>
<path d="M56.3605 67.503C56.2047 67.583 55.7205 67.8076 55.2844 68.0019C53.6014 68.7501 53.3089 68.931 53.534 69.0833C54.7197 69.8863 55.0276 72.413 54.1883 74.4526C53.9795 74.9594 54.0109 74.956 54.5334 74.4156C56.2161 72.674 57.3027 69.2787 56.7538 67.4772C56.7068 67.3232 56.7091 67.3232 56.3605 67.503Z" fill="#F1F1F1"/>
<path d="M7.20261 67.4772C6.65368 69.2787 7.74032 72.674 9.42307 74.4156C9.94554 74.956 9.97692 74.9594 9.76816 74.4526C8.92919 72.4142 9.23679 69.8863 10.4216 69.0838C10.6407 68.9354 10.2406 68.6862 8.70038 68.0131C8.34215 67.8563 7.87767 67.6435 7.66816 67.5399C7.21597 67.3159 7.25035 67.321 7.20261 67.4772Z" fill="#F1F1F1"/>
<path d="M52.6726 72.6085C52.6726 72.4226 52.5077 72.2725 52.3044 72.2725C52.1011 72.2725 51.9363 72.4226 51.9363 72.6085C51.9363 72.7938 52.1011 72.9445 52.3044 72.9445C52.5077 72.9445 52.6726 72.7938 52.6726 72.6085Z" fill="#F1F1F1"/>
<path opacity="0.2" fill-rule="evenodd" clip-rule="evenodd" d="M40.5098 14.4687C37.3587 17.9388 31.0957 19.8484 23.9393 15.4293C27.478 21.3135 37.6984 20.9933 40.5098 14.4687ZM18.9789 26.8619C15.6621 28.2337 11.1588 26.8293 8.95886 25.3337C9.11337 25.6598 9.30497 25.9757 9.53554 26.2772C12.1061 29.6377 16.488 29.7422 18.9789 26.8619ZM54.9338 25.4684C53.0268 27.2415 49.1655 28.502 44.6555 26.5029C44.8742 26.7942 45.1242 27.0732 45.4064 27.3364C48.0398 29.7926 52.0967 29.3159 54.4211 26.2772C54.6211 26.0156 54.7915 25.7452 54.9338 25.4684Z" fill="#22110C"/>
<path d="M22.9445 12.8628C23.6042 9.48752 26.865 6.55861 30.721 5.86208C35.8818 4.92986 40.1328 8.42565 41.0144 12.8569C42.1526 7.15955 36.5778 1.73453 30.291 2.87013C25.3199 3.76811 22.0528 8.3645 22.9445 12.8628Z" fill="#2430F0"/>
<path fill-rule="evenodd" clip-rule="evenodd" d="M24.3134 9.82173C25.7541 7.84342 28.1022 6.33601 30.726 5.86208C34.6522 5.15285 38.0519 7.00661 39.8419 9.8854C40.1831 9.54587 40.4951 9.20086 40.7529 8.86284C39.4214 4.92063 35.0633 2.00897 30.2959 2.87013C27.0021 3.4651 24.4565 5.68361 23.373 8.42145C23.6074 8.86822 23.9384 9.34758 24.3134 9.82173Z" fill="#2BE1B7"/>
<g opacity="0.2">
<g style="mix-blend-mode:hard-light">
<path fill-rule="evenodd" clip-rule="evenodd" d="M34.2491 35.9773C33.835 35.0209 32.8027 34.5087 31.362 34.7628C30.5112 34.913 29.9339 35.3656 29.6641 36.023C30.2318 35.5595 31.2364 35.408 31.9859 35.3923C32.7102 35.4075 33.6727 35.5495 34.2491 35.9773ZM27.9417 36.5826C27.24 36.6891 25.9584 37.0266 25.4015 37.8033C25.5872 37.1094 26.0534 36.5934 26.7648 36.4037C27.4769 36.2138 27.803 36.2356 27.9417 36.5826ZM24.1143 38.7376C24.1091 38.6737 24.1062 38.6121 24.1058 38.5534C24.1054 38.4803 23.0712 38.5154 22.7463 38.5994C21.6342 38.8872 20.8853 39.7038 20.6103 40.6771C21.3541 39.6373 22.739 38.7702 24.1143 38.7376ZM16.4243 44.403C16.753 43.2975 17.9778 42.1443 18.9735 42.1443C19.1143 42.1443 19.237 42.1366 19.3436 42.1229C19.3342 42.0631 19.3262 42.0025 19.3193 41.9413C19.3171 41.9208 19.315 41.9013 19.3129 41.8829C19.2953 41.7196 19.2861 41.6355 19.239 41.5977C19.1888 41.5575 19.0956 41.5699 18.9032 41.5953C18.8827 41.5981 18.8611 41.601 18.8384 41.6039C17.3356 41.7991 16.4918 43.0358 16.4243 44.403ZM31.3569 41.8431C30.7793 41.3996 29.9246 41.2243 28.7245 42.217C28.9271 41.7962 29.2804 41.457 29.7822 41.226C30.1768 41.0444 30.5965 41.0388 30.8236 41.2121C31.0046 41.3502 31.1954 41.5803 31.3569 41.8431ZM35.0713 42.0777C34.5531 41.1328 33.5615 40.6393 32.8969 41.4221C32.8 41.5363 32.6933 41.6925 32.5951 41.8585C33.1446 41.4261 33.9497 41.2322 35.0713 42.0777ZM27.4688 42.6383C27.4775 42.3758 27.4487 42.371 27.2813 42.3432C27.1701 42.3248 27.0408 42.3026 26.9941 42.294C26.9474 42.2854 26.7588 42.2998 26.5751 42.3259C25.7001 42.4505 25.1673 43.2114 25.03 44.1836C25.3764 43.0712 26.6822 42.5518 27.4688 42.6383ZM39.9159 44.7829C40.188 44.1053 41.838 44.779 42.3929 45.8642C42.5472 46.1658 42.653 46.4664 42.7104 46.7657C42.2852 45.584 40.9462 45.0424 39.9159 44.7829ZM34.5821 49.1978C34.583 49.1841 34.5835 49.1711 34.5835 49.1589C34.5835 48.974 36.3338 48.9048 36.889 49.0678C37.1521 49.145 37.3454 49.2919 37.4677 49.4841C36.9365 49.0205 35.7808 49.1066 34.5821 49.1978ZM30.5593 47.2823C30.8813 46.8079 31.3663 46.5195 31.9782 46.5195C32.5785 46.5195 33.0567 46.7971 33.3787 47.2556C32.9777 46.9461 32.4283 46.7872 31.9859 46.7461C31.5309 46.7883 30.9629 46.9552 30.5593 47.2823ZM26.4691 49.5163C26.59 49.3083 26.7898 49.1493 27.0673 49.0678C27.6226 48.9048 29.3729 48.974 29.3729 49.1589C29.3729 49.1708 29.3733 49.1834 29.3742 49.1966C28.1541 49.1038 26.9811 49.0187 26.4691 49.5163ZM24.0524 44.7838C22.9989 45.0496 21.6245 45.6103 21.2335 46.8481C21.2966 45.8035 21.8799 44.9258 22.9617 44.6378C23.2453 44.5623 23.7159 44.5402 23.9149 44.593C23.99 44.6129 24.026 44.6566 24.0524 44.7838ZM38.5698 37.8028C38.3304 36.9463 37.6334 36.3819 36.567 36.3385L35.9599 36.3138L35.9494 36.571C36.6289 36.663 37.9907 36.9957 38.5698 37.8028ZM43.3288 40.6321C43.1312 39.8833 42.6728 39.2377 41.9853 38.905C41.3053 38.5759 39.8517 38.3365 39.8505 38.5534C39.8502 38.6121 39.8474 38.6735 39.8421 38.7373C41.2026 38.7634 42.5748 39.6086 43.3288 40.6321ZM47.5519 44.418C47.2299 43.308 45.9985 42.1443 44.9983 42.1443C44.8472 42.1443 44.717 42.1354 44.6051 42.1198C44.6071 42.107 44.6091 42.094 44.611 42.081C44.6441 41.8579 44.6802 41.6479 44.6912 41.6143C44.7246 41.5117 45.4506 41.6368 45.826 41.8098C46.9174 42.313 47.4944 43.3297 47.5519 44.418ZM38.9088 44.0871C38.8342 43.5092 38.6273 43.0139 38.2819 42.7133C37.9788 42.4495 37.2274 42.2164 36.9339 42.2951C36.9028 42.3034 36.7863 42.3252 36.6751 42.3435C36.5074 42.3711 36.4788 42.3758 36.4876 42.64C37.2496 42.5478 38.5165 43.0342 38.9088 44.0871Z" fill="white"/>
</g>
</g>
<g style="mix-blend-mode:hard-light">
<path fill-rule="evenodd" clip-rule="evenodd" d="M57.8865 58.9831C55.6548 58.8174 53.0522 59.5487 51.1716 60.7085C48.5379 62.3325 44.4884 66.6445 43.6388 70.8165C43.4038 71.9701 43.2275 72.3475 43.097 72.2646C44.3945 64.4935 48.9624 59.1063 54.8878 58.4825C56.2241 58.3419 57.2272 58.543 57.8865 58.9831Z" fill="white" fill-opacity="0.4"/>
</g>
<g style="mix-blend-mode:hard-light">
<path fill-rule="evenodd" clip-rule="evenodd" d="M5.95422 59.0363C8.24372 58.786 10.9838 59.5291 12.9416 60.7365C15.5752 62.3605 19.6247 66.6725 20.4743 70.8445C20.6076 71.4986 20.7219 71.9029 20.8197 72.1157C19.9968 67.4167 17.8774 63.2632 15.0503 61.0137C12.7912 59.2161 9.54377 58.1566 7.34942 58.501C6.76946 58.5922 6.30532 58.777 5.95422 59.0363Z" fill="white" fill-opacity="0.4"/>
</g>
<g style="mix-blend-mode:hard-light">
<path fill-rule="evenodd" clip-rule="evenodd" d="M26.3938 75.6655C28.2458 73.6518 30.6186 73.3085 31.8869 73.3085C33.2044 73.3085 35.8161 73.729 37.7017 75.9416C35.9015 72.3106 33.6434 70.5247 31.308 70.9386C29.5151 71.2561 27.8173 72.8997 26.3938 75.6655Z" fill="white" fill-opacity="0.4"/>
</g>
<path opacity="0.2" fill-rule="evenodd" clip-rule="evenodd" d="M56.8977 68.5619C56.0508 68.9231 55.1025 69.2899 54.0784 69.6573C53.9253 69.4204 53.7434 69.225 53.5341 69.0833C53.309 68.931 53.6016 68.7501 55.2846 68.0019C55.7207 67.8076 56.2049 67.5831 56.3607 67.503L56.3666 67.4996C56.5827 67.3882 56.6615 67.3473 56.7023 67.3714C56.7255 67.3848 56.7363 67.4195 56.7533 67.475L56.7538 67.4772C56.8507 67.7953 56.8966 68.1626 56.8977 68.5619ZM7.06018 68.4701C7.91597 68.8531 8.87047 69.2412 9.89697 69.6287C10.0459 69.4047 10.2212 69.2194 10.4216 69.0839C10.6408 68.9355 10.2406 68.6863 8.70051 68.0131C8.34228 67.8563 7.87779 67.6435 7.66829 67.5399C7.63913 67.5254 7.61205 67.5119 7.58679 67.4996C7.35883 67.3865 7.2831 67.3484 7.24776 67.3719C7.23015 67.3831 7.22256 67.4094 7.21112 67.4492C7.20857 67.4576 7.20585 67.4671 7.20274 67.4772C7.11336 67.7706 7.06732 68.1067 7.06018 68.4701Z" fill="#22110C"/>
<path opacity="0.2" fill-rule="evenodd" clip-rule="evenodd" d="M19.3065 82.4354C19.1258 84.3567 19.792 86.5054 20.0996 87.4972C20.1519 87.6658 20.1939 87.8013 20.2195 87.8965C20.4389 88.7102 18.054 89.997 9.30603 86.0546C12.536 88.4856 16.4878 90.2082 20.1693 90.5302C23.2599 90.8001 23.9615 90.7542 23.6659 90.2989C23.1811 89.5535 21.5194 86.5301 20.5485 84.6272C20.2971 84.1344 19.9068 83.4417 19.6814 83.0872C19.5375 82.8615 19.4126 82.6442 19.3065 82.4354Z" fill="#22110C"/>
<path opacity="0.2" fill-rule="evenodd" clip-rule="evenodd" d="M54.704 86.0373C45.9247 90.0004 43.5325 88.7113 43.7523 87.8965C43.7779 87.8013 43.8198 87.6663 43.8722 87.4972C44.1811 86.501 44.8519 84.3371 44.6628 82.4096C44.554 82.6263 44.4248 82.852 44.2751 83.0872C44.0496 83.4417 43.6594 84.1344 43.4079 84.6272C42.437 86.5301 40.7753 89.5535 40.2905 90.2989C40.1826 90.4652 40.103 90.5677 40.1281 90.6276C40.1723 90.7334 40.5407 90.706 41.6503 90.6545C45.28 90.487 46.7899 90.1555 49.7341 88.8798C51.5878 88.0768 53.25 87.117 54.704 86.0373Z" fill="#22110C"/>
<path opacity="0.2" fill-rule="evenodd" clip-rule="evenodd" d="M23.5812 86.5788C25.4951 89.6392 26.2707 90.7407 27.317 91.9184C31.1446 96.2276 34.4161 95.5209 38.4745 89.5082C39.2347 88.3826 39.362 88.1866 40.5347 86.3033C40.3194 86.6734 40.1008 87.0565 39.8799 87.449C38.6607 89.6168 38.5707 89.7725 37.8492 90.9552C34.1851 96.9629 31.2314 97.669 27.7757 93.3632C26.7738 92.115 26.0467 90.953 24.0764 87.449C23.9098 87.1528 23.7446 86.8627 23.5812 86.5788Z" fill="#22110C"/>
<path d="M31.9433 65.5525C31.2353 65.5525 30.3292 70.5365 29.9328 70.5365L29.1115 71.2925L31.9433 70.5365L35.2 71.4885C34.8507 71.171 34.1012 70.5365 33.8974 70.5365C33.6425 70.5365 32.6512 65.5525 31.9433 65.5525Z" fill="black" fill-opacity="0.2"/>
<path d="M27.2425 52.1683C26.846 52.1683 25.515 51.2443 25.515 49.8723C25.7038 49.527 26.0814 48.9875 26.0814 49.5923C26.0814 50.3483 26.931 51.3283 27.1575 51.5523C27.3841 51.7763 27.6389 52.1683 27.2425 52.1683Z" fill="black" fill-opacity="0.2"/>
<path d="M19.6531 49.8723C18.0389 49.8723 15.9434 47.7723 14.8672 46.3443L15.5186 45.7843L16.9911 47.8843L20.3327 48.8643L20.9841 47.8003C21.1445 48.043 21.5221 48.6291 21.7487 49.0323C22.0319 49.5363 22.7681 49.9283 23.3628 50.7683C23.9575 51.6083 21.692 50.5723 21.4088 50.4323C21.1823 50.3203 20.6914 49.975 20.4743 49.8163C20.4743 49.835 20.3101 49.8723 19.6531 49.8723Z" fill="black" fill-opacity="0.2"/>
<path d="M24.7221 47.3243C24.0708 46.5123 24.2973 45.5603 24.1841 44.7483L26.0248 48.0523L25.8832 48.3043L25.8794 48.3024C25.6975 48.2077 25.2396 47.9695 24.7221 47.3243Z" fill="black" fill-opacity="0.2"/>
<path d="M30.5274 51.6643C29.9327 51.5243 29.3947 50.1523 29.3947 49.1163L29.9611 48.8643L30.3292 50.3203C30.4425 50.7684 31.1221 51.8043 30.5274 51.6643Z" fill="black" fill-opacity="0.2"/>
<path d="M36.6726 52.1683C37.069 52.1683 38.4 51.2443 38.4 49.8723C38.2112 49.527 37.8336 48.9875 37.8336 49.5923C37.8336 50.3483 36.9841 51.3283 36.7575 51.5523C36.531 51.7763 36.2761 52.1683 36.6726 52.1683Z" fill="black" fill-opacity="0.2"/>
<path d="M44.2619 49.8723C45.8761 49.8723 47.9717 47.7723 49.0478 46.3443L48.3965 45.7843L46.9239 47.8843L43.5823 48.8643L42.931 47.8003C42.7705 48.043 42.3929 48.6291 42.1664 49.0323C41.8832 49.5363 41.1469 49.9283 40.5522 50.7683C39.9575 51.6083 42.223 50.5723 42.5062 50.4323C42.7327 50.3203 43.2236 49.975 43.4407 49.8163C43.4407 49.835 43.605 49.8723 44.2619 49.8723Z" fill="black" fill-opacity="0.2"/>
<path d="M39.1929 47.3243C39.8442 46.5123 39.6177 45.5603 39.731 44.7483L37.8903 48.0523L38.0319 48.3043L38.0356 48.3024C38.2175 48.2077 38.6754 47.9695 39.1929 47.3243Z" fill="black" fill-opacity="0.2"/>
<path d="M33.3593 51.6923C33.954 51.5523 34.5204 50.1523 34.5204 49.1163L33.954 48.8643L33.5858 50.3203C33.4726 50.7683 32.7646 51.8323 33.3593 51.6923Z" fill="black" fill-opacity="0.2"/>
<path opacity="0.2" d="M25.243 81.6805C25.0448 81.6805 25.6677 81.3725 25.4695 80.8405C25.9415 80.6445 26.6816 80.8461 27.2253 81.3165C27.905 81.9045 27.905 83.3605 27.8766 83.9765C27.8483 84.5925 25.4412 81.6805 25.243 81.6805Z" fill="#22110C"/>
<path opacity="0.2" d="M38.6747 81.699C38.8729 81.699 38.2499 81.391 38.4481 80.859C37.9761 80.663 37.2361 80.8646 36.6924 81.335C36.0127 81.923 36.0126 83.379 36.041 83.995C36.0693 84.611 38.4765 81.699 38.6747 81.699Z" fill="#22110C"/>
<path opacity="0.2" fill-rule="evenodd" clip-rule="evenodd" d="M12.9684 67.471C16.4154 69.51 19.7664 71.4924 19.7664 73.9525C19.7664 74.0314 19.7651 74.1098 19.7625 74.1866C18.6419 71.8665 16.2117 70.079 11.5203 67.6889C9.57359 66.6971 9.5515 66.6837 8.33392 65.7154C5.34748 63.341 4.38155 60.6088 5.67769 59.2676C4.80566 62.6427 8.95217 65.0955 12.9684 67.471Z" fill="#22110C"/>
<path opacity="0.2" fill-rule="evenodd" clip-rule="evenodd" d="M5.73184 59.1707L5.70511 59.2743C5.27288 60.947 6.08259 62.3946 7.50934 63.7241C8.93631 65.0535 10.974 66.2586 12.9829 67.447L12.9844 67.4481C14.7068 68.4667 16.4079 69.473 17.6782 70.5326C18.9482 71.5915 19.7947 72.7093 19.7947 73.9525C19.7947 74.032 19.7934 74.1104 19.7908 74.1871L19.7369 74.1983C18.6208 71.8878 16.1989 70.1036 11.5074 67.7135C10.5345 67.2179 10.0409 66.9659 9.63867 66.7167C9.23592 66.4675 8.9247 66.2211 8.31619 65.7373C6.82029 64.5478 5.82852 63.2677 5.37343 62.1141C4.91847 60.961 4.99858 59.9295 5.65717 59.248L5.73184 59.1707ZM5.42619 62.0939C5.87666 63.2358 6.86107 64.5086 8.35165 65.6936C8.96072 66.178 9.26934 66.4222 9.66874 66.6697C10.0685 66.9172 10.5594 67.1681 11.5333 67.6642C16.1547 70.0185 18.59 71.792 19.737 74.0706C19.7377 74.0314 19.7381 73.9922 19.7381 73.9525C19.7381 72.7356 18.909 71.6318 17.6417 70.5751C16.3752 69.519 14.6779 68.5149 12.9538 67.4951L12.9519 67.494C10.9452 66.3068 8.90239 65.0989 7.47048 63.7644C6.06815 62.4579 5.24554 61.0249 5.62409 59.3678C5.05464 60.0275 4.99367 60.9974 5.42619 62.0939Z" fill="#22110C"/>
<path opacity="0.2" fill-rule="evenodd" clip-rule="evenodd" d="M51.0316 67.471C47.5846 69.51 44.2336 71.4924 44.2336 73.9525C44.2336 73.9872 44.2339 74.0219 44.2344 74.0561C45.3822 71.7993 47.8083 70.0342 52.4124 67.6889C54.3592 66.6971 54.3813 66.6837 55.5988 65.7154C58.5844 63.3416 59.4583 60.7824 58.3589 59.421C59.068 62.7178 54.9866 65.1319 51.0316 67.471Z" fill="#22110C"/>
<path opacity="0.2" fill-rule="evenodd" clip-rule="evenodd" d="M58.5368 62.1992C58.0803 63.3114 57.1118 64.5484 55.6166 65.7373C55.0081 66.2211 54.6968 66.4675 54.2941 66.7173C53.8918 66.9659 53.3983 67.2179 52.4253 67.7141C47.821 70.0594 45.403 71.8211 44.2597 74.069L44.206 74.0566C44.2055 74.0219 44.2053 73.9872 44.2053 73.9525C44.2053 72.7093 45.0518 71.5915 46.3217 70.5326C47.5922 69.473 49.2932 68.4667 51.0156 67.4481L51.0171 67.447C52.9953 66.2771 55.0015 65.0899 56.425 63.7846C57.8486 62.4792 58.6823 61.0607 58.3312 59.4272L58.381 59.4037C58.9395 60.0947 58.9933 61.087 58.5368 62.1992ZM58.4105 59.5358C58.8823 60.2006 58.9151 61.129 58.4847 62.1779C58.0327 63.2789 57.0716 64.5086 55.5811 65.6936C54.972 66.178 54.6634 66.4222 54.2641 66.6697C53.8642 66.9172 53.3733 67.1681 52.3994 67.6642C47.8647 69.9742 45.4352 71.7242 44.2619 73.9418C44.2668 72.7289 45.0947 71.629 46.3583 70.5751C47.6248 69.519 49.3221 68.5149 51.0462 67.4951L51.048 67.494C53.0242 66.3253 55.0353 65.1358 56.4635 63.8254C57.8577 62.547 58.7027 61.1475 58.4105 59.5358Z" fill="#22110C"/>
<g style="mix-blend-mode:multiply">
<path fill-rule="evenodd" clip-rule="evenodd" d="M4.41317 66.5661C4.37904 69.3409 4.48569 81.3165 18.7187 81.3165C18.7769 81.3165 18.8348 81.3165 18.8922 81.3159C18.7551 80.579 18.9367 79.9652 19.435 79.4388C19.9398 78.9051 19.6227 76.3812 18.8593 74.8546C18.6572 74.4503 18.5708 74.265 18.4789 74.2622C18.3993 74.2599 18.3155 74.3954 18.1486 74.6452C14.0166 80.8293 5.58627 76.0967 5.75714 67.6894C5.78324 66.4065 5.78324 66.4065 5.42559 66.1226C5.16502 65.9165 5.08613 65.8448 5.02788 65.8582C4.99281 65.8666 4.96522 65.9058 4.90997 65.9652C4.73613 66.1528 4.57047 66.3533 4.41317 66.5661Z" fill="black" fill-opacity="0.2"/>
</g>
<path opacity="0.2" fill-rule="evenodd" clip-rule="evenodd" d="M59.6116 66.8041C59.6332 69.883 59.2453 81.3725 45.3041 81.3725C45.2116 81.3725 45.1202 81.3719 45.0297 81.3714C45.1867 80.6098 45.0085 79.9787 44.4977 79.4388C43.993 78.9051 44.3101 76.3806 45.0736 74.8546C45.2757 74.4503 45.3621 74.265 45.4539 74.2622C45.5336 74.2599 45.6174 74.3954 45.7843 74.6452C49.9163 80.8287 58.3464 76.0967 58.1759 67.6894C58.1572 66.7772 58.1516 66.5134 58.2745 66.337C58.3244 66.2648 58.3951 66.2077 58.4953 66.1265C58.6822 65.9747 58.783 65.8795 58.8793 65.8834C59.0204 65.8896 59.1518 66.1097 59.5312 66.682C59.5585 66.7229 59.585 66.7638 59.6116 66.8041Z" fill="#22110C"/>
<path opacity="0.2" fill-rule="evenodd" clip-rule="evenodd" d="M29.5019 36.5955C29.4165 37.2326 29.5533 37.9949 29.9326 38.8251C30.2165 39.4468 30.2165 39.4468 30.6522 39.4513C31.0436 39.4553 31.1326 39.4783 31.5271 39.6776C31.9662 39.8994 31.9662 39.8994 32.4054 39.6776C32.7999 39.4783 32.8889 39.4553 33.2803 39.4513C33.716 39.4468 33.716 39.4468 33.9997 38.8251C34.3787 37.9944 34.5015 37.2283 34.4075 36.5874C34.2194 37.6242 33.7861 38.9793 32.8143 39.0924C32.3936 39.1799 32.1009 39.1854 31.9998 39.1769L31.9931 39.1763H31.9148H31.9081C31.807 39.1848 31.5143 39.1799 31.0936 39.0924C30.1244 38.9796 29.6908 37.6312 29.5019 36.5955ZM35.1802 39.7094C35.666 38.9606 35.8689 38.2451 35.915 37.1187L35.9393 36.5271C36.1255 37.5415 36.0758 38.962 35.224 40.168C35.0032 39.9822 35.0138 39.966 35.1802 39.7094ZM38.6409 38.7554C38.6016 39.2731 38.4385 39.8456 38.1402 40.4435C38.1082 40.5076 38.0794 40.566 38.0532 40.619C37.8931 40.9435 37.8303 41.0707 37.7338 41.1047C37.6716 41.1267 37.5953 41.1098 37.4697 41.0821C37.438 41.075 37.403 41.0673 37.3643 41.0593C37.0618 40.997 36.8949 40.9904 36.6875 41.0327C36.6331 41.0437 36.5837 41.0541 36.5385 41.0635C36.5288 41.0655 36.5194 41.0674 36.5101 41.0694C36.5471 40.9584 36.8359 40.8679 37.1302 40.7756C37.4071 40.6889 37.6888 40.6006 37.7701 40.4923C38.1736 39.9546 38.4817 39.4124 38.6409 38.7554ZM39.8386 38.5535C39.8344 39.3252 39.3873 40.5895 38.8846 41.251C38.6698 41.5336 38.6553 41.5528 38.9282 41.8437C39.5068 41.0167 40.1094 39.3883 39.8815 38.5011C39.8538 38.5141 39.8387 38.5314 39.8386 38.5535ZM43.4125 41.174C43.3384 41.6477 43.0738 42.6448 42.6692 43.0684C42.1878 43.5724 41.9896 43.6284 41.5931 43.4604C41.3573 43.3605 41.0131 43.4091 40.7627 43.4751C41.2174 43.4921 41.6283 43.6125 42.006 43.8383L42.018 43.8454L42.0394 43.8583C42.1769 43.9406 42.253 43.9863 42.3225 43.9779C42.409 43.9675 42.4851 43.8735 42.6558 43.6628L42.6728 43.6419L42.6894 43.6215C43.2628 42.9149 43.4909 42.0137 43.4125 41.174ZM47.5219 44.205C47.4218 44.9868 47.1367 46.3769 46.0391 47.2963C45.0063 48.1616 44.2267 48.2203 44.0568 46.9883C44.0404 46.8694 44.0173 46.8063 43.99 46.7878C44.0411 47.2225 44.0198 47.6609 43.9167 48.0595C43.8544 48.3003 43.8034 48.5044 43.8034 48.5129C43.8034 48.6514 45.3436 48.0124 45.8833 47.65C47.1229 46.8177 47.6664 45.4447 47.5219 44.205ZM44.5943 42.1123C44.4602 42.9799 44.1441 43.5973 43.4886 44.2757C43.0671 44.712 43.0671 44.712 43.2445 44.9298C43.2635 44.9531 43.2822 44.9768 43.3006 45.0009C43.865 44.4338 44.4939 43.3507 44.5943 42.1123ZM38.9263 44.7383C38.8215 45.3308 38.6489 45.9792 38.3931 46.2883C37.8834 46.9044 37.2037 47.0723 36.6657 46.9883C36.3952 46.9462 35.9466 47.0638 35.5546 47.2011C36.35 47.1677 36.954 47.323 37.4785 47.6808C37.6069 47.7683 37.7107 47.8061 37.7333 47.7735C37.7543 47.7432 37.8781 47.581 38.0084 47.413C38.5844 46.6698 38.897 45.658 38.9263 44.7383ZM34.3547 46.9271C35.17 46.502 36.4769 45.3646 36.4609 43.5548C36.3028 44.8607 35.5252 46.018 34.3027 46.7165C34.288 46.7249 34.3143 46.8171 34.3547 46.9271ZM35.3879 43.6766C35.1362 44.4104 34.5764 45.5646 33.6922 45.2523C32.8993 44.9723 32.4179 44.9163 32.0214 44.9163C31.996 44.9163 31.9737 44.9187 31.954 44.9232C31.9343 44.9187 31.9119 44.9163 31.8865 44.9163C31.49 44.9163 31.0086 44.9723 30.2157 45.2523C29.4178 45.5341 28.8841 44.6215 28.6025 43.9015C28.7337 44.4432 29.0033 45.0315 29.4131 45.6436C29.6698 46.027 29.7647 46.1686 29.8395 46.159C29.8834 46.1533 29.9203 46.0957 29.979 46.0043C30.8227 44.6888 33.1098 44.6888 33.9535 46.0043C34.183 46.3621 35.107 44.998 35.3417 43.9548C35.3626 43.862 35.3778 43.7692 35.3879 43.6766ZM24.9828 44.7447C24.9926 45.6255 25.2955 46.602 25.9241 47.413C26.0544 47.581 26.1782 47.7432 26.1992 47.7735C26.2218 47.8061 26.3256 47.7683 26.454 47.6808C26.9724 47.3272 27.5685 47.1713 28.3503 47.2C27.9589 47.0632 27.512 46.9463 27.2423 46.9883C26.7042 47.0723 26.0246 46.9044 25.5148 46.2883C25.26 45.9803 25.0877 45.3355 24.9828 44.7447ZM27.4534 43.3684C27.341 45.3023 28.7328 46.5072 29.5738 46.9378C29.6165 46.8231 29.645 46.7252 29.6298 46.7165C28.3494 45.9849 27.557 44.7501 27.4534 43.3684ZM24.9902 41.8585C25.2777 41.5534 25.2663 41.5384 25.0479 41.251C24.5452 40.5895 24.0981 39.3252 24.0939 38.5535C24.0938 38.5417 24.0668 38.5327 24.0202 38.5263C23.8086 39.4242 24.4139 41.0441 24.9902 41.8585ZM20.4987 41.1942C20.4123 42.0076 20.6416 42.8803 21.2431 43.6215C21.2547 43.6357 21.2659 43.6495 21.2767 43.6628C21.4474 43.8735 21.5235 43.9675 21.61 43.9779C21.6795 43.9863 21.7556 43.9406 21.8931 43.8583C21.9038 43.8519 21.915 43.8451 21.9265 43.8383C22.2983 43.6161 22.7023 43.4959 23.1485 43.4759C22.8979 43.4095 22.5517 43.36 22.3149 43.4604C21.9184 43.6284 21.7202 43.5724 21.2388 43.0684C20.8398 42.6507 20.577 41.6754 20.4987 41.1942ZM25.3287 38.9804C25.3891 39.445 25.5416 39.9411 25.7923 40.4435C25.8243 40.5076 25.8531 40.5659 25.8793 40.619C26.0394 40.9434 26.1022 41.0707 26.1987 41.1047C26.2609 41.1267 26.3372 41.1098 26.4628 41.0821C26.4945 41.075 26.5295 41.0673 26.5682 41.0593C26.8707 40.997 27.0376 40.9904 27.245 41.0327C27.2993 41.0437 27.3488 41.0541 27.394 41.0635C27.3946 41.0636 27.3952 41.0637 27.3958 41.0639C27.3512 40.9553 27.0671 40.8663 26.7777 40.7756C26.5009 40.6889 26.2192 40.6006 26.1379 40.4923C25.7814 40.0172 25.4993 39.5386 25.3287 38.9804ZM27.9495 36.6382C27.9891 36.7634 28.0095 36.9244 28.0177 37.1255C28.0635 38.2446 28.2676 38.9622 28.7523 39.7094C28.9225 39.9718 28.9296 39.9828 28.6931 40.1809C27.8633 39.0155 27.7865 37.6472 27.9495 36.6382ZM19.9431 46.783C19.9049 46.7738 19.8723 46.8344 19.8511 46.9883C19.6812 48.2203 18.9016 48.1616 17.8688 47.2963C16.8557 46.4476 16.5348 45.1978 16.4127 44.3957C16.3519 45.5782 16.8722 46.8597 18.0492 47.65C18.5889 48.0124 20.1291 48.6514 20.1291 48.5129C20.1291 48.5044 20.0781 48.3003 20.0158 48.0595C19.9123 47.6595 19.8913 47.2193 19.9431 46.783ZM20.6213 45.0148C20.6429 44.9862 20.6649 44.958 20.6873 44.9305C20.8643 44.7134 20.8643 44.7134 20.4201 44.2495C19.7619 43.562 19.4055 42.8228 19.3074 41.9414C19.3052 41.9222 19.3033 41.904 19.3014 41.8866C19.3382 43.2285 20.0194 44.4179 20.6213 45.0148Z" fill="#22110C"/>
<path d="M52.899 71.4885C52.899 70.8081 53.4696 70.2565 54.1733 70.2565C54.8771 70.2565 55.4477 70.8081 55.4477 71.4885C55.4477 72.1689 54.8771 72.7205 54.1733 72.7205C53.4696 72.7205 52.899 72.1689 52.899 71.4885Z" fill="#F1F1F1"/>
<path d="M8.43896 71.4885C8.43896 70.8081 9.00954 70.2565 9.71331 70.2565C10.417 70.2565 10.9876 70.8081 10.9876 71.4885C10.9876 72.1689 10.417 72.7205 9.71331 72.7205C9.00954 72.7205 8.43896 72.1689 8.43896 71.4885Z" fill="#F1F1F1"/>
<path d="M11.8373 72.6085C11.8373 72.4226 11.6725 72.2725 11.4691 72.2725C11.2658 72.2725 11.101 72.4226 11.101 72.6085C11.101 72.7938 11.2658 72.9445 11.4691 72.9445C11.6725 72.9445 11.8373 72.7938 11.8373 72.6085Z" fill="#F1F1F1"/>
</g>
<path d="M366.161 72.4931L367.564 79.2722C366.59 79.9345 365.187 80.5384 363.356 81.0838C361.564 81.5903 359.772 81.8435 357.979 81.8435C354.512 81.8435 351.629 80.7526 349.33 78.5709C347.071 76.3891 345.941 73.1165 345.941 68.753V56.8897H340.214V49.0003H345.941V42.0459L354.298 40.2343V49.0003H366.219V56.8897H354.298V68.2855C354.298 72.1425 356.012 74.071 359.44 74.071C360.96 74.071 363.2 73.545 366.161 72.4931Z" fill="#22110C"/>
<path d="M322.517 81.8434C318.193 81.8434 314.589 80.85 311.706 78.863C308.823 76.8371 307.089 74.0709 306.505 70.5645H314.978C315.68 73.4476 318.271 74.8891 322.751 74.8891C326.374 74.8891 328.186 74.0125 328.186 72.2593C328.186 72.0255 328.147 71.8113 328.069 71.6165C328.03 71.4217 327.933 71.2463 327.777 71.0905C327.66 70.9347 327.524 70.7983 327.368 70.6814C327.212 70.5256 326.978 70.3892 326.666 70.2723C326.394 70.1555 326.14 70.0581 325.907 69.9801C325.673 69.9022 325.322 69.8048 324.855 69.6879C324.426 69.5711 324.037 69.4737 323.686 69.3957C323.374 69.3178 322.926 69.2204 322.342 69.1035C321.757 68.9867 321.251 68.8698 320.822 68.7529C316.03 67.6231 312.68 66.3958 310.771 65.0712C308.901 63.7076 307.966 61.6817 307.966 58.9934C307.966 55.6429 309.232 53.0326 311.764 51.1625C314.336 49.2535 317.764 48.2989 322.05 48.2989C326.335 48.2989 329.666 49.234 332.043 51.1041C334.419 52.9352 335.9 55.4286 336.484 58.5844H328.011C327.309 56.4026 325.225 55.3117 321.757 55.3117C318.173 55.3117 316.381 56.2078 316.381 58C316.381 58.7012 316.751 59.2077 317.491 59.5194C318.232 59.8311 319.907 60.2791 322.517 60.8635C325.128 61.4479 327.192 61.9934 328.712 62.4998C330.231 62.9674 331.673 63.5907 333.036 64.3699C334.4 65.1491 335.374 66.0841 335.958 67.175C336.543 68.2659 336.835 69.5905 336.835 71.1489C336.835 74.6164 335.491 77.2657 332.803 79.0968C330.114 80.9279 326.686 81.8434 322.517 81.8434Z" fill="#22110C"/>
<path d="M285.565 48.2989C290.825 48.2989 294.974 50.1106 298.013 53.7338C301.091 57.3571 302.415 61.857 301.987 67.2335H277.325C277.598 69.7269 278.494 71.6359 280.013 72.9606C281.533 74.2852 283.422 74.9475 285.682 74.9475C287.318 74.9475 288.779 74.5969 290.065 73.8956C291.351 73.1554 292.266 72.1619 292.812 70.9152H301.461C300.331 74.5385 298.344 77.2657 295.5 79.0968C292.656 80.9279 289.403 81.8434 285.74 81.8434C280.754 81.8434 276.682 80.2656 273.527 77.1098C270.371 73.9541 268.793 69.9607 268.793 65.1296C268.793 60.2986 270.371 56.2857 273.527 53.091C276.682 49.8963 280.695 48.2989 285.565 48.2989ZM285.507 55.1948C283.52 55.1948 281.864 55.7403 280.539 56.8312C279.215 57.8831 278.28 59.3051 277.734 61.0973H293.104C292.636 59.3051 291.74 57.8831 290.416 56.8312C289.091 55.7403 287.455 55.1948 285.507 55.1948Z" fill="#22110C"/>
<path d="M260.093 42.7472C256.314 42.7472 254.425 44.7926 254.425 48.8834V49.0003H265.119V56.8897H254.425V81.1422H246.068V56.8897H240.341V49.0003H246.068V48.4743C246.068 44.1887 247.334 40.955 249.866 38.7733C252.399 36.5526 255.496 35.4422 259.158 35.4422C262.08 35.4422 264.613 35.9292 266.755 36.9032L265.236 43.6822L264.126 43.39C262.645 42.9615 261.301 42.7472 260.093 42.7472Z" fill="#22110C"/>
<path d="M231.528 34.1565C233.048 34.1565 234.294 34.624 235.268 35.5591C236.242 36.4551 236.729 37.6239 236.729 39.0654C236.729 40.507 236.242 41.6952 235.268 42.6303C234.294 43.5653 233.048 44.0328 231.528 44.0328C230.048 44.0328 228.801 43.5653 227.788 42.6303C226.814 41.6952 226.327 40.507 226.327 39.0654C226.327 37.6629 226.814 36.4941 227.788 35.5591C228.801 34.624 230.048 34.1565 231.528 34.1565ZM227.32 81.1422V49.0002H235.677V81.1422H227.32Z" fill="#22110C"/>
<path d="M209.315 48.2989C212.938 48.2989 215.782 49.4288 217.847 51.6885C219.912 53.9481 220.944 57.0454 220.944 60.9804V81.1422H212.587V62.792C212.587 60.6103 212.12 58.974 211.185 57.8831C210.25 56.7922 208.711 56.2468 206.568 56.2468C201.737 56.2468 199.321 58.9155 199.321 64.253V81.1422H190.964V49.0002H199.321V53.3832C201.737 49.9937 205.068 48.2989 209.315 48.2989Z" fill="#22110C"/>
<path d="M175.948 49.0002H184.305L184.247 81.1422H175.89V76.8176C173.435 80.1682 170.085 81.8434 165.838 81.8434C161.591 81.8434 158.085 80.285 155.319 77.1682C152.553 74.0125 151.17 69.9801 151.17 65.0712C151.17 60.1622 152.553 56.1494 155.319 53.0326C158.124 49.8768 161.611 48.2989 165.78 48.2989C170.065 48.2989 173.455 50.0327 175.948 53.5001V49.0002ZM167.708 73.8956C170.085 73.8956 172.052 73.0775 173.611 71.4411C175.169 69.8048 175.948 67.6815 175.948 65.0712C175.948 62.4609 175.169 60.3376 173.611 58.7012C172.052 57.0649 170.085 56.2468 167.708 56.2468C165.332 56.2468 163.384 57.0649 161.864 58.7012C160.345 60.3376 159.585 62.4609 159.585 65.0712C159.585 67.6815 160.345 69.8048 161.864 71.4411C163.423 73.0775 165.371 73.8956 167.708 73.8956Z" fill="#22110C"/>
<path d="M134.453 48.2989C137.882 48.2989 140.59 49.4093 142.577 51.63C144.564 53.8507 145.557 56.9091 145.557 60.8051V81.1422H137.2V62.6167C137.2 60.5129 136.752 58.935 135.856 57.8831C134.999 56.7922 133.596 56.2468 131.648 56.2468C129.467 56.2468 127.811 56.948 126.681 58.3506C125.551 59.7142 124.986 61.6817 124.986 64.253V81.1422H116.629V62.6167C116.629 60.5129 116.181 58.935 115.285 57.8831C114.428 56.7922 113.025 56.2468 111.077 56.2468C108.896 56.2468 107.22 56.948 106.052 58.3506C104.922 59.7142 104.357 61.6817 104.357 64.253L104.415 81.1422H96V49.0002H104.415V53.2663C106.753 49.9547 109.928 48.2989 113.941 48.2989C118.616 48.2989 121.869 50.3249 123.701 54.3767C126.194 50.3249 129.778 48.2989 134.453 48.2989Z" fill="#22110C"/>
<rect x="400" y="38" width="153" height="54.5" rx="10" fill="#22110C"/>
<path d="M423.627 75.078H426.917C429.831 75.078 432.072 74.1693 433.638 72.352C435.236 70.5347 436.035 67.9653 436.035 64.644C436.035 61.824 435.236 59.568 433.638 57.876C432.04 56.1527 429.784 55.291 426.87 55.291H423.627V75.078ZM416.201 49.322H427.105C431.868 49.322 435.769 50.7947 438.808 53.74C441.848 56.654 443.367 60.2887 443.367 64.644C443.367 69.72 441.863 73.715 438.855 76.629C435.879 79.543 431.931 81 427.011 81H416.201V49.322ZM449.459 65.067C449.459 60.2103 450.854 56.2937 453.642 53.317C456.462 50.309 460.207 48.805 464.875 48.805C469.575 48.805 473.32 50.2933 476.108 53.27C478.897 56.2467 480.291 60.179 480.291 65.067C480.291 69.9237 478.881 73.856 476.061 76.864C473.273 79.8407 469.544 81.329 464.875 81.329C460.175 81.329 456.431 79.8407 453.642 76.864C450.854 73.8873 449.459 69.955 449.459 65.067ZM459.282 58.017C457.904 59.7403 457.214 62.0903 457.214 65.067C457.214 68.0437 457.904 70.4093 459.282 72.164C460.661 73.8873 462.525 74.749 464.875 74.749C467.225 74.749 469.09 73.8873 470.468 72.164C471.847 70.4093 472.536 68.0437 472.536 65.067C472.536 62.0903 471.847 59.7403 470.468 58.017C469.09 56.2623 467.225 55.385 464.875 55.385C462.525 55.385 460.661 56.2623 459.282 58.017ZM510.998 50.685V57.641C508.648 56.1997 506.031 55.479 503.149 55.479C500.611 55.479 498.48 56.372 496.757 58.158C495.033 59.9127 494.172 62.2783 494.172 65.255C494.172 68.169 495.033 70.4877 496.757 72.211C498.48 73.903 500.705 74.749 503.431 74.749C506.376 74.749 508.898 73.997 510.998 72.493V79.59C509.086 80.7807 506.329 81.376 502.726 81.376C498.088 81.376 494.203 79.8877 491.07 76.911C487.968 73.903 486.417 70.0177 486.417 65.255C486.417 60.4297 487.921 56.4973 490.929 53.458C493.968 50.4187 497.916 48.899 502.773 48.899C506.345 48.899 509.086 49.4943 510.998 50.685ZM537.049 50.732V57.5C534.511 56.0273 531.879 55.291 529.153 55.291C527.931 55.291 526.991 55.5417 526.333 56.043C525.706 56.5443 525.393 57.1867 525.393 57.97C525.393 58.7533 525.785 59.4583 526.568 60.085C527.351 60.6803 528.526 61.3227 530.093 62.012C531.064 62.4507 531.863 62.8423 532.49 63.187C533.148 63.5003 533.884 63.9547 534.699 64.55C535.545 65.114 536.203 65.725 536.673 66.383C537.174 67.0097 537.597 67.793 537.942 68.733C538.287 69.673 538.459 70.6913 538.459 71.788C538.459 74.6393 537.409 76.958 535.31 78.744C533.211 80.4987 530.422 81.376 526.944 81.376C523.215 81.376 520.176 80.718 517.826 79.402V72.117C520.677 74.185 523.717 75.219 526.944 75.219C528.041 75.219 528.949 74.937 529.67 74.373C530.391 73.7777 530.751 73.01 530.751 72.07C530.751 71.7567 530.704 71.459 530.61 71.177C530.516 70.895 530.344 70.6287 530.093 70.378C529.842 70.1273 529.592 69.9237 529.341 69.767C529.122 69.579 528.777 69.3753 528.307 69.156C527.868 68.9053 527.492 68.7017 527.179 68.545C526.866 68.3883 526.396 68.169 525.769 67.887C525.174 67.605 524.688 67.3857 524.312 67.229C522.275 66.289 520.63 65.1297 519.377 63.751C518.155 62.3723 517.544 60.5393 517.544 58.252C517.544 55.526 518.547 53.3327 520.552 51.672C522.557 49.98 525.33 49.134 528.871 49.134C532.036 49.134 534.762 49.6667 537.049 50.732Z" fill="#F2F2F2"/>
</svg>
