<svg width="68" height="69" viewBox="0 0 68 69" fill="none" xmlns="http://www.w3.org/2000/svg">
<g clip-path="url(#clip0_4073_11974)">
<path d="M58.6864 9.84142C52.3721 0.804036 39.9014 -1.87468 30.8845 3.87029L15.0485 13.9633C10.7229 16.6846 7.74344 21.102 6.84081 26.1321C6.0854 30.3225 6.74936 34.6452 8.72756 38.4157C7.37204 40.4719 6.44752 42.7817 6.00987 45.2053C5.09852 50.332 6.29066 55.6097 9.31716 59.847C15.6328 68.8852 28.1036 71.5628 37.1191 65.8181L52.955 55.7251C57.281 53.0041 60.2605 48.5866 61.1627 43.5563C61.918 39.3659 61.2546 35.0434 59.2774 31.2724C60.6325 29.2162 61.5567 26.9066 61.9939 24.4831C62.9059 19.3564 61.7137 14.0784 58.6866 9.84142" fill="#FF3E00"/>
<path d="M29.3359 60.7066C24.2299 62.0342 18.8379 60.0356 15.8308 55.7007C14.0099 53.1519 13.2925 49.977 13.8408 46.893C13.9328 46.3917 14.0592 45.8975 14.2194 45.4137L14.5177 44.5041L15.3293 45.1002C17.2035 46.4773 19.2991 47.5243 21.5258 48.1962L22.1145 48.3748L22.0603 48.9624C21.9883 49.7983 22.2147 50.6326 22.6992 51.3176C23.6041 52.6234 25.2276 53.2259 26.7653 52.8268C27.1096 52.7348 27.4377 52.5906 27.7383 52.3992L43.5793 42.3044C44.3631 41.8109 44.9032 41.0106 45.0676 40.0992C45.2318 39.1697 45.0157 38.2132 44.4679 37.4445C43.5624 36.1385 41.9386 35.5356 40.4002 35.9345C40.0564 36.0265 39.7287 36.1706 39.4285 36.3618L33.3837 40.2152C32.3897 40.8472 31.3049 41.3235 30.167 41.6277C25.0611 42.9553 19.6691 40.9566 16.6621 36.6218C14.8411 34.0731 14.1238 30.8982 14.6722 27.8141C15.215 24.7885 17.0074 22.1315 19.6097 20.4951L35.4493 10.3995C36.4437 9.76645 37.5292 9.28949 38.6681 8.98521C43.774 7.65768 49.1659 9.65632 52.1729 13.9911C53.9939 16.5399 54.7112 19.7148 54.1629 22.7988C54.0706 23.2999 53.9441 23.7942 53.7844 24.2781L53.486 25.1877L52.6749 24.5925C50.8008 23.2146 48.705 22.1671 46.478 21.4952L45.8892 21.3165L45.9435 20.7289C46.0148 19.8931 45.7885 19.0589 45.3046 18.3737C44.3996 17.068 42.7762 16.4654 41.2384 16.8645C40.8942 16.9566 40.566 17.1008 40.2654 17.2922L24.4244 27.3874C23.6408 27.8805 23.101 28.6807 22.9373 29.5919C22.772 30.5214 22.9878 31.4783 23.5358 32.247C24.4413 33.553 26.0652 34.1558 27.6036 33.757C27.9477 33.6648 28.2758 33.5206 28.5765 33.3294L34.6205 29.4775C35.6141 28.8446 36.6988 28.3679 37.8368 28.0637C42.9428 26.7362 48.3347 28.7349 51.3417 33.0697C53.1627 35.6184 53.88 38.7933 53.3317 41.8773C52.7885 44.9032 50.9961 47.5604 48.3941 49.1975L32.5544 59.2923C31.56 59.9253 30.4745 60.4023 29.3356 60.7066" fill="white"/>
</g>
<defs>
<clipPath id="clip0_4073_11974">
<rect width="68" height="68" fill="white" transform="translate(0 0.844238)"/>
</clipPath>
</defs>
</svg>
