<svg width="68" height="69" viewBox="0 0 68 69" fill="none" xmlns="http://www.w3.org/2000/svg">
<path d="M31.7732 0.862537C31.627 0.87583 31.1617 0.922353 30.7429 0.955583C21.0847 1.82623 12.0379 7.0368 6.30811 15.0454C3.1175 19.4983 1.07683 24.5494 0.305767 29.8995C0.0332356 31.7671 0 32.3187 0 34.8509C0 37.3831 0.0332356 37.9347 0.305767 39.8023C2.15367 52.5695 11.2403 63.2964 23.564 67.2708C25.7709 67.9819 28.0974 68.4671 30.7429 68.7595C31.7732 68.8725 36.2268 68.8725 37.2571 68.7595C41.8237 68.2544 45.6923 67.1245 49.5077 65.1772C50.0927 64.8782 50.2057 64.7984 50.1259 64.7319C50.0727 64.6921 47.5801 61.3491 44.5889 57.3082L39.1515 49.9642L32.3382 39.882C28.5892 34.3391 25.505 29.8065 25.4784 29.8065C25.4518 29.7998 25.4252 34.2793 25.4119 39.7491C25.392 49.3262 25.3853 49.7117 25.2657 49.9376C25.0929 50.2633 24.9599 50.3962 24.6807 50.5424C24.468 50.6488 24.2819 50.6687 23.2782 50.6687H22.1282L21.8225 50.476C21.6231 50.3497 21.4768 50.1835 21.3771 49.9908L21.2375 49.6917L21.2508 36.3662L21.2708 23.0341L21.4768 22.7749C21.5832 22.6353 21.8092 22.4558 21.9687 22.3694C22.2413 22.2365 22.3476 22.2232 23.4976 22.2232C24.8536 22.2232 25.0796 22.2764 25.4319 22.6619C25.5316 22.7682 29.2207 28.3244 33.6344 35.017C38.0481 41.7097 44.0837 50.8482 47.0483 55.3343L52.4325 63.4891L52.705 63.3097C55.1179 61.7412 57.6704 59.5081 59.6911 57.1819C63.9918 52.2438 66.7636 46.2224 67.6942 39.8023C67.9668 37.9347 68 37.3831 68 34.8509C68 32.3187 67.9668 31.7671 67.6942 29.8995C65.8463 17.1323 56.7597 6.40542 44.436 2.43103C42.2624 1.72654 39.9492 1.24137 37.3568 0.948937C36.7187 0.882476 32.3249 0.809368 31.7732 0.862537ZM45.6923 21.4257C46.0113 21.5852 46.2706 21.8909 46.3636 22.2099C46.4168 22.3827 46.4301 26.078 46.4168 34.4056L46.3969 46.3554L44.2897 43.1253L42.176 39.8953V31.2088C42.176 25.5928 42.2025 22.4359 42.2424 22.283C42.3488 21.9109 42.5814 21.6184 42.9005 21.4456C43.173 21.3061 43.2727 21.2928 44.3163 21.2928C45.3001 21.2928 45.4729 21.3061 45.6923 21.4257Z" fill="black"/>
</svg>
