<svg width="68" height="69" viewBox="0 0 68 69" fill="none" xmlns="http://www.w3.org/2000/svg">
<g clip-path="url(#clip0_4073_12001)">
<path d="M15.1141 0.844238C15.5125 0.844238 52.1156 0.844238 52.7797 0.844238C54.6125 0.844238 56.3922 1.13643 58.1188 1.74736C60.6156 2.65049 62.8734 4.24424 64.5734 6.31611C66.3 8.38799 67.4422 10.938 67.8406 13.5942C68 14.5771 68.0266 15.5599 68.0266 16.5427C68.0266 17.4458 68.0266 49.2677 68.0266 50.702C68.0266 51.552 68.0266 52.4286 68.0266 53.2786C68.0266 54.4474 67.9734 55.6427 67.7344 56.7849C67.2031 59.4146 65.9547 61.8849 64.1484 63.8771C62.3688 65.8692 60.0313 67.3567 57.5078 68.1536C55.9672 68.6317 54.3734 68.8442 52.7531 68.8442C52.0359 68.8442 15.0078 68.8442 14.45 68.8177C11.7406 68.6849 9.05781 67.8083 6.8 66.2942C4.59531 64.8067 2.78906 62.7349 1.62031 60.3442C0.61094 58.2989 0.106252 56.0146 0.106252 53.7302C0.106252 53.1989 0.106252 16.4896 0.106252 15.9583C0.0531271 13.7005 0.531252 11.4692 1.51406 9.45049C2.65625 7.05986 4.43594 4.96143 6.64063 3.47393C8.89844 1.9333 11.5547 1.03018 14.2641 0.897363C14.5297 0.844238 14.8219 0.844238 15.1141 0.844238Z" fill="url(#paint0_linear_4073_12001)"/>
<path d="M57.375 56.4661C57.1359 56.0942 56.8703 55.7224 56.5781 55.3771C55.9141 54.5802 55.1437 53.8896 54.2937 53.3052C53.2312 52.588 51.9828 52.1364 50.7078 52.0833C49.8047 52.0302 48.9016 52.1896 48.0516 52.5083C47.2016 52.8005 46.3781 53.2255 45.5813 53.6505C44.6516 54.1286 43.7219 54.6067 42.7391 55.0052C41.5703 55.4833 40.3484 55.8552 39.1 56.1208C37.5328 56.413 35.9391 56.5192 34.3719 56.4927C31.5297 56.4396 28.6875 56.0145 25.9781 55.2177C23.5875 54.5005 21.3031 53.5177 19.1516 52.2692C17.2656 51.1802 15.5125 49.9317 13.8656 48.5239C12.5109 47.3552 11.2625 46.1067 10.0938 44.7786C9.29688 43.8489 8.52656 42.8661 7.80937 41.8567C7.51719 41.4583 7.25156 41.0333 7.0125 40.6083L0 33.038V15.9052C0 7.59111 6.72031 0.844238 15.0344 0.844238H28.4484L38.3828 10.938C60.8016 26.1849 53.55 42.9989 53.55 42.9989C53.55 42.9989 59.925 50.1708 57.375 56.4661Z" fill="url(#paint1_linear_4073_12001)"/>
<path d="M38.4359 10.938C60.8547 26.1849 53.6031 42.9989 53.6031 42.9989C53.6031 42.9989 59.9781 50.1974 57.4016 56.4927C57.4016 56.4927 54.7719 52.0833 50.3625 52.0833C46.1125 52.0833 43.6156 56.4927 35.0625 56.4927C16.0172 56.4927 7.01251 40.5817 7.01251 40.5817C24.1719 51.8708 35.886 43.8755 35.886 43.8755C28.1563 39.3864 11.7141 17.9239 11.7141 17.9239C26.0313 30.1161 32.2203 33.3302 32.2203 33.3302C28.5281 30.2755 18.1688 15.3474 18.1688 15.3474C26.4563 23.7411 42.925 35.4552 42.925 35.4552C47.6 22.4927 38.4359 10.938 38.4359 10.938Z" fill="white"/>
</g>
<defs>
<linearGradient id="paint0_linear_4073_12001" x1="40.452" y1="-1.58219" x2="27.6046" y2="71.2791" gradientUnits="userSpaceOnUse">
<stop stop-color="#FAAE42"/>
<stop offset="1" stop-color="#EF3E31"/>
</linearGradient>
<linearGradient id="paint1_linear_4073_12001" x1="34.6937" y1="1.94294" x2="25.2909" y2="55.2689" gradientUnits="userSpaceOnUse">
<stop stop-color="#E39F3A"/>
<stop offset="1" stop-color="#D33929"/>
</linearGradient>
<clipPath id="clip0_4073_12001">
<rect width="68" height="68" fill="white" transform="translate(0 0.844238)"/>
</clipPath>
</defs>
</svg>
