<svg width="68" height="69" viewBox="0 0 68 69" fill="none" xmlns="http://www.w3.org/2000/svg">
<path d="M55.9096 24.1724C55.2042 23.9296 54.4733 23.6999 53.7207 23.4826C53.8444 22.9777 53.9579 22.4794 54.0588 21.9896C55.7159 13.9462 54.6324 7.46634 50.9329 5.3329C47.3855 3.28722 41.5839 5.42017 35.7247 10.5193C35.1612 11.0096 34.5962 11.5288 34.0315 12.0728C33.6552 11.7129 33.2795 11.365 32.9047 11.0323C26.764 5.57994 20.609 3.28226 16.913 5.42186C13.369 7.47348 12.3195 13.5651 13.811 21.1879C13.9551 21.9242 14.1234 22.6761 14.3138 23.4406C13.4427 23.6879 12.6017 23.9515 11.7971 24.2319C4.59779 26.7419 0 30.6757 0 34.756C0 38.9703 4.93573 43.1972 12.4343 45.7602C13.0261 45.9625 13.6401 46.1537 14.2729 46.3353C14.0675 47.1621 13.8889 47.9723 13.7389 48.7626C12.3167 56.2531 13.4273 62.2008 16.9619 64.2395C20.6128 66.3448 26.7401 64.1808 32.7065 58.9654C33.178 58.5532 33.6513 58.116 34.1254 57.6577C34.7399 58.2495 35.3535 58.8095 35.9637 59.3349C41.7429 64.308 47.4507 66.3161 50.982 64.2718C54.6293 62.1604 55.8146 55.7711 54.2757 47.9975C54.1582 47.4038 54.0214 46.7973 53.8678 46.18C54.2981 46.0527 54.7206 45.9214 55.1325 45.7849C62.928 43.202 68 39.0265 68 34.756C68 30.6609 63.2539 26.7007 55.9096 24.1724ZM54.2189 43.0275C53.847 43.1506 53.4655 43.2696 53.0767 43.3849C52.2161 40.6605 51.0547 37.7634 49.6333 34.7702C50.9897 31.8483 52.1062 28.9883 52.9427 26.2815C53.6384 26.4828 54.3135 26.6951 54.9641 26.9191C61.2567 29.0854 65.0951 32.2882 65.0951 34.756C65.0951 37.3848 60.9497 40.7972 54.2189 43.0275ZM51.426 48.5616C52.1065 51.999 52.2037 55.1068 51.7529 57.5363C51.3479 59.7194 50.5335 61.1749 49.5264 61.7578C47.3834 62.9982 42.8006 61.3859 37.8582 57.1328C37.2917 56.6452 36.721 56.1247 36.1484 55.5737C38.0645 53.4781 39.9795 51.042 41.8484 48.3364C45.1357 48.0447 48.2415 47.5678 51.0579 46.9167C51.1966 47.4763 51.3198 48.0251 51.426 48.5616ZM23.1827 61.5434C21.089 62.2829 19.4214 62.3041 18.4134 61.7228C16.2685 60.4857 15.3768 55.7102 16.5931 49.3043C16.7324 48.5707 16.8983 47.8171 17.0894 47.0468C19.875 47.6628 22.958 48.1061 26.2531 48.3732C28.1347 51.0207 30.105 53.4542 32.0905 55.5849C31.6567 56.0037 31.2246 56.4024 30.7949 56.7781C28.1566 59.0843 25.5127 60.7205 23.1827 61.5434ZM13.3739 43.0114C10.0581 41.8781 7.31984 40.4052 5.44289 38.7979C3.75633 37.3535 2.90482 35.9196 2.90482 34.756C2.90482 32.28 6.59639 29.1217 12.7533 26.9751C13.5003 26.7146 14.2824 26.4691 15.0939 26.2385C15.9448 29.0065 17.0611 31.9004 18.4081 34.8267C17.0436 37.7966 15.9116 40.7366 15.0523 43.537C14.4737 43.3706 13.9132 43.1956 13.3739 43.0114ZM16.6619 20.6301C15.3839 14.099 16.2327 9.17226 18.3684 7.93597C20.6433 6.61894 25.6738 8.49674 30.9758 13.2046C31.3147 13.5055 31.655 13.8204 31.9962 14.1462C30.0205 16.2677 28.0682 18.6829 26.2034 21.3148C23.0053 21.6112 19.944 22.0874 17.1293 22.725C16.9524 22.0132 16.7956 21.3138 16.6619 20.6301ZM45.994 27.8729C45.3211 26.7107 44.6304 25.576 43.9262 24.4722C46.0958 24.7465 48.1745 25.1106 50.1266 25.5561C49.5406 27.4344 48.8101 29.3983 47.9502 31.4115C47.3334 30.2404 46.681 29.0597 45.994 27.8729ZM34.0324 16.2223C35.3723 17.6739 36.7142 19.2946 38.034 21.0531C36.704 20.9903 35.3576 20.9576 34 20.9576C32.6553 20.9576 31.3187 20.9895 29.997 21.0513C31.3181 19.3092 32.6716 17.6906 34.0324 16.2223ZM21.9943 27.893C21.3221 29.0585 20.6818 30.2328 20.0747 31.4093C19.2288 29.4031 18.5051 27.4303 17.9139 25.5254C19.854 25.0912 21.923 24.7362 24.0788 24.4671C23.3647 25.581 22.6682 26.7241 21.9943 27.8928V27.893ZM24.1409 45.2522C21.9135 45.0037 19.8135 44.667 17.8738 44.2448C18.4744 42.3059 19.2141 40.2909 20.078 38.2415C20.6867 39.4171 21.3295 40.5919 22.0058 41.76H22.0059C22.6947 42.9499 23.4084 44.1155 24.1409 45.2522ZM34.1128 53.4946C32.736 52.0091 31.3627 50.3659 30.0214 48.5983C31.3235 48.6494 32.6509 48.6755 34 48.6755C35.386 48.6755 36.7562 48.6443 38.1048 48.5843C36.7806 50.3836 35.4436 52.0294 34.1128 53.4946ZM47.978 38.137C48.8868 40.2086 49.653 42.213 50.2614 44.1189C48.2898 44.5687 46.161 44.931 43.9182 45.2001C44.6241 44.0815 45.3209 42.9273 46.0056 41.74C46.6983 40.5388 47.3561 39.3358 47.978 38.137ZM43.4893 40.2887C42.4264 42.1318 41.3351 43.8912 40.2272 45.552C38.2094 45.6963 36.1247 45.7706 34 45.7706C31.8839 45.7706 29.8255 45.7049 27.8433 45.5762C26.6908 43.8937 25.5758 42.129 24.5196 40.3046H24.5199C23.4665 38.4851 22.4969 36.6503 21.6184 34.8258C22.4967 32.997 23.4637 31.1601 24.511 29.3439L24.5108 29.3443C25.5609 27.5232 26.6661 25.7672 27.808 24.0952C29.8303 23.9423 31.9041 23.8625 33.9999 23.8625H34C36.1052 23.8625 38.1817 23.9429 40.2034 24.0971C41.3278 25.7569 42.4255 27.5073 43.4798 29.3285C44.546 31.1703 45.5255 32.9949 46.4112 34.7845C45.5281 36.6048 44.5509 38.4479 43.4893 40.2887ZM49.4819 7.84955C51.759 9.1627 52.6445 14.4586 51.2138 21.4033C51.1226 21.8464 51.0198 22.2977 50.9082 22.7551C48.087 22.1042 45.0235 21.6198 41.8161 21.3189C39.9476 18.6581 38.0114 16.2391 36.0678 14.1449C36.5904 13.6422 37.1122 13.1629 37.6318 12.7106C42.652 8.34169 47.3441 6.61676 49.4819 7.84955ZM34 28.6839C37.3535 28.6839 40.0722 31.4024 40.0722 34.756C40.0722 38.1096 37.3535 40.8282 34 40.8282C30.6465 40.8282 27.9278 38.1096 27.9278 34.756C27.9278 31.4024 30.6465 28.6839 34 28.6839Z" fill="#00D8FF"/>
</svg>
