<svg width="162" height="48" viewBox="0 0 162 48" fill="none" xmlns="http://www.w3.org/2000/svg">
<g clip-path="url(#clip0_4073_12053)">
<path fill-rule="evenodd" clip-rule="evenodd" d="M36.2001 6.68848H42.0788C47.3075 6.68848 51.5526 10.8657 51.5526 16.0108V36.3513C51.5526 41.4965 47.3075 45.6737 42.0788 45.6737H41.6156C38.9243 45.2596 37.757 44.4654 36.8554 43.7942L29.3813 37.747C29.1937 37.5986 28.9602 37.5178 28.7195 37.5178C28.4789 37.5178 28.2454 37.5986 28.0578 37.747L25.63 39.712L18.7912 34.1787C18.604 34.0299 18.3707 33.9487 18.13 33.9487C17.8894 33.9487 17.656 34.0299 17.4689 34.1787L7.96772 42.4027C6.05611 43.9331 4.79119 43.6505 3.97116 43.5618C1.8524 41.8508 0.5 39.2553 0.5 36.3513V16.0108C0.5 10.8657 4.74503 6.68848 9.97431 6.68848H15.8401L15.8293 6.71171L15.6319 7.27888L15.5701 7.47322L15.304 8.63554L15.2675 8.83886L15.1505 10.0028L15.1349 10.3223L15.1322 10.4342L15.1435 10.9676L15.1703 11.2807L15.2363 11.7698L15.3201 12.2107L15.4199 12.6163L15.5492 13.0557L15.8846 13.9856L15.9957 14.2645L16.5801 15.4796L16.7862 15.8529L17.4624 16.9947L17.7211 17.4066L18.6646 18.7733L18.8003 18.9544L20.0282 20.5265L20.4248 21.0103L21.8261 22.6225L22.1143 22.933L23.2697 24.1561L23.7269 24.6224L24.4831 25.3617L24.3318 25.4864L24.2368 25.5703C23.9802 25.8059 23.7366 26.0562 23.5085 26.3192C23.3985 26.4464 23.2938 26.5779 23.1951 26.7131C23.0439 26.92 22.9085 27.1377 22.7899 27.3643C22.7297 27.482 22.6756 27.6028 22.6278 27.726C22.5049 28.0407 22.4309 28.3718 22.4083 28.7082L22.4041 28.9992C22.4148 29.409 22.4996 29.8135 22.6547 30.1943C22.8114 30.5798 23.0405 30.9331 23.3298 31.2362C23.5402 31.4564 23.7795 31.6486 24.042 31.8065C24.2655 31.9413 24.5032 32.0518 24.7509 32.1361C25.2888 32.3156 25.8596 32.3795 26.4248 32.3235H26.4274C26.9098 32.2774 27.3786 32.1405 27.8083 31.9201C27.9934 31.8234 28.17 31.7115 28.3353 31.5842C28.8091 31.2217 29.1761 30.7413 29.3984 30.1927C29.5728 29.7649 29.6582 29.3081 29.6507 28.8482L29.6367 28.6074C29.6051 28.2898 29.5281 27.9781 29.4081 27.6816C29.356 27.5526 29.2969 27.4263 29.231 27.3035C29.1085 27.0773 28.9691 26.8604 28.814 26.6545C28.7432 26.5601 28.6698 26.4677 28.594 26.3773C28.3418 26.0808 28.0702 25.8008 27.7809 25.5392L27.5759 25.3675L27.9226 25.0312L29.4113 23.5013L29.926 22.9452L30.7261 22.0591L31.2467 21.4602L31.9889 20.5704L32.4918 19.9488L33.2297 18.9777L33.6021 18.4754L34.1308 17.6976L34.5708 17.0353L35.4005 15.6137L35.8749 14.6811L35.8883 14.6526L36.2517 13.7876C36.2565 13.7764 36.2606 13.7649 36.264 13.7533L36.6552 12.5524L36.696 12.3776L36.8661 11.4217L36.8989 11.163L36.9091 11.0046L36.9209 10.4062L36.9177 10.2948L36.8865 9.75879L36.8479 9.34266L36.6552 8.14284C36.6522 8.12683 36.6485 8.11097 36.644 8.09531L36.3966 7.20812L36.3112 6.9615L36.2001 6.68848ZM38.9946 32.0537C38.4026 32.0644 37.8379 32.3006 37.4192 32.7125C37.0006 33.1245 36.7606 33.6802 36.7497 34.2627C36.7674 35.4673 37.7699 36.4532 38.9946 36.4706C40.2187 36.4532 41.2212 35.4673 41.24 34.2627C41.229 33.6801 40.9888 33.1245 40.5701 32.7125C40.1513 32.3005 39.5866 32.0644 38.9946 32.0537Z" fill="url(#paint0_radial_4073_12053)"/>
<path fill-rule="evenodd" clip-rule="evenodd" d="M111.937 39.8291L105.251 25.747C104.693 24.5736 104.361 24.1448 103.802 23.6473L103.259 23.1652C102.825 22.7517 102.541 22.3688 102.541 21.9141C102.541 21.263 103.064 20.7148 104.019 20.7148H109.823C110.734 20.7148 111.302 21.1811 111.302 21.8772C111.302 22.2658 111.12 22.5573 110.891 22.843C110.619 23.1826 110.264 23.5132 110.264 24.1168C110.264 24.4949 110.376 24.872 110.592 25.3536L114.581 34.5466L118.16 25.5849C118.38 24.9887 118.53 24.4638 118.53 24.0434C118.53 23.3891 118.169 23.1224 117.89 22.8298C117.648 22.5758 117.454 22.3076 117.454 21.8772C117.454 21.1743 118.035 20.7148 118.818 20.7148H122.392C123.394 20.7148 123.871 21.225 123.871 21.8772C123.871 22.2944 123.626 22.6815 123.145 23.0986L122.64 23.5074C121.936 24.0735 121.61 24.892 121.24 25.7391L115.821 38.587C115.18 40.0889 114.227 42.1743 112.771 43.8853C111.291 45.6227 109.296 46.9741 106.595 46.9741C104.333 46.9741 102.963 45.9111 102.963 44.3796C102.963 42.9765 104.018 41.8585 105.403 41.8585C106.162 41.8585 106.557 42.2113 106.957 42.5741C107.288 42.873 107.624 43.1803 108.286 43.1803C108.9 43.1803 109.472 42.9247 109.991 42.5118C110.783 41.8812 111.447 40.8889 111.937 39.8291ZM34.5751 45.6734H23.0314C22.44 45.6734 22.3573 45.1221 22.7378 44.8084C28.3723 40.1639 28.3589 40.1486 28.3589 40.1486C28.4704 40.0566 28.6113 40.006 28.7568 40.0057C28.9023 40.0054 29.0434 40.0554 29.1553 40.147C29.1553 40.147 34.4506 44.4636 34.8687 44.8084C35.2492 45.1221 35.167 45.6734 34.5751 45.6734ZM151.22 39.7789C154.229 39.7789 156.694 38.7644 158.617 36.7397C160.539 34.7182 161.5 32.2848 161.5 29.4394C161.5 26.6622 160.587 24.3803 158.767 22.5922C156.947 20.8046 154.586 19.9069 151.681 19.9069C148.621 19.9069 146.119 20.8844 144.17 22.832C142.221 24.7811 141.246 27.1422 141.246 29.9163C141.246 32.665 142.177 34.9954 144.034 36.9066C145.893 38.8193 148.287 39.7789 151.22 39.7789ZM125.775 39.5587C127.514 39.5587 128.752 38.4059 128.752 36.744C128.752 35.1211 127.474 33.9662 125.775 33.9662C123.994 33.9662 122.72 35.1232 122.72 36.744C122.72 38.4043 123.995 39.5587 125.775 39.5587ZM131.97 36.9246L132.394 36.4841C132.897 36.0025 133.059 35.5161 133.059 34.1748V26.2455C133.059 25.0858 132.899 24.5683 132.399 24.1252L131.901 23.6859C131.413 23.2618 131.252 22.9983 131.252 22.5748C131.252 21.9728 131.727 21.479 132.49 21.3079L135.873 20.4999C136.196 20.4228 136.561 20.3478 136.844 20.3478C137.233 20.3478 137.552 20.4735 137.775 20.6921C137.999 20.9113 138.13 21.226 138.13 21.6205V34.1748C138.13 35.4406 138.286 36.0294 138.824 36.4741C138.832 36.4815 138.84 36.4894 138.848 36.4979L139.226 36.9314C139.701 37.3861 139.898 37.6877 139.898 38.1022C139.898 38.8421 139.331 39.2651 138.42 39.2651H132.693C131.824 39.2651 131.252 38.8447 131.252 38.1022C131.252 37.6855 131.45 37.3814 131.97 36.9246ZM93.6873 36.9251L94.1107 36.4841C94.6147 36.0025 94.7768 35.5161 94.7768 34.1748V17.6192C94.7768 16.4965 94.656 15.9451 94.122 15.5026L93.6106 15.0157C93.17 14.5943 93.009 14.3329 93.009 13.9115C93.009 13.3084 93.4855 12.8167 94.2068 12.6446L97.5508 11.8371C97.8749 11.76 98.2393 11.6845 98.5227 11.6845C98.9091 11.6845 99.2359 11.7991 99.4694 12.0161C99.7033 12.2342 99.8472 12.558 99.8472 12.9942V34.1748C99.8472 35.4438 100.008 35.9988 100.547 36.4789L100.978 36.9283C101.457 37.3861 101.616 37.6855 101.616 38.1022C101.616 38.4096 101.521 38.6572 101.351 38.8463C101.112 39.1124 100.711 39.2651 100.176 39.2651H94.4488C93.9143 39.2651 93.5129 39.1124 93.273 38.8463C93.104 38.6572 93.009 38.4096 93.009 38.1022C93.009 37.685 93.1662 37.3829 93.6873 36.9251ZM78.0929 28.3991V34.1014C78.0929 34.9606 78.2657 35.7538 78.9848 36.407L79.4501 36.8512C79.9712 37.3486 80.1295 37.6465 80.1295 38.1022C80.1295 38.7988 79.5623 39.2651 78.651 39.2651H72.1938C71.2826 39.2651 70.7153 38.7988 70.7153 38.1022C70.7153 37.5614 70.8768 37.3053 71.3974 36.8485L71.8611 36.4055C72.4004 35.9249 72.7525 35.2695 72.7525 34.1014V18.8676C72.7525 17.9392 72.5437 17.1798 71.8605 16.5614L71.3947 16.1173C70.916 15.66 70.7153 15.3595 70.7153 14.9027C70.7153 14.1644 71.2847 13.7034 72.1938 13.7034H89.4906C90.1512 13.7034 90.7324 13.8481 91.1033 14.2061C91.3614 14.4554 91.5262 14.8066 91.5449 15.294L91.8144 19.223C91.8412 19.7141 91.6936 20.1239 91.4059 20.3763C91.2074 20.5501 90.9407 20.6541 90.6047 20.6541C90.1813 20.6541 89.8566 20.4967 89.5668 20.2253C89.3065 19.9813 89.0747 19.6386 88.8128 19.2351C88.1811 18.2418 87.887 17.8843 87.2135 17.4196C86.2765 16.7394 84.8484 16.5054 82.149 16.5054C80.591 16.5054 79.6079 16.5725 78.9886 16.7294C78.5882 16.8313 78.3569 16.9633 78.2335 17.1571C78.1063 17.3557 78.0929 17.6065 78.0929 17.9128V25.6335H82.149C83.1193 25.6335 83.8019 25.4608 84.593 24.3972L84.5973 24.3909C84.9144 23.9938 85.1441 23.7012 85.3625 23.5074C85.6164 23.2808 85.8611 23.1736 86.1847 23.1736C86.4959 23.1778 86.793 23.302 87.012 23.5196C87.2311 23.7372 87.3545 24.0308 87.3557 24.337V29.6596C87.3557 30.3726 86.7911 30.8589 86.1847 30.8589C85.8831 30.8589 85.6384 30.7533 85.3835 30.5315C85.164 30.3419 84.9337 30.0573 84.6354 29.6776C83.7697 28.5749 83.1585 28.3991 82.149 28.3991H78.0929ZM146.625 28.2644C146.625 26.3548 147.048 24.9823 147.924 24.1569C148.79 23.3421 149.72 22.9297 150.719 22.9297C152.095 22.9297 153.335 23.6875 154.452 25.1767C155.595 26.6997 156.16 28.7577 156.16 31.3479C156.16 33.2596 155.736 34.6448 154.858 35.494C153.994 36.3315 153.064 36.7561 152.065 36.7561C150.689 36.7561 149.451 35.9925 148.332 34.4917C147.19 32.956 146.625 30.879 146.625 28.2644ZM26.0587 27.148L26.1188 27.1649C26.1376 27.1744 26.1543 27.1876 26.1714 27.1993L26.2213 27.2426C26.3442 27.354 26.4639 27.4712 26.5788 27.5911C26.6598 27.6761 26.7387 27.7638 26.8144 27.8541C26.911 27.9687 27.0011 28.0886 27.0832 28.2132C27.1187 28.2681 27.1514 28.3241 27.1825 28.3822C27.2093 28.4323 27.2335 28.4841 27.2544 28.5369C27.292 28.6288 27.3199 28.7254 27.3285 28.8237L27.3269 29.0085C27.3145 29.1753 27.2619 29.3368 27.1735 29.4797C27.0852 29.6226 26.9635 29.7427 26.8187 29.8302C26.6308 29.9422 26.4194 30.0108 26.201 30.0303L25.9686 30.0372L25.7727 30.0203C25.6812 30.007 25.5912 29.9855 25.5038 29.9559C25.4148 29.926 25.3293 29.8867 25.2489 29.8387L25.096 29.7283C24.9157 29.5769 24.7929 29.3699 24.7477 29.141C24.74 29.1024 24.7339 29.0635 24.7294 29.0243L24.724 28.8485C24.727 28.8006 24.734 28.7531 24.745 28.7064C24.7718 28.6035 24.8104 28.5036 24.8587 28.4091C24.9215 28.2903 24.9929 28.1757 25.0729 28.0669C25.2054 27.8911 25.3487 27.7231 25.5022 27.5647C25.6015 27.4617 25.7024 27.3619 25.8081 27.2663L25.8838 27.1993C25.9358 27.1649 25.9364 27.1649 25.9959 27.148H26.0587ZM25.6739 2.58024L25.6981 2.57812V23.1794L25.646 23.0844C24.957 21.8299 24.3154 20.5506 23.7226 19.2494C23.2419 18.196 22.8065 17.1232 22.4175 16.0339C22.1067 15.1661 21.8443 14.2824 21.6312 13.3865C21.4654 12.6747 21.3388 11.9528 21.2867 11.2235C21.2664 10.9122 21.2603 10.6001 21.2684 10.2882C21.2733 10.0168 21.2845 9.74589 21.3023 9.47445C21.3296 9.04828 21.3736 8.62264 21.437 8.2007C21.4874 7.86853 21.5497 7.53742 21.6264 7.21C21.6876 6.95018 21.7584 6.69194 21.8395 6.43793C21.9565 6.07091 22.096 5.71234 22.2591 5.36221C22.3187 5.236 22.3826 5.11084 22.4502 4.9878C22.8543 4.25111 23.4028 3.57252 24.1208 3.11836C24.5876 2.81977 25.1201 2.63527 25.6739 2.58024ZM28.3889 2.63199L29.7972 3.02753C30.4524 3.26254 31.0761 3.57518 31.6546 3.95855C32.4412 4.48081 33.1192 5.14616 33.652 5.91882C33.9644 6.37821 34.2238 6.87044 34.4254 7.38638C34.7185 8.1492 34.8997 8.94918 34.9636 9.76226C34.9824 9.97508 34.9932 10.1884 34.9975 10.4023C35.0023 10.6003 35.0012 10.7994 34.9851 10.9975C34.9449 11.4412 34.86 11.8799 34.7318 12.3071C34.6288 12.6567 34.5069 13.0006 34.3669 13.3374C34.1929 13.7564 33.9995 14.1674 33.7873 14.5689C33.3177 15.4614 32.7778 16.3148 32.1993 17.1402C31.4824 18.1545 30.7182 19.1357 29.9093 20.0806C29.0306 21.1116 28.1142 22.1111 27.1621 23.077C27.8084 21.8849 28.4114 20.6706 28.9701 19.4363C29.2808 18.7489 29.5739 18.0539 29.8492 17.352C30.1523 16.5811 30.4255 15.7991 30.6682 15.0078C30.8496 14.415 31.0068 13.8153 31.1394 13.2102C31.2515 12.6905 31.3401 12.1656 31.3948 11.6375C31.4404 11.1971 31.4576 10.754 31.4463 10.3125C31.442 10.042 31.4318 9.77152 31.4157 9.50138C31.3497 8.4151 31.1818 7.33199 30.8598 6.29007C30.738 5.89479 30.5898 5.5079 30.4159 5.13197C30.0038 4.24847 29.4285 3.42254 28.6498 2.81999L28.3889 2.63199ZM135.307 17.9376C137.051 17.9376 138.284 16.9717 138.284 15.3061C138.284 13.6802 137.052 12.7122 135.307 12.7122C133.521 12.7122 132.29 13.6807 132.29 15.3061C132.29 16.9316 133.522 17.9376 135.307 17.9376Z" fill="black"/>
</g>
<defs>
<radialGradient id="paint0_radial_4073_12053" cx="0" cy="0" r="1" gradientUnits="userSpaceOnUse" gradientTransform="translate(26.026 26.1808) scale(34.8267 36.6902)">
<stop stop-color="#BA7BF0"/>
<stop offset="0.43" stop-color="#996BEC"/>
<stop offset="1" stop-color="#5046E4"/>
</radialGradient>
<clipPath id="clip0_4073_12053">
<rect width="161" height="47" fill="white" transform="translate(0.5 0.487305)"/>
</clipPath>
</defs>
</svg>
