<svg width="280" height="48" viewBox="0 0 280 48" fill="none" xmlns="http://www.w3.org/2000/svg">
<g clip-path="url(#clip0_4073_12033)">
<path d="M23.5177 47.1818V38.0451C33.259 38.0451 40.7732 28.4944 37.0175 18.3879C36.3341 16.512 35.2445 14.8084 33.8258 13.3976C32.4071 11.9868 30.6939 10.9033 28.8075 10.2237C26.6181 9.40507 24.2622 9.12472 21.9403 9.40658C19.6185 9.68843 17.3996 10.5241 15.4725 11.8425C13.5454 13.1609 11.9673 14.9229 10.8726 16.9784C9.77789 19.034 9.19897 21.3222 9.18517 23.6481H-6.10352e-05C-6.10352e-05 8.42029 14.8914 -3.62304 31.1716 1.36213C34.6702 2.45494 37.8514 4.37241 40.4442 6.95124C43.0371 9.53007 44.9647 12.6939 46.063 16.1731C51.0734 32.3708 38.9652 47.1818 23.5177 47.1818Z" fill="#0080FF"/>
<path d="M23.6574 38.045H14.4722V29.0473H23.6574M14.4722 45.106H7.5141V38.045H14.4722V45.106ZM7.5141 38.045H1.67657V32.2318H7.5141M83.9161 13.8195C81.2726 12.0188 77.7935 11.0406 73.8953 11.0406H65.4087V38.0339H73.8981C77.7954 38.0339 81.1356 37.0651 83.9189 35.1273C85.439 34.0276 86.6394 32.5473 87.3979 30.8368C88.2362 29.0362 88.6498 26.8215 88.6498 24.4678C88.6498 22.1142 88.2335 19.8995 87.3979 18.2377C86.5596 16.1731 85.4474 14.7893 83.9161 13.8195ZM70.4191 15.6201H73.0626C75.9855 15.6201 78.4893 16.1759 80.437 17.4208C82.5245 18.6657 83.5109 21.0332 83.5109 24.4817C83.5109 27.9302 82.3931 30.4339 80.437 31.8178C78.6291 32.9293 76.2622 33.6184 73.1995 33.6184H70.4191V15.6201ZM94.6327 10.6377C94.2459 10.6274 93.8611 10.6961 93.5021 10.8395C93.1431 10.9829 92.8174 11.1979 92.5452 11.4714C92.2281 11.7151 91.9741 12.0306 91.8045 12.3917C91.6349 12.7527 91.5545 13.1489 91.57 13.5471C91.57 14.318 91.8779 15.0573 92.4261 15.6024C92.9743 16.1475 93.7177 16.4538 94.4929 16.4538C95.2681 16.4538 96.0116 16.1475 96.5598 15.6024C97.1079 15.0573 97.4159 14.318 97.4159 13.5471C97.4261 13.1625 97.3569 12.78 97.2127 12.423C97.0686 12.066 96.8524 11.7421 96.5776 11.4714C96.1612 10.9156 95.4598 10.6377 94.6215 10.6377M92.1065 18.9436H96.9772V37.9089H92.1261V18.9436M114.392 20.6108C112.995 19.3659 111.318 18.5351 109.521 18.5351C108.295 18.5082 107.077 18.7422 105.948 19.2215C104.82 19.7007 103.808 20.4141 102.98 21.3139C101.241 23.1448 100.293 25.5794 100.336 28.0969C100.336 30.7285 101.174 33.0793 102.851 34.88C104.528 36.6807 106.746 37.5115 109.393 37.5115C111.096 37.5381 112.759 37.0026 114.124 35.9887V36.4028C114.124 37.9256 113.707 39.1816 112.872 40.0152C112.036 40.8489 110.916 41.2601 109.393 41.2601C107.157 41.2601 105.774 40.4265 104.106 38.0756L100.752 41.2601L100.892 41.3991C101.588 42.3689 102.7 43.3442 104.092 44.3057C105.483 45.2672 107.291 45.6951 109.379 45.6951C112.302 45.6951 114.529 44.8615 116.197 43.0636C117.865 41.2657 118.841 39.0482 118.841 36.1416V18.9436H114.115V20.6108H114.395M113.143 31.8233C112.305 32.7931 111.187 33.2127 109.79 33.2127C108.392 33.2127 107.275 32.7987 106.436 31.8233C105.598 30.848 105.184 29.6003 105.184 28.0858C105.184 26.5714 105.629 25.3098 106.467 24.34C107.305 23.3702 108.423 22.9506 109.82 22.9506C111.217 22.9506 112.335 23.3646 113.174 24.34C114.012 25.3154 114.425 26.563 114.425 28.0775C114.425 29.5919 114.009 30.8563 113.174 31.815M123.331 18.9408H128.202V37.9061H123.301V18.9436M125.667 10.6377C125.281 10.6282 124.897 10.6969 124.538 10.8396C124.179 10.9823 123.853 11.196 123.579 11.4678C123.306 11.7397 123.091 12.0639 122.947 12.4209C122.804 12.7778 122.735 13.16 122.744 13.5444C122.744 14.3152 123.052 15.0545 123.601 15.5996C124.149 16.1447 124.892 16.451 125.667 16.451C126.443 16.451 127.186 16.1447 127.734 15.5996C128.282 15.0545 128.59 14.3152 128.59 13.5444C128.6 13.1598 128.531 12.7773 128.387 12.4202C128.243 12.063 128.028 11.7387 127.755 11.4668C127.481 11.1949 127.155 10.9812 126.795 10.8387C126.436 10.6962 126.051 10.6278 125.665 10.6377M138.603 13.8195H133.877V18.9436H131.083V23.234H133.877V31.1258C133.877 33.6268 134.436 35.4163 135.409 36.3861C136.381 37.3559 138.203 37.9089 140.559 37.9089C141.35 37.9317 142.142 37.8852 142.926 37.77H143.205V33.4767L141.528 33.6156C140.411 33.6156 139.572 33.4767 139.293 33.0599C138.877 32.6458 138.734 31.815 138.734 30.559V23.373H143.188V19.0797H138.748L138.603 13.8195ZM165.6 11.0406H170.47V38.0339H165.605V11.0573M219.045 31.2676C218.334 32.086 217.541 32.8308 216.679 33.4906C215.92 33.9476 215.05 34.1871 214.164 34.1825C213.511 34.1769 212.866 34.0375 212.27 33.7731C211.674 33.5087 211.139 33.125 210.699 32.6458C209.723 31.5343 209.301 30.2922 209.301 28.6305C209.301 26.9687 209.718 25.7238 210.699 24.6151C211.121 24.1118 211.655 23.7125 212.259 23.4484C212.862 23.1842 213.519 23.0624 214.178 23.0923C215.709 23.0923 217.377 24.0621 218.769 25.7238L221.968 22.6672C219.881 20.0356 217.237 18.7907 214.035 18.7907C211.392 18.7907 209.164 19.7605 207.217 21.6974C205.394 23.598 204.391 26.1321 204.422 28.7583C204.422 31.5371 205.398 34.0186 207.217 35.8192C208.082 36.7552 209.137 37.4981 210.313 37.9991C211.488 38.5001 212.757 38.7478 214.035 38.7259C217.514 38.7259 220.297 37.2031 222.245 34.4354L219.045 31.2509M238.668 21.7001C237.935 20.7408 236.975 19.977 235.873 19.4771C234.61 18.8954 233.23 18.6102 231.838 18.6435C229.195 18.6435 226.968 19.6133 225.297 21.5501C223.715 23.5633 222.879 26.0568 222.93 28.611C222.93 31.5176 223.768 33.8713 225.573 35.672C227.378 37.4726 229.608 38.4508 232.531 38.4508C235.731 38.4508 238.377 37.2059 240.465 34.5743L240.604 34.4354L237.405 31.3787C237.125 31.7927 236.709 32.0706 236.287 32.4902C235.892 32.9041 235.417 33.2341 234.89 33.46C234.166 33.8544 233.348 34.0464 232.523 34.0158C231.311 34.0332 230.129 33.6414 229.17 32.9043C228.331 32.2123 227.918 31.237 227.772 29.9976H240.576V28.197C240.608 26.9694 240.418 25.7461 240.017 24.5845C239.814 23.5113 239.332 22.5094 238.62 21.6779M228.231 26.1407C228.444 25.3029 228.875 24.5359 229.483 23.9176C229.811 23.5916 230.205 23.3371 230.638 23.1702C231.071 23.0032 231.534 22.9275 231.998 22.9478C233.115 22.9478 234.085 23.2257 234.641 23.9176C235.2 24.4734 235.479 25.307 235.616 26.1407H228.231ZM257.178 20.4636C255.781 19.2187 253.699 18.6629 251.195 18.6629C249.664 18.7061 248.155 19.036 246.746 19.6355C245.495 20.3274 244.231 21.3028 243.547 22.6922L246.621 25.5988C247.873 23.523 249.264 22.82 251.212 22.82C252.123 22.796 253.013 23.0911 253.727 23.6536C254.044 23.8973 254.298 24.2129 254.468 24.5739C254.637 24.935 254.718 25.3312 254.702 25.7294V26.6992C253.581 26.3232 252.406 26.1354 251.223 26.1434C248.857 26.1434 246.908 26.6992 245.377 27.8107C243.846 28.9222 243.142 30.5895 243.142 32.518C243.142 34.3187 243.701 35.7025 244.95 36.8085C246.199 37.9144 247.744 38.3313 249.541 38.3313C251.338 38.3313 253.02 37.6393 254.691 36.3861V37.9089H259.422V25.7266C259.422 23.5036 258.726 21.7113 257.186 20.4663M248.697 30.709C249.256 30.295 249.949 30.1533 250.932 30.1533C252.168 30.1947 253.389 30.4281 254.551 30.8452V32.6458C253.399 33.6537 251.91 34.1968 250.376 34.1686C249.538 34.1686 248.845 34.0297 248.42 33.6129C247.996 33.196 247.724 32.7792 247.724 32.2235C247.774 31.9168 247.886 31.6234 248.053 31.3615C248.221 31.0996 248.441 30.8747 248.7 30.7007M277.912 20.7414C276.515 19.2187 274.713 18.5184 272.346 18.5184C270.397 18.5184 268.867 19.0742 267.755 20.1857V19.0742H263.021V38.0395H267.892V27.5245C267.892 26.1351 268.171 24.893 268.867 24.0649C269.208 23.6606 269.636 23.3385 270.12 23.1229C270.604 22.9072 271.131 22.8037 271.661 22.82C272.139 22.7969 272.615 22.8854 273.052 23.0784C273.489 23.2714 273.874 23.5636 274.176 23.9315C274.83 24.8164 275.173 25.8905 275.152 26.9882V38.0617H280V26.9715C279.86 24.3409 279.164 22.2642 277.912 20.7414ZM159.622 20.4636C158.225 19.2187 156.143 18.6629 153.639 18.6629C152.107 18.7045 150.595 19.0335 149.185 19.6327C147.933 20.3246 146.67 21.3 145.986 22.6894L149.059 25.596C150.311 23.5203 151.703 22.8172 153.651 22.8172C154.561 22.7932 155.452 23.0883 156.166 23.6509C156.483 23.8945 156.737 24.2101 156.906 24.5712C157.076 24.9322 157.156 25.3284 157.141 25.7266V26.6964C156.02 26.3204 154.844 26.1326 153.662 26.1407C151.296 26.1407 149.347 26.6964 147.816 27.8079C146.285 28.9195 145.58 30.5867 145.58 32.5152C145.58 34.3159 146.139 35.6997 147.388 36.8057C148.637 37.9117 150.183 38.3285 151.98 38.3285C153.776 38.3285 155.459 37.6366 157.13 36.3833V37.9061H161.861V25.7266C161.861 23.5036 161.022 21.7113 159.625 20.4663M150.996 30.709C151.555 30.295 152.248 30.1533 153.231 30.1533C154.467 30.1947 155.688 30.4281 156.85 30.8452V32.6458C155.698 33.6537 154.209 34.1968 152.675 34.1686C151.837 34.1686 151.144 34.0297 150.719 33.6129C150.295 33.196 150.023 32.7792 150.023 32.2235C150.231 31.6505 150.565 31.1304 150.999 30.7007M187.885 38.4535C185.131 38.4546 182.439 37.6436 180.149 36.1231C177.859 34.6026 176.073 32.4408 175.019 29.9113C173.964 27.3817 173.688 24.598 174.224 21.9121C174.761 19.2263 176.086 16.759 178.033 14.8223C179.98 12.8857 182.461 11.5666 185.161 11.032C187.862 10.4973 190.661 10.7712 193.206 11.8188C195.75 12.8665 197.924 14.6409 199.454 16.9177C200.984 19.1944 201.801 21.8712 201.801 24.6095C201.788 28.2762 200.318 31.789 197.711 34.3822C195.104 36.9755 191.572 38.4389 187.885 38.4535ZM187.885 15.4756C186.095 15.4729 184.344 15.9981 182.855 16.9849C181.365 17.9716 180.203 19.3756 179.516 21.0192C178.829 22.6627 178.647 24.472 178.994 26.2182C179.342 27.9643 180.202 29.5689 181.466 30.8289C182.73 32.0888 184.342 32.9476 186.097 33.2965C187.852 33.6455 189.672 33.4689 191.326 32.7891C192.981 32.1094 194.395 30.957 195.391 29.4778C196.386 27.9985 196.918 26.2589 196.919 24.4789C196.922 23.2969 196.69 22.1259 196.236 21.0333C195.782 19.9406 195.116 18.9478 194.276 18.1118C193.435 17.2758 192.437 16.6131 191.339 16.1617C190.24 15.7102 189.062 15.479 187.874 15.4812" fill="#0080FF"/>
</g>
<defs>
<clipPath id="clip0_4073_12033">
<rect width="280" height="47" fill="white" transform="translate(-6.10352e-05 0.201172)"/>
</clipPath>
</defs>
</svg>
