<svg width="177" height="34" viewBox="0 0 177 34" fill="none" xmlns="http://www.w3.org/2000/svg">
<g clip-path="url(#clip0_4073_12038)">
<path d="M61.6987 5.78027C67.3412 5.78027 71.0095 8.92318 71.0095 13.971C71.0095 17.6668 68.8524 20.4131 65.4705 21.5849L72.1003 32.7504H67.1828L60.9979 22.1558H54.167V32.7504H49.9319V5.78027H61.6987ZM54.1609 9.53613V18.442H61.4975C64.8612 18.442 66.5979 16.5912 66.5979 13.971C66.5979 11.2909 64.8673 9.53613 61.4975 9.53613H54.1609Z" fill="black"/>
<path d="M82.8738 13.2744C88.5165 13.2744 92.1848 17.4088 92.1848 22.5169C92.1848 23.1117 92.1422 23.7307 92.0264 24.3437H77.0118C77.1946 27.2041 79.6747 29.4516 83.0202 29.4516C85.4392 29.4516 87.3709 28.436 88.8211 26.1945L91.7643 28.3038C89.9728 31.4828 86.4446 33.1534 83.0202 33.1534C77.1763 33.1534 72.8803 28.8988 72.8803 23.238C72.8803 17.5471 77.0118 13.2744 82.8738 13.2744ZM88.1326 21.3991C87.8888 18.7189 85.616 16.826 82.8312 16.826C79.8698 16.826 77.609 18.7129 77.1093 21.3991H88.1326Z" fill="black"/>
<path d="M95.8897 32.7508V13.671H99.8993V16.0748C100.545 15.1013 102.379 13.2744 105.847 13.2744C111.166 13.2744 113.969 16.5315 113.969 21.1647V32.7508H109.978V22C109.978 18.8391 108.223 17.0122 105.219 17.0122C102.276 17.0122 99.8809 18.8391 99.8809 22V32.7508H95.8897Z" fill="black"/>
<path d="M126.973 13.2739C130.257 13.2739 132.433 14.4638 133.865 16.2726V4.76465H137.856V32.7503H133.865V30.1482C132.433 31.9571 130.257 33.1469 126.973 33.1469C121.471 33.1469 117.26 28.9704 117.26 23.1112C117.26 17.2461 121.471 13.2739 126.973 13.2739ZM121.245 23.1112C121.245 26.6268 123.725 29.6073 127.454 29.6073C131.184 29.6073 133.84 26.6268 133.84 23.1112C133.84 19.5957 131.159 16.8134 127.454 16.8134C123.725 16.8074 121.245 19.5898 121.245 23.1112Z" fill="black"/>
<path d="M151.232 13.2744C156.874 13.2744 160.543 17.4088 160.543 22.5169C160.543 23.1117 160.5 23.7307 160.384 24.3437H145.37C145.552 27.2041 148.032 29.4516 151.378 29.4516C153.797 29.4516 155.729 28.436 157.179 26.1945L160.122 28.3038C158.331 31.4828 154.802 33.1534 151.378 33.1534C145.534 33.1534 141.238 28.8988 141.238 23.238C141.232 17.5471 145.363 13.2744 151.232 13.2744ZM156.49 21.3991C156.247 18.7189 153.974 16.826 151.189 16.826C148.227 16.826 145.967 18.7129 145.467 21.3991H156.49Z" fill="black"/>
<path d="M164.399 32.7508V13.671H168.409V16.2731C169.5 14.1878 171.334 13.2744 173.449 13.2744C174.959 13.2744 176.111 13.7491 176.111 13.7491L175.691 17.3668C175.471 17.2887 174.601 16.9281 173.334 16.9281C171.195 16.9281 168.415 18.0399 168.415 22.3546V32.7508H164.399Z" fill="black"/>
<path d="M25.6491 0.353882C21.3592 0.155572 17.7518 3.20232 17.1363 7.21658C17.112 7.40286 17.0753 7.58315 17.0449 7.76343C16.0882 12.7632 11.6338 16.5491 6.28365 16.5491C4.37636 16.5491 2.58485 16.0684 1.0249 15.2271C0.835997 15.1249 0.610535 15.2571 0.610535 15.4674V16.5432V32.7504H17.0389V20.5995C17.0389 18.364 18.879 16.5491 21.1459 16.5491H25.2529C29.9024 16.5491 33.6438 12.7452 33.4609 8.11799C33.2965 3.9535 29.872 0.552191 25.6491 0.353882Z" fill="black"/>
</g>
<defs>
<clipPath id="clip0_4073_12038">
<rect width="176" height="33" fill="white" transform="translate(0.610535 0.344727)"/>
</clipPath>
</defs>
</svg>
