<svg width="172" height="48" viewBox="0 0 172 48" fill="none" xmlns="http://www.w3.org/2000/svg">
<path d="M39.235 0.201172H4.90847C2.54603 0.201172 0.610535 2.08702 0.610535 4.42322V4.45137V43.2379C0.610535 45.5741 2.51757 47.4881 4.88001 47.4881H4.90847H39.235C41.5975 47.4881 43.533 45.6022 43.533 43.266V43.2379V4.45137C43.533 2.11517 41.626 0.201172 39.2635 0.201172C39.2635 0.201172 39.2635 0.201172 39.235 0.201172ZM41.1705 43.2379C41.199 44.2793 40.3451 45.1237 39.3204 45.1237C39.292 45.1237 39.292 45.1237 39.2635 45.1237H4.90847C3.85533 45.1519 3.00144 44.3075 3.00144 43.2942C3.00144 43.266 3.00144 43.266 3.00144 43.2379V4.45137C2.97298 3.40993 3.82687 2.56552 4.85155 2.56552C4.88001 2.56552 4.88001 2.56552 4.90847 2.56552H39.235C40.2882 2.53737 41.1421 3.38178 41.1421 4.39507C41.1421 4.42322 41.1421 4.42322 41.1421 4.45137V43.2379H41.1705ZM11.3981 40.3951L16.7776 35.6382L11.3981 30.8814V40.3951ZM30.753 21.2551C29.216 19.7915 27.1382 19.0315 25.0035 19.1159C21.9579 19.2004 18.9123 19.7352 16.0376 20.7766V7.32235H11.2558V27.7852L14.6144 26.2371C14.6144 26.2371 20.1078 23.7602 24.9181 23.7602C27.309 23.7602 27.9067 25.055 27.9067 26.2371V40.4232H32.717V26.2371C32.8024 24.3513 32.0908 22.5499 30.753 21.2551ZM24.4342 14.9783H29.2445C31.18 12.8392 32.4324 10.1652 32.8024 7.29421H27.9921C27.4513 10.1089 26.2274 12.7547 24.4342 14.9783ZM156.532 26.0964V15.7102H161.342V26.0964C161.342 28.4607 162.167 29.6429 164.074 29.6429C165.981 29.6429 166.693 28.5733 166.693 26.0964V15.7102H171.39V26.2371C171.39 30.8532 169.112 33.5835 163.961 33.5835C158.809 33.4146 156.532 30.7125 156.532 26.0964ZM136.465 15.7102H141.275V22.0995L146.171 15.7102H151.665L145.687 22.578L152.148 33.2176H146.769L142.585 26.2371L141.275 27.7852V33.2176H136.465V15.7102ZM113.752 24.3231C113.752 17.9338 118.192 15.2317 122.49 15.2317C126.788 15.2317 131.228 17.9338 131.228 24.3231C131.228 30.7125 126.788 33.4146 122.461 33.4146C118.163 33.4146 113.752 30.8251 113.752 24.3231ZM126.304 24.3231C126.304 21.1144 124.881 19.1159 122.347 19.1159C119.843 19.1159 118.42 21.1425 118.42 24.3231C118.42 27.5037 119.843 29.6429 122.347 29.6429C124.852 29.6429 126.304 27.6163 126.304 24.3231ZM94.482 15.7102H101.427C105.953 15.7102 108.714 17.2582 108.714 21.3958C108.714 24.098 107.518 25.7868 105.241 26.4904L108.941 33.2457H103.932L100.459 27.2223H99.15V33.2457H94.482V15.7102ZM101.313 23.5069C103.22 23.5069 104.188 22.9158 104.188 21.4803C104.188 20.0448 103.363 19.4537 101.313 19.4537H99.2639V23.4787L101.313 23.5069ZM76.2087 15.7102H88.8748V19.6226H80.9905V22.4373H86.5977V26.0964H80.9905V29.277H89.2164V33.0487H76.1802L76.2087 15.7102ZM54.5482 15.7102H59.3585V22.2121H65.2219V15.7102H70.0322V33.1894H65.2219V26.0964H59.3585V33.1894H54.5482V15.7102Z" fill="#760CBD"/>
</svg>
