<svg width="268" height="268" viewBox="0 0 268 268" fill="none" xmlns="http://www.w3.org/2000/svg">
    <path clipRule="evenodd" clipRule="evenodd"
        d="M267.99 133.99C267.99 133.99 269.579 72.4171 232.581 35.4189C195.583 -1.57858 134.01 0.00993423 134.01 0.00993423C134.01 0.00993423 134.001 0.327069 134 0.929324C134 0.674973 133.997 0.47149 133.996 0.321236C133.994 0.11577 133.99 0.00993423 133.99 0.00993423C133.99 0.00993423 72.4171 -1.57858 35.4189 35.4189C-1.57858 72.4171 0.00993423 133.99 0.00993423 133.99C0.00993423 133.99 61.5835 135.578 98.5806 98.5806C132.398 64.7643 133.979 10.4162 134 1.32065C134.022 10.4162 135.603 64.7643 169.419 98.5806C206.417 135.578 267.99 133.99 267.99 133.99ZM35.4189 232.581C-1.57858 195.583 0.00993423 134.01 0.00993423 134.01C0.00993423 134.01 61.5835 132.422 98.5806 169.419C132.398 203.236 133.979 257.584 134 266.68C134.022 257.584 135.603 203.236 169.419 169.419C206.417 132.422 267.99 134.01 267.99 134.01C267.99 134.01 269.579 195.583 232.581 232.581C195.583 269.578 134.01 267.99 134.01 267.99C134.01 267.99 134.001 267.672 134 267.071C133.999 267.672 133.99 267.99 133.99 267.99C133.99 267.99 72.4171 269.578 35.4189 232.581Z"
        fill="#F2C79C" />
</svg>
