<svg width="1703" height="345" viewBox="0 0 1703 345" fill="none" xmlns="http://www.w3.org/2000/svg">
<rect width="1702.7" height="344" transform="translate(0 0.981445)" fill="white"/>
<g clip-path="url(#clip0_3854_1495)">
<mask id="mask0_3854_1495" style="mask-type:luminance" maskUnits="userSpaceOnUse" x="67" y="68" width="137" height="210">
<path d="M203.556 68.9321H67.8519V277.031H203.556V68.9321Z" fill="white"/>
</mask>
<g mask="url(#mask0_3854_1495)">
<path fill-rule="evenodd" clip-rule="evenodd" d="M132.835 69.0783C105.345 71.7903 104.377 112.545 131.695 117.106C132.932 117.313 133.324 117.421 133.353 117.565C133.373 117.669 133.274 119.724 133.132 122.132C132.99 124.54 132.811 129.276 132.734 132.655C132.658 136.034 132.568 138.818 132.535 138.843C132.502 138.867 132.056 139.092 131.543 139.345C130.583 139.817 129.319 140.855 128.812 141.589C128.527 142.001 128.527 142.001 126.778 142.058C124.017 142.148 122.334 142.824 120.806 144.456C120.382 144.909 119.995 145.229 119.943 145.17C119.891 145.11 118.298 142.76 116.402 139.948C114.506 137.135 112.354 133.969 111.618 132.91L110.282 130.986L111.066 130.116C125.694 113.886 105.24 89.4416 87.8472 102.367C70.535 115.232 86.0514 142.22 105.957 133.864C106.039 133.83 107.517 135.681 109.454 138.244C111.3 140.685 113.605 143.695 114.577 144.933C115.549 146.171 116.426 147.307 116.527 147.459C116.733 147.77 116.799 147.725 115.686 148.031C112.598 148.88 109.688 151.446 109.111 153.827C109.035 154.14 108.911 154.397 108.835 154.4C103.618 154.538 99.6256 158.418 99.5692 163.405C99.5501 165.101 99.5501 165.101 98.8396 165.524C92.3733 169.367 83.6005 182.26 82.9741 188.841C82.8817 189.814 82.9181 189.782 81.6385 190C78.7512 190.494 77.0644 191.538 75.2859 193.932C73.0336 196.964 72.8258 199.571 74.5433 203.251C75.1249 204.498 75.157 204.277 74.1979 205.631C64.0579 219.935 66.1702 236.721 79.8127 250.244C88.7352 259.09 101.26 264.481 115.302 265.522C120.664 265.919 121.277 266.123 122.658 267.943C131.739 279.919 139.576 279.919 148.657 267.943C150.038 266.123 150.651 265.919 156.013 265.522C177.002 263.967 194.562 252.446 201.144 235.91C205.34 225.371 204.008 215.366 197.114 205.621C196.158 204.269 196.19 204.496 196.772 203.251C198.489 199.571 198.281 196.964 196.029 193.932C194.251 191.538 192.564 190.494 189.676 190C188.396 189.782 188.434 189.814 188.341 188.841C188.136 186.683 185.829 181.145 183.628 177.525C180.923 173.076 175.669 167.422 172.475 165.524C171.765 165.101 171.765 165.101 171.746 163.405C171.689 158.418 167.697 154.538 162.48 154.4C162.404 154.397 162.28 154.14 162.204 153.827C161.627 151.446 158.717 148.88 155.629 148.031C154.516 147.725 154.582 147.77 154.788 147.459C154.888 147.307 155.766 146.171 156.738 144.933C157.71 143.695 160.015 140.685 161.861 138.244C163.798 135.681 165.276 133.83 165.358 133.864C185.264 142.22 200.78 115.232 183.468 102.367C166.075 89.4416 145.621 113.886 160.249 130.116L161.033 130.986L159.697 132.91C158.961 133.969 156.809 137.135 154.913 139.948C153.017 142.76 151.424 145.11 151.372 145.17C151.32 145.229 150.933 144.909 150.509 144.456C148.981 142.824 147.298 142.148 144.537 142.058C142.788 142.001 142.788 142.001 142.507 141.595C141.772 140.532 140.076 139.324 138.705 138.886C138.09 138.69 138.09 138.69 138.105 131.471C138.113 127.5 138.092 122.705 138.059 120.815L137.999 117.378L139.62 117.107C170.345 111.968 163.853 66.0184 132.835 69.0783ZM132.08 75.0267C121.539 76.9336 114.612 86.6936 116.503 96.2458C116.639 96.9346 116.821 97.6224 117.051 98.3062C122.559 114.675 148.756 114.675 154.263 98.3062C154.496 97.615 154.68 96.9232 154.818 96.2332C157.231 84.1351 145.41 72.6153 132.08 75.0267ZM96.6876 104.992C88.9033 106.433 84.2962 114.343 86.2158 121.05C86.5849 122.34 87.1951 123.585 88.0704 124.731C94.2634 132.839 105.415 132.021 110.009 123.122C110.411 122.343 110.719 121.549 110.938 120.751C113.26 112.308 105.759 103.312 96.6876 104.992ZM170.443 104.999C162.677 106.388 158.653 113.977 160.387 120.739C160.966 122.999 162.189 125.167 164.13 126.98C169.714 132.195 178.316 131.183 183.245 124.731C184.121 123.583 184.728 122.356 185.097 121.094C187.491 112.915 179.859 103.314 170.443 104.999ZM134.351 142.749C130.551 143.421 129.324 146.943 131.345 151.376C131.947 152.696 131.947 152.696 132.871 152.705C133.701 152.714 133.89 152.763 134.726 153.186C135.657 153.657 135.657 153.657 136.589 153.186C137.425 152.763 137.614 152.714 138.444 152.705C139.368 152.696 139.368 152.696 139.969 151.376C142.449 145.932 139.754 141.795 134.351 142.749ZM124.603 146.234C121.49 147.065 120.591 150.848 122.566 154.812C123.384 156.453 123.222 156.324 124.212 156.12C124.853 155.987 125.207 155.973 125.647 156.063C127.09 156.357 126.913 156.405 127.525 155.556C127.829 155.134 128.334 154.575 128.648 154.312C129.219 153.835 129.219 153.835 128.843 153.253C127.815 151.666 127.382 150.143 127.285 147.766C127.212 145.977 126.687 145.677 124.603 146.234ZM144.03 147.752C143.933 150.144 143.502 151.663 142.472 153.253C142.096 153.835 142.096 153.835 142.667 154.312C142.981 154.575 143.486 155.134 143.79 155.556C144.402 156.405 144.225 156.357 145.668 156.063C146.108 155.973 146.462 155.987 147.103 156.12C148.093 156.324 147.931 156.453 148.749 154.812C151.057 150.179 149.548 146.265 145.388 146.095L144.1 146.043L144.03 147.752ZM116.082 150.896C111.429 152.102 109.776 157.68 112.921 161.56C113.67 162.485 113.62 162.469 114.369 162.021C115.534 161.324 116.847 161.1 118.379 161.336C118.934 161.422 118.934 161.422 119.074 160.869C119.31 159.94 120.005 158.728 120.76 157.93C121.477 157.171 121.477 157.171 120.988 156.527C119.922 155.122 118.974 152.438 118.965 150.799C118.964 150.643 116.771 150.718 116.082 150.896ZM152.35 150.799C152.341 152.438 151.393 155.122 150.327 156.527C149.838 157.171 149.838 157.171 150.555 157.93C151.309 158.728 152.004 159.94 152.241 160.869C152.381 161.422 152.381 161.422 152.936 161.336C154.468 161.1 155.781 161.324 156.946 162.021C157.695 162.469 157.645 162.485 158.394 161.56C161.015 158.326 160.234 153.173 156.876 151.545C155.434 150.846 152.352 150.338 152.35 150.799ZM131.001 156.474C127.733 157.98 127.436 161.654 130.244 165.854C131.107 167.145 131.107 167.145 131.444 166.62C133.233 163.827 138.082 163.827 139.871 166.62C140.358 167.38 142.317 164.483 142.815 162.268C143.703 158.314 139.808 154.292 137.605 156.89C137.137 157.443 136.562 158.458 136.334 159.132C135.894 160.438 135.421 160.438 134.981 159.132C134.629 158.088 133.887 156.962 133.209 156.444C132.728 156.076 131.838 156.088 131.001 156.474ZM107.796 157.276C101.858 158.049 100.773 166.501 106.148 170.115C107.292 170.884 110.558 172.241 110.558 171.947C110.558 171.929 110.45 171.496 110.318 170.984C109.755 168.803 110.343 166.059 111.742 164.34C112.117 163.879 112.117 163.879 111.175 162.894C109.78 161.434 109.024 159.865 108.816 157.993C108.718 157.11 108.774 157.149 107.796 157.276ZM162.614 157.298C162.59 157.37 162.514 157.816 162.444 158.289C162.165 160.167 161.496 161.492 160.089 162.95C159.195 163.876 159.195 163.876 159.572 164.338C160.972 166.059 161.56 168.803 160.997 170.984C160.865 171.496 160.757 171.929 160.757 171.947C160.757 172.241 164.023 170.884 165.167 170.115C169.929 166.913 169.846 159.942 165.02 157.713C164.224 157.346 162.685 157.08 162.614 157.298ZM124.201 158.809C120.424 159.348 119.654 165.487 122.846 169.611C123.122 169.968 123.385 170.313 123.429 170.377C123.477 170.446 123.697 170.366 123.97 170.18C125.508 169.129 127.37 168.901 130.182 169.418C130.275 169.436 130.785 168.179 130.703 168.132C127.645 166.383 125.9 163.277 126.076 159.897C126.127 158.917 126.127 158.917 125.698 158.846C125.463 158.807 125.188 158.76 125.089 158.742C124.99 158.723 124.591 158.754 124.201 158.809ZM146.165 158.744C146.099 158.762 145.852 158.808 145.617 158.847C145.188 158.917 145.188 158.917 145.239 159.897C145.415 163.277 143.67 166.383 140.612 168.132C140.53 168.179 141.04 169.436 141.133 169.418C143.945 168.901 145.807 169.129 147.345 170.18C147.618 170.366 147.838 170.446 147.886 170.377C147.93 170.313 148.193 169.968 148.469 169.611C150.815 166.58 151.101 161.442 149.024 159.632C148.381 159.072 146.788 158.577 146.165 158.744ZM116.539 163.719C111.91 164.953 111.586 171.287 115.944 175.342C119.094 178.273 116.018 177.586 112.587 174.592C111.656 173.781 111.656 173.781 110.947 173.854C108.052 174.154 103.591 171.618 101.213 168.321C100.664 167.56 100.664 167.56 100.315 167.964C95.3702 173.688 92.5559 178.813 89.3509 187.929C88.5577 190.186 88.5499 190.01 89.4521 190.18C104.851 193.074 115.012 209.32 115.329 231.553C115.398 236.409 115.275 236.118 116.981 235.485C118.023 235.099 118.234 234.806 119.084 232.562C122.978 222.29 126.256 218.218 131.748 216.827C132.884 216.54 132.851 216.561 132.948 216.05C133.168 214.89 134.402 211.858 134.847 211.385C135.92 210.244 137.718 212.627 138.367 216.05C138.464 216.561 138.431 216.54 139.567 216.827C145.059 218.218 148.337 222.29 152.231 232.562C153.081 234.806 153.292 235.099 154.334 235.485C156.04 236.118 155.917 236.409 155.986 231.553C156.303 209.319 166.463 193.074 181.863 190.18C182.765 190.01 182.757 190.186 181.964 187.929C178.759 178.813 175.945 173.688 171 167.964C170.651 167.56 170.651 167.56 170.102 168.321C167.724 171.618 163.263 174.154 160.368 173.854C159.659 173.781 159.659 173.781 158.728 174.592C155.297 177.586 152.221 178.273 155.371 175.342C158.516 172.416 159.309 169.395 157.741 166.323C156.498 163.888 152.663 162.429 152.419 164.298C152.03 167.287 150.836 169.587 149.039 170.812C148.515 171.169 148.515 171.169 148.962 171.968C149.988 173.808 149.481 176.199 147.681 178C146.159 179.524 144.936 179.624 146.333 178.11C148.166 176.125 148.038 173.704 146.07 173.126C144.893 172.779 141.182 172.926 141.182 173.319C141.182 174.212 139.989 176.959 139.281 177.696C138.402 178.61 138.218 178.214 138.823 176.71C140.676 172.105 139.132 167.714 135.657 167.714C132.183 167.714 130.639 172.105 132.492 176.71C133.097 178.214 132.913 178.61 132.034 177.696C131.326 176.959 130.133 174.212 130.133 173.319C130.133 172.926 126.422 172.779 125.245 173.126C123.277 173.704 123.149 176.125 124.982 178.11C126.379 179.624 125.156 179.524 123.634 178C121.834 176.199 121.327 173.808 122.353 171.968C122.8 171.169 122.8 171.169 122.276 170.812C120.48 169.589 119.285 167.287 118.896 164.306C118.833 163.815 118.765 163.678 118.56 163.623C118.138 163.511 117.141 163.558 116.539 163.719ZM83.4353 193.157C76.349 194.271 77.4147 202 85.5478 208.476C88.1296 210.532 88.1765 210.561 92.3044 212.667C107.522 220.43 111.519 225.202 111.519 235.602C111.519 236.318 112.032 236.537 112.75 236.127C112.879 236.052 112.859 231.077 112.718 228.419C112.058 215.933 107.006 204.262 99.7641 198.492C94.9739 194.675 88.0882 192.425 83.4353 193.157ZM184.235 193.117C171.093 194.503 161.101 206.954 158.899 224.688C158.549 227.51 158.301 235.976 158.565 236.127C159.283 236.537 159.796 236.318 159.796 235.602C159.796 225.199 163.791 220.432 179.011 212.667C183.139 210.561 183.185 210.532 185.767 208.476C195.514 200.716 194.646 192.02 184.235 193.117ZM78.2877 209.006C72.7599 214.973 71.1308 227.297 74.7081 236.089C79.7289 248.43 96.1571 259.903 110.618 261.169C117.172 261.742 118.659 261.644 118.033 260.678C117.005 259.096 113.481 252.675 111.423 248.634C110.889 247.587 110.062 246.118 109.584 245.364C107.436 241.985 107.278 239.531 109.086 237.617C110.157 236.484 109.484 231.124 107.866 227.884C107.065 226.28 107.12 226.297 106.359 227.438C97.5971 240.569 79.7217 230.521 80.0841 212.668C80.1394 209.944 80.1394 209.943 79.381 209.341C78.4959 208.639 78.5994 208.67 78.2877 209.006ZM191.908 209.349C191.175 209.944 191.175 209.944 191.231 212.668C191.593 230.521 173.718 240.569 164.956 227.438C164.195 226.297 164.25 226.28 163.449 227.884C161.831 231.124 161.158 236.484 162.229 237.617C164.037 239.531 163.879 241.985 161.731 245.364C161.253 246.118 160.426 247.587 159.892 248.634C157.834 252.675 154.31 259.096 153.282 260.678C152.652 261.651 152.475 261.604 156.166 261.432C163.862 261.077 167.064 260.375 173.306 257.665C195.878 247.874 205.057 227.072 194.106 210.529C192.752 208.483 192.885 208.556 191.908 209.349ZM83.1238 212.217C81.96 216.043 84.2642 223.252 87.8321 226.951C88.94 228.098 89.0066 228.104 88.5638 227.03C86.7849 222.7 87.4371 217.332 89.9493 215.629C90.4139 215.313 89.5655 214.784 86.2997 213.355C85.5402 213.022 84.5553 212.57 84.1111 212.35C83.1522 211.875 83.2252 211.885 83.1238 212.217ZM187.357 212.272C187.027 212.442 186 212.919 185.075 213.331C181.507 214.92 180.886 215.304 181.364 215.627C183.878 217.332 184.531 222.698 182.751 227.03C182.308 228.104 182.375 228.098 183.483 226.951C187.051 223.252 189.355 216.043 188.191 212.217C188.091 211.89 188.096 211.89 187.357 212.272ZM134.236 219.568C129.641 220.381 125.34 225.312 122.004 233.591C120.332 237.743 119.463 238.344 113.921 239.178C110.274 239.728 110.034 240.607 112.54 244.228C114.352 246.848 116.565 250.464 118.903 254.626C123.081 262.067 124.622 264.534 126.747 267.184C134.074 276.328 140.337 274.829 148.106 262.071C149.636 259.559 149.827 259.23 152.412 254.626C154.75 250.464 156.963 246.848 158.775 244.228C161.281 240.607 161.041 239.728 157.394 239.178C151.852 238.344 150.983 237.743 149.311 233.591C145.289 223.611 139.869 218.568 134.236 219.568ZM122.027 239.25C120.905 239.828 120.5 240.941 121.023 242.009C121.437 242.856 122.578 243.279 123.28 242.845C123.473 242.726 123.619 242.769 124.209 243.128C126.319 244.404 127.123 244.158 126.467 242.431C125.467 239.798 123.581 238.448 122.027 239.25ZM147.223 239.303C145.936 239.951 144.289 242.72 144.693 243.561C144.985 244.166 145.559 244.064 147.106 243.128C147.696 242.769 147.842 242.726 148.035 242.845C148.737 243.279 149.878 242.856 150.292 242.009C151.187 240.18 149.114 238.35 147.223 239.303Z" fill="#22110C"/>
<path d="M146.166 158.744C146.099 158.762 145.852 158.808 145.617 158.847C145.188 158.917 145.188 158.917 145.239 159.897C145.415 163.277 143.67 166.383 140.612 168.132C140.53 168.179 141.04 169.435 141.133 169.418C143.945 168.901 145.807 169.129 147.345 170.18C147.618 170.366 147.838 170.446 147.886 170.377C147.93 170.312 148.193 169.968 148.469 169.611C150.815 166.58 151.101 161.442 149.024 159.632C148.381 159.072 146.788 158.577 146.166 158.744Z" fill="#2430F0"/>
<path d="M162.614 157.298C162.59 157.37 162.514 157.816 162.444 158.289C162.165 160.167 161.496 161.492 160.089 162.95C159.195 163.876 159.195 163.876 159.572 164.339C160.972 166.059 161.56 168.803 160.997 170.984C160.865 171.496 160.757 171.929 160.757 171.947C160.757 172.241 164.022 170.884 165.167 170.115C169.929 166.913 169.846 159.942 165.02 157.714C164.224 157.346 162.685 157.081 162.614 157.298Z" fill="#2430F0"/>
<path d="M152.35 150.799C152.341 152.437 151.393 155.122 150.327 156.527C149.838 157.171 149.838 157.171 150.555 157.93C151.309 158.728 152.004 159.94 152.241 160.869C152.381 161.422 152.381 161.422 152.936 161.336C154.467 161.099 155.78 161.324 156.945 162.021C157.695 162.469 157.645 162.485 158.394 161.56C161.015 158.326 160.234 153.173 156.876 151.545C155.434 150.846 152.352 150.338 152.35 150.799Z" fill="#2430F0"/>
<path d="M144.03 147.752C143.933 150.144 143.502 151.663 142.472 153.253C142.096 153.835 142.096 153.835 142.667 154.312C142.981 154.575 143.486 155.134 143.79 155.556C144.402 156.405 144.225 156.357 145.668 156.063C146.108 155.973 146.462 155.987 147.103 156.12C148.093 156.324 147.931 156.453 148.748 154.812C151.057 150.179 149.548 146.265 145.387 146.095L144.1 146.043L144.03 147.752Z" fill="#2430F0"/>
<path d="M134.351 142.75C130.551 143.421 129.324 146.943 131.345 151.376C131.947 152.696 131.947 152.696 132.871 152.705C133.701 152.714 133.89 152.763 134.726 153.186C135.657 153.657 135.657 153.657 136.589 153.186C137.425 152.763 137.614 152.714 138.444 152.705C139.367 152.696 139.367 152.696 139.969 151.376C142.449 145.932 139.754 141.795 134.351 142.75Z" fill="#2430F0"/>
<path d="M131.001 156.474C127.733 157.98 127.436 161.654 130.244 165.854C131.107 167.145 131.107 167.145 131.444 166.62C133.233 163.827 138.082 163.827 139.871 166.62C140.358 167.38 142.317 164.483 142.815 162.268C143.703 158.314 139.808 154.292 137.605 156.89C137.137 157.443 136.561 158.458 136.334 159.132C135.894 160.438 135.421 160.438 134.981 159.132C134.629 158.088 133.887 156.962 133.209 156.444C132.728 156.076 131.838 156.088 131.001 156.474Z" fill="#2430F0"/>
<path d="M124.201 158.809C120.424 159.348 119.654 165.487 122.846 169.611C123.122 169.968 123.385 170.313 123.429 170.377C123.477 170.446 123.697 170.366 123.97 170.18C125.508 169.129 127.37 168.901 130.182 169.418C130.275 169.436 130.785 168.179 130.703 168.132C127.645 166.383 125.9 163.277 126.076 159.897C126.127 158.917 126.127 158.917 125.698 158.846C125.463 158.807 125.188 158.76 125.089 158.742C124.99 158.723 124.59 158.754 124.201 158.809Z" fill="#2430F0"/>
<path d="M116.082 150.896C111.429 152.102 109.776 157.68 112.921 161.56C113.67 162.485 113.62 162.469 114.369 162.021C115.534 161.324 116.847 161.1 118.379 161.336C118.934 161.422 118.934 161.422 119.074 160.869C119.31 159.94 120.006 158.728 120.76 157.93C121.477 157.171 121.477 157.171 120.988 156.527C119.922 155.122 118.974 152.438 118.965 150.799C118.964 150.644 116.771 150.718 116.082 150.896Z" fill="#2430F0"/>
<path d="M124.603 146.234C121.49 147.065 120.591 150.848 122.567 154.812C123.384 156.453 123.222 156.324 124.212 156.12C124.853 155.987 125.207 155.973 125.647 156.063C127.09 156.358 126.913 156.405 127.525 155.556C127.829 155.134 128.334 154.575 128.648 154.312C129.219 153.835 129.219 153.835 128.843 153.253C127.815 151.667 127.382 150.143 127.285 147.766C127.212 145.977 126.687 145.677 124.603 146.234Z" fill="#2430F0"/>
<path d="M107.796 157.276C101.858 158.049 100.773 166.501 106.148 170.115C107.292 170.884 110.558 172.241 110.558 171.947C110.558 171.929 110.45 171.496 110.318 170.984C109.755 168.804 110.343 166.059 111.742 164.34C112.117 163.879 112.117 163.879 111.175 162.894C109.78 161.434 109.024 159.865 108.816 157.993C108.718 157.11 108.774 157.149 107.796 157.276Z" fill="#2430F0"/>
<path d="M184.235 193.117C171.093 194.503 161.101 206.954 158.899 224.688C158.549 227.51 158.301 235.976 158.565 236.127C159.283 236.537 159.796 236.318 159.796 235.602C159.796 225.199 163.791 220.432 179.011 212.667C183.139 210.561 183.185 210.532 185.767 208.476C195.514 200.716 194.646 192.02 184.235 193.117Z" fill="#2BE1B7"/>
<path d="M191.908 209.349C191.175 209.944 191.175 209.944 191.231 212.668C191.593 230.521 173.718 240.569 164.957 227.438C164.195 226.297 164.25 226.28 163.45 227.884C161.831 231.124 161.159 236.484 162.229 237.618C164.037 239.531 163.879 241.985 161.731 245.364C161.253 246.118 160.426 247.587 159.893 248.634C157.834 252.675 154.31 259.096 153.283 260.678C152.652 261.651 152.475 261.604 156.166 261.432C163.862 261.077 167.064 260.375 173.306 257.665C195.878 247.874 205.057 227.072 194.106 210.529C192.752 208.483 192.885 208.556 191.908 209.349Z" fill="#2BE1B7"/>
<path d="M78.2877 209.006C72.7599 214.973 71.1308 227.297 74.7079 236.088C79.7289 248.43 96.1569 259.903 110.618 261.169C117.171 261.742 118.659 261.644 118.032 260.678C117.005 259.096 113.481 252.675 111.422 248.634C110.889 247.587 110.062 246.118 109.584 245.364C107.436 241.985 107.278 239.531 109.086 237.617C110.156 236.483 109.484 231.124 107.865 227.883C107.065 226.28 107.12 226.297 106.358 227.437C97.5971 240.569 79.7217 230.521 80.0839 212.668C80.1394 209.943 80.1394 209.943 79.381 209.341C78.4957 208.639 78.5994 208.67 78.2877 209.006Z" fill="#2BE1B7"/>
<path d="M83.4353 193.157C76.3488 194.271 77.4147 202 85.5479 208.476C88.1294 210.532 88.1763 210.561 92.3042 212.667C107.521 220.43 111.519 225.202 111.519 235.602C111.519 236.318 112.031 236.537 112.75 236.127C112.879 236.053 112.859 231.077 112.718 228.419C112.058 215.933 107.006 204.262 99.7641 198.492C94.9738 194.675 88.0881 192.425 83.4353 193.157Z" fill="#2BE1B7"/>
<path d="M116.539 163.719C111.91 164.953 111.586 171.287 115.944 175.342C119.094 178.273 116.018 177.586 112.586 174.593C111.656 173.781 111.656 173.781 110.947 173.854C108.052 174.154 103.591 171.618 101.213 168.321C100.664 167.56 100.664 167.56 100.315 167.964C95.3702 173.688 92.5556 178.813 89.3509 187.929C88.5577 190.186 88.5496 190.01 89.4521 190.18C104.851 193.074 115.012 209.32 115.329 231.553C115.398 236.409 115.275 236.118 116.981 235.486C118.022 235.099 118.233 234.806 119.084 232.562C122.978 222.29 126.256 218.218 131.748 216.827C132.884 216.54 132.851 216.561 132.948 216.05C133.168 214.89 134.402 211.858 134.847 211.385C135.92 210.244 137.718 212.627 138.366 216.05C138.464 216.561 138.43 216.54 139.567 216.827C145.059 218.218 148.337 222.29 152.23 232.562C153.081 234.806 153.292 235.099 154.334 235.486C156.04 236.118 155.917 236.409 155.986 231.553C156.303 209.319 166.463 193.074 181.863 190.18C182.765 190.01 182.757 190.186 181.964 187.929C178.759 178.813 175.945 173.688 171 167.964C170.651 167.56 170.651 167.56 170.102 168.321C167.724 171.618 163.263 174.154 160.367 173.854C159.659 173.781 159.659 173.781 158.728 174.593C155.297 177.586 152.221 178.273 155.371 175.342C158.515 172.416 159.309 169.395 157.74 166.323C156.498 163.888 152.663 162.429 152.419 164.298C152.03 167.288 150.836 169.587 149.039 170.812C148.515 171.169 148.515 171.169 148.962 171.968C149.988 173.808 149.481 176.199 147.681 178C146.159 179.524 144.936 179.624 146.333 178.11C148.166 176.125 148.038 173.704 146.07 173.126C144.893 172.78 141.182 172.926 141.182 173.319C141.182 174.212 139.989 176.959 139.28 177.696C138.402 178.611 138.218 178.214 138.823 176.711C140.676 172.105 139.131 167.714 135.657 167.714C132.183 167.714 130.638 172.105 132.492 176.711C133.097 178.214 132.913 178.611 132.034 177.696C131.326 176.959 130.133 174.212 130.133 173.319C130.133 172.926 126.422 172.78 125.245 173.126C123.277 173.704 123.149 176.125 124.982 178.11C126.379 179.624 125.156 179.524 123.633 178C121.834 176.199 121.326 173.808 122.353 171.968C122.8 171.169 122.8 171.169 122.276 170.812C120.48 169.589 119.285 167.287 118.896 164.306C118.833 163.816 118.765 163.678 118.56 163.624C118.138 163.511 117.14 163.558 116.539 163.719Z" fill="#2430F0"/>
<path fill-rule="evenodd" clip-rule="evenodd" d="M134.236 219.568C129.641 220.381 125.34 225.312 122.004 233.591C120.332 237.743 119.462 238.344 113.921 239.178C110.274 239.728 110.034 240.607 112.54 244.228C114.352 246.848 116.565 250.464 118.903 254.626C123.08 262.067 124.622 264.534 126.747 267.185C134.074 276.328 140.337 274.829 148.106 262.071C149.636 259.559 149.827 259.23 152.412 254.626C154.75 250.464 156.963 246.848 158.775 244.228C161.281 240.607 161.041 239.728 157.394 239.178C151.852 238.344 150.983 237.743 149.311 233.591C145.289 223.611 139.869 218.568 134.236 219.568ZM121.023 242.009C120.5 240.941 120.905 239.828 122.027 239.25C123.581 238.448 125.467 239.798 126.467 242.431C127.123 244.158 126.319 244.404 124.209 243.128C123.619 242.769 123.473 242.727 123.28 242.845C122.578 243.279 121.437 242.856 121.023 242.009ZM144.693 243.561C144.289 242.72 145.936 239.951 147.223 239.304C149.114 238.35 151.187 240.181 150.292 242.009C149.878 242.856 148.737 243.279 148.035 242.845C147.842 242.727 147.696 242.769 147.106 243.128C145.559 244.064 144.985 244.166 144.693 243.561Z" fill="#F2C79C"/>
<path fill-rule="evenodd" clip-rule="evenodd" d="M110.938 120.751C109.34 114.789 104.363 110.093 97.5998 111.345C92.2333 112.339 87.4648 116.422 86.2159 121.05C86.5849 122.34 87.1951 123.585 88.0706 124.731C94.2634 132.839 105.415 132.021 110.009 123.121C110.411 122.343 110.719 121.549 110.938 120.751Z" fill="#2430F0"/>
<path fill-rule="evenodd" clip-rule="evenodd" d="M117.052 98.3061C116.821 97.6224 116.639 96.9346 116.503 96.2457C117.902 89.0784 124.816 82.859 132.992 81.3798C143.935 79.4006 152.948 86.8237 154.818 96.2332C154.68 96.9231 154.496 97.6149 154.264 98.3061C148.756 114.675 122.559 114.675 117.052 98.3061Z" fill="#2430F0"/>
<path d="M170.443 104.999C162.677 106.388 158.653 113.977 160.387 120.739C161.534 116.207 166.017 112.307 171.355 111.352C178.352 110.1 183.453 115.096 185.098 121.095C187.491 112.915 179.859 103.314 170.443 104.999Z" fill="#2430F0"/>
<path d="M116.503 96.2455C117.902 89.0784 124.816 82.859 132.992 81.3798C143.935 79.4003 152.948 86.8235 154.818 96.2332C157.231 84.135 145.41 72.6152 132.08 75.0266C121.539 76.9335 114.612 86.6936 116.503 96.2455Z" fill="#2430F0"/>
<path d="M97.5996 111.345C104.363 110.093 109.34 114.789 110.938 120.751C113.26 112.308 105.759 103.312 96.6876 104.992C88.9031 106.434 84.2962 114.343 86.2157 121.05C87.4649 116.422 92.2331 112.339 97.5996 111.345Z" fill="#2430F0"/>
<path d="M164.13 126.98C169.714 132.195 178.316 131.183 183.244 124.731C184.12 123.583 184.728 122.356 185.097 121.095C183.453 115.096 178.352 110.1 171.355 111.352C166.016 112.307 161.534 116.207 160.387 120.739C160.966 122.999 162.189 125.167 164.13 126.98Z" fill="#2430F0"/>
<path fill-rule="evenodd" clip-rule="evenodd" d="M119.405 89.7881C122.46 85.5873 127.439 82.3863 133.002 81.3798C141.328 79.8739 148.536 83.8103 152.331 89.9233C153.055 89.2024 153.717 88.4696 154.263 87.7519C151.44 79.3808 142.199 73.1979 132.09 75.0267C125.106 76.2901 119.709 81.001 117.411 86.8146C117.908 87.7634 118.61 88.7814 119.405 89.7881Z" fill="#F2C79C"/>
<path d="M119.406 89.7881C122.118 93.2224 125.915 96.5293 126.372 96.5293C126.719 96.5293 128.633 94.688 130.621 92.7758C132.769 90.7103 135.003 88.562 135.439 88.562C135.86 88.562 137.661 90.5538 139.462 92.5456C141.264 94.5375 143.065 96.5293 143.485 96.5293C144.021 96.5293 148.882 93.3604 152.332 89.9234C148.536 83.8104 141.328 79.8739 133.003 81.3799C127.439 82.3864 122.461 85.5873 119.406 89.7881Z" fill="#2BE1B7"/>
<path d="M86.2796 120.715C87.6631 116.226 92.3301 112.315 97.5665 111.345C101.571 110.604 104.949 111.948 107.37 114.404C107.82 112.757 108.146 110.79 108.108 109.139C105.39 106.006 101.221 104.147 96.6546 104.992C89.0539 106.399 84.4824 113.973 86.0576 120.573C86.1305 120.621 86.2047 120.668 86.2796 120.715Z" fill="#2BE1B7"/>
<path d="M86.2796 120.715C89.2246 122.556 93.2393 123.36 94.2971 122.75C95.116 122.277 95.4952 119.891 95.5842 117.434C95.6521 115.567 95.7127 113.896 96.0757 113.587C96.4769 113.247 98.4228 114.355 100.485 115.529C102.745 116.816 105.297 117.938 105.957 117.565C106.428 117.298 106.893 116.153 107.37 114.404C104.949 111.947 101.57 110.604 97.5663 111.345C92.3301 112.315 87.6631 116.226 86.2796 120.715Z" fill="#2BE1B7"/>
<path fill-rule="evenodd" clip-rule="evenodd" d="M161.28 112.226C161.46 113.534 165.243 120.55 166.264 120.788C166.817 120.917 168.708 119.581 170.44 118.357C171.907 117.321 173.259 116.366 173.59 116.447C173.891 116.522 174.465 117.418 175.137 118.465C176.071 119.923 177.195 121.675 178.033 121.917C179.119 122.231 183.445 119.978 185.562 118.467C185.889 111.011 178.895 103.492 170.475 104.999C166.078 105.785 162.88 108.56 161.248 112.046C161.261 112.101 161.271 112.161 161.28 112.226Z" fill="#2BE1B7"/>
<path d="M187.357 212.272C187.027 212.442 186 212.919 185.075 213.331C181.507 214.92 180.886 215.304 181.364 215.627C183.878 217.332 184.531 222.698 182.751 227.03C182.308 228.104 182.375 228.098 183.483 226.951C187.051 223.252 189.355 216.043 188.191 212.217C188.091 211.89 188.096 211.89 187.357 212.272Z" fill="#F1F1F1"/>
<path d="M83.124 212.217C81.9601 216.043 84.2641 223.252 87.8323 226.951C88.94 228.098 89.0066 228.104 88.564 227.03C86.785 222.7 87.4373 217.332 89.9493 215.629C90.4141 215.313 89.5655 214.784 86.2999 213.355C85.5402 213.022 84.5555 212.57 84.1113 212.35C83.1524 211.875 83.2254 211.885 83.124 212.217Z" fill="#F1F1F1"/>
<path d="M179.537 223.112C179.537 222.719 179.188 222.399 178.757 222.399C178.326 222.399 177.976 222.719 177.976 223.112C177.976 223.507 178.326 223.826 178.757 223.826C179.188 223.826 179.537 223.507 179.537 223.112Z" fill="#F1F1F1"/>
<path opacity="0.2" fill-rule="evenodd" clip-rule="evenodd" d="M153.748 99.6558C147.066 107.024 133.786 111.079 118.612 101.696C126.115 114.19 147.786 113.51 153.748 99.6558ZM108.094 125.972C101.061 128.885 91.5126 125.903 86.848 122.727C87.1756 123.42 87.5819 124.09 88.0706 124.731C93.5213 131.866 102.813 132.088 108.094 125.972ZM184.332 123.013C180.288 126.778 172.101 129.455 162.538 125.21C163.002 125.828 163.532 126.421 164.13 126.98C169.714 132.195 178.316 131.183 183.245 124.731C183.669 124.175 184.03 123.601 184.332 123.013Z" fill="#22110C"/>
<path d="M116.503 96.2457C117.902 89.0784 124.816 82.859 132.992 81.38C143.935 79.4005 152.948 86.8235 154.818 96.2332C157.231 84.135 145.41 72.6152 132.08 75.0266C121.539 76.9335 114.612 86.6938 116.503 96.2457Z" fill="#2430F0"/>
<path fill-rule="evenodd" clip-rule="evenodd" d="M119.405 89.788C122.46 85.5872 127.439 82.3863 133.002 81.38C141.328 79.8738 148.536 83.8103 152.331 89.9233C153.055 89.2024 153.717 88.4698 154.263 87.7518C151.44 79.3808 142.199 73.1981 132.09 75.0266C125.106 76.2901 119.709 81.0009 117.411 86.8145C117.908 87.7633 118.61 88.7813 119.405 89.788Z" fill="#2BE1B7"/>
<g opacity="0.2">
<g style="mix-blend-mode:hard-light">
<path fill-rule="evenodd" clip-rule="evenodd" d="M140.473 145.328C139.595 143.298 137.406 142.21 134.351 142.75C132.547 143.068 131.323 144.03 130.751 145.426C131.955 144.441 134.085 144.12 135.674 144.086C137.21 144.119 139.25 144.42 140.473 145.328ZM127.099 146.614C125.611 146.84 122.893 147.557 121.712 149.206C122.106 147.732 123.095 146.637 124.603 146.234C126.113 145.831 126.805 145.877 127.099 146.614ZM118.983 151.19C118.972 151.054 118.966 150.923 118.965 150.799C118.964 150.643 116.771 150.718 116.082 150.896C113.724 151.508 112.136 153.242 111.553 155.308C113.13 153.1 116.067 151.259 118.983 151.19ZM102.677 163.22C103.374 160.873 105.971 158.424 108.083 158.424C108.381 158.424 108.641 158.407 108.867 158.378C108.848 158.251 108.831 158.123 108.816 157.993C108.811 157.949 108.807 157.908 108.802 157.869C108.765 157.522 108.746 157.343 108.646 157.263C108.539 157.178 108.342 157.204 107.934 157.258C107.89 157.264 107.844 157.27 107.796 157.276C104.61 157.691 102.821 160.317 102.677 163.22ZM134.34 157.784C133.115 156.842 131.303 156.47 128.758 158.578C129.188 157.685 129.937 156.964 131.001 156.474C131.838 156.088 132.728 156.076 133.209 156.444C133.593 156.738 133.998 157.226 134.34 157.784ZM142.216 158.282C141.117 156.276 139.015 155.228 137.605 156.89C137.4 157.133 137.174 157.464 136.966 157.817C138.131 156.899 139.838 156.487 142.216 158.282ZM126.096 159.473C126.114 158.915 126.053 158.905 125.698 158.846C125.463 158.807 125.188 158.76 125.089 158.742C124.99 158.723 124.59 158.754 124.201 158.809C122.346 159.074 121.216 160.69 120.925 162.754C121.659 160.392 124.428 159.289 126.096 159.473ZM152.488 164.027C153.065 162.588 156.564 164.018 157.741 166.323C158.068 166.963 158.292 167.602 158.414 168.237C157.512 165.728 154.673 164.578 152.488 164.027ZM141.179 173.402C141.181 173.373 141.182 173.345 141.182 173.319C141.182 172.926 144.893 172.779 146.07 173.126C146.628 173.29 147.038 173.601 147.297 174.01C146.171 173.025 143.72 173.208 141.179 173.402ZM132.649 169.334C133.332 168.327 134.36 167.714 135.658 167.714C136.93 167.714 137.944 168.304 138.627 169.277C137.777 168.62 136.612 168.283 135.674 168.196C134.709 168.285 133.505 168.64 132.649 169.334ZM123.976 174.078C124.233 173.636 124.656 173.299 125.245 173.126C126.422 172.779 130.133 172.926 130.133 173.319C130.133 173.344 130.134 173.371 130.136 173.399C127.549 173.202 125.062 173.021 123.976 174.078ZM118.852 164.029C116.618 164.593 113.704 165.784 112.875 168.412C113.009 166.194 114.245 164.33 116.539 163.719C117.141 163.558 118.138 163.511 118.56 163.624C118.72 163.666 118.796 163.759 118.852 164.029ZM149.634 149.205C149.127 147.386 147.649 146.188 145.387 146.095L144.1 146.043L144.078 146.589C145.519 146.785 148.406 147.491 149.634 149.205ZM159.725 155.213C159.306 153.623 158.334 152.252 156.876 151.545C155.434 150.846 152.352 150.338 152.35 150.799C152.349 150.923 152.343 151.054 152.332 151.189C155.217 151.245 158.126 153.039 159.725 155.213ZM168.68 163.252C167.997 160.895 165.386 158.424 163.265 158.424C162.945 158.424 162.668 158.405 162.431 158.372C162.435 158.345 162.44 158.317 162.444 158.289C162.514 157.816 162.59 157.37 162.614 157.298C162.685 157.081 164.224 157.346 165.02 157.714C167.334 158.782 168.558 160.941 168.68 163.252ZM150.353 162.549C150.195 161.322 149.756 160.27 149.024 159.632C148.381 159.072 146.788 158.577 146.165 158.744C146.099 158.762 145.852 158.808 145.617 158.847C145.261 158.905 145.2 158.915 145.219 159.476C146.835 159.281 149.521 160.313 150.353 162.549Z" fill="white"/>
</g>
</g>
<g style="mix-blend-mode:hard-light">
<path fill-rule="evenodd" clip-rule="evenodd" d="M190.593 194.18C185.861 193.828 180.342 195.381 176.355 197.844C170.771 201.293 162.184 210.449 160.383 219.307C159.884 221.757 159.511 222.56 159.234 222.384C161.985 205.881 171.671 194.442 184.235 193.117C187.068 192.819 189.195 193.246 190.593 194.18Z" fill="white" fill-opacity="0.4"/>
</g>
<g style="mix-blend-mode:hard-light">
<path fill-rule="evenodd" clip-rule="evenodd" d="M80.477 194.293C85.3316 193.762 91.1416 195.34 95.2929 197.904C100.877 201.352 109.464 210.508 111.265 219.366C111.548 220.757 111.79 221.615 111.997 222.067C110.252 212.089 105.759 203.269 99.7641 198.492C94.974 194.675 88.0883 192.425 83.4353 193.157C82.2057 193.35 81.2215 193.743 80.477 194.293Z" fill="white" fill-opacity="0.4"/>
</g>
<g style="mix-blend-mode:hard-light">
<path fill-rule="evenodd" clip-rule="evenodd" d="M123.816 229.606C127.743 225.329 132.774 224.599 135.464 224.599C138.257 224.599 143.795 225.493 147.793 230.192C143.976 222.481 139.188 218.689 134.236 219.568C130.435 220.241 126.835 223.732 123.816 229.606Z" fill="white" fill-opacity="0.4"/>
</g>
<path opacity="0.2" fill-rule="evenodd" clip-rule="evenodd" d="M188.496 214.521C186.7 215.287 184.69 216.066 182.518 216.846C182.193 216.343 181.808 215.928 181.364 215.627C180.887 215.304 181.507 214.92 185.076 213.331C186 212.919 187.027 212.442 187.357 212.272L187.37 212.265C187.828 212.028 187.995 211.941 188.082 211.992C188.131 212.021 188.154 212.095 188.19 212.212L188.191 212.217C188.396 212.893 188.494 213.673 188.496 214.521ZM82.8221 214.325C84.6367 215.139 86.6606 215.962 88.8371 216.786C89.1529 216.311 89.5246 215.916 89.9497 215.629C90.4143 215.313 89.5657 214.784 86.3001 213.355C85.5406 213.022 84.5557 212.57 84.1115 212.35C84.0496 212.319 83.9923 212.291 83.9387 212.265C83.4552 212.025 83.2947 211.944 83.2199 211.993C83.1823 212.017 83.1664 212.073 83.1421 212.158C83.1367 212.175 83.131 212.196 83.1242 212.217C82.9349 212.84 82.8371 213.554 82.8221 214.325Z" fill="#22110C"/>
<path opacity="0.2" fill-rule="evenodd" clip-rule="evenodd" d="M108.789 243.979C108.406 248.061 109.818 252.622 110.47 254.728C110.581 255.087 110.67 255.374 110.725 255.575C111.19 257.304 106.133 260.037 87.584 251.666C94.4328 256.828 102.812 260.485 110.618 261.169C117.172 261.742 118.659 261.644 118.032 260.678C117.005 259.096 113.481 252.675 111.423 248.634C110.889 247.587 110.062 246.118 109.584 245.364C109.279 244.886 109.014 244.423 108.789 243.979Z" fill="#22110C"/>
<path opacity="0.2" fill-rule="evenodd" clip-rule="evenodd" d="M183.844 251.628C165.229 260.043 160.157 257.306 160.623 255.576C160.677 255.374 160.766 255.087 160.877 254.728C161.532 252.613 162.954 248.018 162.553 243.926C162.323 244.385 162.049 244.865 161.731 245.364C161.253 246.118 160.426 247.587 159.893 248.634C157.834 252.675 154.311 259.096 153.283 260.678C153.054 261.031 152.885 261.249 152.938 261.377C153.032 261.6 153.813 261.542 156.166 261.432C163.862 261.077 167.064 260.375 173.306 257.665C177.237 255.96 180.762 253.921 183.844 251.628Z" fill="#22110C"/>
<path opacity="0.2" fill-rule="evenodd" clip-rule="evenodd" d="M117.853 252.779C121.911 259.277 123.555 261.617 125.774 264.116C133.89 273.268 140.827 271.767 149.432 258.999C151.044 256.61 151.314 256.193 153.8 252.193C153.344 252.979 152.88 253.792 152.412 254.626C149.827 259.23 149.636 259.559 148.106 262.071C140.337 274.829 134.074 276.328 126.747 267.184C124.622 264.534 123.08 262.067 118.903 254.626C118.549 253.998 118.199 253.382 117.853 252.779Z" fill="#22110C"/>
<path d="M135.584 208.13C134.082 208.13 132.161 218.712 131.32 218.712L129.579 220.318L135.584 218.712L142.489 220.734C141.748 220.061 140.159 218.712 139.727 218.712C139.186 218.712 137.085 208.13 135.584 208.13Z" fill="black" fill-opacity="0.2"/>
<path d="M125.616 179.709C124.775 179.709 121.953 177.747 121.953 174.834C122.353 174.101 123.154 172.955 123.154 174.239C123.154 175.845 124.955 177.926 125.436 178.401C125.916 178.877 126.457 179.709 125.616 179.709Z" fill="black" fill-opacity="0.2"/>
<path d="M109.524 174.834C106.101 174.834 101.658 170.375 99.376 167.342L100.757 166.153L103.879 170.612L110.965 172.693L112.346 170.434C112.686 170.949 113.487 172.194 113.967 173.05C114.568 174.12 116.129 174.953 117.39 176.736C118.651 178.52 113.847 176.32 113.247 176.023C112.766 175.785 111.726 175.052 111.265 174.715C111.265 174.755 110.917 174.834 109.524 174.834Z" fill="black" fill-opacity="0.2"/>
<path d="M120.272 169.423C118.891 167.699 119.371 165.677 119.131 163.953L123.034 170.969L122.734 171.504L122.726 171.5C122.34 171.299 121.369 170.793 120.272 169.423Z" fill="black" fill-opacity="0.2"/>
<path d="M132.581 178.639C131.32 178.342 130.18 175.428 130.18 173.228L131.38 172.693L132.161 175.785C132.401 176.737 133.842 178.936 132.581 178.639Z" fill="black" fill-opacity="0.2"/>
<path d="M145.611 179.709C146.452 179.709 149.274 177.747 149.274 174.834C148.874 174.101 148.073 172.955 148.073 174.239C148.073 175.845 146.272 177.926 145.791 178.401C145.311 178.877 144.771 179.709 145.611 179.709Z" fill="black" fill-opacity="0.2"/>
<path d="M161.703 174.834C165.126 174.834 169.569 170.375 171.851 167.342L170.47 166.153L167.348 170.612L160.262 172.693L158.881 170.434C158.541 170.949 157.741 172.194 157.26 173.05C156.66 174.12 155.099 174.953 153.838 176.736C152.577 178.52 157.38 176.32 157.981 176.023C158.461 175.785 159.502 175.052 159.962 174.715C159.962 174.755 160.31 174.834 161.703 174.834Z" fill="black" fill-opacity="0.2"/>
<path d="M150.955 169.423C152.336 167.699 151.856 165.677 152.096 163.953L148.193 170.969L148.494 171.504L148.501 171.5C148.887 171.299 149.858 170.793 150.955 169.423Z" fill="black" fill-opacity="0.2"/>
<path d="M138.586 178.698C139.847 178.401 141.048 175.428 141.048 173.228L139.847 172.693L139.066 175.785C138.826 176.736 137.325 178.996 138.586 178.698Z" fill="black" fill-opacity="0.2"/>
<path opacity="0.2" d="M121.376 242.376C120.956 242.376 122.277 241.722 121.857 240.592C122.857 240.176 124.427 240.605 125.58 241.603C127.021 242.852 127.021 245.944 126.961 247.252C126.901 248.56 121.797 242.376 121.376 242.376Z" fill="#22110C"/>
<path opacity="0.2" d="M149.856 242.416C150.277 242.416 148.956 241.762 149.376 240.633C148.375 240.217 146.806 240.645 145.653 241.643C144.212 242.892 144.212 245.984 144.272 247.292C144.332 248.6 149.436 242.416 149.856 242.416Z" fill="#22110C"/>
<path opacity="0.2" fill-rule="evenodd" clip-rule="evenodd" d="M95.3497 212.204C102.659 216.534 109.764 220.742 109.764 225.966C109.764 226.134 109.761 226.302 109.756 226.465C107.38 221.537 102.227 217.742 92.2794 212.667C88.1515 210.561 88.1046 210.532 85.5228 208.476C79.1906 203.434 77.1423 197.632 79.8907 194.784C78.0417 201.951 86.8339 207.16 95.3497 212.204Z" fill="#22110C"/>
<path opacity="0.2" fill-rule="evenodd" clip-rule="evenodd" d="M80.0054 194.579L79.9488 194.799C79.0324 198.351 80.7492 201.424 83.7744 204.248C86.8001 207.07 91.1208 209.629 95.3804 212.153L95.3836 212.155C99.0357 214.319 102.643 216.455 105.336 218.706C108.029 220.955 109.824 223.327 109.824 225.966C109.824 226.136 109.821 226.302 109.816 226.465L109.702 226.488C107.335 221.583 102.2 217.795 92.2518 212.719C90.1889 211.666 89.1425 211.131 88.2895 210.602C87.4354 210.073 86.7755 209.55 85.4853 208.522C82.3134 205.997 80.2104 203.278 79.2455 200.829C78.2809 198.38 78.4507 196.19 79.8472 194.743L80.0054 194.579ZM79.3574 200.786C80.3126 203.211 82.3999 205.913 85.5604 208.43C86.8519 209.458 87.5062 209.977 88.3531 210.502C89.2008 211.028 90.2419 211.561 92.3069 212.614C102.106 217.612 107.27 221.379 109.702 226.219C109.703 226.134 109.704 226.051 109.704 225.966C109.704 223.384 107.946 221.04 105.259 218.795C102.574 216.553 98.9747 214.421 95.3189 212.255L95.3147 212.253C91.0597 209.732 86.7283 207.167 83.6921 204.333C80.7185 201.559 78.9743 198.516 79.777 194.997C78.5695 196.398 78.4404 198.458 79.3574 200.786Z" fill="#22110C"/>
<path opacity="0.2" fill-rule="evenodd" clip-rule="evenodd" d="M176.058 212.204C168.749 216.534 161.643 220.742 161.643 225.966C161.643 226.04 161.644 226.115 161.645 226.187C164.079 221.394 169.223 217.646 178.986 212.667C183.114 210.561 183.16 210.532 185.742 208.476C192.073 203.435 193.926 198.001 191.595 195.11C193.098 202.111 184.444 207.237 176.058 212.204Z" fill="#22110C"/>
<path opacity="0.2" fill-rule="evenodd" clip-rule="evenodd" d="M191.972 201.009C191.004 203.371 188.95 205.998 185.78 208.522C184.489 209.55 183.829 210.073 182.975 210.603C182.122 211.131 181.076 211.666 179.013 212.72C169.25 217.699 164.123 221.441 161.699 226.214L161.585 226.189C161.584 226.115 161.583 226.04 161.583 225.966C161.583 223.326 163.378 220.955 166.071 218.706C168.765 216.455 172.372 214.319 176.024 212.155L176.027 212.153C180.222 209.669 184.476 207.148 187.494 204.376C190.513 201.604 192.28 198.592 191.536 195.123L191.641 195.073C192.825 196.541 192.939 198.648 191.972 201.009ZM191.704 195.354C192.704 196.765 192.774 198.737 191.861 200.964C190.903 203.302 188.865 205.913 185.704 208.43C184.413 209.458 183.759 209.977 182.912 210.502C182.064 211.028 181.023 211.561 178.958 212.614C169.343 217.519 164.192 221.235 161.704 225.945C161.714 223.369 163.469 221.033 166.149 218.795C168.834 216.553 172.433 214.421 176.089 212.255L176.093 212.253C180.283 209.771 184.547 207.245 187.575 204.463C190.532 201.748 192.323 198.776 191.704 195.354Z" fill="#22110C"/>
<g style="mix-blend-mode:multiply">
<path fill-rule="evenodd" clip-rule="evenodd" d="M77.2095 210.282C77.137 216.175 77.3632 241.603 107.542 241.603C107.666 241.603 107.789 241.603 107.911 241.603C107.62 240.038 108.005 238.734 109.061 237.617C110.132 236.484 109.459 231.124 107.841 227.884C107.412 227.024 107.229 226.631 107.034 226.624C106.865 226.62 106.687 226.907 106.334 227.438C97.5722 240.569 79.6969 230.521 80.059 212.668C80.1144 209.943 80.1144 209.943 79.3561 209.341C78.8036 208.903 78.6363 208.751 78.5129 208.779C78.4384 208.797 78.3799 208.88 78.2629 209.006C77.8941 209.405 77.543 209.831 77.2095 210.282Z" fill="black" fill-opacity="0.2"/>
</g>
<path opacity="0.2" fill-rule="evenodd" clip-rule="evenodd" d="M194.251 210.788C194.297 217.326 193.474 241.722 163.914 241.722C163.718 241.722 163.524 241.722 163.332 241.72C163.665 240.104 163.287 238.764 162.204 237.618C161.134 236.484 161.806 231.124 163.425 227.884C163.853 227.024 164.037 226.631 164.231 226.624C164.4 226.62 164.578 226.907 164.932 227.438C173.693 240.569 191.568 230.521 191.207 212.668C191.167 210.731 191.155 210.171 191.416 209.796C191.521 209.643 191.671 209.521 191.884 209.349C192.28 209.027 192.494 208.824 192.698 208.833C192.997 208.846 193.276 209.313 194.08 210.529C194.138 210.615 194.195 210.702 194.251 210.788Z" fill="#22110C"/>
<path opacity="0.2" fill-rule="evenodd" clip-rule="evenodd" d="M130.407 146.641C130.226 147.994 130.516 149.613 131.32 151.376C131.922 152.696 131.922 152.696 132.846 152.705C133.676 152.714 133.864 152.763 134.701 153.186C135.632 153.657 135.632 153.657 136.563 153.186C137.4 152.763 137.588 152.714 138.418 152.705C139.342 152.696 139.342 152.696 139.944 151.376C140.747 149.612 141.008 147.985 140.808 146.624C140.41 148.825 139.491 151.703 137.43 151.943C136.538 152.129 135.918 152.141 135.703 152.123L135.689 152.121H135.523H135.509C135.294 152.139 134.674 152.129 133.782 151.943C131.727 151.704 130.807 148.84 130.407 146.641ZM142.447 153.253C143.477 151.663 143.907 150.144 144.005 147.752L144.056 146.496C144.451 148.65 144.346 151.666 142.54 154.227C142.072 153.833 142.094 153.798 142.447 153.253ZM149.785 151.228C149.702 152.327 149.356 153.543 148.723 154.812C148.655 154.948 148.594 155.072 148.539 155.185C148.199 155.874 148.066 156.144 147.861 156.216C147.73 156.263 147.568 156.227 147.302 156.168C147.234 156.153 147.16 156.137 147.078 156.12C146.437 155.987 146.083 155.973 145.643 156.063C145.528 156.087 145.423 156.109 145.327 156.129C145.306 156.133 145.287 156.137 145.267 156.141C145.345 155.906 145.958 155.713 146.582 155.517C147.169 155.333 147.766 155.146 147.938 154.916C148.794 153.774 149.447 152.623 149.785 151.228ZM152.324 150.799C152.316 152.437 151.368 155.122 150.302 156.527C149.846 157.127 149.815 157.168 150.394 157.785C151.621 156.029 152.899 152.571 152.415 150.688C152.357 150.715 152.325 150.752 152.324 150.799ZM159.902 156.363C159.745 157.369 159.184 159.487 158.326 160.386C157.306 161.456 156.885 161.575 156.045 161.218C155.545 161.006 154.815 161.109 154.284 161.25C155.248 161.286 156.119 161.541 156.92 162.021L156.946 162.036L156.991 162.063C157.282 162.238 157.444 162.335 157.591 162.317C157.775 162.295 157.936 162.096 158.298 161.648L158.334 161.604L158.369 161.56C159.585 160.06 160.069 158.146 159.902 156.363ZM168.616 162.8C168.404 164.46 167.799 167.411 165.472 169.364C163.282 171.201 161.629 171.326 161.269 168.71C161.234 168.457 161.185 168.323 161.127 168.284C161.235 169.207 161.19 170.138 160.972 170.984C160.839 171.496 160.731 171.929 160.731 171.947C160.731 172.241 163.997 170.884 165.141 170.115C167.77 168.347 168.922 165.432 168.616 162.8ZM162.408 158.356C162.124 160.198 161.454 161.509 160.064 162.95C159.17 163.876 159.17 163.876 159.546 164.339C159.586 164.388 159.626 164.438 159.665 164.49C160.862 163.285 162.195 160.985 162.408 158.356ZM150.39 163.932C150.168 165.19 149.802 166.567 149.259 167.223C148.179 168.532 146.737 168.888 145.597 168.71C145.023 168.62 144.072 168.87 143.241 169.162C144.927 169.091 146.208 169.42 147.32 170.18C147.592 170.366 147.813 170.446 147.86 170.377C147.905 170.313 148.167 169.968 148.444 169.612C149.665 168.033 150.328 165.885 150.39 163.932ZM140.697 168.58C142.425 167.677 145.196 165.262 145.162 161.419C144.827 164.192 143.178 166.649 140.586 168.133C140.555 168.15 140.611 168.346 140.697 168.58ZM142.887 161.677C142.354 163.236 141.167 165.687 139.292 165.023C137.611 164.429 136.59 164.31 135.749 164.31C135.695 164.31 135.648 164.315 135.606 164.325C135.564 164.315 135.517 164.31 135.463 164.31C134.622 164.31 133.602 164.429 131.92 165.023C130.228 165.622 129.097 163.684 128.5 162.155C128.778 163.305 129.35 164.555 130.219 165.854C130.763 166.668 130.964 166.969 131.123 166.949C131.216 166.937 131.294 166.814 131.418 166.62C133.207 163.827 138.057 163.827 139.846 166.62C140.332 167.38 142.292 164.483 142.789 162.268C142.834 162.071 142.866 161.874 142.887 161.677ZM120.825 163.946C120.845 165.816 121.488 167.889 122.821 169.612C123.097 169.968 123.359 170.313 123.404 170.377C123.452 170.446 123.672 170.366 123.944 170.18C125.043 169.429 126.307 169.098 127.965 169.159C127.135 168.869 126.187 168.621 125.616 168.71C124.475 168.888 123.034 168.532 121.953 167.223C121.412 166.569 121.047 165.2 120.825 163.946ZM126.063 161.023C125.825 165.13 128.776 167.688 130.559 168.603C130.65 168.359 130.71 168.151 130.678 168.133C127.963 166.579 126.283 163.957 126.063 161.023ZM120.84 157.817C121.45 157.169 121.426 157.137 120.963 156.527C119.897 155.122 118.949 152.437 118.94 150.799C118.94 150.774 118.882 150.755 118.784 150.741C118.335 152.648 119.618 156.087 120.84 157.817ZM111.317 156.406C111.133 158.133 111.62 159.987 112.895 161.56C112.92 161.591 112.943 161.62 112.966 161.648C113.328 162.096 113.49 162.295 113.673 162.317C113.82 162.335 113.982 162.238 114.273 162.063C114.296 162.05 114.32 162.035 114.344 162.021C115.133 161.549 115.989 161.294 116.935 161.251C116.404 161.11 115.67 161.005 115.168 161.218C114.327 161.575 113.907 161.456 112.886 160.386C112.04 159.499 111.483 157.428 111.317 156.406ZM121.558 151.705C121.686 152.692 122.01 153.745 122.541 154.812C122.609 154.948 122.67 155.072 122.726 155.185C123.065 155.874 123.198 156.144 123.403 156.216C123.535 156.263 123.696 156.227 123.963 156.168C124.03 156.153 124.104 156.137 124.186 156.12C124.828 155.987 125.182 155.973 125.621 156.063C125.736 156.087 125.841 156.109 125.937 156.129C125.939 156.129 125.94 156.129 125.941 156.13C125.847 155.899 125.244 155.71 124.63 155.517C124.044 155.333 123.446 155.146 123.274 154.916C122.518 153.907 121.92 152.891 121.558 151.705ZM127.115 146.732C127.199 146.998 127.242 147.34 127.26 147.767C127.357 150.143 127.79 151.667 128.817 153.253C129.178 153.811 129.193 153.834 128.692 154.255C126.932 151.78 126.77 148.874 127.115 146.732ZM110.139 168.274C110.058 168.254 109.988 168.383 109.944 168.71C109.583 171.326 107.93 171.201 105.74 169.364C103.592 167.562 102.912 164.908 102.653 163.204C102.524 165.715 103.627 168.437 106.123 170.115C107.267 170.884 110.533 172.241 110.533 171.947C110.533 171.929 110.425 171.496 110.293 170.984C110.073 170.135 110.029 169.2 110.139 168.274ZM111.577 164.519C111.622 164.458 111.669 164.398 111.717 164.34C112.092 163.879 112.092 163.879 111.15 162.894C109.754 161.434 108.999 159.864 108.791 157.993C108.786 157.952 108.782 157.913 108.778 157.877C108.856 160.726 110.3 163.252 111.577 164.519Z" fill="#22110C"/>
<path d="M180.018 220.734C180.018 219.29 181.227 218.118 182.72 218.118C184.212 218.118 185.422 219.29 185.422 220.734C185.422 222.18 184.212 223.35 182.72 223.35C181.227 223.35 180.018 222.18 180.018 220.734Z" fill="#F1F1F1"/>
<path d="M85.7457 220.734C85.7457 219.29 86.9553 218.118 88.4477 218.118C89.94 218.118 91.1496 219.29 91.1496 220.734C91.1496 222.18 89.94 223.35 88.4477 223.35C86.9553 223.35 85.7457 222.18 85.7457 220.734Z" fill="#F1F1F1"/>
<path d="M92.9509 223.112C92.9509 222.719 92.6014 222.399 92.1704 222.399C91.7391 222.399 91.3896 222.719 91.3896 223.112C91.3896 223.507 91.7391 223.826 92.1704 223.826C92.6014 223.826 92.9509 223.507 92.9509 223.112Z" fill="#F1F1F1"/>
</g>
<path d="M844.249 222.868L847.224 237.263C845.158 238.669 842.184 239.951 838.301 241.11C834.501 242.185 830.702 242.724 826.9 242.724C819.549 242.724 813.436 240.408 808.561 235.774C803.771 231.141 801.375 224.191 801.375 214.926V189.735H789.232V172.982H801.375V158.215L819.095 154.368V172.982H844.372V189.735H819.095V213.932C819.095 222.123 822.729 226.219 829.998 226.219C833.221 226.219 837.97 225.102 844.249 222.868Z" fill="#22110C"/>
<path d="M751.707 242.722C742.539 242.722 734.897 240.614 728.784 236.394C722.671 232.092 718.994 226.219 717.756 218.774H735.722C737.21 224.896 742.704 227.956 752.203 227.956C759.886 227.956 763.728 226.093 763.728 222.371C763.728 221.876 763.645 221.42 763.48 221.006C763.397 220.594 763.191 220.22 762.86 219.891C762.612 219.559 762.324 219.269 761.993 219.02C761.662 218.691 761.166 218.4 760.505 218.152C759.928 217.903 759.389 217.697 758.895 217.532C758.399 217.366 757.655 217.16 756.665 216.912C755.755 216.663 754.93 216.457 754.186 216.291C753.524 216.126 752.575 215.918 751.336 215.671C750.096 215.423 749.023 215.175 748.113 214.926C737.952 212.527 730.849 209.921 726.801 207.108C722.836 204.212 720.854 199.91 720.854 194.202C720.854 187.087 723.538 181.544 728.907 177.573C734.361 173.52 741.629 171.493 750.717 171.493C759.803 171.493 766.866 173.478 771.906 177.449C776.944 181.338 780.084 186.632 781.323 193.333H763.357C761.868 188.701 757.449 186.384 750.096 186.384C742.496 186.384 738.697 188.287 738.697 192.093C738.697 193.582 739.481 194.657 741.05 195.319C742.621 195.981 746.173 196.932 751.707 198.173C757.241 199.414 761.62 200.572 764.843 201.648C768.064 202.641 771.121 203.964 774.011 205.619C776.904 207.273 778.969 209.259 780.207 211.575C781.448 213.892 782.067 216.706 782.067 220.014C782.067 227.376 779.217 233.003 773.517 236.891C767.816 240.779 760.547 242.722 751.707 242.722Z" fill="#22110C"/>
<path d="M673.355 171.493C684.509 171.493 693.306 175.34 699.75 183.033C706.276 190.727 709.084 200.283 708.176 211.699H655.884C656.462 216.994 658.362 221.048 661.583 223.862C664.806 226.673 668.812 228.081 673.604 228.081C677.072 228.081 680.17 227.336 682.897 225.847C685.624 224.274 687.564 222.165 688.722 219.517H707.061C704.665 227.21 700.452 233.003 694.421 236.891C688.391 240.779 681.493 242.722 673.729 242.722C663.154 242.722 654.52 239.373 647.83 232.672C641.139 225.97 637.793 217.491 637.793 207.232C637.793 196.974 641.139 188.452 647.83 181.669C654.52 174.885 663.029 171.493 673.355 171.493ZM673.232 186.136C669.019 186.136 665.508 187.294 662.698 189.611C659.891 191.844 657.909 194.864 656.751 198.67H689.341C688.349 194.864 686.449 191.844 683.641 189.611C680.832 187.294 677.363 186.136 673.232 186.136Z" fill="#22110C"/>
<path d="M619.345 159.704C611.332 159.704 607.327 164.047 607.327 172.734V172.982H630.002V189.735H607.327V241.234H589.607V189.735H577.464V172.982H589.607V171.865C589.607 162.765 592.291 155.898 597.66 151.266C603.031 146.55 609.598 144.192 617.363 144.192C623.558 144.192 628.929 145.226 633.471 147.295L630.25 161.689L627.897 161.069C624.756 160.159 621.907 159.704 619.345 159.704Z" fill="#22110C"/>
<path d="M558.777 141.462C562 141.462 564.642 142.455 566.707 144.44C568.772 146.343 569.805 148.825 569.805 151.886C569.805 154.947 568.772 157.47 566.707 159.456C564.642 161.441 562 162.434 558.777 162.434C555.639 162.434 552.995 161.441 550.847 159.456C548.782 157.47 547.749 154.947 547.749 151.886C547.749 148.908 548.782 146.426 550.847 144.44C552.995 142.455 555.639 141.462 558.777 141.462ZM549.854 241.234V172.982H567.574V241.234H549.854Z" fill="#22110C"/>
<path d="M511.675 171.493C519.359 171.493 525.39 173.892 529.768 178.69C534.147 183.489 536.335 190.065 536.335 198.421V241.234H518.615V202.268C518.615 197.635 517.625 194.161 515.642 191.844C513.66 189.528 510.396 188.37 505.852 188.37C495.609 188.37 490.486 194.037 490.486 205.371V241.234H472.766V172.982H490.486V182.289C495.609 175.092 502.672 171.493 511.675 171.493Z" fill="#22110C"/>
<path d="M440.927 172.982H458.647L458.524 241.234H440.804V232.052C435.598 239.165 428.495 242.722 419.49 242.722C410.485 242.722 403.051 239.414 397.186 232.795C391.321 226.093 388.388 217.532 388.388 207.108C388.388 196.684 391.321 188.163 397.186 181.544C403.133 174.843 410.527 171.493 419.367 171.493C428.453 171.493 435.641 175.174 440.927 182.537V172.982ZM423.455 225.847C428.495 225.847 432.666 224.108 435.971 220.634C439.275 217.16 440.927 212.651 440.927 207.108C440.927 201.565 439.275 197.056 435.971 193.582C432.666 190.107 428.495 188.37 423.455 188.37C418.417 188.37 414.286 190.107 411.063 193.582C407.843 197.056 406.231 201.565 406.231 207.108C406.231 212.651 407.843 217.16 411.063 220.634C414.369 224.108 418.5 225.847 423.455 225.847Z" fill="#22110C"/>
<path d="M352.942 171.493C360.213 171.493 365.955 173.851 370.168 178.566C374.381 183.282 376.487 189.776 376.487 198.049V241.234H358.767V201.896C358.767 197.429 357.817 194.078 355.917 191.844C354.1 189.528 351.125 188.37 346.994 188.37C342.37 188.37 338.859 189.859 336.462 192.837C334.066 195.733 332.868 199.91 332.868 205.371V241.234H315.149V201.896C315.149 197.429 314.199 194.078 312.299 191.844C310.482 189.528 307.507 188.37 303.376 188.37C298.752 188.37 295.198 189.859 292.721 192.837C290.325 195.733 289.127 199.91 289.127 205.371L289.25 241.234H271.407V172.982H289.25V182.041C294.208 175.009 300.94 171.493 309.449 171.493C319.362 171.493 326.259 175.795 330.144 184.399C335.43 175.795 343.029 171.493 352.942 171.493Z" fill="#22110C"/>
<path d="M67.8519 206.957C67.8519 188.193 52.6627 172.981 33.9259 172.981C15.1892 172.981 0 188.193 0 206.957C0 225.721 15.1892 240.932 33.9259 240.932C52.6627 240.932 67.8519 225.721 67.8519 206.957Z" fill="#FF006E" fill-opacity="0.1"/>
<path d="M135.704 34.9568C135.704 16.1927 120.515 0.981445 101.778 0.981445C83.041 0.981445 67.8519 16.1927 67.8519 34.9568C67.8519 53.7208 83.041 68.9321 101.778 68.9321C120.515 68.9321 135.704 53.7208 135.704 34.9568Z" fill="#FF006E" fill-opacity="0.1"/>
<path d="M203.556 34.9568C203.556 16.1927 188.366 0.981445 169.63 0.981445C150.893 0.981445 135.704 16.1927 135.704 34.9568C135.704 53.7208 150.893 68.9321 169.63 68.9321C188.366 68.9321 203.556 53.7208 203.556 34.9568Z" fill="#FF006E" fill-opacity="0.1"/>
<path d="M271.407 206.957C271.407 188.193 256.218 172.981 237.481 172.981C218.745 172.981 203.556 188.193 203.556 206.957C203.556 225.721 218.745 240.932 237.481 240.932C256.218 240.932 271.407 225.721 271.407 206.957Z" fill="#FF006E" fill-opacity="0.1"/>
<path d="M135.704 311.006C135.704 292.242 120.515 277.031 101.778 277.031C83.041 277.031 67.8519 292.242 67.8519 311.006C67.8519 329.77 83.041 344.981 101.778 344.981C120.515 344.981 135.704 329.77 135.704 311.006Z" fill="#FF006E" fill-opacity="0.1"/>
<path d="M203.556 311.006C203.556 292.242 188.366 277.031 169.63 277.031C150.893 277.031 135.704 292.242 135.704 311.006C135.704 329.77 150.893 344.981 169.63 344.981C188.366 344.981 203.556 329.77 203.556 311.006Z" fill="#FF006E" fill-opacity="0.1"/>
<path d="M916 206.957C916 188.193 900.811 172.981 882.074 172.981C863.337 172.981 848.148 188.193 848.148 206.957C848.148 225.721 863.337 240.932 882.074 240.932C900.811 240.932 916 225.721 916 206.957Z" fill="#FF006E" fill-opacity="0.1"/>
</g>
<line x1="916.5" y1="344.981" x2="916.5" y2="0.981445" stroke="#DFE5EB"/>
<path d="M1093.85 46.9814L1202.97 109.981V235.981L1093.85 298.981L984.731 235.981V109.981L1093.85 46.9814Z" fill="#DFE5EB"/>
<path d="M1104.93 212.143C1115.28 204.323 1130.22 192.08 1136.44 182.288C1141.1 174.973 1142.61 165.91 1140.59 157.483C1136.26 138.288 1112.29 130.445 1097.36 143.308C1096.52 144.027 1095.75 144.823 1094.96 145.641C1094.63 145.975 1094.3 146.313 1093.97 146.65C1093.63 146.313 1093.3 145.975 1092.98 145.641C1092.18 144.823 1091.41 144.027 1090.57 143.308C1075.64 130.445 1051.67 138.288 1047.35 157.483C1045.32 165.91 1046.84 174.973 1051.49 182.288C1057.72 192.08 1072.65 204.323 1083 212.143C1085.89 214.323 1093.97 220 1093.97 220C1093.97 220 1102.05 214.323 1104.93 212.143Z" fill="white"/>
<path d="M1290.33 132.277L1267.96 173.173V196.981H1253.18V173.269L1231.1 132.277H1248.38L1252.31 141.685C1254.36 146.549 1256.06 150.709 1257.4 154.165C1258.75 157.621 1259.61 159.861 1259.99 160.885L1260.47 162.421C1261.11 159.541 1263.93 152.629 1268.92 141.685L1273.15 132.277H1290.33ZM1318.8 197.749C1311.19 197.749 1305.3 195.477 1301.14 190.933C1296.98 186.325 1294.9 180.437 1294.9 173.269C1294.9 165.781 1297.07 159.637 1301.43 154.837C1305.78 149.973 1311.57 147.541 1318.8 147.541C1326.35 147.541 1332.21 149.877 1336.37 154.549C1340.53 159.221 1342.61 165.173 1342.61 172.405C1342.61 179.765 1340.5 185.845 1336.27 190.645C1332.11 195.381 1326.29 197.749 1318.8 197.749ZM1318.71 158.581C1315.63 158.581 1313.33 159.893 1311.79 162.517C1310.26 165.141 1309.49 168.533 1309.49 172.693C1309.49 176.853 1310.26 180.277 1311.79 182.965C1313.39 185.589 1315.76 186.901 1318.9 186.901C1321.97 186.901 1324.24 185.621 1325.71 183.061C1327.25 180.437 1328.02 177.045 1328.02 172.885C1328.02 163.349 1324.91 158.581 1318.71 158.581ZM1381.91 148.309H1395.93V196.981H1381.91V189.205C1379.35 194.645 1374.42 197.365 1367.13 197.365C1362.13 197.365 1358.23 195.989 1355.41 193.237C1352.66 190.421 1351.29 186.293 1351.29 180.853V148.309H1365.3V177.685C1365.3 183.381 1367.8 186.229 1372.79 186.229C1378.87 186.229 1381.91 182.165 1381.91 174.037V148.309ZM1421.37 148.309V157.333C1422.27 154.517 1423.74 152.277 1425.79 150.613C1427.9 148.885 1430.33 148.021 1433.09 148.021C1434.62 148.021 1435.84 148.149 1436.73 148.405V161.653C1435.2 160.949 1433.44 160.597 1431.45 160.597C1428.45 160.597 1426.01 161.717 1424.16 163.957C1422.3 166.133 1421.37 169.045 1421.37 172.693V196.981H1407.36L1407.45 148.309H1421.37ZM1467.46 196.981V129.109H1481.48V196.981H1467.46ZM1515.02 197.749C1507.4 197.749 1501.52 195.477 1497.36 190.933C1493.2 186.325 1491.12 180.437 1491.12 173.269C1491.12 165.781 1493.29 159.637 1497.64 154.837C1502 149.973 1507.79 147.541 1515.02 147.541C1522.57 147.541 1528.43 149.877 1532.59 154.549C1536.75 159.221 1538.83 165.173 1538.83 172.405C1538.83 179.765 1536.72 185.845 1532.49 190.645C1528.33 195.381 1522.51 197.749 1515.02 197.749ZM1514.92 158.581C1511.85 158.581 1509.55 159.893 1508.01 162.517C1506.48 165.141 1505.71 168.533 1505.71 172.693C1505.71 176.853 1506.48 180.277 1508.01 182.965C1509.61 185.589 1511.98 186.901 1515.12 186.901C1518.19 186.901 1520.46 185.621 1521.93 183.061C1523.47 180.437 1524.24 177.045 1524.24 172.885C1524.24 163.349 1521.13 158.581 1514.92 158.581ZM1569.58 184.213C1572.59 184.213 1574.93 183.093 1576.59 180.853C1578.32 178.549 1579.18 175.797 1579.18 172.597C1579.18 163.893 1576.02 159.541 1569.68 159.541C1566.86 159.541 1564.66 160.629 1563.06 162.805C1561.46 164.981 1560.66 167.989 1560.66 171.829C1560.66 175.861 1561.42 178.933 1562.96 181.045C1564.5 183.157 1566.7 184.213 1569.58 184.213ZM1579.18 148.309H1593.1V192.277C1593.1 200.085 1590.77 205.941 1586.1 209.845C1581.42 213.813 1575.57 215.797 1568.53 215.797C1561.68 215.797 1555.7 214.581 1550.58 212.149V197.845C1555.06 201.429 1560.56 203.221 1567.09 203.221C1571.31 203.221 1574.38 202.325 1576.3 200.533C1578.22 198.741 1579.18 195.925 1579.18 192.085V188.821C1576.37 193.173 1571.89 195.349 1565.74 195.349C1560.37 195.349 1555.73 193.365 1551.82 189.397C1547.98 185.429 1546.06 179.541 1546.06 171.733C1546.06 164.821 1547.92 159.125 1551.63 154.645C1555.41 150.101 1560.34 147.829 1566.42 147.829C1572.18 147.829 1576.43 150.133 1579.18 154.741V148.309ZM1625.65 197.749C1618.03 197.749 1612.14 195.477 1607.98 190.933C1603.82 186.325 1601.74 180.437 1601.74 173.269C1601.74 165.781 1603.92 159.637 1608.27 154.837C1612.62 149.973 1618.41 147.541 1625.65 147.541C1633.2 147.541 1639.05 149.877 1643.21 154.549C1647.37 159.221 1649.45 165.173 1649.45 172.405C1649.45 179.765 1647.34 185.845 1643.12 190.645C1638.96 195.381 1633.13 197.749 1625.65 197.749ZM1625.55 158.581C1622.48 158.581 1620.17 159.893 1618.64 162.517C1617.1 165.141 1616.33 168.533 1616.33 172.693C1616.33 176.853 1617.1 180.277 1618.64 182.965C1620.24 185.589 1622.61 186.901 1625.74 186.901C1628.81 186.901 1631.09 185.621 1632.56 183.061C1634.09 180.437 1634.86 177.045 1634.86 172.885C1634.86 163.349 1631.76 158.581 1625.55 158.581Z" fill="#DFE5EB"/>
<path d="M984.852 206.975C984.852 188.211 969.663 173 950.926 173C932.189 173 917 188.211 917 206.975C917 225.739 932.189 240.951 950.926 240.951C969.663 240.951 984.852 225.739 984.852 206.975Z" fill="#FF006E" fill-opacity="0.1"/>
<defs>
<clipPath id="clip0_3854_1495">
<rect width="916" height="344" fill="white" transform="translate(0 0.981445)"/>
</clipPath>
</defs>
</svg>
