<svg width="24" height="25" viewBox="0 0 24 25" fill="none" xmlns="http://www.w3.org/2000/svg">
<path d="M20.3303 4.38113C18.7767 3.65425 17.1156 3.12599 15.3789 2.8252C15.1656 3.21081 14.9164 3.72946 14.7446 4.14205C12.8985 3.86441 11.0693 3.86441 9.25716 4.14205C9.08539 3.72946 8.83055 3.21081 8.61536 2.8252C6.87681 3.12599 5.21376 3.65619 3.66019 4.38498C0.526643 9.12018 -0.322811 13.7378 0.101917 18.2898C2.18025 19.8418 4.19441 20.7847 6.17457 21.4016C6.66349 20.7287 7.09953 20.0134 7.47518 19.2596C6.75975 18.9877 6.07453 18.6523 5.42707 18.2628C5.59884 18.1356 5.76686 18.0025 5.92918 17.8656C9.87819 19.7127 14.1689 19.7127 18.0707 17.8656C18.235 18.0025 18.403 18.1356 18.5728 18.2628C17.9235 18.6542 17.2364 18.9897 16.521 19.2615C16.8966 20.0134 17.3308 20.7307 17.8216 21.4035C19.8036 20.7866 21.8197 19.8438 23.898 18.2898C24.3964 13.0128 23.0467 8.43766 20.3303 4.38113ZM8.01318 15.4903C6.82772 15.4903 5.85555 14.3836 5.85555 13.036C5.85555 11.6883 6.80696 10.5797 8.01318 10.5797C9.21942 10.5797 10.1916 11.6863 10.1708 13.036C10.1727 14.3836 9.21942 15.4903 8.01318 15.4903ZM15.9867 15.4903C14.8013 15.4903 13.8291 14.3836 13.8291 13.036C13.8291 11.6883 14.7805 10.5797 15.9867 10.5797C17.193 10.5797 18.1651 11.6863 18.1444 13.036C18.1444 14.3836 17.193 15.4903 15.9867 15.4903Z" fill="#5865F2"/>
</svg>
