<svg width="7" height="36" viewBox="0 0 7 36" fill="none" xmlns="http://www.w3.org/2000/svg">
<path d="M3.5 35.6304L6.38675 32.7437L3.5 29.8569L0.613247 32.7437L3.5 35.6304ZM3 0.743652L3 2.74365L4 2.74365L4 0.743652L3 0.743652ZM3 6.74365L3 10.7437L4 10.7437L4 6.74365L3 6.74365ZM3 14.7437L3 18.7437L4 18.7437L4 14.7437L3 14.7437ZM3 22.7437L3 26.7437L4 26.7437L4 22.7437L3 22.7437ZM3 30.7437L3 32.7437L4 32.7437L4 30.7437L3 30.7437Z" fill="url(#paint0_linear_4106_9606)"/>
<defs>
<linearGradient id="paint0_linear_4106_9606" x1="2.49609" y1="0.743652" x2="12.9585" y2="4.2137" gradientUnits="userSpaceOnUse">
<stop stop-color="#2430F0"/>
<stop offset="0.205097" stop-color="#2BE1B7"/>
<stop offset="0.423094" stop-color="#942FFA"/>
<stop offset="0.610066" stop-color="#FF006E"/>
<stop offset="0.836866" stop-color="#FFD037"/>
<stop offset="1" stop-color="#00CECB"/>
</linearGradient>
</defs>
</svg>
