<svg width="521" height="98" viewBox="0 0 521 98" fill="none" xmlns="http://www.w3.org/2000/svg">
<path fill-rule="evenodd" clip-rule="evenodd" d="M30.6472 0.0688269C17.6823 1.34602 17.2257 20.5388 30.1092 22.6866C30.6929 22.7839 30.8779 22.835 30.8913 22.9027C30.901 22.9515 30.854 23.9193 30.7871 25.0534C30.7201 26.1875 30.6357 28.4175 30.5996 30.0088C30.5635 31.6002 30.5212 32.9115 30.5056 32.9229C30.4901 32.9342 30.2795 33.0406 30.0377 33.1594C29.5848 33.382 28.9891 33.8707 28.7496 34.2163C28.6153 34.4102 28.6153 34.4102 27.7906 34.4371C26.4884 34.4797 25.6947 34.798 24.974 35.5665C24.7742 35.7796 24.5913 35.9307 24.567 35.9025C24.5427 35.8744 23.7913 34.7678 22.8971 33.4434C22.003 32.119 20.9877 30.6276 20.641 30.1293L20.0106 29.2231L20.3805 28.8133C27.2791 21.1701 17.6328 9.65849 9.43015 15.7454C1.26539 21.8042 8.58319 34.5133 17.9709 30.5784C18.0095 30.5622 18.7069 31.4342 19.6204 32.6409C20.4908 33.7907 21.578 35.2083 22.0364 35.7911C22.4948 36.374 22.9085 36.9092 22.9558 36.9806C23.053 37.1271 23.0843 37.1058 22.5592 37.25C21.1032 37.6499 19.7305 38.8583 19.4584 39.9797C19.4227 40.127 19.3641 40.2482 19.3283 40.2492C16.8679 40.3145 14.985 42.1418 14.9584 44.4902C14.9494 45.289 14.9494 45.289 14.6143 45.4879C11.5647 47.2978 7.42734 53.3695 7.13192 56.4687C7.08825 56.9268 7.10547 56.9117 6.502 57.0147C5.14028 57.2471 4.34481 57.7388 3.50602 58.8661C2.44379 60.2941 2.3458 61.5216 3.15577 63.2548C3.43012 63.8422 3.44519 63.7381 2.99294 64.3754C-1.78934 71.1116 -0.793089 79.0166 5.6409 85.3854C9.84892 89.5507 15.7558 92.0903 22.3782 92.5803C24.9068 92.7674 25.1963 92.8626 25.8476 93.7205C30.13 99.3597 33.8264 99.3597 38.1088 93.7205C38.7601 92.8626 39.0496 92.7674 41.5782 92.5803C51.4767 91.8478 59.7584 86.422 62.8627 78.6352C64.8416 73.6719 64.2135 68.9595 60.962 64.3709C60.5112 63.7342 60.5264 63.8411 60.8006 63.2548C61.6105 61.5216 61.5125 60.2941 60.4505 58.8661C59.6117 57.7388 58.816 57.2471 57.4544 57.0147C56.8507 56.9117 56.8682 56.9268 56.8246 56.4687C56.7278 55.4525 55.6398 52.8445 54.6019 51.1396C53.3263 49.0446 50.8481 46.3817 49.3421 45.4879C49.007 45.289 49.007 45.289 48.9979 44.4902C48.9714 42.1418 47.0885 40.3145 44.6281 40.2492C44.5923 40.2482 44.5337 40.127 44.498 39.9797C44.2259 38.8583 42.8532 37.6499 41.3972 37.25C40.8721 37.1058 40.9034 37.1271 41.0006 36.9806C41.0478 36.9092 41.4616 36.374 41.92 35.7911C42.3784 35.2083 43.4656 33.7907 44.336 32.6409C45.2495 31.4342 45.9469 30.5622 45.9855 30.5784C55.3732 34.5133 62.6911 21.8042 54.5262 15.7454C46.3235 9.65849 36.6773 21.1701 43.5758 28.8133L43.9458 29.2231L43.3154 30.1293C42.9687 30.6276 41.9534 32.119 41.0593 33.4434C40.1651 34.7678 39.4137 35.8744 39.3894 35.9025C39.3651 35.9307 39.1822 35.7796 38.9823 35.5665C38.2617 34.798 37.468 34.4797 36.1658 34.4371C35.3411 34.4102 35.3411 34.4102 35.2087 34.219C34.8617 33.7184 34.0622 33.1498 33.4155 32.9436C33.1253 32.8511 33.1253 32.8511 33.1323 29.4513C33.1361 27.5813 33.1265 25.3231 33.1109 24.433L33.0826 22.8145L33.8472 22.6868C48.3373 20.2667 45.2758 -1.37222 30.6472 0.0688269ZM30.291 2.87012C25.3199 3.7681 22.0529 8.36444 22.9446 12.8628C23.0089 13.1872 23.0948 13.5111 23.2033 13.8331C25.8009 21.5419 38.1555 21.5419 40.753 13.8331C40.8628 13.5076 40.9495 13.1818 41.0144 12.8569C42.1526 7.15949 36.5778 1.73452 30.291 2.87012ZM13.5994 16.9817C9.92816 17.6605 7.75544 21.3854 8.66073 24.544C8.83478 25.1512 9.12261 25.7375 9.53543 26.2772C12.4561 30.0955 17.7152 29.7103 19.882 25.5194C20.0717 25.1526 20.2166 24.7789 20.3202 24.403C21.415 20.427 17.8778 16.1907 13.5994 16.9817ZM48.3834 16.9849C44.7211 17.6391 42.8231 21.2129 43.6409 24.3975C43.9142 25.4617 44.4909 26.4826 45.4063 27.3364C48.0396 29.7926 52.0966 29.3159 54.421 26.2772C54.8342 25.7369 55.1207 25.1588 55.2948 24.5648C56.4238 20.7128 52.8241 16.1916 48.3834 16.9849ZM31.362 34.7628C29.5698 35.079 28.991 36.7375 29.9445 38.8251C30.2284 39.4467 30.2284 39.4467 30.6642 39.4512C31.0555 39.4552 31.1446 39.4783 31.539 39.6775C31.9782 39.8994 31.9782 39.8994 32.4174 39.6775C32.8118 39.4783 32.9009 39.4552 33.2922 39.4512C33.7279 39.4467 33.7279 39.4467 34.0116 38.8251C35.1813 36.2617 33.9104 34.3133 31.362 34.7628ZM26.7648 36.4037C25.2964 36.7952 24.8728 38.5768 25.8042 40.4434C26.1898 41.2162 26.1134 41.1555 26.5802 41.0593C26.8826 40.9969 27.0496 40.9903 27.2569 41.0326C27.9375 41.1712 27.8541 41.1937 28.1426 40.7939C28.286 40.5952 28.5245 40.3316 28.6726 40.208C28.9419 39.9832 28.9419 39.9832 28.7642 39.7093C28.2795 38.9621 28.0755 38.2445 28.0296 37.1254C27.9951 36.2828 27.7476 36.1416 26.7648 36.4037ZM35.927 37.1186C35.8809 38.245 35.678 38.9605 35.1922 39.7093C35.0145 39.9832 35.0145 39.9832 35.2838 40.208C35.4319 40.3316 35.6704 40.5952 35.8138 40.7939C36.1023 41.1937 36.0189 41.1712 36.6995 41.0326C36.9068 40.9903 37.0738 40.9969 37.3762 41.0593C37.843 41.1555 37.7666 41.2162 38.1522 40.4434C39.2408 38.2617 38.529 36.4184 36.5671 36.3385L35.96 36.3138L35.927 37.1186ZM22.7463 38.5994C20.5518 39.1672 19.7719 41.7939 21.2551 43.6214C21.6086 44.057 21.5848 44.0495 21.9384 43.8382C22.4878 43.51 23.1071 43.4044 23.8293 43.5158C24.091 43.5561 24.091 43.5561 24.1573 43.2958C24.2687 42.8583 24.5964 42.2875 24.9521 41.9116C25.2903 41.5542 25.2903 41.5542 25.0599 41.2509C24.5571 40.5895 24.11 39.3252 24.1059 38.5534C24.1055 38.4803 23.0712 38.5153 22.7463 38.5994ZM39.8505 38.5534C39.8463 39.3252 39.3992 40.5895 38.8965 41.2509C38.6661 41.5542 38.6661 41.5542 39.0043 41.9116C39.3599 42.2875 39.6877 42.8583 39.7991 43.2958C39.8654 43.5561 39.8654 43.5561 40.1271 43.5158C40.8493 43.4044 41.4686 43.51 42.018 43.8382C42.3716 44.0495 42.3478 44.057 42.7013 43.6214C43.9374 42.0984 43.5689 39.6714 41.9853 38.905C41.3053 38.5759 39.8517 38.3365 39.8505 38.5534ZM29.7823 41.226C28.2407 41.9355 28.1008 43.6657 29.425 45.6435C29.8322 46.2516 29.8322 46.2516 29.9909 46.0042C30.8347 44.6887 33.1217 44.6887 33.9655 46.0042C34.195 46.362 35.119 44.998 35.3537 43.9547C35.7727 42.0926 33.9355 40.1987 32.8969 41.4221C32.676 41.6824 32.4046 42.1603 32.2974 42.4778C32.0898 43.0928 31.8666 43.0928 31.659 42.4778C31.493 41.9861 31.1431 41.4559 30.8236 41.2121C30.5965 41.0388 30.1769 41.0444 29.7823 41.226ZM18.8384 41.6039C16.0378 41.9677 15.5262 45.9479 18.0611 47.65C18.6008 48.0123 20.141 48.6513 20.141 48.5128C20.141 48.5043 20.0901 48.3003 20.0278 48.0594C19.7621 47.0324 20.0395 45.7398 20.6993 44.9304C20.8762 44.7134 20.8762 44.7134 20.432 44.2494C19.7738 43.5619 19.4175 42.8228 19.3193 41.9413C19.273 41.5255 19.2993 41.5439 18.8384 41.6039ZM44.6912 41.6143C44.6802 41.6479 44.6441 41.8579 44.611 42.081C44.4797 42.9651 44.1639 43.5892 43.5006 44.2757C43.079 44.7119 43.079 44.7119 43.2565 44.9297C43.9169 45.7398 44.1944 47.032 43.9286 48.0594C43.8663 48.3003 43.8154 48.5043 43.8154 48.5128C43.8154 48.6513 45.3556 48.0123 45.8952 47.65C48.1411 46.142 48.1021 42.8592 45.826 41.8098C45.4506 41.6368 44.7246 41.5117 44.6912 41.6143ZM26.5751 42.3259C24.7937 42.5794 24.4305 45.4707 25.9361 47.4129C26.0664 47.5809 26.1901 47.7431 26.2111 47.7734C26.2338 47.806 26.3376 47.7683 26.466 47.6807C27.1916 47.1858 28.0696 47.0783 29.3958 47.322C29.4398 47.3301 29.6801 46.7384 29.6417 46.7164C28.1995 45.8924 27.3765 44.4298 27.4595 42.8381C27.4835 42.3767 27.4835 42.3767 27.2813 42.3432C27.1701 42.3247 27.0408 42.3026 26.9941 42.294C26.9474 42.2854 26.7589 42.2998 26.5751 42.3259ZM36.9339 42.2951C36.9028 42.3034 36.7863 42.3252 36.6751 42.3435C36.4729 42.3767 36.4729 42.3767 36.4969 42.8381C36.5799 44.4298 35.7569 45.8924 34.3146 46.7164C34.2762 46.7384 34.5166 47.3301 34.5606 47.322C35.8868 47.0783 36.7648 47.1858 37.4904 47.6807C37.6188 47.7683 37.7226 47.806 37.7453 47.7734C37.7663 47.7431 37.89 47.5809 38.0203 47.4129C39.1269 45.9854 39.2616 43.5659 38.2819 42.7133C37.9788 42.4495 37.2274 42.2164 36.9339 42.2951ZM22.9617 44.6378C20.7785 45.2189 20.6256 48.202 22.6811 50.1117C24.1667 51.492 22.7158 51.1684 21.0976 49.7586C20.6589 49.3763 20.6589 49.3763 20.3245 49.4109C18.9589 49.552 16.8553 48.358 15.7336 46.8051C15.4748 46.4467 15.4748 46.4467 15.3102 46.6371C12.9781 49.3326 11.6508 51.7462 10.1393 56.0392C9.76521 57.1021 9.76147 57.0192 10.187 57.0993C17.4495 58.4623 22.2416 66.113 22.3909 76.5834C22.4234 78.8698 22.3657 78.7326 23.1701 78.4353C23.6613 78.2533 23.7608 78.115 24.1621 77.0582C25.9984 72.221 27.5444 70.303 30.1344 69.6483C30.6704 69.5128 30.6547 69.5229 30.7005 69.2815C30.804 68.7361 31.3863 67.3081 31.5961 67.0852C32.1021 66.5482 32.9502 67.6704 33.2559 69.2815C33.3017 69.5229 33.286 69.5128 33.822 69.6483C36.412 70.303 37.9579 72.221 39.7943 77.0582C40.1956 78.115 40.2951 78.2533 40.7863 78.4353C41.5907 78.7326 41.5329 78.8698 41.5655 76.5834C41.7148 66.1125 46.5064 58.4623 53.7693 57.0993C54.1949 57.0192 54.1912 57.1021 53.8171 56.0392C52.3056 51.7462 50.9783 49.3326 48.6462 46.6371C48.4816 46.4467 48.4816 46.4467 48.2228 46.8051C47.1011 48.358 44.9975 49.552 43.6319 49.4109C43.2975 49.3763 43.2975 49.3763 42.8588 49.7586C41.2406 51.1684 39.7896 51.492 41.2753 50.1117C42.7584 48.7338 43.1328 47.311 42.3929 45.8642C41.8067 44.7177 39.9983 44.0306 39.8834 44.9107C39.6997 46.3185 39.1368 47.4015 38.289 47.9783C38.0421 48.1463 38.0421 48.1463 38.2526 48.5228C38.7369 49.3892 38.4976 50.5152 37.6489 51.3635C36.9308 52.0812 36.3539 52.1282 37.0128 51.4153C37.8772 50.4802 37.8171 49.3403 36.889 49.0678C36.3338 48.9047 34.5835 48.9739 34.5835 49.1589C34.5835 49.5796 34.0209 50.873 33.6869 51.2202C33.2726 51.6508 33.1858 51.4641 33.4711 50.756C34.3452 48.587 33.6166 46.5195 31.9782 46.5195C30.3397 46.5195 29.6112 48.587 30.4852 50.756C30.7706 51.4641 30.6838 51.6508 30.2695 51.2202C29.9355 50.873 29.3729 49.5796 29.3729 49.1589C29.3729 48.9739 27.6226 48.9047 27.0674 49.0678C26.1392 49.3403 26.0791 50.4802 26.9435 51.4153C27.6025 52.1282 27.0256 52.0812 26.3075 51.3635C25.4587 50.5152 25.2195 49.3892 25.7038 48.5228C25.9143 48.1463 25.9143 48.1463 25.6673 47.9783C24.8204 47.4022 24.2566 46.3182 24.0734 44.9142C24.0433 44.6834 24.0113 44.6186 23.9149 44.593C23.7159 44.5402 23.2453 44.5623 22.9617 44.6378ZM7.34941 58.501C4.00737 59.0257 4.51002 62.6657 8.34571 65.7154C9.5633 66.6837 9.58539 66.6971 11.5322 67.6889C18.7089 71.3451 20.5941 73.5918 20.5941 78.4902C20.5941 78.8267 20.8359 78.9298 21.1747 78.7371C21.2357 78.7024 21.226 76.3594 21.1597 75.1072C20.8481 69.2272 18.4656 63.7308 15.0503 61.0137C12.7912 59.2161 9.54376 58.1566 7.34941 58.501ZM54.8879 58.4825C48.6903 59.1349 43.9779 64.9986 42.9392 73.3499C42.774 74.6794 42.6574 78.666 42.7817 78.7371C43.1205 78.9298 43.3623 78.8267 43.3623 78.4902C43.3623 73.5913 45.2462 71.3457 52.4242 67.6889C54.371 66.6971 54.3931 66.6837 55.6107 65.7154C60.2076 62.0609 59.7981 57.9656 54.8879 58.4825ZM4.92171 65.9652C2.31471 68.7753 1.54643 74.5791 3.23348 78.7192C5.60142 84.5309 13.3492 89.9338 20.1693 90.5302C23.26 90.8001 23.9616 90.7542 23.666 90.2989C23.1812 89.5535 21.5195 86.5301 20.5486 84.6272C20.2971 84.1344 19.9069 83.4417 19.6814 83.0872C18.6685 81.4962 18.5942 80.3398 19.4468 79.4388C19.9516 78.9051 19.6345 76.3812 18.871 74.8546C18.4936 74.0998 18.5196 74.1076 18.1604 74.6452C14.0283 80.8293 5.59802 76.0967 5.76889 67.6894C5.795 66.4065 5.795 66.4065 5.43734 66.1226C5.01987 65.7922 5.06874 65.8067 4.92171 65.9652ZM58.5068 66.1265C58.1613 66.4065 58.1613 66.4065 58.1873 67.6894C58.3584 76.0967 49.928 80.8287 45.796 74.6452C45.4368 74.1076 45.4628 74.0998 45.0853 74.8546C44.3219 76.3812 44.0048 78.9051 44.5096 79.4388C45.3622 80.3398 45.2879 81.4962 44.275 83.0872C44.0495 83.4417 43.6593 84.1344 43.4078 84.6272C42.4369 86.5301 40.7752 89.5535 40.2904 90.2989C39.9929 90.757 39.9097 90.7351 41.6502 90.6545C45.2799 90.487 46.7898 90.1555 49.7339 88.8798C60.3792 84.2688 64.708 74.4727 59.5432 66.682C58.9049 65.7188 58.9678 65.753 58.5068 66.1265ZM7.20255 67.4772C6.65362 69.2787 7.74026 72.674 9.42301 74.4156C9.94549 74.956 9.97686 74.9594 9.7681 74.4526C8.92913 72.4142 9.23673 69.8863 10.4215 69.0838C10.6406 68.9354 10.2405 68.6862 8.70032 68.0131C8.34209 67.8563 7.87761 67.6435 7.66811 67.5399C7.21591 67.3159 7.25029 67.321 7.20255 67.4772ZM56.3605 67.503C56.2047 67.583 55.7205 67.8076 55.2844 68.0019C53.6014 68.7501 53.3089 68.931 53.534 69.0833C54.7197 69.8863 55.0276 72.413 54.1883 74.4526C53.9795 74.9594 54.0109 74.956 54.5334 74.4156C56.2161 72.674 57.3027 69.2787 56.7538 67.4772C56.7068 67.3232 56.7091 67.3232 56.3605 67.503ZM31.3078 70.9386C29.1406 71.3222 27.1122 73.6445 25.5392 77.5432C24.7506 79.4982 24.3404 79.781 21.7269 80.1741C20.007 80.4328 19.8936 80.8472 21.0756 82.5524C21.9302 83.7855 22.974 85.489 24.0765 87.449C26.0468 90.953 26.7738 92.115 27.7758 93.3632C31.2315 97.669 34.1851 96.9629 37.8492 90.9552C38.5707 89.7725 38.6608 89.6168 39.8799 87.449C40.9824 85.489 42.0262 83.7855 42.8808 82.5524C44.0628 80.8472 43.9494 80.4328 42.2295 80.1741C39.6159 79.781 39.2058 79.4982 38.4172 77.5432C36.5208 72.8431 33.9644 70.4682 31.3078 70.9386ZM25.55 80.2077C25.0207 80.4804 24.8298 81.004 25.0762 81.5074C25.2716 81.9062 25.8097 82.105 26.1408 81.9006C26.2319 81.8446 26.3007 81.8653 26.579 82.0338C27.574 82.6353 27.9533 82.5188 27.644 81.7062C27.172 80.4664 26.2826 79.8302 25.55 80.2077ZM37.4328 80.2329C36.8255 80.5381 36.0489 81.8423 36.2395 82.2377C36.3773 82.5233 36.6478 82.4751 37.3774 82.0338C37.6557 81.8653 37.7245 81.8446 37.8156 81.9006C38.1467 82.105 38.6848 81.9062 38.8802 81.5074C39.3022 80.6456 38.3245 79.7843 37.4328 80.2329Z" fill="#22110C"/>
<path d="M36.934 42.2948C36.9028 42.3032 36.7863 42.3249 36.6752 42.3432C36.473 42.3765 36.473 42.3765 36.497 42.8378C36.5799 44.4295 35.757 45.8921 34.3147 46.7162C34.2763 46.7381 34.5166 47.3298 34.5606 47.3218C35.8868 47.078 36.7649 47.1855 37.4904 47.6804C37.6188 47.768 37.7227 47.8058 37.7453 47.7732C37.7663 47.7429 37.8901 47.5806 38.0203 47.4126C39.1269 45.9851 39.2616 43.5657 38.2819 42.713C37.9789 42.4493 37.2274 42.2161 36.934 42.2948Z" fill="#2430F0"/>
<path d="M44.6914 41.6142C44.6804 41.6478 44.6444 41.8578 44.6112 42.0809C44.4799 42.965 44.1641 43.5891 43.5008 44.2756C43.0793 44.7118 43.0793 44.7118 43.2567 44.9296C43.9171 45.7398 44.1946 47.032 43.9289 48.0593C43.8666 48.3002 43.8156 48.5042 43.8156 48.5127C43.8156 48.6512 45.3558 48.0122 45.8955 47.6499C48.1413 46.1419 48.1024 42.8591 45.8262 41.8097C45.4508 41.6367 44.7249 41.5116 44.6914 41.6142Z" fill="#2430F0"/>
<path d="M39.8496 38.5538C39.8454 39.3256 39.3983 40.5899 38.8956 41.2514C38.6652 41.5546 38.6652 41.5546 39.0034 41.912C39.359 42.2879 39.6868 42.8587 39.7982 43.2962C39.8645 43.5565 39.8645 43.5565 40.1262 43.5162C40.8484 43.4048 41.4677 43.5104 42.0171 43.8386C42.3707 44.0499 42.3469 44.0574 42.7004 43.6218C43.9365 42.0989 43.568 39.6718 41.9844 38.9054C41.3044 38.5763 39.8508 38.3369 39.8496 38.5538Z" fill="#2430F0"/>
<path d="M35.9267 37.1183C35.8806 38.2447 35.6777 38.9602 35.1919 39.709C35.0143 39.9829 35.0143 39.9829 35.2836 40.2077C35.4317 40.3313 35.6702 40.595 35.8135 40.7936C36.102 41.1934 36.0186 41.1709 36.6992 41.0323C36.9066 40.99 37.0735 40.9966 37.376 41.059C37.8428 41.1552 37.7663 41.2159 38.1519 40.4431C39.2405 38.2614 38.5288 36.4181 36.5668 36.3382L35.9597 36.3135L35.9267 37.1183Z" fill="#2430F0"/>
<path d="M31.3629 34.763C29.5706 35.0792 28.9918 36.7377 29.9454 38.8252C30.2293 39.4469 30.2293 39.4469 30.665 39.4514C31.0564 39.4554 31.1454 39.4784 31.5399 39.6777C31.979 39.8995 31.979 39.8995 32.4182 39.6777C32.8127 39.4784 32.9017 39.4554 33.2931 39.4514C33.7288 39.4469 33.7288 39.4469 34.0125 38.8252C35.1822 36.2619 33.9113 34.3134 31.3629 34.763Z" fill="#2430F0"/>
<path d="M29.7828 41.2264C28.2413 41.9359 28.1014 43.6661 29.4256 45.6439C29.8328 46.252 29.8328 46.252 29.9915 46.0046C30.8353 44.6891 33.1223 44.6891 33.9661 46.0046C34.1956 46.3624 35.1195 44.9984 35.3542 43.9551C35.7732 42.093 33.9361 40.1991 32.8975 41.4225C32.6765 41.6828 32.4051 42.1607 32.298 42.4782C32.0904 43.0932 31.8671 43.0932 31.6596 42.4782C31.4936 41.9865 31.1437 41.4563 30.8242 41.2125C30.5971 41.0392 30.1774 41.0448 29.7828 41.2264Z" fill="#2430F0"/>
<path d="M26.5747 42.3264C24.7933 42.5799 24.4301 45.4711 25.9357 47.4134C26.066 47.5814 26.1897 47.7436 26.2107 47.7739C26.2334 47.8065 26.3372 47.7688 26.4656 47.6812C27.1912 47.1862 28.0692 47.0788 29.3954 47.3225C29.4394 47.3306 29.6798 46.7389 29.6414 46.7169C28.1991 45.8929 27.3761 44.4303 27.4591 42.8386C27.4831 42.3772 27.4831 42.3772 27.2809 42.3436C27.1697 42.3252 27.0405 42.3031 26.9937 42.2945C26.947 42.2859 26.7585 42.3002 26.5747 42.3264Z" fill="#2430F0"/>
<path d="M22.7455 38.5994C20.551 39.1672 19.771 41.7939 21.2542 43.6214C21.6078 44.057 21.5839 44.0495 21.9376 43.8382C22.4869 43.51 23.1062 43.4043 23.8285 43.5157C24.0901 43.5561 24.0901 43.5561 24.1564 43.2958C24.2678 42.8583 24.5956 42.2875 24.9512 41.9116C25.2894 41.5542 25.2894 41.5542 25.059 41.2509C24.5563 40.5895 24.1092 39.3251 24.105 38.5534C24.1046 38.4803 23.0704 38.5153 22.7455 38.5994Z" fill="#2430F0"/>
<path d="M26.7647 36.4042C25.2963 36.7957 24.8727 38.5772 25.8041 40.4439C26.1897 41.2166 26.1133 41.156 26.5801 41.0597C26.8825 40.9974 27.0495 40.9908 27.2568 41.0331C27.9374 41.1717 27.854 41.1942 28.1425 40.7944C28.2859 40.5957 28.5244 40.3321 28.6725 40.2085C28.9418 39.9837 28.9418 39.9837 28.7641 39.7098C28.2794 38.9626 28.0754 38.245 28.0295 37.1259C27.995 36.2833 27.7475 36.1421 26.7647 36.4042Z" fill="#2430F0"/>
<path d="M18.8384 41.6034C16.0378 41.9673 15.5262 45.9474 18.0611 47.6495C18.6008 48.0119 20.141 48.6508 20.141 48.5124C20.141 48.5038 20.0901 48.2998 20.0278 48.059C19.7621 47.032 20.0395 45.7393 20.6993 44.93C20.8762 44.7129 20.8762 44.7129 20.432 44.249C19.7739 43.5615 19.4175 42.8223 19.3193 41.9409C19.273 41.5251 19.2993 41.5435 18.8384 41.6034Z" fill="#2430F0"/>
<path d="M54.8888 58.4829C48.6912 59.1353 43.9787 64.999 42.9401 73.3503C42.7748 74.6797 42.6582 78.6664 42.7826 78.7375C43.1214 78.9301 43.3631 78.8271 43.3631 78.4905C43.3631 73.5917 45.2471 71.3461 52.425 67.6893C54.3718 66.6975 54.3939 66.6841 55.6115 65.7158C60.2084 62.0613 59.7989 57.966 54.8888 58.4829Z" fill="#2BE1B7"/>
<path d="M58.5064 66.126C58.161 66.406 58.161 66.406 58.187 67.689C58.3581 76.0963 49.9277 80.8283 45.7957 74.6448C45.4365 74.1072 45.4625 74.0993 45.085 74.8542C44.3216 76.3808 44.0045 78.9047 44.5093 79.4384C45.3619 80.3394 45.2876 81.4958 44.2747 83.0868C44.0492 83.4412 43.659 84.134 43.4075 84.6268C42.4366 86.5296 40.7749 89.5531 40.2901 90.2984C39.9926 90.7565 39.9093 90.7347 41.6499 90.654C45.2796 90.4866 46.7895 90.1551 49.7336 88.8794C60.3789 84.2684 64.7077 74.4723 59.5429 66.6816C58.9046 65.7184 58.9675 65.7525 58.5064 66.126Z" fill="#2BE1B7"/>
<path d="M4.92228 65.9651C2.31527 68.7752 1.54699 74.579 3.23404 78.7191C5.60199 84.5308 13.3497 89.9336 20.1699 90.53C23.2605 90.8 23.9622 90.754 23.6665 90.2988C23.1818 89.5534 21.52 86.53 20.5492 84.6271C20.2977 84.1343 19.9075 83.4416 19.682 83.0871C18.6691 81.4961 18.5947 80.3397 19.4474 79.4387C19.9521 78.905 19.6351 76.3811 18.8716 74.8545C18.4941 74.0996 18.5202 74.1075 18.1609 74.6451C14.0289 80.8292 5.59859 76.0966 5.76946 67.6893C5.79557 66.4064 5.79557 66.4064 5.43791 66.1224C5.02044 65.792 5.06931 65.8066 4.92228 65.9651Z" fill="#2BE1B7"/>
<path d="M7.34972 58.5012C4.00768 59.0259 4.51034 62.6659 8.34603 65.7157C9.56361 66.6839 9.5857 66.6973 11.5325 67.6891C18.7092 71.3453 20.5944 73.5921 20.5944 78.4904C20.5944 78.8269 20.8362 78.93 21.175 78.7373C21.236 78.7026 21.2263 76.3596 21.16 75.1074C20.8485 69.2274 18.466 63.731 15.0506 61.0139C12.7915 59.2163 9.54407 58.1568 7.34972 58.5012Z" fill="#2BE1B7"/>
<path d="M22.9619 44.6377C20.7787 45.2188 20.6258 48.2019 22.6813 50.1116C24.167 51.4919 22.716 51.1683 21.0978 49.7585C20.6591 49.3762 20.6591 49.3762 20.3247 49.4108C18.9591 49.5519 16.8555 48.3579 15.7338 46.805C15.475 46.4466 15.475 46.4466 15.3104 46.637C12.9783 49.3325 11.651 51.7461 10.1395 56.0391C9.76542 57.102 9.76168 57.0191 10.1873 57.0992C17.4497 58.4622 22.2419 66.1129 22.3911 76.5832C22.4237 78.8697 22.3659 78.7325 23.1703 78.4352C23.6615 78.2532 23.761 78.1148 24.1623 77.0581C25.9987 72.2208 27.5446 70.3028 30.1346 69.6482C30.6706 69.5127 30.6549 69.5228 30.7007 69.2814C30.8042 68.736 31.3865 67.308 31.5963 67.0851C32.1023 66.548 32.9504 67.6703 33.2561 69.2814C33.3019 69.5228 33.2862 69.5127 33.8222 69.6482C36.4122 70.3028 37.9582 72.2208 39.7945 77.0581C40.1958 78.1148 40.2953 78.2532 40.7865 78.4352C41.5909 78.7325 41.5332 78.8697 41.5657 76.5832C41.715 66.1124 46.5066 58.4622 53.7696 57.0992C54.1951 57.0191 54.1914 57.102 53.8173 56.0391C52.3058 51.7461 50.9785 49.3325 48.6464 46.637C48.4818 46.4466 48.4818 46.4466 48.223 46.805C47.1013 48.3579 44.9977 49.5519 43.6321 49.4108C43.2977 49.3762 43.2977 49.3762 42.859 49.7585C41.2408 51.1683 39.7899 51.4919 41.2755 50.1116C42.7586 48.7337 43.133 47.3109 42.3931 45.8641C41.8069 44.7176 39.9985 44.0304 39.8837 44.9105C39.6999 46.3184 39.137 47.4014 38.2893 47.9782C38.0423 48.1462 38.0423 48.1462 38.2528 48.5227C38.7371 49.3891 38.4979 50.5151 37.6491 51.3634C36.931 52.0811 36.3541 52.1281 37.0131 51.4152C37.8774 50.4801 37.8174 49.3401 36.8892 49.0676C36.334 48.9046 34.5837 48.9738 34.5837 49.1588C34.5837 49.5795 34.0211 50.8729 33.6871 51.2201C33.2728 51.6507 33.186 51.4639 33.4714 50.7559C34.3454 48.5869 33.6169 46.5194 31.9784 46.5194C30.3399 46.5194 29.6114 48.5869 30.4854 50.7559C30.7708 51.4639 30.684 51.6507 30.2697 51.2201C29.9357 50.8729 29.3731 49.5795 29.3731 49.1588C29.3731 48.9738 27.6228 48.9046 27.0676 49.0676C26.1395 49.3401 26.0794 50.4801 26.9438 51.4152C27.6027 52.1281 27.0258 52.0811 26.3077 51.3634C25.459 50.5151 25.2197 49.3891 25.704 48.5227C25.9145 48.1462 25.9145 48.1462 25.6676 47.9782C24.8207 47.402 24.2568 46.318 24.0736 44.9141C24.0435 44.6833 24.0115 44.6184 23.9151 44.5929C23.7161 44.5401 23.2455 44.5622 22.9619 44.6377Z" fill="#2430F0"/>
<path fill-rule="evenodd" clip-rule="evenodd" d="M31.3087 70.9385C29.1414 71.3221 27.1131 73.6444 25.5401 77.5431C24.7514 79.4981 24.3413 79.7809 21.7277 80.174C20.0079 80.4327 19.8945 80.8471 21.0764 82.5523C21.931 83.7855 22.9749 85.489 24.0773 87.449C26.0476 90.9529 26.7747 92.1149 27.7766 93.3631C31.2323 97.669 34.186 96.9628 37.8501 90.9551C38.5716 89.7724 38.6616 89.6167 39.8808 87.449C40.9832 85.489 42.027 83.7855 42.8816 82.5523C44.0636 80.8471 43.9502 80.4327 42.2304 80.174C39.6168 79.7809 39.2067 79.4981 38.418 77.5431C36.5217 72.8431 33.9653 70.4681 31.3087 70.9385ZM25.0771 81.5074C24.8306 81.0039 25.0215 80.4803 25.5508 80.2076C26.2835 79.8302 27.1729 80.4663 27.6448 81.7062C27.9542 82.5187 27.5749 82.6352 26.5799 82.0338C26.3016 81.8652 26.2327 81.8445 26.1417 81.9005C25.8105 82.1049 25.2725 81.9061 25.0771 81.5074ZM36.2403 82.2376C36.0498 81.8423 36.8263 80.538 37.4336 80.2328C38.3253 79.7843 39.303 80.6455 38.881 81.5074C38.6856 81.9061 38.1476 82.1049 37.8164 81.9005C37.7253 81.8445 37.6565 81.8652 37.3782 82.0338C36.6486 82.4751 36.3782 82.5232 36.2403 82.2376Z" fill="#F2C79C"/>
<path fill-rule="evenodd" clip-rule="evenodd" d="M20.3196 24.4032C19.566 21.5956 17.2185 19.3841 14.029 19.9738C11.4981 20.4418 9.24924 22.3645 8.66016 24.5442C8.8342 25.1514 9.12203 25.7377 9.53486 26.2774C12.4555 30.0957 17.7146 29.7105 19.8815 25.5196C20.0711 25.1528 20.2161 24.7791 20.3196 24.4032Z" fill="#2430F0"/>
<path fill-rule="evenodd" clip-rule="evenodd" d="M23.2041 13.8336C23.0956 13.5116 23.0097 13.1876 22.9453 12.8632C23.605 9.48796 26.8659 6.55905 30.7219 5.86247C35.8827 4.93029 40.1335 8.42609 41.0152 12.8573C40.9502 13.1822 40.8635 13.508 40.7538 13.8336C38.1562 21.5423 25.8016 21.5423 23.2041 13.8336Z" fill="#2430F0"/>
<path d="M48.3837 16.985C44.7214 17.6393 42.8234 21.213 43.6412 24.3977C44.1822 22.2634 46.2962 20.4267 48.8138 19.9769C52.114 19.3874 54.5196 21.7402 55.2951 24.565C56.4241 20.7129 52.8244 16.1917 48.3837 16.985Z" fill="#2430F0"/>
<path d="M22.9454 12.8632C23.6051 9.48793 26.8659 6.55902 30.722 5.86243C35.8827 4.93026 40.1336 8.42606 41.0153 12.8573C42.1534 7.1599 36.5786 1.73493 30.2919 2.87053C25.3207 3.76851 22.0537 8.36485 22.9454 12.8632Z" fill="#2430F0"/>
<path d="M14.0289 19.9737C17.2184 19.3841 19.566 21.5956 20.3195 24.4031C21.4144 20.4272 17.8772 16.1908 13.5988 16.9818C9.92753 17.6607 7.75481 21.3856 8.6601 24.5441C9.24919 22.3644 11.498 20.4417 14.0289 19.9737Z" fill="#2430F0"/>
<path d="M45.406 27.3366C48.0394 29.7928 52.0963 29.3162 54.4207 26.2774C54.8339 25.7371 55.1204 25.1591 55.2945 24.5651C54.519 21.7402 52.1134 19.3875 48.8132 19.977C46.2956 20.4268 44.1816 22.2634 43.6406 24.3977C43.914 25.462 44.4906 26.4828 45.406 27.3366Z" fill="#2430F0"/>
<path fill-rule="evenodd" clip-rule="evenodd" d="M24.3135 9.82214C25.7542 7.84383 28.1023 6.33642 30.726 5.86243C34.6523 5.15324 38.0519 7.00702 39.8419 9.88581C40.1832 9.54628 40.4952 9.20121 40.753 8.8632C39.4215 4.92102 35.0634 2.00936 30.2959 2.87053C27.0022 3.4655 24.4566 5.68402 23.373 8.42186C23.6075 8.86863 23.9385 9.34799 24.3135 9.82214Z" fill="#F2C79C"/>
<path d="M24.3145 9.82217C25.5935 11.4395 27.3842 12.9968 27.6 12.9968C27.7633 12.9968 28.6662 12.1296 29.604 11.2291C30.6168 10.2564 31.6702 9.24475 31.8761 9.24475C32.0743 9.24475 32.9239 10.1828 33.7734 11.1208C34.623 12.0588 35.4725 12.9968 35.6708 12.9968C35.9236 12.9968 38.2158 11.5044 39.8429 9.88584C38.0529 7.00705 34.6532 5.15327 30.727 5.86247C28.1033 6.33645 25.7551 7.84386 24.3145 9.82217Z" fill="#2BE1B7"/>
<path d="M8.6902 24.3862C9.34266 22.2722 11.5437 20.4304 14.0132 19.9737C15.9016 19.6246 17.4949 20.2574 18.6369 21.4144C18.849 20.6387 19.0026 19.7125 18.9847 18.9348C17.7029 17.4595 15.7369 16.5836 13.5831 16.9818C9.99858 17.6446 7.84263 21.2114 8.58548 24.3195C8.61992 24.3419 8.65486 24.3641 8.6902 24.3862Z" fill="#2BE1B7"/>
<path d="M8.69141 24.3862C10.0803 25.2535 11.9738 25.6322 12.4726 25.3445C12.8588 25.1218 13.0376 23.9984 13.0797 22.8414C13.1116 21.9621 13.1403 21.1749 13.3114 21.0298C13.5006 20.8694 14.4183 21.3912 15.3908 21.9442C16.4566 22.5501 17.6605 23.0786 17.9715 22.9029C18.1938 22.7773 18.4128 22.2382 18.6381 21.4144C17.4961 20.2574 15.9028 19.6247 14.0145 19.9738C11.5449 20.4304 9.34387 22.2722 8.69141 24.3862Z" fill="#2BE1B7"/>
<path fill-rule="evenodd" clip-rule="evenodd" d="M44.062 20.3885C44.147 21.0045 45.931 24.3085 46.4124 24.4205C46.6731 24.4811 47.565 23.8521 48.3819 23.2758C49.0735 22.788 49.7115 22.338 49.8673 22.3765C50.0094 22.4116 50.2802 22.8334 50.5969 23.3267C51.0377 24.0133 51.5674 24.8384 51.9629 24.9525C52.4751 25.1002 54.5154 24.0392 55.5138 23.3278C55.668 19.8163 52.3694 16.2756 48.3983 16.985C46.3245 17.3555 44.8165 18.6619 44.0469 20.3038C44.0527 20.3296 44.0578 20.3578 44.062 20.3885Z" fill="#2BE1B7"/>
<path d="M56.3596 67.5025C56.2038 67.5826 55.7196 67.8071 55.2835 68.0014C53.6005 68.7496 53.308 68.9305 53.5331 69.0828C54.7188 69.8858 55.0267 72.4126 54.1874 74.4521C53.9786 74.9589 54.01 74.9555 54.5325 74.4151C56.2152 72.6735 57.3018 69.2782 56.7529 67.4767C56.7059 67.3227 56.7082 67.3227 56.3596 67.5025Z" fill="#F1F1F1"/>
<path d="M7.20212 67.4773C6.65319 69.2788 7.73983 72.6741 9.42258 74.4157C9.94506 74.9561 9.97643 74.9595 9.76767 74.4527C8.9287 72.4143 9.2363 69.8864 10.421 69.0839C10.6402 68.9355 10.24 68.6863 8.69989 68.0132C8.34166 67.8564 7.87718 67.6436 7.66768 67.54C7.21549 67.316 7.24986 67.321 7.20212 67.4773Z" fill="#F1F1F1"/>
<path d="M52.6718 72.6085C52.6718 72.4225 52.507 72.2725 52.3037 72.2725C52.1004 72.2725 51.9355 72.4225 51.9355 72.6085C51.9355 72.7938 52.1004 72.9445 52.3037 72.9445C52.507 72.9445 52.6718 72.7938 52.6718 72.6085Z" fill="#F1F1F1"/>
<path opacity="0.2" fill-rule="evenodd" clip-rule="evenodd" d="M40.51 14.4688C37.3588 17.9389 31.0958 19.8484 23.9395 15.4294C27.4781 21.3136 37.6985 20.9934 40.51 14.4688ZM18.9791 26.8619C15.6622 28.2338 11.1589 26.8294 8.95898 25.3338C9.11349 25.6598 9.30509 25.9758 9.53566 26.2772C12.1062 29.6378 16.4882 29.7423 18.9791 26.8619ZM54.9339 25.4685C53.0269 27.2416 49.1657 28.5021 44.6556 26.503C44.8744 26.7943 45.1244 27.0733 45.4065 27.3365C48.0399 29.7927 52.0968 29.316 54.4212 26.2772C54.6212 26.0157 54.7916 25.7453 54.9339 25.4685Z" fill="#22110C"/>
<path d="M22.9454 12.8631C23.6052 9.48792 26.8659 6.55901 30.722 5.86248C35.8827 4.93026 40.1336 8.42605 41.0153 12.8573C42.1534 7.15994 36.5786 1.73493 30.2919 2.87053C25.3207 3.76851 22.0537 8.36489 22.9454 12.8631Z" fill="#2430F0"/>
<path fill-rule="evenodd" clip-rule="evenodd" d="M24.3135 9.82213C25.7542 7.84381 28.1023 6.33641 30.726 5.86248C34.6523 5.15324 38.0519 7.00701 39.8419 9.8858C40.1832 9.54627 40.4952 9.20125 40.753 8.86324C39.4215 4.92102 35.0634 2.00936 30.2959 2.87053C27.0022 3.4655 24.4566 5.68401 23.373 8.42185C23.6075 8.86861 23.9385 9.34797 24.3135 9.82213Z" fill="#2BE1B7"/>
<g opacity="0.2">
<g style="mix-blend-mode:hard-light">
<path fill-rule="evenodd" clip-rule="evenodd" d="M34.2486 35.9775C33.8345 35.021 32.8022 34.5089 31.3615 34.763C30.5107 34.9131 29.9334 35.3657 29.6636 36.0231C30.2313 35.5597 31.2359 35.4082 31.9854 35.3925C32.7097 35.4077 33.6722 35.5496 34.2486 35.9775ZM27.9412 36.5827C27.2395 36.6892 25.958 37.0268 25.401 37.8034C25.5868 37.1096 26.0529 36.5936 26.7643 36.4039C27.4765 36.214 27.8025 36.2358 27.9412 36.5827ZM24.1139 38.7378C24.1086 38.6738 24.1057 38.6123 24.1054 38.5536C24.105 38.4805 23.0707 38.5155 22.7458 38.5996C21.6337 38.8873 20.8849 39.7039 20.6098 40.6773C21.3536 39.6375 22.7385 38.7704 24.1139 38.7378ZM16.4238 44.4031C16.7526 43.2976 17.9773 42.1445 18.973 42.1445C19.1138 42.1445 19.2365 42.1367 19.3431 42.1231C19.3337 42.0632 19.3257 42.0027 19.3188 41.9415C19.3166 41.921 19.3145 41.9015 19.3124 41.883C19.2948 41.7198 19.2856 41.6357 19.2385 41.5979C19.1883 41.5576 19.0951 41.57 18.9027 41.5955C18.8822 41.5982 18.8606 41.6011 18.8379 41.604C17.3351 41.7993 16.4913 43.0359 16.4238 44.4031ZM31.3564 41.8433C30.7788 41.3997 29.9241 41.2244 28.724 42.2171C28.9266 41.7964 29.2799 41.4572 29.7818 41.2261C30.1764 41.0445 30.596 41.0389 30.8231 41.2123C31.0042 41.3504 31.1949 41.5804 31.3564 41.8433ZM35.0708 42.0779C34.5526 41.133 33.561 40.6395 32.8964 41.4223C32.7995 41.5365 32.6929 41.6926 32.5946 41.8586C33.1441 41.4262 33.9492 41.2324 35.0708 42.0779ZM27.4684 42.6384C27.477 42.3759 27.4482 42.3711 27.2808 42.3433C27.1696 42.3249 27.0404 42.3028 26.9936 42.2942C26.9469 42.2856 26.7584 42.2999 26.5746 42.3261C25.6996 42.4506 25.1668 43.2116 25.0295 44.1838C25.3759 43.0714 26.6817 42.5519 27.4684 42.6384ZM39.9154 44.7831C40.1875 44.1054 41.8375 44.7791 42.3924 45.8643C42.5467 46.166 42.6525 46.4666 42.7099 46.7659C42.2848 45.5841 40.9457 45.0426 39.9154 44.7831ZM34.5816 49.198C34.5826 49.1843 34.583 49.1713 34.583 49.1591C34.583 48.9741 36.3333 48.905 36.8885 49.068C37.1516 49.1452 37.3449 49.2921 37.4673 49.4843C36.9361 49.0207 35.7803 49.1068 34.5816 49.198ZM30.5588 47.2824C30.8808 46.8081 31.3658 46.5197 31.9777 46.5197C32.5781 46.5197 33.0562 46.7973 33.3782 47.2557C32.9772 46.9462 32.4278 46.7874 31.9854 46.7462C31.5304 46.7885 30.9624 46.9554 30.5588 47.2824ZM26.4687 49.5164C26.5895 49.3084 26.7893 49.1495 27.0669 49.068C27.6221 48.905 29.3724 48.9741 29.3724 49.1591C29.3724 49.171 29.3728 49.1835 29.3737 49.1968C28.1536 49.104 26.9807 49.0189 26.4687 49.5164ZM24.0519 44.7839C22.9984 45.0498 21.624 45.6105 21.233 46.8483C21.2962 45.8036 21.8795 44.9259 22.9612 44.6379C23.2448 44.5624 23.7154 44.5404 23.9144 44.5932C23.9895 44.6131 24.0255 44.6567 24.0519 44.7839ZM38.5694 37.8029C38.33 36.9464 37.6329 36.3821 36.5666 36.3386L35.9595 36.3139L35.9489 36.5711C36.6284 36.6632 37.9902 36.9959 38.5694 37.8029ZM43.3284 40.6322C43.1307 39.8835 42.6723 39.2378 41.9848 38.9052C41.3048 38.576 39.8512 38.3367 39.85 38.5536C39.8498 38.6122 39.8469 38.6736 39.8416 38.7374C41.2021 38.7635 42.5743 39.6087 43.3284 40.6322ZM47.5514 44.4182C47.2294 43.3082 45.998 42.1445 44.9978 42.1445C44.8467 42.1445 44.7165 42.1356 44.6046 42.12C44.6067 42.1071 44.6086 42.0942 44.6105 42.0812C44.6436 41.8581 44.6797 41.6481 44.6907 41.6145C44.7241 41.5118 45.4501 41.6369 45.8255 41.81C46.9169 42.3131 47.494 43.3299 47.5514 44.4182ZM38.9083 44.0873C38.8337 43.5094 38.6268 43.014 38.2814 42.7134C37.9783 42.4497 37.2269 42.2165 36.9334 42.2952C36.9023 42.3036 36.7858 42.3253 36.6746 42.3437C36.5069 42.3712 36.4783 42.3759 36.4871 42.6402C37.2491 42.548 38.516 43.0344 38.9083 44.0873Z" fill="white"/>
</g>
</g>
<g style="mix-blend-mode:hard-light">
<path fill-rule="evenodd" clip-rule="evenodd" d="M57.8871 58.9834C55.6554 58.8177 53.0528 59.549 51.1722 60.7088C48.5386 62.3328 44.489 66.6448 43.6394 70.8168C43.4045 71.9704 43.2281 72.3478 43.0977 72.2649C44.3951 64.4938 48.963 59.1066 54.8884 58.4828C56.2247 58.3422 57.2278 58.5433 57.8871 58.9834Z" fill="white" fill-opacity="0.4"/>
</g>
<g style="mix-blend-mode:hard-light">
<path fill-rule="evenodd" clip-rule="evenodd" d="M5.95508 59.0365C8.24458 58.7862 10.9847 59.5293 12.9424 60.7367C15.576 62.3607 19.6256 66.6727 20.4751 70.8447C20.6084 71.4988 20.7228 71.9031 20.8206 72.1159C19.9977 67.4169 17.8783 63.2634 15.0512 61.0139C12.792 59.2163 9.54463 58.1568 7.35028 58.5012C6.77031 58.5925 6.30617 58.7772 5.95508 59.0365Z" fill="white" fill-opacity="0.4"/>
</g>
<g style="mix-blend-mode:hard-light">
<path fill-rule="evenodd" clip-rule="evenodd" d="M26.3945 75.6655C28.2465 73.6518 30.6193 73.3085 31.8876 73.3085C33.2052 73.3085 35.8168 73.7291 37.7024 75.9416C35.9022 72.3106 33.6441 70.5247 31.3087 70.9386C29.5158 71.2561 27.818 72.8997 26.3945 75.6655Z" fill="white" fill-opacity="0.4"/>
</g>
<path opacity="0.2" fill-rule="evenodd" clip-rule="evenodd" d="M56.8981 68.5615C56.0512 68.9227 55.1029 69.2895 54.0788 69.6568C53.9257 69.42 53.7438 69.2245 53.5345 69.0828C53.3094 68.9305 53.602 68.7496 55.2849 68.0015C55.7211 67.8072 56.2053 67.5826 56.3611 67.5025L56.367 67.4992C56.5831 67.3877 56.6619 67.3468 56.7027 67.3709C56.7259 67.3844 56.7367 67.4191 56.7537 67.4745L56.7542 67.4768C56.8511 67.7948 56.897 68.1622 56.8981 68.5615ZM7.06055 68.4696C7.91633 68.8527 8.87084 69.2408 9.89733 69.6283C10.0463 69.4043 10.2216 69.2189 10.422 69.0834C10.6411 68.935 10.241 68.6858 8.70087 68.0127C8.34264 67.8559 7.87816 67.6431 7.66866 67.5395C7.63949 67.5249 7.61242 67.5115 7.58716 67.4992C7.35919 67.386 7.28347 67.348 7.24813 67.3715C7.23052 67.3827 7.22293 67.409 7.21148 67.4488C7.20894 67.4572 7.20622 67.4667 7.2031 67.4768C7.11373 67.7702 7.06768 68.1062 7.06055 68.4696Z" fill="#22110C"/>
<path opacity="0.2" fill-rule="evenodd" clip-rule="evenodd" d="M19.3072 82.4355C19.1264 84.3569 19.7927 86.5056 20.1002 87.4974C20.1525 87.6659 20.1945 87.8015 20.2201 87.8967C20.4396 88.7103 18.0546 89.9972 9.30664 86.0548C12.5366 88.4858 16.4884 90.2083 20.1699 90.5303C23.2606 90.8003 23.9622 90.7543 23.6665 90.2991C23.1818 89.5537 21.52 86.5303 20.5492 84.6274C20.2977 84.1346 19.9075 83.4419 19.682 83.0874C19.5381 82.8617 19.4132 82.6444 19.3072 82.4355Z" fill="#22110C"/>
<path opacity="0.2" fill-rule="evenodd" clip-rule="evenodd" d="M54.7036 86.0369C45.9243 90 43.5321 88.7109 43.7519 87.8961C43.7775 87.8009 43.8194 87.6659 43.8718 87.4968C44.1807 86.5005 44.8515 84.3367 44.6624 82.4092C44.5536 82.6259 44.4244 82.8516 44.2747 83.0868C44.0492 83.4413 43.659 84.134 43.4075 84.6268C42.4366 86.5297 40.7749 89.5531 40.2901 90.2985C40.1823 90.4648 40.1026 90.5673 40.1277 90.6272C40.1719 90.733 40.5403 90.7056 41.6499 90.6541C45.2796 90.4866 46.7895 90.1551 49.7337 88.8794C51.5874 88.0764 53.2496 87.1165 54.7036 86.0369Z" fill="#22110C"/>
<path opacity="0.2" fill-rule="evenodd" clip-rule="evenodd" d="M23.582 86.5792C25.496 89.6396 26.2716 90.7412 27.3178 91.9188C31.1455 96.228 34.4169 95.5213 38.4754 89.5086C39.2355 88.383 39.3628 88.187 40.5355 86.3037C40.3203 86.6739 40.1017 87.0569 39.8807 87.4495C38.6616 89.6172 38.5715 89.7729 37.85 90.9556C34.1859 96.9633 31.2323 97.6695 27.7766 93.3636C26.7746 92.1154 26.0476 90.9534 24.0773 87.4495C23.9107 87.1532 23.7455 86.8632 23.582 86.5792Z" fill="#22110C"/>
<path d="M31.9432 65.5527C31.2352 65.5527 30.329 70.5367 29.9326 70.5367L29.1113 71.2927L31.9432 70.5367L35.1998 71.4887C34.8505 71.1712 34.1011 70.5367 33.8972 70.5367C33.6423 70.5367 32.6512 65.5527 31.9432 65.5527Z" fill="black" fill-opacity="0.2"/>
<path d="M27.2431 52.1684C26.8466 52.1684 25.5156 51.2444 25.5156 49.8724C25.7044 49.527 26.082 48.9876 26.082 49.5924C26.082 50.3484 26.9316 51.3284 27.1581 51.5524C27.3847 51.7764 27.6395 52.1684 27.2431 52.1684Z" fill="black" fill-opacity="0.2"/>
<path d="M19.653 49.8722C18.0389 49.8722 15.9433 47.7722 14.8672 46.3442L15.5185 45.7842L16.9911 47.8842L20.3327 48.8642L20.984 47.8002C21.1445 48.0429 21.5221 48.629 21.7486 49.0322C22.0318 49.5362 22.7681 49.9282 23.3628 50.7682C23.9575 51.6082 21.692 50.5722 21.4088 50.4322C21.1822 50.3202 20.6914 49.9749 20.4743 49.8162C20.4743 49.8349 20.31 49.8722 19.653 49.8722Z" fill="black" fill-opacity="0.2"/>
<path d="M24.7216 47.324C24.0703 46.512 24.2969 45.56 24.1836 44.748L26.0243 48.052L25.8827 48.304L25.879 48.3021C25.6971 48.2074 25.2391 47.9692 24.7216 47.324Z" fill="black" fill-opacity="0.2"/>
<path d="M30.5273 51.6643C29.9326 51.5243 29.3945 50.1523 29.3945 49.1163L29.9609 48.8643L30.329 50.3203C30.4423 50.7683 31.122 51.8043 30.5273 51.6643Z" fill="black" fill-opacity="0.2"/>
<path d="M36.6719 52.1684C37.0684 52.1684 38.3994 51.2444 38.3994 49.8724C38.2106 49.527 37.833 48.9876 37.833 49.5924C37.833 50.3484 36.9835 51.3284 36.7569 51.5524C36.5304 51.7764 36.2755 52.1684 36.6719 52.1684Z" fill="black" fill-opacity="0.2"/>
<path d="M44.2619 49.8722C45.8761 49.8722 47.9716 47.7722 49.0478 46.3442L48.3964 45.7842L46.9239 47.8842L43.5823 48.8642L42.9309 47.8002C42.7705 48.0428 42.3929 48.629 42.1663 49.0322C41.8832 49.5362 41.1469 49.9282 40.5522 50.7682C39.9575 51.6082 42.223 50.5722 42.5062 50.4322C42.7327 50.3202 43.2236 49.9748 43.4407 49.8162C43.4407 49.8348 43.6049 49.8722 44.2619 49.8722Z" fill="black" fill-opacity="0.2"/>
<path d="M39.1933 47.324C39.8446 46.512 39.6181 45.56 39.7313 44.748L37.8906 48.052L38.0322 48.304L38.036 48.3021C38.2179 48.2074 38.6758 47.9692 39.1933 47.324Z" fill="black" fill-opacity="0.2"/>
<path d="M33.36 51.6923C33.9547 51.5523 34.5211 50.1523 34.5211 49.1163L33.9547 48.8643L33.5865 50.3203C33.4733 50.7683 32.7653 51.8323 33.36 51.6923Z" fill="black" fill-opacity="0.2"/>
<path opacity="0.2" d="M25.2426 81.6801C25.0444 81.6801 25.6673 81.3721 25.4691 80.8401C25.9411 80.6441 26.6812 80.8457 27.2249 81.3161C27.9045 81.9041 27.9045 83.3601 27.8762 83.9761C27.8479 84.5921 25.4408 81.6801 25.2426 81.6801Z" fill="#22110C"/>
<path opacity="0.2" d="M38.6756 81.6987C38.8738 81.6987 38.2509 81.3907 38.4491 80.8587C37.9771 80.6627 37.237 80.8643 36.6933 81.3347C36.0137 81.9227 36.0137 83.3787 36.042 83.9947C36.0703 84.6107 38.4774 81.6987 38.6756 81.6987Z" fill="#22110C"/>
<path opacity="0.2" fill-rule="evenodd" clip-rule="evenodd" d="M12.9688 67.471C16.4158 69.51 19.7668 71.4924 19.7668 73.9525C19.7668 74.0314 19.7655 74.1098 19.7629 74.1865C18.6423 71.8665 16.2121 70.0789 11.5207 67.6889C9.57396 66.6971 9.55187 66.6837 8.33428 65.7154C5.34784 63.341 4.38191 60.6088 5.67806 59.2676C4.80603 62.6427 8.95253 65.0955 12.9688 67.471Z" fill="#22110C"/>
<path opacity="0.2" fill-rule="evenodd" clip-rule="evenodd" d="M5.73123 59.1709L5.7045 59.2745C5.27227 60.9472 6.08198 62.3948 7.50873 63.7243C8.9357 65.0537 10.9734 66.2588 12.9823 67.4471L12.9838 67.4483C14.7062 68.4669 16.4073 69.4732 17.6776 70.5327C18.9476 71.5917 19.7941 72.7095 19.7941 73.9527C19.7941 74.0322 19.7928 74.1106 19.7902 74.1873L19.7364 74.1985C18.6203 71.8879 16.1983 70.1038 11.5068 67.7137C10.5339 67.2181 10.0404 66.9661 9.63806 66.7169C9.23531 66.4677 8.92409 66.2213 8.31558 65.7375C6.81968 64.548 5.82791 63.2679 5.37282 62.1143C4.91786 60.9612 4.99797 59.9297 5.65656 59.2482L5.73123 59.1709ZM5.42559 62.0941C5.87605 63.2359 6.86046 64.5088 8.35104 65.6938C8.96011 66.1782 9.26873 66.4223 9.66813 66.6699C10.0679 66.9174 10.5589 67.1683 11.5327 67.6644C16.1542 70.0187 18.5894 71.7922 19.7365 74.0708C19.7371 74.0316 19.7375 73.9924 19.7375 73.9527C19.7375 72.7358 18.9084 71.632 17.6411 70.5753C16.3747 69.5191 14.6774 68.5151 12.9533 67.4953L12.9513 67.4942C10.9446 66.307 8.90178 65.0991 7.46988 63.7646C6.06754 62.4581 5.24493 61.0251 5.62348 59.368C5.05403 60.0277 4.99306 60.9976 5.42559 62.0941Z" fill="#22110C"/>
<path opacity="0.2" fill-rule="evenodd" clip-rule="evenodd" d="M51.0324 67.4709C47.5854 69.5099 44.2344 71.4923 44.2344 73.9523C44.2344 73.9871 44.2346 74.0218 44.2351 74.0559C45.383 71.7991 47.809 70.034 52.4131 67.6887C54.3599 66.697 54.382 66.6835 55.5996 65.7153C58.5851 63.3415 59.459 60.7823 58.3597 59.4209C59.0688 62.7176 54.9873 65.1318 51.0324 67.4709Z" fill="#22110C"/>
<g style="mix-blend-mode:multiply">
<path fill-rule="evenodd" clip-rule="evenodd" d="M4.41268 66.5659C4.37855 69.3407 4.48521 81.3163 18.7182 81.3163C18.7765 81.3163 18.8343 81.3163 18.8918 81.3157C18.7546 80.5787 18.9363 79.965 19.4346 79.4386C19.9393 78.9049 19.6223 76.381 18.8588 74.8544C18.6567 74.4501 18.5703 74.2647 18.4784 74.2619C18.3988 74.2597 18.315 74.3952 18.1481 74.645C14.0161 80.829 5.58578 76.0965 5.75665 67.6892C5.78276 66.4063 5.78276 66.4063 5.4251 66.1223C5.16453 65.9163 5.08564 65.8446 5.02739 65.858C4.99232 65.8664 4.96473 65.9056 4.90948 65.965C4.73564 66.1526 4.56998 66.3531 4.41268 66.5659Z" fill="black" fill-opacity="0.2"/>
</g>
<path opacity="0.2" fill-rule="evenodd" clip-rule="evenodd" d="M59.6125 66.8045C59.6341 69.8834 59.2461 81.3729 45.305 81.3729C45.2125 81.3729 45.121 81.3724 45.0305 81.3718C45.1875 80.6102 45.0094 79.9791 44.4986 79.4393C43.9939 78.9056 44.3109 76.3811 45.0744 74.8551C45.2765 74.4508 45.3629 74.2654 45.4547 74.2626C45.5344 74.2604 45.6182 74.3959 45.7851 74.6457C49.9171 80.8292 58.3473 76.0972 58.1768 67.6899C58.1581 66.7777 58.1524 66.5139 58.2753 66.3375C58.3252 66.2653 58.396 66.2081 58.4962 66.1269C58.6831 65.9752 58.7839 65.88 58.8802 65.8839C59.0212 65.8901 59.1526 66.1101 59.5321 66.6825C59.5593 66.7233 59.5859 66.7642 59.6125 66.8045Z" fill="#22110C"/>
<path opacity="0.2" fill-rule="evenodd" clip-rule="evenodd" d="M29.5022 36.5958C29.4167 37.2328 29.5536 37.9952 29.9328 38.8254C30.2167 39.4471 30.2167 39.4471 30.6525 39.4516C31.0438 39.4556 31.1328 39.4786 31.5273 39.6778C31.9665 39.8997 31.9665 39.8997 32.4057 39.6778C32.8001 39.4786 32.8892 39.4556 33.2805 39.4516C33.7162 39.4471 33.7162 39.4471 33.9999 38.8254C34.379 37.9947 34.5017 37.2286 34.4078 36.5877C34.2196 37.6244 33.7863 38.9796 32.8146 39.0926C32.3939 39.1802 32.1012 39.1857 32 39.1772V39.1766H31.9933H31.9151H31.9084V39.1772C31.8073 39.1857 31.5146 39.1802 31.0938 39.0926C30.1246 38.9799 29.6911 37.6314 29.5022 36.5958ZM35.1805 39.7097C35.6663 38.9608 35.8692 38.2454 35.9153 37.1189L35.9395 36.5273C36.1257 37.5417 36.0761 38.9623 35.2243 40.1683C35.0035 39.9824 35.014 39.9662 35.1805 39.7097ZM38.6411 38.7556C38.6019 39.2734 38.4388 39.8458 38.1405 40.4438C38.1085 40.5078 38.0797 40.5662 38.0535 40.6193C37.8933 40.9437 37.8305 41.071 37.7341 41.105C37.6718 41.127 37.5955 41.1101 37.47 41.0823C37.4382 41.0753 37.4032 41.0675 37.3645 41.0596C37.0621 40.9973 36.8951 40.9907 36.6878 41.0329C36.6334 41.044 36.5839 41.0543 36.5388 41.0637C36.5291 41.0658 36.5196 41.0677 36.5103 41.0697C36.5474 40.9586 36.8362 40.8681 37.1304 40.7759C37.4073 40.6892 37.6891 40.6009 37.7703 40.4926C38.1738 39.9549 38.482 39.4126 38.6411 38.7556ZM39.8388 38.5538C39.8346 39.3255 39.3875 40.5898 38.8848 41.2513C38.6701 41.5339 38.6555 41.5531 38.9284 41.8439C39.507 41.017 40.1096 39.3886 39.8818 38.5014C39.854 38.5144 39.8389 38.5317 39.8388 38.5538ZM43.4127 41.1743C43.3386 41.6479 43.0741 42.6451 42.6694 43.0686C42.188 43.5726 41.9898 43.6286 41.5933 43.4606C41.3576 43.3607 41.0134 43.4094 40.763 43.4754C41.2177 43.4923 41.6285 43.6128 42.0063 43.8385L42.0182 43.8456L42.0396 43.8585C42.1771 43.9409 42.2533 43.9865 42.3228 43.9782C42.4092 43.9678 42.4853 43.8738 42.6561 43.6631L42.673 43.6421L42.6896 43.6218C43.2631 42.9152 43.4911 42.0139 43.4127 41.1743ZM47.5221 44.2053C47.4221 44.987 47.1369 46.3771 46.0394 47.2966C45.0066 48.1618 44.227 48.2206 44.0571 46.9886C44.0407 46.8697 44.0175 46.8065 43.9903 46.7881C44.0414 47.2228 44.02 47.6612 43.9169 48.0598C43.8546 48.3006 43.8037 48.5046 43.8037 48.5131C43.8037 48.6516 45.3438 48.0127 45.8835 47.6503C47.1231 46.818 47.6667 45.445 47.5221 44.2053ZM44.5945 42.1126C44.4604 42.9802 44.1444 43.5976 43.4889 44.276C43.0673 44.7122 43.0673 44.7122 43.2448 44.93C43.2637 44.9533 43.2824 44.9771 43.3008 45.0012C43.8653 44.4341 44.4942 43.3509 44.5945 42.1126ZM38.9265 44.7386C38.8217 45.3311 38.6492 45.9795 38.3933 46.2886C37.8836 46.9046 37.204 47.0726 36.6659 46.9886C36.3955 46.9464 35.9469 47.0641 35.5548 47.2014C36.3502 47.168 36.9542 47.3233 37.4787 47.681C37.6071 47.7686 37.7109 47.8064 37.7336 47.7738C37.7546 47.7435 37.8783 47.5812 38.0086 47.4132C38.5846 46.6701 38.8972 45.6583 38.9265 44.7386ZM34.3549 46.9274C35.1703 46.5022 36.4771 45.3649 36.4611 43.5551C36.3031 44.8609 35.5255 46.0182 34.3029 46.7168C34.2882 46.7252 34.3145 46.8173 34.3549 46.9274ZM35.3882 43.6769C35.1364 44.4107 34.5766 45.5648 33.6925 45.2526C32.8995 44.9726 32.4181 44.9166 32.0217 44.9166C31.9963 44.9166 31.9739 44.919 31.9542 44.9235C31.9345 44.919 31.9121 44.9166 31.8867 44.9166C31.4903 44.9166 31.0089 44.9726 30.2159 45.2526C29.418 45.5344 28.8843 44.6218 28.6028 43.9018C28.734 44.4435 29.0036 45.0318 29.4133 45.6439C29.6701 46.0273 29.7649 46.1689 29.8398 46.1592C29.8836 46.1536 29.9206 46.096 29.9792 46.0046C30.823 44.6891 33.11 44.6891 33.9538 46.0046C34.1833 46.3623 35.1072 44.9983 35.342 43.9551C35.3629 43.8623 35.3781 43.7694 35.3882 43.6769ZM24.9831 44.745C24.9929 45.6258 25.2957 46.6022 25.9244 47.4132C26.0546 47.5812 26.1784 47.7435 26.1994 47.7738C26.2221 47.8064 26.3259 47.7686 26.4543 47.681C26.9726 47.3274 27.5688 47.1716 28.3505 47.2003C27.9592 47.0635 27.5123 46.9465 27.2425 46.9886C26.7044 47.0726 26.0248 46.9046 25.5151 46.2886C25.2602 45.9806 25.088 45.3358 24.9831 44.745ZM27.4536 43.3687C27.3412 45.3026 28.733 46.5074 29.5741 46.938C29.6168 46.8233 29.6452 46.7254 29.63 46.7168C28.3496 45.9852 27.5573 44.7503 27.4536 43.3687ZM24.9905 41.8588C25.2779 41.5537 25.2665 41.5387 25.0481 41.2513C24.5454 40.5898 24.0983 39.3255 24.0941 38.5538C24.0941 38.5419 24.0671 38.533 24.0205 38.5265C23.8089 39.4245 24.4142 41.0444 24.9905 41.8588ZM20.4989 41.1944C20.4125 42.0079 20.6418 42.8805 21.2434 43.6218C21.2549 43.636 21.2661 43.6498 21.2769 43.6631C21.4477 43.8738 21.5238 43.9678 21.6102 43.9782C21.6797 43.9865 21.7559 43.9409 21.8933 43.8585L21.8935 43.8584C21.9042 43.852 21.9153 43.8454 21.9267 43.8385C22.2986 43.6163 22.7025 43.4962 23.1488 43.4762C22.8981 43.4097 22.5519 43.3603 22.3151 43.4606C21.9187 43.6286 21.7204 43.5726 21.239 43.0686C20.8401 42.6509 20.5773 41.6757 20.4989 41.1944ZM25.3289 38.9806C25.3893 39.4452 25.5419 39.9414 25.7925 40.4438C25.8245 40.5078 25.8533 40.5662 25.8795 40.6193C26.0396 40.9437 26.1024 41.071 26.1989 41.105C26.2611 41.127 26.3374 41.1101 26.463 41.0823C26.4948 41.0753 26.5298 41.0675 26.5685 41.0596C26.8709 40.9973 27.0379 40.9907 27.2452 41.0329C27.2996 41.044 27.349 41.0543 27.3942 41.0637C27.3949 41.0638 27.3955 41.064 27.396 41.0641C27.3515 40.9556 27.0674 40.8666 26.778 40.7759C26.5011 40.6892 26.2194 40.6009 26.1381 40.4926C25.7816 40.0175 25.4995 39.5389 25.3289 38.9806ZM27.9498 36.6384C27.9893 36.7637 28.0097 36.9247 28.0179 37.1258C28.0638 38.2449 28.2678 38.9624 28.7525 39.7097C28.9227 39.9721 28.9298 39.983 28.6933 40.1812C27.8636 39.0158 27.7868 37.6475 27.9498 36.6384ZM19.9433 46.7832C19.9052 46.7741 19.8726 46.8346 19.8513 46.9886C19.6814 48.2206 18.9019 48.1618 17.869 47.2966C16.8559 46.4479 16.535 45.1981 16.413 44.396C16.3522 45.5785 16.8724 46.86 18.0494 47.6503C18.5891 48.0127 20.1293 48.6516 20.1293 48.5131C20.1293 48.5046 20.0783 48.3006 20.016 48.0598C19.9126 47.6598 19.8915 47.2195 19.9433 46.7832ZM20.6216 45.015C20.6431 44.9864 20.6651 44.9583 20.6876 44.9308C20.8645 44.7137 20.8645 44.7137 20.4203 44.2497C19.7621 43.5622 19.4058 42.8231 19.3076 41.9416C19.3055 41.9224 19.3035 41.9042 19.3016 41.8869C19.3384 43.2288 20.0196 44.4182 20.6216 45.015Z" fill="#22110C"/>
<path d="M52.8984 71.4888C52.8984 70.8084 53.469 70.2568 54.1728 70.2568C54.8765 70.2568 55.4471 70.8084 55.4471 71.4888C55.4471 72.1692 54.8765 72.7208 54.1728 72.7208C53.469 72.7208 52.8984 72.1692 52.8984 71.4888Z" fill="#F1F1F1"/>
<path d="M8.43945 71.4888C8.43945 70.8084 9.01002 70.2568 9.71379 70.2568C10.4176 70.2568 10.9881 70.8084 10.9881 71.4888C10.9881 72.1692 10.4176 72.7208 9.71379 72.7208C9.01002 72.7208 8.43945 72.1692 8.43945 71.4888Z" fill="#F1F1F1"/>
<path d="M11.8378 72.6085C11.8378 72.4225 11.673 72.2725 11.4697 72.2725C11.2664 72.2725 11.1016 72.4225 11.1016 72.6085C11.1016 72.7938 11.2664 72.9445 11.4697 72.9445C11.673 72.9445 11.8378 72.7938 11.8378 72.6085Z" fill="#F1F1F1"/>
<path d="M366.162 72.4932L367.565 79.2723C366.591 79.9346 365.188 80.5385 363.357 81.0839C361.565 81.5904 359.773 81.8436 357.98 81.8436C354.513 81.8436 351.63 80.7527 349.331 78.571C347.072 76.3892 345.942 73.1166 345.942 68.7531V56.8898H340.215V49.0004H345.942V42.046L354.299 40.2344V49.0004H366.22V56.8898H354.299V68.2856C354.299 72.1426 356.013 74.0711 359.441 74.0711C360.961 74.0711 363.201 73.5451 366.162 72.4932Z" fill="white"/>
<path d="M322.518 81.8433C318.194 81.8433 314.59 80.8499 311.707 78.8629C308.824 76.837 307.09 74.0708 306.506 70.5644H314.979C315.681 73.4475 318.272 74.889 322.752 74.889C326.375 74.889 328.187 74.0124 328.187 72.2592C328.187 72.0254 328.148 71.8112 328.07 71.6164C328.031 71.4216 327.934 71.2462 327.778 71.0904C327.661 70.9346 327.525 70.7982 327.369 70.6813C327.213 70.5255 326.979 70.3891 326.667 70.2722C326.395 70.1554 326.141 70.058 325.908 69.98C325.674 69.9021 325.323 69.8047 324.856 69.6878C324.427 69.571 324.038 69.4736 323.687 69.3956C323.375 69.3177 322.927 69.2203 322.343 69.1034C321.758 68.9866 321.252 68.8697 320.823 68.7528C316.031 67.623 312.681 66.3957 310.772 65.0711C308.902 63.7075 307.967 61.6816 307.967 58.9933C307.967 55.6428 309.233 53.0325 311.765 51.1624C314.337 49.2534 317.765 48.2988 322.051 48.2988C326.336 48.2988 329.667 49.2339 332.044 51.104C334.42 52.9351 335.901 55.4285 336.485 58.5843H328.012C327.31 56.4025 325.226 55.3116 321.758 55.3116C318.174 55.3116 316.382 56.2077 316.382 57.9999C316.382 58.7011 316.752 59.2076 317.492 59.5193C318.233 59.831 319.908 60.279 322.518 60.8634C325.129 61.4478 327.193 61.9933 328.713 62.4997C330.232 62.9673 331.674 63.5906 333.037 64.3698C334.401 65.149 335.375 66.084 335.959 67.1749C336.544 68.2658 336.836 69.5904 336.836 71.1488C336.836 74.6163 335.492 77.2656 332.804 79.0967C330.115 80.9278 326.687 81.8433 322.518 81.8433Z" fill="white"/>
<path d="M285.565 48.2988C290.825 48.2988 294.974 50.1105 298.013 53.7337C301.091 57.357 302.415 61.8569 301.987 67.2334H277.325C277.598 69.7268 278.494 71.6358 280.013 72.9605C281.533 74.2851 283.422 74.9474 285.682 74.9474C287.318 74.9474 288.779 74.5968 290.065 73.8955C291.351 73.1553 292.266 72.1618 292.812 70.9151H301.461C300.331 74.5384 298.344 77.2656 295.5 79.0967C292.656 80.9278 289.403 81.8433 285.74 81.8433C280.754 81.8433 276.682 80.2655 273.527 77.1097C270.371 73.954 268.793 69.9606 268.793 65.1295C268.793 60.2985 270.371 56.2856 273.527 53.0909C276.682 49.8962 280.695 48.2988 285.565 48.2988ZM285.507 55.1947C283.52 55.1947 281.864 55.7402 280.539 56.8311C279.215 57.883 278.28 59.305 277.734 61.0972H293.104C292.636 59.305 291.74 57.883 290.416 56.8311C289.091 55.7402 287.455 55.1947 285.507 55.1947Z" fill="white"/>
<path d="M260.094 42.7474C256.315 42.7474 254.426 44.7928 254.426 48.8836V49.0005H265.12V56.8899H254.426V81.1424H246.069V56.8899H240.342V49.0005H246.069V48.4745C246.069 44.1889 247.335 40.9552 249.867 38.7735C252.4 36.5528 255.497 35.4424 259.159 35.4424C262.081 35.4424 264.614 35.9294 266.756 36.9034L265.237 43.6824L264.127 43.3902C262.646 42.9617 261.302 42.7474 260.094 42.7474Z" fill="white"/>
<path d="M231.527 34.1562C233.047 34.1562 234.293 34.6237 235.267 35.5588C236.241 36.4548 236.728 37.6236 236.728 39.0651C236.728 40.5067 236.241 41.6949 235.267 42.63C234.293 43.565 233.047 44.0325 231.527 44.0325C230.047 44.0325 228.8 43.565 227.787 42.63C226.813 41.6949 226.326 40.5067 226.326 39.0651C226.326 37.6626 226.813 36.4938 227.787 35.5588C228.8 34.6237 230.047 34.1562 231.527 34.1562ZM227.319 81.1419V48.9999H235.676V81.1419H227.319Z" fill="white"/>
<path d="M209.316 48.2988C212.939 48.2988 215.783 49.4287 217.848 51.6884C219.913 53.948 220.945 57.0453 220.945 60.9803V81.1421H212.588V62.7919C212.588 60.6102 212.121 58.9739 211.186 57.883C210.251 56.7921 208.712 56.2467 206.569 56.2467C201.738 56.2467 199.322 58.9154 199.322 64.2529V81.1421H190.965V49.0001H199.322V53.3831C201.738 49.9936 205.069 48.2988 209.316 48.2988Z" fill="white"/>
<path d="M175.948 49.0001H184.305L184.247 81.1421H175.89V76.8175C173.435 80.1681 170.085 81.8433 165.838 81.8433C161.591 81.8433 158.085 80.2849 155.319 77.1681C152.553 74.0124 151.17 69.98 151.17 65.0711C151.17 60.1621 152.553 56.1493 155.319 53.0325C158.124 49.8767 161.611 48.2988 165.78 48.2988C170.065 48.2988 173.455 50.0326 175.948 53.5V49.0001ZM167.708 73.8955C170.085 73.8955 172.052 73.0774 173.611 71.441C175.169 69.8047 175.948 67.6814 175.948 65.0711C175.948 62.4608 175.169 60.3375 173.611 58.7011C172.052 57.0648 170.085 56.2467 167.708 56.2467C165.332 56.2467 163.384 57.0648 161.864 58.7011C160.345 60.3375 159.585 62.4608 159.585 65.0711C159.585 67.6814 160.345 69.8047 161.864 71.441C163.423 73.0774 165.371 73.8955 167.708 73.8955Z" fill="white"/>
<path d="M134.453 48.2988C137.882 48.2988 140.59 49.4092 142.577 51.6299C144.564 53.8506 145.557 56.909 145.557 60.805V81.1421H137.2V62.6166C137.2 60.5128 136.752 58.9349 135.856 57.883C134.999 56.7921 133.596 56.2467 131.648 56.2467C129.467 56.2467 127.811 56.9479 126.681 58.3505C125.551 59.7141 124.986 61.6816 124.986 64.2529V81.1421H116.629V62.6166C116.629 60.5128 116.181 58.9349 115.285 57.883C114.428 56.7921 113.025 56.2467 111.077 56.2467C108.896 56.2467 107.22 56.9479 106.052 58.3505C104.922 59.7141 104.357 61.6816 104.357 64.2529L104.415 81.1421H96V49.0001H104.415V53.2662C106.753 49.9546 109.928 48.2988 113.941 48.2988C118.616 48.2988 121.869 50.3248 123.701 54.3766C126.194 50.3248 129.778 48.2988 134.453 48.2988Z" fill="white"/>
<path d="M405.618 82C396.109 82 389 74.9014 389 65.3598C389 55.8182 396.109 48.7196 405.618 48.7196C412.912 48.7196 418.728 53.0064 420.944 59.5058H416.835C414.897 55.1729 410.742 52.3611 405.572 52.3611C398.278 52.3611 392.878 57.9385 392.878 65.3598C392.878 72.7811 398.278 78.3585 405.572 78.3585C410.742 78.3585 414.897 75.5467 416.835 71.2138H420.944C418.728 77.7132 412.912 82 405.618 82Z" fill="white"/>
<path d="M426.525 81.493V46H430.356V81.493H426.525Z" fill="white"/>
<path d="M449.118 55.6338C456.366 55.6338 462.228 61.2113 462.228 68.8169C462.228 76.4225 456.458 82 449.118 82C441.825 82 436.054 76.3764 436.054 68.8169C436.054 61.2113 441.917 55.6338 449.118 55.6338ZM449.118 59.2753C444.04 59.2753 439.932 63.1933 439.932 68.8169C439.932 74.3944 443.994 78.3585 449.118 78.3585C454.288 78.3585 458.351 74.3944 458.351 68.8169C458.351 63.2394 454.242 59.2753 449.118 59.2753Z" fill="white"/>
<path d="M485.813 56.1408H489.644V81.493H485.813V76.4686C484.105 79.7875 481.151 82 476.765 82C471.134 82 467.764 78.4046 467.764 72.2279V56.1408H471.595V71.4904C471.595 76.0077 473.719 78.3585 477.873 78.3585C482.905 78.3585 485.813 74.7631 485.813 69.1396V56.1408Z" fill="white"/>
<path d="M517.169 46H521V81.493H517.169V76.3764C515.23 79.7875 511.768 82 507.382 82C500.458 82 495.519 76.4686 495.519 68.8169C495.519 61.1191 500.504 55.6338 507.382 55.6338C511.768 55.6338 515.23 57.8924 517.169 61.3496V46ZM508.121 78.3585C513.291 78.3585 517.215 74.3944 517.215 68.8169C517.215 63.2394 513.291 59.2753 508.121 59.2753C502.997 59.2753 499.396 63.2855 499.396 68.8169C499.396 74.3944 502.997 78.3585 508.121 78.3585Z" fill="white"/>
</svg>
