<svg width="952" height="293" viewBox="0 0 952 293" fill="none" xmlns="http://www.w3.org/2000/svg">
<path fill-rule="evenodd" clip-rule="evenodd" d="M138.056 6.76275C109.485 9.57732 108.479 51.8726 136.87 56.6057C138.157 56.8201 138.564 56.9327 138.594 57.0819C138.615 57.1894 138.512 59.3222 138.364 61.8214C138.217 64.3206 138.031 69.2349 137.951 72.7416C137.871 76.2486 137.778 79.1383 137.744 79.1634C137.71 79.1883 137.246 79.4228 136.713 79.6846C135.715 80.1752 134.402 81.2521 133.874 82.0137C133.578 82.441 133.578 82.441 131.761 82.5003C128.891 82.5942 127.142 83.2956 125.554 84.9892C125.114 85.4588 124.71 85.7917 124.657 85.7296C124.603 85.6677 122.948 83.2291 120.977 80.3105C119.007 77.3919 116.769 74.1053 116.005 73.0072L114.616 71.0102L115.431 70.1071C130.634 53.2638 109.376 27.8956 91.2997 41.3093C73.3071 54.6611 89.4334 82.6682 110.121 73.9969C110.206 73.9612 111.743 75.8828 113.756 78.542C115.674 81.0758 118.07 84.1998 119.08 85.4841C120.09 86.7686 121.002 87.9481 121.106 88.1054C121.321 88.4283 121.389 88.3813 120.232 88.6991C117.024 89.5804 113.999 92.2433 113.399 94.7145C113.32 95.0391 113.191 95.3062 113.112 95.3084C107.69 95.4523 103.541 99.4792 103.482 104.654C103.463 106.415 103.463 106.415 102.724 106.853C96.0037 110.841 86.8861 124.222 86.2351 131.051C86.1391 132.061 86.177 132.028 84.847 132.255C81.8462 132.767 80.0932 133.85 78.2447 136.335C75.904 139.481 75.688 142.187 77.473 146.006C78.0775 147.3 78.1107 147.071 77.114 148.475C66.5755 163.321 68.7708 180.741 82.9494 194.774C92.2226 203.955 105.24 209.55 119.833 210.63C125.406 211.042 126.044 211.254 127.479 213.142C136.916 225.571 145.062 225.571 154.499 213.142C155.934 211.254 156.572 211.042 162.145 210.63C183.958 209.017 202.208 197.06 209.049 179.899C213.41 168.962 212.026 158.579 204.861 148.466C203.867 147.062 203.901 147.298 204.505 146.006C206.29 142.187 206.074 139.481 203.734 136.335C201.885 133.85 200.132 132.767 197.131 132.255C195.801 132.028 195.839 132.061 195.743 131.051C195.53 128.812 193.132 123.065 190.845 119.308C188.034 114.691 182.573 108.823 179.254 106.853C178.515 106.415 178.515 106.415 178.495 104.654C178.437 99.4792 174.288 95.4523 168.866 95.3084C168.787 95.3062 168.658 95.0391 168.579 94.7145C167.979 92.2433 164.954 89.5804 161.746 88.6991C160.589 88.3813 160.658 88.4283 160.872 88.1054C160.976 87.9481 161.888 86.7686 162.898 85.4841C163.908 84.1998 166.304 81.0758 168.222 78.542C170.235 75.8828 171.772 73.9612 171.857 73.9969C192.545 82.6682 208.671 54.6611 190.678 41.3093C172.602 27.8956 151.344 53.2638 166.547 70.1071L167.362 71.0102L165.973 73.0072C165.209 74.1053 162.971 77.3919 161.001 80.3105C159.031 83.2291 157.375 85.6677 157.321 85.7296C157.268 85.7917 156.865 85.4588 156.424 84.9892C154.836 83.2956 153.087 82.5942 150.217 82.5003C148.4 82.441 148.4 82.441 148.108 82.0197C147.343 80.9165 145.582 79.6635 144.156 79.2091C143.517 79.0052 143.517 79.0052 143.532 71.5131C143.541 67.3922 143.52 62.4157 143.485 60.4542L143.423 56.8875L145.108 56.6061C177.04 51.2729 170.293 3.58721 138.056 6.76275ZM137.271 12.936C126.316 14.9149 119.117 25.0438 121.082 34.9569C121.223 35.6718 121.413 36.3856 121.652 37.0952C127.376 54.0831 154.602 54.0831 160.326 37.0952C160.568 36.3779 160.759 35.6599 160.902 34.9439C163.41 22.3885 151.125 10.4334 137.271 12.936ZM100.488 44.0338C92.3974 45.5296 87.6091 53.7382 89.6042 60.6988C89.9878 62.0369 90.622 63.329 91.5317 64.5183C97.9681 72.9327 109.558 72.0838 114.333 62.8483C114.751 62.04 115.07 61.2165 115.298 60.3881C117.711 51.6262 109.916 42.2906 100.488 44.0338ZM177.141 44.0408C169.071 45.4825 164.888 53.3581 166.69 60.376C167.292 62.7212 168.563 64.9709 170.581 66.8525C176.384 72.2652 185.324 71.2147 190.446 64.5183C191.357 63.3276 191.988 62.0537 192.372 60.7447C194.86 52.256 186.927 42.2926 177.141 44.0408ZM139.631 83.218C135.682 83.9149 134.406 87.5697 136.507 92.1702C137.133 93.54 137.133 93.54 138.093 93.5499C138.956 93.5589 139.152 93.6096 140.021 94.0486C140.989 94.5376 140.989 94.5376 141.957 94.0486C142.826 93.6096 143.022 93.5589 143.885 93.5499C144.845 93.54 144.845 93.54 145.47 92.1702C148.048 86.5212 145.247 82.2275 139.631 83.218ZM129.5 86.8341C126.264 87.6969 125.331 91.623 127.383 95.7364C128.233 97.4394 128.065 97.3057 129.093 97.0937C129.76 96.9562 130.128 96.9416 130.585 97.0348C132.085 97.3403 131.901 97.3898 132.536 96.5088C132.853 96.0709 133.378 95.49 133.704 95.2177C134.298 94.7223 134.298 94.7223 133.906 94.1187C132.838 92.4721 132.389 90.8907 132.287 88.4245C132.211 86.5677 131.666 86.2565 129.5 86.8341ZM149.691 88.4095C149.589 90.8918 149.142 92.4685 148.072 94.1187C147.68 94.7223 147.68 94.7223 148.274 95.2177C148.6 95.49 149.126 96.0709 149.442 96.5088C150.077 97.3898 149.894 97.3403 151.393 97.0348C151.85 96.9416 152.218 96.9562 152.885 97.0937C153.913 97.3057 153.745 97.4394 154.595 95.7364C156.994 90.9286 155.425 86.8665 151.102 86.6904L149.764 86.636L149.691 88.4095ZM120.645 91.6728C115.809 92.924 114.09 98.7125 117.358 102.74C118.137 103.7 118.085 103.683 118.864 103.218C120.075 102.494 121.44 102.262 123.031 102.507C123.608 102.596 123.608 102.596 123.754 102.022C124 101.058 124.722 99.8002 125.506 98.9719C126.251 98.1843 126.251 98.1843 125.743 97.5159C124.635 96.0584 123.65 93.2722 123.641 91.5714C123.64 91.4103 121.361 91.4874 120.645 91.6728ZM158.337 91.5714C158.328 93.2722 157.343 96.0584 156.235 97.5159C155.727 98.1843 155.727 98.1843 156.472 98.9719C157.256 99.8002 157.978 101.058 158.224 102.022C158.37 102.596 158.37 102.596 158.947 102.507C160.538 102.262 161.903 102.494 163.114 103.218C163.893 103.683 163.841 103.7 164.62 102.74C167.344 99.3835 166.531 94.0351 163.042 92.3462C161.543 91.621 158.34 91.0934 158.337 91.5714ZM136.15 97.461C132.753 99.0245 132.444 102.837 135.363 107.196C136.26 108.536 136.26 108.536 136.61 107.991C138.469 105.092 143.509 105.092 145.368 107.991C145.874 108.779 147.91 105.773 148.428 103.474C149.351 99.3707 145.302 95.1971 143.014 97.8932C142.527 98.4668 141.929 99.5199 141.692 100.22C141.235 101.575 140.743 101.575 140.286 100.22C139.92 99.1361 139.149 97.9676 138.445 97.4304C137.944 97.0485 137.019 97.0608 136.15 97.461ZM112.033 98.2938C105.861 99.0955 104.734 107.867 110.32 111.618C111.509 112.416 114.903 113.824 114.903 113.519C114.903 113.5 114.791 113.051 114.654 112.52C114.068 110.257 114.68 107.408 116.134 105.624C116.523 105.146 116.523 105.146 115.545 104.124C114.094 102.609 113.309 100.98 113.093 99.0373C112.991 98.121 113.048 98.1616 112.033 98.2938ZM169.005 98.3167C168.98 98.3908 168.901 98.8535 168.828 99.3452C168.539 101.293 167.843 102.669 166.381 104.182C165.452 105.143 165.452 105.143 165.843 105.623C167.298 107.408 167.91 110.256 167.324 112.52C167.187 113.051 167.075 113.5 167.075 113.519C167.075 113.824 170.469 112.416 171.658 111.618C176.607 108.294 176.521 101.06 171.505 98.7475C170.678 98.3663 169.078 98.0906 169.005 98.3167ZM129.082 99.8849C125.157 100.444 124.356 106.815 127.674 111.095C127.961 111.465 128.234 111.823 128.28 111.89C128.33 111.961 128.559 111.878 128.842 111.685C130.441 110.595 132.376 110.358 135.298 110.895C135.395 110.913 135.925 109.609 135.84 109.56C132.662 107.744 130.848 104.521 131.031 101.014C131.084 99.9968 131.084 99.9968 130.638 99.923C130.393 99.8822 130.108 99.8335 130.006 99.8146C129.903 99.7956 129.487 99.8274 129.082 99.8849ZM151.91 99.817C151.841 99.8353 151.585 99.8833 151.34 99.9237C150.894 99.9968 150.894 99.9968 150.947 101.014C151.13 104.521 149.316 107.744 146.138 109.56C146.053 109.609 146.583 110.913 146.68 110.895C149.602 110.358 151.537 110.595 153.136 111.685C153.419 111.878 153.648 111.961 153.698 111.89C153.744 111.823 154.017 111.465 154.304 111.095C156.743 107.949 157.039 102.617 154.881 100.739C154.213 100.157 152.557 99.6436 151.91 99.817ZM121.119 104.98C116.308 106.26 115.971 112.834 120.501 117.042C123.775 120.084 120.577 119.371 117.011 116.264C116.045 115.422 116.045 115.422 115.308 115.498C112.298 115.809 107.663 113.178 105.191 109.756C104.62 108.966 104.62 108.966 104.258 109.385C99.1184 115.326 96.1935 120.644 92.8626 130.105C92.0382 132.447 92.03 132.265 92.9677 132.441C108.972 135.445 119.532 152.305 119.861 175.377C119.933 180.417 119.806 180.115 121.579 179.459C122.661 179.058 122.88 178.753 123.765 176.424C127.811 165.765 131.218 161.538 136.926 160.095C138.107 159.797 138.072 159.819 138.173 159.288C138.401 158.085 139.685 154.938 140.147 154.447C141.262 153.264 143.131 155.737 143.805 159.288C143.906 159.819 143.871 159.797 145.052 160.095C150.76 161.538 154.167 165.765 158.213 176.424C159.098 178.753 159.317 179.058 160.399 179.459C162.172 180.115 162.045 180.417 162.117 175.377C162.446 152.304 173.005 135.445 189.01 132.441C189.948 132.265 189.94 132.447 189.115 130.105C185.785 120.644 182.86 115.326 177.72 109.385C177.358 108.966 177.358 108.966 176.787 109.756C174.315 113.178 169.68 115.809 166.67 115.498C165.933 115.422 165.933 115.422 164.967 116.264C161.401 119.371 158.203 120.084 161.477 117.042C164.745 114.006 165.57 110.871 163.94 107.682C162.648 105.156 158.663 103.642 158.41 105.581C158.005 108.683 156.764 111.07 154.896 112.341C154.352 112.711 154.352 112.711 154.816 113.541C155.883 115.45 155.356 117.932 153.486 119.801C151.903 121.383 150.632 121.486 152.084 119.915C153.989 117.855 153.856 115.343 151.811 114.742C150.587 114.383 146.73 114.535 146.73 114.943C146.73 115.87 145.491 118.72 144.754 119.485C143.841 120.434 143.65 120.023 144.279 118.462C146.205 113.682 144.6 109.126 140.989 109.126C137.378 109.126 135.773 113.682 137.699 118.462C138.328 120.023 138.137 120.434 137.224 119.485C136.488 118.72 135.248 115.87 135.248 114.943C135.248 114.535 131.391 114.383 130.167 114.742C128.122 115.343 127.989 117.855 129.894 119.915C131.346 121.486 130.075 121.383 128.492 119.801C126.622 117.932 126.095 115.45 127.162 113.541C127.626 112.711 127.626 112.711 127.082 112.341C125.215 111.072 123.973 108.683 123.569 105.589C123.503 105.08 123.432 104.937 123.22 104.881C122.781 104.765 121.744 104.813 121.119 104.98ZM86.7144 135.53C79.3497 136.686 80.4572 144.708 88.91 151.428C91.5932 153.562 91.6419 153.592 95.9321 155.777C111.747 163.834 115.902 168.786 115.902 179.58C115.902 180.322 116.435 180.549 117.181 180.124C117.316 180.047 117.294 174.884 117.148 172.125C116.462 159.167 111.211 147.055 103.685 141.067C98.7066 137.106 91.5502 134.771 86.7144 135.53ZM191.475 135.489C177.818 136.927 167.433 149.849 165.144 168.253C164.78 171.182 164.523 179.968 164.797 180.124C165.543 180.549 166.076 180.322 166.076 179.58C166.076 168.784 170.228 163.837 186.046 155.777C190.336 153.592 190.385 153.562 193.068 151.428C203.198 143.375 202.296 134.35 191.475 135.489ZM81.3645 151.979C75.6195 158.171 73.9264 170.961 77.6442 180.085C82.8624 192.892 99.9362 204.799 114.966 206.112C121.777 206.707 123.323 206.606 122.671 205.603C121.603 203.962 117.941 197.298 115.802 193.104C115.247 192.018 114.387 190.493 113.891 189.71C111.658 186.204 111.495 183.657 113.374 181.671C114.486 180.494 113.787 174.932 112.105 171.569C111.273 169.906 111.33 169.923 110.539 171.107C101.433 184.734 82.8549 174.306 83.2315 155.779C83.289 152.951 83.289 152.951 82.5007 152.326C81.5809 151.598 81.6885 151.63 81.3645 151.979ZM199.45 152.334C198.689 152.951 198.689 152.951 198.746 155.779C199.123 174.306 180.545 184.734 171.439 171.107C170.648 169.923 170.705 169.906 169.873 171.569C168.191 174.932 167.492 180.494 168.605 181.671C170.483 183.657 170.32 186.204 168.088 189.71C167.591 190.493 166.731 192.018 166.176 193.104C164.037 197.298 160.375 203.962 159.307 205.603C158.651 206.613 158.468 206.564 162.303 206.386C170.302 206.018 173.629 205.288 180.117 202.476C203.576 192.315 213.116 170.728 201.734 153.559C200.327 151.436 200.466 151.511 199.45 152.334ZM86.3907 155.311C85.1811 159.282 87.5759 166.763 91.284 170.602C92.4355 171.792 92.5047 171.799 92.0445 170.684C90.1956 166.19 90.8735 160.619 93.4844 158.852C93.9673 158.523 93.0856 157.975 89.6914 156.492C88.9021 156.146 87.8784 155.677 87.4168 155.449C86.4202 154.955 86.4961 154.967 86.3907 155.311ZM194.72 155.368C194.377 155.544 193.31 156.039 192.349 156.467C188.64 158.116 187.996 158.515 188.492 158.85C191.105 160.619 191.783 166.188 189.934 170.684C189.473 171.799 189.543 171.792 190.694 170.602C194.402 166.763 196.797 159.282 195.587 155.311C195.484 154.972 195.489 154.972 194.72 155.368ZM139.512 162.94C134.736 163.784 130.266 168.901 126.799 177.493C125.062 181.801 124.158 182.425 118.398 183.291C114.608 183.862 114.358 184.774 116.963 188.531C118.846 191.251 121.146 195.004 123.576 199.323C127.918 207.045 129.52 209.605 131.728 212.356C139.344 221.845 145.852 220.289 153.927 207.049C155.517 204.442 155.715 204.1 158.402 199.323C160.832 195.004 163.132 191.251 165.015 188.531C167.62 184.774 167.37 183.862 163.58 183.291C157.82 182.425 156.917 181.801 155.179 177.493C151 167.136 145.366 161.902 139.512 162.94ZM126.823 183.366C125.657 183.965 125.236 185.12 125.779 186.228C126.21 187.108 127.395 187.546 128.125 187.097C128.326 186.973 128.477 187.017 129.091 187.39C131.283 188.714 132.119 188.459 131.438 186.667C130.398 183.934 128.438 182.533 126.823 183.366ZM153.009 183.421C151.671 184.093 149.96 186.967 150.38 187.839C150.683 188.467 151.279 188.362 152.887 187.39C153.501 187.017 153.652 186.973 153.853 187.097C154.583 187.546 155.768 187.108 156.199 186.228C157.129 184.331 154.974 182.431 153.009 183.421Z" fill="#22110C"/>
<mask id="mask0_3284_1233" style="mask-type:luminance" maskUnits="userSpaceOnUse" x="63" y="0" width="153" height="227">
<path d="M215.963 0H63.9075V226.982H215.963V0Z" fill="white"/>
<path fill-rule="evenodd" clip-rule="evenodd" d="M138.056 6.76275C109.485 9.57732 108.479 51.8726 136.87 56.6057C138.157 56.8201 138.564 56.9327 138.594 57.0819C138.615 57.1894 138.512 59.3222 138.364 61.8214C138.217 64.3206 138.031 69.2349 137.951 72.7416C137.871 76.2486 137.778 79.1383 137.744 79.1634C137.71 79.1883 137.246 79.4228 136.713 79.6846C135.715 80.1752 134.402 81.2521 133.874 82.0137C133.578 82.441 133.578 82.441 131.761 82.5003C128.891 82.5942 127.142 83.2956 125.554 84.9892C125.114 85.4588 124.71 85.7917 124.657 85.7296C124.603 85.6677 122.948 83.2291 120.977 80.3105C119.007 77.3919 116.769 74.1053 116.005 73.0072L114.616 71.0102L115.431 70.1071C130.634 53.2638 109.376 27.8956 91.2997 41.3093C73.3071 54.6611 89.4334 82.6682 110.121 73.9969C110.206 73.9612 111.743 75.8828 113.756 78.542C115.674 81.0758 118.07 84.1998 119.08 85.4841C120.09 86.7686 121.002 87.9481 121.106 88.1054C121.321 88.4283 121.389 88.3813 120.232 88.6991C117.024 89.5804 113.999 92.2433 113.399 94.7145C113.32 95.0391 113.191 95.3062 113.112 95.3084C107.69 95.4523 103.541 99.4792 103.482 104.654C103.463 106.415 103.463 106.415 102.724 106.853C96.0037 110.841 86.8861 124.222 86.2351 131.051C86.1391 132.061 86.177 132.028 84.847 132.255C81.8462 132.767 80.0932 133.85 78.2447 136.335C75.904 139.481 75.688 142.187 77.473 146.006C78.0775 147.3 78.1107 147.071 77.114 148.475C66.5755 163.321 68.7708 180.741 82.9494 194.774C92.2226 203.955 105.24 209.55 119.833 210.63C125.406 211.042 126.044 211.254 127.479 213.142C136.916 225.571 145.062 225.571 154.499 213.142C155.934 211.254 156.572 211.042 162.145 210.63C183.958 209.017 202.208 197.06 209.049 179.899C213.41 168.962 212.026 158.579 204.861 148.466C203.867 147.062 203.901 147.298 204.505 146.006C206.29 142.187 206.074 139.481 203.734 136.335C201.885 133.85 200.132 132.767 197.131 132.255C195.801 132.028 195.839 132.061 195.743 131.051C195.53 128.812 193.132 123.065 190.845 119.308C188.034 114.691 182.573 108.823 179.254 106.853C178.515 106.415 178.515 106.415 178.495 104.654C178.437 99.4792 174.288 95.4523 168.866 95.3084C168.787 95.3062 168.658 95.0391 168.579 94.7145C167.979 92.2433 164.954 89.5804 161.746 88.6991C160.589 88.3813 160.658 88.4283 160.872 88.1054C160.976 87.9481 161.888 86.7686 162.898 85.4841C163.908 84.1998 166.304 81.0758 168.222 78.542C170.235 75.8828 171.772 73.9612 171.857 73.9969C192.545 82.6682 208.671 54.6611 190.678 41.3093C172.602 27.8956 151.344 53.2638 166.547 70.1071L167.362 71.0102L165.973 73.0072C165.209 74.1053 162.971 77.3919 161.001 80.3105C159.031 83.2291 157.375 85.6677 157.321 85.7296C157.268 85.7917 156.865 85.4588 156.424 84.9892C154.836 83.2956 153.087 82.5942 150.217 82.5003C148.4 82.441 148.4 82.441 148.108 82.0197C147.343 80.9165 145.582 79.6635 144.156 79.2091C143.517 79.0052 143.517 79.0052 143.532 71.5131C143.541 67.3922 143.52 62.4157 143.485 60.4542L143.423 56.8875L145.108 56.6061C177.04 51.2729 170.293 3.58721 138.056 6.76275ZM137.271 12.936C126.316 14.9149 119.117 25.0438 121.082 34.9569C121.223 35.6718 121.413 36.3856 121.652 37.0952C127.376 54.0831 154.602 54.0831 160.326 37.0952C160.568 36.3779 160.759 35.6599 160.902 34.9439C163.41 22.3885 151.125 10.4334 137.271 12.936ZM100.488 44.0338C92.3974 45.5296 87.6091 53.7382 89.6042 60.6988C89.9878 62.0369 90.622 63.329 91.5317 64.5183C97.9681 72.9327 109.558 72.0838 114.333 62.8483C114.751 62.04 115.07 61.2165 115.298 60.3881C117.711 51.6262 109.916 42.2906 100.488 44.0338ZM177.141 44.0408C169.071 45.4825 164.888 53.3581 166.69 60.376C167.292 62.7212 168.563 64.9709 170.581 66.8525C176.384 72.2652 185.324 71.2147 190.446 64.5183C191.357 63.3276 191.988 62.0537 192.372 60.7447C194.86 52.256 186.927 42.2926 177.141 44.0408ZM139.631 83.218C135.682 83.9149 134.406 87.5697 136.507 92.1702C137.133 93.54 137.133 93.54 138.093 93.5499C138.956 93.5589 139.152 93.6096 140.021 94.0486C140.989 94.5376 140.989 94.5376 141.957 94.0486C142.826 93.6096 143.022 93.5589 143.885 93.5499C144.845 93.54 144.845 93.54 145.47 92.1702C148.048 86.5212 145.247 82.2275 139.631 83.218ZM129.5 86.8341C126.264 87.6969 125.331 91.623 127.383 95.7364C128.233 97.4394 128.065 97.3057 129.093 97.0937C129.76 96.9562 130.128 96.9416 130.585 97.0348C132.085 97.3403 131.901 97.3898 132.536 96.5088C132.853 96.0709 133.378 95.49 133.704 95.2177C134.298 94.7223 134.298 94.7223 133.906 94.1187C132.838 92.4721 132.389 90.8907 132.287 88.4245C132.211 86.5677 131.666 86.2565 129.5 86.8341ZM149.691 88.4095C149.589 90.8918 149.142 92.4685 148.072 94.1187C147.68 94.7223 147.68 94.7223 148.274 95.2177C148.6 95.49 149.126 96.0709 149.442 96.5088C150.077 97.3898 149.894 97.3403 151.393 97.0348C151.85 96.9416 152.218 96.9562 152.885 97.0937C153.913 97.3057 153.745 97.4394 154.595 95.7364C156.994 90.9286 155.425 86.8665 151.102 86.6904L149.764 86.636L149.691 88.4095ZM120.645 91.6728C115.809 92.924 114.09 98.7125 117.358 102.74C118.137 103.7 118.085 103.683 118.864 103.218C120.075 102.494 121.44 102.262 123.031 102.507C123.608 102.596 123.608 102.596 123.754 102.022C124 101.058 124.722 99.8002 125.506 98.9719C126.251 98.1843 126.251 98.1843 125.743 97.5159C124.635 96.0584 123.65 93.2722 123.641 91.5714C123.64 91.4103 121.361 91.4874 120.645 91.6728ZM158.337 91.5714C158.328 93.2722 157.343 96.0584 156.235 97.5159C155.727 98.1843 155.727 98.1843 156.472 98.9719C157.256 99.8002 157.978 101.058 158.224 102.022C158.37 102.596 158.37 102.596 158.947 102.507C160.538 102.262 161.903 102.494 163.114 103.218C163.893 103.683 163.841 103.7 164.62 102.74C167.344 99.3835 166.531 94.0351 163.042 92.3462C161.543 91.621 158.34 91.0934 158.337 91.5714ZM136.15 97.461C132.753 99.0245 132.444 102.837 135.363 107.196C136.26 108.536 136.26 108.536 136.61 107.991C138.469 105.092 143.509 105.092 145.368 107.991C145.874 108.779 147.91 105.773 148.428 103.474C149.351 99.3707 145.302 95.1971 143.014 97.8932C142.527 98.4668 141.929 99.5199 141.692 100.22C141.235 101.575 140.743 101.575 140.286 100.22C139.92 99.1361 139.149 97.9676 138.445 97.4304C137.944 97.0485 137.019 97.0608 136.15 97.461ZM112.033 98.2938C105.861 99.0955 104.734 107.867 110.32 111.618C111.509 112.416 114.903 113.824 114.903 113.519C114.903 113.5 114.791 113.051 114.654 112.52C114.068 110.257 114.68 107.408 116.134 105.624C116.523 105.146 116.523 105.146 115.545 104.124C114.094 102.609 113.309 100.98 113.093 99.0373C112.991 98.121 113.048 98.1616 112.033 98.2938ZM169.005 98.3167C168.98 98.3908 168.901 98.8535 168.828 99.3452C168.539 101.293 167.843 102.669 166.381 104.182C165.452 105.143 165.452 105.143 165.843 105.623C167.298 107.408 167.91 110.256 167.324 112.52C167.187 113.051 167.075 113.5 167.075 113.519C167.075 113.824 170.469 112.416 171.658 111.618C176.607 108.294 176.521 101.06 171.505 98.7475C170.678 98.3663 169.078 98.0906 169.005 98.3167ZM129.082 99.8849C125.157 100.444 124.356 106.815 127.674 111.095C127.961 111.465 128.234 111.823 128.28 111.89C128.33 111.961 128.559 111.878 128.842 111.685C130.441 110.595 132.376 110.358 135.298 110.895C135.395 110.913 135.925 109.609 135.84 109.56C132.662 107.744 130.848 104.521 131.031 101.014C131.084 99.9968 131.084 99.9968 130.638 99.923C130.393 99.8822 130.108 99.8335 130.006 99.8146C129.903 99.7956 129.487 99.8274 129.082 99.8849ZM151.91 99.817C151.841 99.8353 151.585 99.8833 151.34 99.9237C150.894 99.9968 150.894 99.9968 150.947 101.014C151.13 104.521 149.316 107.744 146.138 109.56C146.053 109.609 146.583 110.913 146.68 110.895C149.602 110.358 151.537 110.595 153.136 111.685C153.419 111.878 153.648 111.961 153.698 111.89C153.744 111.823 154.017 111.465 154.304 111.095C156.743 107.949 157.039 102.617 154.881 100.739C154.213 100.157 152.557 99.6436 151.91 99.817ZM121.119 104.98C116.308 106.26 115.971 112.834 120.501 117.042C123.775 120.084 120.577 119.371 117.011 116.264C116.045 115.422 116.045 115.422 115.308 115.498C112.298 115.809 107.663 113.178 105.191 109.756C104.62 108.966 104.62 108.966 104.258 109.385C99.1184 115.326 96.1935 120.644 92.8626 130.105C92.0382 132.447 92.03 132.265 92.9677 132.441C108.972 135.445 119.532 152.305 119.861 175.377C119.933 180.417 119.806 180.115 121.579 179.459C122.661 179.058 122.88 178.753 123.765 176.424C127.811 165.765 131.218 161.538 136.926 160.095C138.107 159.797 138.072 159.819 138.173 159.288C138.401 158.085 139.685 154.938 140.147 154.447C141.262 153.264 143.131 155.737 143.805 159.288C143.906 159.819 143.871 159.797 145.052 160.095C150.76 161.538 154.167 165.765 158.213 176.424C159.098 178.753 159.317 179.058 160.399 179.459C162.172 180.115 162.045 180.417 162.117 175.377C162.446 152.304 173.005 135.445 189.01 132.441C189.948 132.265 189.94 132.447 189.115 130.105C185.785 120.644 182.86 115.326 177.72 109.385C177.358 108.966 177.358 108.966 176.787 109.756C174.315 113.178 169.68 115.809 166.67 115.498C165.933 115.422 165.933 115.422 164.967 116.264C161.401 119.371 158.203 120.084 161.477 117.042C164.745 114.006 165.57 110.871 163.94 107.682C162.648 105.156 158.663 103.642 158.41 105.581C158.005 108.683 156.764 111.07 154.896 112.341C154.352 112.711 154.352 112.711 154.816 113.541C155.883 115.45 155.356 117.932 153.486 119.801C151.903 121.383 150.632 121.486 152.084 119.915C153.989 117.855 153.856 115.343 151.811 114.742C150.587 114.383 146.73 114.535 146.73 114.943C146.73 115.87 145.491 118.72 144.754 119.485C143.841 120.434 143.65 120.023 144.279 118.462C146.205 113.682 144.6 109.126 140.989 109.126C137.378 109.126 135.773 113.682 137.699 118.462C138.328 120.023 138.137 120.434 137.224 119.485C136.488 118.72 135.248 115.87 135.248 114.943C135.248 114.535 131.391 114.383 130.167 114.742C128.122 115.343 127.989 117.855 129.894 119.915C131.346 121.486 130.075 121.383 128.492 119.801C126.622 117.932 126.095 115.45 127.162 113.541C127.626 112.711 127.626 112.711 127.082 112.341C125.215 111.072 123.973 108.683 123.569 105.589C123.503 105.08 123.432 104.937 123.22 104.881C122.781 104.765 121.744 104.813 121.119 104.98ZM86.7144 135.53C79.3497 136.686 80.4572 144.708 88.91 151.428C91.5932 153.562 91.6419 153.592 95.9321 155.777C111.747 163.834 115.902 168.786 115.902 179.58C115.902 180.322 116.435 180.549 117.181 180.124C117.316 180.047 117.294 174.884 117.148 172.125C116.462 159.167 111.211 147.055 103.685 141.067C98.7066 137.106 91.5502 134.771 86.7144 135.53ZM191.475 135.489C177.818 136.927 167.433 149.849 165.144 168.253C164.78 171.182 164.523 179.968 164.797 180.124C165.543 180.549 166.076 180.322 166.076 179.58C166.076 168.784 170.228 163.837 186.046 155.777C190.336 153.592 190.385 153.562 193.068 151.428C203.198 143.375 202.296 134.35 191.475 135.489ZM81.3645 151.979C75.6195 158.171 73.9264 170.961 77.6442 180.085C82.8624 192.892 99.9362 204.799 114.966 206.112C121.777 206.707 123.323 206.606 122.671 205.603C121.603 203.962 117.941 197.298 115.802 193.104C115.247 192.018 114.387 190.493 113.891 189.71C111.658 186.204 111.495 183.657 113.374 181.671C114.486 180.494 113.787 174.932 112.105 171.569C111.273 169.906 111.33 169.923 110.539 171.107C101.433 184.734 82.8549 174.306 83.2315 155.779C83.289 152.951 83.289 152.951 82.5007 152.326C81.5809 151.598 81.6885 151.63 81.3645 151.979ZM199.45 152.334C198.689 152.951 198.689 152.951 198.746 155.779C199.123 174.306 180.545 184.734 171.439 171.107C170.648 169.923 170.705 169.906 169.873 171.569C168.191 174.932 167.492 180.494 168.605 181.671C170.483 183.657 170.32 186.204 168.088 189.71C167.591 190.493 166.731 192.018 166.176 193.104C164.037 197.298 160.375 203.962 159.307 205.603C158.651 206.613 158.468 206.564 162.303 206.386C170.302 206.018 173.629 205.288 180.117 202.476C203.576 192.315 213.116 170.728 201.734 153.559C200.327 151.436 200.466 151.511 199.45 152.334ZM86.3907 155.311C85.1811 159.282 87.5759 166.763 91.284 170.602C92.4355 171.792 92.5047 171.799 92.0445 170.684C90.1956 166.19 90.8735 160.619 93.4844 158.852C93.9673 158.523 93.0856 157.975 89.6914 156.492C88.9021 156.146 87.8784 155.677 87.4168 155.449C86.4202 154.955 86.4961 154.967 86.3907 155.311ZM194.72 155.368C194.377 155.544 193.31 156.039 192.349 156.467C188.64 158.116 187.996 158.515 188.492 158.85C191.105 160.619 191.783 166.188 189.934 170.684C189.473 171.799 189.543 171.792 190.694 170.602C194.402 166.763 196.797 159.282 195.587 155.311C195.484 154.972 195.489 154.972 194.72 155.368ZM139.512 162.94C134.736 163.784 130.266 168.901 126.799 177.493C125.062 181.801 124.158 182.425 118.398 183.291C114.608 183.862 114.358 184.774 116.963 188.531C118.846 191.251 121.146 195.004 123.576 199.323C127.918 207.045 129.52 209.605 131.728 212.356C139.344 221.845 145.852 220.289 153.927 207.049C155.517 204.442 155.715 204.1 158.402 199.323C160.832 195.004 163.132 191.251 165.015 188.531C167.62 184.774 167.37 183.862 163.58 183.291C157.82 182.425 156.917 181.801 155.179 177.493C151 167.136 145.366 161.902 139.512 162.94ZM126.823 183.366C125.657 183.965 125.236 185.12 125.779 186.228C126.21 187.108 127.395 187.546 128.125 187.097C128.326 186.973 128.477 187.017 129.091 187.39C131.283 188.714 132.119 188.459 131.438 186.667C130.398 183.934 128.438 182.533 126.823 183.366ZM153.009 183.421C151.671 184.093 149.96 186.967 150.38 187.839C150.683 188.467 151.279 188.362 152.887 187.39C153.501 187.017 153.652 186.973 153.853 187.097C154.583 187.546 155.768 187.108 156.199 186.228C157.129 184.331 154.974 182.431 153.009 183.421Z" fill="black"/>
</mask>
<g mask="url(#mask0_3284_1233)">
<path fill-rule="evenodd" clip-rule="evenodd" d="M138.056 6.76275C109.485 9.57732 108.479 51.8726 136.87 56.6057C138.157 56.8201 138.564 56.9327 138.594 57.0819C138.615 57.1894 138.512 59.3222 138.364 61.8214C138.217 64.3206 138.031 69.2349 137.951 72.7416C137.871 76.2486 137.778 79.1383 137.744 79.1634C137.71 79.1883 137.246 79.4228 136.713 79.6846C135.715 80.1752 134.402 81.2521 133.874 82.0137C133.578 82.441 133.578 82.441 131.761 82.5003C128.891 82.5942 127.142 83.2956 125.554 84.9892C125.114 85.4588 124.71 85.7917 124.657 85.7296C124.603 85.6677 122.948 83.2291 120.977 80.3105C119.007 77.3919 116.769 74.1053 116.005 73.0072L114.616 71.0102L115.431 70.1071C130.634 53.2638 109.376 27.8956 91.2997 41.3093C73.3071 54.6611 89.4334 82.6682 110.121 73.9969C110.206 73.9612 111.743 75.8828 113.756 78.542C115.674 81.0758 118.07 84.1998 119.08 85.4841C120.09 86.7686 121.002 87.9481 121.106 88.1054C121.321 88.4283 121.389 88.3813 120.232 88.6991C117.024 89.5804 113.999 92.2433 113.399 94.7145C113.32 95.0391 113.191 95.3062 113.112 95.3084C107.69 95.4523 103.541 99.4792 103.482 104.654C103.463 106.415 103.463 106.415 102.724 106.853C96.0037 110.841 86.8861 124.222 86.2351 131.051C86.1391 132.061 86.177 132.028 84.847 132.255C81.8462 132.767 80.0932 133.85 78.2447 136.335C75.904 139.481 75.688 142.187 77.473 146.006C78.0775 147.3 78.1107 147.071 77.114 148.475C66.5755 163.321 68.7708 180.741 82.9494 194.774C92.2226 203.955 105.24 209.55 119.833 210.63C125.406 211.042 126.044 211.254 127.479 213.142C136.916 225.571 145.062 225.571 154.499 213.142C155.934 211.254 156.572 211.042 162.145 210.63C183.958 209.017 202.208 197.06 209.049 179.899C213.41 168.962 212.026 158.579 204.861 148.466C203.867 147.062 203.901 147.298 204.505 146.006C206.29 142.187 206.074 139.481 203.734 136.335C201.885 133.85 200.132 132.767 197.131 132.255C195.801 132.028 195.839 132.061 195.743 131.051C195.53 128.812 193.132 123.065 190.845 119.308C188.034 114.691 182.573 108.823 179.254 106.853C178.515 106.415 178.515 106.415 178.495 104.654C178.437 99.4792 174.288 95.4523 168.866 95.3084C168.787 95.3062 168.658 95.0391 168.579 94.7145C167.979 92.2433 164.954 89.5804 161.746 88.6991C160.589 88.3813 160.658 88.4283 160.872 88.1054C160.976 87.9481 161.888 86.7686 162.898 85.4841C163.908 84.1998 166.304 81.0758 168.222 78.542C170.235 75.8828 171.772 73.9612 171.857 73.9969C192.545 82.6682 208.671 54.6611 190.678 41.3093C172.602 27.8956 151.344 53.2638 166.547 70.1071L167.362 71.0102L165.973 73.0072C165.209 74.1053 162.971 77.3919 161.001 80.3105C159.031 83.2291 157.375 85.6677 157.321 85.7296C157.268 85.7917 156.865 85.4588 156.424 84.9892C154.836 83.2956 153.087 82.5942 150.217 82.5003C148.4 82.441 148.4 82.441 148.108 82.0197C147.343 80.9165 145.582 79.6635 144.156 79.2091C143.517 79.0052 143.517 79.0052 143.532 71.5131C143.541 67.3922 143.52 62.4157 143.485 60.4542L143.423 56.8875L145.108 56.6061C177.04 51.2729 170.293 3.58721 138.056 6.76275ZM137.271 12.936C126.316 14.9149 119.117 25.0438 121.082 34.9569C121.223 35.6718 121.413 36.3856 121.652 37.0952C127.376 54.0831 154.602 54.0831 160.326 37.0952C160.568 36.3779 160.759 35.6599 160.902 34.9439C163.41 22.3885 151.125 10.4334 137.271 12.936ZM100.488 44.0338C92.3974 45.5296 87.6091 53.7382 89.6042 60.6988C89.9878 62.0369 90.622 63.329 91.5317 64.5183C97.9681 72.9327 109.558 72.0838 114.333 62.8483C114.751 62.04 115.07 61.2165 115.298 60.3881C117.711 51.6262 109.916 42.2906 100.488 44.0338ZM177.141 44.0408C169.071 45.4825 164.888 53.3581 166.69 60.376C167.292 62.7212 168.563 64.9709 170.581 66.8525C176.384 72.2652 185.324 71.2147 190.446 64.5183C191.357 63.3276 191.988 62.0537 192.372 60.7447C194.86 52.256 186.927 42.2926 177.141 44.0408ZM139.631 83.218C135.682 83.9149 134.406 87.5697 136.507 92.1702C137.133 93.54 137.133 93.54 138.093 93.5499C138.956 93.5589 139.152 93.6096 140.021 94.0486C140.989 94.5376 140.989 94.5376 141.957 94.0486C142.826 93.6096 143.022 93.5589 143.885 93.5499C144.845 93.54 144.845 93.54 145.47 92.1702C148.048 86.5212 145.247 82.2275 139.631 83.218ZM129.5 86.8341C126.264 87.6969 125.331 91.623 127.383 95.7364C128.233 97.4394 128.065 97.3057 129.093 97.0937C129.76 96.9562 130.128 96.9416 130.585 97.0348C132.085 97.3403 131.901 97.3898 132.536 96.5088C132.853 96.0709 133.378 95.49 133.704 95.2177C134.298 94.7223 134.298 94.7223 133.906 94.1187C132.838 92.4721 132.389 90.8907 132.287 88.4245C132.211 86.5677 131.666 86.2565 129.5 86.8341ZM149.691 88.4095C149.589 90.8918 149.142 92.4685 148.072 94.1187C147.68 94.7223 147.68 94.7223 148.274 95.2177C148.6 95.49 149.126 96.0709 149.442 96.5088C150.077 97.3898 149.894 97.3403 151.393 97.0348C151.85 96.9416 152.218 96.9562 152.885 97.0937C153.913 97.3057 153.745 97.4394 154.595 95.7364C156.994 90.9286 155.425 86.8665 151.102 86.6904L149.764 86.636L149.691 88.4095ZM120.645 91.6728C115.809 92.924 114.09 98.7125 117.358 102.74C118.137 103.7 118.085 103.683 118.864 103.218C120.075 102.494 121.44 102.262 123.031 102.507C123.608 102.596 123.608 102.596 123.754 102.022C124 101.058 124.722 99.8002 125.506 98.9719C126.251 98.1843 126.251 98.1843 125.743 97.5159C124.635 96.0584 123.65 93.2722 123.641 91.5714C123.64 91.4103 121.361 91.4874 120.645 91.6728ZM158.337 91.5714C158.328 93.2722 157.343 96.0584 156.235 97.5159C155.727 98.1843 155.727 98.1843 156.472 98.9719C157.256 99.8002 157.978 101.058 158.224 102.022C158.37 102.596 158.37 102.596 158.947 102.507C160.538 102.262 161.903 102.494 163.114 103.218C163.893 103.683 163.841 103.7 164.62 102.74C167.344 99.3835 166.531 94.0351 163.042 92.3462C161.543 91.621 158.34 91.0934 158.337 91.5714ZM136.15 97.461C132.753 99.0245 132.444 102.837 135.363 107.196C136.26 108.536 136.26 108.536 136.61 107.991C138.469 105.092 143.509 105.092 145.368 107.991C145.874 108.779 147.91 105.773 148.428 103.474C149.351 99.3707 145.302 95.1971 143.014 97.8932C142.527 98.4668 141.929 99.5199 141.692 100.22C141.235 101.575 140.743 101.575 140.286 100.22C139.92 99.1361 139.149 97.9676 138.445 97.4304C137.944 97.0485 137.019 97.0608 136.15 97.461ZM112.033 98.2938C105.861 99.0955 104.734 107.867 110.32 111.618C111.509 112.416 114.903 113.824 114.903 113.519C114.903 113.5 114.791 113.051 114.654 112.52C114.068 110.257 114.68 107.408 116.134 105.624C116.523 105.146 116.523 105.146 115.545 104.124C114.094 102.609 113.309 100.98 113.093 99.0373C112.991 98.121 113.048 98.1616 112.033 98.2938ZM169.005 98.3167C168.98 98.3908 168.901 98.8535 168.828 99.3452C168.539 101.293 167.843 102.669 166.381 104.182C165.452 105.143 165.452 105.143 165.843 105.623C167.298 107.408 167.91 110.256 167.324 112.52C167.187 113.051 167.075 113.5 167.075 113.519C167.075 113.824 170.469 112.416 171.658 111.618C176.607 108.294 176.521 101.06 171.505 98.7475C170.678 98.3663 169.078 98.0906 169.005 98.3167ZM129.082 99.8849C125.157 100.444 124.356 106.815 127.674 111.095C127.961 111.465 128.234 111.823 128.28 111.89C128.33 111.961 128.559 111.878 128.842 111.685C130.441 110.595 132.376 110.358 135.298 110.895C135.395 110.913 135.925 109.609 135.84 109.56C132.662 107.744 130.848 104.521 131.031 101.014C131.084 99.9968 131.084 99.9968 130.638 99.923C130.393 99.8822 130.108 99.8335 130.006 99.8146C129.903 99.7956 129.487 99.8274 129.082 99.8849ZM151.91 99.817C151.841 99.8353 151.585 99.8833 151.34 99.9237C150.894 99.9968 150.894 99.9968 150.947 101.014C151.13 104.521 149.316 107.744 146.138 109.56C146.053 109.609 146.583 110.913 146.68 110.895C149.602 110.358 151.537 110.595 153.136 111.685C153.419 111.878 153.648 111.961 153.698 111.89C153.744 111.823 154.017 111.465 154.304 111.095C156.743 107.949 157.039 102.617 154.881 100.739C154.213 100.157 152.557 99.6436 151.91 99.817ZM121.119 104.98C116.308 106.26 115.971 112.834 120.501 117.042C123.775 120.084 120.577 119.371 117.011 116.264C116.045 115.422 116.045 115.422 115.308 115.498C112.298 115.809 107.663 113.178 105.191 109.756C104.62 108.966 104.62 108.966 104.258 109.385C99.1184 115.326 96.1935 120.644 92.8626 130.105C92.0382 132.447 92.03 132.265 92.9677 132.441C108.972 135.445 119.532 152.305 119.861 175.377C119.933 180.417 119.806 180.115 121.579 179.459C122.661 179.058 122.88 178.753 123.765 176.424C127.811 165.765 131.218 161.538 136.926 160.095C138.107 159.797 138.072 159.819 138.173 159.288C138.401 158.085 139.685 154.938 140.147 154.447C141.262 153.264 143.131 155.737 143.805 159.288C143.906 159.819 143.871 159.797 145.052 160.095C150.76 161.538 154.167 165.765 158.213 176.424C159.098 178.753 159.317 179.058 160.399 179.459C162.172 180.115 162.045 180.417 162.117 175.377C162.446 152.304 173.005 135.445 189.01 132.441C189.948 132.265 189.94 132.447 189.115 130.105C185.785 120.644 182.86 115.326 177.72 109.385C177.358 108.966 177.358 108.966 176.787 109.756C174.315 113.178 169.68 115.809 166.67 115.498C165.933 115.422 165.933 115.422 164.967 116.264C161.401 119.371 158.203 120.084 161.477 117.042C164.745 114.006 165.57 110.871 163.94 107.682C162.648 105.156 158.663 103.642 158.41 105.581C158.005 108.683 156.764 111.07 154.896 112.341C154.352 112.711 154.352 112.711 154.816 113.541C155.883 115.45 155.356 117.932 153.486 119.801C151.903 121.383 150.632 121.486 152.084 119.915C153.989 117.855 153.856 115.343 151.811 114.742C150.587 114.383 146.73 114.535 146.73 114.943C146.73 115.87 145.491 118.72 144.754 119.485C143.841 120.434 143.65 120.023 144.279 118.462C146.205 113.682 144.6 109.126 140.989 109.126C137.378 109.126 135.773 113.682 137.699 118.462C138.328 120.023 138.137 120.434 137.224 119.485C136.488 118.72 135.248 115.87 135.248 114.943C135.248 114.535 131.391 114.383 130.167 114.742C128.122 115.343 127.989 117.855 129.894 119.915C131.346 121.486 130.075 121.383 128.492 119.801C126.622 117.932 126.095 115.45 127.162 113.541C127.626 112.711 127.626 112.711 127.082 112.341C125.215 111.072 123.973 108.683 123.569 105.589C123.503 105.08 123.432 104.937 123.22 104.881C122.781 104.765 121.744 104.813 121.119 104.98ZM86.7144 135.53C79.3497 136.686 80.4572 144.708 88.91 151.428C91.5932 153.562 91.6419 153.592 95.9321 155.777C111.747 163.834 115.902 168.786 115.902 179.58C115.902 180.322 116.435 180.549 117.181 180.124C117.316 180.047 117.294 174.884 117.148 172.125C116.462 159.167 111.211 147.055 103.685 141.067C98.7066 137.106 91.5502 134.771 86.7144 135.53ZM191.475 135.489C177.818 136.927 167.433 149.849 165.144 168.253C164.78 171.182 164.523 179.968 164.797 180.124C165.543 180.549 166.076 180.322 166.076 179.58C166.076 168.784 170.228 163.837 186.046 155.777C190.336 153.592 190.385 153.562 193.068 151.428C203.198 143.375 202.296 134.35 191.475 135.489ZM81.3645 151.979C75.6195 158.171 73.9264 170.961 77.6442 180.085C82.8624 192.892 99.9362 204.799 114.966 206.112C121.777 206.707 123.323 206.606 122.671 205.603C121.603 203.962 117.941 197.298 115.802 193.104C115.247 192.018 114.387 190.493 113.891 189.71C111.658 186.204 111.495 183.657 113.374 181.671C114.486 180.494 113.787 174.932 112.105 171.569C111.273 169.906 111.33 169.923 110.539 171.107C101.433 184.734 82.8549 174.306 83.2315 155.779C83.289 152.951 83.289 152.951 82.5007 152.326C81.5809 151.598 81.6885 151.63 81.3645 151.979ZM199.45 152.334C198.689 152.951 198.689 152.951 198.746 155.779C199.123 174.306 180.545 184.734 171.439 171.107C170.648 169.923 170.705 169.906 169.873 171.569C168.191 174.932 167.492 180.494 168.605 181.671C170.483 183.657 170.32 186.204 168.088 189.71C167.591 190.493 166.731 192.018 166.176 193.104C164.037 197.298 160.375 203.962 159.307 205.603C158.651 206.613 158.468 206.564 162.303 206.386C170.302 206.018 173.629 205.288 180.117 202.476C203.576 192.315 213.116 170.728 201.734 153.559C200.327 151.436 200.466 151.511 199.45 152.334ZM86.3907 155.311C85.1811 159.282 87.5759 166.763 91.284 170.602C92.4355 171.792 92.5047 171.799 92.0445 170.684C90.1956 166.19 90.8735 160.619 93.4844 158.852C93.9673 158.523 93.0856 157.975 89.6914 156.492C88.9021 156.146 87.8784 155.677 87.4168 155.449C86.4202 154.955 86.4961 154.967 86.3907 155.311ZM194.72 155.368C194.377 155.544 193.31 156.039 192.349 156.467C188.64 158.116 187.996 158.515 188.492 158.85C191.105 160.619 191.783 166.188 189.934 170.684C189.473 171.799 189.543 171.792 190.694 170.602C194.402 166.763 196.797 159.282 195.587 155.311C195.484 154.972 195.489 154.972 194.72 155.368ZM139.512 162.94C134.736 163.784 130.266 168.901 126.799 177.493C125.062 181.801 124.158 182.425 118.398 183.291C114.608 183.862 114.358 184.774 116.963 188.531C118.846 191.251 121.146 195.004 123.576 199.323C127.918 207.045 129.52 209.605 131.728 212.356C139.344 221.845 145.852 220.289 153.927 207.049C155.517 204.442 155.715 204.1 158.402 199.323C160.832 195.004 163.132 191.251 165.015 188.531C167.62 184.774 167.37 183.862 163.58 183.291C157.82 182.425 156.917 181.801 155.179 177.493C151 167.136 145.366 161.902 139.512 162.94ZM126.823 183.366C125.657 183.965 125.236 185.12 125.779 186.228C126.21 187.108 127.395 187.546 128.125 187.097C128.326 186.973 128.477 187.017 129.091 187.39C131.283 188.714 132.119 188.459 131.438 186.667C130.398 183.934 128.438 182.533 126.823 183.366ZM153.009 183.421C151.671 184.093 149.96 186.967 150.38 187.839C150.683 188.467 151.279 188.362 152.887 187.39C153.501 187.017 153.652 186.973 153.853 187.097C154.583 187.546 155.768 187.108 156.199 186.228C157.129 184.331 154.974 182.431 153.009 183.421Z" stroke="white" stroke-width="8"/>
</g>
<path d="M151.91 99.8169C151.841 99.8352 151.585 99.8832 151.34 99.9236C150.894 99.9967 150.894 99.9967 150.947 101.014C151.13 104.521 149.316 107.744 146.138 109.56C146.053 109.609 146.583 110.913 146.68 110.895C149.602 110.358 151.537 110.595 153.136 111.685C153.419 111.878 153.648 111.961 153.698 111.889C153.744 111.823 154.017 111.465 154.304 111.095C156.743 107.949 157.039 102.617 154.881 100.739C154.213 100.157 152.557 99.6435 151.91 99.8169Z" fill="#2430F0"/>
<path d="M169.005 98.3168C168.981 98.3908 168.901 98.8536 168.828 99.3453C168.539 101.294 167.843 102.669 166.381 104.182C165.452 105.143 165.452 105.143 165.843 105.623C167.298 107.408 167.91 110.256 167.324 112.52C167.187 113.051 167.075 113.5 167.075 113.519C167.075 113.824 170.469 112.416 171.658 111.618C176.607 108.294 176.521 101.06 171.506 98.7476C170.678 98.3664 169.078 98.0907 169.005 98.3168Z" fill="#2430F0"/>
<path d="M158.337 91.5714C158.328 93.2722 157.343 96.0583 156.235 97.5159C155.727 98.1843 155.727 98.1842 156.473 98.9719C157.256 99.8002 157.979 101.058 158.224 102.022C158.37 102.596 158.37 102.596 158.947 102.507C160.538 102.262 161.903 102.494 163.114 103.218C163.893 103.683 163.841 103.7 164.62 102.74C167.344 99.3835 166.532 94.0351 163.042 92.3462C161.543 91.621 158.34 91.0934 158.337 91.5714Z" fill="#2430F0"/>
<path d="M149.691 88.4095C149.589 90.8918 149.142 92.4685 148.072 94.1187C147.68 94.7223 147.68 94.7223 148.274 95.2177C148.6 95.49 149.125 96.0709 149.442 96.5088C150.077 97.3898 149.893 97.3403 151.393 97.0348C151.85 96.9416 152.218 96.9562 152.885 97.0934C153.913 97.3057 153.745 97.4394 154.594 95.7364C156.994 90.9286 155.425 86.8665 151.101 86.6902L149.764 86.636L149.691 88.4095Z" fill="#2430F0"/>
<path d="M139.631 83.2181C135.681 83.9149 134.406 87.5698 136.507 92.1702C137.133 93.5401 137.133 93.54 138.093 93.55C138.956 93.5588 139.152 93.6097 140.021 94.0487C140.989 94.5377 140.989 94.5377 141.957 94.0487C142.826 93.6097 143.022 93.5588 143.885 93.55C144.845 93.54 144.845 93.5401 145.47 92.1702C148.048 86.5213 145.247 82.2276 139.631 83.2181Z" fill="#2430F0"/>
<path d="M136.15 97.461C132.753 99.0248 132.444 102.837 135.363 107.196C136.26 108.536 136.26 108.536 136.61 107.991C138.469 105.092 143.509 105.092 145.368 107.991C145.874 108.779 147.91 105.773 148.428 103.474C149.351 99.3707 145.302 95.1971 143.013 97.8932C142.527 98.4668 141.929 99.5199 141.692 100.22C141.235 101.575 140.743 101.575 140.286 100.22C139.92 99.1361 139.149 97.9676 138.445 97.4304C137.944 97.0485 137.019 97.0608 136.15 97.461Z" fill="#2430F0"/>
<path d="M129.082 99.8849C125.157 100.444 124.356 106.815 127.674 111.095C127.961 111.465 128.234 111.823 128.28 111.89C128.33 111.961 128.559 111.878 128.842 111.685C130.441 110.595 132.376 110.358 135.298 110.895C135.395 110.913 135.925 109.609 135.84 109.56C132.662 107.744 130.848 104.521 131.031 101.014C131.084 99.9968 131.084 99.9968 130.638 99.923C130.393 99.8822 130.109 99.8335 130.006 99.8146C129.903 99.7956 129.487 99.8274 129.082 99.8849Z" fill="#2430F0"/>
<path d="M120.645 91.6729C115.809 92.9241 114.09 98.7126 117.359 102.74C118.138 103.7 118.085 103.683 118.864 103.218C120.075 102.494 121.44 102.262 123.031 102.507C123.608 102.596 123.608 102.596 123.754 102.022C124 101.058 124.722 99.8003 125.506 98.9719C126.251 98.1843 126.251 98.1843 125.743 97.516C124.635 96.0584 123.65 93.2723 123.641 91.5715C123.64 91.4104 121.361 91.4875 120.645 91.6729Z" fill="#2430F0"/>
<path d="M129.5 86.8341C126.264 87.6968 125.331 91.6229 127.383 95.7364C128.233 97.4394 128.065 97.3056 129.093 97.0936C129.76 96.9561 130.128 96.9416 130.585 97.0348C132.085 97.3402 131.901 97.3898 132.536 96.5088C132.852 96.0709 133.378 95.49 133.704 95.2176C134.298 94.7222 134.298 94.7222 133.906 94.1186C132.838 92.472 132.389 90.8906 132.287 88.4245C132.211 86.5676 131.666 86.2565 129.5 86.8341Z" fill="#2430F0"/>
<path d="M112.033 98.2938C105.861 99.0957 104.734 107.867 110.32 111.618C111.509 112.416 114.903 113.824 114.903 113.519C114.903 113.5 114.791 113.051 114.654 112.52C114.068 110.257 114.68 107.408 116.134 105.624C116.523 105.146 116.523 105.146 115.545 104.124C114.094 102.609 113.309 100.98 113.093 99.0373C112.99 98.121 113.048 98.1616 112.033 98.2938Z" fill="#2430F0"/>
<path d="M191.475 135.489C177.818 136.927 167.433 149.849 165.144 168.253C164.78 171.182 164.523 179.968 164.797 180.124C165.543 180.55 166.076 180.323 166.076 179.58C166.076 168.784 170.228 163.837 186.046 155.778C190.336 153.592 190.385 153.562 193.068 151.429C203.198 143.375 202.296 134.35 191.475 135.489Z" fill="#2BE1B7"/>
<path d="M199.45 152.334C198.689 152.951 198.689 152.951 198.746 155.779C199.123 174.306 180.545 184.734 171.439 171.107C170.648 169.923 170.705 169.906 169.873 171.569C168.191 174.932 167.492 180.494 168.604 181.671C170.483 183.657 170.32 186.204 168.087 189.71C167.591 190.493 166.731 192.018 166.176 193.104C164.037 197.298 160.375 203.962 159.307 205.603C158.651 206.613 158.468 206.564 162.303 206.386C170.302 206.018 173.629 205.288 180.117 202.476C203.576 192.315 213.116 170.728 201.734 153.559C200.327 151.436 200.466 151.511 199.45 152.334Z" fill="#2BE1B7"/>
<path d="M81.3646 151.979C75.6196 158.171 73.9265 170.961 77.6444 180.085C82.8625 192.892 99.9364 204.799 114.966 206.112C121.777 206.707 123.323 206.606 122.672 205.603C121.603 203.962 117.941 197.298 115.802 193.104C115.247 192.018 114.388 190.493 113.891 189.71C111.659 186.204 111.495 183.657 113.374 181.671C114.486 180.494 113.787 174.932 112.105 171.569C111.273 169.906 111.33 169.923 110.539 171.107C101.433 184.734 82.855 174.306 83.2316 155.779C83.2891 152.951 83.2891 152.951 82.5011 152.326C81.581 151.598 81.6888 151.63 81.3646 151.979Z" fill="#2BE1B7"/>
<path d="M86.7145 135.53C79.3497 136.686 80.4573 144.708 88.91 151.429C91.5932 153.562 91.6419 153.592 95.9321 155.778C111.747 163.835 115.902 168.786 115.902 179.58C115.902 180.323 116.435 180.55 117.181 180.124C117.316 180.047 117.294 174.884 117.148 172.125C116.462 159.167 111.211 147.055 103.685 141.067C98.7066 137.106 91.5503 134.771 86.7145 135.53Z" fill="#2BE1B7"/>
<path d="M121.12 104.98C116.308 106.26 115.971 112.834 120.501 117.042C123.775 120.084 120.577 119.371 117.011 116.264C116.045 115.422 116.045 115.422 115.308 115.498C112.298 115.809 107.663 113.178 105.191 109.756C104.62 108.966 104.62 108.966 104.258 109.385C99.1187 115.326 96.1935 120.644 92.8626 130.105C92.0382 132.447 92.03 132.265 92.9679 132.441C108.972 135.445 119.533 152.305 119.862 175.377C119.933 180.417 119.806 180.115 121.579 179.459C122.661 179.058 122.88 178.753 123.765 176.424C127.812 165.765 131.218 161.538 136.926 160.095C138.107 159.797 138.072 159.819 138.173 159.288C138.401 158.085 139.685 154.938 140.147 154.447C141.262 153.264 143.131 155.737 143.805 159.288C143.906 159.819 143.871 159.797 145.052 160.095C150.76 161.538 154.167 165.765 158.213 176.424C159.098 178.753 159.317 179.058 160.4 179.459C162.172 180.115 162.045 180.417 162.117 175.377C162.446 152.303 173.005 135.445 189.01 132.441C189.948 132.265 189.94 132.447 189.116 130.105C185.785 120.644 182.86 115.326 177.721 109.385C177.358 108.966 177.358 108.966 176.787 109.756C174.315 113.178 169.68 115.809 166.67 115.498C165.934 115.422 165.934 115.422 164.967 116.264C161.401 119.371 158.203 120.084 161.477 117.042C164.745 114.006 165.571 110.871 163.94 107.682C162.648 105.156 158.663 103.642 158.41 105.581C158.005 108.683 156.765 111.07 154.896 112.341C154.352 112.711 154.352 112.711 154.816 113.541C155.883 115.45 155.356 117.932 153.486 119.801C151.903 121.383 150.632 121.486 152.084 119.915C153.989 117.855 153.856 115.343 151.811 114.742C150.588 114.383 146.73 114.535 146.73 114.943C146.73 115.87 145.491 118.72 144.755 119.485C143.842 120.434 143.65 120.023 144.279 118.463C146.205 113.682 144.6 109.126 140.989 109.126C137.379 109.126 135.773 113.682 137.699 118.463C138.328 120.023 138.137 120.434 137.224 119.485C136.488 118.72 135.248 115.87 135.248 114.943C135.248 114.535 131.391 114.383 130.167 114.742C128.122 115.343 127.989 117.855 129.894 119.915C131.346 121.486 130.075 121.383 128.493 119.801C126.622 117.932 126.095 115.45 127.162 113.541C127.626 112.711 127.626 112.711 127.082 112.341C125.216 111.072 123.973 108.683 123.569 105.589C123.503 105.08 123.433 104.937 123.22 104.881C122.781 104.765 121.744 104.813 121.12 104.98Z" fill="#2430F0"/>
<path fill-rule="evenodd" clip-rule="evenodd" d="M139.512 162.94C134.736 163.784 130.266 168.901 126.799 177.493C125.061 181.801 124.158 182.425 118.398 183.291C114.608 183.862 114.358 184.774 116.963 188.531C118.846 191.251 121.147 195.003 123.576 199.323C127.918 207.044 129.52 209.605 131.728 212.355C139.344 221.845 145.852 220.289 153.927 207.049C155.517 204.442 155.716 204.1 158.402 199.323C160.832 195.003 163.132 191.251 165.015 188.531C167.62 184.774 167.37 183.862 163.58 183.291C157.82 182.425 156.917 181.801 155.179 177.493C151 167.135 145.366 161.902 139.512 162.94ZM125.779 186.228C125.236 185.12 125.657 183.965 126.823 183.366C128.438 182.533 130.398 183.934 131.438 186.667C132.119 188.458 131.284 188.714 129.091 187.39C128.478 187.017 128.326 186.973 128.125 187.097C127.396 187.546 126.21 187.108 125.779 186.228ZM150.38 187.839C149.96 186.967 151.671 184.093 153.009 183.421C154.974 182.431 157.129 184.331 156.199 186.228C155.768 187.108 154.583 187.546 153.853 187.097C153.652 186.973 153.501 187.017 152.887 187.39C151.279 188.361 150.683 188.467 150.38 187.839Z" fill="#F2C79C"/>
<path fill-rule="evenodd" clip-rule="evenodd" d="M115.298 60.3883C113.638 54.2012 108.464 49.3277 101.435 50.6272C95.8581 51.6586 90.9024 55.8956 89.6042 60.6991C89.9879 62.0371 90.6221 63.3292 91.5318 64.5185C97.9682 72.9329 109.558 72.0841 114.333 62.8486C114.751 62.0402 115.07 61.2167 115.298 60.3883Z" fill="#2430F0"/>
<path fill-rule="evenodd" clip-rule="evenodd" d="M121.652 37.0952C121.413 36.3856 121.223 35.6716 121.082 34.9567C122.535 27.5188 129.721 21.0644 138.219 19.5293C149.592 17.475 158.959 25.1787 160.902 34.9439C160.759 35.6599 160.568 36.3779 160.326 37.0952C154.602 54.0829 127.376 54.0829 121.652 37.0952Z" fill="#2430F0"/>
<path d="M177.141 44.0409C169.071 45.4826 164.888 53.3582 166.69 60.3761C167.882 55.6727 172.541 51.6254 178.089 50.6342C185.362 49.3351 190.663 54.5198 192.372 60.7448C194.86 52.2561 186.927 42.2927 177.141 44.0409Z" fill="#2430F0"/>
<path d="M121.081 34.957C122.535 27.5188 129.721 21.0644 138.219 19.5293C149.592 17.4752 158.959 25.1789 160.902 34.944C163.41 22.3886 151.125 10.4335 137.271 12.936C126.316 14.915 119.117 25.0441 121.081 34.957Z" fill="#2430F0"/>
<path d="M101.435 50.627C108.464 49.3275 113.638 54.201 115.298 60.3881C117.711 51.6262 109.916 42.2906 100.488 44.0338C92.3971 45.5297 87.6092 53.7382 89.6042 60.6988C90.9024 55.8954 95.8581 51.6584 101.435 50.627Z" fill="#2430F0"/>
<path d="M170.581 66.8525C176.384 72.2653 185.324 71.2148 190.446 64.5184C191.357 63.3277 191.988 62.0538 192.372 60.745C190.663 54.5197 185.362 49.3351 178.089 50.6342C172.541 51.6254 167.882 55.6727 166.69 60.3761C167.293 62.7213 168.563 64.971 170.581 66.8525Z" fill="#2430F0"/>
<path fill-rule="evenodd" clip-rule="evenodd" d="M124.098 28.2553C127.273 23.8957 132.448 20.5738 138.23 19.5293C146.882 17.9664 154.374 22.0516 158.318 28.3956C159.07 27.6475 159.758 26.887 160.326 26.1421C157.392 17.4547 147.788 11.0384 137.282 12.936C130.023 14.2472 124.414 19.1361 122.026 25.1696C122.542 26.154 123.272 27.2105 124.098 28.2553Z" fill="#F2C79C"/>
<path d="M124.098 28.2553C126.917 31.8193 130.863 35.2511 131.339 35.2511C131.699 35.2511 133.688 33.3401 135.755 31.3559C137.987 29.2121 140.308 26.9828 140.762 26.9828C141.199 26.9828 143.071 29.0499 144.943 31.117C146.815 33.1841 148.688 35.2511 149.125 35.2511C149.682 35.2511 154.733 31.9625 158.319 28.3956C154.374 22.0516 146.882 17.9664 138.23 19.5292C132.448 20.5738 127.273 23.8957 124.098 28.2553Z" fill="#2BE1B7"/>
<path d="M89.6705 60.3507C91.1084 55.692 95.9587 51.6333 101.401 50.627C105.562 49.8577 109.073 51.252 111.59 53.8017C112.058 52.0925 112.396 50.0512 112.357 48.3376C109.532 45.0863 105.2 43.1563 100.453 44.0338C92.5538 45.4942 87.8026 53.3544 89.4398 60.2037C89.5156 60.2533 89.5927 60.3022 89.6705 60.3507Z" fill="#2BE1B7"/>
<path d="M89.6704 60.3509C92.7311 62.2621 96.9036 63.0967 98.0031 62.4627C98.8541 61.9719 99.2481 59.4963 99.3407 56.9466C99.4112 55.0089 99.4742 53.2741 99.8515 52.9543C100.268 52.6009 102.291 53.7508 104.434 54.9694C106.783 56.3046 109.436 57.4693 110.121 57.0821C110.611 56.8053 111.093 55.6173 111.59 53.8019C109.073 51.2522 105.562 49.8579 101.401 50.6272C95.9587 51.6334 91.1083 55.6922 89.6704 60.3509Z" fill="#2BE1B7"/>
<path fill-rule="evenodd" clip-rule="evenodd" d="M167.619 51.5411C167.806 52.8985 171.738 60.1796 172.799 60.4264C173.373 60.5602 175.338 59.1738 177.139 57.904C178.663 56.8288 180.069 55.8372 180.412 55.922C180.725 55.9994 181.322 56.9289 182.02 58.016C182.991 59.529 184.159 61.3473 185.03 61.5988C186.159 61.9242 190.655 59.5863 192.855 58.0184C193.195 50.2801 185.926 42.4774 177.175 44.041C172.605 44.8572 169.282 47.7364 167.586 51.3544C167.599 51.4115 167.61 51.4734 167.619 51.5411Z" fill="#2BE1B7"/>
<path d="M194.72 155.368C194.377 155.544 193.31 156.039 192.349 156.467C188.64 158.116 187.996 158.515 188.492 158.85C191.105 160.619 191.783 166.188 189.934 170.683C189.473 171.798 189.543 171.792 190.694 170.602C194.402 166.763 196.797 159.281 195.587 155.311C195.484 154.971 195.489 154.971 194.72 155.368Z" fill="#F1F1F1"/>
<path d="M86.3907 155.311C85.1811 159.282 87.5759 166.763 91.284 170.602C92.4355 171.792 92.5047 171.799 92.0445 170.683C90.1956 166.19 90.8735 160.619 93.4844 158.852C93.9673 158.523 93.0856 157.975 89.6914 156.492C88.9021 156.146 87.8784 155.677 87.4168 155.449C86.4202 154.955 86.4961 154.967 86.3907 155.311Z" fill="#F1F1F1"/>
<path d="M186.593 166.618C186.593 166.21 186.23 165.877 185.782 165.877C185.334 165.877 184.971 166.21 184.971 166.618C184.971 167.028 185.334 167.358 185.782 167.358C186.23 167.358 186.593 167.028 186.593 166.618Z" fill="#F1F1F1"/>
<path opacity="0.2" fill-rule="evenodd" clip-rule="evenodd" d="M159.79 38.4958C152.846 46.1429 139.044 50.3511 123.274 40.6127C131.072 53.5798 153.595 52.8741 159.79 38.4958ZM112.342 65.8068C105.033 68.8298 95.1092 65.7349 90.2612 62.4391C90.6017 63.1577 91.0239 63.8539 91.5319 64.5183C97.1967 71.9238 106.853 72.1541 112.342 65.8068ZM191.576 62.7359C187.374 66.6433 178.865 69.4211 168.926 65.0157C169.408 65.6576 169.959 66.2724 170.581 66.8524C176.384 72.2652 185.324 71.2147 190.446 64.5183C190.887 63.9418 191.263 63.3459 191.576 62.7359Z" fill="#22110C"/>
<path d="M121.082 34.957C122.536 27.5188 129.721 21.0644 138.219 19.5295C149.592 17.4752 158.959 25.1787 160.902 34.944C163.41 22.3886 151.125 10.4335 137.271 12.936C126.316 14.915 119.117 25.0441 121.082 34.957Z" fill="#2430F0"/>
<path fill-rule="evenodd" clip-rule="evenodd" d="M124.098 28.2553C127.273 23.8957 132.448 20.5738 138.23 19.5295C146.882 17.9664 154.374 22.0516 158.318 28.3956C159.07 27.6475 159.758 26.8872 160.326 26.1421C157.392 17.4547 147.788 11.0384 137.282 12.936C130.023 14.2472 124.414 19.1361 122.026 25.1694C122.542 26.154 123.272 27.2105 124.098 28.2553Z" fill="#2BE1B7"/>
<g opacity="0.2">
<g style="mix-blend-mode:hard-light">
<path fill-rule="evenodd" clip-rule="evenodd" d="M145.993 85.8945C145.081 83.7869 142.806 82.6582 139.631 83.2181C137.756 83.5491 136.484 84.5465 135.889 85.9952C137.141 84.9738 139.354 84.6399 141.006 84.6054C142.602 84.6388 144.723 84.9518 145.993 85.8945ZM132.094 87.2284C130.547 87.4631 127.723 88.2069 126.496 89.9185C126.905 88.3893 127.933 87.2522 129.5 86.8342C131.07 86.4157 131.788 86.4637 132.094 87.2284ZM123.659 91.9774C123.648 91.8366 123.642 91.7008 123.641 91.5715C123.64 91.4104 121.361 91.4877 120.645 91.6728C118.194 92.3071 116.544 94.1066 115.938 96.2515C117.577 93.9601 120.629 92.0492 123.659 91.9774ZM106.713 104.462C107.437 102.026 110.136 99.4848 112.331 99.4848C112.641 99.4848 112.911 99.4678 113.146 99.4376C113.125 99.3058 113.108 99.1723 113.093 99.0374C113.088 98.9922 113.083 98.9492 113.079 98.9087C113.04 98.5488 113.019 98.3635 112.916 98.2802C112.805 98.1916 112.6 98.2189 112.176 98.2749C112.13 98.2811 112.083 98.2875 112.033 98.2939C108.721 98.724 106.862 101.449 106.713 104.462ZM139.62 98.821C138.347 97.8437 136.464 97.4573 133.819 99.645C134.265 98.7176 135.044 97.9701 136.15 97.4611C137.019 97.0609 137.944 97.0485 138.445 97.4305C138.844 97.7348 139.264 98.2419 139.62 98.821ZM147.805 99.338C146.663 97.2557 144.478 96.1682 143.014 97.8932C142.8 98.1449 142.565 98.4891 142.349 98.8549C143.559 97.902 145.334 97.4747 147.805 99.338ZM131.052 100.573C131.071 99.9949 131.007 99.9843 130.639 99.9231C130.393 99.8825 130.109 99.8336 130.006 99.8146C129.903 99.7957 129.487 99.8274 129.082 99.8849C127.154 100.16 125.98 101.836 125.677 103.979C126.441 101.527 129.318 100.383 131.052 100.573ZM158.481 105.299C159.081 103.806 162.717 105.291 163.94 107.682C164.28 108.347 164.513 109.009 164.64 109.669C163.703 107.065 160.752 105.871 158.481 105.299ZM146.727 115.029C146.729 114.998 146.73 114.97 146.73 114.943C146.73 114.535 150.588 114.383 151.811 114.742C152.391 114.912 152.817 115.236 153.086 115.659C151.916 114.638 149.369 114.828 146.727 115.029ZM137.862 110.807C138.572 109.762 139.641 109.126 140.989 109.126C142.312 109.126 143.366 109.738 144.075 110.749C143.192 110.066 141.981 109.716 141.006 109.626C140.003 109.719 138.752 110.087 137.862 110.807ZM128.849 115.73C129.115 115.272 129.555 114.922 130.167 114.742C131.391 114.383 135.248 114.535 135.248 114.943C135.248 114.969 135.249 114.997 135.251 115.026C132.562 114.821 129.977 114.634 128.849 115.73ZM123.523 105.301C121.201 105.887 118.173 107.123 117.311 109.851C117.45 107.549 118.735 105.614 121.119 104.98C121.744 104.813 122.781 104.765 123.22 104.881C123.385 104.925 123.465 105.021 123.523 105.301ZM155.515 89.9174C154.987 88.0299 153.451 86.7861 151.101 86.6905L149.764 86.636L149.74 87.2028C151.238 87.4056 154.239 88.1388 155.515 89.9174ZM166.002 96.1523C165.567 94.5022 164.557 93.0795 163.042 92.3463C161.543 91.6211 158.34 91.0935 158.337 91.5715C158.337 91.7008 158.33 91.8361 158.319 91.9767C161.317 92.0342 164.341 93.8968 166.002 96.1523ZM175.309 104.495C174.599 102.049 171.886 99.4848 169.682 99.4848C169.349 99.4848 169.062 99.4651 168.815 99.4308C168.819 99.4025 168.824 99.3739 168.828 99.3453C168.901 98.8536 168.981 98.3908 169.005 98.3168C169.078 98.0907 170.678 98.3664 171.506 98.7476C173.911 99.8565 175.182 102.097 175.309 104.495ZM156.262 103.766C156.098 102.493 155.642 101.401 154.881 100.739C154.213 100.157 152.557 99.6436 151.91 99.8171C151.841 99.8354 151.585 99.8834 151.34 99.9237C150.97 99.9845 150.907 99.9949 150.926 100.577C152.606 100.374 155.398 101.446 156.262 103.766Z" fill="white"/>
</g>
</g>
<g style="mix-blend-mode:hard-light">
<path fill-rule="evenodd" clip-rule="evenodd" d="M198.084 136.592C193.166 136.227 187.43 137.839 183.286 140.395C177.482 143.974 168.558 153.476 166.686 162.669C166.168 165.212 165.78 166.045 165.492 165.862C168.351 148.736 178.417 136.864 191.475 135.489C194.42 135.179 196.631 135.623 198.084 136.592Z" fill="white" fill-opacity="0.4"/>
</g>
<g style="mix-blend-mode:hard-light">
<path fill-rule="evenodd" clip-rule="evenodd" d="M83.6399 136.71C88.6853 136.158 94.7236 137.796 99.0381 140.457C104.842 144.035 113.766 153.538 115.638 162.73C115.932 164.174 116.184 165.064 116.399 165.534C114.586 155.178 109.915 146.025 103.685 141.067C98.7066 137.106 91.5503 134.771 86.7145 135.53C85.4366 135.731 84.4136 136.138 83.6399 136.71Z" fill="white" fill-opacity="0.4"/>
</g>
<g style="mix-blend-mode:hard-light">
<path fill-rule="evenodd" clip-rule="evenodd" d="M128.683 173.357C132.764 168.918 137.993 168.16 140.788 168.16C143.691 168.16 149.447 169.088 153.602 173.965C149.635 165.963 144.659 162.027 139.512 162.94C135.561 163.638 131.82 167.261 128.683 173.357Z" fill="white" fill-opacity="0.4"/>
</g>
<path opacity="0.2" fill-rule="evenodd" clip-rule="evenodd" d="M195.904 157.701C194.038 158.497 191.948 159.306 189.691 160.114C189.354 159.592 188.953 159.162 188.492 158.85C187.996 158.515 188.641 158.116 192.349 156.467C193.31 156.039 194.378 155.544 194.721 155.368L194.734 155.36C195.21 155.115 195.384 155.025 195.474 155.078C195.525 155.107 195.549 155.184 195.586 155.306L195.587 155.311C195.801 156.012 195.902 156.822 195.904 157.701ZM86.0771 157.499C87.9631 158.343 90.0665 159.198 92.3286 160.053C92.6567 159.559 93.0431 159.149 93.4849 158.852C93.9677 158.523 93.0858 157.975 89.6919 156.492C88.9025 156.146 87.8789 155.677 87.4172 155.449C87.3529 155.417 87.2934 155.387 87.2376 155.36C86.7352 155.111 86.5684 155.027 86.4906 155.079C86.4516 155.103 86.435 155.161 86.4097 155.249C86.4042 155.268 86.3982 155.289 86.3912 155.311C86.1944 155.957 86.0928 156.699 86.0771 157.499Z" fill="#22110C"/>
<path opacity="0.2" fill-rule="evenodd" clip-rule="evenodd" d="M113.065 188.273C112.666 192.509 114.134 197.243 114.812 199.429C114.928 199.801 115.02 200.099 115.076 200.308C115.56 202.102 110.304 204.938 91.0264 196.251C98.1441 201.608 106.853 205.403 114.966 206.112C121.777 206.707 123.323 206.606 122.671 205.603C121.603 203.962 117.941 197.298 115.802 193.104C115.247 192.018 114.387 190.493 113.89 189.71C113.574 189.214 113.298 188.734 113.065 188.273Z" fill="#22110C"/>
<path opacity="0.2" fill-rule="evenodd" clip-rule="evenodd" d="M191.07 196.211C171.723 204.944 166.451 202.104 166.936 200.308C166.992 200.098 167.085 199.801 167.2 199.428C167.881 197.234 169.359 192.465 168.942 188.218C168.703 188.694 168.418 189.192 168.088 189.71C167.591 190.492 166.731 192.017 166.177 193.104C164.037 197.298 160.375 203.962 159.307 205.603C159.069 205.969 158.894 206.196 158.949 206.328C159.046 206.56 159.858 206.5 162.303 206.386C170.302 206.018 173.63 205.288 180.118 202.476C184.203 200.707 187.866 198.591 191.07 196.211Z" fill="#22110C"/>
<path opacity="0.2" fill-rule="evenodd" clip-rule="evenodd" d="M122.485 197.406C126.702 204.149 128.411 206.577 130.717 209.171C139.152 218.669 146.362 217.111 155.305 203.86C156.98 201.381 157.261 200.949 159.845 196.797C159.371 197.613 158.889 198.457 158.402 199.323C155.715 204.1 155.517 204.442 153.927 207.049C145.852 220.289 139.343 221.845 131.728 212.356C129.52 209.605 127.918 207.045 123.576 199.323C123.209 198.671 122.845 198.031 122.485 197.406Z" fill="#22110C"/>
<path d="M140.912 151.069C139.352 151.069 137.355 162.052 136.482 162.052L134.672 163.717L140.912 162.052L148.089 164.149C147.319 163.451 145.667 162.052 145.218 162.052C144.657 162.052 142.472 151.069 140.912 151.069Z" fill="black" fill-opacity="0.2"/>
<path d="M130.553 121.575C129.679 121.575 126.746 119.539 126.746 116.515C127.162 115.754 127.994 114.565 127.994 115.898C127.994 117.564 129.866 119.724 130.366 120.217C130.865 120.711 131.427 121.575 130.553 121.575Z" fill="black" fill-opacity="0.2"/>
<path d="M113.828 116.515C110.271 116.515 105.653 111.887 103.281 108.74L104.717 107.506L107.962 112.134L115.326 114.294L116.761 111.949C117.115 112.484 117.947 113.775 118.446 114.664C119.07 115.775 120.693 116.638 122.003 118.49C123.314 120.341 118.321 118.058 117.697 117.749C117.198 117.502 116.116 116.741 115.638 116.392C115.638 116.433 115.276 116.515 113.828 116.515Z" fill="black" fill-opacity="0.2"/>
<path d="M124.999 110.9C123.564 109.11 124.063 107.013 123.813 105.223L127.87 112.504L127.558 113.06L127.549 113.055C127.148 112.847 126.139 112.322 124.999 110.9Z" fill="black" fill-opacity="0.2"/>
<path d="M137.792 120.464C136.482 120.155 135.296 117.132 135.296 114.849L136.544 114.293L137.355 117.502C137.605 118.49 139.103 120.772 137.792 120.464Z" fill="black" fill-opacity="0.2"/>
<path d="M151.334 121.575C152.208 121.575 155.141 119.539 155.141 116.515C154.725 115.754 153.893 114.565 153.893 115.898C153.893 117.564 152.021 119.724 151.521 120.217C151.022 120.711 150.46 121.575 151.334 121.575Z" fill="black" fill-opacity="0.2"/>
<path d="M168.059 116.515C171.616 116.515 176.234 111.887 178.605 108.74L177.17 107.506L173.925 112.134L166.561 114.294L165.126 111.949C164.772 112.484 163.94 113.775 163.441 114.664C162.817 115.775 161.194 116.638 159.884 118.49C158.573 120.341 163.565 118.058 164.19 117.749C164.689 117.502 165.77 116.741 166.249 116.392C166.249 116.433 166.611 116.515 168.059 116.515Z" fill="black" fill-opacity="0.2"/>
<path d="M156.888 110.9C158.323 109.11 157.824 107.013 158.074 105.223L154.018 112.504L154.33 113.06L154.338 113.055C154.739 112.847 155.748 112.322 156.888 110.9Z" fill="black" fill-opacity="0.2"/>
<path d="M144.033 120.526C145.343 120.217 146.591 117.132 146.591 114.849L145.343 114.293L144.532 117.502C144.282 118.489 142.722 120.834 144.033 120.526Z" fill="black" fill-opacity="0.2"/>
<path opacity="0.2" d="M126.147 186.61C125.71 186.61 127.083 185.931 126.646 184.759C127.686 184.327 129.317 184.772 130.515 185.808C132.013 187.103 132.013 190.312 131.95 191.669C131.888 193.027 126.584 186.61 126.147 186.61Z" fill="#22110C"/>
<path opacity="0.2" d="M155.746 186.651C156.183 186.651 154.81 185.973 155.247 184.8C154.207 184.368 152.576 184.814 151.378 185.849C149.88 187.145 149.88 190.354 149.942 191.711C150.005 193.069 155.309 186.651 155.746 186.651Z" fill="#22110C"/>
<path opacity="0.2" fill-rule="evenodd" clip-rule="evenodd" d="M99.097 155.297C106.693 159.79 114.078 164.158 114.078 169.579C114.078 169.753 114.075 169.927 114.069 170.097C111.6 164.982 106.244 161.044 95.9059 155.777C91.6157 153.592 91.567 153.562 88.884 151.428C82.3026 146.196 80.1741 140.175 83.0303 137.219C81.1087 144.657 90.2463 150.062 99.097 155.297Z" fill="#22110C"/>
<path opacity="0.2" fill-rule="evenodd" clip-rule="evenodd" d="M83.1499 137.006L83.0908 137.234C82.1384 140.92 83.9227 144.11 87.0669 147.04C90.2116 149.97 94.7019 152.625 99.1291 155.244L99.1322 155.247C102.928 157.492 106.677 159.709 109.476 162.045C112.275 164.379 114.14 166.84 114.14 169.579C114.14 169.756 114.137 169.928 114.132 170.097L114.013 170.122C111.553 165.031 106.216 161.1 95.8776 155.832C93.7334 154.74 92.6458 154.184 91.7593 153.635C90.8719 153.086 90.1859 152.543 88.8449 151.477C85.5484 148.855 83.363 146.034 82.3601 143.492C81.3574 140.951 81.5339 138.678 82.9853 137.176L83.1499 137.006ZM82.4762 143.448C83.469 145.964 85.6383 148.769 88.9231 151.38C90.2654 152.448 90.9455 152.986 91.8256 153.531C92.7067 154.077 93.7885 154.63 95.9346 155.723C106.119 160.91 111.486 164.819 114.013 169.842C114.015 169.754 114.015 169.668 114.015 169.579C114.015 166.9 112.189 164.467 109.396 162.138C106.605 159.81 102.864 157.598 99.065 155.35L99.0606 155.348C94.6387 152.732 90.1367 150.07 86.9812 147.129C83.891 144.25 82.0782 141.092 82.9123 137.44C81.6575 138.894 81.5231 141.031 82.4762 143.448Z" fill="#22110C"/>
<path opacity="0.2" fill-rule="evenodd" clip-rule="evenodd" d="M182.977 155.297C175.381 159.791 167.996 164.159 167.996 169.58C167.996 169.657 167.997 169.734 167.998 169.809C170.528 164.835 175.874 160.946 186.02 155.778C190.31 153.592 190.359 153.562 193.042 151.429C199.621 146.197 201.547 140.558 199.125 137.558C200.687 144.823 191.693 150.143 182.977 155.297Z" fill="#22110C"/>
<path opacity="0.2" fill-rule="evenodd" clip-rule="evenodd" d="M199.516 143.68C198.51 146.131 196.376 148.857 193.081 151.477C191.74 152.543 191.054 153.086 190.167 153.636C189.28 154.184 188.193 154.739 186.049 155.833C175.902 161 170.573 164.883 168.054 169.837L167.936 169.811C167.934 169.734 167.934 169.657 167.934 169.579C167.934 166.84 169.799 164.379 172.598 162.045C175.398 159.709 179.146 157.492 182.942 155.247L182.945 155.244C187.305 152.666 191.726 150.05 194.863 147.173C198 144.297 199.837 141.171 199.063 137.571L199.173 137.519C200.404 139.042 200.522 141.229 199.516 143.68ZM199.238 137.81C200.278 139.275 200.35 141.321 199.402 143.633C198.405 146.059 196.287 148.769 193.003 151.38C191.661 152.448 190.981 152.986 190.101 153.531C189.219 154.077 188.138 154.63 185.991 155.723C175.998 160.813 170.645 164.67 168.059 169.557C168.069 166.884 169.894 164.46 172.679 162.138C175.47 159.81 179.21 157.598 183.009 155.35L183.013 155.348C187.368 152.772 191.8 150.151 194.947 147.263C198.02 144.446 199.882 141.362 199.238 137.81Z" fill="#22110C"/>
<g style="mix-blend-mode:multiply">
<path fill-rule="evenodd" clip-rule="evenodd" d="M80.2439 153.303C80.1685 159.418 80.4036 185.808 111.769 185.808C111.897 185.808 112.025 185.808 112.152 185.808C111.849 184.183 112.25 182.83 113.348 181.671C114.46 180.494 113.761 174.932 112.079 171.569C111.633 170.677 111.443 170.269 111.24 170.263C111.065 170.258 110.88 170.556 110.513 171.107C101.407 184.734 82.829 174.306 83.2054 155.779C83.2629 152.951 83.2629 152.951 82.4749 152.326C81.9006 151.872 81.7267 151.714 81.5985 151.743C81.5211 151.762 81.4603 151.848 81.3387 151.979C80.9554 152.392 80.5905 152.834 80.2439 153.303Z" fill="black" fill-opacity="0.2"/>
</g>
<path opacity="0.2" fill-rule="evenodd" clip-rule="evenodd" d="M201.885 153.828C201.933 160.613 201.078 185.931 170.356 185.931C170.152 185.931 169.95 185.931 169.751 185.929C170.097 184.252 169.704 182.861 168.579 181.671C167.466 180.494 168.165 174.932 169.847 171.569C170.293 170.677 170.483 170.269 170.686 170.263C170.861 170.258 171.046 170.556 171.414 171.107C180.519 184.734 199.097 174.306 198.721 155.778C198.68 153.768 198.667 153.187 198.938 152.798C199.048 152.639 199.204 152.513 199.425 152.334C199.837 152 200.059 151.79 200.271 151.799C200.582 151.812 200.872 152.297 201.708 153.558C201.768 153.649 201.826 153.739 201.885 153.828Z" fill="#22110C"/>
<path opacity="0.2" fill-rule="evenodd" clip-rule="evenodd" d="M135.532 87.2567C135.344 88.6607 135.645 90.3406 136.481 92.1701C137.107 93.5401 137.107 93.5401 138.067 93.55C138.929 93.5588 139.126 93.6095 139.995 94.0487C140.963 94.5375 140.963 94.5375 141.93 94.0487C142.8 93.6095 142.996 93.5588 143.858 93.55C144.819 93.5401 144.819 93.5401 145.444 92.1701C146.279 90.3395 146.55 88.6512 146.342 87.2388C145.928 89.5236 144.973 92.5099 142.832 92.7591C141.904 92.9519 141.259 92.9641 141.037 92.9453L141.022 92.944H140.849H140.835C140.612 92.9627 139.967 92.9519 139.04 92.7591C136.904 92.5105 135.948 89.5391 135.532 87.2567ZM148.045 94.1188C149.116 92.4687 149.563 90.8919 149.665 88.4097L149.718 87.106C150.128 89.3414 150.019 92.4718 148.142 95.1294C147.655 94.72 147.679 94.6843 148.045 94.1188ZM155.672 92.0165C155.585 93.1573 155.226 94.4189 154.568 95.7365C154.498 95.8778 154.434 96.0065 154.376 96.1233C154.024 96.8384 153.885 97.1187 153.673 97.1936C153.536 97.2421 153.367 97.2049 153.091 97.1438C153.021 97.1282 152.944 97.1112 152.858 97.0936C152.192 96.9563 151.824 96.9417 151.367 97.035C151.247 97.0592 151.138 97.0821 151.039 97.1028C151.017 97.1072 150.996 97.1114 150.976 97.1158C151.058 96.8712 151.694 96.6718 152.342 96.4684C152.953 96.2773 153.573 96.0827 153.753 95.8441C154.642 94.6592 155.321 93.4643 155.672 92.0165ZM158.311 91.5715C158.302 93.2721 157.316 96.0583 156.209 97.516C155.735 98.1388 155.703 98.1811 156.305 98.8222C157.58 96.9997 158.908 93.4112 158.406 91.4561C158.344 91.4847 158.311 91.5228 158.311 91.5715ZM166.187 97.3464C166.024 98.3903 165.44 100.588 164.549 101.521C163.488 102.632 163.051 102.755 162.177 102.385C161.658 102.165 160.899 102.272 160.347 102.417C161.349 102.455 162.255 102.72 163.087 103.218L163.114 103.233L163.161 103.262C163.464 103.443 163.632 103.544 163.785 103.525C163.975 103.502 164.143 103.295 164.519 102.831L164.557 102.785L164.593 102.74C165.857 101.183 166.36 99.1968 166.187 97.3464ZM175.243 104.026C175.022 105.749 174.394 108.812 171.975 110.838C169.699 112.745 167.981 112.874 167.607 110.159C167.571 109.897 167.52 109.758 167.459 109.718C167.572 110.675 167.525 111.642 167.298 112.52C167.161 113.051 167.048 113.5 167.048 113.519C167.048 113.824 170.442 112.416 171.632 111.618C174.363 109.783 175.561 106.758 175.243 104.026ZM168.791 99.4141C168.496 101.326 167.799 102.687 166.355 104.182C165.426 105.143 165.426 105.143 165.817 105.623C165.858 105.674 165.9 105.727 165.94 105.78C167.184 104.53 168.57 102.143 168.791 99.4141ZM156.301 105.201C156.07 106.507 155.689 107.936 155.126 108.617C154.002 109.974 152.504 110.344 151.319 110.159C150.723 110.067 149.734 110.326 148.87 110.628C150.623 110.555 151.954 110.897 153.11 111.685C153.393 111.878 153.622 111.962 153.672 111.89C153.718 111.823 153.991 111.465 154.278 111.095C155.547 109.457 156.236 107.228 156.301 105.201ZM146.226 110.024C148.023 109.088 150.903 106.581 150.868 102.593C150.519 105.471 148.806 108.021 146.111 109.56C146.079 109.579 146.137 109.782 146.226 110.024ZM148.503 102.861C147.948 104.478 146.715 107.022 144.766 106.334C143.019 105.717 141.958 105.593 141.084 105.593C141.028 105.593 140.979 105.599 140.936 105.608C140.892 105.599 140.843 105.593 140.787 105.593C139.913 105.593 138.852 105.717 137.105 106.334C135.347 106.955 134.171 104.944 133.55 103.357C133.839 104.551 134.433 105.847 135.336 107.196C135.902 108.041 136.111 108.353 136.276 108.332C136.373 108.319 136.454 108.192 136.583 107.991C138.443 105.092 143.483 105.092 145.342 107.991C145.848 108.779 147.884 105.773 148.401 103.474C148.447 103.27 148.481 103.065 148.503 102.861ZM125.573 105.215C125.595 107.156 126.262 109.308 127.648 111.095C127.935 111.465 128.208 111.823 128.254 111.89C128.304 111.962 128.532 111.878 128.815 111.685C129.958 110.906 131.271 110.563 132.994 110.626C132.132 110.324 131.147 110.067 130.552 110.159C129.367 110.344 127.869 109.974 126.746 108.617C126.184 107.938 125.804 106.517 125.573 105.215ZM131.018 102.182C130.77 106.444 133.837 109.099 135.69 110.048C135.785 109.795 135.847 109.58 135.814 109.56C132.992 107.948 131.246 105.227 131.018 102.182ZM125.59 98.8548C126.223 98.1824 126.198 98.1494 125.717 97.516C124.609 96.0583 123.624 93.2721 123.614 91.5715C123.614 91.5455 123.555 91.5257 123.452 91.5116C122.986 93.4903 124.32 97.0601 125.59 98.8548ZM115.692 97.3909C115.501 99.1834 116.006 101.107 117.332 102.74C117.358 102.771 117.382 102.802 117.406 102.831C117.782 103.295 117.95 103.502 118.141 103.525C118.294 103.544 118.461 103.443 118.764 103.262C118.788 103.248 118.813 103.233 118.838 103.218C119.657 102.728 120.548 102.463 121.531 102.419C120.979 102.273 120.216 102.164 119.694 102.385C118.82 102.755 118.383 102.632 117.323 101.521C116.443 100.601 115.864 98.4513 115.692 97.3909ZM126.335 92.5123C126.469 93.5361 126.805 94.6294 127.357 95.7365C127.428 95.8778 127.491 96.0063 127.549 96.1233C127.902 96.8382 128.04 97.1187 128.253 97.1936C128.39 97.2421 128.558 97.2049 128.835 97.1438C128.905 97.1282 128.982 97.1112 129.067 97.0936C129.734 96.9563 130.101 96.9417 130.558 97.035C130.678 97.0592 130.787 97.0821 130.887 97.1028C130.888 97.1031 130.889 97.1033 130.891 97.1037C130.792 96.8644 130.166 96.6683 129.529 96.4684C128.919 96.2773 128.298 96.0827 128.119 95.8441C127.333 94.7971 126.711 93.7424 126.335 92.5123ZM132.111 87.3508C132.198 87.6267 132.243 87.9815 132.261 88.4247C132.362 90.8908 132.812 92.4722 133.88 94.1188C134.255 94.697 134.271 94.7213 133.75 95.1579C131.921 92.5897 131.752 89.5743 132.111 87.3508ZM114.467 109.707C114.383 109.687 114.311 109.82 114.264 110.159C113.89 112.874 112.172 112.745 109.896 110.838C107.663 108.968 106.956 106.214 106.687 104.446C106.553 107.052 107.7 109.876 110.294 111.618C111.483 112.416 114.877 113.824 114.877 113.519C114.877 113.5 114.765 113.051 114.627 112.52C114.399 111.638 114.353 110.668 114.467 109.707ZM115.962 105.81C116.009 105.747 116.058 105.685 116.107 105.625C116.497 105.146 116.497 105.146 115.518 104.124C114.068 102.609 113.282 100.98 113.066 99.0375C113.061 98.9952 113.057 98.955 113.053 98.9167C113.134 101.874 114.635 104.495 115.962 105.81Z" fill="#22110C"/>
<path d="M187.093 164.15C187.093 162.651 188.35 161.435 189.901 161.435C191.452 161.435 192.709 162.651 192.709 164.15C192.709 165.65 191.452 166.865 189.901 166.865C188.35 166.865 187.093 165.65 187.093 164.15Z" fill="#F1F1F1"/>
<path d="M89.1157 164.15C89.1157 162.651 90.3729 161.435 91.9239 161.435C93.4749 161.435 94.7321 162.651 94.7321 164.15C94.7321 165.65 93.4749 166.865 91.9239 166.865C90.3729 166.865 89.1157 165.65 89.1157 164.15Z" fill="#F1F1F1"/>
<path d="M96.6043 166.618C96.6043 166.21 96.2411 165.877 95.7929 165.877C95.3449 165.877 94.9817 166.21 94.9817 166.618C94.9817 167.028 95.3449 167.358 95.7929 167.358C96.2411 167.358 96.6043 167.028 96.6043 166.618Z" fill="#F1F1F1"/>
<path d="M877.429 166.364L880.521 181.303C878.374 182.764 875.282 184.093 871.248 185.296C867.298 186.411 863.349 186.969 859.398 186.969C851.758 186.969 845.405 184.567 840.338 179.758C835.36 174.95 832.87 167.737 832.87 158.122V131.979H820.249V114.593H832.87V99.2676L851.286 95.2754V114.593H877.557V131.979H851.286V157.091C851.286 165.591 855.064 169.841 862.618 169.841C865.967 169.841 870.904 168.682 877.429 166.364Z" fill="white"/>
<path d="M781.25 186.969C771.722 186.969 763.779 184.78 757.426 180.402C751.073 175.937 747.252 169.841 745.965 162.115H764.637C766.184 168.469 771.894 171.644 781.766 171.644C789.75 171.644 793.743 169.714 793.743 165.848C793.743 165.335 793.657 164.861 793.485 164.434C793.399 164.004 793.186 163.616 792.842 163.274C792.584 162.931 792.284 162.629 791.941 162.371C791.597 162.029 791.081 161.727 790.394 161.47C789.794 161.214 789.234 160.998 788.721 160.826C788.205 160.654 787.432 160.44 786.403 160.183C785.457 159.925 784.6 159.711 783.827 159.539C783.139 159.367 782.152 159.151 780.865 158.896C779.576 158.638 778.461 158.38 777.515 158.122C766.955 155.632 759.573 152.928 755.366 150.009C751.245 147.004 749.184 142.539 749.184 136.615C749.184 129.231 751.974 123.479 757.554 119.358C763.222 115.151 770.776 113.047 780.221 113.047C789.664 113.047 797.005 115.108 802.243 119.229C807.479 123.264 810.743 128.759 812.03 135.714H793.358C791.811 130.906 787.218 128.502 779.576 128.502C771.677 128.502 767.729 130.476 767.729 134.426C767.729 135.971 768.544 137.087 770.175 137.774C771.808 138.461 775.499 139.448 781.25 140.736C787.004 142.024 791.553 143.226 794.902 144.342C798.25 145.372 801.428 146.746 804.431 148.463C807.437 150.18 809.583 152.241 810.87 154.645C812.16 157.049 812.803 159.969 812.803 163.402C812.803 171.042 809.841 176.882 803.918 180.917C797.992 184.952 790.438 186.969 781.25 186.969Z" fill="white"/>
<path d="M699.819 113.047C711.411 113.047 720.554 117.04 727.251 125.024C734.034 133.009 736.952 142.925 736.008 154.774H681.661C682.262 160.269 684.237 164.475 687.584 167.395C690.934 170.313 695.097 171.774 700.077 171.774C703.682 171.774 706.902 171.001 709.736 169.456C712.57 167.823 714.586 165.635 715.789 162.887H734.849C732.359 170.873 727.98 176.882 721.713 180.917C715.446 184.952 708.277 186.969 700.205 186.969C689.217 186.969 680.244 183.493 673.291 176.538C666.336 169.584 662.859 160.784 662.859 150.137C662.859 139.491 666.336 130.648 673.291 123.608C680.244 116.568 689.087 113.047 699.819 113.047ZM699.691 128.244C695.313 128.244 691.663 129.446 688.743 131.85C685.826 134.168 683.765 137.302 682.562 141.251H716.433C715.402 137.302 713.427 134.168 710.509 131.85C707.589 129.446 703.984 128.244 699.691 128.244Z" fill="white"/>
<path d="M643.686 100.813C635.359 100.813 631.196 105.321 631.196 114.336V114.593H654.762V131.979H631.196V185.424H612.78V131.979H600.159V114.593H612.78V113.434C612.78 103.99 615.569 96.8639 621.149 92.0561C626.731 87.1623 633.556 84.7153 641.626 84.7153C648.065 84.7153 653.647 85.7885 658.368 87.9349L655.02 102.874L652.574 102.23C649.31 101.286 646.349 100.813 643.686 100.813Z" fill="white"/>
<path d="M580.738 81.8818C584.087 81.8818 586.833 82.9121 588.979 84.9727C591.126 86.9473 592.199 89.523 592.199 92.6996C592.199 95.8765 591.126 98.4949 588.979 100.556C586.833 102.616 584.087 103.646 580.738 103.646C577.476 103.646 574.728 102.616 572.496 100.556C570.349 98.4949 569.276 95.8765 569.276 92.6996C569.276 89.6089 570.349 87.0332 572.496 84.9727C574.728 82.9121 577.476 81.8818 580.738 81.8818ZM571.464 185.424V114.593H589.881V185.424H571.464Z" fill="white"/>
<path d="M531.787 113.047C539.771 113.047 546.038 115.537 550.589 120.517C555.139 125.497 557.414 132.322 557.414 140.994V185.424H538.997V144.986C538.997 140.178 537.968 136.572 535.908 134.168C533.847 131.764 530.456 130.562 525.733 130.562C515.087 130.562 509.763 136.443 509.763 148.205V185.424H491.347V114.593H509.763V124.252C515.087 116.782 522.428 113.047 531.787 113.047Z" fill="white"/>
<path d="M458.256 114.593H476.672L476.544 185.424H458.128V175.895C452.718 183.277 445.336 186.969 435.976 186.969C426.617 186.969 418.891 183.535 412.796 176.666C406.7 169.714 403.652 160.826 403.652 150.009C403.652 139.191 406.7 130.348 412.796 123.479C418.977 116.525 426.661 113.047 435.849 113.047C445.291 113.047 452.762 116.868 458.256 124.509V114.593ZM440.097 169.456C445.336 169.456 449.67 167.653 453.106 164.046C456.539 160.44 458.256 155.761 458.256 150.009C458.256 144.256 456.539 139.577 453.106 135.971C449.67 132.365 445.336 130.562 440.097 130.562C434.861 130.562 430.569 132.365 427.219 135.971C423.871 139.577 422.197 144.256 422.197 150.009C422.197 155.761 423.871 160.44 427.219 164.046C430.654 167.653 434.947 169.456 440.097 169.456Z" fill="white"/>
<path d="M366.813 113.047C374.37 113.047 380.337 115.494 384.716 120.388C389.095 125.282 391.283 132.022 391.283 140.607V185.424H372.867V144.6C372.867 139.963 371.879 136.486 369.905 134.168C368.016 131.764 364.925 130.562 360.632 130.562C355.825 130.562 352.176 132.107 349.686 135.198C347.196 138.203 345.951 142.539 345.951 148.205V185.424H327.534V144.6C327.534 139.963 326.547 136.486 324.573 134.168C322.684 131.764 319.592 130.562 315.299 130.562C310.493 130.562 306.8 132.107 304.226 135.198C301.736 138.203 300.49 142.539 300.49 148.205L300.618 185.424H282.074V114.593H300.618V123.994C305.771 116.696 312.767 113.047 321.611 113.047C331.913 113.047 339.082 117.512 343.119 126.441C348.613 117.512 356.511 113.047 366.813 113.047Z" fill="white"/>
</svg>
