<svg width="32" height="48" viewBox="0 0 32 48" fill="none" xmlns="http://www.w3.org/2000/svg">
    <mask id="mask0_3257_86" style="mask-type:luminance" maskUnits="userSpaceOnUse" x="0" y="0" width="32" height="48">
        <path d="M31.5045 0H0V48H31.5045V0Z" fill="white" />
    </mask>
    <g mask="url(#mask0_3257_86)">
        <path clipRule="evenodd" clipRule="evenodd"
            d="M15.0863 0.033711C8.70424 0.659275 8.47948 10.0598 14.8215 11.1118C15.1088 11.1595 15.1999 11.1845 15.2065 11.2176C15.2112 11.2416 15.1881 11.7156 15.1552 12.2711C15.1222 12.8265 15.0806 13.9188 15.0629 14.6982C15.0451 15.4776 15.0243 16.1199 15.0166 16.1255C15.009 16.131 14.9053 16.1832 14.7863 16.2413C14.5633 16.3504 14.2701 16.5897 14.1522 16.759C14.0861 16.854 14.0861 16.854 13.6801 16.8671C13.0391 16.888 12.6484 17.0439 12.2936 17.4203C12.1953 17.5247 12.1052 17.5987 12.0933 17.5849C12.0813 17.5711 11.7114 17.0291 11.2713 16.3804C10.8311 15.7318 10.3314 15.0013 10.1607 14.7572L9.85036 14.3134L10.0325 14.1126C13.4283 10.369 8.67988 4.73069 4.64206 7.71203C0.622898 10.6796 4.22514 16.9045 8.84631 14.9772C8.86531 14.9692 9.20861 15.3963 9.65829 15.9874C10.0867 16.5505 10.6219 17.2449 10.8476 17.5303C11.0732 17.8158 11.2769 18.078 11.3002 18.1129C11.348 18.1847 11.3634 18.1743 11.1049 18.2449C10.3882 18.4408 9.71248 19.0326 9.57854 19.5819C9.56097 19.654 9.53212 19.7134 9.5145 19.7139C8.30335 19.7459 7.37648 20.6409 7.36338 21.7911C7.35895 22.1824 7.35895 22.1824 7.194 22.2798C5.69281 23.1663 3.65616 26.1402 3.51074 27.6581C3.48925 27.8825 3.49772 27.8751 3.20066 27.9256C2.53034 28.0394 2.13877 28.2802 1.72586 28.8324C1.20297 29.5318 1.15474 30.133 1.55345 30.9819C1.6885 31.2696 1.69592 31.2187 1.4733 31.5308C-0.880815 34.8302 -0.390404 38.702 2.77677 41.8214C4.8482 43.8616 7.75591 45.1054 11.0158 45.3455C12.2606 45.4371 12.4031 45.4837 12.7237 45.9039C14.8317 48.666 16.6513 48.666 18.7593 45.9039C19.0799 45.4837 19.2225 45.4371 20.4672 45.3455C25.3398 44.9867 29.4165 42.3291 30.9446 38.5152C31.9188 36.0842 31.6096 33.7761 30.009 31.5286C29.787 31.2168 29.7946 31.2691 29.9295 30.9819C30.3282 30.133 30.28 29.5318 29.7572 28.8324C29.3443 28.2802 28.9526 28.0394 28.2823 27.9256C27.9852 27.8751 27.9938 27.8825 27.9723 27.6581C27.9247 27.1604 27.3891 25.883 26.8782 25.048C26.2503 24.0218 25.0303 22.7176 24.289 22.2798C24.1241 22.1824 24.1241 22.1824 24.1196 21.7911C24.1065 20.6409 23.1797 19.7459 21.9685 19.7139C21.9509 19.7134 21.922 19.654 21.9045 19.5819C21.7705 19.0326 21.0948 18.4408 20.3781 18.2449C20.1196 18.1743 20.135 18.1847 20.1828 18.1129C20.2061 18.078 20.4098 17.8158 20.6354 17.5303C20.8611 17.2449 21.3963 16.5505 21.8247 15.9874C22.2744 15.3963 22.6177 14.9692 22.6367 14.9772C27.2579 16.9045 30.8602 10.6796 26.8409 7.71203C22.8031 4.73069 18.0547 10.369 21.4505 14.1126L21.6326 14.3134L21.3223 14.7572C21.1517 15.0013 20.6519 15.7318 20.2117 16.3804C19.7716 17.0291 19.4017 17.5711 19.3897 17.5849C19.3778 17.5987 19.2877 17.5247 19.1893 17.4203C18.8346 17.0439 18.4439 16.888 17.8029 16.8671C17.3969 16.854 17.3969 16.854 17.3317 16.7603C17.1609 16.5151 16.7674 16.2366 16.449 16.1356C16.3062 16.0903 16.3062 16.0903 16.3096 14.4251C16.3115 13.5092 16.3068 12.4032 16.2991 11.9672L16.2852 11.1744L16.6615 11.1119C23.7944 9.92655 22.2873 -0.672108 15.0863 0.033711ZM14.911 1.40577C12.4639 1.8456 10.8557 4.09687 11.2946 6.30015C11.3263 6.45904 11.3686 6.61768 11.422 6.7754C12.7007 10.5511 18.7823 10.5511 20.061 6.7754C20.115 6.61597 20.1577 6.45639 20.1896 6.29726C20.7499 3.50669 18.0057 0.849561 14.911 1.40577ZM6.6944 8.31757C4.88721 8.65004 3.81767 10.4745 4.26331 12.0216C4.34899 12.319 4.49067 12.6061 4.69389 12.8705C6.13161 14.7407 8.72044 14.552 9.78706 12.4993C9.88044 12.3196 9.95177 12.1366 10.0028 11.9525C10.5417 10.0051 8.80048 7.93014 6.6944 8.31757ZM23.8171 8.31913C22.0143 8.63956 21.08 10.39 21.4826 11.9498C21.6171 12.471 21.901 12.9711 22.3516 13.3893C23.6478 14.5923 25.6449 14.3588 26.7891 12.8705C26.9925 12.6058 27.1336 12.3227 27.2193 12.0317C27.775 10.145 26.003 7.93058 23.8171 8.31913ZM15.4382 17.0267C14.556 17.1815 14.271 17.9939 14.7404 19.0164C14.8802 19.3208 14.8802 19.3208 15.0947 19.323C15.2873 19.325 15.3312 19.3363 15.5253 19.4339C15.7415 19.5426 15.7415 19.5426 15.9577 19.4339C16.1518 19.3363 16.1957 19.325 16.3883 19.323C16.6028 19.3208 16.6028 19.3208 16.7425 19.0164C17.3183 17.7608 16.6926 16.8065 15.4382 17.0267ZM13.1752 17.8304C12.4523 18.0221 12.2438 18.8948 12.7023 19.809C12.8921 20.1875 12.8545 20.1578 13.0843 20.1107C13.2332 20.0801 13.3154 20.0769 13.4174 20.0976C13.7524 20.1655 13.7114 20.1765 13.8534 19.9807C13.924 19.8834 14.0414 19.7543 14.1143 19.6937C14.2469 19.5836 14.2469 19.5836 14.1594 19.4495C13.9208 19.0835 13.8204 18.732 13.7978 18.1839C13.7808 17.7712 13.659 17.702 13.1752 17.8304ZM17.6853 18.1805C17.6626 18.7322 17.5628 19.0827 17.3236 19.4495C17.2361 19.5836 17.2361 19.5836 17.3687 19.6937C17.4416 19.7543 17.559 19.8834 17.6296 19.9807C17.7716 20.1765 17.7306 20.1655 18.0656 20.0976C18.1676 20.0769 18.2499 20.0801 18.3987 20.1107C18.6285 20.1578 18.5909 20.1875 18.7807 19.809C19.3166 18.7404 18.9662 17.8376 18.0004 17.7984L17.7016 17.7864L17.6853 18.1805ZM11.197 18.9058C10.1168 19.1839 9.73286 20.4705 10.463 21.3656C10.637 21.5789 10.6253 21.5753 10.7993 21.4718C11.0698 21.311 11.3746 21.2593 11.7301 21.3139C11.859 21.3336 11.859 21.3336 11.8916 21.2061C11.9464 20.9918 12.1078 20.7122 12.2829 20.5281C12.4493 20.3531 12.4493 20.3531 12.3359 20.2045C12.0884 19.8806 11.8683 19.2613 11.8663 18.8833C11.8661 18.8475 11.357 18.8646 11.197 18.9058ZM19.6167 18.8833C19.6146 19.2613 19.3946 19.8806 19.1471 20.2045C19.0337 20.3531 19.0337 20.3531 19.2002 20.5281C19.3752 20.7122 19.5366 20.9918 19.5914 21.2061C19.624 21.3336 19.624 21.3336 19.7529 21.3139C20.1084 21.2593 20.4132 21.311 20.6837 21.4718C20.8577 21.5753 20.846 21.5789 21.02 21.3656C21.6285 20.6196 21.4471 19.4309 20.6676 19.0555C20.3328 18.8943 19.6173 18.7771 19.6167 18.8833ZM14.6606 20.1923C13.9017 20.5398 13.8328 21.3873 14.4847 22.356C14.6851 22.6538 14.6851 22.6538 14.7632 22.5327C15.1786 21.8883 16.3044 21.8883 16.7198 22.5327C16.8327 22.7079 17.2876 22.0398 17.4031 21.5288C17.6094 20.6168 16.705 19.6892 16.1937 20.2884C16.085 20.4159 15.9514 20.6499 15.8986 20.8055C15.7964 21.1067 15.6866 21.1067 15.5844 20.8055C15.5027 20.5646 15.3304 20.3049 15.1731 20.1855C15.0614 20.1006 14.8548 20.1034 14.6606 20.1923ZM9.27334 20.3774C7.89473 20.5556 7.64289 22.5051 8.89071 23.3388C9.15638 23.5162 9.91456 23.8292 9.91456 23.7614C9.91456 23.7572 9.8895 23.6573 9.85883 23.5393C9.72804 23.0363 9.86459 22.4032 10.1894 22.0067C10.2765 21.9004 10.2765 21.9004 10.0578 21.6732C9.7338 21.3364 9.55841 20.9744 9.51007 20.5427C9.48728 20.339 9.50022 20.348 9.27334 20.3774ZM21.9996 20.3825C21.9942 20.399 21.9764 20.5018 21.9601 20.6111C21.8955 21.0441 21.74 21.3498 21.4135 21.6861C21.206 21.8997 21.206 21.8997 21.2933 22.0064C21.6184 22.4032 21.755 23.0361 21.6242 23.5393C21.5935 23.6573 21.5685 23.7572 21.5685 23.7614C21.5685 23.8292 22.3266 23.5162 22.5923 23.3388C23.6978 22.6002 23.6786 20.9923 22.5582 20.4783C22.3734 20.3935 22.016 20.3323 21.9996 20.3825ZM13.0818 20.7311C12.2049 20.8552 12.0261 22.2714 12.7672 23.2226C12.8313 23.3049 12.8923 23.3844 12.9026 23.3992C12.9138 23.4152 12.9649 23.3967 13.0281 23.3538C13.3853 23.1114 13.8175 23.0588 14.4703 23.1781C14.492 23.1821 14.6102 22.8923 14.5913 22.8815C13.8814 22.4779 13.4763 21.7615 13.5171 20.9819C13.529 20.7559 13.529 20.7559 13.4294 20.7395C13.3747 20.7305 13.311 20.7196 13.288 20.7154C13.2651 20.7112 13.1723 20.7183 13.0818 20.7311ZM18.181 20.716C18.1657 20.72 18.1083 20.7307 18.0536 20.7397C17.9541 20.7559 17.9541 20.7559 17.9659 20.9819C18.0067 21.7615 17.6016 22.4779 16.8916 22.8815C16.8727 22.8923 16.991 23.1821 17.0127 23.1781C17.6655 23.0588 18.0977 23.1114 18.4549 23.3538C18.5181 23.3967 18.5692 23.4152 18.5804 23.3992C18.5907 23.3844 18.6516 23.3049 18.7158 23.2226C19.2605 22.5235 19.3268 21.3384 18.8445 20.9208C18.6953 20.7916 18.3255 20.6774 18.181 20.716ZM11.3031 21.8634C10.2284 22.148 10.1531 23.6091 11.1649 24.5445C11.8962 25.2206 11.182 25.0621 10.3854 24.3716C10.1695 24.1843 10.1695 24.1843 10.0049 24.2013C9.33266 24.2704 8.29714 23.6855 7.74498 22.9249C7.61758 22.7494 7.61758 22.7494 7.53656 22.8427C6.38857 24.1629 5.73519 25.3451 4.99115 27.4478C4.807 27.9684 4.80516 27.9278 5.01463 27.967C8.58964 28.6346 10.9486 32.3819 11.0221 37.5102C11.0381 38.6301 11.0097 38.5629 11.4057 38.4173C11.6474 38.3281 11.6964 38.2604 11.894 37.7428C12.7979 35.3735 13.5589 34.4341 14.8339 34.1135C15.0977 34.0471 15.09 34.052 15.1125 33.9338C15.1635 33.6667 15.4501 32.9672 15.5534 32.8581C15.8025 32.595 16.22 33.1447 16.3705 33.9338C16.393 34.052 16.3853 34.0471 16.6491 34.1135C17.9241 34.4341 18.6851 35.3735 19.589 37.7428C19.7866 38.2604 19.8356 38.3281 20.0774 38.4173C20.4733 38.5629 20.4449 38.6301 20.4609 37.5102C20.5344 32.3816 22.8931 28.6346 26.4683 27.967C26.6778 27.9278 26.676 27.9684 26.4919 27.4478C25.7478 25.3451 25.0944 24.1629 23.9464 22.8427C23.8654 22.7494 23.8654 22.7494 23.738 22.9249C23.1859 23.6855 22.1503 24.2704 21.4781 24.2013C21.3135 24.1843 21.3135 24.1843 21.0976 24.3716C20.301 25.0621 19.5868 25.2206 20.3181 24.5445C21.0481 23.8696 21.2324 23.1727 20.8682 22.4641C20.5797 21.9025 19.6895 21.566 19.6329 21.9971C19.5425 22.6866 19.2654 23.2171 18.848 23.4996C18.7265 23.5819 18.7265 23.5819 18.8301 23.7663C19.0685 24.1906 18.9507 24.7421 18.5329 25.1576C18.1795 25.5092 17.8955 25.5322 18.2198 25.183C18.6453 24.725 18.6157 24.1667 18.1589 24.0332C17.8856 23.9533 17.024 23.9872 17.024 24.0778C17.024 24.2839 16.747 24.9174 16.5826 25.0874C16.3787 25.2983 16.336 25.2069 16.4764 24.8601C16.9067 23.7977 16.5481 22.7851 15.7415 22.7851C14.9349 22.7851 14.5763 23.7977 15.0066 24.8601C15.1471 25.2069 15.1043 25.2983 14.9004 25.0874C14.736 24.9174 14.459 24.2839 14.459 24.0778C14.459 23.9872 13.5974 23.9533 13.3241 24.0332C12.8672 24.1667 12.8376 24.725 13.2631 25.183C13.5875 25.5322 13.3036 25.5092 12.9501 25.1576C12.5322 24.7421 12.4145 24.1906 12.6529 23.7663C12.7565 23.5819 12.7565 23.5819 12.6349 23.4996C12.218 23.2174 11.9405 22.6865 11.8503 21.9988C11.8355 21.8857 11.8197 21.854 11.7723 21.8415C11.6743 21.8156 11.4427 21.8264 11.3031 21.8634ZM3.6178 28.6535C1.97266 28.9105 2.22009 30.6934 4.10824 32.1871C4.7076 32.6614 4.71848 32.668 5.67681 33.1537C9.20959 34.9445 10.1376 36.045 10.1376 38.4442C10.1376 38.609 10.2566 38.6595 10.4234 38.5651C10.4534 38.5481 10.4487 37.4005 10.416 36.7872C10.2626 33.9072 9.08983 31.2151 7.40862 29.8843C6.29656 29.0038 4.69799 28.4849 3.6178 28.6535ZM27.019 28.6445C23.9682 28.964 21.6484 31.836 21.1371 35.9265C21.0558 36.5777 20.9984 38.5303 21.0596 38.5651C21.2264 38.6595 21.3454 38.609 21.3454 38.4442C21.3454 36.0447 22.2728 34.9448 25.8062 33.1537C26.7645 32.668 26.7754 32.6614 27.3748 32.1871C29.6376 30.3972 29.4361 28.3913 27.019 28.6445ZM2.42275 32.3095C1.13943 33.6859 0.761242 36.5285 1.5917 38.5563C2.75734 41.4029 6.57124 44.0492 9.92849 44.3413C11.4499 44.4735 11.7953 44.451 11.6498 44.228C11.4111 43.8629 10.5931 42.3821 10.1152 41.4501C9.9914 41.2087 9.79932 40.8694 9.68831 40.6958C9.18971 39.9165 9.15313 39.3501 9.57283 38.9088C9.82132 38.6474 9.66523 37.4112 9.28944 36.6635C9.10361 36.2938 9.11641 36.2976 8.93959 36.5609C6.90553 39.5899 2.75567 37.2719 2.83978 33.154C2.85263 32.5256 2.85263 32.5256 2.67657 32.3866C2.47107 32.2247 2.49512 32.2319 2.42275 32.3095ZM28.8004 32.3885C28.6303 32.5256 28.6303 32.5256 28.6431 33.154C28.7274 37.2719 24.5774 39.5896 22.5434 36.5609C22.3666 36.2976 22.3794 36.2938 22.1936 36.6635C21.8178 37.4112 21.6617 38.6474 21.9102 38.9088C22.3299 39.3501 22.2933 39.9165 21.7947 40.6958C21.6837 40.8694 21.4916 41.2087 21.3678 41.4501C20.8899 42.3821 20.0719 43.8629 19.8332 44.228C19.6868 44.4524 19.6458 44.4417 20.5026 44.4022C22.2894 44.3202 23.0326 44.1578 24.4819 43.533C29.7221 41.2745 31.853 36.4764 29.3106 32.6606C28.9964 32.1888 29.0273 32.2056 28.8004 32.3885ZM3.54551 33.0501C3.27529 33.9324 3.8102 35.5954 4.63855 36.4485C4.89574 36.7131 4.91118 36.7148 4.80842 36.4666C4.39543 35.4682 4.54685 34.23 5.13006 33.837C5.23791 33.7643 5.04096 33.6422 4.2828 33.3125C4.10646 33.2357 3.87781 33.1315 3.77468 33.0808C3.55208 32.9711 3.56901 32.9736 3.54551 33.0501ZM27.7439 33.0627C27.6672 33.1019 27.4288 33.2119 27.2142 33.3071C26.3857 33.6735 26.2417 33.7621 26.3525 33.8367C26.9362 34.23 27.0877 35.4676 26.6746 36.4666C26.5718 36.7148 26.5873 36.7131 26.8445 36.4485C27.6728 35.5954 28.2077 33.9324 27.9375 33.0501C27.9143 32.9746 27.9155 32.9746 27.7439 33.0627ZM15.4115 34.7454C14.3447 34.9333 13.3462 36.0708 12.5719 37.9803C12.1837 38.9379 11.9817 39.0764 10.6952 39.2689C9.84859 39.3957 9.79277 39.5986 10.3746 40.4338C10.7953 41.0378 11.3091 41.8722 11.8518 42.8322C12.8217 44.5484 13.1796 45.1175 13.6728 45.7289C15.3739 47.8379 16.8279 47.492 18.6315 44.5495C18.9867 43.9702 19.0311 43.8939 19.6312 42.8322C20.1739 41.8722 20.6877 41.0378 21.1084 40.4338C21.6902 39.5986 21.6344 39.3957 20.7878 39.2689C19.5012 39.0764 19.2993 38.9379 18.9111 37.9803C17.9776 35.6782 16.7192 34.515 15.4115 34.7454ZM12.5772 39.2854C12.3166 39.419 12.2227 39.6754 12.3439 39.922C12.4401 40.1173 12.705 40.2147 12.868 40.1146C12.9128 40.0871 12.9467 40.0973 13.0837 40.1798C13.5735 40.4744 13.7602 40.4174 13.608 40.0194C13.3756 39.4121 12.9378 39.1005 12.5772 39.2854ZM18.4266 39.2977C18.1276 39.4472 17.7453 40.086 17.8392 40.2797C17.907 40.4196 18.0401 40.396 18.3993 40.1798C18.5363 40.0973 18.5702 40.0871 18.615 40.1146C18.778 40.2147 19.0429 40.1173 19.1391 39.922C19.3468 39.4999 18.8655 39.078 18.4266 39.2977Z"
            fill="#22110C" />
        <path
            d="M18.1811 20.7159C18.1657 20.7199 18.1083 20.7306 18.0536 20.7396C17.9541 20.7558 17.9541 20.7558 17.9659 20.9818C18.0067 21.7614 17.6016 22.4778 16.8917 22.8814C16.8728 22.8922 16.9911 23.182 17.0127 23.178C17.6656 23.0586 18.0978 23.1113 18.4549 23.3537C18.5182 23.3966 18.5692 23.4151 18.5804 23.3991C18.5908 23.3843 18.6517 23.3048 18.7158 23.2225C19.2605 22.5233 19.3268 21.3383 18.8446 20.9207C18.6954 20.7915 18.3255 20.6773 18.1811 20.7159Z"
            fill="#2430F0" />
        <path
            d="M21.9998 20.3824C21.9943 20.3989 21.9766 20.5017 21.9603 20.611C21.8956 21.044 21.7402 21.3497 21.4137 21.686C21.2061 21.8996 21.2061 21.8996 21.2935 22.0063C21.6186 22.4031 21.7552 23.036 21.6244 23.5392C21.5937 23.6572 21.5686 23.7571 21.5686 23.7613C21.5686 23.8291 22.3268 23.5161 22.5924 23.3387C23.698 22.6001 23.6788 20.9922 22.5584 20.4782C22.3736 20.3934 22.0162 20.3322 21.9998 20.3824Z"
            fill="#2430F0" />
        <path
            d="M19.6169 18.8832C19.6148 19.2613 19.3948 19.8805 19.1472 20.2045C19.0338 20.353 19.0338 20.353 19.2003 20.5281C19.3754 20.7122 19.5367 20.9918 19.5916 21.2061C19.6242 21.3335 19.6242 21.3335 19.753 21.3138C20.1085 21.2592 20.4134 21.311 20.6838 21.4717C20.8579 21.5752 20.8462 21.5789 21.0202 21.3655C21.6287 20.6196 21.4473 19.4308 20.6677 19.0555C20.333 18.8943 19.6175 18.777 19.6169 18.8832Z"
            fill="#2430F0" />
        <path
            d="M17.6852 18.1806C17.6626 18.7323 17.5627 19.0827 17.3235 19.4495C17.2361 19.5836 17.2361 19.5836 17.3686 19.6937C17.4415 19.7543 17.5589 19.8834 17.6295 19.9807C17.7715 20.1765 17.7305 20.1655 18.0655 20.0976C18.1676 20.0769 18.2498 20.0801 18.3986 20.1107C18.6284 20.1578 18.5908 20.1876 18.7806 19.809C19.3165 18.7405 18.9661 17.8376 18.0003 17.7984L17.7015 17.7864L17.6852 18.1806Z"
            fill="#2430F0" />
        <path
            d="M15.4384 17.0266C14.5561 17.1815 14.2713 17.9938 14.7406 19.0163C14.8804 19.3207 14.8804 19.3207 15.0949 19.3229C15.2875 19.3249 15.3313 19.3362 15.5255 19.4338C15.7417 19.5425 15.7417 19.5425 15.9579 19.4338C16.1521 19.3362 16.1959 19.3249 16.3886 19.3229C16.603 19.3207 16.603 19.3207 16.7427 19.0163C17.3185 17.7607 16.6929 16.8064 15.4384 17.0266Z"
            fill="#2430F0" />
        <path
            d="M14.6605 20.1923C13.9016 20.5399 13.8328 21.3873 14.4846 22.356C14.6851 22.6538 14.6851 22.6538 14.7632 22.5327C15.1785 21.8883 16.3043 21.8883 16.7197 22.5327C16.8327 22.7079 17.2875 22.0398 17.403 21.5288C17.6093 20.6168 16.7049 19.6891 16.1937 20.2884C16.0849 20.4159 15.9513 20.6499 15.8986 20.8054C15.7964 21.1067 15.6865 21.1067 15.5843 20.8054C15.5026 20.5646 15.3304 20.3049 15.1731 20.1855C15.0613 20.1006 14.8547 20.1034 14.6605 20.1923Z"
            fill="#2430F0" />
        <path
            d="M13.0818 20.731C12.2049 20.8551 12.0261 22.2713 12.7672 23.2225C12.8313 23.3048 12.8922 23.3843 12.9026 23.3991C12.9138 23.4151 12.9648 23.3966 13.0281 23.3537C13.3852 23.1113 13.8174 23.0587 14.4703 23.178C14.4919 23.182 14.6102 22.8922 14.5913 22.8814C13.8814 22.4778 13.4763 21.7614 13.5171 20.9818C13.5289 20.7558 13.5289 20.7558 13.4294 20.7394C13.3747 20.7304 13.311 20.7195 13.288 20.7153C13.265 20.7111 13.1722 20.7182 13.0818 20.731Z"
            fill="#2430F0" />
        <path
            d="M11.1971 18.9058C10.1168 19.1839 9.7329 20.4704 10.463 21.3655C10.637 21.5789 10.6253 21.5752 10.7994 21.4717C11.0698 21.311 11.3747 21.2592 11.7302 21.3138C11.859 21.3335 11.859 21.3335 11.8916 21.206C11.9465 20.9918 12.1078 20.7122 12.2829 20.5281C12.4493 20.353 12.4493 20.353 12.3359 20.2045C12.0885 19.8805 11.8684 19.2613 11.8663 18.8832C11.8661 18.8474 11.357 18.8646 11.1971 18.9058Z"
            fill="#2430F0" />
        <path
            d="M13.1753 17.8303C12.4525 18.022 12.2439 18.8946 12.7024 19.8089C12.8923 20.1874 12.8546 20.1577 13.0844 20.1106C13.2333 20.08 13.3155 20.0768 13.4175 20.0975C13.7526 20.1654 13.7115 20.1764 13.8535 19.9806C13.9241 19.8832 14.0415 19.7541 14.1144 19.6936C14.247 19.5835 14.247 19.5835 14.1595 19.4493C13.9209 19.0834 13.8205 18.7319 13.7979 18.1838C13.7809 17.7711 13.6591 17.7019 13.1753 17.8303Z"
            fill="#2430F0" />
        <path
            d="M9.27353 20.3773C7.89491 20.5556 7.64307 22.505 8.89089 23.3387C9.15657 23.5161 9.91474 23.8291 9.91474 23.7613C9.91474 23.7571 9.88968 23.6572 9.85902 23.5392C9.72822 23.0362 9.86478 22.4031 10.1896 22.0066C10.2766 21.9003 10.2766 21.9003 10.058 21.6731C9.73403 21.3363 9.55859 20.9743 9.51025 20.5426C9.48746 20.3389 9.50041 20.3479 9.27353 20.3773Z"
            fill="#2430F0" />
        <path
            d="M27.0192 28.6445C23.9684 28.9641 21.6486 31.8361 21.1374 35.9265C21.056 36.5777 20.9986 38.5303 21.0598 38.5652C21.2266 38.6595 21.3456 38.609 21.3456 38.4442C21.3456 36.0448 22.273 34.9449 25.8064 33.1538C26.7647 32.668 26.7756 32.6615 27.375 32.1872C29.6378 30.3972 29.4362 28.3914 27.0192 28.6445Z"
            fill="#2BE1B7" />
        <path
            d="M28.8004 32.3884C28.6303 32.5256 28.6303 32.5256 28.6431 33.1539C28.7273 37.2718 24.5774 39.5895 22.5434 36.5608C22.3666 36.2975 22.3794 36.2937 22.1935 36.6634C21.8177 37.4111 21.6616 38.6473 21.9101 38.9087C22.3298 39.35 22.2933 39.9164 21.7947 40.6957C21.6837 40.8693 21.4916 41.2086 21.3678 41.45C20.8898 42.382 20.0719 43.8629 19.8332 44.228C19.6868 44.4523 19.6458 44.4416 20.5026 44.4021C22.2893 44.3201 23.0326 44.1577 24.4818 43.5329C29.7221 41.2744 31.853 36.4764 29.3105 32.6605C28.9963 32.1887 29.0273 32.2055 28.8004 32.3884Z"
            fill="#2BE1B7" />
        <path
            d="M2.42258 32.3096C1.13926 33.6859 0.761064 36.5286 1.59153 38.5564C2.75717 41.403 6.57106 44.0493 9.92835 44.3414C11.4497 44.4736 11.7951 44.4511 11.6496 44.2281C11.4109 43.863 10.593 42.3822 10.115 41.4501C9.99121 41.2088 9.79914 40.8695 9.68813 40.6958C9.18953 39.9166 9.15295 39.3502 9.57265 38.9089C9.82114 38.6475 9.66505 37.4113 9.28926 36.6635C9.10343 36.2939 9.11623 36.2977 8.93941 36.561C6.9054 39.5899 2.75549 37.2719 2.83961 33.1541C2.85246 32.5257 2.85246 32.5257 2.6764 32.3866C2.4709 32.2248 2.49495 32.2319 2.42258 32.3096Z"
            fill="#2BE1B7" />
        <path
            d="M3.61761 28.6535C1.97247 28.9105 2.2199 30.6933 4.10805 32.1871C4.70742 32.6613 4.71829 32.6679 5.67662 33.1537C9.2094 34.9445 10.1374 36.0449 10.1374 38.4441C10.1374 38.6089 10.2564 38.6594 10.4232 38.5651C10.4532 38.5481 10.4485 37.4005 10.4158 36.7871C10.2625 33.9071 9.08968 31.215 7.40843 29.8842C6.29637 29.0037 4.6978 28.4848 3.61761 28.6535Z"
            fill="#2BE1B7" />
        <path
            d="M11.3029 21.8634C10.2282 22.148 10.1529 23.6092 11.1648 24.5445C11.896 25.2206 11.1818 25.0621 10.3853 24.3716C10.1693 24.1843 10.1693 24.1843 10.0047 24.2013C9.33247 24.2704 8.29696 23.6856 7.74479 22.925C7.6174 22.7494 7.6174 22.7494 7.53637 22.8427C6.38838 24.1629 5.73501 25.3451 4.99096 27.4478C4.80681 27.9684 4.80497 27.9278 5.01444 27.967C8.58946 28.6346 10.9484 32.3819 11.0219 37.5103C11.0379 38.6301 11.0095 38.5629 11.4055 38.4173C11.6472 38.3282 11.6962 38.2604 11.8938 37.7428C12.7977 35.3736 13.5587 34.4341 14.8337 34.1135C15.0975 34.0471 15.0898 34.0521 15.1124 33.9338C15.1633 33.6667 15.45 32.9672 15.5532 32.8581C15.8023 32.5951 16.2198 33.1447 16.3703 33.9338C16.3928 34.0521 16.3851 34.0471 16.6489 34.1135C17.9239 34.4341 18.6849 35.3736 19.5889 37.7428C19.7864 38.2604 19.8354 38.3282 20.0772 38.4173C20.4731 38.5629 20.4447 38.6301 20.4607 37.5103C20.5342 32.3816 22.8929 28.6346 26.4681 27.967C26.6777 27.9278 26.6758 27.9684 26.4917 27.4478C25.7476 25.3451 25.0943 24.1629 23.9463 22.8427C23.8652 22.7494 23.8652 22.7494 23.7378 22.925C23.1857 23.6856 22.1502 24.2704 21.4779 24.2013C21.3133 24.1843 21.3133 24.1843 21.0974 24.3716C20.3008 25.0621 19.5865 25.2206 20.3179 24.5445C21.048 23.8696 21.2323 23.1728 20.868 22.4641C20.5795 21.9026 19.6893 21.566 19.6327 21.9971C19.5423 22.6866 19.2652 23.2171 18.8479 23.4996C18.7263 23.5819 18.7263 23.5819 18.8299 23.7663C19.0683 24.1906 18.9505 24.7422 18.5328 25.1576C18.1793 25.5092 17.8953 25.5322 18.2196 25.183C18.6451 24.725 18.6156 24.1667 18.1587 24.0332C17.8854 23.9534 17.0238 23.9872 17.0238 24.0778C17.0238 24.2839 16.7469 24.9174 16.5824 25.0875C16.3785 25.2984 16.3358 25.2069 16.4762 24.8601C16.9065 23.7977 16.5478 22.7851 15.7413 22.7851C14.9348 22.7851 14.5761 23.7977 15.0064 24.8601C15.1469 25.2069 15.1041 25.2984 14.9002 25.0875C14.7358 24.9174 14.4588 24.2839 14.4588 24.0778C14.4588 23.9872 13.5972 23.9534 13.3239 24.0332C12.867 24.1667 12.8374 24.725 13.2629 25.183C13.5873 25.5322 13.3034 25.5092 12.9499 25.1576C12.532 24.7422 12.4143 24.1906 12.6527 23.7663C12.7563 23.5819 12.7563 23.5819 12.6347 23.4996C12.2178 23.2174 11.9403 22.6865 11.8501 21.9988C11.8353 21.8858 11.8196 21.854 11.7721 21.8415C11.6741 21.8156 11.4425 21.8264 11.3029 21.8634Z"
            fill="#2430F0" />
        <path clipRule="evenodd" clipRule="evenodd"
            d="M15.4113 34.7455C14.3445 34.9334 13.346 36.0708 12.5717 37.9804C12.1835 38.938 11.9816 39.0765 10.6951 39.269C9.84844 39.3957 9.79262 39.5987 10.3745 40.4339C10.7951 41.0379 11.309 41.8722 11.8517 42.8322C12.8215 44.5485 13.1794 45.1176 13.6727 45.729C15.3738 47.838 16.8277 47.4921 18.6314 44.5496C18.9866 43.9703 19.0309 43.894 19.631 42.8322C20.1737 41.8722 20.6876 41.0379 21.1082 40.4339C21.69 39.5987 21.6343 39.3957 20.7876 39.269C19.5011 39.0765 19.2992 38.938 18.911 37.9804C17.9775 35.6783 16.7191 34.5151 15.4113 34.7455ZM12.3438 39.9221C12.2225 39.6755 12.3165 39.419 12.577 39.2855C12.9377 39.1006 13.3755 39.4122 13.6078 40.0194C13.7601 40.4174 13.5734 40.4745 13.0836 40.1799C12.9466 40.0974 12.9127 40.0872 12.8678 40.1147C12.7049 40.2148 12.44 40.1174 12.3438 39.9221ZM17.839 40.2798C17.7452 40.0861 18.1275 39.4473 18.4264 39.2978C18.8654 39.0781 19.3466 39.5 19.1389 39.9221C19.0427 40.1174 18.7778 40.2148 18.6149 40.1147C18.57 40.0872 18.5361 40.0974 18.3991 40.1799C18.0399 40.396 17.9068 40.4197 17.839 40.2798Z"
            fill="#F2C79C" />
        <path clipRule="evenodd" clipRule="evenodd"
            d="M10.0026 11.9525C9.63167 10.5774 8.4761 9.4942 6.906 9.78303C5.66019 10.0123 4.55316 10.954 4.26318 12.0216C4.34886 12.319 4.49054 12.6062 4.69376 12.8705C6.13148 14.7407 8.72031 14.552 9.78693 12.4993C9.88031 12.3197 9.95164 12.1366 10.0026 11.9525Z"
            fill="#2430F0" />
        <path clipRule="evenodd" clipRule="evenodd"
            d="M11.4218 6.77541C11.3684 6.6177 11.3261 6.45906 11.2944 6.30017C11.6192 4.64697 13.2243 3.2124 15.1225 2.87122C17.6629 2.41464 19.7555 4.12687 20.1894 6.29728C20.1575 6.45641 20.1148 6.61599 20.0607 6.77541C18.7821 10.5512 12.7005 10.5512 11.4218 6.77541Z"
            fill="#2430F0" />
        <path
            d="M23.8173 8.31922C22.0145 8.63964 21.0802 10.3901 21.4827 11.9499C21.749 10.9045 22.7897 10.0049 24.029 9.78464C25.6535 9.4959 26.8377 10.6482 27.2194 12.0318C27.7752 10.1451 26.0032 7.93066 23.8173 8.31922Z"
            fill="#2430F0" />
        <path
            d="M11.2948 6.30013C11.6196 4.64694 13.2247 3.21237 15.1228 2.87119C17.6633 2.41461 19.7558 4.12684 20.1898 6.29724C20.7501 3.50668 18.0059 0.849549 14.9111 1.40576C12.4641 1.84559 10.8559 4.09686 11.2948 6.30013Z"
            fill="#2430F0" />
        <path
            d="M6.90635 9.78299C8.4764 9.49416 9.63203 10.5773 10.003 11.9525C10.5419 10.0051 8.8007 7.93014 6.69463 8.31757C4.88742 8.65005 3.81789 10.4745 4.26352 12.0216C4.55351 10.9539 5.66049 10.0122 6.90635 9.78299Z"
            fill="#2430F0" />
        <path
            d="M22.3515 13.3891C23.6477 14.5922 25.6448 14.3587 26.789 12.8703C26.9924 12.6057 27.1334 12.3226 27.2191 12.0317C26.8374 10.648 25.6532 9.4957 24.0287 9.78443C22.7894 10.0047 21.7487 10.9043 21.4824 11.9497C21.617 12.4709 21.9008 12.9709 22.3515 13.3891Z"
            fill="#2430F0" />
        <path clipRule="evenodd" clipRule="evenodd"
            d="M11.9683 4.81063C12.6775 3.84166 13.8334 3.10334 15.1249 2.87119C17.0576 2.52382 18.7312 3.4318 19.6123 4.84182C19.7803 4.67552 19.9339 4.5065 20.0608 4.34095C19.4053 2.41009 17.26 0.983964 14.9132 1.40576C13.2918 1.69718 12.0387 2.7838 11.5054 4.12478C11.6208 4.34361 11.7837 4.57839 11.9683 4.81063Z"
            fill="#F2C79C" />
        <path
            d="M11.9683 4.81066C12.5979 5.6028 13.4794 6.36556 13.5856 6.36556C13.666 6.36556 14.1105 5.94085 14.5721 5.49979C15.0706 5.02337 15.5892 4.52785 15.6906 4.52785C15.7881 4.52785 16.2064 4.98727 16.6245 5.4467C17.0427 5.90613 17.4609 6.36556 17.5585 6.36556C17.683 6.36556 18.8113 5.63463 19.6123 4.84185C18.7311 3.43183 17.0576 2.52386 15.1249 2.87121C13.8333 3.10337 12.6775 3.8417 11.9683 4.81066Z"
            fill="#2BE1B7" />
        <path
            d="M4.27822 11.9442C4.5994 10.9087 5.68287 10.0066 6.89855 9.78299C7.82813 9.61201 8.61239 9.9219 9.17455 10.4886C9.27901 10.1087 9.35462 9.65501 9.34576 9.27415C8.71478 8.5515 7.74705 8.12254 6.68683 8.31757C4.92228 8.64216 3.86099 10.3892 4.22667 11.9115C4.24362 11.9225 4.26082 11.9334 4.27822 11.9442Z"
            fill="#2BE1B7" />
        <path
            d="M4.27832 11.9442C4.96202 12.369 5.89406 12.5545 6.13964 12.4136C6.32975 12.3045 6.41777 11.7543 6.43844 11.1876C6.4542 10.7569 6.46827 10.3713 6.55255 10.3003C6.64568 10.2217 7.09743 10.4773 7.57615 10.7481C8.1008 11.0449 8.69343 11.3037 8.84652 11.2177C8.95595 11.1562 9.06375 10.8921 9.17466 10.4886C8.6125 9.92193 7.82818 9.61204 6.89861 9.78303C5.68298 10.0067 4.5995 10.9088 4.27832 11.9442Z"
            fill="#2BE1B7" />
        <path clipRule="evenodd" clipRule="evenodd"
            d="M21.6901 9.9862C21.7319 10.2879 22.6101 11.9062 22.8471 11.9611C22.9754 11.9908 23.4144 11.6827 23.8166 11.4004C24.157 11.1615 24.4711 10.9411 24.5478 10.9599C24.6178 10.9771 24.7511 11.1837 24.9069 11.4253C25.1239 11.7616 25.3847 12.1657 25.5793 12.2216C25.8315 12.294 26.8358 11.7743 27.3273 11.4259C27.4032 9.70594 25.7794 7.97171 23.8246 8.31923C22.8038 8.50065 22.0615 9.14056 21.6826 9.94471C21.6855 9.9574 21.688 9.97116 21.6901 9.9862Z"
            fill="#2BE1B7" />
        <path
            d="M27.7438 33.0626C27.6671 33.1018 27.4288 33.2118 27.2141 33.307C26.3856 33.6734 26.2416 33.762 26.3524 33.8366C26.9361 34.2299 27.0877 35.4675 26.6745 36.4665C26.5717 36.7147 26.5872 36.713 26.8444 36.4484C27.6727 35.5953 28.2076 33.9323 27.9374 33.05C27.9143 32.9745 27.9154 32.9745 27.7438 33.0626Z"
            fill="#F1F1F1" />
        <path
            d="M3.54575 33.05C3.27553 33.9324 3.81044 35.5954 4.63879 36.4484C4.89598 36.7131 4.91142 36.7147 4.80866 36.4665C4.39567 35.4681 4.54709 34.23 5.1303 33.8369C5.23816 33.7642 5.0412 33.6422 4.28304 33.3125C4.1067 33.2357 3.87805 33.1315 3.77492 33.0807C3.55233 32.971 3.56925 32.9735 3.54575 33.05Z"
            fill="#F1F1F1" />
        <path
            d="M25.9284 35.5633C25.9284 35.4722 25.8472 35.3987 25.7471 35.3987C25.647 35.3987 25.5659 35.4722 25.5659 35.5633C25.5659 35.654 25.647 35.7278 25.7471 35.7278C25.8472 35.7278 25.9284 35.654 25.9284 35.5633Z"
            fill="#F1F1F1" />
        <path opacity="0.2" clipRule="evenodd" clipRule="evenodd"
            d="M19.9413 7.08667C18.3902 8.78631 15.3072 9.72162 11.7844 7.55717C13.5263 10.4392 18.5574 10.2824 19.9413 7.08667ZM9.3426 13.1568C7.70988 13.8287 5.49309 13.1408 4.41016 12.4083C4.48621 12.568 4.58053 12.7228 4.69403 12.8704C5.95941 14.5164 8.11643 14.5676 9.3426 13.1568ZM27.0417 12.4743C26.1029 13.3427 24.2022 13.9601 21.9821 12.981C22.0897 13.1236 22.2128 13.2603 22.3517 13.3892C23.648 14.5923 25.6451 14.3588 26.7893 12.8704C26.8877 12.7423 26.9716 12.6099 27.0417 12.4743Z"
            fill="#22110C" />
        <path
            d="M11.2948 6.30013C11.6196 4.64693 13.2247 3.21236 15.1228 2.87121C17.6633 2.41461 19.7558 4.12683 20.1898 6.29724C20.7501 3.5067 18.0059 0.849548 14.9111 1.40576C12.4641 1.84559 10.8559 4.09688 11.2948 6.30013Z"
            fill="#2430F0" />
        <path clipRule="evenodd" clipRule="evenodd"
            d="M11.9683 4.81063C12.6775 3.84166 13.8334 3.10333 15.1249 2.8712C17.0576 2.52383 18.7312 3.43179 19.6123 4.84181C19.7803 4.67551 19.9339 4.50653 20.0608 4.34096C19.4053 2.41009 17.26 0.983967 14.9132 1.40576C13.2918 1.69717 12.0387 2.78379 11.5054 4.12477C11.6208 4.3436 11.7837 4.57839 11.9683 4.81063Z"
            fill="#2BE1B7" />
        <g opacity="0.2">
            <g style="mix-blend-mode:hard-light">
                <path clipRule="evenodd" clipRule="evenodd"
                    d="M16.8593 17.6214C16.6555 17.153 16.1473 16.9021 15.4382 17.0266C15.0193 17.1002 14.7352 17.3218 14.6023 17.6438C14.8818 17.4168 15.3763 17.3426 15.7453 17.3349C16.1018 17.3424 16.5756 17.4119 16.8593 17.6214ZM13.7545 17.9179C13.4091 17.9701 12.7782 18.1354 12.5041 18.5158C12.5955 18.1759 12.825 17.9232 13.1751 17.8303C13.5257 17.7373 13.6862 17.748 13.7545 17.9179ZM11.8704 18.9734C11.8679 18.9421 11.8664 18.912 11.8662 18.8832C11.866 18.8474 11.3569 18.8646 11.197 18.9057C10.6496 19.0467 10.2809 19.4467 10.1456 19.9234C10.5117 19.4141 11.1934 18.9894 11.8704 18.9734ZM8.08496 21.7483C8.24677 21.2068 8.84968 20.642 9.33982 20.642C9.40913 20.642 9.46953 20.6382 9.52201 20.6315C9.51738 20.6022 9.51344 20.5726 9.51005 20.5426C9.50896 20.5325 9.50793 20.523 9.5069 20.514C9.49823 20.434 9.4937 20.3928 9.47052 20.3743C9.44581 20.3546 9.39993 20.3607 9.30522 20.3731C9.29513 20.3745 9.28449 20.3759 9.27332 20.3773C8.53356 20.4729 8.11819 21.0787 8.08496 21.7483ZM15.4356 20.4945C15.1513 20.2773 14.7306 20.1914 14.1398 20.6776C14.2396 20.4715 14.4135 20.3054 14.6605 20.1922C14.8547 20.1033 15.0613 20.1005 15.1731 20.1854C15.2622 20.2531 15.3561 20.3658 15.4356 20.4945ZM17.2641 20.6094C17.009 20.1466 16.5209 19.9049 16.1937 20.2883C16.146 20.3442 16.0935 20.4207 16.0452 20.502C16.3157 20.2902 16.712 20.1953 17.2641 20.6094ZM13.5217 20.884C13.526 20.7554 13.5118 20.7531 13.4294 20.7394C13.3747 20.7304 13.311 20.7195 13.288 20.7153C13.265 20.7111 13.1722 20.7182 13.0818 20.731C12.651 20.792 12.3888 21.1647 12.3212 21.6409C12.4917 21.096 13.1345 20.8416 13.5217 20.884ZM19.6489 21.9344C19.7828 21.6025 20.595 21.9325 20.8682 22.464C20.9441 22.6117 20.9962 22.759 21.0245 22.9056C20.8152 22.3268 20.156 22.0615 19.6489 21.9344ZM17.0233 24.0968C17.0237 24.0901 17.024 24.0837 17.024 24.0777C17.024 23.9872 17.8856 23.9533 18.1589 24.0331C18.2884 24.0709 18.3835 24.1429 18.4437 24.237C18.1822 24.0099 17.6133 24.0521 17.0233 24.0968ZM15.043 23.1586C15.2015 22.9262 15.4403 22.785 15.7415 22.785C16.037 22.785 16.2724 22.9209 16.4309 23.1455C16.2335 22.9939 15.963 22.9161 15.7453 22.896C15.5213 22.9166 15.2417 22.9984 15.043 23.1586ZM13.0296 24.2528C13.0891 24.1509 13.1875 24.073 13.3241 24.0331C13.5974 23.9533 14.459 23.9872 14.459 24.0777C14.459 24.0836 14.4592 24.0897 14.4596 24.0962C13.859 24.0507 13.2816 24.0091 13.0296 24.2528ZM11.8399 21.9348C11.3214 22.065 10.6448 22.3396 10.4523 22.9459C10.4834 22.4343 10.7705 22.0044 11.303 21.8633C11.4426 21.8263 11.6743 21.8155 11.7723 21.8414C11.8092 21.8511 11.827 21.8725 11.8399 21.9348ZM18.9862 18.5156C18.8684 18.0961 18.5253 17.8196 18.0004 17.7984L17.7015 17.7863L17.6963 17.9122C18.0308 17.9573 18.7012 18.1202 18.9862 18.5156ZM21.3289 19.9013C21.2316 19.5346 21.006 19.2184 20.6675 19.0554C20.3328 18.8942 19.6173 18.777 19.6167 18.8832C19.6165 18.912 19.6152 18.942 19.6125 18.9733C20.2823 18.9861 20.9577 19.4 21.3289 19.9013ZM23.4077 21.7557C23.2492 21.212 22.6431 20.642 22.1507 20.642C22.0763 20.642 22.0122 20.6377 21.9572 20.63C21.9581 20.6237 21.9591 20.6174 21.9601 20.611C21.9764 20.5017 21.9941 20.3989 21.9995 20.3824C22.016 20.3322 22.3734 20.3934 22.5582 20.4782C23.0954 20.7246 23.3794 21.2226 23.4077 21.7557ZM19.1531 21.5936C19.1164 21.3105 19.0145 21.0679 18.8445 20.9207C18.6953 20.7915 18.3254 20.6773 18.181 20.7159C18.1657 20.7199 18.1083 20.7306 18.0536 20.7396C17.971 20.7531 17.9569 20.7554 17.9613 20.8848C18.3364 20.8396 18.96 21.0779 19.1531 21.5936Z"
                    fill="white" />
            </g>
        </g>
        <g style="mix-blend-mode:hard-light">
            <path clipRule="evenodd" clipRule="evenodd"
                d="M28.4951 28.8897C27.3965 28.8085 26.1154 29.1667 25.1896 29.7348C23.8932 30.5302 21.8998 32.6422 21.4815 34.6857C21.3659 35.2507 21.2791 35.4355 21.2148 35.3949C21.8535 31.5887 24.1021 28.95 27.019 28.6445C27.6768 28.5756 28.1705 28.6741 28.4951 28.8897Z"
                fill="white" fill-opacity="0.4" />
        </g>
        <g style="mix-blend-mode:hard-light">
            <path clipRule="evenodd" clipRule="evenodd"
                d="M2.93115 28.9157C4.05818 28.7931 5.407 29.1571 6.37074 29.7484C7.66715 30.5439 9.66055 32.6559 10.0788 34.6993C10.1444 35.0197 10.2007 35.2177 10.2488 35.3219C9.84371 33.0204 8.80042 30.986 7.40876 29.8842C6.29671 29.0037 4.69813 28.4848 3.61795 28.6535C3.33246 28.6982 3.10398 28.7887 2.93115 28.9157Z"
                fill="white" fill-opacity="0.4" />
        </g>
        <g style="mix-blend-mode:hard-light">
            <path clipRule="evenodd" clipRule="evenodd"
                d="M12.9927 37.0608C13.9043 36.0745 15.0724 35.9063 15.6967 35.9063C16.3452 35.9063 17.6309 36.1123 18.5591 37.196C17.6729 35.4176 16.5613 34.5428 15.4117 34.7456C14.5292 34.9011 13.6934 35.7061 12.9927 37.0608Z"
                fill="white" fill-opacity="0.4" />
        </g>
        <path opacity="0.2" clipRule="evenodd" clipRule="evenodd"
            d="M28.0085 33.5812C27.5916 33.7582 27.1248 33.9378 26.6207 34.1178C26.5453 34.0017 26.4558 33.906 26.3527 33.8366C26.2419 33.762 26.386 33.6734 27.2144 33.307C27.4291 33.2118 27.6674 33.1018 27.7441 33.0626L27.747 33.0609C27.8534 33.0064 27.8922 32.9863 27.9123 32.9981C27.9237 33.0047 27.929 33.0217 27.9374 33.0489L27.9376 33.05C27.9853 33.2058 28.0079 33.3857 28.0085 33.5812ZM3.47559 33.5363C3.89685 33.7239 4.36671 33.914 4.87202 34.1038C4.94534 33.994 5.03164 33.9033 5.13028 33.8369C5.23819 33.7642 5.04119 33.6422 4.28305 33.3124C4.10671 33.2356 3.87806 33.1314 3.77493 33.0807C3.76058 33.0736 3.74725 33.067 3.73481 33.0609C3.6226 33.0055 3.58532 32.9869 3.56792 32.9984C3.55925 33.0039 3.55552 33.0168 3.54989 33.0362C3.54863 33.0404 3.54729 33.045 3.54576 33.05C3.50176 33.1937 3.4791 33.3583 3.47559 33.5363Z"
            fill="#22110C" />
        <path opacity="0.2" clipRule="evenodd" clipRule="evenodd"
            d="M9.50387 40.3765C9.41492 41.3175 9.74286 42.3699 9.89428 42.8557C9.92003 42.9383 9.9407 43.0047 9.9533 43.0513C10.0613 43.4498 8.88732 44.0801 4.58105 42.1491C6.17105 43.3398 8.11635 44.1835 9.92859 44.3413C11.45 44.4735 11.7953 44.451 11.6498 44.228C11.4112 43.8629 10.5932 42.382 10.1153 41.45C9.9915 41.2086 9.79938 40.8693 9.68842 40.6957C9.61759 40.5852 9.5561 40.4787 9.50387 40.3765Z"
            fill="#22110C" />
        <path opacity="0.2" clipRule="evenodd" clipRule="evenodd"
            d="M26.9284 42.1406C22.6067 44.0817 21.4291 43.4503 21.5373 43.0512C21.5499 43.0046 21.5705 42.9385 21.5963 42.8557C21.7484 42.3677 22.0786 41.3079 21.9855 40.3638C21.9319 40.4699 21.8683 40.5805 21.7947 40.6957C21.6837 40.8693 21.4916 41.2086 21.3678 41.4499C20.8898 42.382 20.0719 43.8628 19.8332 44.2279C19.7801 44.3094 19.7409 44.3596 19.7533 44.3889C19.775 44.4407 19.9564 44.4273 20.5026 44.4021C22.2893 44.32 23.0326 44.1577 24.4819 43.5328C25.3944 43.1395 26.2126 42.6694 26.9284 42.1406Z"
            fill="#22110C" />
        <path opacity="0.2" clipRule="evenodd" clipRule="evenodd"
            d="M11.6079 42.4059C12.55 43.9049 12.9318 44.4444 13.4469 45.0213C15.331 47.1319 16.9415 46.7857 18.9392 43.8407C19.3135 43.2894 19.3761 43.1934 19.9534 42.271C19.8474 42.4523 19.7398 42.6399 19.6311 42.8322C19.0309 43.8939 18.9866 43.9702 18.6314 44.5495C16.8278 47.492 15.3738 47.8379 13.6727 45.7289C13.1795 45.1175 12.8216 44.5484 11.8517 42.8322C11.7697 42.6871 11.6883 42.545 11.6079 42.4059Z"
            fill="#22110C" />
        <path
            d="M15.7246 32.1074C15.3761 32.1074 14.93 34.5486 14.7349 34.5486L14.3306 34.9189L15.7246 34.5486L17.3277 35.0149C17.1557 34.8593 16.7868 34.5486 16.6865 34.5486C16.561 34.5486 16.0731 32.1074 15.7246 32.1074Z"
            fill="black" fill-opacity="0.2" />
        <path
            d="M13.4104 25.5519C13.2153 25.5519 12.5601 25.0994 12.5601 24.4274C12.653 24.2582 12.8389 23.994 12.8389 24.2902C12.8389 24.6605 13.2571 25.1405 13.3686 25.2502C13.4801 25.3599 13.6056 25.5519 13.4104 25.5519Z"
            fill="black" fill-opacity="0.2" />
        <path
            d="M9.67425 24.4273C8.87965 24.4273 7.84813 23.3988 7.31836 22.6993L7.63902 22.425L8.36387 23.4536L10.0088 23.9336L10.3294 23.4125C10.4084 23.5314 10.5943 23.8184 10.7058 24.0159C10.8452 24.2628 11.2076 24.4548 11.5004 24.8662C11.7931 25.2776 10.6779 24.7702 10.5385 24.7016C10.427 24.6468 10.1854 24.4776 10.0785 24.3999C10.0785 24.4091 9.99767 24.4273 9.67425 24.4273Z"
            fill="black" fill-opacity="0.2" />
        <path
            d="M12.1696 23.1792C11.849 22.7815 11.9605 22.3152 11.9048 21.9175L12.8109 23.5358L12.7412 23.6592L12.7393 23.6583C12.6498 23.6119 12.4244 23.4952 12.1696 23.1792Z"
            fill="black" fill-opacity="0.2" />
        <path
            d="M15.0273 25.305C14.7346 25.2365 14.4697 24.5645 14.4697 24.057L14.7485 23.9336L14.9297 24.6467C14.9855 24.8662 15.3201 25.3736 15.0273 25.305Z"
            fill="black" fill-opacity="0.2" />
        <path
            d="M18.0522 25.5519C18.2473 25.5519 18.9025 25.0994 18.9025 24.4274C18.8095 24.2582 18.6237 23.994 18.6237 24.2902C18.6237 24.6605 18.2055 25.1405 18.0939 25.2502C17.9825 25.3599 17.857 25.5519 18.0522 25.5519Z"
            fill="black" fill-opacity="0.2" />
        <path
            d="M21.7885 24.4273C22.5831 24.4273 23.6146 23.3988 24.1444 22.6993L23.8238 22.425L23.0989 23.4536L21.4539 23.9336L21.1333 23.4125C21.0543 23.5314 20.8684 23.8184 20.7569 24.0159C20.6175 24.2628 20.2551 24.4548 19.9623 24.8662C19.6696 25.2776 20.7848 24.7702 20.9242 24.7016C21.0357 24.6468 21.2774 24.4776 21.3842 24.3999C21.3842 24.4091 21.4651 24.4273 21.7885 24.4273Z"
            fill="black" fill-opacity="0.2" />
        <path
            d="M19.2931 23.1792C19.6137 22.7815 19.5022 22.3152 19.558 21.9175L18.6519 23.5358L18.7216 23.6592L18.7234 23.6583C18.8129 23.6119 19.0383 23.4952 19.2931 23.1792Z"
            fill="black" fill-opacity="0.2" />
        <path
            d="M16.4213 25.3187C16.7141 25.2502 16.9929 24.5645 16.9929 24.057L16.7141 23.9336L16.5328 24.6467C16.4771 24.8662 16.1286 25.3873 16.4213 25.3187Z"
            fill="black" fill-opacity="0.2" />
        <path opacity="0.2"
            d="M12.4262 40.0068C12.3286 40.0068 12.6352 39.8559 12.5377 39.5953C12.77 39.4993 13.1343 39.5981 13.402 39.8285C13.7366 40.1165 13.7366 40.8296 13.7226 41.1313C13.7086 41.4331 12.5237 40.0068 12.4262 40.0068Z"
            fill="#22110C" />
        <path opacity="0.2"
            d="M19.0381 40.0158C19.1356 40.0158 18.829 39.8649 18.9266 39.6044C18.6942 39.5084 18.3299 39.6071 18.0623 39.8375C17.7277 40.1255 17.7277 40.8387 17.7416 41.1404C17.7556 41.4421 18.9405 40.0158 19.0381 40.0158Z"
            fill="#22110C" />
        <path opacity="0.2" clipRule="evenodd" clipRule="evenodd"
            d="M6.38355 33.047C8.08036 34.0457 9.72992 35.0167 9.72992 36.2217C9.72992 36.2603 9.72928 36.2987 9.728 36.3363C9.17637 35.1999 7.98009 34.3244 5.67071 33.1538C4.71242 32.668 4.70154 32.6614 4.10218 32.1872C2.63208 31.0242 2.1566 29.686 2.79463 29.0291C2.36537 30.6822 4.40652 31.8835 6.38355 33.047Z"
            fill="#22110C" />
        <path opacity="0.2" clipRule="evenodd" clipRule="evenodd"
            d="M2.82156 28.9814L2.8084 29.0322C2.59563 29.8515 2.99421 30.5605 3.69654 31.2117C4.39898 31.8628 5.40206 32.4531 6.39096 33.0351L6.3917 33.0357C7.23956 33.5346 8.07694 34.0275 8.70225 34.5465C9.32742 35.0651 9.74412 35.6126 9.74412 36.2215C9.74412 36.2604 9.74348 36.2989 9.7422 36.3364L9.71566 36.3419C9.16625 35.2102 7.97406 34.3363 5.66463 33.1657C5.18571 32.9229 4.94274 32.7995 4.74472 32.6774C4.54646 32.5554 4.39326 32.4347 4.09372 32.1977C3.35735 31.6151 2.86915 30.9881 2.64513 30.4231C2.42117 29.8583 2.4606 29.3531 2.7848 29.0193L2.82156 28.9814ZM2.6711 30.4132C2.89284 30.9725 3.37743 31.5959 4.11118 32.1763C4.41099 32.4136 4.56292 32.5332 4.75952 32.6544C4.95632 32.7756 5.19797 32.8985 5.67738 33.1415C7.9523 34.2947 9.15109 35.1633 9.71571 36.2794C9.71606 36.2602 9.71625 36.241 9.71625 36.2215C9.71625 35.6255 9.30812 35.0848 8.68429 34.5673C8.06084 34.05 7.22533 33.5582 6.37663 33.0587L6.3757 33.0582C5.38788 32.4767 4.38228 31.8851 3.67741 31.2314C2.98711 30.5915 2.58217 29.8896 2.76851 29.078C2.4882 29.4011 2.45819 29.8762 2.6711 30.4132Z"
            fill="#22110C" />
        <path opacity="0.2" clipRule="evenodd" clipRule="evenodd"
            d="M25.1208 33.0471C23.424 34.0458 21.7744 35.0168 21.7744 36.2217C21.7744 36.2387 21.7746 36.2557 21.7748 36.2725C22.3398 35.1671 23.5341 34.3026 25.8005 33.1538C26.7588 32.6681 26.7697 32.6615 27.369 32.1872C28.8387 31.0245 29.2689 29.7711 28.7277 29.1042C29.0768 30.719 27.0677 31.9014 25.1208 33.0471Z"
            fill="#22110C" />
        <path opacity="0.2" clipRule="evenodd" clipRule="evenodd"
            d="M28.815 30.4649C28.5903 31.0097 28.1136 31.6156 27.3776 32.1979C27.078 32.4348 26.9248 32.5555 26.7265 32.6779C26.5285 32.7996 26.2856 32.9231 25.8066 33.1661C23.5401 34.3148 22.3498 35.1777 21.787 36.2787L21.7606 36.2726C21.7604 36.2556 21.7603 36.2386 21.7603 36.2216C21.7603 35.6127 22.177 35.0652 22.8021 34.5466C23.4275 34.0276 24.2648 33.5347 25.1127 33.0358L25.1134 33.0353C26.0872 32.4623 27.0748 31.8808 27.7755 31.2414C28.4763 30.6021 28.8867 29.9073 28.7138 29.1072L28.7383 29.0957C29.0133 29.4342 29.0398 29.9202 28.815 30.4649ZM28.7529 29.1604C28.9851 29.486 29.0013 29.9407 28.7894 30.4545C28.5669 30.9938 28.0938 31.5961 27.3601 32.1765C27.0602 32.4137 26.9083 32.5333 26.7118 32.6546C26.5149 32.7758 26.2733 32.8987 25.7939 33.1417C23.5616 34.2731 22.3657 35.1302 21.7881 36.2164C21.7905 35.6223 22.1981 35.0836 22.8201 34.5674C23.4435 34.0501 24.279 33.5583 25.1277 33.0588L25.1286 33.0583C26.1014 32.4859 27.0914 31.9033 27.7944 31.2614C28.4807 30.6353 28.8967 29.9498 28.7529 29.1604Z"
            fill="#22110C" />
        <g style="mix-blend-mode:multiply">
            <path clipRule="evenodd" clipRule="evenodd"
                d="M2.17263 32.6038C2.15583 33.9629 2.20833 39.8285 9.21465 39.8285C9.2433 39.8285 9.2718 39.8285 9.30005 39.8282C9.23257 39.4673 9.32196 39.1667 9.56725 38.9088C9.81574 38.6474 9.65965 37.4112 9.28386 36.6635C9.18437 36.4655 9.14184 36.3747 9.0966 36.3734C9.05742 36.3722 9.01617 36.4386 8.93401 36.5609C6.9 39.5899 2.7501 37.2719 2.83421 33.154C2.84706 32.5257 2.84706 32.5257 2.671 32.3866C2.54273 32.2857 2.5039 32.2505 2.47523 32.2571C2.45796 32.2612 2.44438 32.2804 2.41718 32.3095C2.33161 32.4014 2.25006 32.4996 2.17263 32.6038Z"
                fill="black" fill-opacity="0.2" />
        </g>
        <path opacity="0.2" clipRule="evenodd" clipRule="evenodd"
            d="M29.3441 32.7203C29.3547 34.2283 29.1637 39.8558 22.3011 39.8558C22.2556 39.8558 22.2105 39.8555 22.166 39.8553C22.2433 39.4823 22.1556 39.1732 21.9041 38.9087C21.6557 38.6473 21.8118 37.4108 22.1876 36.6634C22.2871 36.4654 22.3296 36.3746 22.3748 36.3732C22.414 36.3721 22.4553 36.4385 22.5374 36.5608C24.5714 39.5895 28.7213 37.2718 28.6373 33.1539C28.6281 32.7071 28.6253 32.5779 28.6858 32.4915C28.7104 32.4562 28.7452 32.4282 28.7946 32.3884C28.8866 32.3141 28.9362 32.2674 28.9836 32.2693C29.0531 32.2724 29.1177 32.3802 29.3045 32.6605C29.3179 32.6805 29.331 32.7006 29.3441 32.7203Z"
            fill="#22110C" />
        <path opacity="0.2" clipRule="evenodd" clipRule="evenodd"
            d="M14.5227 17.9244C14.4807 18.2364 14.548 18.6098 14.7348 19.0164C14.8745 19.3209 14.8745 19.3209 15.089 19.3231C15.2817 19.3251 15.3255 19.3364 15.5197 19.434C15.7358 19.5426 15.7358 19.5426 15.952 19.434C16.1462 19.3364 16.19 19.3251 16.3827 19.3231C16.5972 19.3209 16.5972 19.3209 16.7368 19.0164C16.9234 18.6095 16.9838 18.2343 16.9376 17.9204C16.845 18.4282 16.6317 19.0919 16.1533 19.1473C15.9462 19.1902 15.8021 19.1929 15.7524 19.1887L15.7491 19.1884H15.7105H15.7072C15.6574 19.1926 15.5134 19.1902 15.3063 19.1473C14.8292 19.0921 14.6157 18.4317 14.5227 17.9244ZM17.3179 19.4495C17.5571 19.0828 17.6569 18.7323 17.6796 18.1806L17.6916 17.8909C17.7833 18.3877 17.7588 19.0835 17.3395 19.6742C17.2308 19.5832 17.236 19.5752 17.3179 19.4495ZM19.0215 18.9823C19.0021 19.2358 18.9219 19.5163 18.775 19.8091C18.7593 19.8405 18.7451 19.8691 18.7322 19.8951C18.6534 20.054 18.6225 20.1163 18.575 20.133C18.5443 20.1437 18.5068 20.1355 18.445 20.1219C18.4293 20.1184 18.4121 20.1146 18.3931 20.1107C18.2442 20.0802 18.162 20.077 18.0599 20.0977C18.0331 20.1031 18.0088 20.1082 17.9866 20.1128C17.9818 20.1138 17.9772 20.1147 17.9726 20.1157C17.9908 20.0613 18.133 20.017 18.2778 19.9718C18.4141 19.9293 18.5528 19.8861 18.5928 19.833C18.7915 19.5696 18.9431 19.3041 19.0215 18.9823ZM19.6111 18.8834C19.609 19.2614 19.3889 19.8806 19.1415 20.2046C19.0357 20.343 19.0286 20.3524 19.1629 20.4949C19.4477 20.0899 19.7444 19.2923 19.6322 18.8577C19.6185 18.8641 19.6111 18.8726 19.6111 18.8834ZM21.3703 20.1669C21.3339 20.3989 21.2036 20.8873 21.0044 21.0948C20.7675 21.3416 20.6699 21.3691 20.4747 21.2868C20.3587 21.2378 20.1892 21.2616 20.066 21.294C20.2898 21.3023 20.4921 21.3613 20.678 21.4719L20.6839 21.4753L20.6944 21.4817C20.7621 21.522 20.7996 21.5444 20.8338 21.5402C20.8764 21.5351 20.9138 21.4891 20.9979 21.3859L21.0062 21.3757L21.0144 21.3657C21.2967 21.0196 21.4089 20.5782 21.3703 20.1669ZM23.3932 21.6515C23.3439 22.0344 23.2036 22.7153 22.6633 23.1656C22.1549 23.5894 21.7711 23.6182 21.6875 23.0147C21.6794 22.9565 21.6681 22.9256 21.6546 22.9165C21.6798 23.1294 21.6693 23.3442 21.6185 23.5394C21.5879 23.6573 21.5628 23.7573 21.5628 23.7615C21.5628 23.8293 22.3209 23.5163 22.5866 23.3388C23.1968 22.9312 23.4644 22.2587 23.3932 21.6515ZM21.9521 20.6265C21.8861 21.0514 21.7305 21.3538 21.4078 21.6861C21.2003 21.8998 21.2003 21.8998 21.2876 22.0065C21.297 22.0179 21.3062 22.0295 21.3153 22.0413C21.5931 21.7635 21.9027 21.233 21.9521 20.6265ZM19.162 21.9127C19.1104 22.2029 19.0254 22.5205 18.8995 22.6719C18.6486 22.9736 18.314 23.0559 18.0492 23.0147C17.916 22.9941 17.6952 23.0517 17.5022 23.119C17.8938 23.1026 18.1911 23.1787 18.4493 23.3539C18.5125 23.3968 18.5636 23.4153 18.5747 23.3993C18.5851 23.3845 18.646 23.305 18.7101 23.2227C18.9937 22.8587 19.1476 22.3631 19.162 21.9127ZM16.9116 22.9847C17.3129 22.7765 17.9562 22.2194 17.9484 21.333C17.8705 21.9726 17.4878 22.5395 16.886 22.8816C16.8787 22.8857 16.8917 22.9309 16.9116 22.9847ZM17.4202 21.3927C17.2963 21.7521 17.0207 22.3174 16.5855 22.1644C16.1951 22.0273 15.9582 21.9999 15.763 21.9999C15.7505 21.9999 15.7395 22.001 15.7298 22.0032C15.7201 22.001 15.7091 21.9999 15.6966 21.9999C15.5014 21.9999 15.2644 22.0273 14.8741 22.1644C14.4813 22.3025 14.2186 21.8555 14.08 21.5028C14.1446 21.7681 14.2773 22.0563 14.479 22.3561C14.6054 22.5439 14.6521 22.6132 14.6889 22.6085C14.7105 22.6057 14.7287 22.5775 14.7576 22.5328C15.1729 21.8884 16.2988 21.8884 16.7141 22.5328C16.8271 22.708 17.2819 22.0399 17.3974 21.5289C17.4077 21.4835 17.4152 21.438 17.4202 21.3927ZM12.2982 21.9158C12.303 22.3472 12.4521 22.8255 12.7615 23.2227C12.8257 23.305 12.8866 23.3845 12.897 23.3993C12.9081 23.4153 12.9592 23.3968 13.0224 23.3539C13.2776 23.1807 13.571 23.1044 13.9559 23.1184C13.7632 23.0514 13.5432 22.9942 13.4104 23.0147C13.1456 23.0559 12.811 22.9736 12.5601 22.6719C12.4346 22.521 12.3498 22.2052 12.2982 21.9158ZM13.5144 21.2417C13.459 22.1889 14.1442 22.7791 14.5581 22.99C14.5792 22.9338 14.5932 22.8859 14.5857 22.8816C13.9554 22.5233 13.5654 21.9185 13.5144 21.2417ZM12.3018 20.5022C12.4434 20.3527 12.4377 20.3454 12.3302 20.2046C12.0828 19.8806 11.8627 19.2614 11.8606 18.8834C11.8606 18.8776 11.8473 18.8732 11.8243 18.8701C11.7202 19.3099 12.0181 20.1033 12.3018 20.5022ZM10.0909 20.1768C10.0483 20.5752 10.1612 21.0026 10.4573 21.3657C10.463 21.3726 10.4685 21.3794 10.4738 21.3859C10.5579 21.4891 10.5953 21.5351 10.6379 21.5402C10.6721 21.5444 10.7096 21.522 10.7773 21.4817C10.7825 21.4785 10.788 21.4752 10.7937 21.4719C10.9767 21.363 11.1756 21.3042 11.3952 21.2944C11.2719 21.2618 11.1015 21.2376 10.9849 21.2868C10.7897 21.3691 10.6921 21.3416 10.4552 21.0948C10.2588 20.8902 10.1294 20.4125 10.0909 20.1768ZM12.4685 19.0925C12.4982 19.32 12.5733 19.563 12.6967 19.8091C12.7124 19.8405 12.7266 19.8691 12.7395 19.8951C12.8183 20.054 12.8492 20.1163 12.8967 20.133C12.9273 20.1437 12.9649 20.1355 13.0267 20.1219C13.0423 20.1184 13.0596 20.1146 13.0786 20.1107C13.2275 20.0802 13.3097 20.077 13.4118 20.0977C13.4385 20.1031 13.4629 20.1082 13.4851 20.1128C13.4854 20.1128 13.4857 20.1129 13.486 20.113C13.464 20.0598 13.3242 20.0162 13.1817 19.9718C13.0455 19.9293 12.9068 19.8861 12.8668 19.833C12.6913 19.6003 12.5524 19.3659 12.4685 19.0925ZM13.7586 17.9453C13.7781 18.0066 13.7881 18.0855 13.7921 18.184C13.8147 18.7321 13.9152 19.0836 14.1538 19.4495C14.2375 19.5781 14.241 19.5835 14.1246 19.6805C13.7161 19.1097 13.6783 18.4395 13.7586 17.9453ZM9.81736 22.9142C9.79855 22.9097 9.78251 22.9393 9.77207 23.0147C9.68843 23.6182 9.30467 23.5894 8.79627 23.1656C8.29756 22.7499 8.1396 22.1377 8.07949 21.7449C8.04956 22.3241 8.30568 22.9517 8.88507 23.3388C9.15074 23.5163 9.90892 23.8293 9.90892 23.7615C9.90892 23.7573 9.88381 23.6573 9.85314 23.5394C9.8022 23.3435 9.79186 23.1279 9.81736 22.9142ZM10.1512 22.0481C10.1618 22.0341 10.1727 22.0203 10.1837 22.0068C10.2708 21.9005 10.2708 21.9005 10.0522 21.6733C9.72816 21.3365 9.55272 20.9745 9.50443 20.5428C9.50335 20.5334 9.50241 20.5245 9.50147 20.5159C9.51959 21.1732 9.85492 21.7558 10.1512 22.0481Z"
            fill="#22110C" />
        <path
            d="M26.04 35.0148C26.04 34.6815 26.3209 34.4114 26.6673 34.4114C27.0138 34.4114 27.2947 34.6815 27.2947 35.0148C27.2947 35.3481 27.0138 35.6182 26.6673 35.6182C26.3209 35.6182 26.04 35.3481 26.04 35.0148Z"
            fill="#F1F1F1" />
        <path
            d="M4.1543 35.0148C4.1543 34.6815 4.43516 34.4114 4.7816 34.4114C5.12802 34.4114 5.4089 34.6815 5.4089 35.0148C5.4089 35.3481 5.12802 35.6182 4.7816 35.6182C4.43516 35.6182 4.1543 35.3481 4.1543 35.0148Z"
            fill="#F1F1F1" />
        <path
            d="M5.8268 35.5633C5.8268 35.4722 5.74568 35.3987 5.64556 35.3987C5.54548 35.3987 5.46436 35.4722 5.46436 35.5633C5.46436 35.654 5.54548 35.7278 5.64556 35.7278C5.74568 35.7278 5.8268 35.654 5.8268 35.5633Z"
            fill="#F1F1F1" />
    </g>
</svg>
