<svg width="818" height="227" viewBox="0 0 818 227" fill="none" xmlns="http://www.w3.org/2000/svg">
    <path clipRule="evenodd" clipRule="evenodd"
        d="M75.0559 6.76299C46.4851 9.57756 45.4789 51.8728 73.8703 56.6059C75.1566 56.8203 75.5643 56.9329 75.5938 57.0821C75.6152 57.1897 75.5116 59.3224 75.3642 61.8216C75.2165 64.3209 75.0305 69.2351 74.951 72.7419C74.8714 76.2489 74.7782 79.1386 74.7438 79.1637C74.7097 79.1886 74.2456 79.4231 73.7127 79.6849C72.7147 80.1754 71.4019 81.2524 70.8741 82.014C70.5782 82.4413 70.5782 82.4413 68.7608 82.5005C65.8911 82.5944 64.142 83.2959 62.5538 84.9894C62.1135 85.459 61.7105 85.792 61.6569 85.7298C61.6034 85.6679 59.9475 83.2293 57.977 80.3107C56.0066 77.3921 53.7692 74.1055 53.0052 73.0074L51.616 71.0104L52.4311 70.1074C67.6336 53.264 46.376 27.8958 28.2997 41.3096C10.3071 54.6614 26.4334 82.6685 47.1211 73.9971C47.2061 73.9614 48.743 75.883 50.7561 78.5422C52.6742 81.0761 55.0701 84.2 56.0802 85.4844C57.0904 86.7689 58.0021 87.9483 58.1063 88.1057C58.3205 88.4285 58.3895 88.3816 57.2323 88.6993C54.0237 89.5806 50.9987 92.2436 50.3991 94.7148C50.3204 95.0394 50.1913 95.3065 50.1124 95.3087C44.6904 95.4526 40.541 99.4794 40.4824 104.655C40.4626 106.415 40.4626 106.415 39.7241 106.853C33.0037 110.842 23.8861 124.222 23.2351 131.052C23.1391 132.061 23.177 132.028 21.847 132.255C18.8462 132.767 17.0932 133.851 15.2447 136.335C12.904 139.482 12.688 142.187 14.473 146.006C15.0775 147.301 15.1107 147.071 14.114 148.476C3.57546 163.321 5.77078 180.741 19.9494 194.775C29.2226 203.955 42.2397 209.55 56.8335 210.63C62.4057 211.042 63.0437 211.254 64.479 213.143C73.9161 225.571 82.0619 225.571 91.4991 213.143C92.9343 211.254 93.5723 211.042 99.1446 210.63C120.958 209.017 139.208 197.06 146.049 179.9C150.41 168.963 149.026 158.579 141.861 148.466C140.867 147.063 140.901 147.298 141.505 146.006C143.29 142.187 143.074 139.482 140.734 136.335C138.885 133.851 137.132 132.767 134.131 132.255C132.801 132.028 132.839 132.061 132.743 131.052C132.53 128.812 130.132 123.065 127.845 119.308C125.034 114.691 119.573 108.823 116.254 106.853C115.515 106.415 115.515 106.415 115.495 104.655C115.437 99.4794 111.288 95.4526 105.866 95.3087C105.787 95.3065 105.658 95.0394 105.579 94.7148C104.979 92.2436 101.954 89.5806 98.7457 88.6993C97.5885 88.3816 97.6575 88.4285 97.8717 88.1057C97.9757 87.9483 98.8876 86.7689 99.8978 85.4844C100.908 84.2 103.304 81.0761 105.222 78.5422C107.235 75.883 108.772 73.9614 108.857 73.9971C129.545 82.6685 145.671 54.6614 127.678 41.3096C109.602 27.8958 88.3444 53.264 103.547 70.1074L104.362 71.0104L102.973 73.0074C102.209 74.1055 99.9714 77.3921 98.0011 80.3107C96.0305 83.2293 94.3747 85.6679 94.3211 85.7298C94.2676 85.792 93.8645 85.459 93.424 84.9894C91.836 83.2959 90.0869 82.5944 87.2173 82.5005C85.3999 82.4413 85.3999 82.4413 85.1081 82.0199C84.3434 80.9167 82.5815 79.6637 81.1564 79.2093C80.5169 79.0055 80.5169 79.0055 80.5323 71.5133C80.5407 67.3924 80.5195 62.416 80.4852 60.4545L80.4228 56.8878L82.1077 56.6064C114.04 51.2732 107.293 3.58746 75.0559 6.76299ZM74.2709 12.9362C63.3161 14.9151 56.1166 25.044 58.0816 34.9572C58.2233 35.6721 58.4126 36.3858 58.6517 37.0954C64.3761 54.0833 91.602 54.0833 97.3261 37.0954C97.568 36.3781 97.7591 35.6602 97.9021 34.9442C100.41 22.3888 88.1252 10.4337 74.2709 12.9362ZM37.4876 44.034C29.3974 45.5299 24.6091 53.7385 26.6042 60.6991C26.9878 62.0372 27.622 63.3292 28.5317 64.5185C34.9681 72.9329 46.5576 72.0841 51.3326 62.8486C51.7506 62.0403 52.0699 61.2167 52.2982 60.3884C54.7109 51.6264 46.9159 42.2909 37.4876 44.034ZM114.141 44.0411C106.071 45.4827 101.888 53.3583 103.69 60.3762C104.292 62.7214 105.563 64.9712 107.581 66.8527C113.384 72.2654 122.324 71.2149 127.446 64.5185C128.357 63.3279 128.988 62.0539 129.372 60.7449C131.86 52.2563 123.927 42.2929 114.141 44.0411ZM76.6311 83.2183C72.6816 83.9151 71.4061 87.5699 73.5073 92.1704C74.133 93.5402 74.133 93.5402 75.0934 93.5501C75.9557 93.5592 76.152 93.6098 77.0212 94.0488C77.989 94.5378 77.989 94.5378 78.9569 94.0488C79.826 93.6098 80.0224 93.5592 80.8847 93.5501C81.8448 93.5402 81.8448 93.5402 82.47 92.1704C85.0477 86.5214 82.247 82.2277 76.6311 83.2183ZM66.5002 86.8343C63.2643 87.6971 62.3308 91.6232 64.3833 95.7366C65.2331 97.4397 65.0647 97.3059 66.0934 97.0939C66.7598 96.9564 67.1278 96.9419 67.5847 97.0351C69.0845 97.3405 68.9007 97.3901 69.5365 96.509C69.8525 96.0712 70.3781 95.4903 70.7045 95.2179C71.2979 94.7225 71.2979 94.7225 70.9063 94.1189C69.8382 92.4723 69.3886 90.8909 69.2875 88.4248C69.2114 86.5679 68.666 86.2568 66.5002 86.8343ZM86.691 88.4098C86.5894 90.892 86.1423 92.4688 85.0717 94.1189C84.6801 94.7225 84.6801 94.7225 85.2736 95.2179C85.5999 95.4903 86.1255 96.0712 86.4415 96.509C87.0773 97.3901 86.8935 97.3405 88.3934 97.0351C88.8502 96.9419 89.2182 96.9564 89.8846 97.0939C90.9133 97.3059 90.7449 97.4397 91.5947 95.7366C93.9936 90.9288 92.425 86.8667 88.1016 86.6907L86.7637 86.6362L86.691 88.4098ZM57.6446 91.673C52.8086 92.9243 51.09 98.7127 54.3585 102.74C55.1375 103.7 55.085 103.683 55.8643 103.218C57.075 102.495 58.4397 102.262 60.0313 102.507C60.608 102.596 60.608 102.596 60.7541 102.022C60.9996 101.058 61.7217 99.8005 62.5056 98.9721C63.2509 98.1845 63.2509 98.1845 62.7431 97.5161C61.6351 96.0586 60.6498 93.2725 60.6408 91.5716C60.6399 91.4106 58.3606 91.4877 57.6446 91.673ZM95.3372 91.5716C95.328 93.2725 94.3429 96.0586 93.2349 97.5161C92.7272 98.1845 92.7272 98.1845 93.4725 98.9721C94.2561 99.8005 94.9785 101.058 95.224 102.022C95.3701 102.596 95.3701 102.596 95.9468 102.507C97.5383 102.262 98.903 102.495 100.114 103.218C100.893 103.683 100.841 103.7 101.62 102.74C104.344 99.3838 103.531 94.0354 100.042 92.3465C98.5432 91.6212 95.3399 91.0937 95.3372 91.5716ZM73.1499 97.4613C69.7527 99.0248 69.4444 102.838 72.3625 107.196C73.2599 108.536 73.2599 108.536 73.6096 107.991C75.4691 105.092 80.509 105.092 82.3684 107.991C82.8742 108.779 84.9104 105.774 85.4276 103.475C86.351 99.371 82.3023 95.1974 80.0136 97.8934C79.5268 98.467 78.9287 99.5202 78.6924 100.22C78.235 101.575 77.7431 101.575 77.2856 100.22C76.9198 99.1363 76.1487 97.9679 75.4446 97.4306C74.9442 97.0487 74.0195 97.0611 73.1499 97.4613ZM49.0328 98.294C42.8611 99.0957 41.7337 107.867 47.3199 111.618C48.5092 112.416 51.9033 113.824 51.9033 113.519C51.9033 113.5 51.7912 113.051 51.6539 112.52C51.0684 110.257 51.6797 107.408 53.1337 105.625C53.5235 105.146 53.5235 105.146 52.5446 104.124C51.0941 102.609 50.309 100.98 50.0926 99.0376C49.9905 98.1213 50.0485 98.1618 49.0328 98.294ZM106.005 98.317C105.98 98.391 105.901 98.8538 105.828 99.3454C105.539 101.294 104.843 102.669 103.381 104.182C102.452 105.143 102.452 105.143 102.843 105.623C104.298 107.408 104.91 110.256 104.324 112.52C104.187 113.051 104.075 113.5 104.075 113.519C104.075 113.824 107.469 112.416 108.658 111.618C113.607 108.295 113.521 101.06 108.505 98.7478C107.678 98.3665 106.078 98.0909 106.005 98.317ZM66.0822 99.8851C62.1565 100.444 61.3561 106.815 64.674 111.095C64.9609 111.466 65.2338 111.823 65.28 111.89C65.3301 111.962 65.5588 111.879 65.8418 111.686C67.4408 110.595 69.3756 110.358 72.2982 110.895C72.3951 110.913 72.9247 109.609 72.8401 109.56C69.6619 107.745 67.8482 104.521 68.0311 101.014C68.084 99.9971 68.084 99.9971 67.6384 99.9232C67.3934 99.8825 67.1084 99.8338 67.0055 99.8148C66.9026 99.7959 66.4872 99.8276 66.0822 99.8851ZM88.9099 99.8172C88.8414 99.8355 88.5847 99.8836 88.3396 99.9239C87.894 99.9971 87.894 99.9971 87.9469 101.014C88.1298 104.521 86.3162 107.745 83.1378 109.56C83.0531 109.609 83.5829 110.913 83.6799 110.895C86.6024 110.358 88.5373 110.595 90.1363 111.686C90.4192 111.879 90.648 111.962 90.698 111.89C90.7443 111.823 91.0169 111.466 91.304 111.095C93.7426 107.95 94.0395 102.618 91.8805 100.739C91.2126 100.158 89.5567 99.6438 88.9099 99.8172ZM58.1193 104.98C53.3082 106.26 52.9712 112.834 57.501 117.043C60.7748 120.084 57.5774 119.371 54.0114 116.265C53.0446 115.422 53.0446 115.422 52.3077 115.498C49.2983 115.809 44.6626 113.178 42.1907 109.756C41.6204 108.966 41.6204 108.966 41.2577 109.386C36.1184 115.326 33.1935 120.645 29.8626 130.105C29.0382 132.447 29.03 132.265 29.9677 132.441C45.9721 135.445 56.5324 152.305 56.8614 175.378C56.9331 180.418 56.8059 180.116 58.5786 179.459C59.661 179.058 59.8803 178.754 60.7647 176.424C64.8113 165.765 68.2182 161.538 73.9258 160.095C75.107 159.797 75.0724 159.819 75.1733 159.288C75.4014 158.085 76.6846 154.938 77.147 154.447C78.2621 153.264 80.131 155.737 80.8047 159.288C80.9056 159.819 80.871 159.797 82.0522 160.095C87.7598 161.538 91.1665 165.765 95.2134 176.424C96.0977 178.754 96.317 179.058 97.3995 179.459C99.1721 180.116 99.0447 180.418 99.1166 175.378C99.4456 152.304 110.005 135.445 126.01 132.441C126.948 132.265 126.94 132.447 126.115 130.105C122.785 120.645 119.86 115.326 114.72 109.386C114.358 108.966 114.358 108.966 113.787 109.756C111.315 113.178 106.68 115.809 103.67 115.498C102.933 115.422 102.933 115.422 101.967 116.265C98.4006 119.371 95.2033 120.084 98.4771 117.043C101.745 114.006 102.57 110.871 100.94 107.682C99.6481 105.156 95.6629 103.642 95.4097 105.581C95.0049 108.684 93.7645 111.07 91.8962 112.341C91.3521 112.712 91.3521 112.712 91.8159 113.541C92.8832 115.451 92.3559 117.932 90.4856 119.801C88.9031 121.383 87.6318 121.486 89.0838 119.915C90.9887 117.855 90.8562 115.343 88.811 114.742C87.5875 114.383 83.7303 114.535 83.7303 114.943C83.7303 115.87 82.4905 118.72 81.7545 119.486C80.8415 120.434 80.6502 120.023 81.2789 118.463C83.2052 113.683 81.5998 109.127 77.989 109.127C74.3782 109.127 72.7728 113.683 74.6989 118.463C75.3278 120.023 75.1365 120.434 74.2236 119.486C73.4875 118.72 72.2477 115.87 72.2477 114.943C72.2477 114.535 68.3906 114.383 67.1671 114.742C65.1216 115.343 64.9892 117.855 66.894 119.915C68.3463 121.486 67.075 121.383 65.4925 119.801C63.622 117.932 63.0948 115.451 64.1621 113.541C64.626 112.712 64.626 112.712 64.0817 112.341C62.2154 111.072 60.9729 108.683 60.5692 105.589C60.5028 105.08 60.4323 104.938 60.2199 104.881C59.7814 104.765 58.7443 104.813 58.1193 104.98ZM23.7144 135.53C16.3497 136.687 17.4572 144.708 25.91 151.429C28.5932 153.563 28.6419 153.592 32.9321 155.778C48.7474 163.835 52.9018 168.786 52.9018 179.58C52.9018 180.323 53.4347 180.55 54.1813 180.124C54.3157 180.047 54.2944 174.884 54.1482 172.125C53.4616 159.167 48.2113 147.055 40.6849 141.068C35.7066 137.106 28.5502 134.771 23.7144 135.53ZM128.475 135.489C114.818 136.927 104.433 149.849 102.144 168.253C101.78 171.182 101.523 179.968 101.797 180.124C102.543 180.55 103.076 180.323 103.076 179.58C103.076 168.784 107.228 163.837 123.046 155.778C127.336 153.592 127.385 153.563 130.068 151.429C140.198 143.375 139.296 134.35 128.475 135.489ZM18.3645 151.979C12.6195 158.171 10.9264 170.961 14.6442 180.085C19.8624 192.893 36.9362 204.799 51.9657 206.113C58.7767 206.708 60.3228 206.606 59.6714 205.604C58.603 203.962 54.9411 197.298 52.8016 193.104C52.2473 192.018 51.3875 190.493 50.8905 189.711C48.6584 186.204 48.4946 183.657 50.3735 181.671C51.486 180.495 50.7872 174.932 49.1049 171.57C48.273 169.906 48.3303 169.923 47.5387 171.107C38.4328 184.735 19.8549 174.307 20.2315 155.779C20.289 152.952 20.289 152.952 19.5007 152.326C18.5809 151.598 18.6885 151.63 18.3645 151.979ZM136.45 152.335C135.689 152.952 135.689 152.952 135.746 155.779C136.123 174.307 117.545 184.735 108.439 171.107C107.648 169.923 107.705 169.906 106.873 171.57C105.191 174.932 104.492 180.495 105.605 181.671C107.483 183.657 107.32 186.204 105.088 189.711C104.591 190.493 103.731 192.018 103.176 193.104C101.037 197.298 97.375 203.962 96.3066 205.604C95.651 206.613 95.4677 206.564 99.3032 206.386C107.302 206.018 110.629 205.288 117.117 202.477C140.576 192.315 150.116 170.728 138.734 153.559C137.327 151.436 137.466 151.512 136.45 152.335ZM23.3907 155.311C22.1811 159.282 24.5759 166.763 28.284 170.602C29.4355 171.792 29.5047 171.799 29.0445 170.684C27.1956 166.19 27.8735 160.619 30.4844 158.852C30.9673 158.524 30.0856 157.975 26.6914 156.492C25.9021 156.147 24.8784 155.678 24.4168 155.449C23.4202 154.956 23.4961 154.967 23.3907 155.311ZM131.72 155.368C131.377 155.544 130.31 156.039 129.349 156.468C125.64 158.116 124.996 158.515 125.492 158.85C128.105 160.619 128.783 166.188 126.934 170.684C126.473 171.799 126.543 171.792 127.694 170.602C131.402 166.763 133.797 159.282 132.587 155.311C132.484 154.972 132.489 154.972 131.72 155.368ZM76.5117 162.94C71.7358 163.784 67.2658 168.901 63.7994 177.493C62.0615 181.801 61.1576 182.425 55.3982 183.291C51.608 183.862 51.3581 184.774 53.9629 188.532C55.8462 191.251 58.1464 195.004 60.576 199.323C64.918 207.045 66.5201 209.606 68.7282 212.356C76.3435 221.845 82.8524 220.289 90.927 207.049C92.5169 204.442 92.7155 204.101 95.402 199.323C97.8316 195.004 100.132 191.251 102.015 188.532C104.62 184.774 104.37 183.862 100.58 183.291C94.8202 182.425 93.9165 181.801 92.1787 177.493C87.9996 167.136 82.366 161.902 76.5117 162.94ZM63.8232 183.366C62.6567 183.965 62.2361 185.12 62.7791 186.229C63.2097 187.108 64.3955 187.546 65.1251 187.097C65.3259 186.974 65.4775 187.018 66.0908 187.39C68.2835 188.714 69.1193 188.459 68.4377 186.667C67.3976 183.935 65.4376 182.533 63.8232 183.366ZM90.0093 183.421C88.671 184.093 86.9596 186.967 87.3797 187.84C87.6833 188.468 88.2794 188.362 89.8873 187.39C90.5006 187.018 90.6522 186.974 90.8529 187.097C91.5826 187.546 92.7684 187.108 93.199 186.229C94.129 184.331 91.9744 182.432 90.0093 183.421Z"
        fill="#22110C" />
    <path
        d="M88.9099 99.8172C88.8414 99.8354 88.5847 99.8835 88.3396 99.9238C87.894 99.997 87.894 99.997 87.9469 101.014C88.1298 104.521 86.3162 107.745 83.1378 109.56C83.0532 109.609 83.5827 110.913 83.6797 110.895C86.6025 110.358 88.5373 110.595 90.1363 111.685C90.4193 111.878 90.648 111.962 90.698 111.89C90.7443 111.823 91.0169 111.466 91.3041 111.095C93.7427 107.949 94.0393 102.618 91.8805 100.739C91.2126 100.157 89.5567 99.6437 88.9099 99.8172Z"
        fill="#2430F0" />
    <path
        d="M106.005 98.317C105.981 98.3911 105.901 98.8539 105.828 99.3455C105.539 101.294 104.843 102.669 103.381 104.182C102.452 105.143 102.452 105.143 102.843 105.623C104.298 107.409 104.91 110.256 104.324 112.52C104.187 113.051 104.075 113.501 104.075 113.519C104.075 113.824 107.469 112.416 108.658 111.618C113.607 108.295 113.521 101.06 108.506 98.7478C107.678 98.3666 106.078 98.0909 106.005 98.317Z"
        fill="#2430F0" />
    <path
        d="M95.3373 91.5716C95.3283 93.2724 94.343 96.0586 93.235 97.5161C92.7273 98.1845 92.7273 98.1845 93.4726 98.9721C94.2562 99.8005 94.9786 101.058 95.2241 102.022C95.3702 102.596 95.3702 102.596 95.9469 102.507C97.5384 102.262 98.9031 102.495 100.114 103.218C100.893 103.683 100.841 103.7 101.62 102.74C104.344 99.3837 103.532 94.0354 100.042 92.3464C98.5433 91.6212 95.34 91.0936 95.3373 91.5716Z"
        fill="#2430F0" />
    <path
        d="M86.691 88.4098C86.5894 90.892 86.1422 92.4688 85.0717 94.1189C84.6801 94.7225 84.6801 94.7225 85.2735 95.2179C85.5999 95.4903 86.1255 96.0712 86.4415 96.509C87.0773 97.3901 86.8935 97.3405 88.3933 97.0351C88.8502 96.9419 89.2182 96.9564 89.8846 97.0937C90.9133 97.3059 90.7449 97.4397 91.5944 95.7366C93.9936 90.9288 92.425 86.8667 88.1013 86.6905L86.7637 86.6362L86.691 88.4098Z"
        fill="#2430F0" />
    <path
        d="M76.6311 83.2184C72.6814 83.9152 71.4061 87.57 73.5074 92.1705C74.133 93.5403 74.133 93.5403 75.0931 93.5502C75.9557 93.559 76.1518 93.6099 77.0212 94.0489C77.989 94.5379 77.989 94.5379 78.9569 94.0489C79.826 93.6099 80.0224 93.559 80.8847 93.5502C81.8448 93.5403 81.8448 93.5403 82.47 92.1705C85.0477 86.5215 82.247 82.2278 76.6311 83.2184Z"
        fill="#2430F0" />
    <path
        d="M73.1499 97.4613C69.7526 99.025 69.4443 102.838 72.3627 107.196C73.2598 108.536 73.2598 108.536 73.6095 107.991C75.469 105.092 80.5089 105.092 82.3684 107.991C82.8741 108.779 84.9104 105.774 85.4276 103.475C86.3509 99.371 82.3023 95.1974 80.0135 97.8934C79.5267 98.467 78.9286 99.5202 78.6924 100.22C78.2351 101.575 77.743 101.575 77.2855 100.22C76.9199 99.1363 76.1487 97.9679 75.4448 97.4306C74.9441 97.0487 74.0194 97.0611 73.1499 97.4613Z"
        fill="#2430F0" />
    <path
        d="M66.0822 99.8849C62.1566 100.444 61.3562 106.815 64.6741 111.095C64.961 111.465 65.2338 111.823 65.2801 111.89C65.3301 111.961 65.5589 111.878 65.8418 111.685C67.4406 110.595 69.3757 110.358 72.2982 110.895C72.3952 110.913 72.9247 109.609 72.8401 109.56C69.6619 107.744 67.8483 104.521 68.031 101.014C68.0839 99.9968 68.0839 99.9968 67.6385 99.923C67.3934 99.8822 67.1085 99.8335 67.0056 99.8146C66.9027 99.7956 66.4871 99.8274 66.0822 99.8849Z"
        fill="#2430F0" />
    <path
        d="M57.6447 91.6729C52.8087 92.9241 51.09 98.7126 54.3585 102.74C55.1375 103.7 55.0851 103.683 55.8643 103.218C57.075 102.494 58.4398 102.262 60.0313 102.507C60.608 102.596 60.608 102.596 60.7541 102.022C60.9996 101.058 61.722 99.8003 62.5056 98.9719C63.2509 98.1843 63.2509 98.1843 62.7432 97.516C61.6354 96.0584 60.6501 93.2723 60.6409 91.5715C60.64 91.4104 58.3607 91.4875 57.6447 91.6729Z"
        fill="#2430F0" />
    <path
        d="M66.5002 86.8343C63.2643 87.6971 62.3308 91.6232 64.3833 95.7366C65.2331 97.4396 65.0645 97.3059 66.0932 97.0939C66.7598 96.9564 67.1276 96.9418 67.5847 97.035C69.0845 97.3405 68.9007 97.39 69.5365 96.509C69.8523 96.0711 70.3779 95.4902 70.7042 95.2179C71.2977 94.7225 71.2977 94.7225 70.9063 94.1189C69.8382 92.4723 69.3886 90.8909 69.2875 88.4247C69.2114 86.5679 68.666 86.2567 66.5002 86.8343Z"
        fill="#2430F0" />
    <path
        d="M49.0328 98.294C42.8611 99.096 41.7336 107.867 47.3198 111.618C48.5092 112.416 51.9033 113.824 51.9033 113.519C51.9033 113.5 51.7911 113.051 51.6538 112.52C51.0683 110.257 51.6796 107.408 53.1336 105.625C53.5235 105.146 53.5235 105.146 52.5446 104.124C51.0943 102.609 50.3089 100.98 50.0925 99.0376C49.9905 98.1213 50.0484 98.1618 49.0328 98.294Z"
        fill="#2430F0" />
    <path
        d="M128.475 135.489C114.818 136.927 104.433 149.849 102.144 168.253C101.78 171.182 101.523 179.968 101.797 180.124C102.543 180.55 103.076 180.323 103.076 179.58C103.076 168.784 107.228 163.837 123.046 155.778C127.336 153.592 127.385 153.562 130.068 151.429C140.198 143.375 139.296 134.35 128.475 135.489Z"
        fill="#2BE1B7" />
    <path
        d="M136.45 152.334C135.689 152.951 135.689 152.951 135.746 155.779C136.123 174.306 117.545 184.734 108.439 171.107C107.648 169.923 107.705 169.906 106.873 171.569C105.191 174.932 104.492 180.494 105.604 181.671C107.483 183.657 107.32 186.204 105.087 189.71C104.591 190.493 103.731 192.018 103.176 193.104C101.037 197.298 97.375 203.962 96.3066 205.603C95.651 206.613 95.4677 206.564 99.3032 206.386C107.302 206.018 110.629 205.288 117.117 202.476C140.576 192.315 150.116 170.728 138.734 153.559C137.327 151.436 137.466 151.511 136.45 152.334Z"
        fill="#2BE1B7" />
    <path
        d="M18.3646 151.979C12.6196 158.171 10.9265 170.961 14.6444 180.085C19.8625 192.893 36.9364 204.799 51.9661 206.113C58.7768 206.708 60.3229 206.606 59.6715 205.604C58.6032 203.962 54.9413 197.298 52.8017 193.104C52.2475 192.018 51.3876 190.493 50.8907 189.711C48.6585 186.204 48.4948 183.657 50.3737 181.671C51.4861 180.495 50.7873 174.932 49.105 171.57C48.2731 169.906 48.3304 169.923 47.5388 171.107C38.4331 184.735 19.855 174.307 20.2316 155.779C20.2891 152.952 20.2891 152.952 19.5011 152.326C18.581 151.598 18.6888 151.63 18.3646 151.979Z"
        fill="#2BE1B7" />
    <path
        d="M23.7145 135.53C16.3497 136.686 17.4573 144.708 25.91 151.429C28.5932 153.562 28.6419 153.592 32.9321 155.778C48.7474 163.835 52.9019 168.786 52.9019 179.58C52.9019 180.323 53.4347 180.55 54.1813 180.124C54.3158 180.047 54.2944 174.884 54.1483 172.125C53.4618 159.167 48.2115 147.055 40.685 141.067C35.7066 137.106 28.5503 134.771 23.7145 135.53Z"
        fill="#2BE1B7" />
    <path
        d="M58.1196 104.98C53.3085 106.26 52.9713 112.834 57.501 117.043C60.7751 120.084 57.5775 119.371 54.0114 116.265C53.0447 115.422 53.0447 115.422 52.308 115.498C49.2984 115.809 44.6627 113.178 42.191 109.756C41.6205 108.966 41.6205 108.966 41.2577 109.386C36.1187 115.326 33.1935 120.645 29.8626 130.105C29.0382 132.447 29.03 132.265 29.9679 132.441C45.9721 135.445 56.5327 152.305 56.8615 175.378C56.9333 180.417 56.806 180.116 58.5786 179.459C59.6611 179.058 59.8804 178.754 60.7647 176.424C64.8116 165.765 68.2183 161.538 73.9261 160.095C75.1071 159.797 75.0725 159.819 75.1734 159.288C75.4015 158.085 76.6849 154.938 77.147 154.447C78.2621 153.264 80.1311 155.737 80.8047 159.288C80.9057 159.819 80.8711 159.797 82.0523 160.095C87.7601 161.538 91.1668 165.765 95.2134 176.424C96.0978 178.754 96.3173 179.058 97.3995 179.459C99.1722 180.116 99.045 180.417 99.1166 175.378C99.4457 152.304 110.005 135.445 126.01 132.441C126.948 132.265 126.94 132.447 126.116 130.105C122.785 120.645 119.86 115.326 114.721 109.386C114.358 108.966 114.358 108.966 113.787 109.756C111.315 113.178 106.68 115.809 103.67 115.498C102.934 115.422 102.934 115.422 101.967 116.265C98.4009 119.371 95.2033 120.084 98.4771 117.043C101.745 114.006 102.571 110.871 100.94 107.682C99.6484 105.156 95.663 103.642 95.41 105.581C95.005 108.684 93.7645 111.07 91.8964 112.341C91.3521 112.712 91.3521 112.712 91.8162 113.541C92.8835 115.451 92.3561 117.932 90.4858 119.801C88.9034 121.383 87.632 121.486 89.0841 119.915C90.9889 117.855 90.8565 115.343 88.8112 114.742C87.5875 114.383 83.7304 114.535 83.7304 114.943C83.7304 115.87 82.4908 118.72 81.7545 119.486C80.8418 120.434 80.6503 120.023 81.2792 118.463C83.2055 113.683 81.5998 109.127 77.9891 109.127C74.3785 109.127 72.7729 113.683 74.6992 118.463C75.3279 120.023 75.1366 120.434 74.2236 119.486C73.4876 118.72 72.2478 115.87 72.2478 114.943C72.2478 114.535 68.3906 114.383 67.1671 114.742C65.1219 115.343 64.9894 117.855 66.8943 119.915C68.3463 121.486 67.075 121.383 65.4925 119.801C63.6222 117.932 63.0949 115.451 64.1622 113.541C64.626 112.712 64.626 112.712 64.0819 112.341C62.2156 111.072 60.9729 108.683 60.5692 105.589C60.5031 105.08 60.4326 104.938 60.2202 104.881C59.7814 104.765 58.7443 104.813 58.1196 104.98Z"
        fill="#2430F0" />
    <path clipRule="evenodd" clipRule="evenodd"
        d="M76.5118 162.94C71.7359 163.784 67.2659 168.901 63.7995 177.493C62.0614 181.801 61.1577 182.425 55.3983 183.291C51.6081 183.862 51.3582 184.774 53.963 188.531C55.8463 191.251 58.1465 195.004 60.5761 199.323C64.9178 207.045 66.5202 209.605 68.7283 212.356C76.3436 221.845 82.8525 220.289 90.9271 207.049C92.517 204.442 92.7156 204.101 95.4021 199.323C97.8317 195.004 100.132 191.251 102.015 188.531C104.62 184.774 104.37 183.862 100.58 183.291C94.8203 182.425 93.9166 181.801 92.1788 177.493C87.9997 167.136 82.3661 161.902 76.5118 162.94ZM62.7792 186.229C62.2362 185.12 62.6568 183.965 63.8233 183.366C65.4377 182.533 67.3977 183.934 68.4378 186.667C69.1194 188.459 68.2836 188.714 66.0909 187.39C65.4776 187.017 65.326 186.973 65.1252 187.097C64.3956 187.546 63.2098 187.108 62.7792 186.229ZM87.3798 187.839C86.9597 186.967 88.6711 184.093 90.0092 183.421C91.9745 182.432 94.1291 184.331 93.1991 186.229C92.7685 187.108 91.5827 187.546 90.853 187.097C90.6523 186.973 90.5006 187.017 89.8871 187.39C88.2793 188.362 87.6834 188.467 87.3798 187.839Z"
        fill="#F2C79C" />
    <path clipRule="evenodd" clipRule="evenodd"
        d="M52.2981 60.3883C50.6376 54.2012 45.4642 49.3277 38.4355 50.6272C32.8581 51.6586 27.9024 55.8956 26.6042 60.6991C26.9879 62.0371 27.6221 63.3292 28.5318 64.5185C34.9682 72.9329 46.5577 72.0841 51.3327 62.8486C51.7507 62.0402 52.07 61.2167 52.2981 60.3883Z"
        fill="#2430F0" />
    <path clipRule="evenodd" clipRule="evenodd"
        d="M58.6519 37.0952C58.4125 36.3856 58.2232 35.6716 58.0815 34.9567C59.5353 27.5188 66.7212 21.0644 75.2186 19.5293C86.5915 17.475 95.9592 25.1787 97.902 34.9439C97.759 35.6599 97.5679 36.3779 97.3262 37.0952C91.6019 54.0829 64.376 54.0829 58.6519 37.0952Z"
        fill="#2430F0" />
    <path
        d="M114.141 44.0409C106.071 45.4826 101.888 53.3582 103.69 60.3761C104.882 55.6727 109.541 51.6254 115.089 50.6342C122.362 49.3351 127.663 54.5198 129.372 60.7448C131.86 52.2561 123.927 42.2927 114.141 44.0409Z"
        fill="#2430F0" />
    <path
        d="M58.0815 34.957C59.5355 27.5188 66.7213 21.0644 75.2188 19.5293C86.5917 17.4752 95.9592 25.1789 97.9022 34.944C100.41 22.3886 88.1252 10.4335 74.271 12.936C63.3162 14.915 56.1167 25.0441 58.0815 34.957Z"
        fill="#2430F0" />
    <path
        d="M38.4354 50.6273C45.4641 49.3278 50.6375 54.2012 52.2983 60.3884C54.7109 51.6264 46.9159 42.2909 37.4876 44.034C29.3971 45.5299 24.6092 53.7385 26.6042 60.6991C27.9024 55.8957 32.8581 51.6586 38.4354 50.6273Z"
        fill="#2430F0" />
    <path
        d="M107.581 66.8525C113.384 72.2653 122.324 71.2148 127.446 64.5184C128.357 63.3277 128.988 62.0538 129.372 60.745C127.663 54.5197 122.362 49.3351 115.089 50.6342C109.541 51.6254 104.882 55.6727 103.69 60.3761C104.293 62.7213 105.563 64.971 107.581 66.8525Z"
        fill="#2430F0" />
    <path clipRule="evenodd" clipRule="evenodd"
        d="M61.0985 28.2553C64.2731 23.8957 69.4479 20.5738 75.2297 19.5293C83.8819 17.9664 91.3738 22.0516 95.3185 28.3956C96.0704 27.6475 96.7581 26.887 97.3262 26.1421C94.3918 17.4547 84.7881 11.0384 74.2819 12.936C67.0233 14.2472 61.4136 19.1361 59.0259 25.1696C59.5424 26.154 60.2721 27.2105 61.0985 28.2553Z"
        fill="#F2C79C" />
    <path
        d="M61.0984 28.2553C63.9171 31.8193 67.8633 35.2511 68.3389 35.2511C68.6987 35.2511 70.6885 33.3401 72.7551 31.3559C74.9868 29.2121 77.3084 26.9828 77.7621 26.9828C78.1989 26.9828 80.0712 29.0499 81.9432 31.117C83.8155 33.1841 85.6875 35.2511 86.1245 35.2511C86.6816 35.2511 91.733 31.9625 95.3186 28.3956C91.374 22.0516 83.882 17.9664 75.2299 19.5292C69.4478 20.5738 64.2733 23.8957 61.0984 28.2553Z"
        fill="#2BE1B7" />
    <path
        d="M26.6705 60.3509C28.1084 55.6923 32.9587 51.6335 38.401 50.6273C42.5625 49.858 46.0734 51.2523 48.5901 53.8019C49.0577 52.0928 49.3962 50.0515 49.3565 48.3379C46.5318 45.0865 42.1995 43.1565 37.4532 44.034C29.5538 45.4944 24.8026 53.3546 26.4398 60.2039C26.5156 60.2535 26.5927 60.3024 26.6705 60.3509Z"
        fill="#2BE1B7" />
    <path
        d="M26.6704 60.3509C29.7311 62.2621 33.9036 63.0967 35.0031 62.4627C35.8541 61.9719 36.2481 59.4963 36.3407 56.9466C36.4112 55.0089 36.4742 53.2741 36.8515 52.9543C37.2685 52.6009 39.2908 53.7508 41.4339 54.9694C43.7826 56.3046 46.4357 57.4693 47.121 57.0821C47.6109 56.8053 48.0935 55.6173 48.59 53.8019C46.0734 51.2522 42.5622 49.8579 38.4007 50.6272C32.9587 51.6334 28.1083 55.6922 26.6704 60.3509Z"
        fill="#2BE1B7" />
    <path clipRule="evenodd" clipRule="evenodd"
        d="M104.619 51.5411C104.806 52.8985 108.738 60.1796 109.799 60.4264C110.373 60.5602 112.338 59.1738 114.139 57.904C115.663 56.8288 117.069 55.8372 117.412 55.922C117.725 55.9994 118.322 56.9289 119.02 58.016C119.991 59.529 121.159 61.3473 122.03 61.5988C123.159 61.9242 127.655 59.5863 129.855 58.0184C130.195 50.2801 122.926 42.4774 114.175 44.041C109.605 44.8572 106.282 47.7364 104.586 51.3544C104.599 51.4115 104.61 51.4734 104.619 51.5411Z"
        fill="#2BE1B7" />
    <path
        d="M131.72 155.368C131.377 155.544 130.31 156.039 129.349 156.468C125.64 158.116 124.996 158.515 125.492 158.85C128.105 160.619 128.783 166.188 126.934 170.684C126.473 171.799 126.543 171.792 127.694 170.602C131.402 166.763 133.797 159.282 132.587 155.311C132.484 154.972 132.489 154.972 131.72 155.368Z"
        fill="#F1F1F1" />
    <path
        d="M23.3907 155.311C22.1811 159.282 24.5759 166.763 28.284 170.602C29.4355 171.792 29.5047 171.799 29.0445 170.683C27.1956 166.19 27.8735 160.619 30.4844 158.852C30.9673 158.523 30.0856 157.975 26.6914 156.492C25.9021 156.146 24.8784 155.677 24.4168 155.449C23.4202 154.955 23.4961 154.967 23.3907 155.311Z"
        fill="#F1F1F1" />
    <path
        d="M123.593 166.618C123.593 166.21 123.23 165.877 122.782 165.877C122.334 165.877 121.971 166.21 121.971 166.618C121.971 167.028 122.334 167.358 122.782 167.358C123.23 167.358 123.593 167.028 123.593 166.618Z"
        fill="#F1F1F1" />
    <path opacity="0.2" clipRule="evenodd" clipRule="evenodd"
        d="M96.7901 38.4961C89.846 46.1432 76.0442 50.3514 60.2736 40.613C68.0718 53.58 90.5946 52.8744 96.7901 38.4961ZM49.3423 65.807C42.0331 68.8301 32.1092 65.7352 27.2612 62.4393C27.6017 63.158 28.0239 63.8541 28.5319 64.5185C34.1967 71.9241 43.8531 72.1544 49.3423 65.807ZM128.576 62.7362C124.374 66.6436 115.865 69.4213 105.926 65.0159C106.408 65.6578 106.959 66.2727 107.581 66.8527C113.384 72.2654 122.324 71.2149 127.446 64.5185C127.887 63.942 128.263 63.3462 128.576 62.7362Z"
        fill="#22110C" />
    <path
        d="M58.0817 34.957C59.5357 27.5188 66.7214 21.0644 75.2191 19.5295C86.5917 17.4752 95.9594 25.1787 97.9025 34.944C100.41 22.3886 88.1253 10.4335 74.2712 12.936C63.3162 14.915 56.1169 25.0441 58.0817 34.957Z"
        fill="#2430F0" />
    <path clipRule="evenodd" clipRule="evenodd"
        d="M61.0985 28.2553C64.2731 23.8957 69.4479 20.5738 75.2297 19.5295C83.8819 17.9664 91.3738 22.0516 95.3185 28.3956C96.0704 27.6475 96.7581 26.8872 97.3262 26.1421C94.3918 17.4547 84.7881 11.0384 74.2819 12.936C67.0233 14.2472 61.4136 19.1361 59.0259 25.1694C59.5424 26.154 60.2721 27.2105 61.0985 28.2553Z"
        fill="#2BE1B7" />
    <g opacity="0.2">
        <g style="mix-blend-mode:hard-light">
            <path clipRule="evenodd" clipRule="evenodd"
                d="M82.9935 85.8948C82.0809 83.7871 79.806 82.6584 76.6312 83.2184C74.7562 83.5494 73.484 84.5468 72.8895 85.9955C74.1405 84.9741 76.3544 84.6402 78.006 84.6056C79.6022 84.6391 81.7233 84.952 82.9935 85.8948ZM69.0938 87.2287C67.5475 87.4634 64.7232 88.2071 63.496 89.9187C63.9052 88.3896 64.9326 87.2525 66.5003 86.8344C68.0695 86.4159 68.7882 86.464 69.0938 87.2287ZM60.6594 91.9776C60.6479 91.8368 60.6415 91.7011 60.6406 91.5717C60.6398 91.4106 58.3607 91.488 57.6447 91.6731C55.194 92.3073 53.5436 94.1069 52.9376 96.2517C54.5767 93.9603 57.6286 92.0495 60.6594 91.9776ZM43.7129 104.462C44.4372 102.026 47.1363 99.485 49.3306 99.485C49.6408 99.485 49.9112 99.468 50.1462 99.4378C50.1254 99.3061 50.1078 99.1725 50.0926 99.0376C50.0878 98.9925 50.0831 98.9495 50.0785 98.9089C50.0397 98.5491 50.0194 98.3638 49.9156 98.2805C49.805 98.1919 49.5996 98.2192 49.1756 98.2752C49.1305 98.2813 49.0829 98.2877 49.0329 98.2941C45.7211 98.7243 43.8616 101.45 43.7129 104.462ZM76.6199 98.8212C75.3471 97.8439 73.4635 97.4576 70.8189 99.6452C71.2654 98.7179 72.0439 97.9704 73.1497 97.4613C74.0193 97.0611 74.9442 97.0488 75.4447 97.4307C75.8436 97.735 76.264 98.2421 76.6199 98.8212ZM84.8053 99.3382C83.6634 97.2559 81.4782 96.1684 80.0136 97.8935C79.8001 98.1451 79.5649 98.4894 79.3485 98.8552C80.5595 97.9023 82.3337 97.475 84.8053 99.3382ZM68.0517 100.574C68.0709 99.9951 68.0074 99.9846 67.6385 99.9233C67.3934 99.8828 67.1085 99.8338 67.0056 99.8149C66.9027 99.7959 66.4871 99.8277 66.0822 99.8852C64.154 100.16 62.9799 101.837 62.6773 103.979C63.4407 101.528 66.3183 100.383 68.0517 100.574ZM95.4814 105.3C96.081 103.806 99.7172 105.291 100.94 107.683C101.28 108.347 101.513 109.01 101.64 109.669C100.703 107.065 97.7519 105.872 95.4814 105.3ZM83.7273 115.029C83.7293 114.999 83.7304 114.97 83.7304 114.943C83.7304 114.536 87.5875 114.383 88.811 114.742C89.3908 114.912 89.8168 115.236 90.0863 115.66C88.9157 114.638 86.3689 114.828 83.7273 115.029ZM74.8622 110.808C75.5718 109.762 76.6406 109.127 77.9891 109.127C79.312 109.127 80.3658 109.738 81.0754 110.749C80.1917 110.067 78.981 109.717 78.006 109.626C77.0034 109.719 75.7517 110.087 74.8622 110.808ZM65.8487 115.731C66.1151 115.272 66.5554 114.922 67.1669 114.742C68.3906 114.383 72.2478 114.536 72.2478 114.943C72.2478 114.969 72.2486 114.997 72.2506 115.026C69.5619 114.822 66.977 114.634 65.8487 115.731ZM60.523 105.302C58.2014 105.887 55.1726 107.123 54.3109 109.851C54.45 107.549 55.7354 105.615 58.1194 104.98C58.7444 104.814 59.7814 104.765 60.22 104.881C60.3855 104.925 60.4648 105.021 60.523 105.302ZM92.515 89.9176C91.9874 88.0301 90.4515 86.7864 88.1014 86.6907L86.7636 86.6363L86.7404 87.2031C88.2378 87.4058 91.2389 88.139 92.515 89.9176ZM103.002 96.1526C102.567 94.5024 101.557 93.0797 100.042 92.3465C98.5432 91.6213 95.3399 91.0937 95.3373 91.5717C95.3366 91.7011 95.3305 91.8364 95.3188 91.977C98.3169 92.0345 101.341 93.8971 103.002 96.1526ZM112.309 104.496C111.599 102.049 108.886 99.485 106.682 99.485C106.349 99.485 106.062 99.4654 105.815 99.431C105.819 99.4028 105.824 99.3742 105.828 99.3455C105.901 98.8539 105.981 98.3911 106.005 98.317C106.078 98.0909 107.678 98.3666 108.506 98.7479C110.911 99.8568 112.182 102.097 112.309 104.496ZM93.2621 103.766C93.0977 102.493 92.6417 101.401 91.8806 100.739C91.2126 100.158 89.5568 99.6439 88.91 99.8173C88.8414 99.8356 88.5847 99.8836 88.3397 99.924C87.9701 99.9848 87.9071 99.9951 87.9265 100.577C89.6057 100.374 92.3976 101.446 93.2621 103.766Z"
                fill="white" />
        </g>
    </g>
    <g style="mix-blend-mode:hard-light">
        <path clipRule="evenodd" clipRule="evenodd"
            d="M135.084 136.592C130.166 136.227 124.43 137.839 120.286 140.395C114.482 143.974 105.558 153.476 103.686 162.669C103.168 165.212 102.78 166.045 102.492 165.862C105.351 148.736 115.417 136.864 128.475 135.489C131.42 135.179 133.631 135.623 135.084 136.592Z"
            fill="white" fill-opacity="0.4" />
    </g>
    <g style="mix-blend-mode:hard-light">
        <path clipRule="evenodd" clipRule="evenodd"
            d="M20.6399 136.71C25.6853 136.158 31.7236 137.796 36.0381 140.457C41.8417 144.035 50.7656 153.538 52.6379 162.73C52.9316 164.174 53.1835 165.064 53.399 165.534C51.5856 155.178 46.9151 146.025 40.685 141.067C35.7066 137.106 28.5503 134.771 23.7145 135.53C22.4366 135.731 21.4136 136.138 20.6399 136.71Z"
            fill="white" fill-opacity="0.4" />
    </g>
    <g style="mix-blend-mode:hard-light">
        <path clipRule="evenodd" clipRule="evenodd"
            d="M65.6826 173.357C69.7637 168.919 74.9926 168.161 77.7878 168.161C80.6912 168.161 86.4466 169.088 90.6017 173.965C86.6346 165.963 81.6586 162.028 76.5118 162.94C72.561 163.639 68.8196 167.261 65.6826 173.357Z"
            fill="white" fill-opacity="0.4" />
    </g>
    <path opacity="0.2" clipRule="evenodd" clipRule="evenodd"
        d="M132.904 157.702C131.038 158.497 128.948 159.306 126.691 160.115C126.354 159.592 125.953 159.163 125.492 158.85C124.996 158.515 125.641 158.116 129.349 156.468C130.31 156.039 131.378 155.544 131.721 155.368L131.734 155.36C132.21 155.115 132.384 155.025 132.474 155.078C132.525 155.107 132.549 155.184 132.586 155.306L132.587 155.311C132.801 156.012 132.902 156.822 132.904 157.702ZM23.0771 157.499C24.9631 158.343 27.0665 159.198 29.3286 160.053C29.6567 159.559 30.0431 159.149 30.4849 158.852C30.9677 158.524 30.0858 157.975 26.6919 156.492C25.9025 156.147 24.8789 155.678 24.4172 155.449C24.3529 155.417 24.2934 155.388 24.2376 155.36C23.7352 155.111 23.5684 155.027 23.4906 155.079C23.4516 155.104 23.435 155.162 23.4097 155.249C23.4042 155.268 23.3982 155.289 23.3912 155.311C23.1944 155.958 23.0928 156.699 23.0771 157.499Z"
        fill="#22110C" />
    <path opacity="0.2" clipRule="evenodd" clipRule="evenodd"
        d="M50.0645 188.273C49.6663 192.509 51.1344 197.243 51.812 199.429C51.9275 199.801 52.0199 200.099 52.0763 200.308C52.56 202.102 47.3044 204.938 28.0264 196.251C35.1441 201.608 43.8527 205.403 51.9659 206.112C58.7766 206.707 60.3228 206.606 59.6713 205.603C58.603 203.962 54.9411 197.298 52.8015 193.104C52.2473 192.018 51.3874 190.493 50.8905 189.71C50.5736 189.214 50.2981 188.734 50.0645 188.273Z"
        fill="#22110C" />
    <path opacity="0.2" clipRule="evenodd" clipRule="evenodd"
        d="M128.07 196.211C108.723 204.945 103.451 202.104 103.936 200.308C103.992 200.099 104.085 199.801 104.2 199.429C104.881 197.234 106.359 192.465 105.942 188.219C105.703 188.695 105.418 189.193 105.088 189.71C104.591 190.493 103.731 192.018 103.177 193.104C101.037 197.298 97.3752 203.962 96.3071 205.604C96.0693 205.969 95.8937 206.196 95.949 206.329C96.0464 206.56 96.8582 206.5 99.3034 206.386C107.302 206.018 110.63 205.288 117.118 202.476C121.203 200.707 124.866 198.591 128.07 196.211Z"
        fill="#22110C" />
    <path opacity="0.2" clipRule="evenodd" clipRule="evenodd"
        d="M59.4846 197.406C63.7023 204.149 65.4115 206.578 67.7172 209.171C76.1521 218.669 83.3615 217.111 92.305 203.86C93.9803 201.381 94.2608 200.949 96.8451 196.798C96.3706 197.613 95.8889 198.457 95.4021 199.323C92.7154 204.101 92.517 204.442 90.9271 207.049C82.8525 220.289 76.3434 221.845 68.7281 212.356C66.5202 209.606 64.9179 207.045 60.5759 199.323C60.2088 198.671 59.8447 198.032 59.4846 197.406Z"
        fill="#22110C" />
    <path
        d="M77.9123 151.07C76.3521 151.07 74.3551 162.052 73.4815 162.052L71.6716 163.718L77.9123 162.052L85.0889 164.15C84.3191 163.451 82.6675 162.052 82.2183 162.052C81.6566 162.052 79.4723 151.07 77.9123 151.07Z"
        fill="black" fill-opacity="0.2" />
    <path
        d="M67.5528 121.575C66.6792 121.575 63.7461 119.539 63.7461 116.515C64.1622 115.754 64.9943 114.565 64.9943 115.898C64.9943 117.564 66.8663 119.724 67.3657 120.217C67.8648 120.711 68.4265 121.575 67.5528 121.575Z"
        fill="black" fill-opacity="0.2" />
    <path
        d="M50.8282 116.515C47.271 116.515 42.6531 111.887 40.2815 108.74L41.717 107.506L44.9619 112.134L52.3258 114.294L53.7613 111.949C54.1148 112.484 54.9469 113.775 55.4463 114.664C56.0704 115.775 57.6927 116.638 59.0033 118.49C60.3138 120.341 55.3213 118.058 54.6972 117.749C54.1981 117.502 53.1163 116.741 52.6379 116.392C52.6379 116.433 52.276 116.515 50.8282 116.515Z"
        fill="black" fill-opacity="0.2" />
    <path
        d="M61.9988 110.9C60.5635 109.11 61.0629 107.013 60.8132 105.223L64.8696 112.504L64.5575 113.06L64.5494 113.055C64.1483 112.847 63.1392 112.322 61.9988 110.9Z"
        fill="black" fill-opacity="0.2" />
    <path
        d="M74.7923 120.464C73.4817 120.156 72.2959 117.132 72.2959 114.849L73.5441 114.294L74.3553 117.502C74.6049 118.49 76.1026 120.773 74.7923 120.464Z"
        fill="black" fill-opacity="0.2" />
    <path
        d="M88.3341 121.575C89.2077 121.575 92.1408 119.539 92.1408 116.515C91.7248 115.754 90.8926 114.565 90.8926 115.898C90.8926 117.564 89.0206 119.724 88.5212 120.217C88.0221 120.711 87.4604 121.575 88.3341 121.575Z"
        fill="black" fill-opacity="0.2" />
    <path
        d="M105.059 116.515C108.616 116.515 113.234 111.887 115.605 108.74L114.17 107.506L110.925 112.134L103.561 114.294L102.126 111.949C101.772 112.484 100.94 113.775 100.441 114.664C99.8166 115.775 98.1941 116.638 96.8835 118.49C95.5732 120.341 100.565 118.058 101.19 117.749C101.689 117.502 102.77 116.741 103.249 116.392C103.249 116.433 103.611 116.515 105.059 116.515Z"
        fill="black" fill-opacity="0.2" />
    <path
        d="M93.8881 110.9C95.3234 109.11 94.8243 107.013 95.0739 105.223L91.0176 112.504L91.3296 113.06L91.3378 113.055C91.7386 112.847 92.7477 112.322 93.8881 110.9Z"
        fill="black" fill-opacity="0.2" />
    <path
        d="M81.0326 120.526C82.3431 120.217 83.5911 117.132 83.5911 114.849L82.3431 114.294L81.5317 117.502C81.282 118.49 79.722 120.834 81.0326 120.526Z"
        fill="black" fill-opacity="0.2" />
    <path opacity="0.2"
        d="M63.1465 186.61C62.7098 186.61 64.0827 185.931 63.6457 184.759C64.6858 184.327 66.3168 184.772 67.5149 185.808C69.0128 187.104 69.0128 190.312 68.9504 191.67C68.8879 193.027 63.5835 186.61 63.1465 186.61Z"
        fill="#22110C" />
    <path opacity="0.2"
        d="M92.7461 186.652C93.1829 186.652 91.8102 185.973 92.247 184.801C91.2068 184.369 89.5759 184.814 88.3777 185.85C86.8801 187.145 86.8801 190.354 86.9424 191.711C87.0048 193.069 92.3093 186.652 92.7461 186.652Z"
        fill="#22110C" />
    <path opacity="0.2" clipRule="evenodd" clipRule="evenodd"
        d="M36.097 155.297C43.6932 159.791 51.0778 164.158 51.0778 169.58C51.0778 169.754 51.0747 169.928 51.0692 170.097C48.5998 164.983 43.2441 161.045 32.9059 155.778C28.6157 153.592 28.567 153.562 25.884 151.429C19.3026 146.196 17.1741 140.175 20.0303 137.219C18.1087 144.657 27.2463 150.062 36.097 155.297Z"
        fill="#22110C" />
    <path opacity="0.2" clipRule="evenodd" clipRule="evenodd"
        d="M20.1499 137.006L20.0908 137.234C19.1384 140.92 20.9227 144.11 24.0669 147.04C27.2116 149.97 31.7019 152.625 36.1291 155.244L36.1322 155.247C39.9279 157.492 43.6766 159.709 46.4762 162.045C49.2749 164.379 51.1403 166.84 51.1403 169.579C51.1403 169.756 51.1375 169.928 51.1317 170.097L51.013 170.122C48.5534 165.031 43.216 161.1 32.8776 155.832C30.7334 154.74 29.6458 154.184 28.7593 153.635C27.8719 153.086 27.1859 152.543 25.8449 151.477C22.5484 148.855 20.363 146.034 19.3601 143.492C18.3574 140.951 18.5339 138.678 19.9853 137.176L20.1499 137.006ZM19.4762 143.448C20.469 145.964 22.6383 148.769 25.9231 151.38C27.2654 152.448 27.9455 152.986 28.8256 153.531C29.7067 154.077 30.7885 154.63 32.9346 155.723C43.1188 160.91 48.4855 164.819 51.0132 169.842C51.0147 169.754 51.0154 169.668 51.0154 169.579C51.0154 166.9 49.1885 164.467 46.3958 162.138C43.6048 159.81 39.8644 157.598 36.065 155.35L36.0606 155.348C31.6387 152.732 27.1367 150.07 23.9812 147.129C20.891 144.25 19.0782 141.092 19.9123 137.44C18.6575 138.894 18.5231 141.031 19.4762 143.448Z"
        fill="#22110C" />
    <path opacity="0.2" clipRule="evenodd" clipRule="evenodd"
        d="M119.977 155.297C112.381 159.791 104.996 164.159 104.996 169.58C104.996 169.657 104.997 169.734 104.998 169.809C107.528 164.835 112.874 160.946 123.02 155.778C127.31 153.592 127.359 153.562 130.042 151.429C136.621 146.197 138.547 140.558 136.125 137.558C137.687 144.823 128.693 150.143 119.977 155.297Z"
        fill="#22110C" />
    <path opacity="0.2" clipRule="evenodd" clipRule="evenodd"
        d="M136.516 143.68C135.51 146.131 133.376 148.857 130.081 151.477C128.74 152.543 128.054 153.086 127.167 153.637C126.28 154.184 125.193 154.74 123.049 155.833C112.902 161.001 107.573 164.884 105.054 169.838L104.936 169.811C104.934 169.734 104.934 169.657 104.934 169.58C104.934 166.84 106.799 164.379 109.598 162.045C112.398 159.709 116.146 157.492 119.942 155.247L119.945 155.245C124.305 152.666 128.726 150.05 131.863 147.174C135 144.297 136.837 141.171 136.063 137.571L136.173 137.52C137.404 139.042 137.522 141.229 136.516 143.68ZM136.238 137.811C137.278 139.276 137.35 141.322 136.402 143.633C135.405 146.059 133.287 148.769 130.003 151.381C128.661 152.448 127.981 152.986 127.101 153.532C126.219 154.077 125.138 154.63 122.991 155.723C112.998 160.813 107.645 164.67 105.059 169.558C105.069 166.885 106.894 164.46 109.679 162.138C112.47 159.811 116.21 157.598 120.009 155.351L120.013 155.348C124.368 152.773 128.8 150.151 131.947 147.264C135.02 144.446 136.882 141.362 136.238 137.811Z"
        fill="#22110C" />
    <g style="mix-blend-mode:multiply">
        <path clipRule="evenodd" clipRule="evenodd"
            d="M17.2439 153.303C17.1685 159.418 17.4036 185.808 48.7689 185.808C48.8972 185.808 49.0248 185.808 49.1515 185.808C48.8492 184.183 49.2496 182.83 50.3477 181.671C51.4599 180.494 50.7613 174.932 49.0788 171.569C48.6334 170.677 48.443 170.269 48.2405 170.263C48.0651 170.258 47.8804 170.556 47.5126 171.107C38.4069 184.734 19.829 174.306 20.2054 155.779C20.2629 152.951 20.2629 152.951 19.4749 152.326C18.9006 151.872 18.7267 151.714 18.5985 151.743C18.5211 151.762 18.4603 151.848 18.3387 151.979C17.9554 152.392 17.5905 152.834 17.2439 153.303Z"
            fill="black" fill-opacity="0.2" />
    </g>
    <path opacity="0.2" clipRule="evenodd" clipRule="evenodd"
        d="M138.885 153.828C138.933 160.613 138.078 185.931 107.356 185.931C107.152 185.931 106.95 185.931 106.751 185.929C107.097 184.252 106.704 182.861 105.579 181.671C104.466 180.495 105.165 174.932 106.847 171.57C107.293 170.677 107.483 170.269 107.686 170.263C107.861 170.258 108.046 170.556 108.414 171.107C117.519 184.735 136.097 174.307 135.721 155.779C135.68 153.769 135.667 153.187 135.938 152.798C136.048 152.639 136.204 152.514 136.425 152.335C136.837 152 137.059 151.79 137.271 151.799C137.582 151.813 137.872 152.298 138.708 153.559C138.768 153.649 138.826 153.739 138.885 153.828Z"
        fill="#22110C" />
    <path opacity="0.2" clipRule="evenodd" clipRule="evenodd"
        d="M72.532 87.2569C72.3438 88.6609 72.6452 90.3408 73.4811 92.1703C74.1067 93.5404 74.1067 93.5404 75.0669 93.5503C75.9294 93.5591 76.1255 93.6098 76.9949 94.049C77.9626 94.5377 77.9626 94.5377 78.9304 94.049C79.7998 93.6098 79.9959 93.5591 80.8584 93.5503C81.8186 93.5404 81.8186 93.5404 82.4438 92.1703C83.279 90.3397 83.5496 88.6514 83.3425 87.2391C82.9279 89.5239 81.9731 92.5101 79.8315 92.7594C78.9044 92.9522 78.2594 92.9643 78.0366 92.9456L78.0218 92.9443H77.8493H77.8345C77.6117 92.963 76.9667 92.9522 76.0396 92.7594C73.9038 92.5108 72.9482 89.5393 72.532 87.2569ZM85.0453 94.119C86.1158 92.4689 86.5629 90.8922 86.6645 88.4099L86.7181 87.1062C87.1284 89.3416 87.0189 92.472 85.1418 95.1297C84.6552 94.7202 84.6786 94.6845 85.0453 94.119ZM92.6716 92.0167C92.585 93.1576 92.2256 94.4192 91.5682 95.7368C91.4977 95.878 91.4342 96.0067 91.3765 96.1235C91.0237 96.8386 90.8853 97.1189 90.6726 97.1939C90.5356 97.2424 90.3674 97.2051 90.0906 97.1441C90.0208 97.1284 89.9437 97.1115 89.8584 97.0938C89.1918 96.9565 88.8239 96.942 88.3669 97.0352C88.247 97.0595 88.1381 97.0824 88.0385 97.1031C88.0172 97.1075 87.9965 97.1117 87.976 97.1161C88.0575 96.8715 88.6939 96.672 89.3425 96.4686C89.9527 96.2776 90.5735 96.083 90.7526 95.8443C91.6418 94.6594 92.3208 93.4646 92.6716 92.0167ZM95.311 91.5718C95.3017 93.2724 94.3165 96.0585 93.2087 97.5163C92.7353 98.139 92.7033 98.1813 93.3047 98.8224C94.5798 96.9999 95.9078 93.4114 95.4055 91.4563C95.3445 91.485 95.3112 91.5231 95.311 91.5718ZM103.187 97.3466C103.024 98.3905 102.44 100.588 101.549 101.521C100.488 102.632 100.051 102.755 99.1774 102.385C98.6578 102.165 97.8992 102.272 97.3474 102.418C98.3495 102.455 99.2549 102.72 100.087 103.218L100.114 103.234L100.161 103.262C100.464 103.443 100.632 103.544 100.785 103.526C100.975 103.503 101.143 103.296 101.519 102.831L101.557 102.785L101.593 102.74C102.857 101.183 103.36 99.1971 103.187 97.3466ZM112.243 104.026C112.022 105.749 111.394 108.812 108.975 110.838C106.699 112.745 104.981 112.875 104.607 110.16C104.571 109.898 104.52 109.759 104.459 109.718C104.572 110.676 104.525 111.642 104.298 112.52C104.161 113.051 104.048 113.501 104.048 113.519C104.048 113.825 107.442 112.416 108.632 111.618C111.363 109.784 112.561 106.758 112.243 104.026ZM105.791 99.4143C105.496 101.326 104.799 102.687 103.355 104.182C102.426 105.143 102.426 105.143 102.817 105.623C102.858 105.675 102.9 105.727 102.94 105.78C104.184 104.53 105.57 102.143 105.791 99.4143ZM93.3006 105.201C93.0696 106.507 92.6892 107.936 92.1255 108.617C91.0023 109.975 89.5045 110.345 88.3189 110.16C87.7228 110.067 86.7342 110.326 85.8703 110.629C87.6232 110.555 88.9542 110.897 90.11 111.686C90.393 111.878 90.6217 111.962 90.6715 111.89C90.7178 111.823 90.9906 111.466 91.2778 111.096C92.5471 109.458 93.236 107.228 93.3006 105.201ZM83.2261 110.025C85.0228 109.088 87.9028 106.581 87.8675 102.593C87.5191 105.471 85.8055 108.021 83.1115 109.561C83.0791 109.579 83.1371 109.782 83.2261 110.025ZM85.503 102.862C84.9483 104.479 83.7147 107.022 81.7661 106.334C80.0188 105.717 78.958 105.594 78.0842 105.594C78.0282 105.594 77.9791 105.599 77.9357 105.609C77.8923 105.599 77.8429 105.594 77.7869 105.594C76.9132 105.594 75.8523 105.717 74.105 106.334C72.3466 106.955 71.1705 104.944 70.55 103.357C70.8391 104.551 71.4332 105.847 72.3363 107.196C72.902 108.041 73.1111 108.353 73.2759 108.332C73.3727 108.319 73.454 108.193 73.5834 107.991C75.4426 105.092 80.4827 105.092 82.342 107.991C82.8477 108.78 84.8839 105.774 85.4011 103.475C85.4472 103.27 85.4807 103.066 85.503 102.862ZM62.5732 105.215C62.5948 107.156 63.2623 109.308 64.6476 111.096C64.9347 111.466 65.2075 111.823 65.2538 111.89C65.3036 111.962 65.5323 111.878 65.8153 111.686C66.9577 110.906 68.2713 110.563 69.9942 110.626C69.1317 110.325 68.1468 110.067 67.5525 110.16C66.3667 110.345 64.869 109.975 63.7456 108.617C63.1841 107.938 62.8044 106.517 62.5732 105.215ZM68.0177 102.182C67.77 106.444 70.8371 109.099 72.6904 110.048C72.7845 109.796 72.8473 109.58 72.8138 109.561C69.9922 107.948 68.246 105.227 68.0177 102.182ZM62.5895 98.855C63.2231 98.1827 63.198 98.1496 62.7167 97.5163C61.6089 96.0585 60.6236 93.2724 60.6143 91.5718C60.6141 91.5458 60.5546 91.5259 60.4519 91.5118C59.9856 93.4905 61.3195 97.0603 62.5895 98.855ZM52.6916 97.3911C52.5012 99.1836 53.0065 101.107 54.332 102.74C54.3576 102.771 54.3823 102.802 54.4061 102.831C54.7822 103.296 54.9499 103.503 55.1406 103.526C55.2937 103.544 55.4614 103.443 55.7644 103.262C55.788 103.248 55.8127 103.233 55.838 103.218C56.6574 102.728 57.5477 102.463 58.531 102.419C57.9787 102.273 57.2158 102.164 56.6939 102.385C55.8202 102.755 55.3834 102.632 54.3225 101.521C53.4433 100.601 52.8641 98.4515 52.6916 97.3911ZM63.3355 92.5125C63.4686 93.5364 63.8046 94.6296 64.3571 95.7368C64.4276 95.878 64.4911 96.0065 64.5488 96.1235C64.9016 96.8384 65.04 97.1189 65.2527 97.1939C65.3898 97.2424 65.5579 97.2051 65.8347 97.1441C65.9045 97.1284 65.9817 97.1115 66.067 97.0938C66.7336 96.9565 67.1014 96.942 67.5584 97.0352C67.6781 97.0595 67.7872 97.0824 67.8868 97.1031C67.8881 97.1033 67.8894 97.1035 67.8907 97.104C67.7925 96.8647 67.1664 96.6685 66.5286 96.4686C65.9186 96.2776 65.2979 96.083 65.1187 95.8443C64.3331 94.7974 63.7114 93.7427 63.3355 92.5125ZM69.1109 87.351C69.1982 87.6269 69.2432 87.9817 69.2612 88.4249C69.3622 90.8911 69.8119 92.4724 70.8801 94.119C71.2551 94.6973 71.2708 94.7215 70.7496 95.1581C68.921 92.5899 68.7517 89.5746 69.1109 87.351ZM51.4672 109.707C51.383 109.687 51.3112 109.82 51.2645 110.16C50.8901 112.875 49.172 112.745 46.8961 110.838C44.6635 108.968 43.9563 106.214 43.6872 104.446C43.5533 107.052 44.6998 109.876 47.2936 111.618C48.4829 112.416 51.8771 113.825 51.8771 113.519C51.8771 113.501 51.7647 113.051 51.6274 112.52C51.3993 111.639 51.3531 110.669 51.4672 109.707ZM52.9618 105.811C53.0094 105.748 53.0578 105.685 53.1072 105.625C53.4973 105.146 53.4973 105.146 52.5184 104.124C51.0679 102.609 50.2825 100.98 50.0663 99.0377C50.0615 98.9954 50.0573 98.9553 50.0531 98.9169C50.1342 101.874 51.6353 104.495 52.9618 105.811Z"
        fill="#22110C" />
    <path
        d="M124.093 164.15C124.093 162.651 125.35 161.435 126.901 161.435C128.452 161.435 129.709 162.651 129.709 164.15C129.709 165.65 128.452 166.865 126.901 166.865C125.35 166.865 124.093 165.65 124.093 164.15Z"
        fill="#F1F1F1" />
    <path
        d="M26.1157 164.15C26.1157 162.651 27.3729 161.435 28.9239 161.435C30.4749 161.435 31.7321 162.651 31.7321 164.15C31.7321 165.65 30.4749 166.865 28.9239 166.865C27.3729 166.865 26.1157 165.65 26.1157 164.15Z"
        fill="#F1F1F1" />
    <path
        d="M33.6043 166.618C33.6043 166.21 33.2411 165.877 32.7929 165.877C32.3449 165.877 31.9817 166.21 31.9817 166.618C31.9817 167.028 32.3449 167.358 32.7929 167.358C33.2411 167.358 33.6043 167.028 33.6043 166.618Z"
        fill="#F1F1F1" />
    <path
        d="M814.429 166.364L817.521 181.303C815.374 182.764 812.282 184.093 808.248 185.297C804.298 186.412 800.349 186.969 796.398 186.969C788.758 186.969 782.405 184.567 777.338 179.759C772.36 174.95 769.87 167.737 769.87 158.123V131.979H757.249V114.594H769.87V99.2681L788.286 95.2759V114.594H814.557V131.979H788.286V157.091C788.286 165.591 792.064 169.842 799.618 169.842C802.967 169.842 807.904 168.683 814.429 166.364Z"
        fill="white" />
    <path
        d="M718.25 186.969C708.722 186.969 700.779 184.781 694.426 180.402C688.073 175.937 684.252 169.842 682.965 162.116H701.637C703.184 168.469 708.894 171.645 718.766 171.645C726.75 171.645 730.743 169.714 730.743 165.849C730.743 165.335 730.657 164.862 730.485 164.434C730.399 164.004 730.186 163.616 729.842 163.275C729.584 162.931 729.284 162.629 728.941 162.371C728.597 162.03 728.081 161.728 727.394 161.47C726.794 161.214 726.234 160.998 725.721 160.827C725.205 160.655 724.432 160.441 723.403 160.183C722.457 159.925 721.6 159.712 720.827 159.54C720.139 159.368 719.152 159.152 717.865 158.896C716.576 158.638 715.461 158.38 714.515 158.123C703.955 155.633 696.573 152.928 692.366 150.009C688.245 147.004 686.184 142.54 686.184 136.615C686.184 129.232 688.974 123.48 694.554 119.358C700.222 115.152 707.776 113.048 717.221 113.048C726.664 113.048 734.005 115.109 739.243 119.23C744.479 123.265 747.743 128.76 749.03 135.714H730.358C728.811 130.906 724.218 128.502 716.576 128.502C708.677 128.502 704.729 130.477 704.729 134.426C704.729 135.971 705.544 137.088 707.175 137.775C708.808 138.461 712.499 139.449 718.25 140.737C724.004 142.024 728.553 143.226 731.902 144.342C735.25 145.373 738.428 146.746 741.431 148.464C744.437 150.181 746.583 152.241 747.87 154.645C749.16 157.049 749.803 159.969 749.803 163.403C749.803 171.043 746.841 176.883 740.918 180.918C734.992 184.953 727.438 186.969 718.25 186.969Z"
        fill="white" />
    <path
        d="M636.819 113.048C648.411 113.048 657.554 117.04 664.251 125.025C671.034 133.009 673.952 142.926 673.008 154.774H618.661C619.262 160.269 621.237 164.476 624.584 167.396C627.934 170.314 632.097 171.775 637.077 171.775C640.682 171.775 643.902 171.001 646.736 169.456C649.57 167.823 651.586 165.635 652.789 162.887H671.849C669.359 170.873 664.98 176.883 658.713 180.918C652.446 184.953 645.277 186.969 637.205 186.969C626.217 186.969 617.244 183.494 610.291 176.539C603.336 169.584 599.859 160.785 599.859 150.138C599.859 139.492 603.336 130.648 610.291 123.608C617.244 116.568 626.087 113.048 636.819 113.048ZM636.691 128.244C632.313 128.244 628.663 129.446 625.743 131.851C622.826 134.169 620.765 137.302 619.562 141.252H653.433C652.402 137.302 650.427 134.169 647.509 131.851C644.589 129.446 640.984 128.244 636.691 128.244Z"
        fill="white" />
    <path
        d="M580.686 100.813C572.359 100.813 568.196 105.321 568.196 114.336V114.593H591.762V131.979H568.196V185.424H549.78V131.979H537.159V114.593H549.78V113.434C549.78 103.99 552.569 96.8639 558.149 92.0561C563.731 87.1623 570.556 84.7153 578.626 84.7153C585.065 84.7153 590.647 85.7885 595.368 87.9349L592.02 102.874L589.574 102.23C586.31 101.286 583.349 100.813 580.686 100.813Z"
        fill="white" />
    <path
        d="M517.738 81.8821C521.087 81.8821 523.833 82.9123 525.979 84.973C528.126 86.9475 529.199 89.5232 529.199 92.6998C529.199 95.8767 528.126 98.4951 525.979 100.556C523.833 102.616 521.087 103.647 517.738 103.647C514.476 103.647 511.728 102.616 509.496 100.556C507.349 98.4951 506.276 95.8767 506.276 92.6998C506.276 89.6091 507.349 87.0334 509.496 84.973C511.728 82.9123 514.476 81.8821 517.738 81.8821ZM508.464 185.424V114.593H526.881V185.424H508.464Z"
        fill="white" />
    <path
        d="M468.787 113.048C476.771 113.048 483.038 115.538 487.589 120.518C492.139 125.497 494.414 132.323 494.414 140.994V185.424H475.997V144.986C475.997 140.179 474.968 136.573 472.908 134.169C470.847 131.765 467.456 130.563 462.733 130.563C452.087 130.563 446.763 136.444 446.763 148.206V185.424H428.347V114.593H446.763V124.252C452.087 116.783 459.428 113.048 468.787 113.048Z"
        fill="white" />
    <path
        d="M395.256 114.593H413.672L413.544 185.424H395.128V175.896C389.718 183.278 382.336 186.969 372.976 186.969C363.617 186.969 355.891 183.536 349.796 176.667C343.7 169.714 340.652 160.827 340.652 150.009C340.652 139.191 343.7 130.348 349.796 123.48C355.977 116.525 363.661 113.048 372.849 113.048C382.291 113.048 389.762 116.869 395.256 124.51V114.593ZM377.097 169.456C382.336 169.456 386.67 167.654 390.106 164.046C393.539 160.441 395.256 155.761 395.256 150.009C395.256 144.257 393.539 139.578 390.106 135.971C386.67 132.366 382.336 130.563 377.097 130.563C371.861 130.563 367.569 132.366 364.219 135.971C360.871 139.578 359.197 144.257 359.197 150.009C359.197 155.761 360.871 160.441 364.219 164.046C367.654 167.654 371.947 169.456 377.097 169.456Z"
        fill="white" />
    <path
        d="M303.813 113.048C311.37 113.048 317.337 115.495 321.716 120.389C326.095 125.282 328.283 132.022 328.283 140.608V185.424H309.867V144.6C309.867 139.964 308.879 136.487 306.905 134.169C305.016 131.765 301.925 130.563 297.632 130.563C292.825 130.563 289.176 132.108 286.686 135.199C284.196 138.204 282.951 142.54 282.951 148.206V185.424H264.534V144.6C264.534 139.964 263.547 136.487 261.573 134.169C259.684 131.765 256.592 130.563 252.299 130.563C247.493 130.563 243.8 132.108 241.226 135.199C238.736 138.204 237.49 142.54 237.49 148.206L237.618 185.424H219.074V114.593H237.618V123.995C242.771 116.697 249.767 113.048 258.611 113.048C268.913 113.048 276.082 117.513 280.119 126.442C285.613 117.513 293.511 113.048 303.813 113.048Z"
        fill="white" />
</svg>
