<svg width="108" height="108" viewBox="0 0 108 108" fill="none" xmlns="http://www.w3.org/2000/svg">
<path d="M60.48 90H100.44C101.715 90.0002 102.936 89.552 104.04 88.92C105.144 88.288 106.283 87.4947 106.92 86.4C107.557 85.3053 108.001 84.0635 108 82.7996C107.999 81.5358 107.558 80.2944 106.92 79.2003L79.92 32.76C79.2827 31.6656 78.5041 30.8719 77.4 30.24C76.2959 29.6081 74.7149 29.16 73.44 29.16C72.165 29.16 70.9441 29.6081 69.84 30.24C68.7359 30.8719 67.9573 31.6656 67.32 32.76L60.48 44.64L46.8 21.5992C46.1622 20.5048 45.3844 19.3518 44.28 18.72C43.1756 18.0882 41.9551 18 40.68 18C39.4048 18 38.1844 18.0882 37.08 18.72C35.9756 19.3518 34.8378 20.5048 34.2 21.5992L0.72 79.2003C0.0817124 80.2944 0.000555522 81.5358 6.87573e-07 82.7996C-0.000554147 84.0635 0.0826734 85.3052 0.72 86.3998C1.35733 87.4945 2.49568 88.288 3.6 88.92C4.70432 89.552 5.9248 90.0002 7.2 90H32.4C42.3852 90 49.6531 85.5208 54.72 77.04L66.96 55.8L73.44 44.64L93.24 78.48H66.96L60.48 90ZM32.04 78.48H14.4L40.68 33.12L54 55.8L45.1769 71.1809C41.812 76.6836 37.9756 78.48 32.04 78.48Z" fill="#00DC82"/>
</svg>
