<svg width="64" height="64" viewBox="0 0 64 64" fill="none" xmlns="http://www.w3.org/2000/svg">
<path d="M18.0361 26.7746C18.0361 27.5622 18.1212 28.2007 18.2702 28.669C18.4405 29.1373 18.6534 29.6482 18.9514 30.2016C19.0578 30.3719 19.1004 30.5422 19.1004 30.6912C19.1004 30.904 18.9726 31.1169 18.6959 31.3297L17.3549 32.2237C17.1634 32.3514 16.9718 32.4153 16.8015 32.4153C16.5886 32.4153 16.3758 32.3089 16.1629 32.1173C15.8649 31.798 15.6095 31.4574 15.3966 31.1169C15.1838 30.755 14.9709 30.3506 14.7368 29.861C13.0765 31.8193 10.9905 32.7984 8.47877 32.7984C6.69077 32.7984 5.26463 32.2876 4.22163 31.2659C3.17863 30.2442 2.64648 28.8819 2.64648 27.179C2.64648 25.3697 3.28506 23.901 4.58349 22.7941C5.88191 21.6873 7.60606 21.1339 9.79849 21.1339C10.5222 21.1339 11.2672 21.1977 12.0548 21.3041C12.8423 21.4106 13.6512 21.5809 14.5026 21.7724V20.2186C14.5026 18.6009 14.1621 17.4727 13.5022 16.8129C12.8211 16.153 11.6716 15.8337 10.0326 15.8337C9.28763 15.8337 8.52134 15.9189 7.73377 16.1104C6.9462 16.302 6.17992 16.5361 5.43491 16.8341C5.09434 16.9831 4.83891 17.0683 4.68991 17.1109C4.54091 17.1534 4.43449 17.1747 4.34934 17.1747C4.05134 17.1747 3.90234 16.9619 3.90234 16.5149V15.4719C3.90234 15.1313 3.94491 14.8759 4.05134 14.7269C4.15777 14.5779 4.34934 14.4289 4.64734 14.2799C5.39234 13.8967 6.28634 13.5774 7.32934 13.322C8.37234 13.0453 9.4792 12.9176 10.6499 12.9176C13.1829 12.9176 15.0348 13.4923 16.2268 14.6417C17.3975 15.7911 17.9935 17.5366 17.9935 19.878V26.7746H18.0361ZM9.39406 30.01C10.0965 30.01 10.8202 29.8823 11.5865 29.6269C12.3528 29.3714 13.0339 28.9032 13.6086 28.2646C13.9492 27.8602 14.2046 27.4132 14.3323 26.9023C14.4601 26.3914 14.5452 25.7742 14.5452 25.0504V24.1564C13.9279 24.0074 13.2681 23.8797 12.5869 23.7946C11.9058 23.7094 11.2459 23.6669 10.5861 23.6669C9.15992 23.6669 8.11692 23.9436 7.41449 24.5183C6.71206 25.093 6.37149 25.9019 6.37149 26.9662C6.37149 27.9666 6.62692 28.7116 7.15906 29.2224C7.66992 29.7546 8.41492 30.01 9.39406 30.01ZM26.4865 32.3089C26.1034 32.3089 25.8479 32.245 25.6776 32.096C25.5074 31.9683 25.3584 31.6703 25.2306 31.2659L20.2285 14.812C20.1008 14.3863 20.0369 14.1096 20.0369 13.9606C20.0369 13.62 20.2072 13.4284 20.5478 13.4284H22.6338C23.0382 13.4284 23.3149 13.4923 23.4639 13.6413C23.6342 13.769 23.7619 14.067 23.8896 14.4714L27.4656 28.5626L30.7862 14.4714C30.8926 14.0457 31.0204 13.769 31.1906 13.6413C31.3609 13.5136 31.6589 13.4284 32.0421 13.4284H33.7449C34.1494 13.4284 34.4261 13.4923 34.5964 13.6413C34.7666 13.769 34.9156 14.067 35.0008 14.4714L38.3639 28.7329L42.0464 14.4714C42.1741 14.0457 42.3231 13.769 42.4721 13.6413C42.6424 13.5136 42.9191 13.4284 43.3022 13.4284H45.2818C45.6224 13.4284 45.8139 13.5987 45.8139 13.9606C45.8139 14.067 45.7927 14.1734 45.7714 14.3011C45.7501 14.4289 45.7075 14.5991 45.6224 14.8333L40.4925 31.2872C40.3648 31.7129 40.2158 31.9896 40.0455 32.1173C39.8752 32.245 39.5985 32.3302 39.2367 32.3302H37.4061C37.0017 32.3302 36.7249 32.2663 36.5547 32.1173C36.3844 31.9683 36.2354 31.6916 36.1502 31.2659L32.8509 17.5366L29.5729 31.2446C29.4665 31.6703 29.3388 31.947 29.1685 32.096C28.9982 32.245 28.7002 32.3089 28.3171 32.3089H26.4865ZM53.8387 32.8836C52.7318 32.8836 51.6249 32.7559 50.5607 32.5004C49.4964 32.245 48.6662 31.9683 48.1128 31.649C47.7722 31.4574 47.5381 31.2446 47.4529 31.053C47.3678 30.8614 47.3252 30.6486 47.3252 30.457V29.3714C47.3252 28.9244 47.4955 28.7116 47.8148 28.7116C47.9425 28.7116 48.0702 28.7329 48.1979 28.7754C48.3257 28.818 48.5172 28.9032 48.7301 28.9883C49.4538 29.3076 50.2414 29.563 51.0715 29.7333C51.9229 29.9036 52.7531 29.9887 53.6045 29.9887C54.9455 29.9887 55.9885 29.7546 56.7122 29.2863C57.4359 28.818 57.8191 28.1369 57.8191 27.2642C57.8191 26.6682 57.6275 26.1786 57.2444 25.7742C56.8612 25.3697 56.1375 25.0079 55.0945 24.6673L52.0081 23.7094C50.4542 23.2199 49.3048 22.4961 48.6024 21.5383C47.8999 20.6017 47.5381 19.5587 47.5381 18.4519C47.5381 17.5579 47.7297 16.7703 48.1128 16.0891C48.4959 15.408 49.0068 14.812 49.6454 14.3437C50.2839 13.8541 51.0077 13.4923 51.8591 13.2369C52.7105 12.9814 53.6045 12.875 54.5411 12.875C55.0094 12.875 55.4989 12.8963 55.9672 12.9601C56.4568 13.024 56.9038 13.1091 57.3508 13.1943C57.7765 13.3007 58.1809 13.4071 58.5641 13.5349C58.9472 13.6626 59.2452 13.7903 59.4581 13.918C59.7561 14.0883 59.969 14.2586 60.0967 14.4501C60.2244 14.6204 60.2882 14.8546 60.2882 15.1526V16.153C60.2882 16.6 60.118 16.8341 59.7987 16.8341C59.6284 16.8341 59.3517 16.749 58.9898 16.5787C57.7765 16.0253 56.4142 15.7486 54.9029 15.7486C53.6897 15.7486 52.7318 15.9401 52.0719 16.3446C51.4121 16.749 51.0715 17.3663 51.0715 18.239C51.0715 18.835 51.2844 19.3459 51.7101 19.7503C52.1358 20.1547 52.9234 20.5591 54.0515 20.921L57.0741 21.8789C58.6067 22.3684 59.7135 23.0496 60.3734 23.9223C61.0332 24.795 61.3525 25.7954 61.3525 26.9023C61.3525 27.8176 61.161 28.6477 60.7991 29.3714C60.416 30.0952 59.9051 30.7337 59.2452 31.2446C58.5854 31.7767 57.7978 32.1599 56.8825 32.4366C55.9247 32.7346 54.9242 32.8836 53.8387 32.8836Z" fill="#252F3E"/>
<path d="M57.8614 43.2284C50.8584 48.4009 40.6838 51.1467 31.9354 51.1467C19.6748 51.1467 8.62753 46.6128 0.28353 39.0777C-0.376328 38.4817 0.219672 37.6728 1.00724 38.1411C10.0324 43.3774 21.1648 46.549 32.6804 46.549C40.4497 46.549 48.9853 44.9313 56.8397 41.6107C58.0104 41.0786 59.0109 42.377 57.8614 43.2284ZM60.7776 39.9078C59.8836 38.7584 54.8601 39.3544 52.5826 39.6311C51.9014 39.7163 51.795 39.1203 52.4123 38.6733C56.414 35.8636 62.9913 36.6724 63.7576 37.609C64.5239 38.5668 63.5447 45.1441 59.7984 48.2944C59.2237 48.784 58.6703 48.5286 58.9257 47.89C59.7771 45.7827 61.6716 41.036 60.7776 39.9078Z" fill="#FF9900"/>
</svg>
