<svg width="64" height="64" viewBox="0 0 64 64" fill="none" xmlns="http://www.w3.org/2000/svg">
<path d="M32.0004 33.8382V40.0238C42.4847 40.0238 50.6479 29.8952 47.2183 18.9088C45.7195 14.1077 41.9046 10.2927 37.1035 8.794C26.1171 5.36435 15.9883 13.5277 15.9883 24.0121H22.1881C22.189 24.0121 22.1897 24.0104 22.1897 24.0104C22.1906 17.4308 28.7022 12.3439 35.6198 14.854C38.1826 15.784 40.2268 17.8279 41.1574 20.3905C43.6679 27.304 38.5886 33.813 32.0146 33.8224V27.6567C32.0146 27.6567 32.014 27.6564 32.0135 27.6564H25.8327C25.8322 27.6564 25.8316 27.6573 25.8316 27.6573V33.8382H32.0004ZM25.8306 38.5888H21.0816L21.0805 38.5877V33.8382H25.8316V38.5877C25.8316 38.5877 25.8311 38.5888 25.8306 38.5888ZM21.0837 33.8382H17.1026C17.101 33.8382 17.0997 33.8371 17.0997 33.8371V29.8578C17.0997 29.8578 17.101 29.8549 17.1026 29.8549H21.0808C21.0825 29.8549 21.0837 29.8562 21.0837 29.8562V33.8382Z" fill="#0080FF"/>
<path d="M5.53251 46.2986C4.72648 45.7394 3.72344 45.4559 2.55136 45.4559H0V53.5505H2.55136C3.72054 53.5505 4.72394 53.2513 5.53342 52.6617C5.97393 52.349 6.32001 51.9121 6.56224 51.3636C6.80319 50.818 6.9254 50.1743 6.9254 49.4507C6.9254 48.7354 6.80319 48.1001 6.56206 47.5621C6.32002 47.0215 5.97356 46.5964 5.53251 46.2986ZM1.49021 46.8241H2.29097C3.18198 46.8241 3.91537 46.9994 4.47155 47.3456C5.08891 47.7179 5.40214 48.426 5.40214 49.4507C5.40214 50.506 5.08819 51.2461 4.46937 51.6512H4.46882C3.93625 52.0035 3.20722 52.1822 2.30205 52.1822H1.49021V46.8241ZM7.97038 53.5505H9.40503V47.8493H7.97038V53.5505ZM8.70141 45.3563C8.45628 45.3563 8.24493 45.4432 8.07479 45.6136C7.90265 45.7775 7.81531 45.9854 7.81531 46.2315C7.81531 46.4766 7.90211 46.6878 8.0737 46.8592C8.24493 47.0308 8.45628 47.1178 8.70141 47.1178C8.94655 47.1178 9.15772 47.0308 9.32931 46.8592C9.50109 46.6876 9.58788 46.4764 9.58788 46.2315C9.58788 45.9858 9.50054 45.7779 9.32931 45.6146C9.15772 45.4432 8.94655 45.3563 8.70141 45.3563ZM14.6149 48.3256C14.1824 47.9408 13.6994 47.7164 13.177 47.7164C12.3851 47.7164 11.7269 47.9904 11.2208 48.5301C10.7084 49.0655 10.4484 49.7546 10.4484 50.5781C10.4484 51.3828 10.7042 52.0696 11.2099 52.6203C11.7196 53.1531 12.3815 53.4231 13.177 53.4231C13.73 53.4231 14.2054 53.2691 14.5929 52.9649V53.0962C14.5929 53.5692 14.4662 53.9373 14.2165 54.19C13.967 54.4424 13.6209 54.5703 13.1882 54.5703C12.526 54.5703 12.1109 54.3101 11.6056 53.6272L10.6287 54.5657L10.655 54.6028C10.866 54.8989 11.1892 55.1887 11.6157 55.4642C12.0425 55.7384 12.5788 55.8778 13.2102 55.8778C14.062 55.8778 14.7509 55.6153 15.2582 55.0976C15.7684 54.5772 16.0272 53.8803 16.0272 53.027V47.8493H14.6149V48.3256ZM14.2386 51.6928C13.9879 51.9775 13.6659 52.1155 13.2545 52.1155C12.8432 52.1155 12.5231 51.9775 12.276 51.6932C12.0301 51.4101 11.9052 51.0349 11.9052 50.5781C11.9052 50.1138 12.0301 49.7339 12.2761 49.4489C12.5198 49.1669 12.849 49.0238 13.2545 49.0238C13.6656 49.0238 13.9877 49.1629 14.2385 49.4496C14.4883 49.7345 14.6149 50.1142 14.6149 50.5781C14.6149 51.0348 14.4883 51.4099 14.2386 51.6928ZM17.255 53.5505H18.6897V47.8493H17.255V53.5505ZM17.9862 45.3563C17.7409 45.3563 17.5296 45.4432 17.3594 45.6136C17.1873 45.7775 17.1 45.9854 17.1 46.2315C17.1 46.4766 17.1867 46.6878 17.3583 46.8592C17.5296 47.0308 17.7409 47.1178 17.9862 47.1178C18.2312 47.1178 18.4424 47.0308 18.6141 46.8592C18.7857 46.6876 18.8725 46.4764 18.8725 46.2315C18.8725 45.9858 18.7852 45.7779 18.6141 45.6146C18.4424 45.4432 18.2312 45.3563 17.9862 45.3563ZM21.8341 46.309H20.4217V47.8493H19.6016V49.1569H20.4217V51.525C20.4217 52.266 20.5697 52.7962 20.8619 53.1008C21.1548 53.4067 21.6748 53.5618 22.4077 53.5618C22.6408 53.5618 22.8754 53.554 23.1048 53.5391L23.1694 53.5347V52.2283L22.6775 52.2541C22.3359 52.2541 22.1079 52.194 21.9995 52.0759C21.8896 51.9559 21.8341 51.7021 21.8341 51.3217V49.1569H23.1694V47.8493H21.8341V46.309ZM28.0931 48.2759H28.0929C27.6582 47.9047 27.0572 47.7164 26.3069 47.7164C25.8295 47.7164 25.3832 47.8212 24.9794 48.026C24.6059 48.2154 24.2391 48.5292 24.0059 48.9397L24.0205 48.9571L24.9391 49.8365C25.3175 49.2333 25.7382 49.0238 26.296 49.0238C26.5958 49.0238 26.8445 49.1042 27.0357 49.2627C27.2259 49.4202 27.3185 49.6204 27.3185 49.8743V50.1512C26.9627 50.043 26.6079 49.9881 26.2628 49.9881C25.5488 49.9881 24.9679 50.1561 24.5363 50.4873C24.0993 50.8227 23.8777 51.3024 23.8777 51.9134C23.8777 52.4491 24.0646 52.8841 24.4343 53.2077C24.8072 53.5197 25.2732 53.6782 25.8195 53.6782C26.3657 53.6782 26.8767 53.4579 27.3406 53.0811V53.5505H28.7531V49.8855C28.7531 49.1916 28.531 48.6501 28.0931 48.2759ZM25.5459 51.3719C25.7086 51.2585 25.9385 51.2013 26.2294 51.2013C26.5747 51.2013 26.941 51.2706 27.3185 51.4075V51.9668C27.0067 52.2566 26.5901 52.4037 26.0801 52.4037C25.8317 52.4037 25.6387 52.3485 25.5059 52.2393C25.3758 52.1326 25.3124 51.9968 25.3124 51.8246C25.3124 51.6291 25.3888 51.4809 25.5459 51.3719ZM29.8961 53.5505H31.3308V45.4559H29.8961V53.5505ZM36.5359 53.6725C34.235 53.6725 32.3631 51.8007 32.3631 49.4995C32.3631 47.1986 34.235 45.3267 36.5359 45.3267C38.8369 45.3267 40.7088 47.1986 40.7088 49.4995C40.7088 51.8007 38.8369 53.6725 36.5359 53.6725ZM36.5359 46.7973C35.0459 46.7973 33.8337 48.0095 33.8337 49.4995C33.8337 50.9897 35.0459 52.2018 36.5359 52.2018C38.026 52.2018 39.2382 50.9897 39.2382 49.4995C39.2382 48.0095 38.026 46.7973 36.5359 46.7973ZM45.8242 51.5119C45.5676 51.7996 45.3051 52.0489 45.1028 52.1785V52.1787C44.9045 52.306 44.6541 52.3706 44.3589 52.3706C43.9361 52.3706 43.5962 52.2166 43.3193 51.8996C43.044 51.5842 42.9044 51.1789 42.9044 50.6943C42.9044 50.2098 43.0422 49.8051 43.3141 49.4921C43.5873 49.1768 43.9254 49.0238 44.3478 49.0238C44.8099 49.0238 45.2971 49.311 45.7145 49.8047L46.6627 48.8954C46.0444 48.0908 45.2559 47.7164 44.3147 47.7164C43.5269 47.7164 42.8441 48.0033 42.2854 48.5689C41.7294 49.1304 41.4476 49.8456 41.4476 50.6943C41.4476 51.5432 41.7292 52.26 42.2845 52.8253C42.8403 53.3911 43.5234 53.6782 44.3147 53.6782C45.3534 53.6782 46.1917 53.2297 46.757 52.4082L45.8242 51.5119ZM51.7122 48.6459C51.5089 48.3623 51.2318 48.1342 50.8886 47.9674C50.5463 47.8008 50.1474 47.7164 49.7031 47.7164C48.9023 47.7164 48.247 48.0118 47.7549 48.5951C47.2774 49.1738 47.0355 49.893 47.0355 50.7332C47.0355 51.5971 47.301 52.3123 47.8248 52.8587C48.3456 53.4024 49.0428 53.6782 49.897 53.6782C50.8644 53.6782 51.6583 53.2869 52.2564 52.5152L52.2887 52.4736L51.3529 51.5742C51.2661 51.6788 51.1432 51.7976 51.031 51.9032C50.8893 52.0369 50.7562 52.1404 50.6139 52.2112C50.3994 52.318 50.159 52.3706 49.8899 52.3706C49.4924 52.3706 49.1632 52.2537 48.9116 52.0231C48.6762 51.8074 48.5386 51.5165 48.5021 51.1571H52.3029L52.3158 50.6335C52.3158 50.2629 52.2653 49.9059 52.1658 49.5721C52.0663 49.2379 51.9136 48.9261 51.7122 48.6459ZM48.5767 49.9881C48.6457 49.7154 48.7714 49.4883 48.9513 49.3119C49.1458 49.1206 49.3987 49.0238 49.7034 49.0238C50.0512 49.0238 50.3204 49.1226 50.5035 49.3183C50.6732 49.4992 50.7689 49.7243 50.7889 49.9881H48.5767ZM57.2217 48.2759H57.2215C56.7868 47.9047 56.1858 47.7164 55.4355 47.7164C54.9581 47.7164 54.5118 47.8212 54.108 48.026C53.7343 48.2154 53.3675 48.5292 53.1345 48.9397L53.1491 48.9571L54.0677 49.8365C54.4461 49.2333 54.8668 49.0238 55.4246 49.0238C55.7244 49.0238 55.9732 49.1042 56.1644 49.2627C56.3545 49.4202 56.4471 49.6204 56.4471 49.8743V50.1512C56.0912 50.043 55.7366 49.9881 55.3912 49.9881C54.6774 49.9881 54.0964 50.1561 53.6649 50.4873C53.2279 50.8227 53.0063 51.3024 53.0063 51.9134C53.0063 52.4491 53.1932 52.8841 53.5629 53.2077C53.9357 53.5197 54.4018 53.6782 54.9481 53.6782C55.4943 53.6782 56.0053 53.4579 56.469 53.0811V53.5505H57.8817V49.8855C57.8817 49.1916 57.6596 48.6501 57.2217 48.2759ZM54.6745 51.3719C54.8372 51.2585 55.0671 51.2013 55.358 51.2013C55.7033 51.2013 56.0696 51.2706 56.4471 51.4075V51.9668C56.1351 52.2566 55.7188 52.4037 55.2085 52.4037C54.9603 52.4037 54.7673 52.3485 54.6346 52.2393C54.5044 52.1326 54.441 51.9968 54.441 51.8246C54.441 51.6291 54.5174 51.4809 54.6745 51.3719ZM63.4006 48.3877C63.001 47.9425 62.4395 47.7164 61.7314 47.7164C61.1623 47.7164 60.7 47.8798 60.3543 48.2023V47.8493H58.9474V53.5505H60.3821V50.4063C60.3821 49.9743 60.4848 49.6313 60.6875 49.3866C60.8897 49.1425 61.1677 49.0238 61.5374 49.0238C61.8625 49.0238 62.1087 49.1298 62.2904 49.3479C62.4729 49.5671 62.5654 49.8688 62.5654 50.2458V53.5505H64V50.2458C64 49.4561 63.7984 48.8311 63.4006 48.3877Z" fill="#0080FF"/>
</svg>
