<svg width="64" height="64" viewBox="0 0 64 64" fill="none" xmlns="http://www.w3.org/2000/svg">
<path fill-rule="evenodd" clip-rule="evenodd" d="M44.487 10.0225H51.8125C58.3282 10.0225 63.6181 15.2401 63.6181 21.6667V47.0733C63.6181 53.5 58.3282 58.7176 51.8125 58.7176H51.2354C47.8816 58.2004 46.427 57.2083 45.3035 56.37L35.9898 48.8167C35.756 48.6313 35.4651 48.5303 35.1652 48.5303C34.8653 48.5303 34.5744 48.6313 34.3406 48.8167L31.3152 51.2711L22.7932 44.3596C22.56 44.1737 22.2692 44.0723 21.9693 44.0723C21.6694 44.0723 21.3786 44.1737 21.1454 44.3596L9.30574 54.6319C6.92363 56.5434 5.34737 56.1905 4.32551 56.0797C1.68526 53.9426 0 50.7005 0 47.0733V21.6667C0 15.2401 5.28986 10.0225 11.8062 10.0225H19.1157L19.1023 10.0515L18.8562 10.7599L18.7793 11.0027L18.4476 12.4545L18.4022 12.7084L18.2564 14.1622L18.237 14.5613L18.2336 14.7011L18.2477 15.3674L18.2811 15.7585L18.3634 16.3693L18.4677 16.9201L18.5921 17.4267L18.7533 17.9755L19.1712 19.1371L19.3097 19.4854L20.0379 21.0031L20.2947 21.4695L21.1374 22.8956L21.4597 23.4101L22.6354 25.1172L22.8046 25.3434L24.3347 27.3071L24.8289 27.9113L26.575 29.9252L26.9341 30.313L28.374 31.8407L28.9438 32.4231L29.886 33.3466L29.6974 33.5023L29.5791 33.6072C29.2594 33.9013 28.9558 34.214 28.6716 34.5425C28.5345 34.7015 28.4041 34.8657 28.281 35.0346C28.0926 35.293 27.9238 35.5649 27.7761 35.8479C27.701 35.995 27.6336 36.1458 27.5741 36.2997C27.421 36.6928 27.3288 37.1064 27.3006 37.5266L27.2953 37.8901C27.3086 38.4019 27.4143 38.9072 27.6076 39.3828C27.8029 39.8643 28.0884 40.3056 28.4489 40.6842C28.711 40.9593 29.0093 41.1994 29.3363 41.3966C29.6149 41.5649 29.9111 41.7029 30.2197 41.8082C30.8901 42.0325 31.6013 42.1123 32.3056 42.0424H32.3089C32.91 41.9848 33.4941 41.8137 34.0296 41.5384C34.2604 41.4177 34.4804 41.2779 34.6864 41.1189C35.2768 40.6661 35.7341 40.0661 36.0112 39.3808C36.2285 38.8465 36.3348 38.2759 36.3255 37.7014L36.3081 37.4006C36.2687 37.0039 36.1728 36.6146 36.0232 36.2443C35.9583 36.0831 35.8846 35.9254 35.8025 35.772C35.6499 35.4895 35.4762 35.2185 35.2829 34.9614C35.1947 34.8435 35.1033 34.728 35.0087 34.6151C34.6944 34.2447 34.356 33.8951 33.9955 33.5682L33.7401 33.3539L34.1721 32.9337L36.0272 31.0228L36.6686 30.3282L37.6657 29.2213L38.3144 28.4733L39.2393 27.3619L39.8659 26.5855L40.7854 25.3725L41.2495 24.7452L41.9083 23.7735L42.4566 22.9464L43.4905 21.1707L44.0817 20.0058L44.0984 19.9702L44.5512 18.8897C44.5572 18.8758 44.5623 18.8614 44.5666 18.8469L45.0541 17.3469L45.1049 17.1285L45.3169 15.9346L45.3577 15.6114L45.3704 15.4135L45.3851 14.6662L45.3811 14.527L45.3423 13.8575L45.2942 13.3377L45.0541 11.8391C45.0504 11.8191 45.0457 11.7992 45.04 11.7797L44.7317 10.6715L44.6254 10.3635L44.487 10.0225ZM47.9692 41.7053C47.2315 41.7187 46.5278 42.0137 46.0061 42.5282C45.4844 43.0428 45.1853 43.7369 45.1718 44.4645C45.1939 45.9691 46.4431 47.2006 47.9692 47.2224C49.4946 47.2006 50.7439 45.9691 50.7673 44.4645C50.7535 43.7368 50.4543 43.0428 49.9325 42.5282C49.4107 42.0136 48.7069 41.7187 47.9692 41.7053Z" fill="url(#paint0_radial_4536_19220)"/>
<path fill-rule="evenodd" clip-rule="evenodd" d="M42.4631 58.7176H28.0782C27.3412 58.7176 27.2382 58.0289 27.7124 57.6371C34.7336 51.8358 34.7169 51.8166 34.7169 51.8166C34.8559 51.7017 35.0314 51.6386 35.2128 51.6382C35.3941 51.6379 35.5699 51.7003 35.7093 51.8147C35.7093 51.8147 42.308 57.2064 42.8289 57.6371C43.3031 58.0289 43.2007 58.7176 42.4631 58.7176ZM31.8506 35.5781L31.9255 35.5992C31.9489 35.6111 31.9697 35.6276 31.9911 35.6421L32.0533 35.6962C32.2064 35.8354 32.3555 35.9818 32.4986 36.1315C32.5996 36.2377 32.6979 36.3472 32.7922 36.46C32.9126 36.6032 33.025 36.7529 33.1273 36.9086C33.1714 36.9772 33.2122 37.0471 33.251 37.1197C33.2844 37.1823 33.3145 37.247 33.3406 37.3129C33.3874 37.4277 33.4222 37.5484 33.4329 37.6711L33.4309 37.902C33.4154 38.1103 33.3499 38.3121 33.2398 38.4905C33.1297 38.669 32.9781 38.819 32.7976 38.9283C32.5635 39.0682 32.3 39.1539 32.0278 39.1783L31.7383 39.1869L31.4942 39.1658C31.3802 39.1492 31.2681 39.1223 31.1591 39.0853C31.0482 39.048 30.9417 38.9989 30.8415 38.9389L30.6509 38.801C30.4263 38.612 30.2733 38.3534 30.2169 38.0675C30.2073 38.0193 30.1997 37.9706 30.1941 37.9217L30.1874 37.7021C30.1911 37.6423 30.1998 37.583 30.2135 37.5247C30.2469 37.396 30.2951 37.2714 30.3553 37.1533C30.4335 37.0049 30.5225 36.8617 30.6221 36.7259C30.7873 36.5062 30.9659 36.2964 31.1571 36.0986C31.2808 35.9699 31.4066 35.8453 31.5383 35.7259L31.6326 35.6421C31.6975 35.5992 31.6981 35.5992 31.7724 35.5781H31.8506ZM31.3711 4.89131L31.4012 4.88867V30.6211L31.3363 30.5024C30.4777 28.9354 29.6783 27.3375 28.9395 25.7122C28.3405 24.3965 27.7979 23.0565 27.3131 21.6958C26.9259 20.6119 26.5989 19.508 26.3334 18.3891C26.1267 17.4999 25.9689 16.5982 25.904 15.6873C25.8787 15.2984 25.8712 14.9086 25.8813 14.5191C25.8873 14.1801 25.9014 13.8417 25.9234 13.5026C25.9575 12.9703 26.0124 12.4387 26.0913 11.9116C26.1542 11.4967 26.2317 11.0832 26.3274 10.6742C26.4036 10.3497 26.4919 10.0271 26.5929 9.70983C26.7387 9.25139 26.9125 8.80351 27.1158 8.36619C27.1901 8.20854 27.2696 8.05221 27.3539 7.89852C27.8575 6.97835 28.5409 6.13073 29.4357 5.56346C30.0174 5.1905 30.6809 4.96005 31.3711 4.89131ZM34.7544 4.95595L36.5092 5.45001C37.3257 5.74356 38.1029 6.13406 38.8237 6.61292C39.804 7.26525 40.6488 8.09632 41.3128 9.06142C41.7021 9.63524 42.0254 10.2501 42.2765 10.8945C42.6418 11.8473 42.8676 12.8465 42.9473 13.8621C42.9707 14.128 42.9841 14.3944 42.9894 14.6616C42.9954 14.9089 42.9941 15.1576 42.974 15.405C42.9239 15.9592 42.8182 16.5072 42.6584 17.0408C42.53 17.4774 42.3782 17.907 42.2036 18.3278C41.9869 18.8511 41.7459 19.3644 41.4814 19.866C40.8962 20.9807 40.2234 22.0467 39.5025 23.0777C38.6092 24.3446 37.657 25.5702 36.6489 26.7504C35.5539 28.0383 34.412 29.2866 33.2256 30.4931C34.0309 29.0041 34.7824 27.4873 35.4786 25.9457C35.8657 25.087 36.231 24.2189 36.574 23.3422C36.9518 22.3793 37.2922 21.4026 37.5946 20.4141C37.8207 19.6737 38.0166 18.9247 38.1817 18.1688C38.3215 17.5197 38.4319 16.8641 38.5001 16.2044C38.5569 15.6543 38.5783 15.1009 38.5643 14.5495C38.5589 14.2115 38.5462 13.8737 38.5261 13.5363C38.4439 12.1794 38.2346 10.8266 37.8333 9.52514C37.6816 9.0314 37.4969 8.54816 37.2803 8.07859C36.7666 6.97505 36.0497 5.9434 35.0794 5.19078L34.7544 4.95595Z" fill="black"/>
<defs>
<radialGradient id="paint0_radial_4536_19220" cx="0" cy="0" r="1" gradientUnits="userSpaceOnUse" gradientTransform="translate(31.8087 34.3697) scale(43.3986 45.8285)">
<stop stop-color="#BA7BF0"/>
<stop offset="0.43" stop-color="#996BEC"/>
<stop offset="1" stop-color="#5046E4"/>
</radialGradient>
</defs>
</svg>
