<svg width="64" height="64" viewBox="0 0 64 64" fill="none" xmlns="http://www.w3.org/2000/svg">
<path d="M55.09 0C58.239 0 60.7984 2.52709 60.8492 5.66473L60.85 5.76V58.24C60.85 61.389 58.3221 63.9484 55.1852 63.9992L55.09 64H9.01C5.86101 64 3.30164 61.4721 3.25077 58.3352L3.25 58.24V5.76C3.25 2.61022 5.77787 0.0516283 8.91476 0.000771545L9.01 0H55.09ZM55.09 3.2H9.01C7.62085 3.2 6.48596 4.31318 6.45084 5.69405L6.45 5.76V58.24C6.45 59.6292 7.56318 60.764 8.94405 60.7992L9.01 60.8H55.09C56.4799 60.8 57.6141 59.6868 57.6492 58.306L57.65 58.24V5.76C57.65 4.3488 56.502 3.2 55.09 3.2ZM17.65 41.6L24.85 48L17.65 54.4V41.6ZM24.05 9.6V27.7688C27.2452 26.7288 31.7116 25.6 36.05 25.6C40.006 25.6 42.374 27.1552 43.6636 28.46C46.3881 31.2162 46.453 34.7195 46.4493 35.1868L46.4492 35.2L46.45 54.4H40.05V35.288C40.0188 33.7944 39.2988 32 36.05 32C29.6079 32 22.3895 35.2077 22.1751 35.3036L22.1708 35.3056L17.65 37.3536V9.6H24.05ZM46.45 9.6C46.018 13.2352 44.5444 16.72 41.65 20H35.25C37.7652 16.7 39.3444 13.2272 40.05 9.6H46.45Z" fill="#760CBD"/>
</svg>
