<svg width="64" height="65" viewBox="0 0 64 65" fill="none" xmlns="http://www.w3.org/2000/svg">
<path fill-rule="evenodd" clip-rule="evenodd" d="M52.3994 13.1641L42.0293 32.9141L52.3994 52.6641L56.6474 50.2891V15.5391L52.3994 13.1641Z" fill="#E25444"/>
<path fill-rule="evenodd" clip-rule="evenodd" d="M52.3993 13.1641L31.6591 15.5391L21.1016 32.9141L31.6591 50.2891L52.3993 52.6641V13.1641Z" fill="#7B1D13"/>
<path fill-rule="evenodd" clip-rule="evenodd" d="M10.5453 13.1641L7.17188 14.6641V51.1641L10.5453 52.6641L31.6603 32.9141L10.5453 13.1641Z" fill="#58150D"/>
<path fill-rule="evenodd" clip-rule="evenodd" d="M10.498 13.1226L31.6864 19.0114V47.3447L10.498 52.6781V13.1226Z" fill="#E25444"/>
<path fill-rule="evenodd" clip-rule="evenodd" d="M31.6979 22.1226L22.7012 20.6781L31.6979 10.4558L40.6725 20.6781L31.6979 22.1226Z" fill="#58150D"/>
<path fill-rule="evenodd" clip-rule="evenodd" d="M40.6725 20.6781L31.6868 22.1447L22.7012 20.6781V10.4558" fill="#58150D"/>
<path fill-rule="evenodd" clip-rule="evenodd" d="M31.6979 43.5669L22.7012 45.2336L31.6979 54.0114L40.6725 45.2336L31.6979 43.5669Z" fill="#58150D"/>
<path fill-rule="evenodd" clip-rule="evenodd" d="M31.6598 2.78906L22.6641 7.53906V20.6641L31.6878 18.1224L31.6598 2.78906Z" fill="#7B1D13"/>
<path fill-rule="evenodd" clip-rule="evenodd" d="M31.6868 25.3445L22.7012 26.3224V39.4271L31.6868 40.4556V25.3445Z" fill="#7B1D13"/>
<path fill-rule="evenodd" clip-rule="evenodd" d="M31.6868 47.4558L22.7012 45.2017V58.0845L31.6868 62.7892V47.4558Z" fill="#7B1D13"/>
<path fill-rule="evenodd" clip-rule="evenodd" d="M40.6731 45.2017L31.6875 47.4564V62.7892L40.6731 58.0845V45.2017Z" fill="#E25444"/>
<path fill-rule="evenodd" clip-rule="evenodd" d="M31.6875 25.3445L40.6731 26.3224V39.4271L31.6875 40.4556V25.3445Z" fill="#E25444"/>
<path fill-rule="evenodd" clip-rule="evenodd" d="M31.6602 2.78906L40.6559 7.53906V20.6641L31.6602 18.1641V2.78906Z" fill="#E25444"/>
</svg>
