<svg width="626" height="345" viewBox="0 0 626 345" fill="none" xmlns="http://www.w3.org/2000/svg">
<rect width="625.11" height="344" transform="translate(0 0.569824)" fill="white"/>
<g clip-path="url(#clip0_3854_1596)">
<mask id="mask0_3854_1596" style="mask-type:luminance" maskUnits="userSpaceOnUse" x="67" y="68" width="137" height="209">
<path d="M203.556 68.5205H67.8519V276.619H203.556V68.5205Z" fill="white"/>
</mask>
<g mask="url(#mask0_3854_1596)">
<path fill-rule="evenodd" clip-rule="evenodd" d="M132.835 68.6666C105.345 71.3787 104.377 112.134 131.695 116.695C132.932 116.901 133.324 117.01 133.353 117.153C133.373 117.257 133.274 119.312 133.132 121.72C132.99 124.129 132.811 128.864 132.734 132.243C132.658 135.622 132.568 138.407 132.535 138.431C132.502 138.455 132.056 138.681 131.543 138.933C130.583 139.406 129.319 140.444 128.812 141.177C128.527 141.589 128.527 141.589 126.778 141.646C124.017 141.737 122.334 142.413 120.806 144.044C120.382 144.497 119.995 144.818 119.943 144.758C119.891 144.698 118.298 142.348 116.402 139.536C114.506 136.724 112.354 133.557 111.618 132.499L110.282 130.575L111.066 129.704C125.694 113.474 105.24 89.03 87.8472 101.955C70.535 114.821 86.0514 141.808 105.957 133.452C106.039 133.418 107.517 135.27 109.454 137.832C111.3 140.274 113.605 143.284 114.577 144.521C115.549 145.759 116.426 146.896 116.527 147.047C116.733 147.358 116.799 147.313 115.686 147.619C112.598 148.468 109.688 151.034 109.111 153.416C109.035 153.728 108.911 153.986 108.835 153.988C103.618 154.127 99.6256 158.007 99.5692 162.994C99.5501 164.69 99.5501 164.69 98.8396 165.112C92.3733 168.955 83.6005 181.848 82.9741 188.429C82.8817 189.402 82.9181 189.37 81.6385 189.589C78.7512 190.082 77.0644 191.126 75.2859 193.52C73.0336 196.552 72.8258 199.159 74.5433 202.839C75.1249 204.087 75.157 203.866 74.1979 205.219C64.0579 219.524 66.1702 236.31 79.8127 249.832C88.7352 258.678 101.26 264.07 115.302 265.11C120.664 265.507 121.277 265.711 122.658 267.531C131.739 279.507 139.576 279.507 148.657 267.531C150.038 265.711 150.651 265.507 156.013 265.11C177.002 263.556 194.562 252.034 201.144 235.499C205.34 224.96 204.008 214.954 197.114 205.209C196.158 203.857 196.19 204.084 196.772 202.839C198.489 199.159 198.281 196.552 196.029 193.52C194.251 191.126 192.564 190.082 189.676 189.589C188.396 189.37 188.434 189.402 188.341 188.429C188.136 186.272 185.829 180.734 183.628 177.113C180.923 172.665 175.669 167.01 172.475 165.112C171.765 164.69 171.765 164.69 171.746 162.994C171.689 158.007 167.697 154.127 162.48 153.988C162.404 153.986 162.28 153.728 162.204 153.416C161.627 151.034 158.717 148.468 155.629 147.619C154.516 147.313 154.582 147.358 154.788 147.047C154.888 146.896 155.766 145.759 156.738 144.521C157.71 143.284 160.015 140.274 161.861 137.832C163.798 135.27 165.276 133.418 165.358 133.452C185.264 141.808 200.78 114.821 183.468 101.955C166.075 89.03 145.621 113.474 160.249 129.704L161.033 130.575L159.697 132.499C158.961 133.557 156.809 136.724 154.913 139.536C153.017 142.348 151.424 144.698 151.372 144.758C151.32 144.818 150.933 144.497 150.509 144.044C148.981 142.413 147.298 141.737 144.537 141.646C142.788 141.589 142.788 141.589 142.507 141.183C141.772 140.12 140.076 138.913 138.705 138.475C138.09 138.278 138.09 138.278 138.105 131.059C138.113 127.088 138.092 122.293 138.059 120.403L137.999 116.966L139.62 116.695C170.345 111.556 163.853 65.6067 132.835 68.6666ZM132.08 74.6151C121.539 76.5219 114.612 86.282 116.503 95.8342C116.639 96.523 116.821 97.2108 117.051 97.8945C122.559 114.264 148.756 114.264 154.263 97.8945C154.496 97.2034 154.68 96.5115 154.818 95.8216C157.231 83.7234 145.41 72.2037 132.08 74.6151ZM96.6876 104.58C88.9033 106.022 84.2962 113.932 86.2158 120.639C86.5849 121.928 87.1951 123.173 88.0704 124.319C94.2634 132.427 105.415 131.609 110.009 122.71C110.411 121.931 110.719 121.137 110.938 120.339C113.26 111.896 105.759 102.901 96.6876 104.58ZM170.443 104.587C162.677 105.976 158.653 113.565 160.387 120.328C160.966 122.587 162.189 124.755 164.13 126.568C169.714 131.784 178.316 130.772 183.245 124.319C184.121 123.172 184.728 121.944 185.097 120.683C187.491 112.503 179.859 102.903 170.443 104.587ZM134.351 142.338C130.551 143.009 129.324 146.531 131.345 150.964C131.947 152.284 131.947 152.284 132.871 152.293C133.701 152.302 133.89 152.351 134.726 152.774C135.657 153.245 135.657 153.245 136.589 152.774C137.425 152.351 137.614 152.302 138.444 152.293C139.368 152.284 139.368 152.284 139.969 150.964C142.449 145.521 139.754 141.383 134.351 142.338ZM124.603 145.822C121.49 146.654 120.591 150.437 122.566 154.4C123.384 156.041 123.222 155.912 124.212 155.708C124.853 155.576 125.207 155.562 125.647 155.651C127.09 155.946 126.913 155.994 127.525 155.145C127.829 154.723 128.334 154.163 128.648 153.9C129.219 153.423 129.219 153.423 128.843 152.842C127.815 151.255 127.382 149.731 127.285 147.355C127.212 145.565 126.687 145.266 124.603 145.822ZM144.03 147.34C143.933 149.732 143.502 151.251 142.472 152.842C142.096 153.423 142.096 153.423 142.667 153.9C142.981 154.163 143.486 154.723 143.79 155.145C144.402 155.994 144.225 155.946 145.668 155.651C146.108 155.562 146.462 155.576 147.103 155.708C148.093 155.912 147.931 156.041 148.749 154.4C151.057 149.768 149.548 145.853 145.388 145.684L144.1 145.631L144.03 147.34ZM116.082 150.485C111.429 151.69 109.776 157.268 112.921 161.149C113.67 162.074 113.62 162.058 114.369 161.609C115.534 160.912 116.847 160.688 118.379 160.924C118.934 161.01 118.934 161.01 119.074 160.457C119.31 159.528 120.005 158.316 120.76 157.518C121.477 156.759 121.477 156.759 120.988 156.115C119.922 154.711 118.974 152.026 118.965 150.387C118.964 150.232 116.771 150.306 116.082 150.485ZM152.35 150.387C152.341 152.026 151.393 154.711 150.327 156.115C149.838 156.759 149.838 156.759 150.555 157.518C151.309 158.316 152.004 159.528 152.241 160.457C152.381 161.01 152.381 161.01 152.936 160.924C154.468 160.688 155.781 160.912 156.946 161.609C157.695 162.058 157.645 162.074 158.394 161.149C161.015 157.915 160.234 152.761 156.876 151.134C155.434 150.435 152.352 149.926 152.35 150.387ZM131.001 156.062C127.733 157.569 127.436 161.243 130.244 165.443C131.107 166.734 131.107 166.734 131.444 166.208C133.233 163.415 138.082 163.415 139.871 166.208C140.358 166.968 142.317 164.072 142.815 161.856C143.703 157.902 139.808 153.881 137.605 156.479C137.137 157.031 136.562 158.046 136.334 158.72C135.894 160.026 135.421 160.026 134.981 158.72C134.629 157.676 133.887 156.55 133.209 156.033C132.728 155.665 131.838 155.677 131.001 156.062ZM107.796 156.865C101.858 157.637 100.773 166.089 106.148 169.703C107.292 170.473 110.558 171.829 110.558 171.535C110.558 171.517 110.45 171.084 110.318 170.573C109.755 168.392 110.343 165.647 111.742 163.928C112.117 163.468 112.117 163.468 111.175 162.482C109.78 161.022 109.024 159.453 108.816 157.581C108.718 156.698 108.774 156.737 107.796 156.865ZM162.614 156.887C162.59 156.958 162.514 157.404 162.444 157.878C162.165 159.755 161.496 161.08 160.089 162.538C159.195 163.464 159.195 163.464 159.572 163.927C160.972 165.647 161.56 168.391 160.997 170.573C160.865 171.084 160.757 171.517 160.757 171.535C160.757 171.829 164.023 170.473 165.167 169.703C169.929 166.501 169.846 159.53 165.02 157.302C164.224 156.934 162.685 156.669 162.614 156.887ZM124.201 158.398C120.424 158.936 119.654 165.076 122.846 169.2C123.122 169.557 123.385 169.901 123.429 169.965C123.477 170.035 123.697 169.954 123.97 169.768C125.508 168.718 127.37 168.489 130.182 169.007C130.275 169.024 130.785 167.768 130.703 167.721C127.645 165.971 125.9 162.865 126.076 159.485C126.127 158.506 126.127 158.506 125.698 158.435C125.463 158.395 125.188 158.348 125.089 158.33C124.99 158.312 124.591 158.342 124.201 158.398ZM146.165 158.332C146.099 158.35 145.852 158.396 145.617 158.435C145.188 158.506 145.188 158.506 145.239 159.485C145.415 162.865 143.67 165.971 140.612 167.721C140.53 167.768 141.04 169.024 141.133 169.007C143.945 168.489 145.807 168.718 147.345 169.768C147.618 169.954 147.838 170.035 147.886 169.965C147.93 169.901 148.193 169.557 148.469 169.2C150.815 166.169 151.101 161.031 149.024 159.22C148.381 158.66 146.788 158.165 146.165 158.332ZM116.539 163.307C111.91 164.541 111.586 170.875 115.944 174.931C119.094 177.862 116.018 177.174 112.587 174.181C111.656 173.369 111.656 173.369 110.947 173.442C108.052 173.742 103.591 171.207 101.213 167.909C100.664 167.148 100.664 167.148 100.315 167.552C95.3702 173.276 92.5559 178.401 89.3509 187.517C88.5577 189.774 88.5499 189.598 89.4521 189.768C104.851 192.663 115.012 208.909 115.329 231.141C115.398 235.998 115.275 235.707 116.981 235.074C118.023 234.687 118.234 234.394 119.084 232.15C122.978 221.879 126.256 217.806 131.748 216.415C132.884 216.128 132.851 216.15 132.948 215.638C133.168 214.478 134.402 211.446 134.847 210.973C135.92 209.833 137.718 212.216 138.367 215.638C138.464 216.15 138.431 216.128 139.567 216.415C145.059 217.806 148.337 221.879 152.231 232.15C153.081 234.394 153.292 234.687 154.334 235.074C156.04 235.707 155.917 235.998 155.986 231.141C156.303 208.908 166.463 192.663 181.863 189.768C182.765 189.598 182.757 189.774 181.964 187.517C178.759 178.401 175.945 173.276 171 167.552C170.651 167.148 170.651 167.148 170.102 167.909C167.724 171.207 163.263 173.742 160.368 173.442C159.659 173.369 159.659 173.369 158.728 174.181C155.297 177.174 152.221 177.862 155.371 174.931C158.516 172.005 159.309 168.983 157.741 165.911C156.498 163.477 152.663 162.018 152.419 163.886C152.03 166.876 150.836 169.176 149.039 170.4C148.515 170.757 148.515 170.757 148.962 171.557C149.988 173.396 149.481 175.787 147.681 177.589C146.159 179.113 144.936 179.213 146.333 177.699C148.166 175.713 148.038 173.293 146.07 172.714C144.893 172.368 141.182 172.514 141.182 172.907C141.182 173.801 139.989 176.547 139.281 177.284C138.402 178.199 138.218 177.802 138.823 176.299C140.676 171.693 139.132 167.303 135.657 167.303C132.183 167.303 130.639 171.693 132.492 176.299C133.097 177.802 132.913 178.199 132.034 177.284C131.326 176.547 130.133 173.801 130.133 172.907C130.133 172.514 126.422 172.368 125.245 172.714C123.277 173.293 123.149 175.713 124.982 177.699C126.379 179.213 125.156 179.113 123.634 177.589C121.834 175.787 121.327 173.396 122.353 171.557C122.8 170.757 122.8 170.757 122.276 170.4C120.48 169.177 119.285 166.875 118.896 163.894C118.833 163.404 118.765 163.266 118.56 163.212C118.138 163.1 117.141 163.147 116.539 163.307ZM83.4353 192.745C76.349 193.859 77.4147 201.588 85.5478 208.064C88.1296 210.121 88.1765 210.149 92.3044 212.255C107.522 220.019 111.519 224.79 111.519 235.191C111.519 235.906 112.032 236.125 112.75 235.715C112.879 235.641 112.859 230.666 112.718 228.007C112.058 215.521 107.006 203.85 99.7641 198.081C94.9739 194.263 88.0882 192.014 83.4353 192.745ZM184.235 192.706C171.093 194.091 161.101 206.542 158.899 224.276C158.549 227.098 158.301 235.564 158.565 235.715C159.283 236.125 159.796 235.906 159.796 235.191C159.796 224.788 163.791 220.021 179.011 212.255C183.139 210.149 183.185 210.121 185.767 208.064C195.514 200.304 194.646 191.608 184.235 192.706ZM78.2877 208.595C72.7599 214.561 71.1308 226.886 74.7081 235.677C79.7289 248.018 96.1571 259.492 110.618 260.757C117.172 261.33 118.659 261.233 118.033 260.267C117.005 258.685 113.481 252.263 111.423 248.222C110.889 247.175 110.062 245.706 109.584 244.952C107.436 241.574 107.278 239.119 109.086 237.206C110.157 236.072 109.484 230.712 107.866 227.472C107.065 225.869 107.12 225.886 106.359 227.026C97.5971 240.157 79.7217 230.109 80.0841 212.256C80.1394 209.532 80.1394 209.532 79.381 208.929C78.4959 208.227 78.5994 208.258 78.2877 208.595ZM191.908 208.937C191.175 209.532 191.175 209.532 191.231 212.256C191.593 230.109 173.718 240.157 164.956 227.026C164.195 225.886 164.25 225.869 163.449 227.472C161.831 230.712 161.158 236.072 162.229 237.206C164.037 239.119 163.879 241.574 161.731 244.952C161.253 245.706 160.426 247.175 159.892 248.222C157.834 252.263 154.31 258.685 153.282 260.267C152.652 261.239 152.475 261.192 156.166 261.02C163.862 260.666 167.064 259.963 173.306 257.253C195.878 247.462 205.057 226.661 194.106 210.117C192.752 208.072 192.885 208.144 191.908 208.937ZM83.1238 211.805C81.96 215.632 84.2642 222.841 87.8321 226.54C88.94 227.686 89.0066 227.693 88.5638 226.618C86.7849 222.289 87.4371 216.92 89.9493 215.217C90.4139 214.901 89.5655 214.372 86.2997 212.943C85.5402 212.61 84.5553 212.159 84.1111 211.939C83.1522 211.463 83.2252 211.474 83.1238 211.805ZM187.357 211.86C187.027 212.03 186 212.507 185.075 212.92C181.507 214.508 180.886 214.893 181.364 215.215C183.878 216.92 184.531 222.286 182.751 226.618C182.308 227.693 182.375 227.686 183.483 226.54C187.051 222.841 189.355 215.632 188.191 211.805C188.091 211.478 188.096 211.478 187.357 211.86ZM134.236 219.156C129.641 219.97 125.34 224.9 122.004 233.18C120.332 237.331 119.463 237.932 113.921 238.767C110.274 239.317 110.034 240.196 112.54 243.816C114.352 246.437 116.565 250.053 118.903 254.215C123.081 261.655 124.622 264.123 126.747 266.773C134.074 275.916 140.337 274.417 148.106 261.66C149.636 259.148 149.827 258.818 152.412 254.215C154.75 250.053 156.963 246.437 158.775 243.816C161.281 240.196 161.041 239.317 157.394 238.767C151.852 237.932 150.983 237.331 149.311 233.18C145.289 223.2 139.869 218.156 134.236 219.156ZM122.027 238.839C120.905 239.416 120.5 240.529 121.023 241.597C121.437 242.444 122.578 242.867 123.28 242.434C123.473 242.315 123.619 242.357 124.209 242.716C126.319 243.992 127.123 243.746 126.467 242.02C125.467 239.387 123.581 238.036 122.027 238.839ZM147.223 238.892C145.936 239.54 144.289 242.308 144.693 243.149C144.985 243.755 145.559 243.653 147.106 242.716C147.696 242.357 147.842 242.315 148.035 242.434C148.737 242.867 149.878 242.444 150.292 241.597C151.187 239.769 149.114 237.938 147.223 238.892Z" fill="#22110C"/>
<path d="M146.166 158.332C146.099 158.35 145.852 158.396 145.617 158.435C145.188 158.506 145.188 158.506 145.239 159.485C145.415 162.865 143.67 165.971 140.612 167.721C140.53 167.767 141.04 169.024 141.133 169.007C143.945 168.489 145.807 168.717 147.345 169.768C147.618 169.954 147.838 170.034 147.886 169.965C147.93 169.901 148.193 169.556 148.469 169.2C150.815 166.168 151.101 161.031 149.024 159.22C148.381 158.66 146.788 158.165 146.166 158.332Z" fill="#2430F0"/>
<path d="M162.614 156.887C162.59 156.958 162.514 157.404 162.444 157.878C162.165 159.755 161.496 161.08 160.089 162.538C159.195 163.464 159.195 163.464 159.572 163.927C160.972 165.647 161.56 168.391 160.997 170.573C160.865 171.084 160.757 171.517 160.757 171.535C160.757 171.83 164.022 170.473 165.167 169.703C169.929 166.501 169.846 159.53 165.02 157.302C164.224 156.935 162.685 156.669 162.614 156.887Z" fill="#2430F0"/>
<path d="M152.35 150.387C152.341 152.026 151.393 154.711 150.327 156.115C149.838 156.759 149.838 156.759 150.555 157.518C151.309 158.316 152.004 159.528 152.241 160.457C152.381 161.01 152.381 161.01 152.936 160.924C154.467 160.688 155.78 160.912 156.945 161.609C157.695 162.058 157.645 162.074 158.394 161.149C161.015 157.915 160.234 152.761 156.876 151.134C155.434 150.435 152.352 149.926 152.35 150.387Z" fill="#2430F0"/>
<path d="M144.03 147.34C143.933 149.732 143.502 151.252 142.472 152.842C142.096 153.423 142.096 153.423 142.667 153.901C142.981 154.163 143.486 154.723 143.79 155.145C144.402 155.994 144.225 155.946 145.668 155.652C146.108 155.562 146.462 155.576 147.103 155.708C148.093 155.912 147.931 156.041 148.748 154.4C151.057 149.768 149.548 145.853 145.387 145.684L144.1 145.631L144.03 147.34Z" fill="#2430F0"/>
<path d="M134.351 142.338C130.551 143.009 129.324 146.531 131.345 150.964C131.947 152.284 131.947 152.284 132.871 152.293C133.701 152.302 133.89 152.351 134.726 152.774C135.657 153.245 135.657 153.245 136.589 152.774C137.425 152.351 137.614 152.302 138.444 152.293C139.367 152.284 139.367 152.284 139.969 150.964C142.449 145.521 139.754 141.383 134.351 142.338Z" fill="#2430F0"/>
<path d="M131.001 156.062C127.733 157.569 127.436 161.243 130.244 165.442C131.107 166.734 131.107 166.734 131.444 166.208C133.233 163.415 138.082 163.415 139.871 166.208C140.358 166.968 142.317 164.072 142.815 161.856C143.703 157.902 139.808 153.881 137.605 156.478C137.137 157.031 136.561 158.046 136.334 158.72C135.894 160.026 135.421 160.026 134.981 158.72C134.629 157.676 133.887 156.55 133.209 156.033C132.728 155.665 131.838 155.676 131.001 156.062Z" fill="#2430F0"/>
<path d="M124.201 158.398C120.424 158.936 119.654 165.076 122.846 169.2C123.122 169.557 123.385 169.901 123.429 169.965C123.477 170.034 123.697 169.954 123.97 169.768C125.508 168.718 127.37 168.489 130.182 169.007C130.275 169.024 130.785 167.767 130.703 167.721C127.645 165.971 125.9 162.865 126.076 159.485C126.127 158.506 126.127 158.506 125.698 158.434C125.463 158.395 125.188 158.348 125.089 158.33C124.99 158.312 124.59 158.342 124.201 158.398Z" fill="#2430F0"/>
<path d="M116.082 150.485C111.429 151.691 109.776 157.268 112.921 161.149C113.67 162.074 113.62 162.058 114.369 161.609C115.534 160.912 116.847 160.688 118.379 160.924C118.934 161.01 118.934 161.01 119.074 160.457C119.31 159.528 120.006 158.316 120.76 157.518C121.477 156.759 121.477 156.759 120.988 156.115C119.922 154.711 118.974 152.026 118.965 150.387C118.964 150.232 116.771 150.306 116.082 150.485Z" fill="#2430F0"/>
<path d="M124.603 145.822C121.49 146.653 120.591 150.437 122.567 154.4C123.384 156.041 123.222 155.912 124.212 155.708C124.853 155.576 125.207 155.562 125.647 155.651C127.09 155.946 126.913 155.993 127.525 155.144C127.829 154.723 128.334 154.163 128.648 153.9C129.219 153.423 129.219 153.423 128.843 152.841C127.815 151.255 127.382 149.731 127.285 147.355C127.212 145.565 126.687 145.266 124.603 145.822Z" fill="#2430F0"/>
<path d="M107.796 156.865C101.858 157.637 100.773 166.089 106.148 169.703C107.292 170.473 110.558 171.83 110.558 171.535C110.558 171.517 110.45 171.084 110.318 170.573C109.755 168.392 110.343 165.647 111.742 163.928C112.117 163.468 112.117 163.468 111.175 162.482C109.78 161.022 109.024 159.453 108.816 157.581C108.718 156.698 108.774 156.737 107.796 156.865Z" fill="#2430F0"/>
<path d="M184.235 192.706C171.093 194.091 161.101 206.542 158.899 224.276C158.549 227.098 158.301 235.564 158.565 235.715C159.283 236.125 159.796 235.906 159.796 235.191C159.796 224.788 163.791 220.021 179.011 212.255C183.139 210.149 183.185 210.12 185.767 208.064C195.514 200.304 194.646 191.608 184.235 192.706Z" fill="#2BE1B7"/>
<path d="M191.908 208.937C191.175 209.532 191.175 209.532 191.231 212.256C191.593 230.109 173.718 240.157 164.957 227.026C164.195 225.886 164.25 225.869 163.45 227.472C161.831 230.712 161.159 236.072 162.229 237.206C164.037 239.119 163.879 241.574 161.731 244.952C161.253 245.706 160.426 247.176 159.893 248.222C157.834 252.263 154.31 258.685 153.283 260.267C152.652 261.239 152.475 261.192 156.166 261.02C163.862 260.666 167.064 259.963 173.306 257.253C195.878 247.462 205.057 226.661 194.106 210.117C192.752 208.072 192.885 208.144 191.908 208.937Z" fill="#2BE1B7"/>
<path d="M78.2877 208.595C72.7599 214.561 71.1308 226.886 74.7079 235.677C79.7289 248.019 96.1569 259.492 110.618 260.757C117.171 261.331 118.659 261.233 118.032 260.267C117.005 258.685 113.481 252.263 111.422 248.222C110.889 247.176 110.062 245.706 109.584 244.952C107.436 241.574 107.278 239.119 109.086 237.206C110.156 236.072 109.484 230.712 107.865 227.472C107.065 225.869 107.12 225.886 106.358 227.026C97.5971 240.158 79.7217 230.109 80.0839 212.256C80.1394 209.532 80.1394 209.532 79.381 208.929C78.4957 208.228 78.5994 208.258 78.2877 208.595Z" fill="#2BE1B7"/>
<path d="M83.4353 192.745C76.3488 193.859 77.4147 201.588 85.5479 208.064C88.1294 210.12 88.1763 210.149 92.3042 212.255C107.521 220.018 111.519 224.79 111.519 235.19C111.519 235.906 112.031 236.125 112.75 235.715C112.879 235.641 112.859 230.665 112.718 228.007C112.058 215.521 107.006 203.85 99.7641 198.08C94.9738 194.263 88.0881 192.013 83.4353 192.745Z" fill="#2BE1B7"/>
<path d="M116.539 163.307C111.91 164.541 111.586 170.876 115.944 174.931C119.094 177.862 116.018 177.175 112.586 174.181C111.656 173.369 111.656 173.369 110.947 173.443C108.052 173.742 103.591 171.207 101.213 167.909C100.664 167.148 100.664 167.148 100.315 167.553C95.3702 173.276 92.5556 178.401 89.3509 187.517C88.5577 189.774 88.5496 189.598 89.4521 189.769C104.851 192.663 115.012 208.909 115.329 231.141C115.398 235.998 115.275 235.707 116.981 235.074C118.022 234.688 118.233 234.394 119.084 232.15C122.978 221.879 126.256 217.806 131.748 216.415C132.884 216.129 132.851 216.15 132.948 215.638C133.168 214.479 134.402 211.446 134.847 210.973C135.92 209.833 137.718 212.216 138.366 215.638C138.464 216.15 138.43 216.129 139.567 216.415C145.059 217.806 148.337 221.879 152.23 232.15C153.081 234.394 153.292 234.688 154.334 235.074C156.04 235.707 155.917 235.998 155.986 231.141C156.303 208.908 166.463 192.663 181.863 189.769C182.765 189.598 182.757 189.774 181.964 187.517C178.759 178.401 175.945 173.276 171 167.553C170.651 167.148 170.651 167.148 170.102 167.909C167.724 171.207 163.263 173.742 160.367 173.443C159.659 173.369 159.659 173.369 158.728 174.181C155.297 177.175 152.221 177.862 155.371 174.931C158.515 172.005 159.309 168.984 157.74 165.911C156.498 163.477 152.663 162.018 152.419 163.887C152.03 166.876 150.836 169.176 149.039 170.4C148.515 170.757 148.515 170.757 148.962 171.557C149.988 173.396 149.481 175.788 147.681 177.589C146.159 179.113 144.936 179.213 146.333 177.699C148.166 175.713 148.038 173.293 146.07 172.714C144.893 172.368 141.182 172.515 141.182 172.907C141.182 173.801 139.989 176.547 139.28 177.285C138.402 178.199 138.218 177.802 138.823 176.299C140.676 171.693 139.131 167.303 135.657 167.303C132.183 167.303 130.638 171.693 132.492 176.299C133.097 177.802 132.913 178.199 132.034 177.285C131.326 176.547 130.133 173.801 130.133 172.907C130.133 172.515 126.422 172.368 125.245 172.714C123.277 173.293 123.149 175.713 124.982 177.699C126.379 179.213 125.156 179.113 123.633 177.589C121.834 175.788 121.326 173.396 122.353 171.557C122.8 170.757 122.8 170.757 122.276 170.4C120.48 169.177 119.285 166.875 118.896 163.894C118.833 163.404 118.765 163.266 118.56 163.212C118.138 163.1 117.14 163.147 116.539 163.307Z" fill="#2430F0"/>
<path fill-rule="evenodd" clip-rule="evenodd" d="M134.236 219.157C129.641 219.97 125.34 224.9 122.004 233.18C120.332 237.331 119.462 237.932 113.921 238.767C110.274 239.317 110.034 240.196 112.54 243.816C114.352 246.437 116.565 250.053 118.903 254.215C123.08 261.655 124.622 264.123 126.747 266.773C134.074 275.917 140.337 274.417 148.106 261.66C149.636 259.148 149.827 258.818 152.412 254.215C154.75 250.053 156.963 246.437 158.775 243.816C161.281 240.196 161.041 239.317 157.394 238.767C151.852 237.932 150.983 237.331 149.311 233.18C145.289 223.2 139.869 218.156 134.236 219.157ZM121.023 241.597C120.5 240.529 120.905 239.416 122.027 238.839C123.581 238.036 125.467 239.387 126.467 242.02C127.123 243.746 126.319 243.992 124.209 242.716C123.619 242.357 123.473 242.315 123.28 242.434C122.578 242.867 121.437 242.444 121.023 241.597ZM144.693 243.149C144.289 242.309 145.936 239.54 147.223 238.892C149.114 237.938 151.187 239.769 150.292 241.597C149.878 242.444 148.737 242.867 148.035 242.434C147.842 242.315 147.696 242.357 147.106 242.716C145.559 243.653 144.985 243.755 144.693 243.149Z" fill="#F2C79C"/>
<path fill-rule="evenodd" clip-rule="evenodd" d="M110.938 120.339C109.34 114.377 104.363 109.681 97.5998 110.934C92.2333 111.927 87.4648 116.01 86.2159 120.639C86.5849 121.928 87.1951 123.173 88.0706 124.319C94.2634 132.427 105.415 131.609 110.009 122.71C110.411 121.931 110.719 121.137 110.938 120.339Z" fill="#2430F0"/>
<path fill-rule="evenodd" clip-rule="evenodd" d="M117.052 97.8945C116.821 97.2107 116.639 96.523 116.503 95.8341C117.902 88.6668 124.816 82.4474 132.992 80.9682C143.935 78.9889 152.948 86.4121 154.818 95.8216C154.68 96.5115 154.496 97.2033 154.264 97.8945C148.756 114.264 122.559 114.264 117.052 97.8945Z" fill="#2430F0"/>
<path d="M170.443 104.587C162.677 105.976 158.653 113.565 160.387 120.328C161.534 115.796 166.017 111.896 171.355 110.94C178.352 109.689 183.453 114.685 185.098 120.683C187.491 112.503 179.859 102.903 170.443 104.587Z" fill="#2430F0"/>
<path d="M116.503 95.8341C117.902 88.667 124.816 82.4476 132.992 80.9684C143.935 78.9889 152.948 86.4121 154.818 95.8218C157.231 83.7236 145.41 72.2039 132.08 74.6153C121.539 76.5221 114.612 86.2822 116.503 95.8341Z" fill="#2430F0"/>
<path d="M97.5996 110.934C104.363 109.681 109.34 114.378 110.938 120.339C113.26 111.896 105.759 102.901 96.6876 104.581C88.9031 106.022 84.2962 113.932 86.2157 120.639C87.4649 116.01 92.2331 111.927 97.5996 110.934Z" fill="#2430F0"/>
<path d="M164.13 126.568C169.714 131.784 178.316 130.771 183.244 124.319C184.12 123.172 184.728 121.944 185.097 120.683C183.453 114.684 178.352 109.689 171.355 110.94C166.016 111.895 161.534 115.795 160.387 120.327C160.966 122.587 162.189 124.755 164.13 126.568Z" fill="#2430F0"/>
<path fill-rule="evenodd" clip-rule="evenodd" d="M119.405 89.3767C122.46 85.1759 127.439 81.975 133.002 80.9685C141.328 79.4625 148.536 83.399 152.331 89.512C153.055 88.7911 153.717 88.0583 154.263 87.3405C151.44 78.9694 142.199 72.7866 132.09 74.6153C125.106 75.8787 119.709 80.5896 117.411 86.4032C117.908 87.352 118.61 88.37 119.405 89.3767Z" fill="#F2C79C"/>
<path d="M119.406 89.3765C122.118 92.8108 125.915 96.1176 126.372 96.1176C126.719 96.1176 128.633 94.2764 130.621 92.3642C132.769 90.2987 135.003 88.1504 135.439 88.1504C135.86 88.1504 137.661 90.1422 139.462 92.134C141.264 94.1258 143.065 96.1176 143.485 96.1176C144.021 96.1176 148.882 92.9488 152.332 89.5118C148.536 83.3988 141.328 79.4623 133.003 80.9683C127.439 81.9748 122.461 85.1757 119.406 89.3765Z" fill="#2BE1B7"/>
<path d="M86.2796 120.303C87.6631 115.814 92.3301 111.903 97.5665 110.934C101.571 110.192 104.949 111.536 107.37 113.993C107.82 112.346 108.146 110.379 108.108 108.728C105.39 105.595 101.221 103.735 96.6546 104.581C89.0539 105.988 84.4824 113.562 86.0576 120.162C86.1305 120.209 86.2047 120.257 86.2796 120.303Z" fill="#2BE1B7"/>
<path d="M86.2796 120.303C89.2246 122.145 93.2393 122.949 94.2971 122.338C95.116 121.865 95.4952 119.48 95.5842 117.023C95.6521 115.156 95.7127 113.484 96.0757 113.176C96.4769 112.835 98.4228 113.943 100.485 115.118C102.745 116.404 105.297 117.526 105.957 117.153C106.428 116.887 106.893 115.742 107.37 113.993C104.949 111.536 101.57 110.192 97.5663 110.933C92.3301 111.903 87.6631 115.814 86.2796 120.303Z" fill="#2BE1B7"/>
<path fill-rule="evenodd" clip-rule="evenodd" d="M161.28 111.814C161.46 113.122 165.243 120.138 166.264 120.376C166.817 120.505 168.708 119.169 170.44 117.946C171.907 116.91 173.259 115.954 173.59 116.036C173.891 116.11 174.465 117.006 175.137 118.053C176.071 119.511 177.195 121.263 178.033 121.506C179.119 121.819 183.445 119.567 185.562 118.056C185.889 110.599 178.895 103.081 170.475 104.587C166.078 105.374 162.88 108.148 161.248 111.634C161.261 111.689 161.271 111.749 161.28 111.814Z" fill="#2BE1B7"/>
<path d="M187.357 211.86C187.027 212.03 186 212.507 185.075 212.92C181.507 214.508 180.886 214.892 181.364 215.215C183.878 216.92 184.531 222.286 182.751 226.618C182.308 227.692 182.375 227.686 183.483 226.539C187.051 222.84 189.355 215.631 188.191 211.805C188.091 211.478 188.096 211.478 187.357 211.86Z" fill="#F1F1F1"/>
<path d="M83.124 211.805C81.9601 215.631 84.2641 222.84 87.8323 226.54C88.94 227.686 89.0066 227.693 88.564 226.618C86.785 222.288 87.4373 216.92 89.9493 215.217C90.4141 214.901 89.5655 214.372 86.2999 212.943C85.5402 212.61 84.5555 212.158 84.1113 211.938C83.1524 211.463 83.2254 211.474 83.124 211.805Z" fill="#F1F1F1"/>
<path d="M179.537 222.7C179.537 222.307 179.188 221.987 178.757 221.987C178.326 221.987 177.976 222.307 177.976 222.7C177.976 223.095 178.326 223.414 178.757 223.414C179.188 223.414 179.537 223.095 179.537 222.7Z" fill="#F1F1F1"/>
<path opacity="0.2" fill-rule="evenodd" clip-rule="evenodd" d="M153.748 99.2441C147.066 106.613 133.786 110.668 118.612 101.284C126.115 113.779 147.786 113.099 153.748 99.2441ZM108.094 125.561C101.061 128.474 91.5126 125.491 86.848 122.315C87.1756 123.008 87.5819 123.679 88.0706 124.319C93.5213 131.455 102.813 131.677 108.094 125.561ZM184.332 122.602C180.288 126.367 172.101 129.043 162.538 124.798C163.002 125.417 163.532 126.009 164.13 126.568C169.714 131.784 178.316 130.772 183.245 124.319C183.669 123.763 184.03 123.189 184.332 122.602Z" fill="#22110C"/>
<path d="M116.503 95.8343C117.902 88.667 124.816 82.4476 132.992 80.9686C143.935 78.9892 152.948 86.4121 154.818 95.8218C157.231 83.7236 145.41 72.2039 132.08 74.6153C121.539 76.5221 114.612 86.2824 116.503 95.8343Z" fill="#2430F0"/>
<path fill-rule="evenodd" clip-rule="evenodd" d="M119.405 89.3767C122.46 85.1758 127.439 81.9749 133.002 80.9686C141.328 79.4624 148.536 83.3989 152.331 89.5119C153.055 88.791 153.717 88.0584 154.263 87.3405C151.44 78.9694 142.199 72.7867 132.09 74.6152C125.106 75.8787 119.709 80.5896 117.411 86.4032C117.908 87.3519 118.61 88.3699 119.405 89.3767Z" fill="#2BE1B7"/>
<g opacity="0.2">
<g style="mix-blend-mode:hard-light">
<path fill-rule="evenodd" clip-rule="evenodd" d="M140.473 144.917C139.595 142.886 137.406 141.798 134.351 142.338C132.547 142.657 131.323 143.618 130.751 145.014C131.955 144.029 134.085 143.708 135.674 143.674C137.21 143.707 139.25 144.008 140.473 144.917ZM127.099 146.202C125.611 146.428 122.893 147.145 121.712 148.794C122.106 147.321 123.095 146.225 124.603 145.822C126.113 145.419 126.805 145.465 127.099 146.202ZM118.983 150.778C118.972 150.642 118.966 150.511 118.965 150.387C118.964 150.232 116.771 150.306 116.082 150.485C113.724 151.096 112.136 152.83 111.553 154.896C113.13 152.688 116.067 150.847 118.983 150.778ZM102.677 162.808C103.374 160.461 105.971 158.012 108.083 158.012C108.381 158.012 108.641 157.996 108.867 157.967C108.848 157.84 108.831 157.711 108.816 157.581C108.811 157.537 108.807 157.496 108.802 157.457C108.765 157.11 108.746 156.932 108.646 156.851C108.539 156.766 108.342 156.792 107.934 156.846C107.89 156.852 107.844 156.858 107.796 156.864C104.61 157.279 102.821 159.905 102.677 162.808ZM134.34 157.372C133.115 156.431 131.303 156.058 128.758 158.166C129.188 157.273 129.937 156.553 131.001 156.062C131.838 155.676 132.728 155.664 133.209 156.032C133.593 156.326 133.998 156.814 134.34 157.372ZM142.216 157.871C141.117 155.864 139.015 154.816 137.605 156.478C137.4 156.721 137.174 157.053 136.966 157.405C138.131 156.487 139.838 156.075 142.216 157.871ZM126.096 159.061C126.114 158.504 126.053 158.493 125.698 158.434C125.463 158.395 125.188 158.348 125.089 158.33C124.99 158.312 124.59 158.342 124.201 158.398C122.346 158.662 121.216 160.278 120.925 162.342C121.659 159.98 124.428 158.877 126.096 159.061ZM152.488 163.615C153.065 162.176 156.564 163.607 157.741 165.911C158.068 166.551 158.292 167.19 158.414 167.825C157.512 165.316 154.673 164.166 152.488 163.615ZM141.179 172.99C141.181 172.961 141.182 172.933 141.182 172.907C141.182 172.515 144.893 172.368 146.07 172.714C146.628 172.878 147.038 173.19 147.297 173.598C146.171 172.613 143.72 172.796 141.179 172.99ZM132.649 168.922C133.332 167.915 134.36 167.303 135.658 167.303C136.93 167.303 137.944 167.892 138.627 168.866C137.777 168.208 136.612 167.871 135.674 167.784C134.709 167.873 133.505 168.228 132.649 168.922ZM123.976 173.666C124.233 173.224 124.656 172.887 125.245 172.714C126.422 172.368 130.133 172.515 130.133 172.907C130.133 172.932 130.134 172.959 130.136 172.987C127.549 172.79 125.062 172.609 123.976 173.666ZM118.852 163.617C116.618 164.181 113.704 165.372 112.875 168C113.009 165.782 114.245 163.918 116.539 163.307C117.141 163.146 118.138 163.1 118.56 163.212C118.72 163.254 118.796 163.347 118.852 163.617ZM149.634 148.793C149.127 146.974 147.649 145.776 145.387 145.684L144.1 145.631L144.078 146.177C145.519 146.373 148.406 147.079 149.634 148.793ZM159.725 154.801C159.306 153.211 158.334 151.84 156.876 151.133C155.434 150.435 152.352 149.926 152.35 150.387C152.349 150.511 152.343 150.642 152.332 150.777C155.217 150.833 158.126 152.628 159.725 154.801ZM168.68 162.84C167.997 160.483 165.386 158.012 163.265 158.012C162.945 158.012 162.668 157.993 162.431 157.96C162.435 157.933 162.44 157.905 162.444 157.878C162.514 157.404 162.59 156.958 162.614 156.887C162.685 156.669 164.224 156.934 165.02 157.302C167.334 158.37 168.558 160.529 168.68 162.84ZM150.353 162.137C150.195 160.91 149.756 159.859 149.024 159.22C148.381 158.66 146.788 158.165 146.165 158.332C146.099 158.35 145.852 158.396 145.617 158.435C145.261 158.494 145.2 158.504 145.219 159.065C146.835 158.869 149.521 159.902 150.353 162.137Z" fill="white"/>
</g>
</g>
<g style="mix-blend-mode:hard-light">
<path fill-rule="evenodd" clip-rule="evenodd" d="M190.593 193.768C185.861 193.417 180.342 194.969 176.355 197.432C170.771 200.881 162.184 210.037 160.383 218.895C159.884 221.346 159.511 222.148 159.234 221.972C161.985 205.47 171.671 194.03 184.235 192.705C187.068 192.407 189.195 192.834 190.593 193.768Z" fill="white" fill-opacity="0.4"/>
</g>
<g style="mix-blend-mode:hard-light">
<path fill-rule="evenodd" clip-rule="evenodd" d="M80.477 193.881C85.3316 193.35 91.1416 194.928 95.2929 197.492C100.877 200.94 109.464 210.097 111.265 218.955C111.548 220.345 111.79 221.203 111.997 221.656C110.252 211.677 105.759 202.857 99.7641 198.08C94.974 194.263 88.0883 192.013 83.4353 192.745C82.2057 192.938 81.2215 193.331 80.477 193.881Z" fill="white" fill-opacity="0.4"/>
</g>
<g style="mix-blend-mode:hard-light">
<path fill-rule="evenodd" clip-rule="evenodd" d="M123.816 229.194C127.743 224.917 132.774 224.187 135.464 224.187C138.257 224.187 143.795 225.081 147.793 229.78C143.976 222.07 139.188 218.277 134.236 219.156C130.435 219.83 126.835 223.321 123.816 229.194Z" fill="white" fill-opacity="0.4"/>
</g>
<path opacity="0.2" fill-rule="evenodd" clip-rule="evenodd" d="M188.496 214.109C186.7 214.875 184.69 215.655 182.518 216.434C182.193 215.931 181.808 215.517 181.364 215.215C180.887 214.892 181.507 214.508 185.076 212.92C186 212.507 187.027 212.03 187.357 211.86L187.37 211.853C187.828 211.616 187.995 211.529 188.082 211.581C188.131 211.609 188.154 211.683 188.19 211.801L188.191 211.805C188.396 212.481 188.494 213.261 188.496 214.109ZM82.8221 213.913C84.6367 214.727 86.6606 215.551 88.8371 216.374C89.1529 215.899 89.5246 215.504 89.9497 215.217C90.4143 214.901 89.5657 214.372 86.3001 212.943C85.5406 212.61 84.5557 212.158 84.1115 211.938C84.0496 211.908 83.9923 211.879 83.9387 211.853C83.4552 211.613 83.2947 211.532 83.2199 211.582C83.1823 211.605 83.1664 211.661 83.1421 211.746C83.1367 211.764 83.131 211.784 83.1242 211.805C82.9349 212.428 82.8371 213.143 82.8221 213.913Z" fill="#22110C"/>
<path opacity="0.2" fill-rule="evenodd" clip-rule="evenodd" d="M108.789 243.568C108.406 247.649 109.818 252.21 110.47 254.317C110.581 254.676 110.67 254.962 110.725 255.164C111.19 256.893 106.133 259.625 87.584 251.255C94.4328 256.417 102.812 260.074 110.618 260.757C117.172 261.331 118.659 261.233 118.032 260.267C117.005 258.685 113.481 252.263 111.423 248.222C110.889 247.176 110.062 245.706 109.584 244.952C109.279 244.475 109.014 244.012 108.789 243.568Z" fill="#22110C"/>
<path opacity="0.2" fill-rule="evenodd" clip-rule="evenodd" d="M183.844 251.216C165.229 259.632 160.157 256.895 160.623 255.164C160.677 254.962 160.766 254.676 160.877 254.317C161.532 252.202 162.954 247.607 162.553 243.515C162.323 243.973 162.049 244.453 161.731 244.952C161.253 245.706 160.426 247.175 159.893 248.222C157.834 252.263 154.311 258.685 153.283 260.267C153.054 260.619 152.885 260.838 152.938 260.965C153.032 261.188 153.813 261.131 156.166 261.02C163.862 260.666 167.064 259.963 173.306 257.253C177.237 255.548 180.762 253.51 183.844 251.216Z" fill="#22110C"/>
<path opacity="0.2" fill-rule="evenodd" clip-rule="evenodd" d="M117.853 252.367C121.911 258.865 123.555 261.205 125.774 263.704C133.89 272.857 140.827 271.355 149.432 258.587C151.044 256.198 151.314 255.782 153.8 251.781C153.344 252.567 152.88 253.38 152.412 254.215C149.827 258.818 149.636 259.148 148.106 261.66C140.337 274.417 134.074 275.916 126.747 266.773C124.622 264.123 123.08 261.655 118.903 254.215C118.549 253.586 118.199 252.97 117.853 252.367Z" fill="#22110C"/>
<path d="M135.584 207.718C134.082 207.718 132.161 218.301 131.32 218.301L129.579 219.906L135.584 218.301L142.489 220.322C141.748 219.649 140.159 218.301 139.727 218.301C139.186 218.301 137.085 207.718 135.584 207.718Z" fill="black" fill-opacity="0.2"/>
<path d="M125.616 179.298C124.775 179.298 121.953 177.336 121.953 174.422C122.353 173.689 123.154 172.544 123.154 173.828C123.154 175.433 124.955 177.514 125.436 177.99C125.916 178.465 126.457 179.298 125.616 179.298Z" fill="black" fill-opacity="0.2"/>
<path d="M109.524 174.422C106.101 174.422 101.658 169.963 99.376 166.931L100.757 165.742L103.879 170.201L110.965 172.282L112.346 170.023C112.686 170.538 113.487 171.783 113.967 172.639C114.568 173.709 116.129 174.541 117.39 176.325C118.651 178.109 113.847 175.909 113.247 175.612C112.766 175.374 111.726 174.64 111.265 174.303C111.265 174.343 110.917 174.422 109.524 174.422Z" fill="black" fill-opacity="0.2"/>
<path d="M120.272 169.012C118.891 167.287 119.371 165.266 119.131 163.542L123.034 170.557L122.734 171.093L122.726 171.088C122.34 170.887 121.369 170.382 120.272 169.012Z" fill="black" fill-opacity="0.2"/>
<path d="M132.581 178.227C131.32 177.93 130.18 175.017 130.18 172.817L131.38 172.282L132.161 175.373C132.401 176.325 133.842 178.525 132.581 178.227Z" fill="black" fill-opacity="0.2"/>
<path d="M145.611 179.298C146.452 179.298 149.274 177.336 149.274 174.422C148.874 173.689 148.073 172.544 148.073 173.828C148.073 175.433 146.272 177.514 145.791 177.99C145.311 178.465 144.771 179.298 145.611 179.298Z" fill="black" fill-opacity="0.2"/>
<path d="M161.703 174.422C165.126 174.422 169.569 169.963 171.851 166.931L170.47 165.742L167.348 170.201L160.262 172.282L158.881 170.023C158.541 170.538 157.741 171.783 157.26 172.639C156.66 173.709 155.099 174.541 153.838 176.325C152.577 178.109 157.38 175.909 157.981 175.612C158.461 175.374 159.502 174.64 159.962 174.303C159.962 174.343 160.31 174.422 161.703 174.422Z" fill="black" fill-opacity="0.2"/>
<path d="M150.955 169.012C152.336 167.287 151.856 165.266 152.096 163.542L148.193 170.557L148.494 171.093L148.501 171.088C148.887 170.887 149.858 170.382 150.955 169.012Z" fill="black" fill-opacity="0.2"/>
<path d="M138.586 178.287C139.847 177.99 141.048 175.017 141.048 172.817L139.847 172.282L139.066 175.373C138.826 176.325 137.325 178.584 138.586 178.287Z" fill="black" fill-opacity="0.2"/>
<path opacity="0.2" d="M121.376 241.964C120.956 241.964 122.277 241.31 121.857 240.181C122.857 239.764 124.427 240.193 125.58 241.191C127.021 242.44 127.021 245.532 126.961 246.84C126.901 248.148 121.797 241.964 121.376 241.964Z" fill="#22110C"/>
<path opacity="0.2" d="M149.856 242.005C150.277 242.005 148.956 241.351 149.376 240.221C148.375 239.805 146.806 240.234 145.653 241.232C144.212 242.48 144.212 245.572 144.272 246.88C144.332 248.188 149.436 242.005 149.856 242.005Z" fill="#22110C"/>
<path opacity="0.2" fill-rule="evenodd" clip-rule="evenodd" d="M95.3497 211.792C102.659 216.122 109.764 220.331 109.764 225.554C109.764 225.722 109.761 225.89 109.756 226.053C107.38 221.125 102.227 217.33 92.2794 212.255C88.1515 210.149 88.1046 210.12 85.5228 208.064C79.1906 203.022 77.1423 197.221 79.8907 194.373C78.0417 201.539 86.8339 206.748 95.3497 211.792Z" fill="#22110C"/>
<path opacity="0.2" fill-rule="evenodd" clip-rule="evenodd" d="M80.0054 194.167L79.9488 194.387C79.0324 197.939 80.7492 201.013 83.7744 203.836C86.8001 206.659 91.1208 209.218 95.3804 211.741L95.3836 211.744C99.0357 213.907 102.643 216.043 105.336 218.294C108.029 220.543 109.824 222.915 109.824 225.554C109.824 225.724 109.821 225.89 109.816 226.053L109.702 226.077C107.335 221.172 102.2 217.383 92.2518 212.307C90.1889 211.255 89.1425 210.72 88.2895 210.191C87.4354 209.661 86.7755 209.138 85.4853 208.111C82.3134 205.585 80.2104 202.867 79.2455 200.417C78.2809 197.969 78.4507 195.778 79.8472 194.331L80.0054 194.167ZM79.3574 200.374C80.3126 202.799 82.3999 205.502 85.5604 208.018C86.8519 209.047 87.5062 209.565 88.3531 210.091C89.2008 210.616 90.2419 211.149 92.3069 212.203C102.106 217.201 107.27 220.968 109.702 225.807C109.703 225.722 109.704 225.639 109.704 225.554C109.704 222.972 107.946 220.628 105.259 218.384C102.574 216.141 98.9747 214.009 95.3189 211.844L95.3147 211.841C91.0597 209.32 86.7283 206.755 83.6921 203.922C80.7185 201.147 78.9743 198.104 79.777 194.586C78.5695 195.986 78.4404 198.046 79.3574 200.374Z" fill="#22110C"/>
<path opacity="0.2" fill-rule="evenodd" clip-rule="evenodd" d="M176.058 211.792C168.749 216.122 161.643 220.331 161.643 225.554C161.643 225.629 161.644 225.703 161.645 225.775C164.079 220.982 169.223 217.235 178.986 212.255C183.114 210.149 183.16 210.12 185.742 208.064C192.073 203.023 193.926 197.589 191.595 194.698C193.098 201.699 184.444 206.825 176.058 211.792Z" fill="#22110C"/>
<path opacity="0.2" fill-rule="evenodd" clip-rule="evenodd" d="M191.972 200.598C191.004 202.959 188.95 205.586 185.78 208.111C184.489 209.138 183.829 209.661 182.975 210.192C182.122 210.72 181.076 211.255 179.013 212.308C169.25 217.288 164.123 221.029 161.699 225.803L161.585 225.777C161.584 225.703 161.583 225.629 161.583 225.554C161.583 222.915 163.378 220.543 166.071 218.294C168.765 216.043 172.372 213.907 176.024 211.744L176.027 211.741C180.222 209.257 184.476 206.736 187.494 203.964C190.513 201.192 192.28 198.18 191.536 194.712L191.641 194.662C192.825 196.129 192.939 198.236 191.972 200.598ZM191.704 194.942C192.704 196.354 192.774 198.325 191.861 200.553C190.903 202.89 188.865 205.502 185.704 208.018C184.413 209.047 183.759 209.565 182.912 210.091C182.064 210.616 181.023 211.149 178.958 212.202C169.343 217.107 164.192 220.823 161.704 225.533C161.714 222.957 163.469 220.622 166.149 218.383C168.834 216.141 172.433 214.009 176.089 211.843L176.093 211.841C180.283 209.359 184.547 206.833 187.575 204.051C190.532 201.336 192.323 198.364 191.704 194.942Z" fill="#22110C"/>
<g style="mix-blend-mode:multiply">
<path fill-rule="evenodd" clip-rule="evenodd" d="M77.2095 209.871C77.137 215.763 77.3632 241.192 107.542 241.192C107.666 241.192 107.789 241.192 107.911 241.192C107.62 239.627 108.005 238.323 109.061 237.206C110.132 236.072 109.459 230.712 107.841 227.472C107.412 226.612 107.229 226.219 107.034 226.213C106.865 226.208 106.687 226.495 106.334 227.026C97.5722 240.157 79.6969 230.109 80.059 212.256C80.1144 209.532 80.1144 209.532 79.3561 208.929C78.8036 208.491 78.6363 208.339 78.5129 208.368C78.4384 208.385 78.3799 208.469 78.2629 208.595C77.8941 208.993 77.543 209.419 77.2095 209.871Z" fill="black" fill-opacity="0.2"/>
</g>
<path opacity="0.2" fill-rule="evenodd" clip-rule="evenodd" d="M194.251 210.376C194.297 216.914 193.474 241.311 163.914 241.311C163.718 241.311 163.524 241.311 163.332 241.308C163.665 239.692 163.287 238.353 162.204 237.206C161.134 236.072 161.806 230.712 163.425 227.472C163.853 226.612 164.037 226.219 164.231 226.213C164.4 226.208 164.578 226.495 164.932 227.026C173.693 240.157 191.568 230.109 191.207 212.256C191.167 210.319 191.155 209.759 191.416 209.384C191.521 209.231 191.671 209.11 191.884 208.937C192.28 208.615 192.494 208.413 192.698 208.421C192.997 208.434 193.276 208.902 194.08 210.117C194.138 210.204 194.195 210.291 194.251 210.376Z" fill="#22110C"/>
<path opacity="0.2" fill-rule="evenodd" clip-rule="evenodd" d="M130.407 146.23C130.226 147.583 130.516 149.201 131.32 150.964C131.922 152.284 131.922 152.284 132.846 152.294C133.676 152.302 133.864 152.351 134.701 152.774C135.632 153.245 135.632 153.245 136.563 152.774C137.4 152.351 137.588 152.302 138.418 152.294C139.342 152.284 139.342 152.284 139.944 150.964C140.747 149.2 141.008 147.573 140.808 146.213C140.41 148.414 139.491 151.292 137.43 151.532C136.538 151.718 135.918 151.729 135.703 151.711L135.689 151.71H135.523H135.509C135.294 151.728 134.674 151.718 133.782 151.532C131.727 151.292 130.807 148.429 130.407 146.23ZM142.447 152.842C143.477 151.252 143.907 149.733 144.005 147.341L144.056 146.084C144.451 148.239 144.346 151.255 142.54 153.816C142.072 153.421 142.094 153.387 142.447 152.842ZM149.785 150.816C149.702 151.915 149.356 153.131 148.723 154.401C148.655 154.537 148.594 154.661 148.539 154.773C148.199 155.463 148.066 155.733 147.861 155.805C147.73 155.852 147.568 155.816 147.302 155.757C147.234 155.742 147.16 155.725 147.078 155.708C146.437 155.576 146.083 155.562 145.643 155.652C145.528 155.675 145.423 155.697 145.327 155.717C145.306 155.722 145.287 155.726 145.267 155.73C145.345 155.494 145.958 155.302 146.582 155.106C147.169 154.922 147.766 154.734 147.938 154.504C148.794 153.363 149.447 152.211 149.785 150.816ZM152.324 150.387C152.316 152.026 151.368 154.711 150.302 156.115C149.846 156.716 149.815 156.756 150.394 157.374C151.621 155.618 152.899 152.16 152.415 150.276C152.357 150.304 152.325 150.341 152.324 150.387ZM159.902 155.952C159.745 156.958 159.184 159.075 158.326 159.975C157.306 161.045 156.885 161.164 156.045 160.807C155.545 160.595 154.815 160.698 154.284 160.838C155.248 160.874 156.119 161.13 156.92 161.609L156.946 161.625L156.991 161.652C157.282 161.827 157.444 161.924 157.591 161.906C157.775 161.884 157.936 161.684 158.298 161.237L158.334 161.192L158.369 161.149C159.585 159.649 160.069 157.735 159.902 155.952ZM168.616 162.388C168.404 164.048 167.799 167 165.472 168.952C163.282 170.79 161.629 170.914 161.269 168.298C161.234 168.046 161.185 167.912 161.127 167.873C161.235 168.796 161.19 169.727 160.972 170.573C160.839 171.084 160.731 171.518 160.731 171.536C160.731 171.83 163.997 170.473 165.141 169.703C167.77 167.936 168.922 165.021 168.616 162.388ZM162.408 157.944C162.124 159.787 161.454 161.098 160.064 162.538C159.17 163.465 159.17 163.465 159.546 163.927C159.586 163.977 159.626 164.027 159.665 164.078C160.862 162.874 162.195 160.574 162.408 157.944ZM150.39 163.521C150.168 164.779 149.802 166.156 149.259 166.812C148.179 168.12 146.737 168.477 145.597 168.298C145.023 168.209 144.072 168.459 143.241 168.75C144.927 168.679 146.208 169.009 147.32 169.769C147.592 169.955 147.813 170.035 147.86 169.966C147.905 169.901 148.167 169.557 148.444 169.2C149.665 167.622 150.328 165.474 150.39 163.521ZM140.697 168.168C142.425 167.266 145.196 164.851 145.162 161.007C144.827 163.781 143.178 166.238 140.586 167.721C140.555 167.739 140.611 167.935 140.697 168.168ZM142.887 161.266C142.354 162.824 141.167 165.275 139.292 164.612C137.611 164.017 136.59 163.899 135.749 163.899C135.695 163.899 135.648 163.904 135.606 163.913C135.564 163.904 135.517 163.899 135.463 163.899C134.622 163.899 133.602 164.017 131.92 164.612C130.228 165.21 129.097 163.273 128.5 161.744C128.778 162.894 129.35 164.143 130.219 165.443C130.763 166.257 130.964 166.558 131.123 166.537C131.216 166.525 131.294 166.403 131.418 166.209C133.207 163.415 138.057 163.415 139.846 166.209C140.332 166.969 142.292 164.072 142.789 161.857C142.834 161.66 142.866 161.463 142.887 161.266ZM120.825 163.534C120.845 165.405 121.488 167.478 122.821 169.2C123.097 169.557 123.359 169.901 123.404 169.966C123.452 170.035 123.672 169.955 123.944 169.769C125.043 169.018 126.307 168.687 127.965 168.748C127.135 168.457 126.187 168.209 125.616 168.298C124.475 168.477 123.034 168.12 121.953 166.812C121.412 166.158 121.047 164.789 120.825 163.534ZM126.063 160.612C125.825 164.718 128.776 167.277 130.559 168.191C130.65 167.948 130.71 167.74 130.678 167.721C127.963 166.168 126.283 163.546 126.063 160.612ZM120.84 157.405C121.45 156.758 121.426 156.726 120.963 156.115C119.897 154.711 118.949 152.026 118.94 150.387C118.94 150.362 118.882 150.343 118.784 150.33C118.335 152.236 119.618 155.676 120.84 157.405ZM111.317 155.995C111.133 157.722 111.62 159.575 112.895 161.149C112.92 161.179 112.943 161.209 112.966 161.237C113.328 161.684 113.49 161.884 113.673 161.906C113.82 161.924 113.982 161.827 114.273 161.652C114.296 161.638 114.32 161.624 114.344 161.609C115.133 161.138 115.989 160.882 116.935 160.84C116.404 160.699 115.67 160.594 115.168 160.807C114.327 161.164 113.907 161.045 112.886 159.975C112.04 159.088 111.483 157.017 111.317 155.995ZM121.558 151.294C121.686 152.281 122.01 153.334 122.541 154.401C122.609 154.537 122.67 154.661 122.726 154.773C123.065 155.462 123.198 155.733 123.403 155.805C123.535 155.852 123.696 155.816 123.963 155.757C124.03 155.742 124.104 155.725 124.186 155.708C124.828 155.576 125.182 155.562 125.621 155.652C125.736 155.675 125.841 155.697 125.937 155.717C125.939 155.718 125.94 155.718 125.941 155.718C125.847 155.488 125.244 155.299 124.63 155.106C124.044 154.922 123.446 154.734 123.274 154.504C122.518 153.496 121.92 152.479 121.558 151.294ZM127.115 146.32C127.199 146.586 127.242 146.928 127.26 147.355C127.357 149.732 127.79 151.255 128.817 152.842C129.178 153.399 129.193 153.423 128.692 153.843C126.932 151.368 126.77 148.463 127.115 146.32ZM110.139 167.862C110.058 167.843 109.988 167.972 109.944 168.298C109.583 170.914 107.93 170.79 105.74 168.952C103.592 167.15 102.912 164.496 102.653 162.793C102.524 165.304 103.627 168.025 106.123 169.703C107.267 170.473 110.533 171.83 110.533 171.536C110.533 171.518 110.425 171.084 110.293 170.573C110.073 169.724 110.029 168.789 110.139 167.862ZM111.577 164.108C111.622 164.047 111.669 163.987 111.717 163.929C112.092 163.468 112.092 163.468 111.15 162.483C109.754 161.023 108.999 159.453 108.791 157.582C108.786 157.541 108.782 157.502 108.778 157.465C108.856 160.315 110.3 162.84 111.577 164.108Z" fill="#22110C"/>
<path d="M180.018 220.322C180.018 218.878 181.227 217.706 182.72 217.706C184.212 217.706 185.422 218.878 185.422 220.322C185.422 221.768 184.212 222.938 182.72 222.938C181.227 222.938 180.018 221.768 180.018 220.322Z" fill="#F1F1F1"/>
<path d="M85.7457 220.322C85.7457 218.878 86.9553 217.706 88.4477 217.706C89.94 217.706 91.1496 218.878 91.1496 220.322C91.1496 221.768 89.94 222.938 88.4477 222.938C86.9553 222.938 85.7457 221.768 85.7457 220.322Z" fill="#F1F1F1"/>
<path d="M92.9509 222.7C92.9509 222.307 92.6014 221.987 92.1704 221.987C91.7391 221.987 91.3896 222.307 91.3896 222.7C91.3896 223.095 91.7391 223.414 92.1704 223.414C92.6014 223.414 92.9509 223.095 92.9509 222.7Z" fill="#F1F1F1"/>
</g>
<path d="M67.8519 206.545C67.8519 187.781 52.6627 172.57 33.9259 172.57C15.1892 172.57 0 187.781 0 206.545C0 225.309 15.1892 240.52 33.9259 240.52C52.6627 240.52 67.8519 225.309 67.8519 206.545Z" fill="#FF006E" fill-opacity="0.1"/>
<path d="M135.704 34.5451C135.704 15.7811 120.515 0.569824 101.778 0.569824C83.041 0.569824 67.8519 15.7811 67.8519 34.5451C67.8519 53.3092 83.041 68.5204 101.778 68.5204C120.515 68.5204 135.704 53.3092 135.704 34.5451Z" fill="#FF006E" fill-opacity="0.1"/>
<path d="M203.556 34.5451C203.556 15.7811 188.366 0.569824 169.63 0.569824C150.893 0.569824 135.704 15.7811 135.704 34.5451C135.704 53.3092 150.893 68.5204 169.63 68.5204C188.366 68.5204 203.556 53.3092 203.556 34.5451Z" fill="#FF006E" fill-opacity="0.1"/>
<path d="M271.407 206.545C271.407 187.781 256.218 172.57 237.481 172.57C218.745 172.57 203.556 187.781 203.556 206.545C203.556 225.309 218.745 240.52 237.481 240.52C256.218 240.52 271.407 225.309 271.407 206.545Z" fill="#FF006E" fill-opacity="0.1"/>
<path d="M135.704 310.594C135.704 291.83 120.515 276.619 101.778 276.619C83.041 276.619 67.8519 291.83 67.8519 310.594C67.8519 329.358 83.041 344.57 101.778 344.57C120.515 344.57 135.704 329.358 135.704 310.594Z" fill="#FF006E" fill-opacity="0.1"/>
<path d="M203.556 310.594C203.556 291.83 188.366 276.619 169.63 276.619C150.893 276.619 135.704 291.83 135.704 310.594C135.704 329.358 150.893 344.57 169.63 344.57C188.366 344.57 203.556 329.358 203.556 310.594Z" fill="#FF006E" fill-opacity="0.1"/>
</g>
<line x1="271.91" y1="344.57" x2="271.91" y2="0.569824" stroke="#DFE5EB"/>
<path d="M449.26 46.5698L558.379 109.57V235.57L449.26 298.57L340.141 235.57V109.57L449.26 46.5698Z" fill="#DFE5EB"/>
<path d="M460.34 211.732C470.691 203.911 485.627 191.668 491.851 181.876C496.509 174.561 498.024 165.498 495.998 157.072C491.67 137.877 467.703 130.033 452.774 142.896C451.935 143.615 451.161 144.412 450.366 145.23C450.042 145.564 449.714 145.901 449.377 146.238C449.04 145.901 448.712 145.564 448.388 145.23C447.593 144.412 446.819 143.615 445.98 142.896C431.051 130.033 407.084 137.877 402.756 157.072C400.73 165.498 402.245 174.561 406.903 181.876C413.127 191.668 428.063 203.911 438.414 211.732C441.298 213.911 449.377 219.588 449.377 219.588C449.377 219.588 457.456 213.911 460.34 211.732Z" fill="white"/>
<path d="M340.262 206.564C340.262 187.8 325.073 172.588 306.336 172.588C287.599 172.588 272.41 187.8 272.41 206.564C272.41 225.328 287.599 240.539 306.336 240.539C325.073 240.539 340.262 225.328 340.262 206.564Z" fill="#FF006E" fill-opacity="0.1"/>
<defs>
<clipPath id="clip0_3854_1596">
<rect width="271.41" height="344" fill="white" transform="translate(0 0.569824)"/>
</clipPath>
</defs>
</svg>
