<svg width="1130" height="1750" viewBox="0 0 1130 1750" fill="none" xmlns="http://www.w3.org/2000/svg">
<path fill-rule="evenodd" clip-rule="evenodd" d="M541.115 1.22905C312.203 24.036 304.142 366.765 531.615 405.118C541.922 406.855 545.188 407.768 545.424 408.977C545.595 409.848 544.766 427.13 543.584 447.382C542.401 467.634 540.912 507.455 540.274 535.872C539.637 564.289 538.89 587.705 538.615 587.908C538.34 588.11 534.623 590.011 530.354 592.132C522.356 596.107 511.839 604.834 507.61 611.006C505.239 614.467 505.239 614.467 490.677 614.949C467.685 615.709 453.672 621.392 440.948 635.116C437.42 638.922 434.19 641.619 433.761 641.116C433.332 640.615 420.065 620.854 404.277 597.204C388.49 573.554 370.564 546.922 364.443 538.023L353.312 521.841L359.844 514.523C481.647 378.037 311.33 172.473 166.501 281.168C22.342 389.361 151.547 616.309 317.298 546.043C317.98 545.754 330.293 561.325 346.422 582.873C361.79 603.405 380.986 628.719 389.08 639.127C397.174 649.535 404.479 659.093 405.314 660.367C407.029 662.984 407.582 662.604 398.31 665.179C372.603 672.32 348.366 693.899 343.562 713.924C342.932 716.553 341.898 718.718 341.265 718.735C297.823 719.901 264.579 752.532 264.11 794.468C263.95 808.732 263.95 808.732 258.033 812.284C204.189 844.603 131.139 953.027 125.923 1008.37C125.152 1016.55 125.456 1016.28 114.801 1018.12C90.758 1022.27 76.7131 1031.05 61.9031 1051.18C43.1481 1076.68 41.418 1098.6 55.7191 1129.55C60.5631 1140.04 60.8291 1138.18 52.8441 1149.56C-31.593 1269.85 -14.003 1411.01 99.5971 1524.74C173.895 1599.12 278.188 1644.47 395.115 1653.22C439.761 1656.56 444.872 1658.26 456.371 1673.58C531.982 1774.28 597.248 1774.28 672.859 1673.58C684.358 1658.26 689.469 1656.56 734.115 1653.22C908.886 1640.14 1055.11 1543.25 1109.92 1404.2C1144.86 1315.57 1133.77 1231.42 1076.36 1149.48C1068.4 1138.11 1068.67 1140.02 1073.51 1129.55C1087.81 1098.6 1086.08 1076.68 1067.33 1051.18C1052.52 1031.05 1038.47 1022.27 1014.43 1018.12C1003.77 1016.28 1004.08 1016.55 1003.31 1008.37C1001.6 990.224 982.39 943.652 964.064 913.208C941.543 875.796 897.787 828.245 871.197 812.284C865.28 808.732 865.28 808.732 865.12 794.468C864.651 752.532 831.407 719.901 787.965 718.735C787.332 718.718 786.298 716.553 785.668 713.924C780.864 693.899 756.627 672.32 730.92 665.179C721.648 662.604 722.201 662.984 723.916 660.367C724.751 659.093 732.056 649.535 740.15 639.127C748.244 628.719 767.44 603.405 782.808 582.873C798.937 561.325 811.25 545.754 811.932 546.043C977.683 616.309 1106.89 389.361 962.729 281.168C817.9 172.473 647.583 378.037 769.386 514.523L775.918 521.841L764.787 538.023C758.666 546.922 740.74 573.554 724.953 597.204C709.165 620.854 695.898 640.615 695.469 641.116C695.04 641.619 691.81 638.922 688.282 635.116C675.558 621.392 661.545 615.709 638.553 614.949C623.991 614.467 623.991 614.467 621.653 611.054C615.527 602.114 601.411 591.96 589.992 588.279C584.868 586.627 584.868 586.627 584.992 525.916C585.06 492.524 584.89 452.199 584.615 436.303L584.115 407.402L597.615 405.122C853.455 361.906 799.401 -24.504 541.115 1.22905ZM534.826 51.2521C447.054 67.2875 389.371 149.365 405.115 229.692C406.251 235.485 407.768 241.27 409.684 247.02C455.547 384.676 673.683 384.676 719.546 247.02C721.483 241.207 723.014 235.389 724.161 229.587C744.257 127.848 645.827 30.9736 534.826 51.2521ZM240.115 303.244C175.294 315.366 136.932 381.883 152.916 438.285C155.989 449.128 161.071 459.598 168.36 469.235C219.928 537.419 312.784 530.541 351.042 455.704C354.391 449.153 356.95 442.481 358.778 435.767C378.109 364.768 315.655 289.119 240.115 303.244ZM854.27 303.301C789.607 314.984 756.095 378.801 770.535 435.67C775.361 454.674 785.542 472.903 801.705 488.15C848.2 532.011 919.83 523.499 960.87 469.235C968.166 459.588 973.225 449.265 976.299 438.658C996.233 369.871 932.676 289.135 854.27 303.301ZM553.736 620.765C522.091 626.411 511.872 656.027 528.708 693.305C533.721 704.406 533.721 704.406 541.414 704.486C548.324 704.558 549.896 704.969 556.861 708.527C564.615 712.489 564.615 712.489 572.369 708.527C579.334 704.969 580.906 704.558 587.816 704.486C595.509 704.406 595.509 704.406 600.518 693.305C621.17 647.531 598.731 612.737 553.736 620.765ZM472.566 650.066C446.64 657.058 439.16 688.871 455.606 722.204C462.414 736.003 461.064 734.92 469.306 733.201C474.646 732.088 477.594 731.97 481.255 732.725C493.272 735.2 491.799 735.602 496.893 728.463C499.424 724.915 503.635 720.207 506.25 718C511.005 713.986 511.005 713.986 507.868 709.095C499.31 695.752 495.708 682.938 494.898 662.954C494.289 647.907 489.919 645.386 472.566 650.066ZM634.336 662.832C633.522 682.947 629.939 695.723 621.362 709.095C618.225 713.986 618.225 713.986 622.98 718C625.595 720.207 629.806 724.915 632.337 728.463C637.431 735.602 635.958 735.2 647.975 732.725C651.636 731.97 654.584 732.088 659.924 733.201C668.166 734.92 666.816 736.003 673.624 722.204C692.845 683.245 680.278 650.328 645.637 648.901L634.918 648.46L634.336 662.832ZM401.615 689.275C362.868 699.415 349.097 746.32 375.285 778.954C381.527 786.732 381.106 786.598 387.35 782.825C397.05 776.964 407.984 775.078 420.736 777.067C425.356 777.788 425.356 777.788 426.527 773.139C428.494 765.327 434.281 755.134 440.56 748.421C446.531 742.039 446.531 742.039 442.463 736.624C433.587 724.812 425.693 702.235 425.619 688.454C425.612 687.149 407.351 687.774 401.615 689.275ZM703.611 688.454C703.537 702.235 695.643 724.812 686.767 736.624C682.699 742.039 682.699 742.039 688.67 748.421C694.949 755.134 700.736 765.327 702.703 773.139C703.874 777.788 703.874 777.788 708.494 777.067C721.246 775.078 732.18 776.964 741.88 782.825C748.124 786.598 747.703 786.732 753.945 778.954C775.769 751.758 769.263 708.417 741.303 694.732C729.297 688.855 703.632 684.581 703.611 688.454ZM525.843 736.178C498.625 748.849 496.155 779.744 519.536 815.063C526.725 825.922 526.725 825.922 529.527 821.504C544.425 798.013 584.805 798.013 599.703 821.504C603.755 827.893 620.069 803.535 624.213 784.906C631.611 751.654 599.174 717.834 580.836 739.681C576.935 744.328 572.143 752.862 570.251 758.532C566.586 769.515 562.644 769.515 558.979 758.532C556.049 749.752 549.87 740.283 544.23 735.931C540.219 732.835 532.81 732.935 525.843 736.178ZM332.615 742.926C283.168 749.424 274.134 820.498 318.892 850.892C328.421 857.363 355.615 868.773 355.615 866.3C355.615 866.148 354.715 862.505 353.615 858.204C348.925 839.865 353.823 816.782 365.472 802.329C368.596 798.453 368.596 798.453 360.753 790.168C349.132 777.891 342.84 764.692 341.107 748.952C340.289 741.527 340.753 741.856 332.615 742.926ZM789.079 743.113C788.885 743.713 788.248 747.463 787.663 751.447C785.344 767.234 779.769 778.378 768.057 790.637C760.614 798.427 760.614 798.427 763.747 802.316C775.407 816.783 780.307 839.858 775.615 858.204C774.515 862.505 773.615 866.148 773.615 866.3C773.615 868.773 800.809 857.363 810.338 850.892C849.991 823.964 849.303 765.342 809.115 746.604C802.487 743.514 789.669 741.28 789.079 743.113ZM469.217 755.82C437.764 760.347 431.351 811.976 457.934 846.659C460.234 849.659 462.419 852.556 462.79 853.097C463.19 853.679 465.023 853.005 467.29 851.441C480.101 842.603 495.604 840.684 519.02 845.036C519.797 845.18 524.04 834.614 523.362 834.222C497.897 819.507 483.366 793.389 484.831 764.966C485.255 756.727 485.255 756.727 481.685 756.128C479.722 755.799 477.44 755.404 476.615 755.25C475.79 755.097 472.461 755.353 469.217 755.82ZM652.115 755.269C651.565 755.418 649.508 755.807 647.545 756.134C643.975 756.727 643.975 756.727 644.399 764.966C645.864 793.389 631.333 819.507 605.868 834.222C605.19 834.614 609.433 845.18 610.21 845.036C633.626 840.684 649.129 842.603 661.94 851.441C664.207 853.005 666.04 853.679 666.44 853.097C666.811 852.556 668.996 849.659 671.296 846.659C690.834 821.167 693.212 777.963 675.915 762.737C670.564 758.027 657.296 753.864 652.115 755.269ZM405.418 797.103C366.871 807.481 364.171 860.75 400.463 894.852C426.694 919.5 401.075 913.722 372.504 888.546C364.758 881.72 364.758 881.72 358.855 882.337C334.743 884.857 297.601 863.536 277.797 835.805C273.227 829.406 273.227 829.406 270.32 832.805C229.145 880.94 205.709 924.039 179.022 1000.7C172.417 1019.68 172.351 1018.2 179.865 1019.63C308.093 1043.97 392.704 1180.59 395.339 1367.56C395.914 1408.39 394.894 1405.94 409.097 1400.63C417.769 1397.38 419.526 1394.91 426.612 1376.04C459.035 1289.66 486.33 1255.41 532.061 1243.72C541.524 1241.3 541.247 1241.48 542.056 1237.17C543.883 1227.43 554.165 1201.93 557.868 1197.95C566.803 1188.36 581.777 1208.4 587.174 1237.17C587.983 1241.48 587.706 1241.3 597.169 1243.72C642.9 1255.41 670.195 1289.66 702.618 1376.04C709.704 1394.91 711.461 1397.38 720.133 1400.63C734.336 1405.94 733.316 1408.39 733.891 1367.56C736.527 1180.58 821.129 1043.97 949.365 1019.63C956.879 1018.2 956.813 1019.68 950.208 1000.7C923.521 924.039 900.085 880.94 858.91 832.805C856.003 829.406 856.003 829.406 851.433 835.805C831.629 863.536 794.487 884.857 770.375 882.337C764.472 881.72 764.472 881.72 756.726 888.546C728.155 913.722 702.536 919.5 728.767 894.852C754.953 870.246 761.563 844.84 748.5 819.003C738.15 798.53 706.22 786.26 704.192 801.976C700.948 827.116 691.009 846.456 676.041 856.755C671.681 859.755 671.681 859.755 675.398 866.479C683.949 881.95 679.724 902.058 664.739 917.206C652.06 930.022 641.874 930.861 653.508 918.13C668.77 901.432 667.709 881.076 651.322 876.21C641.519 873.299 610.615 874.534 610.615 877.837C610.615 885.35 600.682 908.447 594.784 914.647C587.47 922.336 585.937 919.001 590.975 906.358C606.408 867.625 593.544 830.706 564.615 830.706C535.686 830.706 522.822 867.625 538.255 906.358C543.293 919.001 541.76 922.336 534.446 914.647C528.548 908.447 518.615 885.35 518.615 877.837C518.615 874.534 487.711 873.299 477.908 876.21C461.521 881.076 460.46 901.432 475.722 918.13C487.356 930.861 477.17 930.022 464.491 917.206C449.506 902.058 445.281 881.95 453.832 866.479C457.549 859.755 457.549 859.755 453.189 856.755C438.236 846.467 428.28 827.11 425.046 802.04C424.515 797.918 423.95 796.76 422.248 796.304C418.734 795.361 410.425 795.755 405.418 797.103ZM129.763 1044.66C70.7551 1054.03 79.6301 1119.03 147.354 1173.49C168.852 1190.78 169.242 1191.02 203.615 1208.73C330.329 1274.02 363.615 1314.14 363.615 1401.61C363.615 1407.62 367.883 1409.46 373.865 1406.02C374.943 1405.4 374.772 1363.56 373.601 1341.2C368.1 1236.2 326.034 1138.05 265.732 1089.53C225.844 1057.43 168.507 1038.51 129.763 1044.66ZM969.115 1044.33C859.689 1055.98 776.484 1160.69 758.146 1309.82C755.228 1333.56 753.169 1404.75 755.365 1406.02C761.347 1409.46 765.615 1407.62 765.615 1401.61C765.615 1314.13 798.879 1274.03 925.615 1208.73C959.988 1191.02 960.378 1190.78 981.876 1173.49C1063.04 1108.23 1055.81 1035.1 969.115 1044.33ZM86.899 1177.95C40.869 1228.13 27.3041 1331.77 57.0911 1405.7C98.9001 1509.48 235.696 1605.96 356.115 1616.61C410.684 1621.43 423.072 1620.61 417.852 1612.48C409.293 1599.17 379.953 1545.18 362.811 1511.2C358.371 1502.4 351.481 1490.03 347.5 1483.7C329.616 1455.29 328.303 1434.64 343.358 1418.55C352.27 1409.02 346.672 1363.95 333.192 1336.69C326.527 1323.21 326.987 1323.35 320.644 1332.95C247.688 1443.38 98.8401 1358.87 101.857 1208.74C102.318 1185.83 102.318 1185.83 96.0031 1180.76C88.6321 1174.86 89.495 1175.12 86.899 1177.95ZM1033.01 1180.83C1026.91 1185.83 1026.91 1185.83 1027.37 1208.74C1030.39 1358.87 881.541 1443.37 808.586 1332.95C802.243 1323.35 802.703 1323.21 796.038 1336.69C782.558 1363.95 776.96 1409.02 785.872 1418.55C800.927 1434.64 799.614 1455.29 781.73 1483.7C777.749 1490.03 770.859 1502.4 766.419 1511.2C749.277 1545.18 719.937 1599.17 711.378 1612.48C706.125 1620.66 704.655 1620.27 735.386 1618.83C799.473 1615.84 826.133 1609.92 878.115 1587.14C1066.07 1504.8 1142.5 1329.87 1051.31 1190.75C1040.04 1173.55 1041.15 1174.16 1033.01 1180.83ZM127.17 1204.95C117.478 1237.12 136.664 1297.75 166.375 1328.85C175.6 1338.5 176.154 1338.56 172.468 1329.51C157.655 1293.11 163.086 1247.97 184.004 1233.64C187.873 1230.99 180.808 1226.54 153.615 1214.52C147.29 1211.72 139.089 1207.92 135.39 1206.07C127.406 1202.07 128.013 1202.16 127.17 1204.95ZM995.115 1205.41C992.365 1206.84 983.815 1210.85 976.115 1214.32C946.4 1227.68 941.235 1230.91 945.209 1233.63C966.144 1247.97 971.581 1293.09 956.762 1329.51C953.076 1338.56 953.63 1338.5 962.855 1328.85C992.566 1297.75 1011.75 1237.12 1002.06 1204.95C1001.23 1202.2 1001.27 1202.2 995.115 1205.41ZM552.779 1266.76C514.513 1273.61 478.7 1315.08 450.927 1384.7C437.002 1419.61 429.761 1424.66 383.615 1431.68C353.249 1436.3 351.247 1443.7 372.116 1474.15C387.205 1496.17 405.635 1526.59 425.1 1561.59C459.888 1624.16 472.725 1644.91 490.416 1667.2C551.431 1744.09 603.581 1731.48 668.275 1624.2C681.014 1603.08 682.604 1600.3 704.13 1561.59C723.595 1526.59 742.025 1496.17 757.114 1474.15C777.983 1443.7 775.981 1436.3 745.615 1431.68C699.469 1424.66 692.228 1419.61 678.303 1384.7C644.821 1300.77 599.684 1258.36 552.779 1266.76ZM451.117 1432.28C441.771 1437.15 438.401 1446.5 442.752 1455.49C446.202 1462.61 455.702 1466.16 461.549 1462.51C463.157 1461.51 464.372 1461.88 469.286 1464.89C486.854 1475.63 493.551 1473.55 488.089 1459.04C479.756 1436.9 464.053 1425.54 451.117 1432.28ZM660.922 1432.73C650.2 1438.18 636.489 1461.47 639.853 1468.53C642.287 1473.63 647.062 1472.77 659.944 1464.89C664.858 1461.88 666.073 1461.51 667.681 1462.51C673.528 1466.16 683.028 1462.61 686.478 1455.49C693.929 1440.1 676.667 1424.72 660.922 1432.73Z" fill="#264653"/>
<path d="M652.115 755.269C651.565 755.418 649.508 755.807 647.545 756.134C643.975 756.727 643.975 756.727 644.399 764.966C645.864 793.389 631.333 819.507 605.868 834.222C605.19 834.614 609.433 845.18 610.21 845.036C633.626 840.684 649.129 842.603 661.94 851.441C664.207 853.005 666.04 853.679 666.44 853.097C666.811 852.556 668.996 849.659 671.296 846.659C690.834 821.167 693.212 777.963 675.915 762.737C670.564 758.027 657.296 753.864 652.115 755.269Z" fill="#00AFB9"/>
<path d="M789.079 743.113C788.885 743.713 788.248 747.463 787.663 751.447C785.344 767.234 779.769 778.378 768.057 790.637C760.614 798.427 760.614 798.427 763.747 802.316C775.407 816.783 780.307 839.858 775.615 858.204C774.515 862.505 773.615 866.148 773.615 866.3C773.615 868.773 800.809 857.363 810.338 850.892C849.991 823.964 849.303 765.342 809.115 746.604C802.487 743.514 789.669 741.28 789.079 743.113Z" fill="#00AFB9"/>
<path d="M703.611 688.454C703.537 702.235 695.643 724.812 686.767 736.624C682.699 742.039 682.699 742.039 688.67 748.421C694.949 755.134 700.736 765.327 702.703 773.139C703.874 777.788 703.874 777.788 708.494 777.067C721.246 775.078 732.18 776.964 741.88 782.825C748.124 786.598 747.703 786.732 753.945 778.954C775.769 751.758 769.263 708.417 741.303 694.732C729.297 688.855 703.632 684.581 703.611 688.454Z" fill="#00AFB9"/>
<path d="M634.336 662.832C633.522 682.947 629.939 695.723 621.362 709.095C618.225 713.986 618.225 713.986 622.98 718C625.595 720.207 629.806 724.915 632.337 728.463C637.431 735.602 635.958 735.2 647.975 732.725C651.636 731.97 654.584 732.088 659.924 733.201C668.166 734.92 666.816 736.003 673.624 722.204C692.845 683.245 680.278 650.328 645.637 648.901L634.918 648.46L634.336 662.832Z" fill="#00AFB9"/>
<path d="M553.736 620.765C522.091 626.411 511.872 656.027 528.708 693.305C533.721 704.406 533.721 704.406 541.414 704.486C548.324 704.558 549.896 704.969 556.861 708.527C564.615 712.489 564.615 712.489 572.369 708.527C579.334 704.969 580.906 704.558 587.816 704.486C595.509 704.406 595.509 704.406 600.518 693.305C621.17 647.531 598.731 612.737 553.736 620.765Z" fill="#00AFB9"/>
<path d="M525.843 736.178C498.625 748.849 496.155 779.744 519.536 815.063C526.725 825.922 526.725 825.922 529.527 821.504C544.425 798.013 584.805 798.013 599.703 821.504C603.755 827.893 620.069 803.535 624.213 784.906C631.611 751.654 599.174 717.834 580.836 739.681C576.935 744.328 572.143 752.862 570.251 758.532C566.586 769.515 562.644 769.515 558.979 758.532C556.049 749.752 549.87 740.283 544.23 735.931C540.219 732.835 532.81 732.935 525.843 736.178Z" fill="#00AFB9"/>
<path d="M469.217 755.82C437.764 760.347 431.351 811.976 457.934 846.659C460.234 849.659 462.419 852.556 462.79 853.097C463.19 853.679 465.023 853.005 467.29 851.441C480.101 842.603 495.604 840.684 519.02 845.036C519.797 845.18 524.04 834.614 523.362 834.222C497.897 819.507 483.366 793.389 484.831 764.966C485.255 756.727 485.255 756.727 481.685 756.128C479.722 755.799 477.44 755.404 476.615 755.25C475.79 755.097 472.461 755.353 469.217 755.82Z" fill="#00AFB9"/>
<path d="M401.615 689.275C362.868 699.415 349.097 746.32 375.285 778.954C381.527 786.732 381.106 786.598 387.35 782.825C397.05 776.964 407.984 775.078 420.736 777.067C425.356 777.788 425.356 777.788 426.527 773.139C428.494 765.327 434.281 755.134 440.56 748.421C446.531 742.039 446.531 742.039 442.463 736.624C433.587 724.812 425.693 702.235 425.619 688.454C425.612 687.149 407.351 687.774 401.615 689.275Z" fill="#00AFB9"/>
<path d="M472.566 650.066C446.64 657.058 439.16 688.871 455.606 722.204C462.414 736.003 461.064 734.92 469.306 733.201C474.646 732.088 477.594 731.97 481.255 732.725C493.272 735.2 491.799 735.602 496.893 728.463C499.424 724.915 503.635 720.207 506.25 718C511.005 713.986 511.005 713.986 507.868 709.095C499.31 695.752 495.708 682.938 494.898 662.954C494.289 647.907 489.919 645.386 472.566 650.066Z" fill="#00AFB9"/>
<path d="M332.615 742.926C283.168 749.424 274.134 820.498 318.892 850.892C328.421 857.363 355.615 868.773 355.615 866.3C355.615 866.148 354.715 862.505 353.615 858.204C348.925 839.865 353.823 816.782 365.472 802.329C368.596 798.453 368.596 798.453 360.753 790.168C349.132 777.891 342.84 764.692 341.107 748.952C340.289 741.527 340.753 741.856 332.615 742.926Z" fill="#00AFB9"/>
<path d="M969.115 1044.33C859.689 1055.98 776.484 1160.69 758.146 1309.82C755.228 1333.56 753.169 1404.75 755.365 1406.02C761.347 1409.46 765.615 1407.62 765.615 1401.61C765.615 1314.13 798.879 1274.03 925.615 1208.73C959.988 1191.02 960.378 1190.78 981.876 1173.49C1063.04 1108.23 1055.81 1035.1 969.115 1044.33Z" fill="#F07167"/>
<path d="M1033.01 1180.83C1026.91 1185.83 1026.91 1185.83 1027.37 1208.74C1030.39 1358.87 881.541 1443.37 808.586 1332.95C802.243 1323.35 802.703 1323.21 796.038 1336.69C782.558 1363.95 776.96 1409.02 785.872 1418.55C800.927 1434.64 799.614 1455.29 781.73 1483.7C777.749 1490.03 770.859 1502.4 766.419 1511.2C749.277 1545.18 719.937 1599.17 711.378 1612.48C706.125 1620.66 704.655 1620.27 735.386 1618.83C799.473 1615.84 826.133 1609.92 878.115 1587.14C1066.07 1504.8 1142.5 1329.87 1051.31 1190.75C1040.04 1173.55 1041.15 1174.16 1033.01 1180.83Z" fill="#F07167"/>
<path d="M86.899 1177.95C40.869 1228.13 27.3041 1331.77 57.0911 1405.7C98.9001 1509.48 235.696 1605.96 356.115 1616.61C410.684 1621.43 423.072 1620.61 417.852 1612.48C409.293 1599.17 379.953 1545.18 362.811 1511.2C358.371 1502.4 351.481 1490.03 347.5 1483.7C329.616 1455.29 328.303 1434.64 343.358 1418.55C352.27 1409.02 346.672 1363.95 333.192 1336.69C326.527 1323.21 326.987 1323.35 320.644 1332.95C247.688 1443.38 98.8401 1358.87 101.857 1208.74C102.318 1185.83 102.318 1185.83 96.0031 1180.76C88.6321 1174.86 89.495 1175.12 86.899 1177.95Z" fill="#F07167"/>
<path d="M129.763 1044.66C70.7551 1054.03 79.6301 1119.03 147.354 1173.49C168.852 1190.78 169.242 1191.02 203.615 1208.73C330.329 1274.02 363.615 1314.14 363.615 1401.61C363.615 1407.62 367.883 1409.46 373.865 1406.02C374.943 1405.4 374.772 1363.56 373.601 1341.2C368.1 1236.2 326.034 1138.05 265.732 1089.53C225.844 1057.43 168.507 1038.51 129.763 1044.66Z" fill="#F07167"/>
<path d="M405.418 797.103C366.871 807.481 364.171 860.75 400.463 894.852C426.694 919.5 401.075 913.722 372.504 888.546C364.758 881.72 364.758 881.72 358.855 882.337C334.743 884.857 297.601 863.536 277.797 835.805C273.227 829.406 273.227 829.406 270.32 832.805C229.145 880.94 205.709 924.039 179.022 1000.7C172.417 1019.68 172.351 1018.2 179.865 1019.63C308.093 1043.97 392.704 1180.59 395.339 1367.56C395.914 1408.39 394.894 1405.94 409.097 1400.63C417.769 1397.38 419.526 1394.91 426.612 1376.04C459.035 1289.66 486.33 1255.41 532.061 1243.72C541.524 1241.3 541.247 1241.48 542.056 1237.17C543.883 1227.43 554.165 1201.93 557.868 1197.95C566.803 1188.36 581.777 1208.4 587.174 1237.17C587.983 1241.48 587.706 1241.3 597.169 1243.72C642.9 1255.41 670.195 1289.66 702.618 1376.04C709.704 1394.91 711.461 1397.38 720.133 1400.63C734.336 1405.94 733.316 1408.39 733.891 1367.56C736.527 1180.58 821.129 1043.97 949.365 1019.63C956.879 1018.2 956.813 1019.68 950.208 1000.7C923.521 924.039 900.085 880.94 858.91 832.805C856.003 829.406 856.003 829.406 851.433 835.805C831.629 863.536 794.487 884.857 770.375 882.337C764.472 881.72 764.472 881.72 756.726 888.546C728.155 913.722 702.536 919.5 728.767 894.852C754.953 870.246 761.563 844.84 748.5 819.003C738.15 798.53 706.22 786.26 704.192 801.976C700.948 827.116 691.009 846.456 676.041 856.755C671.681 859.755 671.681 859.755 675.398 866.479C683.949 881.95 679.724 902.058 664.739 917.206C652.06 930.022 641.874 930.861 653.508 918.13C668.77 901.432 667.709 881.076 651.322 876.21C641.519 873.299 610.615 874.534 610.615 877.837C610.615 885.35 600.682 908.447 594.784 914.647C587.47 922.336 585.937 919.001 590.975 906.358C606.408 867.625 593.544 830.706 564.615 830.706C535.686 830.706 522.822 867.625 538.255 906.358C543.293 919.001 541.76 922.336 534.446 914.647C528.548 908.447 518.615 885.35 518.615 877.837C518.615 874.534 487.711 873.299 477.908 876.21C461.521 881.076 460.46 901.432 475.722 918.13C487.356 930.861 477.17 930.022 464.491 917.206C449.506 902.058 445.281 881.95 453.832 866.479C457.549 859.755 457.549 859.755 453.189 856.755C438.236 846.467 428.28 827.11 425.046 802.04C424.515 797.918 423.95 796.76 422.248 796.304C418.734 795.361 410.425 795.755 405.418 797.103Z" fill="#00AFB9"/>
<path fill-rule="evenodd" clip-rule="evenodd" d="M552.779 1266.76C514.513 1273.61 478.7 1315.08 450.927 1384.7C437.002 1419.61 429.761 1424.66 383.615 1431.68C353.249 1436.3 351.247 1443.7 372.116 1474.15C387.205 1496.17 405.635 1526.59 425.1 1561.59C459.888 1624.16 472.725 1644.91 490.416 1667.2C551.431 1744.09 603.581 1731.48 668.275 1624.2C681.014 1603.08 682.604 1600.3 704.13 1561.59C723.595 1526.59 742.025 1496.17 757.114 1474.15C777.983 1443.7 775.981 1436.3 745.615 1431.68C699.469 1424.66 692.228 1419.61 678.303 1384.7C644.821 1300.77 599.684 1258.36 552.779 1266.76ZM442.752 1455.49C438.401 1446.5 441.771 1437.15 451.117 1432.28C464.053 1425.54 479.756 1436.9 488.089 1459.04C493.551 1473.55 486.854 1475.63 469.286 1464.89C464.372 1461.88 463.157 1461.51 461.549 1462.51C455.702 1466.16 446.202 1462.61 442.752 1455.49ZM639.853 1468.53C636.489 1461.47 650.2 1438.18 660.922 1432.73C676.667 1424.72 693.929 1440.1 686.478 1455.49C683.028 1462.61 673.528 1466.16 667.681 1462.51C666.073 1461.51 664.858 1461.88 659.944 1464.89C647.062 1472.77 642.287 1473.63 639.853 1468.53Z" fill="#FDFCDC"/>
<path fill-rule="evenodd" clip-rule="evenodd" d="M358.778 435.767C345.473 385.632 304.024 346.141 247.709 356.671C203.023 365.028 163.317 399.362 152.916 438.285C155.989 449.128 161.071 459.598 168.36 469.235C219.928 537.419 312.784 530.541 351.042 455.704C354.391 449.153 356.95 442.481 358.778 435.767Z" fill="#00AFB9"/>
<path fill-rule="evenodd" clip-rule="evenodd" d="M409.684 247.02C407.768 241.27 406.251 235.485 405.115 229.692C416.763 169.42 474.337 117.118 542.42 104.679C633.54 88.033 708.594 150.458 724.161 229.587C723.014 235.389 721.483 241.207 719.546 247.02C673.683 384.676 455.547 384.676 409.684 247.02Z" fill="#00AFB9"/>
<path d="M854.27 303.301C789.607 314.984 756.095 378.801 770.535 435.67C780.086 397.557 817.412 364.76 861.864 356.728C920.133 346.201 962.607 388.214 976.299 438.658C996.233 369.871 932.676 289.135 854.27 303.301Z" fill="#00AFB9"/>
<path d="M405.115 229.692C416.763 169.42 474.337 117.118 542.42 104.679C633.54 88.033 708.594 150.458 724.161 229.587C744.257 127.848 645.827 30.9736 534.826 51.2521C447.054 67.2875 389.371 149.365 405.115 229.692Z" fill="#00AFB9"/>
<path d="M247.709 356.671C304.024 346.141 345.473 385.632 358.778 435.767C378.109 364.768 315.655 289.119 240.115 303.244C175.294 315.366 136.932 381.883 152.916 438.285C163.317 399.362 203.023 365.028 247.709 356.671Z" fill="#00AFB9"/>
<path d="M801.705 488.15C848.2 532.011 919.83 523.499 960.87 469.235C968.166 459.588 973.225 449.265 976.299 438.658C962.607 388.214 920.133 346.201 861.864 356.728C817.412 364.76 780.086 397.557 770.535 435.67C775.361 454.674 785.542 472.903 801.705 488.15Z" fill="#00AFB9"/>
<path fill-rule="evenodd" clip-rule="evenodd" d="M429.286 175.388C454.723 140.061 496.182 113.143 542.507 104.679C611.83 92.0148 671.855 125.118 703.46 176.525C709.485 170.462 714.994 164.3 719.546 158.264C696.036 87.8681 619.089 35.8741 534.913 51.2521C476.758 61.8766 431.812 101.493 412.681 150.383C416.82 158.361 422.665 166.921 429.286 175.388Z" fill="#FED9B7"/>
<path d="M429.286 175.388C451.869 204.268 483.487 232.077 487.296 232.077C490.18 232.077 506.122 216.592 522.679 200.512C540.561 183.142 559.161 165.077 562.796 165.077C566.296 165.077 581.296 181.827 596.296 198.577C611.296 215.327 626.296 232.077 629.796 232.077C634.26 232.077 674.732 205.428 703.46 176.525C671.855 125.118 611.83 92.0148 542.507 104.679C496.182 113.143 454.723 140.061 429.286 175.388Z" fill="#FED9B7"/>
<path d="M153.447 435.465C164.967 397.714 203.829 364.825 247.432 356.671C280.774 350.437 308.905 361.736 329.069 382.397C332.814 368.546 335.526 352.006 335.209 338.119C312.578 311.774 277.866 296.133 239.838 303.244C176.548 315.079 138.482 378.772 151.598 434.273C152.206 434.674 152.823 435.071 153.447 435.465Z" fill="#FED9B7"/>
<path d="M153.447 435.465C177.969 450.951 211.401 457.715 220.209 452.577C227.028 448.6 230.184 428.54 230.927 407.878C231.491 392.176 231.997 378.119 235.019 375.528C238.359 372.665 254.563 381.983 271.734 391.857C290.551 402.677 311.808 412.114 317.298 408.977C321.223 406.734 325.09 397.108 329.069 382.397C308.905 361.736 280.774 350.437 247.432 356.671C203.829 364.825 164.967 397.714 153.447 435.465Z" fill="#FED9B7"/>
<path fill-rule="evenodd" clip-rule="evenodd" d="M777.976 364.077C779.476 375.077 810.976 434.077 819.476 436.077C824.079 437.16 839.825 425.927 854.249 415.637C866.461 406.925 877.725 398.889 880.476 399.577C882.985 400.204 887.766 407.736 893.357 416.545C901.14 428.806 910.493 443.54 917.476 445.577C926.52 448.215 962.543 429.269 980.171 416.564C982.894 353.859 924.653 290.633 854.538 303.301C817.924 309.916 791.298 333.246 777.709 362.564C777.812 363.026 777.901 363.529 777.976 364.077Z" fill="#FED9B7"/>
<path d="M995.115 1205.41C992.365 1206.84 983.815 1210.85 976.115 1214.32C946.4 1227.68 941.235 1230.91 945.209 1233.63C966.144 1247.97 971.581 1293.09 956.762 1329.51C953.076 1338.56 953.63 1338.5 962.855 1328.85C992.566 1297.75 1011.75 1237.12 1002.06 1204.95C1001.23 1202.2 1001.27 1202.2 995.115 1205.41Z" fill="#F1F1F1"/>
<path d="M127.17 1204.95C117.478 1237.12 136.664 1297.75 166.375 1328.85C175.6 1338.5 176.154 1338.56 172.468 1329.51C157.655 1293.11 163.086 1247.97 184.004 1233.64C187.873 1230.99 180.808 1226.54 153.615 1214.52C147.29 1211.72 139.089 1207.92 135.39 1206.07C127.406 1202.07 128.013 1202.16 127.17 1204.95Z" fill="#F1F1F1"/>
<path d="M930 1296.58C930 1293.26 927.09 1290.58 923.5 1290.58C919.91 1290.58 917 1293.26 917 1296.58C917 1299.89 919.91 1302.58 923.5 1302.58C927.09 1302.58 930 1299.89 930 1296.58Z" fill="#F1F1F1"/>
<path opacity="0.2" fill-rule="evenodd" clip-rule="evenodd" d="M715.252 258.369C659.615 320.336 549.034 354.435 422.679 275.523C485.159 380.598 665.612 374.88 715.252 258.369ZM335.097 479.676C276.534 504.174 197.022 479.095 158.18 452.387C160.908 458.21 164.291 463.852 168.362 469.235C213.748 529.245 291.117 531.111 335.097 479.676ZM969.925 454.793C936.255 486.455 868.079 508.964 788.448 473.266C792.311 478.468 796.725 483.45 801.707 488.15C848.202 532.011 919.832 523.499 960.872 469.235C964.404 464.565 967.412 459.736 969.925 454.793Z" fill="black"/>
<path d="M405.115 229.692C416.764 169.42 474.337 117.118 542.42 104.68C633.54 88.0332 708.594 150.458 724.161 229.587C744.257 127.849 645.827 30.9738 534.826 51.2523C447.054 67.2877 389.372 149.366 405.115 229.692Z" fill="#00AFB9"/>
<path fill-rule="evenodd" clip-rule="evenodd" d="M429.286 175.388C454.723 140.061 496.182 113.143 542.507 104.68C611.83 92.0151 671.855 125.118 703.46 176.525C709.485 170.462 714.994 164.301 719.546 158.265C696.036 87.8683 619.089 35.8744 534.913 51.2523C476.758 61.8768 431.812 101.493 412.681 150.383C416.82 158.361 422.665 166.921 429.286 175.388Z" fill="#FED9B7"/>
<g opacity="0.2">
<path fill-rule="evenodd" clip-rule="evenodd" d="M604.71 642.452C597.4 625.373 579.172 616.227 553.736 620.765C538.714 623.446 528.52 631.528 523.757 643.267C533.781 634.991 551.518 632.286 564.751 632.006C577.539 632.277 594.534 634.812 604.71 642.452ZM493.346 653.26C480.957 655.162 458.329 661.19 448.496 675.058C451.775 662.668 460.006 653.454 472.566 650.066C485.14 646.675 490.897 647.065 493.346 653.26ZM425.769 691.743C425.676 690.601 425.625 689.502 425.619 688.454C425.612 687.149 407.351 687.774 401.615 689.275C381.979 694.414 368.757 708.996 363.9 726.377C377.034 707.809 401.486 692.325 425.769 691.743ZM289.992 792.91C295.796 773.169 317.421 752.577 335.001 752.577C337.487 752.577 339.653 752.439 341.535 752.195C341.37 751.126 341.228 750.045 341.107 748.952C341.067 748.586 341.03 748.238 340.994 747.908C340.682 744.993 340.521 743.491 339.689 742.816C338.803 742.098 337.157 742.319 333.759 742.774C333.398 742.823 333.017 742.874 332.616 742.926C306.081 746.413 291.184 768.496 289.992 792.91ZM553.646 747.199C543.447 739.278 528.356 736.148 507.167 753.874C510.744 746.361 516.982 740.304 525.843 736.178C532.81 732.935 540.219 732.835 544.23 735.931C547.426 738.397 550.794 742.505 553.646 747.199ZM619.227 751.388C610.078 734.515 592.571 725.702 580.836 739.681C579.125 741.72 577.242 744.508 575.507 747.473C585.209 739.751 599.425 736.29 619.227 751.388ZM484.997 761.398C485.15 756.71 484.641 756.624 481.685 756.128C479.722 755.799 477.44 755.404 476.615 755.25C475.79 755.097 472.461 755.353 469.217 755.82C453.768 758.044 444.36 771.632 441.936 788.993C448.052 769.129 471.108 759.853 484.997 761.398ZM704.765 799.695C709.569 787.594 738.703 799.624 748.5 819.003C751.224 824.39 753.092 829.757 754.106 835.102C746.599 813.999 722.957 804.329 704.765 799.695ZM610.591 878.532C610.607 878.288 610.615 878.056 610.615 877.838C610.615 874.535 641.519 873.3 651.322 876.211C655.967 877.59 659.38 880.213 661.54 883.645C652.161 875.366 631.755 876.904 610.591 878.532ZM539.563 844.326C545.248 835.856 553.811 830.706 564.615 830.706C575.215 830.706 583.658 835.663 589.343 843.849C582.262 838.323 572.563 835.486 564.751 834.751C556.717 835.506 546.688 838.486 539.563 844.326ZM467.346 884.219C469.479 880.505 473.008 877.666 477.908 876.211C487.711 873.3 518.615 874.535 518.615 877.838C518.615 878.05 518.623 878.274 518.639 878.511C497.096 876.854 476.386 875.334 467.346 884.219ZM424.676 799.71C406.075 804.457 381.807 814.47 374.904 836.574C376.019 817.919 386.318 802.246 405.418 797.103C410.425 795.755 418.734 795.361 422.248 796.304C423.573 796.659 424.209 797.439 424.676 799.71ZM680.999 675.049C676.772 659.755 664.465 649.677 645.637 648.901L634.918 648.46L634.732 653.053C646.729 654.697 670.773 660.638 680.999 675.049ZM765.025 725.573C761.535 712.202 753.441 700.673 741.303 694.732C729.297 688.855 703.632 684.581 703.611 688.454C703.606 689.501 703.555 690.598 703.462 691.737C727.483 692.203 751.711 707.296 765.025 725.573ZM839.588 793.179C833.903 773.357 812.161 752.577 794.501 752.577C791.833 752.577 789.534 752.418 787.559 752.14C787.595 751.91 787.629 751.679 787.663 751.447C788.248 747.463 788.885 743.713 789.079 743.113C789.669 741.28 802.487 743.514 809.115 746.604C828.386 755.589 838.574 773.745 839.588 793.179ZM686.983 787.27C685.666 776.95 682.013 768.105 675.915 762.737C670.564 758.027 657.296 753.864 652.115 755.269C651.565 755.418 649.508 755.807 647.545 756.134C644.584 756.626 644.079 756.71 644.235 761.429C657.689 759.782 680.057 768.468 686.983 787.27Z" fill="white" style="mix-blend-mode:hard-light"/>
</g>
<path fill-rule="evenodd" clip-rule="evenodd" d="M1022.06 1053.27C982.657 1050.31 936.704 1063.37 903.5 1084.08C857 1113.08 785.5 1190.08 770.5 1264.58C766.351 1285.18 763.238 1291.92 760.934 1290.44C783.842 1151.67 864.494 1055.47 969.115 1044.33C992.709 1041.82 1010.42 1045.41 1022.06 1053.27Z" fill="white" fill-opacity="0.4" style="mix-blend-mode:hard-light"/>
<path fill-rule="evenodd" clip-rule="evenodd" d="M105.129 1054.22C145.553 1049.75 193.933 1063.02 228.499 1084.58C274.999 1113.58 346.499 1190.58 361.499 1265.08C363.852 1276.76 365.871 1283.98 367.598 1287.78C353.069 1203.87 315.648 1129.7 265.732 1089.53C225.844 1057.43 168.507 1038.51 129.763 1044.66C119.523 1046.29 111.328 1049.59 105.129 1054.22Z" fill="white" fill-opacity="0.4" style="mix-blend-mode:hard-light"/>
<path fill-rule="evenodd" clip-rule="evenodd" d="M466.016 1351.17C498.714 1315.21 540.609 1309.08 563.003 1309.08C586.266 1309.08 632.378 1316.59 665.67 1356.1C633.885 1291.26 594.016 1259.37 552.781 1266.76C521.126 1272.43 491.15 1301.78 466.016 1351.17Z" fill="white" fill-opacity="0.4" style="mix-blend-mode:hard-light"/>
<path opacity="0.2" fill-rule="evenodd" clip-rule="evenodd" d="M1004.6 1224.32C989.647 1230.77 972.903 1237.32 954.822 1243.88C952.119 1239.65 948.907 1236.16 945.212 1233.63C941.238 1230.91 946.403 1227.68 976.118 1214.32C983.818 1210.85 992.368 1206.84 995.118 1205.41L995.223 1205.35C999.038 1203.36 1000.43 1202.63 1001.15 1203.06C1001.56 1203.3 1001.75 1203.92 1002.05 1204.91L1002.06 1204.95C1003.77 1210.63 1004.58 1217.19 1004.6 1224.32ZM124.656 1222.68C139.766 1229.52 156.619 1236.45 174.743 1243.37C177.373 1239.37 180.468 1236.06 184.007 1233.64C187.876 1230.99 180.811 1226.54 153.618 1214.52C147.293 1211.72 139.092 1207.92 135.393 1206.07C134.878 1205.81 134.4 1205.57 133.954 1205.35L133.954 1205.35C129.929 1203.33 128.592 1202.65 127.968 1203.07C127.657 1203.27 127.523 1203.74 127.321 1204.45C127.276 1204.6 127.228 1204.77 127.173 1204.95C125.595 1210.19 124.782 1216.19 124.656 1222.68Z" fill="black"/>
<path opacity="0.2" fill-rule="evenodd" clip-rule="evenodd" d="M340.881 1472.06C337.69 1506.37 349.453 1544.74 354.883 1562.45C355.807 1565.46 356.548 1567.88 357 1569.58C360.875 1584.11 318.766 1607.09 164.309 1536.69C221.338 1580.1 291.112 1610.86 356.114 1616.61C410.683 1621.43 423.071 1620.61 417.851 1612.48C409.292 1599.17 379.952 1545.18 362.81 1511.2C358.37 1502.4 351.48 1490.03 347.499 1483.7C344.959 1479.67 342.753 1475.79 340.881 1472.06Z" fill="black"/>
<path opacity="0.2" fill-rule="evenodd" clip-rule="evenodd" d="M965.867 1536.38C810.858 1607.15 768.621 1584.13 772.501 1569.58C772.954 1567.88 773.694 1565.47 774.619 1562.45C780.072 1544.66 791.916 1506.02 788.577 1471.6C786.657 1475.47 784.375 1479.5 781.732 1483.7C777.751 1490.03 770.861 1502.4 766.421 1511.2C749.279 1545.18 719.939 1599.17 711.38 1612.48C709.475 1615.45 708.068 1617.28 708.512 1618.35C709.292 1620.24 715.796 1619.75 735.388 1618.83C799.475 1615.84 826.135 1609.92 878.117 1587.14C910.847 1572.8 940.196 1555.66 965.867 1536.38Z" fill="black"/>
<path opacity="0.2" fill-rule="evenodd" clip-rule="evenodd" d="M416.355 1546.05C450.148 1600.7 463.842 1620.37 482.315 1641.4C549.897 1718.35 607.659 1705.73 679.316 1598.36C692.737 1578.26 694.985 1574.76 715.69 1541.13C711.89 1547.74 708.03 1554.58 704.129 1561.59C682.603 1600.3 681.013 1603.08 668.274 1624.2C603.58 1731.48 551.43 1744.09 490.415 1667.2C472.724 1644.91 459.887 1624.16 425.099 1561.59C422.158 1556.3 419.241 1551.12 416.355 1546.05Z" fill="black"/>
<path d="M564 1170.58C551.5 1170.58 535.5 1259.58 528.5 1259.58L514 1273.08L564 1259.58L621.5 1276.58C615.333 1270.91 602.1 1259.58 598.5 1259.58C594 1259.58 576.5 1170.58 564 1170.58Z" fill="black" fill-opacity="0.2"/>
<path d="M481 931.577C474 931.577 450.5 915.077 450.5 890.577C453.833 884.41 460.5 874.777 460.5 885.577C460.5 899.077 475.5 916.577 479.5 920.577C483.5 924.577 488 931.577 481 931.577Z" fill="black" fill-opacity="0.2"/>
<path d="M347 890.577C318.5 890.577 281.5 853.077 262.5 827.577L274 817.577L300 855.077L359 872.577L370.5 853.577C373.333 857.91 380 868.377 384 875.577C389 884.577 402 891.577 412.5 906.577C423 921.577 383 903.077 378 900.577C374 898.577 365.333 892.41 361.5 889.577C361.5 889.91 358.6 890.577 347 890.577Z" fill="black" fill-opacity="0.2"/>
<path d="M436.5 845.077C425 830.577 429 813.577 427 799.077L459.5 858.077L457 862.577L456.934 862.543C453.722 860.852 445.637 856.598 436.5 845.077Z" fill="black" fill-opacity="0.2"/>
<path d="M539 922.577C528.5 920.077 519 895.577 519 877.077L529 872.577L535.5 898.577C537.5 906.577 549.5 925.077 539 922.577Z" fill="black" fill-opacity="0.2"/>
<path d="M647.5 931.577C654.5 931.577 678 915.077 678 890.577C674.667 884.41 668 874.777 668 885.577C668 899.077 653 916.577 649 920.577C645 924.577 640.5 931.577 647.5 931.577Z" fill="black" fill-opacity="0.2"/>
<path d="M781.5 890.577C810 890.577 847 853.077 866 827.577L854.5 817.577L828.5 855.077L769.5 872.577L758 853.577C755.167 857.91 748.5 868.377 744.5 875.577C739.5 884.577 726.5 891.577 716 906.577C705.5 921.577 745.5 903.077 750.5 900.577C754.5 898.577 763.167 892.41 767 889.577C767 889.91 769.9 890.577 781.5 890.577Z" fill="black" fill-opacity="0.2"/>
<path d="M692 845.077C703.5 830.577 699.5 813.577 701.5 799.077L669 858.077L671.5 862.577L671.566 862.543C674.778 860.852 682.863 856.598 692 845.077Z" fill="black" fill-opacity="0.2"/>
<path d="M589 923.077C599.5 920.577 609.5 895.577 609.5 877.077L599.5 872.577L593 898.577C591 906.577 578.5 925.577 589 923.077Z" fill="black" fill-opacity="0.2"/>
<path opacity="0.2" d="M445.697 1458.58C442.197 1458.58 453.196 1453.08 449.696 1443.58C458.03 1440.08 471.097 1443.68 480.697 1452.08C492.697 1462.58 492.697 1488.58 492.197 1499.58C491.697 1510.58 449.197 1458.58 445.697 1458.58Z" fill="black"/>
<path opacity="0.2" d="M682.85 1458.91C686.35 1458.91 675.351 1453.41 678.851 1443.91C670.517 1440.41 657.45 1444.01 647.85 1452.41C635.85 1462.91 635.85 1488.91 636.35 1499.91C636.85 1510.91 679.35 1458.91 682.85 1458.91Z" fill="black"/>
<path opacity="0.2" fill-rule="evenodd" clip-rule="evenodd" d="M228.973 1204.84C289.834 1241.25 349 1276.65 349 1320.58C349 1321.99 348.977 1323.39 348.932 1324.76C329.146 1283.33 286.237 1251.41 203.406 1208.73C169.033 1191.02 168.643 1190.78 147.145 1173.49C94.4157 1131.09 77.361 1082.3 100.246 1058.35C84.8493 1118.62 158.061 1162.42 228.973 1204.84Z" fill="black"/>
<path opacity="0.2" fill-rule="evenodd" clip-rule="evenodd" d="M101.202 1056.62L100.73 1058.47C93.0986 1088.34 107.395 1114.19 132.586 1137.93C157.781 1161.67 193.759 1183.19 229.229 1204.41L229.255 1204.43C259.666 1222.62 289.701 1240.59 312.131 1259.51C334.554 1278.42 349.5 1298.38 349.5 1320.58C349.5 1322 349.477 1323.4 349.431 1324.77L348.48 1324.97C328.774 1283.71 286.011 1251.85 203.177 1209.17C185.999 1200.32 177.285 1195.82 170.182 1191.37C163.071 1186.92 157.576 1182.52 146.832 1173.88C120.42 1152.64 102.909 1129.78 94.8739 1109.18C86.8409 1088.59 88.2554 1070.17 99.8836 1058L101.202 1056.62ZM95.8055 1108.82C103.759 1129.21 121.14 1151.94 147.458 1173.1C158.212 1181.75 163.661 1186.11 170.713 1190.53C177.772 1194.95 186.44 1199.43 203.635 1208.29C285.232 1250.33 328.23 1282 348.482 1322.69C348.494 1321.99 348.5 1321.29 348.5 1320.58C348.5 1298.85 333.862 1279.14 311.486 1260.27C289.125 1241.41 259.157 1223.48 228.716 1205.27L228.681 1205.25C193.251 1184.05 157.182 1162.48 131.9 1138.65C107.14 1115.32 92.6158 1089.73 99.2996 1060.14C89.2452 1071.92 88.1688 1089.24 95.8055 1108.82Z" fill="black"/>
<path opacity="0.2" fill-rule="evenodd" clip-rule="evenodd" d="M901.027 1204.84C840.166 1241.25 781 1276.65 781 1320.58C781 1321.2 781.004 1321.82 781.013 1322.43C801.28 1282.13 844.115 1250.61 925.406 1208.73C959.779 1191.02 960.169 1190.78 981.667 1173.49C1034.38 1131.1 1049.81 1085.4 1030.4 1061.09C1042.92 1119.96 970.857 1163.07 901.027 1204.84Z" fill="black"/>
<path opacity="0.2" fill-rule="evenodd" clip-rule="evenodd" d="M1033.54 1110.7C1025.48 1130.56 1008.38 1152.65 981.981 1173.88C971.237 1182.52 965.741 1186.92 958.63 1191.38C951.527 1195.82 942.813 1200.32 925.635 1209.18C844.34 1251.06 801.647 1282.52 781.46 1322.66L780.513 1322.44C780.504 1321.82 780.5 1321.2 780.5 1320.58C780.5 1298.38 795.446 1278.42 817.868 1259.51C840.299 1240.59 870.333 1222.62 900.744 1204.43L900.77 1204.41C935.699 1183.52 971.121 1162.32 996.254 1139.01C1021.39 1115.7 1036.11 1090.37 1029.91 1061.2L1030.79 1060.78C1040.65 1073.12 1041.6 1090.84 1033.54 1110.7ZM1031.31 1063.14C1039.64 1075.01 1040.22 1091.59 1032.62 1110.32C1024.64 1129.98 1007.67 1151.94 981.354 1173.1C970.6 1181.75 965.151 1186.11 958.1 1190.53C951.04 1194.95 942.372 1199.43 925.177 1208.29C845.112 1249.54 802.216 1280.79 781.5 1320.39C781.585 1298.73 796.203 1279.09 818.513 1260.27C840.875 1241.41 870.843 1223.48 901.284 1205.27L901.317 1205.25C936.208 1184.38 971.717 1163.14 996.934 1139.74C1021.55 1116.91 1036.47 1091.92 1031.31 1063.14Z" fill="black"/>
<path fill-rule="evenodd" clip-rule="evenodd" d="M77.9196 1188.68C77.317 1238.23 79.2001 1452.08 330.502 1452.08C331.53 1452.08 332.552 1452.08 333.566 1452.07C331.144 1438.91 334.352 1427.95 343.15 1418.55C352.062 1409.02 346.464 1363.95 332.984 1336.69C329.416 1329.47 327.89 1326.16 326.268 1326.11C324.862 1326.07 323.383 1328.49 320.436 1332.95C247.48 1443.38 98.6322 1358.87 101.649 1208.74C102.11 1185.83 102.11 1185.83 95.7952 1180.76L95.7952 1180.76C91.1944 1177.08 89.8015 1175.8 88.7731 1176.04C88.1539 1176.19 87.6668 1176.89 86.6912 1177.95C83.6219 1181.3 80.6969 1184.88 77.9196 1188.68Z" fill="black" fill-opacity="0.2" style="mix-blend-mode:multiply"/>
<path opacity="0.2" fill-rule="evenodd" clip-rule="evenodd" d="M1052.52 1192.93C1052.9 1247.91 1046.05 1453.08 799.903 1453.08C798.27 1453.08 796.654 1453.07 795.056 1453.06C797.828 1439.46 794.683 1428.19 785.665 1418.55C776.753 1409.02 782.351 1363.94 795.831 1336.69C799.399 1329.47 800.925 1326.16 802.546 1326.11C803.953 1326.07 805.432 1328.49 808.379 1332.95C881.334 1443.37 1030.18 1358.87 1027.17 1208.74C1026.84 1192.45 1026.74 1187.74 1028.91 1184.59C1029.79 1183.3 1031.04 1182.28 1032.81 1180.83C1036.11 1178.12 1037.89 1176.42 1039.59 1176.49C1042.08 1176.6 1044.4 1180.53 1051.1 1190.75C1051.58 1191.48 1052.05 1192.21 1052.52 1192.93Z" fill="#161616"/>
<path opacity="0.2" fill-rule="evenodd" clip-rule="evenodd" d="M520.893 653.491C519.385 664.867 521.801 678.48 528.497 693.306L528.497 693.306C533.51 704.407 533.51 704.407 541.203 704.487C548.113 704.559 549.685 704.97 556.65 708.528C564.404 712.49 564.404 712.49 572.158 708.528C579.123 704.97 580.695 704.559 587.605 704.487C595.298 704.407 595.298 704.407 600.307 693.306L600.307 693.306C606.999 678.472 609.167 664.791 607.507 653.347C604.186 671.86 596.535 696.059 579.378 698.078C571.95 699.641 566.782 699.74 564.996 699.588V699.577H564.878H563.496H563.378V699.588C561.593 699.74 556.425 699.641 548.996 698.078C531.884 696.064 524.229 671.985 520.893 653.491ZM621.151 709.096C629.728 695.724 633.311 682.948 634.125 662.833L634.553 652.269C637.84 670.383 636.964 695.75 621.924 717.286C618.026 713.967 618.212 713.678 621.151 709.096ZM682.253 692.06C681.56 701.305 678.68 711.528 673.413 722.205C672.848 723.349 672.339 724.392 671.877 725.34C669.05 731.133 667.941 733.405 666.238 734.013C665.139 734.405 663.792 734.104 661.575 733.608C661.014 733.482 660.396 733.344 659.713 733.202C654.373 732.089 651.425 731.971 647.764 732.726C646.804 732.923 645.931 733.108 645.133 733.276C644.962 733.312 644.795 733.347 644.631 733.382C645.285 731.399 650.384 729.783 655.58 728.136C660.469 726.587 665.443 725.011 666.878 723.077C674.002 713.475 679.443 703.792 682.253 692.06ZM703.4 688.455C703.326 702.236 695.432 724.813 686.556 736.625C682.764 741.672 682.507 742.015 687.326 747.208C697.542 732.441 708.181 703.363 704.158 687.52C703.668 687.752 703.402 688.061 703.4 688.455ZM766.502 735.25C765.193 743.708 760.522 761.514 753.378 769.078C744.878 778.078 741.378 779.078 734.378 776.078C730.215 774.294 724.138 775.162 719.717 776.341C727.745 776.644 734.999 778.795 741.669 782.826L741.88 782.953L742.258 783.183C744.685 784.654 746.03 785.469 747.257 785.32C748.783 785.134 750.127 783.456 753.142 779.693L753.441 779.319L753.734 778.955C763.859 766.337 767.886 750.244 766.502 735.25ZM839.058 789.375C837.292 803.335 832.257 828.158 812.878 844.577C794.643 860.028 780.878 861.077 777.878 839.077C777.589 836.954 777.18 835.826 776.699 835.497C777.601 843.259 777.224 851.088 775.404 858.205C774.304 862.506 773.404 866.149 773.404 866.301C773.404 868.774 800.598 857.364 810.127 850.893C832.013 836.03 841.61 811.513 839.058 789.375ZM787.368 752.005C785 767.498 779.42 778.523 767.846 790.638L767.846 790.638C760.403 798.428 760.403 798.428 763.536 802.317C763.871 802.733 764.201 803.157 764.526 803.587C774.492 793.461 785.596 774.119 787.368 752.005ZM687.292 798.899C685.442 809.479 682.395 821.057 677.878 826.577C668.878 837.578 656.878 840.577 647.378 839.077C642.603 838.324 634.683 840.425 627.76 842.877C641.804 842.28 652.469 845.054 661.729 851.442C663.996 853.006 665.829 853.68 666.229 853.098C666.6 852.557 668.785 849.66 671.085 846.66C681.255 833.39 686.775 815.322 687.292 798.899ZM606.575 837.984C620.971 830.392 644.045 810.082 643.762 777.764C640.972 801.083 627.242 821.749 605.657 834.223C605.397 834.373 605.861 836.019 606.575 837.984ZM624.818 779.939C620.373 793.043 610.489 813.653 594.878 808.077C580.878 803.077 572.378 802.077 565.378 802.077C564.93 802.077 564.535 802.12 564.187 802.2C563.84 802.12 563.444 802.077 562.996 802.077C555.996 802.077 547.496 803.077 533.496 808.077C519.408 813.109 509.984 796.813 505.013 783.956C507.33 793.629 512.09 804.134 519.325 815.064L519.325 815.064C523.858 821.911 525.533 824.44 526.854 824.267C527.628 824.166 528.281 823.137 529.316 821.505C544.214 798.014 584.594 798.014 599.492 821.505C603.544 827.894 619.858 803.536 624.002 784.907C624.371 783.25 624.64 781.592 624.818 779.939ZM441.103 799.013C441.276 814.741 446.623 832.178 457.723 846.66C460.023 849.66 462.208 852.557 462.579 853.098C462.979 853.68 464.812 853.006 467.079 851.442C476.231 845.128 486.757 842.345 500.56 842.857C493.65 840.414 485.759 838.326 480.996 839.077C471.496 840.577 459.496 837.578 450.496 826.577C445.996 821.077 442.955 809.562 441.103 799.013ZM484.724 774.436C482.739 808.97 507.313 830.485 522.163 838.174C522.917 836.126 523.419 834.378 523.151 834.223C500.544 821.159 486.554 799.108 484.724 774.436ZM441.234 747.474C446.309 742.025 446.108 741.757 442.252 736.625C433.376 724.813 425.482 702.236 425.408 688.455C425.407 688.244 424.93 688.084 424.107 687.969C420.371 704.004 431.058 732.93 441.234 747.474ZM361.93 735.61C360.404 750.136 364.453 765.719 375.074 778.955C375.278 779.209 375.476 779.455 375.666 779.693C378.681 783.456 380.025 785.134 381.551 785.32C382.778 785.469 384.123 784.654 386.55 783.183L386.552 783.181C386.741 783.066 386.937 782.948 387.139 782.826C393.705 778.858 400.837 776.712 408.716 776.356C404.291 775.169 398.178 774.286 393.997 776.078C386.997 779.078 383.497 778.078 374.997 769.078C367.953 761.619 363.313 744.204 361.93 735.61ZM447.209 696.078C448.276 704.374 450.969 713.234 455.395 722.205C455.96 723.349 456.468 724.391 456.931 725.339L456.931 725.339C459.758 731.132 460.867 733.405 462.57 734.013C463.669 734.405 465.016 734.104 467.233 733.608C467.794 733.482 468.412 733.344 469.095 733.202C474.435 732.089 477.383 731.971 481.044 732.726C482.004 732.923 482.877 733.108 483.675 733.276C483.686 733.278 483.697 733.281 483.707 733.283C482.92 731.345 477.904 729.755 472.794 728.136C467.906 726.587 462.932 725.011 461.497 723.077C455.202 714.593 450.222 706.046 447.209 696.078ZM493.484 654.253C494.182 656.489 494.542 659.365 494.687 662.955C495.497 682.939 499.099 695.753 507.657 709.096C510.662 713.782 510.788 713.978 506.612 717.516C491.962 696.705 490.606 672.271 493.484 654.253ZM352.12 835.41C351.446 835.247 350.871 836.328 350.496 839.077C347.496 861.077 333.732 860.028 315.496 844.577C297.608 829.421 291.942 807.104 289.787 792.78C288.714 813.897 297.899 836.78 318.681 850.893C328.21 857.364 355.404 868.774 355.404 866.301C355.404 866.149 354.504 862.506 353.404 858.205C351.577 851.063 351.205 843.201 352.12 835.41ZM364.095 803.835C364.476 803.324 364.864 802.822 365.261 802.33C368.385 798.454 368.385 798.454 360.542 790.169L360.542 790.169C348.921 777.892 342.629 764.693 340.896 748.953C340.858 748.61 340.823 748.285 340.79 747.975C341.44 771.937 353.467 793.177 364.095 803.835Z" fill="black"/>
<path d="M934 1276.58C934 1264.43 944.074 1254.58 956.5 1254.58C968.926 1254.58 979 1264.43 979 1276.58C979 1288.73 968.926 1298.58 956.5 1298.58C944.074 1298.58 934 1288.73 934 1276.58Z" fill="#F1F1F1"/>
<path d="M149 1276.58C149 1264.43 159.074 1254.58 171.5 1254.58C183.926 1254.58 194 1264.43 194 1276.58C194 1288.73 183.926 1298.58 171.5 1298.58C159.074 1298.58 149 1288.73 149 1276.58Z" fill="#F1F1F1"/>
<path d="M209 1296.58C209 1293.26 206.09 1290.58 202.5 1290.58C198.91 1290.58 196 1293.26 196 1296.58C196 1299.89 198.91 1302.58 202.5 1302.58C206.09 1302.58 209 1299.89 209 1296.58Z" fill="#F1F1F1"/>
</svg>
