<svg width="12" height="12" viewBox="0 0 12 12" fill="none" xmlns="http://www.w3.org/2000/svg">
<g clip-path="url(#clip0_4962_20885)">
<path d="M1.33333 0.5C0.597917 0.5 0 1.1166 0 1.875V8.0625C0 8.8209 0.597917 9.4375 1.33333 9.4375H5L4.77708 10.125H3.33333C2.96458 10.125 2.66667 10.4322 2.66667 10.8125C2.66667 11.1928 2.96458 11.5 3.33333 11.5H8.66667C9.03542 11.5 9.33333 11.1928 9.33333 10.8125C9.33333 10.4322 9.03542 10.125 8.66667 10.125H7.22292L7 9.4375H10.6667C11.4021 9.4375 12 8.8209 12 8.0625V1.875C12 1.1166 11.4021 0.5 10.6667 0.5H1.33333ZM10.6667 1.875V8.0625H1.33333V1.875H10.6667Z" fill="black"/>
</g>
<defs>
<clipPath id="clip0_4962_20885">
<rect width="12" height="11" fill="white" transform="translate(0 0.5)"/>
</clipPath>
</defs>
</svg>
