<svg width="12" height="12" viewBox="0 0 12 12" fill="none" xmlns="http://www.w3.org/2000/svg">
<g clip-path="url(#clip0_4962_20886)">
<path d="M5.50977 0.61167C5.82018 0.463428 6.17852 0.463428 6.48893 0.61167L11.0431 2.78159C11.2202 2.86538 11.3327 3.048 11.3327 3.24995C11.3327 3.4519 11.2202 3.63452 11.0431 3.71831L6.48893 5.88823C6.17852 6.03647 5.82018 6.03647 5.50977 5.88823L0.955599 3.71831C0.778516 3.63237 0.666016 3.44976 0.666016 3.24995C0.666016 3.05015 0.778516 2.86538 0.955599 2.78159L5.50977 0.61167ZM9.93477 5.00308L11.0431 5.53159C11.2202 5.61538 11.3327 5.798 11.3327 5.99995C11.3327 6.2019 11.2202 6.38452 11.0431 6.46831L6.48893 8.63823C6.17852 8.78647 5.82018 8.78647 5.50977 8.63823L0.955599 6.46831C0.778516 6.38237 0.666016 6.19976 0.666016 5.99995C0.666016 5.80015 0.778516 5.61538 0.955599 5.53159L2.06393 5.00308L5.2306 6.51128C5.7181 6.74331 6.2806 6.74331 6.7681 6.51128L9.93477 5.00308ZM6.7681 9.26128L9.93477 7.75308L11.0431 8.28159C11.2202 8.36538 11.3327 8.548 11.3327 8.74995C11.3327 8.9519 11.2202 9.13452 11.0431 9.21831L6.48893 11.3882C6.17852 11.5365 5.82018 11.5365 5.50977 11.3882L0.955599 9.21831C0.778516 9.13237 0.666016 8.94976 0.666016 8.74995C0.666016 8.55015 0.778516 8.36538 0.955599 8.28159L2.06393 7.75308L5.2306 9.26128C5.7181 9.49331 6.2806 9.49331 6.7681 9.26128Z" fill="black"/>
</g>
<defs>
<clipPath id="clip0_4962_20886">
<rect width="12" height="11" fill="white" transform="translate(0 0.5)"/>
</clipPath>
</defs>
</svg>
