<svg width="800" height="450" viewBox="0 0 800 450" fill="none" xmlns="http://www.w3.org/2000/svg">
<g clip-path="url(#clip0_4727_35934)">
<g filter="url(#filter0_f_4727_35934)">
<path d="M109.006 313.767C262.265 313.767 386.506 189.526 386.506 36.2672C386.506 -116.992 262.265 -241.233 109.006 -241.233C-44.2532 -241.233 -168.494 -116.992 -168.494 36.2672C-168.494 189.526 -44.2532 313.767 109.006 313.767Z" fill="#00CECB" fill-opacity="0.1"/>
<path d="M456.9 447.684C610.159 447.684 734.4 323.443 734.4 170.184C734.4 16.9254 610.159 -107.316 456.9 -107.316C303.641 -107.316 179.4 16.9254 179.4 170.184C179.4 323.443 303.641 447.684 456.9 447.684Z" fill="#FFD037" fill-opacity="0.1"/>
<path d="M713.497 912.845C866.756 912.845 990.997 788.604 990.997 635.345C990.997 482.086 866.756 357.845 713.497 357.845C560.238 357.845 435.997 482.086 435.997 635.345C435.997 788.604 560.238 912.845 713.497 912.845Z" fill="#942FFA" fill-opacity="0.1"/>
<path d="M91.7266 989.735C244.986 989.735 369.227 865.494 369.227 712.235C369.227 558.976 244.986 434.735 91.7266 434.735C-61.5325 434.735 -185.773 558.976 -185.773 712.235C-185.773 865.494 -61.5325 989.735 91.7266 989.735Z" fill="#2430F0" fill-opacity="0.1"/>
<path d="M880.871 826.882C1034.13 826.882 1158.37 702.641 1158.37 549.382C1158.37 396.123 1034.13 271.882 880.871 271.882C727.612 271.882 603.371 396.123 603.371 549.382C603.371 702.641 727.612 826.882 880.871 826.882Z" fill="#FF006E" fill-opacity="0.05"/>
</g>
</g>
<defs>
<filter id="filter0_f_4727_35934" x="-445.773" y="-501.233" width="1864.14" height="1750.97" filterUnits="userSpaceOnUse" color-interpolation-filters="sRGB">
<feFlood flood-opacity="0" result="BackgroundImageFix"/>
<feBlend mode="normal" in="SourceGraphic" in2="BackgroundImageFix" result="shape"/>
<feGaussianBlur stdDeviation="130" result="effect1_foregroundBlur_4727_35934"/>
</filter>
<clipPath id="clip0_4727_35934">
<rect width="800" height="450" fill="white"/>
</clipPath>
</defs>
</svg>
