<svg width="12" height="12" viewBox="0 0 12 12" fill="none" xmlns="http://www.w3.org/2000/svg">
<g clip-path="url(#clip0_4962_20884)">
<path d="M7.36453 1.02303C7.04578 0.927327 6.71391 1.12069 6.62203 1.45272L4.22203 10.2027C4.13016 10.5347 4.31578 10.8805 4.63453 10.9762C4.95328 11.0719 5.28516 10.8785 5.37703 10.5465L7.77703 1.79647C7.86891 1.46444 7.68328 1.11873 7.36453 1.02303ZM8.87578 3.36873C8.64141 3.61287 8.64141 4.00936 8.87578 4.2535L10.5502 5.99959L8.87391 7.74569C8.63953 7.98983 8.63953 8.38631 8.87391 8.63045C9.10828 8.87459 9.48891 8.87459 9.72328 8.63045L11.8233 6.44295C12.0577 6.19881 12.0577 5.80233 11.8233 5.55819L9.72328 3.37069C9.48891 3.12655 9.10828 3.12655 8.87391 3.37069L8.87578 3.36873ZM3.12516 3.36873C2.89078 3.12459 2.51016 3.12459 2.27578 3.36873L0.175781 5.55623C-0.0585938 5.80037 -0.0585938 6.19686 0.175781 6.441L2.27578 8.6285C2.51016 8.87264 2.89078 8.87264 3.12516 8.6285C3.35953 8.38436 3.35953 7.98787 3.12516 7.74373L1.44891 5.99959L3.12516 4.2535C3.35953 4.00936 3.35953 3.61287 3.12516 3.36873Z" fill="black"/>
</g>
<defs>
<clipPath id="clip0_4962_20884">
<rect width="12" height="10" fill="white" transform="translate(0 1)"/>
</clipPath>
</defs>
</svg>
