<svg width="27" height="25" viewBox="0 0 27 25" fill="none" xmlns="http://www.w3.org/2000/svg">
<g clip-path="url(#clip0_5268_25975)">
<path d="M7.68783 9.83761C7.47074 9.67578 7.25308 9.59487 7.03598 9.59487H6.06017V15.4247H7.03654C7.25364 15.4247 7.4713 15.3437 7.68839 15.1819C7.90549 15.0201 8.01404 14.7773 8.01404 14.4531V10.5664C8.01348 10.2427 7.90437 9.99944 7.68783 9.83761ZM23.5773 0H3.42312C2.06906 0 0.970154 1.09319 0.966797 2.4442V22.5558C0.970154 23.9068 2.06906 25 3.42312 25H23.5773C24.9319 25 26.0302 23.9068 26.0336 22.5558V2.4442C26.0302 1.09319 24.9313 0 23.5773 0ZM9.5947 14.4637C9.5947 15.5134 8.94509 17.1038 6.88883 17.1004H4.29262V7.86719H6.94366C8.92662 7.86719 9.59358 9.45536 9.59414 10.5056L9.5947 14.4637ZM15.228 9.51618H12.2469V11.6602H14.0692V13.3103H12.2469V15.4537H15.2286V17.1038H11.7494C11.125 17.12 10.6058 16.6278 10.5901 16.005V9.02344C10.575 8.40123 11.0691 7.88449 11.6929 7.86886H15.2286L15.228 9.51618ZM21.027 15.9498C20.2884 17.6657 18.9651 17.3242 18.3726 15.9498L16.2167 7.86942H18.0391L19.7014 14.2154L21.356 7.86942H23.1789L21.027 15.9498Z" fill="black"/>
</g>
<defs>
<clipPath id="clip0_5268_25975">
<rect width="27" height="25" fill="white"/>
</clipPath>
</defs>
</svg>
