<svg width="1094" height="384" viewBox="0 0 1094 384" fill="none" xmlns="http://www.w3.org/2000/svg">
<path d="M116.798 248.59H113.13V255.767H109.408V236.699H116.798C120.736 236.699 123.092 239.407 123.092 242.642C123.092 245.889 120.736 248.59 116.798 248.59ZM116.61 240.021H113.13V245.245H116.61C118.302 245.245 119.367 244.201 119.367 242.642C119.367 241.095 118.3 240.021 116.61 240.021Z" fill="#00427A"/>
<path d="M143.761 255.767L142.638 252.397H135.86L134.71 255.767H130.826L137.763 236.701H140.679L147.647 255.767H143.761ZM139.317 242.325L136.906 249.255H141.646L139.317 242.325Z" fill="#00427A"/>
<path d="M168.156 255.767L164.433 248.163H161.753V255.767H158.032V236.699H165.501C169.385 236.699 171.691 239.357 171.691 242.54C171.691 245.214 170.056 246.877 168.208 247.546L172.464 255.765H168.156V255.767ZM165.264 240.021H161.753V245.056H165.264C166.896 245.056 167.966 244.012 167.966 242.54C167.966 241.069 166.896 240.021 165.264 240.021Z" fill="#00427A"/>
<path d="M183.581 236.699H187.304V255.767H183.581V236.699Z" fill="#00427A"/>
<path d="M205.033 255.929C202.134 255.929 199.937 255.312 198.065 253.411L200.473 251.003C201.678 252.209 203.31 252.607 205.083 252.607C207.28 252.607 208.454 251.78 208.454 250.251C208.454 249.579 208.267 249.022 207.868 248.642C207.495 248.294 207.061 248.109 206.181 247.978L203.873 247.654C202.238 247.412 201.037 246.904 200.181 246.076C199.273 245.164 198.812 243.938 198.812 242.325C198.812 238.92 201.334 236.541 205.457 236.541C208.084 236.541 209.984 237.188 211.613 238.768L209.26 241.096C208.058 239.948 206.61 239.782 205.353 239.782C203.367 239.782 202.404 240.883 202.404 242.19C202.404 242.678 202.565 243.178 202.966 243.558C203.342 243.912 203.955 244.201 204.734 244.306L206.981 244.629C208.727 244.868 209.826 245.345 210.627 246.1C211.645 247.063 212.1 248.458 212.1 250.142C212.098 253.836 209.021 255.929 205.033 255.929Z" fill="#00427A"/>
<path d="M138.729 129.289C140.538 130.63 141.498 132.572 141.498 134.972V215.014C141.498 217.992 140.163 219.617 138.565 220.694C141.485 220.694 190.523 220.694 191.198 220.694C191.31 220.143 192.968 211.833 193.561 208.801C188.832 215.506 183.374 215.574 170.481 215.687H169.569C162.767 215.687 156.029 215.082 153.789 214.895L153.407 214.84V172.271H175.942C177.532 172.271 179.226 173.59 180.254 174.967C180.254 172.908 180.254 166.91 180.254 164.83C179.226 166.228 177.53 167.535 175.942 167.535H153.407V134.012H153.828C154.048 134.012 174.611 134.288 177.149 134.288C182.769 134.288 185.664 135.824 188.108 138.364C188.074 136.656 187.897 129.966 187.876 129.289C187.093 129.289 141.449 129.289 138.729 129.289Z" fill="#00427A"/>
<path d="M214.138 143.089C205.885 151.648 201.183 163.363 201.183 175.264C201.183 188.488 206.528 200.517 216.211 209.124C225.491 217.368 237.935 221.91 251.23 221.91C258.197 221.91 271.833 220.737 285.004 212.846C285.449 207.309 285.995 199.625 286.19 196.209C275.531 216.762 259.153 216.79 253.669 216.79C226.402 216.79 214.186 195.046 214.186 173.523C214.186 162.225 217.739 152.064 224.179 144.914C231.233 137.062 241.47 132.934 253.791 132.934C260.468 132.934 276.573 135.038 285.511 153.575C285.334 149.945 284.759 141.676 284.335 135.67C272.239 130.419 262.461 128.069 252.706 128.069C236.941 128.071 223.587 133.269 214.138 143.089Z" fill="#00427A"/>
<path d="M93.5351 134.972V162.586C97.7691 163.04 101.822 163.604 105.719 164.282V134.972C105.719 132.405 106.54 130.545 108.198 129.289H91.0171C92.6801 130.583 93.5351 132.492 93.5351 134.972ZM124.799 182.181L124.911 172.185C110.946 167.554 92.2391 164.75 71.5941 164.718C62.4461 164.718 53.6691 165.275 45.4997 166.296V134.972C45.4997 132.572 46.3912 130.619 48.0799 129.289H30.7928C32.4491 130.583 33.3146 132.492 33.3146 134.972V168.23C19.3238 170.976 7.93758 175.188 0.809082 180.288L1.92788 181.931C9.20088 177.677 20.1422 174.47 33.313 172.682V215.014C33.313 217.41 32.4215 219.307 30.7051 220.694H48.1319C46.3928 219.269 45.4981 217.349 45.4981 215.014V171.459C53.773 170.948 62.6501 170.93 71.8801 171.49C79.4051 171.96 86.6711 172.801 93.5341 173.924V215.014C93.5341 217.41 92.6571 219.307 90.9361 220.694H108.271C106.584 219.357 105.717 217.5 105.717 215.014V176.352C112.751 178 119.193 179.948 124.799 182.181Z" fill="#00427A"/>
<mask id="mask0" mask-type="alpha" maskUnits="userSpaceOnUse" x="362" y="0" width="732" height="384">
<path d="M1094 0H362V384H1094V0Z" fill="#C4C4C4"/>
</mask>
<g mask="url(#mask0)">
<path d="M363 384C427.617 384 480 298.039 480 192C480 85.9613 427.617 0 363 0C298.383 0 246 85.9613 246 192C246 298.039 298.383 384 363 384Z" fill="url(#paint0_radial)"/>
<path d="M354 288C379.405 288 400 245.019 400 192C400 138.981 379.405 96 354 96C328.595 96 308 138.981 308 192C308 245.019 328.595 288 354 288Z" fill="url(#paint1_radial)"/>
<path d="M364 275C381.121 275 395 237.84 395 192C395 146.16 381.121 109 364 109C346.879 109 333 146.16 333 192C333 237.84 346.879 275 364 275Z" fill="url(#paint2_radial)"/>
<path d="M361 253C375.912 253 388 225.689 388 192C388 158.311 375.912 131 361 131C346.088 131 334 158.311 334 192C334 225.689 346.088 253 361 253Z" fill="url(#paint3_radial)"/>
<path d="M560.926 138C554.326 141.4 549.526 147.4 548.126 154.2C546.426 162.1 546.726 189.8 548.526 196C550.526 202.6 554.626 207.3 561.226 210.6C565.526 212.7 567.826 213.2 574.226 213.2C588.226 213.2 596.326 207.1 600.426 193.4C600.704 192.605 601 191.5 601 191C600.5 191 599.289 191 597 191C594.824 191 594 191 593 191C592.5 192.5 592.328 192.968 592.026 193.8C587.926 204.6 575.326 209.5 565.026 204.2C556.726 200 554.626 192.6 555.226 170.1C555.626 156.5 555.826 155.3 558.326 151C564.326 140.7 579.026 139.1 587.226 147.8C588.726 149.4 590.626 152.4 591.526 154.4C592.926 157.9 593.326 158.2 597.026 158.2C600.926 158.2 601.026 158.1 600.426 155.4C599.326 150.7 594.726 143.1 591.526 140.6C586.326 136.6 581.526 135.2 573.626 135.2C567.526 135.2 565.326 135.7 560.926 138Z" fill="#00427A"/>
<path d="M616.026 163C616.026 194.5 616.626 198.6 622.626 205.2C627.926 211.1 633.426 213.2 643.226 213.2C653.026 213.2 657.726 211.4 663.226 205.7C669.626 199.1 670.026 196.5 670.026 164V135.2H666.026H662.026V163.4C662.026 194.9 661.626 197 655.126 202.5C649.326 207.3 637.826 207.5 631.726 202.9C624.926 197.7 624.526 196 624.226 163.9L623.926 135.2H619.926H616.026V163Z" fill="#00427A"/>
<path d="M690.026 174.3V213.4L709.326 213L728.726 212.7L733.526 209.7C741.726 204.6 745.126 194 741.626 184.7C740.026 180.7 735.326 175.4 731.826 173.8C730.826 173.3 730.826 173.1 732.026 172.5C735.326 171.1 739.926 165.3 741.026 161.3C743.926 150.3 737.626 139.3 726.526 136.3C724.326 135.7 715.226 135.2 706.326 135.2H690.026V174.3ZM726.726 144.5C731.326 147 733.226 150.4 733.226 156.2C733.226 166.7 728.626 169.5 710.826 170L698.026 170.4V156.2V142L710.826 142.4C720.226 142.7 724.326 143.3 726.726 144.5ZM728.726 179.8C738.426 186.9 735.926 201.9 724.426 205.1C722.326 205.7 715.426 206.2 709.326 206.2H698.026V191.6V177L711.926 177.4C724.126 177.7 726.226 178 728.726 179.8Z" fill="#00427A"/>
<path d="M777.226 140.4C768.426 164.1 751.026 212.4 751.026 213C752 213 753 213 755.226 213H759L762.426 204.2L765.626 195.7H782.526H799.526L802.526 204.2L805.5 213H809.826C812 213 813.5 213 814 213C814 212.6 807.726 194.6 800.126 173.7L786 135H782.5C781.047 134.872 779.5 135 779 135C778 137.5 778.314 137.479 777.226 140.4ZM790.326 168.9L796.926 188.2H782.526H768.126L773.126 173.9C775.926 166.1 779.126 157.1 780.226 153.9C781.326 150.7 782 149 782.5 148C783 149 786.726 158.4 790.326 168.9Z" fill="#00427A"/>
<path d="M810.026 138.7V142.1L821.326 142.4L832.526 142.7L832.826 177.9L833.026 213.2H837.026H841.026L841.226 177.9L841.526 142.7L852.826 142.4L864.026 142.1V138.7V135.2H837.026H810.026V138.7Z" fill="#00427A"/>
<path d="M876.026 174.2V213.2H900.026H924.026V209.7V206.2L904.326 206L884.526 205.7V191.7V177.7L901.326 177.4L918.026 177.2V173.7V170.2H901.026H883.926L884.226 156.4L884.526 142.7L904.326 142.4L924.026 142.2V138.7V135.2H900.026H876.026V174.2Z" fill="#00427A"/>
<path d="M938.226 164.9L938.526 194.7L941.226 199.8C946.526 209.8 953.926 213.6 967.33 213.1C974.53 212.7 976.33 212.3 980.63 209.7C986.73 205.9 990.73 199.5 992.03 191.7C992.53 188.4 993.03 174.3 993.03 160.4V135.2H988.53H984.03V163.9C984.03 191 983.93 192.8 981.93 196.9C976.03 209.1 956.026 209.6 949.326 197.7C947.126 193.8 947.026 192.9 947.026 164.4V135.2H942.426H937.926L938.226 164.9Z" fill="#00427A"/>
<path d="M1012.03 174.1V213.2H1016.03H1020.03V195.7V178.2H1029.33H1038.53L1047.53 195.7L1056.53 213.2H1061.33H1066.13L1057.03 195.8C1052.13 186.3 1048.03 178.3 1048.03 178C1048.03 177.7 1049.43 177.2 1051.13 176.8C1056.23 175.8 1062.53 168.7 1063.93 162.4C1066.03 152.2 1062.73 143.8 1054.63 138.7L1049.73 135.7L1030.83 135.4L1012.03 135V174.1ZM1044.93 143.3C1048.73 144.1 1050.73 145.3 1053.13 147.9C1056.03 151.3 1056.23 151.9 1055.83 157.8C1055.13 168.9 1051.13 171.2 1032.53 171.2H1020.03V157.4C1020.03 149.8 1020.33 143.2 1020.73 142.9C1021.73 141.8 1039.43 142.1 1044.93 143.3Z" fill="#00427A"/>
<path d="M440 174V213H449.5H459V174V135H449.5H440V174Z" fill="#00427A"/>
<path d="M472 174V213H481.5H491V193.8C491 180.9 491.3 174.9 492 175.6C492.6 176.2 498.1 184.7 504.4 194.6L515.7 212.5L524.4 212.8L533 213.1V174V135H523.5H514L513.8 154.5L513.5 174.1L501.1 154.5L488.8 135H480.4H472V174Z" fill="#00427A"/>
</g>
<defs>
<radialGradient id="paint0_radial" cx="0" cy="0" r="1" gradientUnits="userSpaceOnUse" gradientTransform="translate(363 192) rotate(90) scale(192 117)">
<stop offset="0.234375" stop-color="#F856A7"/>
<stop offset="0.708333" stop-color="#FE9ED4" stop-opacity="0.6"/>
<stop offset="1" stop-color="#FE9ED4" stop-opacity="0"/>
</radialGradient>
<radialGradient id="paint1_radial" cx="0" cy="0" r="1" gradientUnits="userSpaceOnUse" gradientTransform="translate(354 192) rotate(90) scale(102.472 49.1011)">
<stop offset="0.5" stop-color="#FA3E8E"/>
<stop offset="0.8125" stop-color="#FA3E8E" stop-opacity="0"/>
</radialGradient>
<radialGradient id="paint2_radial" cx="0" cy="0" r="1" gradientUnits="userSpaceOnUse" gradientTransform="translate(364 192) rotate(90) scale(84.3833 31.5167)">
<stop stop-color="#FD4363"/>
<stop offset="1" stop-color="#FD4363" stop-opacity="0"/>
</radialGradient>
<radialGradient id="paint3_radial" cx="0" cy="0" r="1" gradientUnits="userSpaceOnUse" gradientTransform="translate(361 192) rotate(90) scale(78.0096 34.5288)">
<stop stop-color="#FE7635"/>
<stop offset="0.838542" stop-color="#FE7635" stop-opacity="0"/>
</radialGradient>
</defs>
</svg>
