<svg width="120" height="17" viewBox="0 0 120 17" fill="none" xmlns="http://www.w3.org/2000/svg">
<g clip-path="url(#clip0_5144_25405)">
<path fill-rule="evenodd" clip-rule="evenodd" d="M26.9565 0.611898H26.6997C25.3479 0.609783 24.2509 1.71014 24.2509 3.06866V8.56305C24.2509 9.66024 23.3486 10.549 22.2747 10.549C21.6367 10.549 20.9998 10.2263 20.6219 9.68458L15.0377 1.66994C14.5745 1.00443 13.8207 0.607666 13.0048 0.607666C11.7319 0.607666 10.5865 1.69533 10.5865 3.03798V8.56412C10.5865 9.66131 9.69158 10.5501 8.61035 10.5501C7.97024 10.5501 7.33434 10.2274 6.95639 9.68563L0.707971 0.717702C0.566899 0.515618 0.25 0.615072 0.25 0.862654V5.65451C0.25 5.8968 0.323696 6.13169 0.461618 6.3306L6.61001 15.1557C6.97323 15.6773 7.50911 16.0645 8.12711 16.2053C9.67368 16.5587 11.0971 15.362 11.0971 13.8374V8.31442C11.0971 7.21723 11.9815 6.32848 13.0732 6.32848H13.0764C13.7344 6.32848 14.3514 6.65118 14.7293 7.19289L20.3133 15.2065C20.7776 15.873 21.4925 16.2688 22.3453 16.2688C23.6466 16.2688 24.7614 15.18 24.7614 13.8384V8.31336C24.7614 7.21618 25.6458 6.32742 26.7376 6.32742H26.9555C27.0924 6.32742 27.2029 6.21633 27.2029 6.07879V0.85948C27.2029 0.721935 27.0924 0.61084 26.9555 0.61084L26.9565 0.611898ZM59.0134 4.74671H57.6469C57.5079 4.74671 57.3953 4.85993 57.3953 4.99958V16.0137C57.3953 16.1534 57.5079 16.2667 57.6469 16.2667H59.0134C59.1524 16.2667 59.265 16.1534 59.265 16.0137V4.99958C59.265 4.85993 59.1524 4.74671 59.0134 4.74671ZM57.6016 0.608725H59.0577C59.1966 0.608725 59.3093 0.721936 59.3093 0.861597V2.66027C59.3093 2.79992 59.1966 2.91314 59.0577 2.91314H57.6016C57.4626 2.91314 57.35 2.79992 57.35 2.66027V0.861597C57.35 0.721936 57.4626 0.608725 57.6016 0.608725ZM67.1928 4.43353C65.6569 4.43353 64.544 4.96997 63.8313 5.75397C63.6028 5.98674 63.208 5.82379 63.208 5.49687V4.99958C63.208 4.85993 63.0953 4.74671 62.9563 4.74671H61.6129C61.4741 4.74671 61.3614 4.85993 61.3614 4.99958V16.0137C61.3614 16.1534 61.4741 16.2667 61.6129 16.2667H62.9574C63.0964 16.2667 63.209 16.1534 63.209 16.0137V9.04129C63.209 6.62473 63.6765 6.08831 66.237 6.08831C68.7973 6.08831 69.2195 6.51364 69.2195 8.92914V16.0127C69.2195 16.1524 69.3321 16.2655 69.4711 16.2655H70.8377C70.9767 16.2655 71.0894 16.1524 71.0894 16.0127V8.41388C71.0894 5.66192 69.5312 4.43142 67.194 4.43142V4.43353H67.1928ZM81.1531 5.91056C81.3816 6.14333 81.7764 5.98038 81.7764 5.65345V0.862652C81.7764 0.722992 81.8891 0.609783 82.028 0.609783H83.3724C83.5114 0.609783 83.6241 0.722992 83.6241 0.862652V16.0148C83.6241 16.1545 83.5114 16.2677 83.3724 16.2677H82.028C81.8891 16.2677 81.7764 16.1545 81.7764 16.0148V15.361C81.7901 15.0266 81.3868 14.8658 81.1531 15.1038C80.5078 15.909 79.2612 16.5798 77.5915 16.5798C74.6541 16.5798 72.7391 14.4775 72.7391 10.5627C72.7391 6.42476 74.8753 4.43353 77.6578 4.43353C79.3276 4.43353 80.5299 5.10538 81.1531 5.91056ZM74.7636 10.5173C74.7636 14.2976 75.2311 14.8573 78.2811 14.8573C81.309 14.8573 81.7764 14.2976 81.7764 10.5173C81.7764 6.73689 81.331 6.15496 78.2811 6.15496C75.2311 6.15496 74.7636 6.73689 74.7636 10.5173ZM91.438 9.80307L89.2356 9.42325C87.61 9.13228 87.3206 8.6403 87.3206 7.78963C87.3426 6.62579 87.788 6.04492 89.9473 6.04492C91.9697 6.04492 92.6172 6.64589 92.7562 7.94305C92.7699 8.07107 92.8773 8.16948 93.0057 8.16948H94.3417C94.4848 8.16948 94.6017 8.04886 94.5933 7.9039C94.4638 5.67673 92.4351 4.43248 90.0147 4.43248C87.2985 4.43248 85.496 5.88622 85.496 7.96738C85.496 9.86867 86.9658 10.6971 88.7239 11.0325L91.1506 11.4801C92.4867 11.7266 92.932 12.1741 92.932 13.0237C92.932 14.3886 92.4645 14.9706 90.1716 14.9706C87.8785 14.9706 87.2447 14.306 87.0973 12.9592C87.0836 12.8311 86.9762 12.7338 86.8478 12.7338H85.5034C85.3623 12.7338 85.2476 12.8513 85.2507 12.9931C85.315 15.3926 87.4795 16.5819 90.0588 16.5819C92.8636 16.5819 94.7997 15.1282 94.7997 12.9348C94.7997 11.0114 93.3299 10.1385 91.438 9.80307ZM101.168 14.9261C103.661 14.9261 104.128 14.3897 104.128 11.9731V5.00276C104.128 4.8631 104.241 4.74989 104.38 4.74989H105.747C105.886 4.74989 105.998 4.8631 105.998 5.00276V16.017C105.998 16.1566 105.886 16.2698 105.747 16.2698H104.38C104.241 16.2698 104.128 16.1566 104.128 16.017V15.5366C104.123 15.1948 103.771 15.0245 103.527 15.2636C102.816 16.0465 101.703 16.583 100.211 16.583C97.9179 16.583 96.3598 15.3525 96.3598 12.6006V5.0017C96.3598 4.86204 96.4725 4.74883 96.6115 4.74883H97.978C98.117 4.74883 98.2296 4.86204 98.2296 5.0017V12.0853C98.2296 14.5007 98.6749 14.9261 101.168 14.9261ZM116.933 4.74671V3.26969C116.933 2.68883 117.401 2.218 117.98 2.218H118.997C119.135 2.218 119.248 2.1048 119.248 1.96513V0.860538C119.248 0.720878 119.135 0.607666 118.997 0.607666H118.291C116.287 0.607666 115.063 1.72601 115.063 3.65058V4.74671H113.582C112.269 4.74883 111.238 4.92976 110.551 5.75397C110.298 5.99414 109.949 5.81427 109.949 5.46512V5.00065C109.949 4.86098 109.837 4.74778 109.698 4.74778H108.331C108.192 4.74778 108.08 4.86098 108.08 5.00065V16.0148C108.08 16.1545 108.192 16.2677 108.331 16.2677H109.698C109.837 16.2677 109.949 16.1545 109.949 16.0148V9.11007C109.949 6.82787 110.529 6.29145 113.022 6.29145H115.063V16.0158C115.063 16.1555 115.176 16.2688 115.315 16.2688H116.682C116.82 16.2688 116.933 16.1555 116.933 16.0158V6.29145H118.999C119.137 6.29145 119.25 6.17825 119.25 6.03858V5.0017C119.25 4.86204 119.137 4.74883 118.999 4.74883H116.933V4.74671ZM49.7867 13.394C49.8351 13.5962 50.0152 13.739 50.2215 13.739H50.2225C50.4279 13.739 50.6068 13.5983 50.6564 13.3983L53.7906 0.800231C53.8189 0.687019 53.92 0.607666 54.0359 0.607666H55.6003C55.7678 0.607666 55.8898 0.766374 55.8477 0.929311L51.9049 16.0836C51.8766 16.1904 51.7807 16.2655 51.6702 16.2655H48.8791C48.7665 16.2655 48.6687 16.1883 48.6402 16.0794L45.3649 3.403C45.3144 3.20515 45.1364 3.06655 44.9323 3.06655H44.9038C44.7005 3.06655 44.5226 3.20515 44.4711 3.403L41.1969 16.0794C41.1684 16.1894 41.0705 16.2655 40.9579 16.2655H38.1668C38.0563 16.2655 37.9595 16.1904 37.9321 16.0836L33.9894 0.929311C33.9472 0.766374 34.0693 0.607666 34.2368 0.607666H35.8012C35.917 0.607666 36.0181 0.687019 36.0465 0.800231L39.1797 13.3983C39.2291 13.5983 39.4071 13.739 39.6134 13.739C39.8198 13.739 39.9998 13.5962 40.0483 13.394L43.0603 0.802347C43.0877 0.688079 43.1888 0.607666 43.3057 0.607666H46.5304C46.6472 0.607666 46.7483 0.688079 46.7757 0.802347L49.7867 13.394Z" fill="black"/>
</g>
<defs>
<clipPath id="clip0_5144_25405">
<rect width="119" height="16" fill="white" transform="translate(0.25 0.600006)"/>
</clipPath>
</defs>
</svg>
