<svg width="1078" height="228" viewBox="0 0 1078 228" fill="none" xmlns="http://www.w3.org/2000/svg">
<rect width="1077.35" height="227.48" fill="#15284A"/>
<g clip-path="url(#clip0_5808_17136)">
<path d="M86.3202 100.62C82.8602 100.62 81.8702 101.12 81.8702 103.84V125.96C81.8702 127.07 82.2402 133.99 83.3502 135.23C84.7102 136.71 88.6602 137.58 92.6202 137.58C102.01 137.58 108.93 131.15 108.93 120.4C108.93 109.65 99.7902 100.62 86.3202 100.62ZM90.4002 66.1502C82.2402 66.1502 81.8702 67.2602 81.8702 69.7302V96.5502C81.8702 98.5302 83.4802 98.2802 86.4402 98.2802C93.9802 98.2802 99.1702 99.0202 99.1702 99.0202C102.75 96.3002 106.83 93.9502 106.83 84.1902C106.83 78.0102 101.64 66.1502 90.3902 66.1502M92.0002 139.81C86.8102 139.81 81.6202 138.57 76.1802 138.57C70.7402 138.57 68.2702 139.06 64.3202 139.06C63.0802 139.06 62.2202 138.94 62.2202 137.7C62.2202 136.46 62.9602 136.22 65.6802 136.22C71.2402 136.22 71.4902 135.97 71.4902 134.12V77.2702C71.4902 67.5102 69.5102 66.4002 66.0502 66.4002C60.4902 66.4002 59.9902 66.2802 59.9902 64.7902C59.9902 63.9202 60.3602 63.8002 62.4602 63.8002C66.2902 63.8002 70.1202 63.9202 74.4502 63.9202C77.0402 63.9202 82.9802 63.1802 94.1002 63.1802C110.17 63.1802 117.09 71.4602 117.09 80.2302C117.09 89.0002 111.78 93.3302 107.82 96.0502C105.47 97.6602 102.75 99.0202 102.75 99.3902C102.75 99.6402 105.1 100.25 107.57 101.49C113.38 104.46 120.67 108.66 120.67 119.41C120.67 133.25 109.18 139.8 92.0002 139.8" fill="#FFB700"/>
<path d="M143.52 96.22C135.35 96.22 132.77 108.47 132.77 109.98C132.77 110.52 132.77 110.62 134.06 110.62C139.65 110.62 145.45 109.22 153.51 107.93C154.69 107.72 154.8 107.5 154.8 106.86C154.8 104.17 148.46 96.22 143.51 96.22M160.06 109.12C157.27 109.77 146.52 112.13 134.26 112.88C132.54 112.99 132.22 113.53 132.22 116C132.22 130.83 143.72 134.81 151.89 134.81C158.98 134.81 162.85 132.23 163.5 132.23C164.04 132.23 164.36 132.87 164.36 133.09C164.36 133.63 155.22 140.4 146.51 140.4C137.8 140.4 124.58 136.1 124.58 118.15C124.58 102.99 134.79 93.96 144.57 93.96C150.16 93.96 157.04 97.51 160.91 102.02C162.74 104.17 164.46 106.75 164.46 107.61C164.46 108.04 162.96 108.47 160.05 109.12" fill="#FFB700"/>
<path d="M199.42 106.21C197.92 106.21 196.63 101.8 191.25 101.8C185.02 101.8 182.65 104.38 182.65 108.89V131.03C182.65 136.3 182.97 136.3 190.93 136.3C193.72 136.3 193.83 136.62 193.83 137.59C193.83 138.77 193.72 138.67 190.93 138.67C189.42 138.67 182.22 138.13 178.78 138.13C175.13 138.13 171.47 138.67 169.97 138.67C167.5 138.67 167.28 138.67 167.28 137.59C167.28 136.51 167.39 136.3 169.97 136.3C174.38 136.3 174.7 136.19 174.7 134.69V105.24C174.7 97.9302 174.91 97.7202 168.9 97.7202C166.96 97.7202 166.96 97.8302 166.96 96.6402C166.96 95.3502 166.85 95.0302 168.68 95.0302C172.33 95.0302 174.38 95.2402 176.53 95.2402C178.25 95.2402 180.29 94.7002 182.01 94.7002C182.44 94.7002 182.87 95.0202 182.87 95.8802C182.87 96.4202 182.65 98.7802 182.65 99.1002C182.65 100.07 182.76 100.82 183.19 100.82C184.8 100.82 189.85 95.2302 194.9 95.2302C196.84 95.2302 201.78 97.6002 201.78 100.39C201.78 101.46 200.06 106.19 199.42 106.19" fill="#FFB700"/>
<path d="M250.26 139.11C248.97 139.11 247.57 139 246.61 139C245.32 139 242.09 139.11 240.59 139.11C238.65 139.11 237.68 136.42 233.17 131.26C228.66 126.1 224.14 119.33 223.49 119.33C223.06 119.33 221.56 120.41 219.73 121.59C218.01 122.67 216.51 123.42 216.51 124.39V131.16C216.51 136.21 216.3 136.21 222.96 136.21C225.43 136.21 225.86 136.75 225.86 137.61C225.86 138.69 225.32 138.69 222.96 138.69C221.35 138.69 216.4 138.48 212.96 138.48C209.3 138.48 205.33 138.69 203.82 138.69C201.35 138.69 200.7 138.58 200.7 137.61C200.7 136.75 201.24 136.21 203.82 136.21C207.47 136.21 208.44 136.21 208.44 134.6C208.44 131.48 208.76 99.6699 208.76 76.9799C208.76 69.3499 207.9 68.3799 205 68.3799C200.59 68.3799 200.16 68.0599 200.16 67.2999C200.16 66.2299 200.37 65.7999 201.56 65.7999C209.3 65.7999 215.64 63.4399 216.61 63.4399C217.15 63.4399 217.36 63.7599 217.36 64.4099C217.36 65.8099 217.14 70.3199 217.14 73.7599C217.14 90.0999 216.49 102.14 216.49 119.66C216.49 120.09 216.6 120.41 216.92 120.41C219.61 120.41 230.79 110.52 234.23 107.29C238.42 103.31 239.39 101.49 239.39 99.2299C239.39 97.5099 239.07 97.2999 234.34 97.2999C232.73 97.2999 232.19 97.0799 232.19 96.1199C232.19 95.2599 232.73 95.0399 234.13 95.0399C235.2 95.0399 237.25 95.3599 238.54 95.3599C239.94 95.3599 246.17 95.0399 247.46 95.0399C248.32 95.0399 248.75 95.1499 248.75 95.4699C248.75 96.4399 245.1 101.06 241.76 104.29C236.38 109.56 229.72 114.29 229.72 115.04C229.72 116.01 231.65 118.05 239.18 127.08C242.84 131.49 246.28 136.75 249.93 136.75C252.51 136.75 253.37 137.29 253.37 138.15C253.37 138.9 252.62 139.12 250.25 139.12" fill="#FFB700"/>
<path d="M268.859 96.22C260.689 96.22 258.109 108.47 258.109 109.98C258.109 110.52 258.109 110.62 259.399 110.62C264.989 110.62 270.789 109.22 278.859 107.93C280.039 107.72 280.149 107.5 280.149 106.86C280.149 104.17 273.809 96.22 268.859 96.22ZM285.419 109.12C282.619 109.77 271.879 112.13 259.619 112.88C257.899 112.99 257.579 113.53 257.579 116C257.579 130.83 269.079 134.81 277.249 134.81C284.339 134.81 288.219 132.23 288.859 132.23C289.399 132.23 289.719 132.87 289.719 133.09C289.719 133.63 280.579 140.4 271.879 140.4C263.179 140.4 249.949 136.1 249.949 118.15C249.949 102.99 260.159 93.96 269.939 93.96C275.529 93.96 282.409 97.51 286.279 102.02C288.109 104.17 289.829 106.75 289.829 107.61C289.829 108.04 288.329 108.47 285.419 109.12Z" fill="#FFB700"/>
<path d="M309.091 138.68C307.481 138.68 305.111 138.46 303.181 138.46C299.531 138.46 293.831 138.68 292.321 138.68C289.851 138.68 289.631 138.46 289.631 137.61C289.631 136.86 289.741 136.21 292.321 136.21C296.731 136.21 298.551 136.32 298.551 134.38V75.1501C298.551 68.3801 297.911 68.3801 293.071 68.3801C291.131 68.3801 290.061 68.1701 290.061 66.9801C290.061 65.6901 290.921 65.8001 292.751 65.6901C301.131 65.1501 305.221 63.3301 305.861 63.3301C306.401 63.3301 306.931 63.8701 306.931 65.0501C306.931 66.3401 306.391 70.2101 306.391 73.4401C306.391 114.4 305.851 122.89 305.851 126C305.851 134.92 306.601 136.1 308.541 136.1C313.911 136.1 313.701 136.74 313.701 137.61C313.701 138.68 312.951 138.68 309.081 138.68" fill="#FFB700"/>
<path d="M330.859 96.22C322.689 96.22 320.109 108.47 320.109 109.98C320.109 110.52 320.109 110.62 321.399 110.62C326.989 110.62 332.799 109.22 340.859 107.93C342.039 107.72 342.149 107.5 342.149 106.86C342.149 104.17 335.799 96.22 330.859 96.22ZM347.419 109.12C344.629 109.77 333.879 112.13 321.619 112.88C319.899 112.99 319.579 113.53 319.579 116C319.579 130.83 331.079 134.81 339.249 134.81C346.349 134.81 350.219 132.23 350.859 132.23C351.399 132.23 351.719 132.87 351.719 133.09C351.719 133.63 342.579 140.4 333.879 140.4C325.179 140.4 311.949 136.1 311.949 118.15C311.949 102.99 322.159 93.96 331.949 93.96C337.539 93.96 344.419 97.51 348.289 102.02C350.119 104.17 351.839 106.75 351.839 107.61C351.839 108.04 350.329 108.47 347.429 109.12" fill="#FFB700"/>
<path d="M396.11 97.6098C393.74 97.6098 389.01 110.51 380.52 131.15C373.74 147.59 368.91 156.3 365.47 163.4C364.29 165.77 363 165.87 360.63 166.19C357.41 166.62 356.65 167.48 354.29 167.48C352.46 167.48 351.39 166.94 351.39 166.41C351.39 165.77 356.44 165.12 360.1 160.5C363.97 155.66 373.21 142.98 373.21 139.76C373.21 138.58 364.61 118.69 358.7 104.72C356.01 98.2698 355.26 97.7298 353.33 97.7298C351.18 97.7298 351.07 97.6198 351.07 96.6598C351.07 95.6998 351.39 95.1498 353.33 95.1498C356.34 95.1498 357.09 95.3598 359.67 95.3598C362.68 95.3598 366.44 95.0398 369.88 95.0398C372.14 95.0398 372.57 95.4698 372.57 96.6498C372.57 97.6198 372.14 97.7198 369.88 97.7198C367.3 97.7198 366.66 98.3698 366.66 100.84C366.66 103.96 369.45 107.72 375.9 124.27C376.76 126.53 378.05 128.35 378.48 128.35C379.23 128.35 379.88 126.84 381.6 121.79C384.18 114.05 388.05 102.87 388.05 101.37C388.05 98.1498 388.05 97.4998 384.4 97.4998C381.07 97.4998 380.64 97.4998 380.64 96.4198C380.64 95.0198 380.96 95.0198 382.9 95.0198C385.8 95.0198 387.74 95.2298 390.64 95.2298C392.25 95.2298 395.15 94.7998 396.66 94.7998C398.38 94.7998 398.92 94.9098 398.92 96.0898C398.92 97.0598 397.41 97.5998 396.13 97.5998" fill="#FFB700"/>
<path d="M816.66 97.6499V103.93H781.6V132.3H820.69V138.47H774.84V65.6499H819.11V71.6599L781.34 71.6299L781.39 97.6499H816.66Z" fill="white"/>
<path d="M510.001 65.6399H516.591V97.9599L552.651 65.4399L562.131 65.4999C562.131 65.4999 537.521 87.7899 525.191 98.9599C538.081 112.07 564.141 138.57 564.141 138.57L554.091 138.5L516.751 101.11V138.59H509.881L510.001 65.6399Z" fill="white"/>
<path d="M914.269 79.2802C912.579 77.9002 911.129 76.5902 909.589 75.3302C901.109 68.3802 887.069 68.0802 876.899 74.6302C858.709 86.3502 858.359 117.09 876.369 129.1C888.279 137.04 905.619 136.17 914.919 123.78C915.339 123.28 915.639 122.89 915.639 122.89C917.709 124.45 919.239 125.6 921.159 127.05C917.929 131.86 913.779 135.43 908.589 137.54C887.169 146.26 857.799 135.41 856.389 104.18C855.969 94.8102 857.899 86.0202 863.559 78.3702C871.349 67.8602 882.129 63.5702 894.949 63.7402C903.689 63.8602 911.349 66.5502 917.459 73.0202C917.859 73.4502 918.849 74.5902 919.209 75.0402L914.279 79.2602L914.269 79.2802Z" fill="white"/>
<path d="M422.619 129.37C425.209 127.65 426.859 126.55 429.039 125.1C429.769 126.05 430.399 126.92 431.079 127.75C436.899 134.74 448.539 136.27 456.189 131.31C463.289 126.71 465.719 113.85 454.919 108.82C451.229 107.1 447.249 106.02 443.429 104.58C440.389 103.43 437.259 102.43 434.409 100.9C422.279 94.4199 420.969 77.0399 431.889 68.6399C440.989 61.6399 456.619 62.1699 465.169 69.7999C466.149 70.6699 466.969 71.7099 468.019 72.8399C465.949 74.3299 464.069 75.6899 462.099 77.0999C456.529 69.9099 449.309 68.5499 441.139 70.9499C435.169 72.6999 431.939 76.8699 431.439 82.9499C430.989 88.4299 433.539 93.1299 439.039 95.6099C443.429 97.5899 448.119 98.9099 452.679 100.52C453.779 100.91 454.899 101.24 455.989 101.67C466.269 105.74 470.319 112.65 468.809 123.5C467.589 132.24 459.559 139.43 450.019 140.19C442.809 140.77 435.749 140.18 429.569 136C426.989 134.26 424.149 131.42 422.649 129.37H422.619Z" fill="white"/>
<path d="M623.211 138.47H616.331L616.441 107.87L589.631 65.5099L597.751 65.4199L619.791 100.03L642.351 65.4199L650.021 65.4999L623.281 108.06L623.211 138.47Z" fill="white"/>
<path d="M963.21 65.22H969.8V97.54L1005.86 65.02L1015.34 65.08C1015.34 65.08 990.73 87.37 978.4 98.54C991.29 111.65 1017.35 138.15 1017.35 138.15L1007.3 138.08L969.96 100.69V138.17H963.09L963.21 65.22Z" fill="white"/>
<path d="M689.43 60C686.16 60 682.98 60.37 679.92 61.04C680.49 61.02 681.07 61 681.65 61C704.85 61 723.65 79.36 723.65 102C723.65 124.64 704.85 143 681.65 143C681.07 143 680.5 142.98 679.92 142.96C682.98 143.63 686.16 144 689.43 144C713.18 144 732.43 125.2 732.43 102C732.43 78.8 713.18 60 689.43 60Z" fill="white"/>
</g>
<defs>
<clipPath id="clip0_5808_17136">
<rect width="957.35" height="107.48" fill="white" transform="translate(60 60)"/>
</clipPath>
</defs>
</svg>
