<svg width="254" height="52" viewBox="0 0 254 52" fill="none" xmlns="http://www.w3.org/2000/svg">
<mask id="mask0_3736_202" style="mask-type:luminance" maskUnits="userSpaceOnUse" x="0" y="0" width="196" height="52">
<path d="M195.265 0H0V52H195.265V0Z" fill="white"/>
</mask>
<g mask="url(#mask0_3736_202)">
<mask id="mask1_3736_202" style="mask-type:luminance" maskUnits="userSpaceOnUse" x="0" y="0" width="34" height="52">
<path d="M33.9592 0H0V52H33.9592V0Z" fill="white"/>
</mask>
<g mask="url(#mask1_3736_202)">
<path fill-rule="evenodd" clip-rule="evenodd" d="M16.2618 0.0365202C9.38245 0.714215 9.14017 10.8981 15.9763 12.0378C16.286 12.0894 16.3842 12.1165 16.3913 12.1525C16.3965 12.1783 16.3715 12.6919 16.336 13.2936C16.3005 13.8954 16.2557 15.0787 16.2365 15.923C16.2174 16.7675 16.1949 17.4632 16.1866 17.4693C16.1784 17.4753 16.0667 17.5317 15.9384 17.5948C15.6981 17.7129 15.382 17.9722 15.2549 18.1556C15.1836 18.2585 15.1836 18.2585 14.746 18.2727C14.0551 18.2954 13.6339 18.4642 13.2515 18.872C13.1455 18.9851 13.0484 19.0653 13.0356 19.0503C13.0227 19.0354 12.624 18.4482 12.1495 17.7455C11.6751 17.0427 11.1363 16.2514 10.9524 15.987L10.6179 15.5061L10.8141 15.2887C14.4746 11.2331 9.35618 5.12491 5.00375 8.3547C0.671432 11.5696 4.55435 18.3132 9.53558 16.2253C9.55606 16.2167 9.92611 16.6794 10.4108 17.3197C10.8727 17.9298 11.4496 18.682 11.6928 18.9912C11.936 19.3005 12.1555 19.5845 12.1806 19.6224C12.2322 19.7001 12.2488 19.6888 11.9702 19.7653C11.1976 19.9775 10.4692 20.6187 10.3249 21.2137C10.3059 21.2919 10.2748 21.3562 10.2558 21.3567C8.95032 21.3914 7.95122 22.361 7.93711 23.607C7.93233 24.0309 7.93233 24.0309 7.75453 24.1364C6.13637 25.0968 3.94104 28.3185 3.78428 29.963C3.76112 30.2061 3.77025 30.198 3.45004 30.2527C2.7275 30.376 2.30541 30.6369 1.86034 31.2351C1.29671 31.9928 1.24471 32.6441 1.67449 33.5638C1.82006 33.8755 1.82806 33.8202 1.58809 34.1584C-0.949445 37.7327 -0.420823 41.9272 2.99313 45.3065C5.22596 47.5167 8.36022 48.8642 11.8741 49.1242C13.2159 49.2235 13.3695 49.274 13.7151 49.7292C15.9873 52.7215 17.9487 52.7215 20.221 49.7292C20.5666 49.274 20.7202 49.2235 22.0619 49.1242C27.3142 48.7356 31.7085 45.8566 33.3557 41.7248C34.4057 39.0912 34.0725 36.5908 32.3472 34.156C32.1079 33.8181 32.116 33.8749 32.2615 33.5638C32.6913 32.6441 32.6393 31.9928 32.0758 31.2351C31.6307 30.6369 31.2085 30.376 30.486 30.2527C30.1657 30.198 30.175 30.2061 30.1518 29.963C30.1005 29.4238 29.5232 28.0399 28.9724 27.1354C28.2956 26.0237 26.9806 24.6107 26.1815 24.1364C26.0037 24.0309 26.0037 24.0309 25.9989 23.607C25.9848 22.361 24.9857 21.3914 23.6802 21.3567C23.6612 21.3562 23.6301 21.2919 23.6112 21.2137C23.4668 20.6187 22.7384 19.9775 21.9659 19.7653C21.6872 19.6888 21.7038 19.7001 21.7554 19.6224C21.7805 19.5845 22 19.3005 22.2433 18.9912C22.4865 18.682 23.0634 17.9298 23.5252 17.3197C24.0099 16.6794 24.38 16.2167 24.4005 16.2253C29.3817 18.3132 33.2647 11.5696 28.9323 8.3547C24.5798 5.12491 19.4614 11.2331 23.1219 15.2887L23.3182 15.5061L22.9837 15.987C22.7997 16.2514 22.261 17.0427 21.7866 17.7455C21.3121 18.4482 20.9134 19.0354 20.9005 19.0503C20.8876 19.0653 20.7906 18.9851 20.6845 18.872C20.3021 18.4642 19.881 18.2954 19.19 18.2727C18.7524 18.2585 18.7524 18.2585 18.6822 18.157C18.498 17.8914 18.0738 17.5897 17.7307 17.4803C17.5767 17.4312 17.5767 17.4312 17.5804 15.6272C17.5824 14.635 17.5773 13.4367 17.569 12.9644L17.554 12.1057L17.9597 12.0379C25.6484 10.7538 24.0239 -0.728117 16.2618 0.0365202ZM16.0728 1.52292C13.4351 1.9994 11.7015 4.43827 12.1747 6.82516C12.2088 6.99729 12.2544 7.16916 12.312 7.34001C13.6903 11.4304 20.2458 11.4304 21.624 7.34001C21.6823 7.1673 21.7283 6.99442 21.7627 6.82203C22.3667 3.79891 19.4086 0.920357 16.0728 1.52292ZM7.21601 9.0107C5.268 9.37088 4.11513 11.3474 4.59549 13.0233C4.68784 13.3455 4.84057 13.6566 5.05962 13.943C6.60936 15.969 9.3999 15.7646 10.5496 13.5409C10.6503 13.3463 10.7272 13.148 10.7821 12.9485C11.3631 10.8388 9.48618 8.59098 7.21601 9.0107ZM25.6728 9.0124C23.7296 9.35952 22.7225 11.2558 23.1564 12.9456C23.3014 13.5103 23.6074 14.052 24.0931 14.505C25.4904 15.8083 27.6431 15.5554 28.8764 13.943C29.0957 13.6563 29.2477 13.3496 29.3401 13.0344C29.9392 10.9905 28.0291 8.59146 25.6728 9.0124ZM16.6411 18.4456C15.6901 18.6133 15.383 19.4934 15.8889 20.6011C16.0396 20.9309 16.0396 20.9309 16.2708 20.9333C16.4784 20.9355 16.5257 20.9477 16.735 21.0534C16.968 21.1711 16.968 21.1711 17.2011 21.0534C17.4103 20.9477 17.4576 20.9355 17.6652 20.9333C17.8964 20.9309 17.8964 20.9309 18.047 20.6011C18.6676 19.2409 17.9933 18.2071 16.6411 18.4456ZM14.2017 19.3162C13.4226 19.524 13.1978 20.4693 13.692 21.4598C13.8966 21.8698 13.8561 21.8376 14.1038 21.7866C14.2642 21.7535 14.3528 21.75 14.4628 21.7724C14.824 21.8459 14.7797 21.8579 14.9328 21.6457C15.0089 21.5403 15.1354 21.4004 15.214 21.3349C15.3569 21.2156 15.3569 21.2156 15.2626 21.0702C15.0054 20.6738 14.8972 20.293 14.8728 19.6992C14.8545 19.2521 14.7232 19.1772 14.2017 19.3162ZM19.0633 19.6956C19.0388 20.2933 18.9312 20.6729 18.6734 21.0702C18.5791 21.2156 18.5791 21.2156 18.722 21.3349C18.8006 21.4004 18.9272 21.5403 19.0032 21.6457C19.1563 21.8579 19.1121 21.8459 19.4732 21.7724C19.5832 21.75 19.6718 21.7535 19.8323 21.7866C20.08 21.8376 20.0394 21.8698 20.244 21.4598C20.8216 20.3021 20.444 19.324 19.403 19.2817L19.0808 19.2685L19.0633 19.6956ZM12.0695 20.4813C10.905 20.7826 10.4912 22.1764 11.2782 23.146C11.4658 23.3772 11.4532 23.3732 11.6408 23.2611C11.9323 23.0869 12.2609 23.0309 12.6441 23.09C12.783 23.1114 12.783 23.1114 12.8182 22.9733C12.8773 22.7411 13.0512 22.4383 13.2399 22.2388C13.4193 22.0492 13.4193 22.0492 13.2971 21.8882C13.0303 21.5373 12.7931 20.8664 12.7909 20.4569C12.7907 20.4181 12.2419 20.4367 12.0695 20.4813ZM21.1452 20.4569C21.1429 20.8664 20.9058 21.5373 20.639 21.8882C20.5167 22.0492 20.5167 22.0492 20.6962 22.2388C20.8848 22.4383 21.0588 22.7411 21.1179 22.9733C21.1531 23.1114 21.1531 23.1114 21.2919 23.09C21.6751 23.0309 22.0037 23.0869 22.2953 23.2611C22.4829 23.3732 22.4703 23.3772 22.6578 23.146C23.3137 22.3379 23.1182 21.0501 22.2779 20.6435C21.9171 20.4688 21.1458 20.3418 21.1452 20.4569ZM15.8029 21.875C14.9849 22.2515 14.9106 23.1696 15.6133 24.219C15.8293 24.5417 15.8293 24.5417 15.9135 24.4104C16.3613 23.7124 17.5748 23.7124 18.0225 24.4104C18.1443 24.6002 18.6346 23.8765 18.7591 23.3229C18.9814 22.3348 18.0066 21.3299 17.4555 21.9791C17.3383 22.1172 17.1943 22.3708 17.1374 22.5392C17.0272 22.8656 16.9088 22.8656 16.7987 22.5392C16.7106 22.2783 16.5249 21.997 16.3554 21.8676C16.2349 21.7757 16.0122 21.7787 15.8029 21.875ZM9.99589 22.0755C8.50985 22.2686 8.23839 24.3805 9.58344 25.2837C9.86981 25.4759 10.6871 25.815 10.6871 25.7415C10.6871 25.737 10.6601 25.6287 10.627 25.5009C10.486 24.956 10.6332 24.2701 10.9833 23.8406C11.0772 23.7255 11.0772 23.7255 10.8415 23.4793C10.4922 23.1145 10.3032 22.7223 10.2511 22.2546C10.2265 22.0339 10.2404 22.0437 9.99589 22.0755ZM23.7137 22.0811C23.7079 22.0989 23.6887 22.2103 23.6711 22.3287C23.6015 22.7978 23.4339 23.129 23.0819 23.4932C22.8582 23.7247 22.8582 23.7247 22.9524 23.8402C23.3028 24.2701 23.4501 24.9558 23.3091 25.5009C23.276 25.6287 23.249 25.737 23.249 25.7415C23.249 25.815 24.0662 25.4759 24.3526 25.2837C25.5443 24.4835 25.5236 22.7416 24.3158 22.1848C24.1166 22.093 23.7314 22.0266 23.7137 22.0811ZM14.1011 22.4586C13.1558 22.5932 12.9631 24.1273 13.762 25.1579C13.8311 25.247 13.8968 25.3331 13.9079 25.3491C13.92 25.3664 13.9751 25.3464 14.0432 25.3C14.4282 25.0374 14.8941 24.9803 15.5978 25.1096C15.6211 25.1139 15.7486 24.8 15.7282 24.7883C14.963 24.3511 14.5263 23.575 14.5703 22.7304C14.5831 22.4856 14.5831 22.4856 14.4758 22.4678C14.4168 22.458 14.3482 22.4463 14.3234 22.4417C14.2986 22.4371 14.1986 22.4448 14.1011 22.4586ZM19.5976 22.4423C19.5811 22.4467 19.5193 22.4583 19.4603 22.468C19.353 22.4856 19.353 22.4856 19.3657 22.7304C19.4097 23.575 18.973 24.3511 18.2077 24.7883C18.1874 24.8 18.3149 25.1139 18.3383 25.1096C19.042 24.9803 19.5079 25.0374 19.8929 25.3C19.961 25.3464 20.0161 25.3664 20.0281 25.3491C20.0393 25.3331 20.1049 25.247 20.174 25.1579C20.7612 24.4004 20.8327 23.1166 20.3128 22.6642C20.152 22.5242 19.7533 22.4005 19.5976 22.4423ZM12.1838 23.6854C11.0253 23.9937 10.9442 25.5766 12.0349 26.5899C12.8231 27.3223 12.0533 27.1506 11.1946 26.4025C10.9619 26.1997 10.9619 26.1997 10.7844 26.218C10.0598 26.2929 8.94363 25.6593 8.34844 24.8354C8.21112 24.6452 8.21112 24.6452 8.12378 24.7462C6.88634 26.1765 6.18206 27.4572 5.38004 29.7351C5.18154 30.2991 5.17956 30.2551 5.40535 30.2976C9.25892 31.0208 11.8017 35.0804 11.8809 40.6361C11.8981 41.8493 11.8675 41.7765 12.2943 41.6187C12.555 41.5222 12.6078 41.4488 12.8207 40.888C13.7951 38.3213 14.6154 37.3036 15.9897 36.9562C16.2741 36.8843 16.2658 36.8897 16.2901 36.7616C16.345 36.4722 16.654 35.7145 16.7653 35.5962C17.0338 35.3113 17.4838 35.9067 17.646 36.7616C17.6703 36.8897 17.662 36.8843 17.9464 36.9562C19.3207 37.3036 20.1409 38.3213 21.1153 40.888C21.3283 41.4488 21.3811 41.5222 21.6417 41.6187C22.0685 41.7765 22.0379 41.8493 22.0552 40.6361C22.1344 35.0801 24.6769 31.0208 28.5306 30.2976C28.7565 30.2551 28.7545 30.2991 28.556 29.7351C27.754 27.4572 27.0497 26.1765 25.8123 24.7462C25.7249 24.6452 25.7249 24.6452 25.5876 24.8354C24.9924 25.6593 23.8762 26.2929 23.1516 26.218C22.9742 26.1997 22.9742 26.1997 22.7414 26.4025C21.8828 27.1506 21.1129 27.3223 21.9012 26.5899C22.6881 25.8587 22.8868 25.1038 22.4942 24.3361C22.1831 23.7278 21.2236 23.3632 21.1626 23.8302C21.0651 24.5772 20.7665 25.1518 20.3166 25.4579C20.1856 25.547 20.1856 25.547 20.2973 25.7468C20.5543 26.2065 20.4273 26.804 19.977 27.2541C19.5959 27.6349 19.2898 27.6599 19.6394 27.2816C20.0981 26.7854 20.0662 26.1806 19.5738 26.036C19.2792 25.9494 18.3504 25.9862 18.3504 26.0843C18.3504 26.3075 18.0519 26.9938 17.8747 27.1781C17.6549 27.4065 17.6088 27.3075 17.7602 26.9318C18.224 25.7809 17.8374 24.6838 16.968 24.6838C16.0986 24.6838 15.7121 25.7809 16.1758 26.9318C16.3273 27.3075 16.2812 27.4065 16.0614 27.1781C15.8841 26.9938 15.5856 26.3075 15.5856 26.0843C15.5856 25.9862 14.6569 25.9494 14.3623 26.036C13.8698 26.1806 13.8379 26.7854 14.2966 27.2816C14.6462 27.6599 14.3401 27.6349 13.9591 27.2541C13.5087 26.804 13.3818 26.2065 13.6388 25.7468C13.7504 25.547 13.7504 25.547 13.6194 25.4579C13.17 25.1522 12.8708 24.577 12.7736 23.832C12.7577 23.7096 12.7407 23.6752 12.6895 23.6616C12.5839 23.6336 12.3342 23.6453 12.1838 23.6854ZM3.89969 31.0413C2.12636 31.3198 2.39307 33.2512 4.42834 34.8694C5.0744 35.3832 5.08613 35.3903 6.11913 35.9166C9.92717 37.8566 10.9275 39.0487 10.9275 41.6479C10.9275 41.8264 11.0558 41.8811 11.2356 41.7789C11.2679 41.7605 11.2628 40.5172 11.2276 39.8528C11.0623 36.7328 9.79807 33.8163 7.98587 32.3746C6.78717 31.4208 5.06404 30.8586 3.89969 31.0413ZM29.1242 31.0315C25.8357 31.3777 23.3352 34.4891 22.7841 38.9204C22.6964 39.6258 22.6345 41.7411 22.7005 41.7789C22.8803 41.8811 23.0086 41.8264 23.0086 41.6479C23.0086 39.0484 24.0082 37.8569 27.8169 35.9166C28.8499 35.3903 28.8616 35.3832 29.5077 34.8694C31.9469 32.9303 31.7296 30.7573 29.1242 31.0315ZM2.61152 35.0019C1.22821 36.493 0.820555 39.5726 1.71572 41.7694C2.97218 44.8531 7.08325 47.72 10.7021 48.0364C12.342 48.1796 12.7143 48.1553 12.5575 47.9137C12.3002 47.5182 11.4185 45.9139 10.9033 44.9042C10.7699 44.6427 10.5628 44.2752 10.4432 44.0871C9.90574 43.2429 9.86631 42.6293 10.3187 42.1512C10.5866 41.868 10.4183 40.5288 10.0132 39.7188C9.81293 39.3183 9.82673 39.3224 9.63613 39.6077C7.44359 42.889 2.97038 40.3778 3.06104 35.9168C3.0749 35.2361 3.0749 35.2361 2.88512 35.0855C2.6636 34.9101 2.68954 34.9178 2.61152 35.0019ZM31.0444 35.0875C30.8611 35.2361 30.8611 35.2361 30.8749 35.9168C30.9657 40.3778 26.4924 42.8887 24.2999 39.6077C24.1093 39.3224 24.1231 39.3183 23.9228 39.7188C23.5177 40.5288 23.3495 41.868 23.6173 42.1512C24.0697 42.6293 24.0303 43.2429 23.4929 44.0871C23.3732 44.2752 23.1662 44.6427 23.0327 44.9042C22.5175 45.9139 21.6358 47.5182 21.3786 47.9137C21.2207 48.1568 21.1766 48.1452 22.1001 48.1024C24.0261 48.0135 24.8272 47.8376 26.3894 47.1607C32.0379 44.7141 34.3349 39.5161 31.5944 35.3823C31.2557 34.8712 31.289 34.8893 31.0444 35.0875ZM3.82176 35.8042C3.53049 36.7601 4.10708 38.5617 4.99996 39.4858C5.2772 39.7726 5.29384 39.7744 5.18307 39.5055C4.73791 38.4239 4.90112 37.0825 5.52978 36.6567C5.64603 36.578 5.43374 36.4457 4.6165 36.0886C4.42642 36.0054 4.17996 35.8925 4.06879 35.8375C3.82885 35.7186 3.84709 35.7213 3.82176 35.8042ZM29.9056 35.8179C29.8229 35.8604 29.566 35.9795 29.3346 36.0826C28.4416 36.4796 28.2864 36.5756 28.4058 36.6564C29.0349 37.0825 29.1983 38.4232 28.753 39.5055C28.6422 39.7744 28.6588 39.7726 28.9361 39.4858C29.829 38.5617 30.4055 36.7601 30.1143 35.8042C30.0893 35.7225 30.0905 35.7225 29.9056 35.8179ZM16.6123 37.6409C15.4624 37.8444 14.3861 39.0767 13.5514 41.1454C13.133 42.1827 12.9153 42.3328 11.5286 42.5414C10.616 42.6786 10.5558 42.8985 11.183 43.8033C11.6364 44.4576 12.1903 45.3615 12.7753 46.4015C13.8208 48.2608 14.2065 48.8773 14.7382 49.5397C16.5718 51.8244 18.139 51.4497 20.0832 48.2619C20.4661 47.6344 20.5139 47.5518 21.1608 46.4015C21.7458 45.3615 22.2996 44.4576 22.7531 43.8033C23.3803 42.8985 23.3201 42.6786 22.4075 42.5414C21.0207 42.3328 20.8031 42.1827 20.3846 41.1454C19.3784 38.6514 18.0219 37.3913 16.6123 37.6409ZM13.5571 42.5592C13.2763 42.7039 13.175 42.9817 13.3057 43.2488C13.4094 43.4604 13.6949 43.5659 13.8706 43.4575C13.919 43.4277 13.9555 43.4387 14.1031 43.5281C14.6311 43.8473 14.8324 43.7855 14.6682 43.3543C14.4178 42.6965 13.9459 42.3589 13.5571 42.5592ZM19.8623 42.5726C19.5401 42.7345 19.128 43.4265 19.2291 43.6363C19.3022 43.7879 19.4458 43.7623 19.8329 43.5281C19.9806 43.4387 20.0171 43.4277 20.0654 43.4575C20.2411 43.5659 20.5266 43.4604 20.6303 43.2488C20.8542 42.7915 20.3354 42.3345 19.8623 42.5726Z" fill="#22110C"/>
<path d="M19.5976 22.4423C19.581 22.4467 19.5192 22.4583 19.4602 22.468C19.3529 22.4856 19.3529 22.4856 19.3657 22.7304C19.4097 23.575 18.973 24.3511 18.2078 24.7883C18.1874 24.8 18.3149 25.1139 18.3382 25.1096C19.0419 24.9803 19.5078 25.0373 19.8928 25.2999C19.961 25.3464 20.016 25.3664 20.0281 25.3491C20.0392 25.3331 20.1049 25.247 20.174 25.1579C20.7612 24.4004 20.8326 23.1166 20.3128 22.6642C20.152 22.5242 19.7533 22.4005 19.5976 22.4423Z" fill="#2430F0"/>
<path d="M23.7138 22.0811C23.7079 22.0989 23.6888 22.2103 23.6712 22.3287C23.6015 22.7978 23.434 23.129 23.082 23.4932C22.8583 23.7247 22.8583 23.7247 22.9525 23.8403C23.3028 24.2702 23.4501 24.9558 23.3091 25.5009C23.2761 25.6287 23.249 25.737 23.249 25.7415C23.249 25.815 24.0662 25.4759 24.3526 25.2837C25.5443 24.4835 25.5236 22.7416 24.3159 22.1848C24.1167 22.093 23.7315 22.0266 23.7138 22.0811Z" fill="#2430F0"/>
<path d="M21.1451 20.4569C21.1429 20.8664 20.9057 21.5373 20.6389 21.8882C20.5167 22.0492 20.5167 22.0492 20.6961 22.2388C20.8848 22.4382 21.0587 22.7411 21.1178 22.9733C21.153 23.1114 21.153 23.1114 21.2919 23.09C21.6751 23.0309 22.0037 23.0869 22.2952 23.2611C22.4828 23.3732 22.4702 23.3772 22.6578 23.146C23.3137 22.3379 23.1181 21.0501 22.2779 20.6435C21.917 20.4688 21.1457 20.3418 21.1451 20.4569Z" fill="#2430F0"/>
<path d="M19.0633 19.6956C19.0388 20.2933 18.9311 20.6729 18.6734 21.0702C18.5791 21.2156 18.5791 21.2156 18.722 21.3349C18.8006 21.4004 18.9271 21.5403 19.0032 21.6457C19.1563 21.8579 19.112 21.846 19.4732 21.7724C19.5832 21.75 19.6718 21.7535 19.8322 21.7865C20.0799 21.8376 20.0394 21.8698 20.2439 21.4598C20.8216 20.3021 20.4439 19.3241 19.4029 19.2816L19.0808 19.2686L19.0633 19.6956Z" fill="#2430F0"/>
<path d="M16.6411 18.4456C15.6901 18.6134 15.383 19.4934 15.889 20.6011C16.0396 20.9309 16.0396 20.9309 16.2708 20.9333C16.4785 20.9354 16.5257 20.9477 16.735 21.0534C16.9681 21.1711 16.9681 21.1711 17.2011 21.0534C17.4104 20.9477 17.4577 20.9354 17.6653 20.9333C17.8965 20.9309 17.8965 20.9309 18.047 20.6011C18.6677 19.2409 17.9933 18.2071 16.6411 18.4456Z" fill="#2430F0"/>
<path d="M15.8029 21.875C14.9849 22.2515 14.9106 23.1696 15.6133 24.219C15.8293 24.5417 15.8293 24.5417 15.9135 24.4104C16.3613 23.7124 17.5748 23.7124 18.0225 24.4104C18.1443 24.6002 18.6346 23.8765 18.7591 23.3229C18.9814 22.3348 18.0066 21.3299 17.4555 21.9791C17.3383 22.1172 17.1943 22.3708 17.1374 22.5392C17.0273 22.8656 16.9088 22.8656 16.7987 22.5392C16.7106 22.2783 16.5249 21.997 16.3554 21.8676C16.2349 21.7757 16.0122 21.7787 15.8029 21.875Z" fill="#2430F0"/>
<path d="M14.1011 22.4586C13.1559 22.5932 12.9632 24.1273 13.7621 25.1579C13.8311 25.247 13.8968 25.3331 13.908 25.3492C13.92 25.3665 13.9751 25.3465 14.0432 25.3C14.4282 25.0374 14.8941 24.9803 15.5978 25.1096C15.6212 25.1139 15.7487 24.8 15.7283 24.7883C14.9631 24.3511 14.5264 23.575 14.5703 22.7304C14.5831 22.4856 14.5831 22.4856 14.4758 22.4678C14.4168 22.458 14.3482 22.4463 14.3235 22.4417C14.2987 22.4372 14.1986 22.4448 14.1011 22.4586Z" fill="#2430F0"/>
<path d="M12.0695 20.4813C10.9051 20.7826 10.4913 22.1764 11.2783 23.1461C11.4658 23.3772 11.4532 23.3732 11.6408 23.2611C11.9323 23.0869 12.261 23.0309 12.6442 23.09C12.783 23.1114 12.783 23.1114 12.8182 22.9733C12.8773 22.7411 13.0512 22.4383 13.2399 22.2388C13.4193 22.0492 13.4193 22.0492 13.2971 21.8882C13.0303 21.5373 12.7931 20.8664 12.7909 20.4569C12.7907 20.4181 12.2419 20.4367 12.0695 20.4813Z" fill="#2430F0"/>
<path d="M14.2018 19.3163C13.4226 19.524 13.1979 20.4693 13.6921 21.4598C13.8967 21.8698 13.8561 21.8376 14.1038 21.7866C14.2643 21.7535 14.3529 21.75 14.4629 21.7724C14.824 21.846 14.7798 21.8579 14.9329 21.6458C15.0089 21.5403 15.1355 21.4005 15.2141 21.3349C15.357 21.2156 15.357 21.2156 15.2627 21.0703C15.0055 20.6738 14.8973 20.293 14.8729 19.6992C14.8546 19.2521 14.7233 19.1772 14.2018 19.3163Z" fill="#2430F0"/>
<path d="M9.99593 22.0755C8.50989 22.2686 8.23843 24.3805 9.58348 25.2837C9.86985 25.4759 10.6871 25.815 10.6871 25.7415C10.6871 25.737 10.6601 25.6287 10.627 25.5009C10.4861 24.956 10.6332 24.2701 10.9833 23.8406C11.0772 23.7255 11.0772 23.7255 10.8415 23.4793C10.4923 23.1145 10.3032 22.7223 10.2511 22.2546C10.2265 22.0339 10.2405 22.0437 9.99593 22.0755Z" fill="#2430F0"/>
<path d="M29.1242 31.0315C25.8357 31.3777 23.3352 34.4891 22.7841 38.9204C22.6964 39.6258 22.6345 41.7412 22.7005 41.7789C22.8802 41.8811 23.0085 41.8264 23.0085 41.6479C23.0085 39.0485 24.0082 37.8569 27.8169 35.9166C28.8499 35.3903 28.8616 35.3832 29.5077 34.8694C31.9469 32.9303 31.7296 30.7573 29.1242 31.0315Z" fill="#2BE1B7"/>
<path d="M31.0444 35.0875C30.8611 35.2361 30.8611 35.2361 30.8749 35.9168C30.9657 40.3778 26.4924 42.8887 24.2999 39.6077C24.1093 39.3224 24.1231 39.3182 23.9228 39.7188C23.5177 40.5288 23.3495 41.868 23.6173 42.1512C24.0697 42.6293 24.0303 43.2429 23.4928 44.0871C23.3732 44.2752 23.1661 44.6427 23.0327 44.9042C22.5175 45.9139 21.6358 47.5182 21.3786 47.9137C21.2207 48.1567 21.1766 48.1452 22.1001 48.1024C24.026 48.0135 24.8272 47.8376 26.3894 47.1607C32.0379 44.7141 34.3348 39.5161 31.5943 35.3823C31.2556 34.8712 31.289 34.8893 31.0444 35.0875Z" fill="#2BE1B7"/>
<path d="M2.61154 35.0019C1.22823 36.493 0.820574 39.5726 1.71574 41.7694C2.97221 44.8531 7.08326 47.72 10.7021 48.0364C12.3421 48.1796 12.7143 48.1553 12.5575 47.9137C12.3002 47.5182 11.4185 45.9139 10.9034 44.9042C10.7699 44.6427 10.5629 44.2752 10.4432 44.0871C9.90575 43.2429 9.86632 42.6293 10.3187 42.1512C10.5866 41.868 10.4183 40.5288 10.0132 39.7188C9.81294 39.3183 9.82674 39.3224 9.63614 39.6077C7.44365 42.889 2.9704 40.3778 3.06107 35.9168C3.07492 35.2361 3.07492 35.2361 2.88514 35.0855C2.66363 34.9102 2.68956 34.9178 2.61154 35.0019Z" fill="#2BE1B7"/>
<path d="M3.89965 31.0414C2.12632 31.3198 2.39303 33.2512 4.42829 34.8694C5.07436 35.3832 5.08608 35.3903 6.11908 35.9166C9.92712 37.8566 10.9274 39.0487 10.9274 41.6479C10.9274 41.8264 11.0557 41.8811 11.2355 41.7789C11.2679 41.7605 11.2627 40.5172 11.2275 39.8528C11.0623 36.7328 9.79808 33.8163 7.98583 32.3746C6.78712 31.4208 5.06399 30.8586 3.89965 31.0414Z" fill="#2BE1B7"/>
<path d="M12.1838 23.6854C11.0254 23.9937 10.9443 25.5766 12.0349 26.5899C12.8232 27.3223 12.0533 27.1506 11.1947 26.4025C10.9619 26.1997 10.9619 26.1997 10.7845 26.218C10.0599 26.2929 8.94369 25.6594 8.3485 24.8354C8.21117 24.6452 8.21117 24.6452 8.12384 24.7462C6.8864 26.1765 6.18211 27.4572 5.38009 29.7351C5.1816 30.2991 5.17961 30.2551 5.4054 30.2976C9.25898 31.0208 11.8017 35.0804 11.8809 40.6361C11.8982 41.8493 11.8676 41.7765 12.2944 41.6187C12.555 41.5222 12.6078 41.4488 12.8208 40.888C13.7951 38.3214 14.6154 37.3036 15.9897 36.9563C16.2741 36.8844 16.2658 36.8897 16.2901 36.7616C16.345 36.4722 16.654 35.7145 16.7653 35.5962C17.0338 35.3113 17.4838 35.9068 17.646 36.7616C17.6703 36.8897 17.662 36.8844 17.9464 36.9563C19.3207 37.3036 20.141 38.3214 21.1154 40.888C21.3283 41.4488 21.3811 41.5222 21.6418 41.6187C22.0686 41.7765 22.0379 41.8493 22.0552 40.6361C22.1344 35.0801 24.6769 31.0208 28.5307 30.2976C28.7565 30.2551 28.7546 30.2991 28.5561 29.7351C27.754 27.4572 27.0498 26.1765 25.8123 24.7462C25.725 24.6452 25.725 24.6452 25.5876 24.8354C24.9925 25.6594 23.8763 26.2929 23.1517 26.218C22.9742 26.1997 22.9742 26.1997 22.7415 26.4025C21.8828 27.1506 21.1129 27.3223 21.9012 26.5899C22.6882 25.8588 22.8868 25.1038 22.4942 24.3361C22.1832 23.7278 21.2236 23.3632 21.1627 23.8302C21.0652 24.5772 20.7665 25.1518 20.3167 25.4579C20.1857 25.547 20.1857 25.547 20.2974 25.7468C20.5543 26.2065 20.4274 26.8041 19.977 27.2541C19.596 27.6349 19.2899 27.6599 19.6395 27.2816C20.0982 26.7854 20.0663 26.1806 19.5738 26.036C19.2792 25.9495 18.3505 25.9862 18.3505 26.0843C18.3505 26.3076 18.052 26.9939 17.8747 27.1781C17.6549 27.4066 17.6088 27.3075 17.7602 26.9318C18.224 25.7809 17.8374 24.6838 16.9681 24.6838C16.0987 24.6838 15.7121 25.7809 16.1759 26.9318C16.3273 27.3075 16.2812 27.4066 16.0614 27.1781C15.8842 26.9939 15.5857 26.3076 15.5857 26.0843C15.5857 25.9862 14.6569 25.9495 14.3624 26.036C13.8698 26.1806 13.8379 26.7854 14.2966 27.2816C14.6463 27.6599 14.3402 27.6349 13.9591 27.2541C13.5088 26.8041 13.3818 26.2065 13.6388 25.7468C13.7505 25.547 13.7505 25.547 13.6194 25.4579C13.1701 25.1522 12.8709 24.577 12.7737 23.832C12.7577 23.7096 12.7407 23.6752 12.6896 23.6616C12.584 23.6336 12.3343 23.6453 12.1838 23.6854Z" fill="#2430F0"/>
<path fill-rule="evenodd" clip-rule="evenodd" d="M16.6123 37.6409C15.4624 37.8444 14.3861 39.0767 13.5514 41.1454C13.133 42.1827 12.9154 42.3328 11.5286 42.5413C10.616 42.6786 10.5558 42.8985 11.183 43.8033C11.6365 44.4576 12.1903 45.3615 12.7753 46.4015C13.8207 48.2608 14.2065 48.8773 14.7382 49.5396C16.5719 51.8244 18.1391 51.4497 20.0833 48.2619C20.4661 47.6344 20.5139 47.5518 21.1608 46.4015C21.7458 45.3615 22.2997 44.4576 22.7531 43.8033C23.3802 42.8985 23.3201 42.6786 22.4075 42.5413C21.0207 42.3328 20.8031 42.1827 20.3847 41.1454C19.3784 38.6514 18.022 37.3913 16.6123 37.6409ZM13.3058 43.2488C13.175 42.9817 13.2763 42.7039 13.5572 42.5592C13.9459 42.3589 14.4178 42.6964 14.6683 43.3543C14.8324 43.7855 14.6311 43.8473 14.1032 43.5281C13.9555 43.4387 13.919 43.4277 13.8707 43.4574C13.695 43.5659 13.4095 43.4604 13.3058 43.2488ZM19.2292 43.6363C19.128 43.4265 19.5401 42.7345 19.8623 42.5725C20.3355 42.3345 20.8543 42.7915 20.6303 43.2488C20.5267 43.4604 20.2411 43.5659 20.0655 43.4574C20.0171 43.4277 19.9806 43.4387 19.8329 43.5281C19.4458 43.7623 19.3023 43.7879 19.2292 43.6363Z" fill="#F2C79C"/>
<path fill-rule="evenodd" clip-rule="evenodd" d="M10.7821 12.9485C10.3822 11.4588 9.13663 10.2853 7.44419 10.5982C6.10132 10.8466 4.90803 11.8668 4.59546 13.0233C4.68781 13.3455 4.84053 13.6566 5.05959 13.943C6.60932 15.969 9.39987 15.7646 10.5496 13.5409C10.6503 13.3463 10.7271 13.148 10.7821 12.9485Z" fill="#2430F0"/>
<path fill-rule="evenodd" clip-rule="evenodd" d="M12.312 7.34001C12.2544 7.16916 12.2088 6.99729 12.1747 6.82516C12.5247 5.03419 14.2549 3.48008 16.301 3.11046C19.0394 2.61584 21.295 4.47075 21.7627 6.82203C21.7283 6.99442 21.6823 7.1673 21.624 7.34001C20.2458 11.4304 13.6903 11.4304 12.312 7.34001Z" fill="#2430F0"/>
<path d="M25.6729 9.0124C23.7296 9.35953 22.7225 11.2558 23.1564 12.9456C23.4435 11.8131 24.5652 10.8386 25.9011 10.5999C27.6522 10.2871 28.9287 11.5355 29.3401 13.0344C29.9392 10.9905 28.0292 8.59147 25.6729 9.0124Z" fill="#2430F0"/>
<path d="M12.1747 6.82515C12.5247 5.03419 14.255 3.48008 16.301 3.11046C19.0394 2.61584 21.295 4.47075 21.7628 6.82202C22.3667 3.79891 19.4086 0.920354 16.0728 1.52292C13.4351 1.9994 11.7016 4.43827 12.1747 6.82515Z" fill="#2430F0"/>
<path d="M7.44423 10.5982C9.13661 10.2853 10.3823 11.4588 10.7821 12.9485C11.3631 10.8388 9.48618 8.59099 7.21601 9.0107C5.268 9.37088 4.11513 11.3474 4.59548 13.0234C4.90806 11.8668 6.1013 10.8466 7.44423 10.5982Z" fill="#2430F0"/>
<path d="M24.0931 14.505C25.4904 15.8083 27.6431 15.5554 28.8764 13.943C29.0957 13.6563 29.2477 13.3496 29.3401 13.0344C28.9286 11.5355 27.6521 10.2871 25.901 10.5999C24.5651 10.8386 23.4434 11.8131 23.1564 12.9456C23.3014 13.5103 23.6074 14.052 24.0931 14.505Z" fill="#2430F0"/>
<path fill-rule="evenodd" clip-rule="evenodd" d="M12.9011 5.21153C13.6655 4.16181 14.9115 3.36196 16.3037 3.11046C18.387 2.73415 20.1909 3.71779 21.1407 5.24531C21.3217 5.06516 21.4873 4.88205 21.6241 4.7027C20.9176 2.61094 18.6051 1.06597 16.0755 1.52292C14.3277 1.83862 12.977 3.01579 12.4021 4.46852C12.5265 4.70558 12.7021 4.95994 12.9011 5.21153Z" fill="#F2C79C"/>
<path d="M12.901 5.21153C13.5797 6.06968 14.5299 6.896 14.6444 6.896C14.731 6.896 15.2101 6.4359 15.7077 5.95809C16.2451 5.44196 16.8041 4.90515 16.9133 4.90515C17.0185 4.90515 17.4693 5.40286 17.9201 5.90057C18.3709 6.39828 18.8216 6.896 18.9268 6.896C19.061 6.896 20.2773 6.10417 21.1406 5.24532C20.1908 3.7178 18.3869 2.73416 16.3036 3.11046C14.9114 3.36197 13.6655 4.16182 12.901 5.21153Z" fill="#2BE1B7"/>
<path d="M4.61144 12.9395C4.95765 11.8178 6.12554 10.8405 7.43594 10.5982C8.43795 10.413 9.28332 10.7487 9.88928 11.3626C10.0019 10.9511 10.0834 10.4596 10.0738 10.047C9.39369 9.26413 8.35056 8.79942 7.20772 9.01071C5.30569 9.36234 4.16171 11.2549 4.55588 12.9041C4.57415 12.9161 4.59269 12.9278 4.61144 12.9395Z" fill="#2BE1B7"/>
<path d="M4.61145 12.9395C5.34842 13.3997 6.35308 13.6007 6.6178 13.448C6.82272 13.3298 6.9176 12.7338 6.93988 12.1198C6.95686 11.6533 6.97204 11.2356 7.06288 11.1586C7.16327 11.0735 7.65021 11.3503 8.16623 11.6438C8.73176 11.9653 9.37056 12.2457 9.53559 12.1525C9.65354 12.0858 9.76974 11.7998 9.88929 11.3626C9.28333 10.7487 8.43791 10.413 7.4359 10.5982C6.12555 10.8405 4.95765 11.8178 4.61145 12.9395Z" fill="#2BE1B7"/>
<path fill-rule="evenodd" clip-rule="evenodd" d="M23.38 10.8183C23.4251 11.1451 24.3717 12.8983 24.6272 12.9577C24.7655 12.9899 25.2387 12.6561 25.6722 12.3504C26.0392 12.0915 26.3777 11.8527 26.4604 11.8731C26.5358 11.8917 26.6795 12.1156 26.8475 12.3773C27.0814 12.7416 27.3625 13.1794 27.5723 13.24C27.8441 13.3184 28.9267 12.7554 29.4564 12.3779C29.5382 10.5147 27.788 8.63591 25.6809 9.01238C24.5805 9.20892 23.7804 9.90217 23.3719 10.7733C23.3751 10.7871 23.3777 10.802 23.38 10.8183Z" fill="#2BE1B7"/>
<path d="M29.9055 35.8179C29.8229 35.8604 29.566 35.9796 29.3346 36.0827C28.4415 36.4797 28.2863 36.5756 28.4058 36.6565C29.0349 37.0825 29.1983 38.4232 28.753 39.5055C28.6422 39.7744 28.6588 39.7726 28.9361 39.4858C29.8289 38.5617 30.4055 36.7601 30.1142 35.8042C30.0893 35.7225 30.0905 35.7225 29.9055 35.8179Z" fill="#F1F1F1"/>
<path d="M3.82176 35.8042C3.53049 36.7601 4.10708 38.5617 4.99997 39.4858C5.27719 39.7726 5.29385 39.7744 5.18307 39.5055C4.73791 38.4239 4.90112 37.0825 5.52978 36.6567C5.64603 36.578 5.43374 36.4457 4.6165 36.0886C4.42642 36.0054 4.17996 35.8925 4.06879 35.8375C3.82885 35.7186 3.84709 35.7214 3.82176 35.8042Z" fill="#F1F1F1"/>
<path d="M27.9487 38.5269C27.9487 38.4283 27.8612 38.3487 27.7533 38.3487C27.6454 38.3487 27.558 38.4283 27.558 38.5269C27.558 38.6253 27.6454 38.7052 27.7533 38.7052C27.8612 38.7052 27.9487 38.6253 27.9487 38.5269Z" fill="#F1F1F1"/>
<path opacity="0.2" fill-rule="evenodd" clip-rule="evenodd" d="M21.495 7.67728C19.823 9.51855 16.4997 10.5318 12.7025 8.18698C14.5801 11.3092 20.0032 11.1393 21.495 7.67728ZM10.0704 14.2533C8.31048 14.9812 5.92098 14.236 4.75366 13.4424C4.83565 13.6154 4.93731 13.783 5.05966 13.943C6.42363 15.7261 8.74872 15.7816 10.0704 14.2533ZM29.1485 13.5139C28.1366 14.4547 26.0878 15.1235 23.6947 14.0628C23.8108 14.2173 23.9434 14.3654 24.0932 14.505C25.4905 15.8083 27.6431 15.5554 28.8765 13.943C28.9826 13.8042 29.073 13.6607 29.1485 13.5139Z" fill="#22110C"/>
<path d="M12.1747 6.82515C12.5247 5.03419 14.255 3.48007 16.301 3.11048C19.0394 2.61584 21.295 4.47074 21.7628 6.82202C22.3667 3.79894 19.4086 0.920352 16.0728 1.52292C13.4351 1.9994 11.7016 4.4383 12.1747 6.82515Z" fill="#2430F0"/>
<path fill-rule="evenodd" clip-rule="evenodd" d="M12.9011 5.21152C13.6655 4.16181 14.9115 3.36196 16.3037 3.11048C18.387 2.73416 20.1909 3.71778 21.1407 5.24531C21.3217 5.06515 21.4873 4.88208 21.6241 4.70272C20.9176 2.61094 18.6051 1.06597 16.0755 1.52292C14.3277 1.83862 12.977 3.01578 12.4021 4.46852C12.5265 4.70558 12.7021 4.95993 12.9011 5.21152Z" fill="#2BE1B7"/>
<g opacity="0.2">
<g style="mix-blend-mode:hard-light">
<path fill-rule="evenodd" clip-rule="evenodd" d="M18.173 19.09C17.9533 18.5825 17.4055 18.3107 16.6411 18.4456C16.1896 18.5253 15.8833 18.7654 15.7402 19.1143C16.0414 18.8683 16.5744 18.7879 16.9721 18.7796C17.3565 18.7877 17.8672 18.863 18.173 19.09ZM14.8262 19.4112C14.4539 19.4677 13.7739 19.6468 13.4784 20.0589C13.5769 19.6907 13.8243 19.4169 14.2018 19.3163C14.5796 19.2155 14.7526 19.2271 14.8262 19.4112ZM12.7954 20.5547C12.7926 20.5207 12.7911 20.4881 12.7909 20.4569C12.7907 20.4181 12.2419 20.4368 12.0695 20.4813C11.4794 20.634 11.082 21.0673 10.9361 21.5838C11.3308 21.032 12.0656 20.572 12.7954 20.5547ZM8.71497 23.5608C8.88938 22.9742 9.53927 22.3623 10.0676 22.3623C10.1423 22.3623 10.2074 22.3582 10.264 22.3509C10.259 22.3192 10.2547 22.2871 10.2511 22.2546C10.2499 22.2437 10.2488 22.2334 10.2477 22.2236C10.2384 22.1369 10.2335 22.0923 10.2085 22.0723C10.1818 22.0509 10.1324 22.0575 10.0303 22.071C10.0194 22.0725 10.008 22.074 9.99592 22.0756C9.19851 22.1791 8.75078 22.8353 8.71497 23.5608ZM16.6384 22.2025C16.3319 21.9671 15.8784 21.8741 15.2416 22.4009C15.3491 22.1776 15.5366 21.9976 15.8028 21.875C16.0122 21.7787 16.2349 21.7757 16.3554 21.8677C16.4515 21.9409 16.5527 22.063 16.6384 22.2025ZM18.6093 22.327C18.3343 21.8256 17.8082 21.5637 17.4555 21.9791C17.4041 22.0397 17.3475 22.1226 17.2954 22.2106C17.587 21.9812 18.0142 21.8783 18.6093 22.327ZM14.5753 22.6244C14.5799 22.4851 14.5646 22.4826 14.4758 22.4678C14.4168 22.4581 14.3482 22.4463 14.3234 22.4417C14.2987 22.4372 14.1986 22.4448 14.1011 22.4587C13.6368 22.5248 13.3541 22.9285 13.2813 23.4444C13.4651 22.8541 14.1579 22.5785 14.5753 22.6244ZM21.1799 23.7624C21.3243 23.4028 22.1998 23.7603 22.4942 24.3361C22.5761 24.4962 22.6322 24.6557 22.6627 24.8145C22.4371 24.1874 21.7266 23.9001 21.1799 23.7624ZM18.3497 26.105C18.3502 26.0977 18.3505 26.0908 18.3505 26.0843C18.3505 25.9862 19.2792 25.9495 19.5738 26.036C19.7134 26.0769 19.816 26.1549 19.8809 26.2569C19.599 26.0109 18.9858 26.0566 18.3497 26.105ZM16.2152 25.0886C16.386 24.8369 16.6434 24.6838 16.9681 24.6838C17.2866 24.6838 17.5403 24.8311 17.7112 25.0744C17.4984 24.9102 17.2069 24.8259 16.9721 24.8041C16.7307 24.8265 16.4293 24.915 16.2152 25.0886ZM14.0449 26.274C14.109 26.1636 14.215 26.0792 14.3623 26.036C14.6569 25.9495 15.5857 25.9862 15.5857 26.0843C15.5857 26.0906 15.5859 26.0973 15.5863 26.1043C14.9389 26.0551 14.3165 26.0099 14.0449 26.274ZM12.7625 23.7628C12.2035 23.9039 11.4743 24.2014 11.2668 24.8582C11.3003 24.3039 11.6098 23.8382 12.1838 23.6854C12.3343 23.6453 12.584 23.6336 12.6896 23.6616C12.7294 23.6722 12.7485 23.6953 12.7625 23.7628ZM20.4656 20.0586C20.3386 19.6042 19.9688 19.3047 19.4029 19.2817L19.0808 19.2686L19.0752 19.405C19.4358 19.4538 20.1584 19.6304 20.4656 20.0586ZM22.9908 21.5599C22.886 21.1626 22.6427 20.82 22.2779 20.6435C21.9171 20.4689 21.1458 20.3418 21.1452 20.4569C21.145 20.4881 21.1435 20.5206 21.1407 20.5545C21.8626 20.5683 22.5907 21.0168 22.9908 21.5599ZM25.2317 23.5687C25.0608 22.9798 24.4074 22.3623 23.8767 22.3623C23.7965 22.3623 23.7274 22.3576 23.668 22.3493C23.6691 22.3425 23.6702 22.3356 23.6712 22.3287C23.6887 22.2103 23.7079 22.0989 23.7137 22.0811C23.7315 22.0266 24.1167 22.093 24.3159 22.1848C24.895 22.4518 25.2011 22.9913 25.2317 23.5687ZM20.6455 23.3932C20.6059 23.0865 20.4961 22.8237 20.3129 22.6642C20.152 22.5242 19.7533 22.4006 19.5976 22.4423C19.5811 22.4467 19.5193 22.4583 19.4603 22.468C19.3713 22.4826 19.3561 22.4851 19.3608 22.6253C19.7651 22.5764 20.4374 22.8345 20.6455 23.3932Z" fill="white"/>
</g>
</g>
<g style="mix-blend-mode:hard-light">
<path fill-rule="evenodd" clip-rule="evenodd" d="M30.7153 31.2971C29.5311 31.2092 28.1501 31.5973 27.1523 32.2127C25.7548 33.0744 23.6061 35.3624 23.1553 37.5761C23.0306 38.1882 22.937 38.3885 22.8678 38.3445C23.5563 34.221 25.9801 31.3625 29.1241 31.0315C29.8332 30.9569 30.3655 31.0636 30.7153 31.2971Z" fill="white" fill-opacity="0.4"/>
</g>
<g style="mix-blend-mode:hard-light">
<path fill-rule="evenodd" clip-rule="evenodd" d="M3.15942 31.3254C4.37426 31.1926 5.82818 31.5869 6.86701 32.2275C8.26443 33.0893 10.4131 35.3773 10.864 37.591C10.9347 37.938 10.9953 38.1526 11.0472 38.2655C10.6106 35.7721 9.48601 33.5682 7.98592 32.3746C6.78721 31.4208 5.06408 30.8586 3.89973 31.0414C3.592 31.0897 3.34572 31.1878 3.15942 31.3254Z" fill="white" fill-opacity="0.4"/>
</g>
<g style="mix-blend-mode:hard-light">
<path fill-rule="evenodd" clip-rule="evenodd" d="M14.0049 40.149C14.9876 39.0805 16.2466 38.8984 16.9196 38.8984C17.6187 38.8984 19.0045 39.1215 20.005 40.2955C19.0498 38.3689 17.8516 37.4213 16.6124 37.6409C15.6611 37.8094 14.7602 38.6815 14.0049 40.149Z" fill="white" fill-opacity="0.4"/>
</g>
<path opacity="0.2" fill-rule="evenodd" clip-rule="evenodd" d="M30.1906 36.3798C29.7413 36.5715 29.2381 36.7661 28.6947 36.961C28.6134 36.8353 28.5169 36.7316 28.4059 36.6565C28.2864 36.5756 28.4417 36.4797 29.3347 36.0827C29.5661 35.9796 29.823 35.8604 29.9057 35.8179L29.9088 35.8161C30.0235 35.757 30.0653 35.7353 30.0869 35.7481C30.0993 35.7552 30.105 35.7736 30.114 35.8031L30.1143 35.8042C30.1657 35.973 30.19 36.1679 30.1906 36.3798ZM3.74622 36.3311C4.20031 36.5343 4.70678 36.7402 5.25145 36.9459C5.33049 36.827 5.42351 36.7287 5.52984 36.6568C5.64615 36.578 5.4338 36.4458 4.6166 36.0886C4.42651 36.0054 4.18005 35.8925 4.06889 35.8375C4.05341 35.8298 4.03904 35.8227 4.02564 35.8161C3.90468 35.7561 3.8645 35.7359 3.84575 35.7484C3.8364 35.7543 3.83238 35.7683 3.82631 35.7894C3.82495 35.7938 3.82351 35.7989 3.82186 35.8042C3.77443 35.9599 3.75 36.1383 3.74622 36.3311Z" fill="#22110C"/>
<path opacity="0.2" fill-rule="evenodd" clip-rule="evenodd" d="M10.2443 43.7412C10.1484 44.7607 10.5019 45.9008 10.6651 46.4271C10.6928 46.5166 10.7151 46.5885 10.7287 46.639C10.8451 47.0707 9.57966 47.7535 4.93787 45.6616C6.65174 46.9516 8.74862 47.8656 10.7021 48.0364C12.342 48.1797 12.7143 48.1553 12.5574 47.9137C12.3002 47.5182 11.4184 45.9139 10.9033 44.9042C10.7699 44.6427 10.5628 44.2752 10.4432 44.0871C10.3668 43.9673 10.3006 43.852 10.2443 43.7412Z" fill="#22110C"/>
<path opacity="0.2" fill-rule="evenodd" clip-rule="evenodd" d="M29.0267 45.6524C24.3683 47.7553 23.0989 47.0713 23.2156 46.639C23.2291 46.5884 23.2514 46.5168 23.2792 46.4271C23.4431 45.8985 23.799 44.7503 23.6987 43.7275C23.6409 43.8425 23.5724 43.9623 23.493 44.0871C23.3733 44.2752 23.1663 44.6427 23.0328 44.9042C22.5176 45.9139 21.6359 47.5182 21.3787 47.9137C21.3214 48.0019 21.2792 48.0563 21.2925 48.0881C21.316 48.1443 21.5114 48.1297 22.1002 48.1024C24.0262 48.0135 24.8273 47.8376 26.3896 47.1607C27.3732 46.7346 28.2551 46.2253 29.0267 45.6524Z" fill="#22110C"/>
<path opacity="0.2" fill-rule="evenodd" clip-rule="evenodd" d="M12.5125 45.9398C13.528 47.5636 13.9395 48.1481 14.4947 48.773C16.5257 51.0595 18.2616 50.6846 20.415 47.4941C20.8184 46.8969 20.8859 46.7929 21.5082 45.7936C21.3939 45.99 21.278 46.1932 21.1607 46.4015C20.5138 47.5518 20.4661 47.6344 20.0832 48.2619C18.139 51.4497 16.5717 51.8244 14.7381 49.5396C14.2065 48.8773 13.8207 48.2608 12.7752 46.4015C12.6868 46.2443 12.5992 46.0904 12.5125 45.9398Z" fill="#22110C"/>
<path d="M16.9495 34.783C16.5739 34.783 16.093 37.4275 15.8827 37.4275L15.4469 37.8287L16.9495 37.4275L18.6775 37.9327C18.4922 37.7642 18.0945 37.4275 17.9864 37.4275C17.8511 37.4275 17.3252 34.783 16.9495 34.783Z" fill="black" fill-opacity="0.2"/>
<path d="M14.4552 27.6811C14.2448 27.6811 13.5386 27.1908 13.5386 26.4628C13.6388 26.2796 13.8391 25.9934 13.8391 26.3143C13.8391 26.7154 14.2899 27.2354 14.4101 27.3543C14.5303 27.4731 14.6655 27.6811 14.4552 27.6811Z" fill="black" fill-opacity="0.2"/>
<path d="M10.4281 26.4628C9.57161 26.4628 8.45972 25.3486 7.88867 24.5908L8.23431 24.2937L9.01564 25.408L10.7887 25.928L11.1344 25.3634C11.2195 25.4922 11.4198 25.8032 11.5401 26.0171C11.6903 26.2846 12.081 26.4926 12.3965 26.9383C12.7121 27.384 11.51 26.8343 11.3597 26.76C11.2395 26.7006 10.9791 26.5173 10.8639 26.4331C10.8639 26.4431 10.7767 26.4628 10.4281 26.4628Z" fill="black" fill-opacity="0.2"/>
<path d="M13.1179 25.1108C12.7723 24.68 12.8925 24.1748 12.8324 23.744L13.8091 25.4971L13.734 25.6308L13.7319 25.6298C13.6354 25.5796 13.3925 25.4532 13.1179 25.1108Z" fill="black" fill-opacity="0.2"/>
<path d="M16.1982 27.4137C15.8826 27.3394 15.5972 26.6114 15.5972 26.0617L15.8977 25.928L16.093 26.7006C16.1531 26.9383 16.5137 27.488 16.1982 27.4137Z" fill="black" fill-opacity="0.2"/>
<path d="M19.4589 27.6811C19.6692 27.6811 20.3755 27.1908 20.3755 26.4628C20.2753 26.2796 20.0749 25.9934 20.0749 26.3143C20.0749 26.7154 19.6242 27.2354 19.504 27.3543C19.3838 27.4731 19.2485 27.6811 19.4589 27.6811Z" fill="black" fill-opacity="0.2"/>
<path d="M23.4859 26.4628C24.3425 26.4628 25.4544 25.3486 26.0254 24.5908L25.6798 24.2937L24.8984 25.408L23.1253 25.928L22.7797 25.3634C22.6946 25.4922 22.4942 25.8032 22.374 26.0171C22.2238 26.2846 21.8331 26.4926 21.5175 26.9383C21.202 27.384 22.4041 26.8343 22.5543 26.76C22.6745 26.7006 22.935 26.5173 23.0502 26.4331C23.0502 26.4431 23.1374 26.4628 23.4859 26.4628Z" fill="black" fill-opacity="0.2"/>
<path d="M20.7963 25.1108C21.1419 24.68 21.0217 24.1748 21.0818 23.744L20.1051 25.4971L20.1802 25.6308L20.1822 25.6298C20.2787 25.5796 20.5217 25.4532 20.7963 25.1108Z" fill="black" fill-opacity="0.2"/>
<path d="M17.7009 27.4286C18.0164 27.3543 18.317 26.6114 18.317 26.0617L18.0164 25.928L17.821 26.7006C17.761 26.9383 17.3853 27.5029 17.7009 27.4286Z" fill="black" fill-opacity="0.2"/>
<path opacity="0.2" d="M13.3942 43.3407C13.2891 43.3407 13.6196 43.1772 13.5144 42.8949C13.7649 42.7909 14.1576 42.8979 14.4461 43.1475C14.8067 43.4595 14.8067 44.2321 14.7917 44.5589C14.7766 44.8858 13.4994 43.3407 13.3942 43.3407Z" fill="#22110C"/>
<path opacity="0.2" d="M20.5212 43.3505C20.6264 43.3505 20.2959 43.1871 20.4011 42.9048C20.1506 42.8008 19.7579 42.9077 19.4694 43.1573C19.1088 43.4693 19.1088 44.2419 19.1238 44.5688C19.1388 44.8956 20.4161 43.3505 20.5212 43.3505Z" fill="#22110C"/>
<path opacity="0.2" fill-rule="evenodd" clip-rule="evenodd" d="M6.88118 35.8009C8.7102 36.8829 10.4883 37.9347 10.4883 39.2401C10.4883 39.282 10.4876 39.3236 10.4862 39.3643C9.89161 38.1332 8.60212 37.1848 6.1128 35.9166C5.07984 35.3903 5.06812 35.3832 4.42206 34.8694C2.83741 33.6095 2.32488 32.1598 3.01263 31.4481C2.54992 33.239 4.75011 34.5405 6.88118 35.8009Z" fill="#22110C"/>
<path opacity="0.2" fill-rule="evenodd" clip-rule="evenodd" d="M3.04137 31.3967L3.02719 31.4517C2.79784 32.3392 3.22749 33.1073 3.98454 33.8128C4.7417 34.5182 5.82294 35.1576 6.88889 35.7882C7.80281 36.3287 8.70624 36.8632 9.38027 37.4255C10.0542 37.9873 10.5033 38.5804 10.5033 39.2401C10.5033 39.2823 10.5026 39.3239 10.5012 39.3646L10.4726 39.3705C9.88043 38.1445 8.59534 37.1978 6.10597 35.9296C5.58974 35.6666 5.32783 35.5329 5.11439 35.4007C4.90068 35.2685 4.73554 35.1377 4.41266 34.881C3.61892 34.2499 3.09267 33.5706 2.8512 32.9585C2.60979 32.3467 2.6523 31.7993 3.00175 31.4377L3.04137 31.3967ZM2.87919 32.9478C3.11822 33.5537 3.64056 34.2291 4.43148 34.8578C4.75466 35.1149 4.91841 35.2444 5.13034 35.3758C5.34247 35.5071 5.60295 35.6402 6.11972 35.9035C8.57189 37.1527 9.86409 38.0937 10.4727 39.3028C10.4731 39.282 10.4733 39.2612 10.4733 39.2401C10.4733 38.5944 10.0334 38.0087 9.36091 37.448C8.68889 36.8876 7.78828 36.3548 6.87345 35.8137L6.87244 35.8131C5.80766 35.1832 4.72371 34.5423 3.96392 33.8342C3.21982 33.1409 2.78334 32.3806 2.9842 31.5013C2.68204 31.8513 2.64969 32.366 2.87919 32.9478Z" fill="#22110C"/>
<path opacity="0.2" fill-rule="evenodd" clip-rule="evenodd" d="M27.078 35.8009C25.249 36.8829 23.4709 37.9347 23.4709 39.2401C23.4709 39.2585 23.4711 39.2769 23.4714 39.2951C24.0804 38.0976 25.3677 37.161 27.8107 35.9166C28.8437 35.3903 28.8554 35.3832 29.5015 34.8694C31.0857 33.6098 31.5494 32.2519 30.966 31.5295C31.3423 33.2788 29.1766 34.5598 27.078 35.8009Z" fill="#22110C"/>
<path opacity="0.2" fill-rule="evenodd" clip-rule="evenodd" d="M31.0604 33.0037C30.8182 33.5938 30.3043 34.2502 29.5109 34.881C29.188 35.1377 29.0229 35.2685 28.8092 35.401C28.5957 35.5329 28.3339 35.6666 27.8176 35.9299C25.3745 37.1744 24.0914 38.1091 23.4848 39.3019L23.4563 39.2953C23.456 39.2769 23.4559 39.2585 23.4559 39.2401C23.4559 38.5804 23.9051 37.9873 24.5789 37.4255C25.2531 36.8632 26.1556 36.3293 27.0696 35.7888L27.0704 35.7882C28.12 35.1674 29.1845 34.5375 29.9399 33.8449C30.6952 33.1522 31.1376 32.3995 30.9513 31.5328L30.9777 31.5203C31.2741 31.887 31.3026 32.4135 31.0604 33.0037ZM30.9934 31.5904C31.2437 31.9432 31.2611 32.4358 31.0328 32.9923C30.7929 33.5766 30.2829 34.229 29.4921 34.8578C29.1689 35.1149 29.0051 35.2444 28.7933 35.3758C28.5811 35.5071 28.3206 35.6402 27.8038 35.9034C25.3977 37.1292 24.1085 38.0577 23.486 39.2344C23.4886 38.5908 23.9279 38.0072 24.5983 37.448C25.2704 36.8876 26.171 36.3548 27.0858 35.8137L27.0868 35.8131C28.1353 35.193 29.2025 34.5618 29.9603 33.8665C30.7001 33.1882 31.1484 32.4456 30.9934 31.5904Z" fill="#22110C"/>
<g style="mix-blend-mode:multiply">
<path fill-rule="evenodd" clip-rule="evenodd" d="M2.34167 35.3208C2.32356 36.7931 2.38015 43.1475 9.93238 43.1475C9.96326 43.1475 9.99398 43.1475 10.0244 43.1472C9.95169 42.7562 10.048 42.4305 10.3125 42.1512C10.5803 41.868 10.4121 40.5288 10.007 39.7188C9.89974 39.5042 9.8539 39.4059 9.80514 39.4044C9.7629 39.4032 9.71843 39.4751 9.62987 39.6077C7.43739 42.889 2.96413 40.3778 3.0548 35.9168C3.06865 35.2361 3.06865 35.2361 2.87887 35.0855C2.74061 34.9761 2.69875 34.9381 2.66784 34.9452C2.64924 34.9496 2.6346 34.9704 2.60528 35.0019C2.51304 35.1015 2.42514 35.2079 2.34167 35.3208Z" fill="black" fill-opacity="0.2"/>
</g>
<path opacity="0.2" fill-rule="evenodd" clip-rule="evenodd" d="M31.6307 35.4471C31.6421 37.0808 31.4362 43.1772 24.0389 43.1772C23.9898 43.1772 23.9413 43.1769 23.8933 43.1766C23.9766 42.7725 23.8821 42.4377 23.611 42.1512C23.3432 41.868 23.5114 40.5285 23.9166 39.7188C24.0238 39.5042 24.0696 39.4059 24.1184 39.4044C24.1606 39.4032 24.2051 39.4751 24.2937 39.6076C26.4862 42.8887 30.9593 40.3778 30.8689 35.9168C30.8589 35.4328 30.8559 35.2928 30.9211 35.1992C30.9476 35.1609 30.9852 35.1306 31.0383 35.0875C31.1375 35.007 31.191 34.9565 31.2421 34.9585C31.317 34.9618 31.3867 35.0786 31.588 35.3823C31.6024 35.404 31.6165 35.4257 31.6307 35.4471Z" fill="#22110C"/>
<path opacity="0.2" fill-rule="evenodd" clip-rule="evenodd" d="M15.6541 19.418C15.6088 19.7561 15.6814 20.1605 15.8826 20.6011C16.0333 20.9309 16.0333 20.9309 16.2645 20.9333C16.4722 20.9355 16.5194 20.9477 16.7287 21.0534C16.9617 21.1711 16.9617 21.1711 17.1947 21.0534C17.4041 20.9477 17.4513 20.9355 17.659 20.9333C17.8902 20.9309 17.8902 20.9309 18.0407 20.6011C18.2418 20.1603 18.307 19.7538 18.2571 19.4137C18.1573 19.9638 17.9274 20.6829 17.4117 20.7429C17.1885 20.7893 17.0332 20.7922 16.9795 20.7877L16.976 20.7874H16.9344H16.9309C16.8772 20.7919 16.7219 20.7893 16.4987 20.7429C15.9844 20.683 15.7543 19.9676 15.6541 19.418ZM18.6671 21.0703C18.9249 20.673 19.0325 20.2933 19.057 19.6956L19.0699 19.3817C19.1687 19.92 19.1423 20.6737 18.6903 21.3136C18.5732 21.215 18.5788 21.2064 18.6671 21.0703ZM20.5034 20.5641C20.4825 20.8388 20.396 21.1426 20.2377 21.4598C20.2207 21.4938 20.2054 21.5248 20.1915 21.5529C20.1066 21.7251 20.0733 21.7926 20.0221 21.8106C19.9891 21.8223 19.9486 21.8134 19.8819 21.7987C19.8651 21.7949 19.8465 21.7908 19.826 21.7866C19.6655 21.7535 19.5769 21.75 19.4669 21.7724C19.438 21.7783 19.4118 21.7838 19.3878 21.7888C19.3827 21.7898 19.3777 21.7909 19.3728 21.7919C19.3924 21.733 19.5456 21.685 19.7018 21.636C19.8487 21.59 19.9982 21.5432 20.0413 21.4857C20.2554 21.2004 20.4189 20.9127 20.5034 20.5641ZM21.1389 20.4569C21.1367 20.8664 20.8994 21.5373 20.6327 21.8883C20.5187 22.0382 20.511 22.0484 20.6558 22.2028C20.9628 21.764 21.2826 20.8999 21.1617 20.4291C21.147 20.436 21.1389 20.4452 21.1389 20.4569ZM23.0352 21.8474C22.9959 22.0988 22.8555 22.6278 22.6408 22.8526C22.3854 23.12 22.2802 23.1498 22.0699 23.0606C21.9447 23.0076 21.7621 23.0334 21.6292 23.0684C21.8705 23.0774 22.0885 23.1413 22.2889 23.2611L22.2953 23.2649L22.3067 23.2717C22.3796 23.3154 22.42 23.3397 22.4569 23.3352C22.5028 23.3297 22.5432 23.2798 22.6337 23.168L22.6428 23.1569L22.6516 23.1461C22.9558 22.7712 23.0768 22.293 23.0352 21.8474ZM25.2157 23.4557C25.1626 23.8705 25.0114 24.6081 24.429 25.096C23.8809 25.5551 23.4673 25.5863 23.3771 24.9326C23.3684 24.8695 23.3562 24.836 23.3417 24.8262C23.3688 25.0568 23.3575 25.2894 23.3028 25.5009C23.2697 25.6287 23.2427 25.737 23.2427 25.7415C23.2427 25.815 24.0599 25.476 24.3463 25.2837C25.004 24.842 25.2924 24.1135 25.2157 23.4557ZM23.6623 22.3453C23.5912 22.8056 23.4234 23.1332 23.0756 23.4932C22.852 23.7247 22.852 23.7247 22.9461 23.8403C22.9562 23.8527 22.9661 23.8652 22.9759 23.878C23.2753 23.5771 23.6091 23.0024 23.6623 22.3453ZM20.6548 23.7387C20.5992 24.0531 20.5076 24.3971 20.3719 24.5611C20.1014 24.888 19.7408 24.9771 19.4553 24.9326C19.3118 24.9102 19.0738 24.9726 18.8658 25.0455C19.2878 25.0277 19.6083 25.1102 19.8866 25.3C19.9547 25.3464 20.0098 25.3665 20.0218 25.3492C20.0329 25.3331 20.0986 25.247 20.1678 25.1579C20.4734 24.7636 20.6393 24.2267 20.6548 23.7387ZM18.2291 24.9001C18.6617 24.6745 19.3551 24.071 19.3466 23.1107C19.2628 23.8036 18.8502 24.4177 18.2015 24.7883C18.1937 24.7928 18.2076 24.8417 18.2291 24.9001ZM18.7773 23.1753C18.6437 23.5647 18.3467 24.1771 17.8775 24.0114C17.4568 23.8628 17.2014 23.8331 16.991 23.8331C16.9775 23.8331 16.9657 23.8344 16.9552 23.8368C16.9448 23.8344 16.9329 23.8331 16.9194 23.8331C16.709 23.8331 16.4536 23.8628 16.0329 24.0114C15.6095 24.1609 15.3263 23.6767 15.1769 23.2947C15.2465 23.5821 15.3896 23.8943 15.607 24.219C15.7432 24.4225 15.7936 24.4976 15.8332 24.4925C15.8565 24.4895 15.8761 24.4589 15.9073 24.4104C16.3549 23.7124 17.5685 23.7124 18.0162 24.4104C18.138 24.6003 18.6282 23.8765 18.7528 23.3229C18.7639 23.2737 18.7719 23.2245 18.7773 23.1753ZM13.2562 23.7421C13.2614 24.2094 13.4221 24.7276 13.7557 25.1579C13.8248 25.247 13.8905 25.3331 13.9017 25.3492C13.9137 25.3665 13.9687 25.3464 14.0369 25.3C14.3119 25.1124 14.6282 25.0297 15.0431 25.0449C14.8354 24.9723 14.5982 24.9103 14.4551 24.9326C14.1696 24.9771 13.809 24.888 13.5385 24.5611C13.4033 24.3977 13.3119 24.0556 13.2562 23.7421ZM14.5672 23.0118C14.5075 24.0379 15.246 24.6773 15.6923 24.9058C15.7149 24.8449 15.73 24.793 15.722 24.7883C15.0426 24.4001 14.6221 23.7449 14.5672 23.0118ZM13.2602 22.2106C13.4127 22.0487 13.4067 22.0408 13.2908 21.8883C13.024 21.5373 12.7868 20.8664 12.7846 20.4569C12.7845 20.4507 12.7702 20.4459 12.7455 20.4425C12.6332 20.919 12.9544 21.7785 13.2602 22.2106ZM10.8769 21.8581C10.8311 22.2897 10.9527 22.7528 11.2719 23.1461C11.278 23.1536 11.284 23.1609 11.2897 23.168C11.3803 23.2798 11.4207 23.3297 11.4666 23.3352C11.5035 23.3397 11.5438 23.3154 11.6168 23.2717C11.6225 23.2683 11.6284 23.2647 11.6345 23.2611C11.8318 23.1432 12.0462 23.0794 12.2829 23.0688C12.15 23.0336 11.9663 23.0073 11.8406 23.0606C11.6302 23.1498 11.525 23.12 11.2696 22.8526C11.0579 22.631 10.9185 22.1135 10.8769 21.8581ZM13.4398 20.6835C13.4718 20.93 13.5527 21.1932 13.6858 21.4598C13.7027 21.4938 13.718 21.5248 13.7319 21.5529C13.8169 21.7251 13.8502 21.7926 13.9014 21.8106C13.9344 21.8223 13.9749 21.8134 14.0415 21.7987C14.0584 21.7949 14.0769 21.7908 14.0975 21.7866C14.258 21.7535 14.3465 21.75 14.4566 21.7724C14.4854 21.7783 14.5117 21.7838 14.5356 21.7888L14.5366 21.789C14.5129 21.7314 14.3622 21.6841 14.2086 21.636C14.0617 21.59 13.9123 21.5432 13.8691 21.4857C13.68 21.2336 13.5303 20.9797 13.4398 20.6835ZM14.8304 19.4407C14.8514 19.5071 14.8622 19.5925 14.8666 19.6992C14.8909 20.293 14.9992 20.6738 15.2564 21.0703C15.3467 21.2095 15.3504 21.2154 15.225 21.3205C14.7847 20.7021 14.7439 19.9761 14.8304 19.4407ZM10.5821 24.8236C10.5618 24.8187 10.5445 24.8509 10.5333 24.9326C10.4431 25.5863 10.0295 25.5551 9.48145 25.096C8.94389 24.6457 8.77361 23.9825 8.70882 23.5569C8.67656 24.1843 8.95264 24.8643 9.57717 25.2837C9.86354 25.476 10.6808 25.815 10.6808 25.7415C10.6808 25.737 10.6537 25.6287 10.6207 25.5009C10.5658 25.2887 10.5546 25.0551 10.5821 24.8236ZM10.942 23.8854C10.9534 23.8702 10.9651 23.8553 10.977 23.8407C11.0709 23.7255 11.0709 23.7255 10.8352 23.4793C10.486 23.1145 10.2968 22.7223 10.2448 22.2546C10.2436 22.2444 10.2426 22.2348 10.2416 22.2255C10.2611 22.9376 10.6226 23.5687 10.942 23.8854Z" fill="#22110C"/>
<path d="M28.069 37.9327C28.069 37.5716 28.3717 37.279 28.7451 37.279C29.1186 37.279 29.4213 37.5716 29.4213 37.9327C29.4213 38.2937 29.1186 38.5864 28.7451 38.5864C28.3717 38.5864 28.069 38.2937 28.069 37.9327Z" fill="#F1F1F1"/>
<path d="M4.47778 37.9327C4.47778 37.5716 4.78054 37.279 5.15396 37.279C5.52737 37.279 5.83014 37.5716 5.83014 37.9327C5.83014 38.2937 5.52737 38.5864 5.15396 38.5864C4.78054 38.5864 4.47778 38.2937 4.47778 37.9327Z" fill="#F1F1F1"/>
<path d="M6.28095 38.5269C6.28095 38.4283 6.1935 38.3487 6.08558 38.3487C5.9777 38.3487 5.89026 38.4283 5.89026 38.5269C5.89026 38.6253 5.9777 38.7052 6.08558 38.7052C6.1935 38.7052 6.28095 38.6253 6.28095 38.5269Z" fill="#F1F1F1"/>
</g>
<path d="M194.29 38.4657L195.034 42.0628C194.517 42.4142 193.773 42.7347 192.801 43.0241C191.85 43.2928 190.899 43.4272 189.948 43.4272C188.108 43.4272 186.579 42.8483 185.359 41.6907C184.16 40.533 183.561 38.7965 183.561 36.4812V30.1864H180.522V26.0002H183.561V22.3101L187.995 21.3488V26.0002H194.32V30.1864H187.995V36.2331C187.995 38.2797 188.904 39.303 190.723 39.303C191.53 39.303 192.718 39.0239 194.29 38.4657Z" fill="#22110C"/>
<path d="M171.131 43.4271C168.837 43.4271 166.925 42.9 165.395 41.8457C163.865 40.7707 162.945 39.3029 162.635 37.4424H167.131C167.504 38.9722 168.878 39.7371 171.256 39.7371C173.178 39.7371 174.139 39.2719 174.139 38.3417C174.139 38.2176 174.119 38.104 174.077 38.0006C174.057 37.8972 174.005 37.8042 173.922 37.7215C173.86 37.6388 173.788 37.5664 173.705 37.5044C173.623 37.4217 173.498 37.3494 173.333 37.2873C173.189 37.2254 173.054 37.1737 172.93 37.1323C172.806 37.091 172.62 37.0393 172.372 36.9773C172.144 36.9153 171.938 36.8636 171.752 36.8222C171.586 36.7809 171.348 36.7292 171.039 36.6672C170.728 36.6052 170.46 36.5432 170.232 36.4811C167.689 35.8816 165.912 35.2304 164.899 34.5276C163.907 33.804 163.41 32.7291 163.41 31.3026C163.41 29.5248 164.082 28.1397 165.426 27.1475C166.79 26.1345 168.609 25.628 170.884 25.628C173.157 25.628 174.925 26.1242 176.186 27.1165C177.447 28.0881 178.233 29.4111 178.542 31.0856H174.047C173.674 29.9279 172.568 29.3491 170.728 29.3491C168.826 29.3491 167.876 29.8245 167.876 30.7755C167.876 31.1476 168.072 31.4163 168.465 31.5817C168.858 31.7471 169.747 31.9848 171.131 32.2949C172.517 32.605 173.612 32.8945 174.419 33.1632C175.225 33.4113 175.99 33.742 176.713 34.1555C177.437 34.5689 177.953 35.065 178.263 35.6439C178.574 36.2227 178.729 36.9256 178.729 37.7525C178.729 39.5924 178.016 40.9981 176.589 41.9697C175.162 42.9413 173.344 43.4271 171.131 43.4271Z" fill="#22110C"/>
<path d="M151.524 25.628C154.315 25.628 156.517 26.5893 158.129 28.5118C159.763 30.4344 160.465 32.8221 160.238 35.6749H147.152C147.297 36.9979 147.772 38.0109 148.578 38.7138C149.385 39.4166 150.387 39.7681 151.586 39.7681C152.454 39.7681 153.23 39.582 153.912 39.2099C154.594 38.8172 155.08 38.29 155.37 37.6285H159.959C159.359 39.551 158.305 40.9981 156.796 41.9697C155.287 42.9413 153.561 43.4271 151.617 43.4271C148.972 43.4271 146.811 42.5899 145.137 40.9154C143.462 39.241 142.625 37.122 142.625 34.5586C142.625 31.9952 143.462 29.8659 145.137 28.1707C146.811 26.4756 148.94 25.628 151.524 25.628ZM151.494 29.287C150.439 29.287 149.561 29.5765 148.857 30.1553C148.155 30.7135 147.659 31.468 147.369 32.419H155.525C155.276 31.468 154.801 30.7135 154.098 30.1553C153.395 29.5765 152.527 29.287 151.494 29.287Z" fill="#22110C"/>
<path d="M138.008 22.6822C136.003 22.6822 135.001 23.7675 135.001 25.9381V26.0002H140.675V30.1864H135.001V43.055H130.567V30.1864H127.528V26.0002H130.567V25.7211C130.567 23.4471 131.238 21.7312 132.582 20.5736C133.926 19.3953 135.569 18.8061 137.512 18.8061C139.063 18.8061 140.407 19.0645 141.543 19.5813L140.737 23.1783L140.148 23.0233C139.363 22.7959 138.649 22.6822 138.008 22.6822Z" fill="#22110C"/>
<path d="M122.852 18.1239C123.658 18.1239 124.319 18.3719 124.836 18.8681C125.353 19.3435 125.611 19.9637 125.611 20.7286C125.611 21.4935 125.353 22.124 124.836 22.6202C124.319 23.1163 123.658 23.3644 122.852 23.3644C122.066 23.3644 121.405 23.1163 120.867 22.6202C120.35 22.124 120.092 21.4935 120.092 20.7286C120.092 19.9844 120.35 19.3642 120.867 18.8681C121.405 18.3719 122.066 18.1239 122.852 18.1239ZM120.619 43.0551V26.0001H125.053V43.0551H120.619Z" fill="#22110C"/>
<path d="M111.065 25.628C112.988 25.628 114.497 26.2275 115.592 27.4266C116.688 28.6255 117.236 30.269 117.236 32.3569V43.055H112.801V33.3182C112.801 32.1606 112.554 31.2923 112.057 30.7135C111.561 30.1346 110.745 29.8452 109.608 29.8452C107.044 29.8452 105.762 31.2613 105.762 34.0934V43.055H101.328V26.0001H105.762V28.3258C107.044 26.5273 108.812 25.628 111.065 25.628Z" fill="#22110C"/>
<path d="M93.3602 26.0001H97.7945L97.7637 43.055H93.3294V40.7604C92.0267 42.5382 90.2492 43.4271 87.9957 43.4271C85.7422 43.4271 83.8818 42.6002 82.4142 40.9464C80.9465 39.2719 80.2126 37.1323 80.2126 34.5276C80.2126 31.9228 80.9465 29.7936 82.4142 28.1397C83.9025 26.4652 85.7528 25.628 87.9649 25.628C90.2386 25.628 92.0373 26.548 93.3602 28.3878V26.0001ZM88.9879 39.2099C90.2492 39.2099 91.2929 38.7758 92.1201 37.9075C92.9468 37.0393 93.3602 35.9126 93.3602 34.5276C93.3602 33.1425 92.9468 32.0159 92.1201 31.1476C91.2929 30.2793 90.2492 29.8452 88.9879 29.8452C87.7272 29.8452 86.6935 30.2793 85.887 31.1476C85.081 32.0159 84.6778 33.1425 84.6778 34.5276C84.6778 35.9126 85.081 37.0393 85.887 37.9075C86.7142 38.7758 87.7479 39.2099 88.9879 39.2099Z" fill="#22110C"/>
<path d="M71.3424 25.628C73.1618 25.628 74.5987 26.2172 75.653 27.3955C76.7074 28.5738 77.2343 30.1967 77.2343 32.2639V43.055H72.7999V33.2252C72.7999 32.1089 72.5622 31.2716 72.0868 30.7135C71.6321 30.1346 70.8876 29.8452 69.854 29.8452C68.6967 29.8452 67.818 30.2173 67.2184 30.9615C66.6188 31.6851 66.319 32.7291 66.319 34.0934V43.055H61.8847V33.2252C61.8847 32.1089 61.647 31.2716 61.1716 30.7135C60.7168 30.1346 59.9724 29.8452 58.9388 29.8452C57.7815 29.8452 56.8922 30.2173 56.2724 30.9615C55.6728 31.6851 55.373 32.7291 55.373 34.0934L55.4038 43.055H50.9387V26.0001H55.4038V28.2638C56.6444 26.5066 58.3291 25.628 60.4584 25.628C62.939 25.628 64.6651 26.703 65.6372 28.8529C66.96 26.703 68.8617 25.628 71.3424 25.628Z" fill="#22110C"/>
</g>
<path d="M196 9.8423V8.2895C196.891 8.2895 197.509 8.11181 197.854 7.75644C198.199 7.40107 198.372 6.8268 198.372 6.03365V4.3263C198.372 3.37349 198.503 2.61123 198.766 2.03955C199.034 1.46271 199.404 1.0275 199.878 0.73393C200.357 0.44036 200.924 0.24465 201.578 0.14679C202.232 0.0489299 202.948 0 203.725 0V2.45672C203.118 2.45672 202.654 2.53655 202.335 2.69621C202.021 2.85073 201.807 3.09279 201.694 3.42241C201.58 3.74689 201.524 4.15892 201.524 4.6585V6.91436C201.524 7.30578 201.452 7.67918 201.307 8.03456C201.163 8.38478 200.895 8.6964 200.504 8.9693C200.113 9.2372 199.554 9.4509 198.827 9.6106C198.101 9.7651 197.159 9.8423 196 9.8423ZM203.725 19.5533C202.948 19.5533 202.232 19.5044 201.578 19.4065C200.924 19.3087 200.357 19.113 199.878 18.8194C199.404 18.5258 199.034 18.0932 198.766 17.5215C198.503 16.9447 198.372 16.1798 198.372 15.227V13.512C198.372 12.7188 198.199 12.1445 197.854 11.7892C197.509 11.4338 196.891 11.2561 196 11.2561V9.7033C197.159 9.7033 198.101 9.7831 198.827 9.9428C199.554 10.0973 200.113 10.311 200.504 10.584C200.895 10.8518 201.163 11.1634 201.307 11.5188C201.452 11.869 201.524 12.2424 201.524 12.639V14.8948C201.524 15.3893 201.58 15.8013 201.694 16.1309C201.807 16.4554 202.021 16.6975 202.335 16.8571C202.654 17.0116 203.118 17.0889 203.725 17.0889V19.5533ZM196 11.2561V8.2895H198.773V11.2561H196Z" fill="#22110C"/>
<path d="M206.725 15.5096V3.87323H209.145V8.24823H209.219C209.325 8.01338 209.479 7.77475 209.68 7.53232C209.884 7.28611 210.149 7.08156 210.475 6.91868C210.805 6.75202 211.214 6.66868 211.702 6.66868C212.339 6.66868 212.926 6.83535 213.464 7.16868C214.001 7.49823 214.431 7.99634 214.753 8.663C215.075 9.32588 215.236 10.1573 215.236 11.1573C215.236 12.1308 215.079 12.9528 214.765 13.6232C214.454 14.2899 214.03 14.7956 213.492 15.1403C212.958 15.4812 212.359 15.6516 211.697 15.6516C211.227 15.6516 210.827 15.574 210.498 15.4187C210.172 15.2634 209.905 15.0683 209.697 14.8335C209.488 14.5948 209.329 14.3543 209.219 14.1119H209.111V15.5096H206.725ZM209.094 11.146C209.094 11.6649 209.166 12.1175 209.31 12.5039C209.454 12.8903 209.662 13.1914 209.935 13.4073C210.208 13.6194 210.539 13.7255 210.93 13.7255C211.323 13.7255 211.657 13.6175 211.93 13.4016C212.202 13.1819 212.409 12.8789 212.549 12.4925C212.693 12.1024 212.765 11.6535 212.765 11.146C212.765 10.6422 212.695 10.199 212.555 9.81641C212.414 9.43384 212.208 9.13459 211.935 8.91868C211.662 8.70278 211.327 8.59482 210.93 8.59482C210.536 8.59482 210.202 8.69899 209.93 8.90732C209.661 9.11565 209.454 9.41111 209.31 9.79368C209.166 10.1763 209.094 10.627 209.094 11.146Z" fill="black"/>
<path d="M220.829 15.68C219.931 15.68 219.158 15.4982 218.51 15.1346C217.867 14.7672 217.37 14.2482 217.022 13.5778C216.673 12.9035 216.499 12.1062 216.499 11.1857C216.499 10.288 216.673 9.50012 217.022 8.82209C217.37 8.14406 217.861 7.61565 218.493 7.23687C219.13 6.85808 219.876 6.66868 220.732 6.66868C221.308 6.66868 221.844 6.76149 222.34 6.94709C222.84 7.12891 223.276 7.40353 223.647 7.77096C224.022 8.13838 224.314 8.6005 224.522 9.15732C224.73 9.71035 224.834 10.3581 224.834 11.1005V11.7653H217.465V10.2653H222.556C222.556 9.91679 222.48 9.60808 222.329 9.33914C222.177 9.0702 221.967 8.85997 221.698 8.70846C221.433 8.55315 221.124 8.4755 220.772 8.4755C220.404 8.4755 220.079 8.56073 219.795 8.73118C219.514 8.89785 219.295 9.12323 219.135 9.40732C218.976 9.68762 218.895 10.0001 218.891 10.3448V11.771C218.891 12.2028 218.971 12.5759 219.13 12.8903C219.293 13.2047 219.522 13.4471 219.817 13.6175C220.113 13.788 220.463 13.8732 220.868 13.8732C221.137 13.8732 221.384 13.8354 221.607 13.7596C221.831 13.6838 222.022 13.5702 222.181 13.4187C222.34 13.2672 222.461 13.0816 222.545 12.8619L224.783 13.0096C224.67 13.5475 224.437 14.0172 224.084 14.4187C223.736 14.8164 223.285 15.127 222.732 15.3505C222.183 15.5702 221.548 15.68 220.829 15.68Z" fill="black"/>
<path d="M231.056 6.78232V8.6005H225.8V6.78232H231.056ZM226.993 4.69141H229.414V12.8278C229.414 13.0513 229.448 13.2255 229.516 13.3505C229.584 13.4717 229.679 13.5569 229.8 13.6062C229.925 13.6554 230.069 13.68 230.232 13.68C230.346 13.68 230.459 13.6706 230.573 13.6516C230.687 13.6289 230.774 13.6119 230.834 13.6005L231.215 15.4016C231.094 15.4395 230.923 15.4831 230.704 15.5323C230.484 15.5854 230.217 15.6175 229.903 15.6289C229.319 15.6516 228.808 15.574 228.368 15.396C227.933 15.2179 227.594 14.9414 227.351 14.5664C227.109 14.1914 226.99 13.7179 226.993 13.146V4.69141Z" fill="black"/>
<path d="M235.121 15.6744C234.564 15.6744 234.068 15.5778 233.633 15.3846C233.197 15.1876 232.852 14.8979 232.599 14.5153C232.349 14.1289 232.224 13.6479 232.224 13.0721C232.224 12.5872 232.313 12.18 232.491 11.8505C232.669 11.521 232.911 11.2558 233.218 11.055C233.525 10.8543 233.873 10.7028 234.263 10.6005C234.657 10.4982 235.07 10.4263 235.502 10.3846C236.01 10.3316 236.419 10.2823 236.729 10.2369C237.04 10.1876 237.265 10.1157 237.405 10.021C237.546 9.92626 237.616 9.78611 237.616 9.6005V9.56641C237.616 9.20656 237.502 8.92815 237.275 8.73118C237.051 8.53421 236.733 8.43573 236.32 8.43573C235.885 8.43573 235.538 8.53232 235.28 8.7255C235.023 8.9149 234.852 9.15353 234.769 9.44141L232.53 9.25959C232.644 8.72929 232.867 8.27096 233.201 7.88459C233.534 7.49444 233.964 7.1952 234.491 6.98687C235.021 6.77475 235.635 6.66868 236.332 6.66868C236.816 6.66868 237.28 6.7255 237.724 6.83914C238.171 6.95278 238.566 7.12891 238.911 7.36755C239.26 7.60618 239.534 7.913 239.735 8.288C239.936 8.65921 240.036 9.10429 240.036 9.62323V15.5096H237.741V14.2994H237.672C237.532 14.5721 237.345 14.8126 237.11 15.021C236.875 15.2255 236.593 15.3865 236.263 15.5039C235.934 15.6175 235.553 15.6744 235.121 15.6744ZM235.814 14.0039C236.171 14.0039 236.485 13.9338 236.758 13.7937C237.03 13.6497 237.244 13.4566 237.4 13.2141C237.555 12.9717 237.633 12.6971 237.633 12.3903V11.4641C237.557 11.5134 237.453 11.5588 237.32 11.6005C237.191 11.6384 237.046 11.6744 236.883 11.7085C236.72 11.7388 236.557 11.7672 236.394 11.7937C236.231 11.8164 236.083 11.8372 235.951 11.8562C235.667 11.8979 235.419 11.9641 235.207 12.055C234.994 12.146 234.83 12.2691 234.712 12.4244C234.595 12.5759 234.536 12.7653 234.536 12.9925C234.536 13.3221 234.655 13.574 234.894 13.7482C235.136 13.9187 235.443 14.0039 235.814 14.0039Z" fill="black"/>
<path d="M250.762 9.7033V11.2561C249.876 11.2561 249.258 11.4338 248.908 11.7892C248.563 12.1445 248.39 12.7188 248.39 13.512V15.227C248.39 16.1798 248.256 16.9447 247.988 17.5215C247.726 18.0932 247.355 18.5258 246.876 18.8194C246.402 19.113 245.838 19.3087 245.184 19.4065C244.535 19.5044 243.819 19.5533 243.036 19.5533V17.0889C243.644 17.0889 244.105 17.0116 244.419 16.8571C244.739 16.6975 244.955 16.4554 245.068 16.1309C245.181 15.8013 245.238 15.3893 245.238 14.8948V12.639C245.238 12.2424 245.31 11.869 245.454 11.5188C245.599 11.1634 245.866 10.8518 246.258 10.584C246.649 10.311 247.208 10.0973 247.934 9.9428C248.661 9.7831 249.603 9.7033 250.762 9.7033ZM243.036 0C243.819 0 244.535 0.0489299 245.184 0.14679C245.838 0.24465 246.402 0.44036 246.876 0.73393C247.355 1.0275 247.726 1.46271 247.988 2.03955C248.256 2.61123 248.39 3.37349 248.39 4.3263V6.03365C248.39 6.8268 248.563 7.40107 248.908 7.75644C249.258 8.11181 249.876 8.2895 250.762 8.2895V9.8423C249.603 9.8423 248.661 9.7651 247.934 9.6106C247.208 9.4509 246.649 9.2372 246.258 8.9693C245.866 8.6964 245.599 8.38478 245.454 8.03456C245.31 7.67918 245.238 7.30578 245.238 6.91436V4.6585C245.238 4.15892 245.181 3.74689 245.068 3.42241C244.955 3.09279 244.739 2.85073 244.419 2.69621C244.105 2.53655 243.644 2.45672 243.036 2.45672V0ZM250.762 8.2895V11.2561H247.988V8.2895H250.762Z" fill="#22110C"/>
</svg>
