<?xml version="1.0" encoding="UTF-8"?><svg id="Layer_1" xmlns="http://www.w3.org/2000/svg" viewBox="0 0 957.35 107.48"><defs><style>.cls-1{fill:#15284b;}.cls-1,.cls-2{stroke-width:0px;}.cls-2{fill:#ffb700;}</style></defs><path class="cls-2" d="m26.32,40.62c-3.46,0-4.45.5-4.45,3.22v22.12c0,1.11.37,8.03,1.48,9.27,1.36,1.48,5.31,2.35,9.27,2.35,9.39,0,16.31-6.43,16.31-17.18s-9.14-19.78-22.61-19.78M30.4,6.15c-8.16,0-8.53,1.11-8.53,3.58v26.82c0,1.98,1.61,1.73,4.57,1.73,7.54,0,12.73.74,12.73.74,3.58-2.72,7.66-5.07,7.66-14.83,0-6.18-5.19-18.04-16.44-18.04m1.61,73.66c-5.19,0-10.38-1.24-15.82-1.24s-7.91.49-11.86.49c-1.24,0-2.1-.12-2.1-1.36s.74-1.48,3.46-1.48c5.56,0,5.81-.25,5.81-2.1V17.27c0-9.76-1.98-10.87-5.44-10.87-5.56,0-6.06-.12-6.06-1.61,0-.87.37-.99,2.47-.99,3.83,0,7.66.12,11.99.12,2.59,0,8.53-.74,19.65-.74,16.07,0,22.99,8.28,22.99,17.05s-5.31,13.1-9.27,15.82c-2.35,1.61-5.07,2.97-5.07,3.34,0,.25,2.35.86,4.82,2.1,5.81,2.97,13.1,7.17,13.1,17.92,0,13.84-11.49,20.39-28.67,20.39"/><path class="cls-2" d="m83.52,36.22c-8.17,0-10.75,12.25-10.75,13.76,0,.54,0,.64,1.29.64,5.59,0,11.39-1.4,19.45-2.69,1.18-.21,1.29-.43,1.29-1.07,0-2.69-6.34-10.64-11.29-10.64m16.55,12.9c-2.79.65-13.54,3.01-25.8,3.76-1.72.11-2.04.65-2.04,3.12,0,14.83,11.5,18.81,19.67,18.81,7.09,0,10.96-2.58,11.61-2.58.54,0,.86.64.86.86,0,.54-9.14,7.31-17.85,7.31s-21.93-4.3-21.93-22.25c0-15.16,10.21-24.19,19.99-24.19,5.59,0,12.47,3.55,16.34,8.06,1.83,2.15,3.55,4.73,3.55,5.59,0,.43-1.5.86-4.41,1.51"/><path class="cls-2" d="m139.42,46.21c-1.5,0-2.79-4.41-8.17-4.41-6.23,0-8.6,2.58-8.6,7.09v22.14c0,5.27.32,5.27,8.28,5.27,2.79,0,2.9.32,2.9,1.29,0,1.18-.11,1.08-2.9,1.08-1.51,0-8.71-.54-12.15-.54-3.65,0-7.31.54-8.81.54-2.47,0-2.69,0-2.69-1.08s.11-1.29,2.69-1.29c4.41,0,4.73-.11,4.73-1.61v-29.45c0-7.31.21-7.52-5.8-7.52-1.94,0-1.94.11-1.94-1.08,0-1.29-.11-1.61,1.72-1.61,3.65,0,5.7.21,7.85.21,1.72,0,3.76-.54,5.48-.54.43,0,.86.32.86,1.18,0,.54-.22,2.9-.22,3.22,0,.97.11,1.72.54,1.72,1.61,0,6.66-5.59,11.71-5.59,1.94,0,6.88,2.37,6.88,5.16,0,1.07-1.72,5.8-2.36,5.8"/><path class="cls-2" d="m190.26,79.11c-1.29,0-2.69-.11-3.65-.11-1.29,0-4.52.11-6.02.11-1.94,0-2.91-2.69-7.42-7.85-4.51-5.16-9.03-11.93-9.68-11.93-.43,0-1.93,1.08-3.76,2.26-1.72,1.08-3.22,1.83-3.22,2.8v6.77c0,5.05-.21,5.05,6.45,5.05,2.47,0,2.9.54,2.9,1.4,0,1.08-.54,1.08-2.9,1.08-1.61,0-6.56-.21-10-.21-3.66,0-7.63.21-9.14.21-2.47,0-3.12-.11-3.12-1.08,0-.86.54-1.4,3.12-1.4,3.65,0,4.62,0,4.62-1.61,0-3.12.32-34.93.32-57.62,0-7.63-.86-8.6-3.76-8.6-4.41,0-4.84-.32-4.84-1.08,0-1.07.21-1.5,1.4-1.5,7.74,0,14.08-2.36,15.05-2.36.54,0,.75.32.75.97,0,1.4-.22,5.91-.22,9.35,0,16.34-.65,28.38-.65,45.9,0,.43.11.75.43.75,2.69,0,13.87-9.89,17.31-13.12,4.19-3.98,5.16-5.8,5.16-8.06,0-1.72-.32-1.93-5.05-1.93-1.61,0-2.15-.22-2.15-1.18,0-.86.54-1.08,1.94-1.08,1.07,0,3.12.32,4.41.32,1.4,0,7.63-.32,8.92-.32.86,0,1.29.11,1.29.43,0,.97-3.65,5.59-6.99,8.82-5.38,5.27-12.04,10-12.04,10.75,0,.97,1.93,3.01,9.46,12.04,3.66,4.41,7.1,9.67,10.75,9.67,2.58,0,3.44.54,3.44,1.4,0,.75-.75.97-3.12.97"/><path class="cls-2" d="m208.86,36.22c-8.17,0-10.75,12.25-10.75,13.76,0,.54,0,.64,1.29.64,5.59,0,11.39-1.4,19.46-2.69,1.18-.21,1.29-.43,1.29-1.07,0-2.69-6.34-10.64-11.29-10.64m16.56,12.9c-2.8.65-13.54,3.01-25.8,3.76-1.72.11-2.04.65-2.04,3.12,0,14.83,11.5,18.81,19.67,18.81,7.09,0,10.97-2.58,11.61-2.58.54,0,.86.64.86.86,0,.54-9.14,7.31-17.84,7.31s-21.93-4.3-21.93-22.25c0-15.16,10.21-24.19,19.99-24.19,5.59,0,12.47,3.55,16.34,8.06,1.83,2.15,3.55,4.73,3.55,5.59,0,.43-1.5.86-4.41,1.51"/><path class="cls-2" d="m249.09,78.68c-1.61,0-3.98-.22-5.91-.22-3.65,0-9.35.22-10.86.22-2.47,0-2.69-.22-2.69-1.07,0-.75.11-1.4,2.69-1.4,4.41,0,6.23.11,6.23-1.83V15.15c0-6.77-.64-6.77-5.48-6.77-1.94,0-3.01-.21-3.01-1.4,0-1.29.86-1.18,2.69-1.29,8.38-.54,12.47-2.36,13.11-2.36.54,0,1.07.54,1.07,1.72,0,1.29-.54,5.16-.54,8.39,0,40.96-.54,49.45-.54,52.56,0,8.92.75,10.1,2.69,10.1,5.37,0,5.16.64,5.16,1.51,0,1.07-.75,1.07-4.62,1.07"/><path class="cls-2" d="m270.86,36.22c-8.17,0-10.75,12.25-10.75,13.76,0,.54,0,.64,1.29.64,5.59,0,11.4-1.4,19.46-2.69,1.18-.21,1.29-.43,1.29-1.07,0-2.69-6.35-10.64-11.29-10.64m16.56,12.9c-2.79.65-13.54,3.01-25.8,3.76-1.72.11-2.04.65-2.04,3.12,0,14.83,11.5,18.81,19.67,18.81,7.1,0,10.97-2.58,11.61-2.58.54,0,.86.64.86.86,0,.54-9.14,7.31-17.84,7.31s-21.93-4.3-21.93-22.25c0-15.16,10.21-24.19,20-24.19,5.59,0,12.47,3.55,16.34,8.06,1.83,2.15,3.55,4.73,3.55,5.59,0,.43-1.51.86-4.41,1.51"/><path class="cls-2" d="m336.11,37.61c-2.37,0-7.1,12.9-15.59,33.54-6.78,16.44-11.61,25.15-15.05,32.25-1.18,2.37-2.47,2.47-4.84,2.79-3.22.43-3.98,1.29-6.34,1.29-1.83,0-2.9-.54-2.9-1.07,0-.64,5.05-1.29,8.71-5.91,3.87-4.84,13.11-17.52,13.11-20.74,0-1.18-8.6-21.07-14.51-35.04-2.69-6.45-3.44-6.99-5.37-6.99-2.15,0-2.26-.11-2.26-1.07s.32-1.51,2.26-1.51c3.01,0,3.76.21,6.34.21,3.01,0,6.77-.32,10.21-.32,2.26,0,2.69.43,2.69,1.61,0,.97-.43,1.07-2.69,1.07-2.58,0-3.22.65-3.22,3.12,0,3.12,2.79,6.88,9.24,23.43.86,2.26,2.15,4.08,2.58,4.08.75,0,1.4-1.51,3.12-6.56,2.58-7.74,6.45-18.92,6.45-20.42,0-3.22,0-3.87-3.65-3.87-3.33,0-3.76,0-3.76-1.08,0-1.4.32-1.4,2.26-1.4,2.9,0,4.84.21,7.74.21,1.61,0,4.51-.43,6.02-.43,1.72,0,2.26.11,2.26,1.29,0,.97-1.51,1.51-2.79,1.51"/><polygon class="cls-1" points="756.66 37.65 756.66 43.93 721.6 43.93 721.6 72.3 760.69 72.3 760.69 78.47 714.84 78.47 714.84 5.65 759.11 5.65 759.11 11.66 721.34 11.63 721.39 37.65 756.66 37.65"/><path class="cls-1" d="m450,5.64h6.59v32.32l36.06-32.52,9.48.06s-24.61,22.29-36.94,33.46c12.89,13.11,38.95,39.61,38.95,39.61l-10.05-.07-37.34-37.39v37.48h-6.87l.12-72.95Z"/><path class="cls-1" d="m854.27,19.28c-1.69-1.38-3.14-2.69-4.68-3.95-8.48-6.95-22.52-7.25-32.69-.7-18.19,11.72-18.54,42.46-.53,54.47,11.91,7.94,29.25,7.07,38.55-5.32.42-.5.72-.89.72-.89,2.07,1.56,3.6,2.71,5.52,4.16-3.23,4.81-7.38,8.38-12.57,10.49-21.42,8.72-50.79-2.13-52.2-33.36-.42-9.37,1.51-18.16,7.17-25.81,7.79-10.51,18.57-14.8,31.39-14.63,8.74.12,16.4,2.81,22.51,9.28.4.43,1.39,1.57,1.75,2.02l-4.93,4.22Z"/><path class="cls-1" d="m362.62,69.37c2.59-1.72,4.24-2.82,6.42-4.27.73.95,1.36,1.82,2.04,2.65,5.82,6.99,17.46,8.52,25.11,3.56,7.1-4.6,9.53-17.46-1.27-22.49-3.69-1.72-7.67-2.8-11.49-4.24-3.04-1.15-6.17-2.15-9.02-3.68-12.13-6.48-13.44-23.86-2.52-32.26,9.1-7,24.73-6.47,33.28,1.16.98.87,1.8,1.91,2.85,3.04-2.07,1.49-3.95,2.85-5.92,4.26-5.57-7.19-12.79-8.55-20.96-6.15-5.97,1.75-9.2,5.92-9.7,12-.45,5.48,2.1,10.18,7.6,12.66,4.39,1.98,9.08,3.3,13.64,4.91,1.1.39,2.22.72,3.31,1.15,10.28,4.07,14.33,10.98,12.82,21.83-1.22,8.74-9.25,15.93-18.79,16.69-7.21.58-14.27-.01-20.45-4.19-2.58-1.74-5.42-4.58-6.92-6.63Z"/><polygon class="cls-1" points="563.21 78.47 556.33 78.47 556.44 47.87 529.63 5.51 537.75 5.42 559.79 40.03 582.35 5.42 590.02 5.5 563.28 48.06 563.21 78.47"/><path class="cls-1" d="m903.21,5.22h6.59v32.32l36.06-32.52,9.48.06s-24.61,22.29-36.94,33.46c12.89,13.11,38.95,39.61,38.95,39.61l-10.05-.07-37.34-37.39v37.48h-6.87l.12-72.95Z"/><path class="cls-1" d="m629.43,0c-3.27,0-6.45.37-9.51,1.04.57-.02,1.15-.04,1.73-.04,23.2,0,42,18.36,42,41s-18.8,41-42,41c-.58,0-1.15-.02-1.73-.04,3.06.67,6.24,1.04,9.51,1.04,23.75,0,43-18.8,43-42S653.18,0,629.43,0Z"/></svg>