<svg width="220" height="328" viewBox="0 0 220 328" fill="none" xmlns="http://www.w3.org/2000/svg">
    <path clipRule="evenodd" clipRule="evenodd"
        d="M107.32 10.7253C66.1572 14.7804 64.7079 75.7163 105.612 82.5353C107.466 82.8436 108.052 83.0064 108.095 83.2211C108.126 83.3766 107.977 86.4497 107.764 90.0501C107.552 93.6505 107.284 100.73 107.169 105.783C107.054 110.835 106.92 114.999 106.871 115.035C106.822 115.071 106.153 115.408 105.385 115.786C103.947 116.493 102.056 118.043 101.295 119.141C100.869 119.756 100.869 119.756 98.2509 119.843C94.116 119.978 91.5961 120.988 89.3083 123.429C88.6743 124.105 88.0923 124.584 88.0159 124.495C87.9381 124.406 85.5537 120.892 82.7141 116.688C79.8758 112.482 76.6515 107.748 75.5508 106.166L73.5496 103.289L74.7238 101.987C96.6272 77.7204 66.0002 41.1721 39.9572 60.4979C14.0348 79.7331 37.2684 120.085 67.0736 107.591C67.196 107.541 69.4104 110.308 72.3106 114.139C75.0739 117.79 78.5259 122.291 79.981 124.141C81.4361 125.992 82.7501 127.69 82.8999 127.918C83.2097 128.383 83.3076 128.316 81.6407 128.772C77.0189 130.043 72.6607 133.88 71.7963 137.44C71.6824 137.907 71.4966 138.293 71.3828 138.296C63.5711 138.503 57.5936 144.305 57.5086 151.761C57.4812 154.296 57.4812 154.296 56.4165 154.927C46.7344 160.674 33.5984 179.951 32.6605 189.792C32.5222 191.245 32.5768 191.198 30.6607 191.525C26.3373 192.262 23.8117 193.824 21.1486 197.403C17.7762 201.937 17.4651 205.834 20.0368 211.336C20.9077 213.202 20.9555 212.87 19.5195 214.895C4.33644 236.282 7.49927 261.381 27.9267 281.599C41.2869 294.825 60.0414 302.887 81.0659 304.442C89.095 305.035 90.0142 305.341 92.0817 308.062C105.678 325.969 117.414 325.969 131.01 308.062C133.077 305.341 133.997 305.035 142.026 304.442C173.452 302.118 199.746 284.891 209.602 260.168C215.885 244.411 213.891 229.45 203.568 214.88C202.136 212.859 202.185 213.198 203.055 211.336C205.627 205.834 205.315 201.937 201.944 197.403C199.28 193.824 196.755 192.262 192.431 191.525C190.515 191.198 190.57 191.245 190.431 189.792C190.124 186.564 186.67 178.284 183.375 172.872C179.325 166.22 171.457 157.766 166.675 154.927C165.611 154.296 165.611 154.296 165.582 151.761C165.498 144.305 159.521 138.503 151.709 138.296C151.595 138.293 151.409 137.907 151.295 137.44C150.431 133.88 146.073 130.043 141.451 128.772C139.784 128.316 139.883 128.383 140.192 127.918C140.342 127.69 141.656 125.992 143.111 124.141C144.566 122.291 148.018 117.79 150.781 114.139C153.681 110.308 155.896 107.541 156.018 107.591C185.824 120.085 209.057 79.7331 183.134 60.4979C157.091 41.1721 126.465 77.7204 148.368 101.987L149.542 103.289L147.541 106.166C146.44 107.748 143.216 112.482 140.378 116.688C137.539 120.892 135.154 124.406 135.076 124.495C134.999 124.584 134.419 124.105 133.783 123.429C131.496 120.988 128.976 119.978 124.841 119.843C122.223 119.756 122.223 119.756 121.802 119.15C120.7 117.561 118.163 115.756 116.109 115.1C115.188 114.808 115.188 114.808 115.21 104.012C115.223 98.0764 115.192 90.9059 115.142 88.0806L115.053 82.9416L117.48 82.5353C163.485 74.8519 153.765 6.15032 107.32 10.7253ZM106.189 19.6192C90.4061 22.4704 80.0343 37.0632 82.8653 51.3454C83.0685 52.3754 83.3422 53.4038 83.6866 54.4267C91.9333 78.9003 131.158 78.9003 139.405 54.4267C139.754 53.3923 140.029 52.3583 140.235 51.3267C143.848 33.2378 126.149 16.0138 106.189 19.6192ZM53.195 64.4225C41.5387 66.5778 34.6401 78.4047 37.5145 88.4322C38.0671 90.3599 38.9809 92.2213 40.2915 93.9357C49.5646 106.058 66.2624 104.835 73.1419 91.5297C73.7441 90.3642 74.2037 89.1785 74.5322 87.9841C78.0087 75.3619 66.7782 61.9113 53.195 64.4225ZM163.631 64.4326C152.004 66.5101 145.978 77.8558 148.574 87.9668C149.441 91.3467 151.272 94.5869 154.18 97.2984C162.54 105.097 175.42 103.583 182.8 93.9357C184.112 92.2198 185.021 90.3843 185.575 88.4984C189.159 76.2681 177.73 61.9142 163.631 64.4326ZM109.589 120.876C103.9 121.88 102.062 127.146 105.089 133.775C105.99 135.747 105.99 135.747 107.374 135.761C108.617 135.774 108.899 135.848 110.151 136.48C111.546 137.185 111.546 137.185 112.94 136.48C114.192 135.848 114.475 135.774 115.718 135.761C117.101 135.747 117.101 135.747 118.002 133.775C121.716 125.636 117.68 119.45 109.589 120.876ZM94.9934 126.086C90.3312 127.329 88.987 132.985 91.9434 138.912C93.168 141.366 92.9259 141.173 94.407 140.867C95.368 140.67 95.8982 140.648 96.5566 140.782C98.7177 141.223 98.4525 141.294 99.3674 140.025C99.8241 139.393 100.58 138.556 101.05 138.165C101.906 137.451 101.906 137.451 101.341 136.581C99.8025 134.208 99.1556 131.931 99.0087 128.378C98.8992 125.702 98.114 125.254 94.9934 126.086ZM124.083 128.356C123.936 131.932 123.292 134.204 121.751 136.581C121.186 137.451 121.186 137.451 122.042 138.165C122.511 138.556 123.269 139.393 123.724 140.025C124.639 141.294 124.376 141.223 126.535 140.782C127.194 140.648 127.724 140.67 128.685 140.867C130.166 141.173 129.924 141.366 131.148 138.912C134.605 131.985 132.344 126.133 126.116 125.88L124.188 125.8L124.083 128.356ZM82.2357 133.057C75.2684 134.86 72.7918 143.2 77.5001 149.002C78.6224 150.385 78.5475 150.362 79.6698 149.69C81.4145 148.649 83.3811 148.313 85.6733 148.666C86.5046 148.794 86.5046 148.794 86.715 147.969C87.0694 146.578 88.1096 144.767 89.2391 143.573C90.3124 142.439 90.3124 142.439 89.5806 141.475C87.9842 139.376 86.5651 135.362 86.5522 132.912C86.5507 132.68 83.2673 132.791 82.2357 133.057ZM136.54 132.912C136.527 135.362 135.107 139.376 133.511 141.475C132.779 142.439 132.779 142.439 133.853 143.573C134.982 144.767 136.022 146.578 136.377 147.969C136.587 148.794 136.587 148.794 137.418 148.666C139.711 148.313 141.677 148.649 143.422 149.69C144.544 150.362 144.469 150.385 145.592 149.002C149.516 144.167 148.345 136.46 143.318 134.028C141.159 132.982 136.544 132.223 136.54 132.912ZM104.574 141.396C99.68 143.649 99.2349 149.143 103.44 155.422C104.733 157.352 104.733 157.352 105.237 156.567C107.915 152.39 115.176 152.39 117.855 156.567C118.584 157.704 121.517 153.373 122.263 150.061C123.593 144.148 117.76 138.134 114.463 142.02C113.762 142.845 112.9 144.363 112.559 145.371C111.9 147.323 111.191 147.323 110.533 145.371C110.006 143.809 108.895 142.127 107.881 141.353C107.159 140.803 105.826 140.82 104.574 141.396ZM69.8282 142.596C60.9361 143.752 59.3124 156.388 67.3603 161.792C69.0733 162.942 73.9631 164.972 73.9631 164.531C73.9631 164.505 73.8017 163.857 73.6044 163.092C72.7601 159.832 73.6418 155.727 75.7366 153.158C76.2971 152.47 76.2971 152.47 74.888 150.996C72.7976 148.813 71.6666 146.466 71.3554 143.668C71.2084 142.347 71.2906 142.406 69.8282 142.596ZM151.909 142.629C151.873 142.736 151.759 143.403 151.654 144.112C151.238 146.918 150.235 148.899 148.129 151.079C146.79 152.464 146.79 152.464 147.354 153.155C149.45 155.727 150.332 159.83 149.487 163.092C149.29 163.857 149.129 164.505 149.129 164.531C149.129 164.972 154.018 162.942 155.731 161.792C162.862 157.005 162.738 146.581 155.511 143.25C154.32 142.701 152.014 142.304 151.909 142.629ZM94.3911 144.888C88.7363 145.694 87.5823 154.873 92.3626 161.039C92.7761 161.573 93.1694 162.088 93.2357 162.184C93.3077 162.288 93.6376 162.168 94.0454 161.89C96.3491 160.319 99.1369 159.977 103.347 160.751C103.486 160.777 104.25 158.898 104.128 158.829C99.5489 156.213 96.9355 151.569 97.1991 146.515C97.2755 145.05 97.2755 145.05 96.6329 144.943C96.2799 144.886 95.8693 144.815 95.7224 144.788C95.574 144.76 94.9746 144.806 94.3911 144.888ZM127.28 144.79C127.181 144.818 126.812 144.887 126.459 144.945C125.816 145.05 125.816 145.05 125.893 146.515C126.156 151.569 123.543 156.213 118.964 158.829C118.842 158.898 119.605 160.777 119.745 160.751C123.955 159.977 126.743 160.319 129.046 161.89C129.454 162.168 129.784 162.288 129.856 162.184C129.922 162.088 130.316 161.573 130.729 161.039C134.243 156.508 134.669 148.826 131.56 146.119C130.598 145.282 128.212 144.541 127.28 144.79ZM82.9187 152.229C75.9873 154.074 75.5018 163.544 82.0283 169.608C86.7452 173.991 82.1378 172.962 77.0002 168.488C75.6084 167.273 75.6084 167.273 74.5466 167.382C70.21 167.831 63.5323 164.04 59.9708 159.11C59.1481 157.972 59.1481 157.972 58.6266 158.577C51.2218 167.135 47.0079 174.798 42.2089 188.427C41.0212 191.803 41.0094 191.539 42.3604 191.793C65.4182 196.121 80.6322 220.411 81.1062 253.653C81.2099 260.914 81.027 260.479 83.5814 259.533C85.1403 258.955 85.4558 258.517 86.7308 255.16C92.56 239.803 97.4685 233.713 105.692 231.634C107.394 231.207 107.343 231.238 107.489 230.472C107.817 228.739 109.667 224.206 110.333 223.497C111.939 221.793 114.632 225.356 115.603 230.472C115.748 231.238 115.698 231.207 117.4 231.634C125.623 233.713 130.532 239.803 136.361 255.16C137.636 258.517 137.951 258.955 139.51 259.533C142.065 260.479 141.882 260.914 141.986 253.653C142.46 220.41 157.672 196.121 180.731 191.793C182.082 191.539 182.071 191.803 180.882 188.427C176.085 174.798 171.87 167.135 164.465 158.577C163.944 157.972 163.944 157.972 163.121 159.11C159.559 164.04 152.882 167.831 148.545 167.382C147.483 167.273 147.483 167.273 146.092 168.488C140.954 172.962 136.347 173.991 141.063 169.608C145.772 165.233 146.96 160.716 144.612 156.123C142.751 152.482 137.009 150.301 136.645 153.095C136.061 157.565 134.273 161.003 131.582 162.834C130.798 163.369 130.798 163.369 131.467 164.563C133.004 167.315 132.245 170.889 129.551 173.582C127.27 175.861 125.439 176.011 127.531 173.748C130.275 170.778 130.084 167.159 127.137 166.293C125.374 165.776 119.817 165.995 119.817 166.583C119.817 167.918 118.032 172.026 116.97 173.128C115.655 174.495 115.38 173.902 116.286 171.654C119.061 164.768 116.748 158.204 111.546 158.204C106.343 158.204 104.031 164.768 106.806 171.654C107.712 173.902 107.437 174.495 106.122 173.128C105.061 172.026 103.275 167.918 103.275 166.583C103.275 165.995 97.7178 165.776 95.9543 166.293C93.0081 167.159 92.8164 170.778 95.561 173.748C97.6529 176.011 95.8218 175.861 93.5411 173.582C90.847 170.889 90.0877 167.315 91.625 164.563C92.2934 163.369 92.2934 163.369 91.5097 162.834C88.8199 161.006 87.0305 157.564 86.4484 153.106C86.3533 152.373 86.251 152.168 85.9456 152.086C85.3131 151.919 83.8191 151.99 82.9187 152.229ZM33.3511 196.243C22.7406 197.91 24.3362 209.466 36.5143 219.149C40.3801 222.224 40.4502 222.265 46.6312 225.415C69.4162 237.023 75.4024 244.156 75.4024 259.707C75.4024 260.777 76.1703 261.105 77.2451 260.492C77.4396 260.38 77.4079 252.941 77.1975 248.966C76.2092 230.298 68.6439 212.847 57.801 204.222C50.6285 198.514 40.3181 195.15 33.3511 196.243ZM184.282 196.185C164.606 198.256 149.644 216.873 146.347 243.388C145.822 247.608 145.452 260.266 145.847 260.492C146.921 261.105 147.689 260.777 147.689 259.707C147.689 244.153 153.671 237.026 176.461 225.415C182.641 222.265 182.712 222.224 186.577 219.149C201.172 207.546 199.872 194.543 184.282 196.185ZM25.6433 219.942C17.3664 228.863 14.9271 247.291 20.2834 260.435C27.8014 278.887 52.4001 296.041 74.0539 297.934C83.8667 298.791 86.094 298.644 85.1547 297.2C83.616 294.835 78.34 285.234 75.2583 279.191C74.4587 277.627 73.2197 275.43 72.5051 274.303C69.2879 269.252 69.0531 265.581 71.7602 262.721C73.3623 261.025 72.3553 253.012 69.932 248.167C68.7333 245.769 68.8154 245.795 67.6758 247.5C54.5565 267.134 27.7906 252.11 28.3332 225.416C28.416 221.343 28.416 221.343 27.2803 220.442C25.9551 219.393 26.1101 219.439 25.6433 219.942ZM195.772 220.454C194.676 221.343 194.676 221.343 194.758 225.416C195.301 252.11 168.535 267.134 155.416 247.5C154.276 245.795 154.358 245.769 153.16 248.167C150.736 253.012 149.729 261.025 151.333 262.721C154.039 265.581 153.804 269.252 150.588 274.303C149.872 275.43 148.633 277.627 147.833 279.191C144.752 285.234 139.476 294.835 137.937 297.2C136.992 298.654 136.728 298.585 142.253 298.327C153.778 297.797 158.571 296.747 167.919 292.695C201.717 278.055 215.461 246.954 199.063 222.218C197.036 219.159 197.236 219.269 195.772 220.454ZM32.8847 224.742C31.142 230.463 34.5923 241.241 39.9346 246.772C41.5936 248.487 41.6933 248.497 41.0303 246.89C38.3665 240.417 39.3432 232.391 43.1048 229.844C43.8005 229.371 42.5302 228.58 37.6401 226.444C36.5029 225.947 35.0281 225.271 34.363 224.941C32.9272 224.231 33.0366 224.246 32.8847 224.742ZM188.957 224.824C188.463 225.078 186.926 225.791 185.542 226.409C180.198 228.783 179.27 229.358 179.985 229.841C183.749 232.391 184.726 240.413 182.062 246.89C181.398 248.497 181.499 248.487 183.157 246.772C188.499 241.241 191.95 230.463 190.207 224.742C190.058 224.254 190.065 224.254 188.957 224.824ZM109.418 235.733C102.537 236.949 96.097 244.322 91.102 256.7C88.5994 262.908 87.297 263.806 78.9984 265.054C73.5381 265.876 73.1779 267.19 76.931 272.604C79.6439 276.522 82.9575 281.929 86.4585 288.151C92.7141 299.277 95.0222 302.966 98.2033 306.928C109.176 320.599 118.552 318.358 130.186 299.282C132.477 295.526 132.762 295.035 136.633 288.151C140.134 281.929 143.448 276.522 146.161 272.604C149.914 267.19 149.554 265.876 144.093 265.054C135.795 263.806 134.494 262.908 131.99 256.7C125.969 241.779 117.852 234.238 109.418 235.733ZM91.1365 265.162C89.4567 266.026 88.8501 267.689 89.6324 269.286C90.2534 270.553 91.9606 271.185 93.0124 270.537C93.302 270.36 93.5195 270.423 94.4041 270.959C97.5622 272.868 98.7666 272.499 97.7855 269.917C96.2871 265.981 93.4633 263.961 91.1365 265.162ZM128.863 265.241C126.936 266.209 124.471 270.35 125.076 271.607C125.512 272.512 126.371 272.359 128.688 270.959C129.572 270.423 129.79 270.36 130.079 270.537C131.131 271.185 132.838 270.553 133.459 269.286C134.799 266.552 131.694 263.816 128.863 265.241Z"
        fill="#22110C" />
    <mask id="mask0_1644_3597" style="mask-type:luminance" maskUnits="userSpaceOnUse" x="0" y="0" width="220"
        height="328">
        <path d="M219.563 0.981689H0.492676V328H219.563V0.981689Z" fill="white" />
        <path clipRule="evenodd" clipRule="evenodd"
            d="M107.32 10.7249C66.1575 14.7799 64.7081 75.7158 105.612 82.5348C107.466 82.8431 108.052 83.0059 108.096 83.2206C108.126 83.3762 107.977 86.4492 107.764 90.0496C107.552 93.65 107.284 100.73 107.169 105.782C107.054 110.835 106.92 114.999 106.871 115.035C106.822 115.071 106.153 115.408 105.386 115.785C103.948 116.493 102.056 118.043 101.295 119.141C100.869 119.756 100.869 119.756 98.2511 119.842C94.1162 119.978 91.5964 120.988 89.3085 123.428C88.6746 124.104 88.0925 124.584 88.0162 124.494C87.9384 124.405 85.554 120.891 82.7143 116.687C79.8761 112.482 76.6517 107.747 75.551 106.166L73.5499 103.288L74.724 101.986C96.6274 77.7199 66.0005 41.1716 39.9575 60.4975C14.0351 79.7326 37.2687 120.084 67.0738 107.59C67.1963 107.54 69.4106 110.308 72.3108 114.139C75.0741 117.789 78.5261 122.29 79.9813 124.14C81.4364 125.991 82.7503 127.69 82.9002 127.918C83.2099 128.383 83.3079 128.315 81.641 128.772C77.0191 130.043 72.6609 133.879 71.7965 137.439C71.6827 137.906 71.4968 138.292 71.383 138.295C63.5714 138.503 57.5938 144.304 57.5088 151.76C57.4814 154.296 57.4814 154.296 56.4167 154.927C46.7346 160.674 33.5987 179.951 32.6608 189.791C32.5225 191.245 32.5771 191.197 30.6609 191.524C26.3376 192.262 23.812 193.824 21.1488 197.402C17.7765 201.936 17.4653 205.833 20.037 211.336C20.9079 213.201 20.9557 212.87 19.5198 214.894C4.33669 236.282 7.49952 261.381 27.927 281.598C41.2871 294.824 60.0416 302.887 81.0661 304.441C89.0953 305.035 90.0145 305.34 92.0819 308.062C105.678 325.968 117.414 325.968 131.01 308.062C133.078 305.34 133.997 305.035 142.026 304.441C173.453 302.117 199.746 284.89 209.602 260.168C215.885 244.41 213.891 229.45 203.568 214.88C202.136 212.858 202.185 213.197 203.055 211.336C205.627 205.833 205.316 201.936 201.944 197.402C199.281 193.824 196.755 192.262 192.431 191.524C190.515 191.197 190.57 191.245 190.432 189.791C190.125 186.564 186.67 178.284 183.375 172.871C179.325 166.219 171.457 157.765 166.675 154.927C165.611 154.296 165.611 154.296 165.582 151.76C165.498 144.304 159.521 138.503 151.709 138.295C151.595 138.292 151.41 137.906 151.296 137.439C150.431 133.879 146.073 130.043 141.451 128.772C139.784 128.315 139.884 128.383 140.192 127.918C140.342 127.69 141.656 125.991 143.111 124.14C144.566 122.29 148.018 117.789 150.781 114.139C153.682 110.308 155.896 107.54 156.018 107.59C185.824 120.084 209.057 79.7326 183.134 60.4975C157.092 41.1716 126.465 77.7199 148.368 101.986L149.542 103.288L147.541 106.166C146.44 107.747 143.216 112.482 140.378 116.687C137.54 120.891 135.154 124.405 135.076 124.494C135 124.584 134.419 124.104 133.784 123.428C131.496 120.988 128.976 119.978 124.841 119.842C122.223 119.756 122.223 119.756 121.803 119.149C120.7 117.56 118.163 115.755 116.109 115.099C115.188 114.807 115.188 114.807 115.21 104.012C115.223 98.0759 115.193 90.9054 115.142 88.0801L115.053 82.9411L117.48 82.5348C163.486 74.8514 153.765 6.14983 107.32 10.7249ZM106.189 19.6187C90.4063 22.4699 80.0346 37.0628 82.8656 51.345C83.0687 52.3749 83.3425 53.4033 83.6868 54.4262C91.9335 78.8998 131.159 78.8998 139.405 54.4262C139.754 53.3918 140.029 52.3578 140.235 51.3262C143.849 33.2373 126.149 16.0133 106.189 19.6187ZM53.1953 64.422C41.539 66.5773 34.6403 78.4042 37.5147 88.4317C38.0674 90.3594 38.9811 92.2208 40.2917 93.9352C49.5648 106.057 66.2627 104.834 73.1421 91.5292C73.7444 90.3637 74.2039 89.178 74.5324 87.9836C78.0089 75.3614 66.7784 61.9108 53.1953 64.422ZM163.631 64.4321C152.005 66.5096 145.978 77.8553 148.574 87.9663C149.441 91.3463 151.273 94.5864 154.18 97.2979C162.541 105.097 175.421 103.582 182.8 93.9352C184.113 92.2193 185.022 90.3839 185.575 88.4979C189.159 76.2676 177.73 61.9137 163.631 64.4321ZM109.59 120.875C103.9 121.88 102.062 127.145 105.089 133.774C105.991 135.747 105.991 135.747 107.374 135.761C108.617 135.774 108.899 135.847 110.151 136.48C111.546 137.184 111.546 137.184 112.941 136.48C114.193 135.847 114.475 135.774 115.718 135.761C117.102 135.747 117.102 135.747 118.002 133.774C121.716 125.636 117.681 119.449 109.59 120.875ZM94.9936 126.085C90.3314 127.328 88.9872 132.985 91.9436 138.912C93.1682 141.365 92.9262 141.172 94.4072 140.867C95.3682 140.67 95.8984 140.648 96.5568 140.782C98.7179 141.223 98.4528 141.293 99.3676 140.024C99.8244 139.393 100.581 138.556 101.05 138.164C101.906 137.451 101.906 137.451 101.341 136.581C99.8028 134.208 99.1559 131.93 99.0089 128.377C98.8994 125.702 98.1142 125.254 94.9936 126.085ZM124.083 128.356C123.936 131.931 123.292 134.204 121.751 136.581C121.186 137.451 121.186 137.451 122.042 138.164C122.511 138.556 123.269 139.393 123.725 140.024C124.639 141.293 124.376 141.223 126.535 140.782C127.194 140.648 127.724 140.67 128.685 140.867C130.166 141.172 129.924 141.365 131.149 138.912C134.605 131.985 132.344 126.133 126.116 125.879L124.188 125.8L124.083 128.356ZM82.236 133.057C75.2686 134.859 72.792 143.199 77.5003 149.001C78.6227 150.384 78.5477 150.361 79.6701 149.69C81.4148 148.648 83.3814 148.313 85.6736 148.666C86.5049 148.794 86.5049 148.794 86.7152 147.968C87.0696 146.578 88.1098 144.767 89.2393 143.573C90.3127 142.439 90.3127 142.439 89.5808 141.475C87.9845 139.376 86.5654 135.362 86.5524 132.911C86.551 132.679 83.2675 132.79 82.236 133.057ZM136.54 132.911C136.527 135.362 135.108 139.376 133.511 141.475C132.78 142.439 132.78 142.439 133.853 143.573C134.982 144.767 136.023 146.578 136.377 147.968C136.587 148.794 136.587 148.794 137.419 148.666C139.711 148.313 141.677 148.648 143.422 149.69C144.544 150.361 144.47 150.384 145.592 149.001C149.516 144.166 148.345 136.46 143.318 134.028C141.159 132.982 136.544 132.223 136.54 132.911ZM104.574 141.396C99.6803 143.649 99.2351 149.142 103.441 155.421C104.733 157.352 104.733 157.352 105.237 156.566C107.915 152.39 115.177 152.39 117.855 156.566C118.584 157.703 121.517 153.372 122.264 150.06C123.593 144.147 117.76 138.134 114.464 142.019C113.762 142.845 112.9 144.362 112.559 145.371C111.901 147.323 111.192 147.323 110.533 145.371C110.006 143.809 108.895 142.126 107.881 141.352C107.159 140.802 105.826 140.819 104.574 141.396ZM69.8285 142.596C60.9363 143.751 59.3126 156.388 67.3605 161.792C69.0735 162.942 73.9633 164.972 73.9633 164.531C73.9633 164.505 73.802 163.857 73.6046 163.092C72.7603 159.831 73.6421 155.727 75.7369 153.158C76.2973 152.469 76.2973 152.469 74.8883 150.995C72.7978 148.812 71.6668 146.466 71.3556 143.668C71.2087 142.347 71.2908 142.406 69.8285 142.596ZM151.909 142.629C151.873 142.735 151.76 143.403 151.654 144.111C151.238 146.918 150.235 148.899 148.129 151.079C146.791 152.463 146.791 152.463 147.354 153.155C149.45 155.727 150.332 159.83 149.488 163.092C149.29 163.857 149.129 164.505 149.129 164.531C149.129 164.972 154.019 162.942 155.732 161.792C162.862 157.004 162.738 146.581 155.511 143.25C154.32 142.701 152.015 142.303 151.909 142.629ZM94.3914 144.888C88.7365 145.693 87.5825 154.872 92.3629 161.038C92.7763 161.573 93.1697 162.087 93.2359 162.184C93.308 162.288 93.6379 162.168 94.0456 161.89C96.3493 160.318 99.1371 159.977 103.347 160.75C103.487 160.776 104.25 158.898 104.128 158.828C99.5492 156.212 96.9357 151.569 97.1994 146.515C97.2757 145.049 97.2757 145.049 96.6332 144.943C96.2802 144.885 95.8696 144.814 95.7226 144.787C95.5742 144.76 94.9749 144.806 94.3914 144.888ZM127.28 144.79C127.181 144.817 126.812 144.886 126.459 144.944C125.816 145.049 125.816 145.049 125.893 146.515C126.157 151.569 123.543 156.212 118.964 158.828C118.842 158.898 119.606 160.776 119.745 160.75C123.955 159.977 126.743 160.318 129.047 161.89C129.454 162.168 129.784 162.288 129.856 162.184C129.923 162.087 130.316 161.573 130.729 161.038C134.243 156.507 134.67 148.825 131.561 146.118C130.598 145.281 128.212 144.541 127.28 144.79ZM82.9189 152.228C75.9876 154.074 75.502 163.544 82.0285 169.608C86.7455 173.991 82.138 172.962 77.0004 168.487C75.6087 167.272 75.6087 167.272 74.5468 167.382C70.2103 167.83 63.5325 164.039 59.971 159.109C59.1484 157.971 59.1484 157.971 58.6268 158.576C51.2221 167.134 47.0081 174.797 42.2092 188.427C41.0215 191.802 41.0096 191.539 42.3606 191.792C65.4184 196.12 80.6325 220.411 81.1065 253.653C81.2102 260.914 81.0272 260.479 83.5816 259.532C85.1405 258.954 85.456 258.516 86.731 255.16C92.5602 239.803 97.4688 233.713 105.692 231.634C107.394 231.206 107.344 231.238 107.489 230.471C107.818 228.738 109.667 224.206 110.333 223.497C111.939 221.792 114.632 225.355 115.603 230.471C115.749 231.238 115.698 231.206 117.4 231.634C125.623 233.713 130.532 239.803 136.361 255.16C137.636 258.516 137.952 258.954 139.511 259.532C142.065 260.479 141.882 260.914 141.986 253.653C142.46 220.409 157.672 196.12 180.731 191.792C182.083 191.539 182.071 191.802 180.882 188.427C176.085 174.797 171.871 167.134 164.465 158.576C163.944 157.971 163.944 157.971 163.121 159.109C159.56 164.039 152.882 167.83 148.545 167.382C147.484 167.272 147.484 167.272 146.092 168.487C140.954 172.962 136.347 173.991 141.064 169.608C145.772 165.232 146.961 160.716 144.612 156.123C142.751 152.482 137.009 150.301 136.645 153.094C136.061 157.565 134.274 161.002 131.582 162.834C130.799 163.368 130.799 163.368 131.467 164.562C133.004 167.314 132.245 170.889 129.551 173.581C127.27 175.861 125.439 176.01 127.531 173.747C130.276 170.778 130.084 167.159 127.138 166.293C125.374 165.776 119.817 165.995 119.817 166.582C119.817 167.918 118.032 172.025 116.97 173.128C115.655 174.495 115.38 173.901 116.286 171.654C119.061 164.767 116.749 158.203 111.546 158.203C106.344 158.203 104.031 164.767 106.806 171.654C107.712 173.901 107.437 174.495 106.122 173.128C105.061 172.025 103.275 167.918 103.275 166.582C103.275 165.995 97.718 165.776 95.9546 166.293C93.0083 167.159 92.8167 170.778 95.5613 173.747C97.6532 176.01 95.822 175.861 93.5414 173.581C90.8472 170.889 90.0879 167.314 91.6252 164.562C92.2937 163.368 92.2937 163.368 91.5099 162.834C88.8201 161.005 87.0307 157.563 86.4487 153.106C86.3536 152.373 86.2513 152.168 85.9459 152.086C85.3134 151.919 83.8194 151.989 82.9189 152.228ZM33.3513 196.243C22.7408 197.91 24.3364 209.466 36.5146 219.149C40.3803 222.223 40.4505 222.265 46.6315 225.414C69.4164 237.022 75.4026 244.155 75.4026 259.707C75.4026 260.777 76.1705 261.104 77.2453 260.492C77.4398 260.379 77.4081 252.941 77.1978 248.966C76.2094 230.297 68.6442 212.847 57.8013 204.221C50.6288 198.513 40.3184 195.149 33.3513 196.243ZM184.283 196.185C164.607 198.255 149.645 216.872 146.347 243.387C145.822 247.607 145.452 260.266 145.847 260.492C146.922 261.104 147.69 260.777 147.69 259.707C147.69 244.152 153.671 237.025 176.461 225.414C182.642 222.265 182.712 222.223 186.578 219.149C201.172 207.545 199.873 194.543 184.283 196.185ZM25.6436 219.941C17.3666 228.862 14.9273 247.29 20.2837 260.434C27.8016 278.887 52.4003 296.04 74.0541 297.933C83.8669 298.791 86.0942 298.644 85.1549 297.2C83.6162 294.834 78.3403 285.233 75.2586 279.191C74.459 277.626 73.2199 275.429 72.5053 274.303C69.2882 269.251 69.0534 265.58 71.7605 262.721C73.3626 261.025 72.3555 253.012 69.9322 248.166C68.7335 245.769 68.8156 245.795 67.676 247.499C54.5568 267.133 27.7908 252.11 28.3334 225.416C28.4163 221.343 28.4163 221.343 27.2805 220.441C25.9554 219.392 26.1104 219.438 25.6436 219.941ZM195.772 220.454C194.676 221.343 194.676 221.343 194.758 225.416C195.301 252.11 168.535 267.133 155.416 247.499C154.277 245.795 154.359 245.769 153.16 248.166C150.737 253.012 149.73 261.025 151.333 262.721C154.039 265.58 153.804 269.251 150.588 274.303C149.872 275.429 148.633 277.626 147.834 279.191C144.752 285.233 139.476 294.834 137.937 297.2C136.992 298.654 136.729 298.585 142.254 298.327C153.778 297.796 158.571 296.746 167.919 292.695C201.717 278.054 215.461 246.953 199.063 222.217C197.036 219.159 197.236 219.268 195.772 220.454ZM32.885 224.742C31.1423 230.463 34.5925 241.241 39.9348 246.772C41.5938 248.486 41.6936 248.496 41.0305 246.89C38.3668 240.417 39.3434 232.39 43.105 229.843C43.8008 229.371 42.5305 228.58 37.6404 226.443C36.5032 225.946 35.0283 225.27 34.3633 224.94C32.9275 224.23 33.0368 224.246 32.885 224.742ZM188.958 224.824C188.464 225.077 186.926 225.79 185.542 226.408C180.198 228.783 179.27 229.358 179.985 229.84C183.749 232.39 184.726 240.412 182.062 246.89C181.398 248.496 181.499 248.486 183.157 246.772C188.5 241.241 191.95 230.463 190.207 224.742C190.058 224.253 190.066 224.253 188.958 224.824ZM109.418 235.733C102.537 236.949 96.0972 244.321 91.1022 256.7C88.5997 262.908 87.2973 263.805 78.9987 265.053C73.5383 265.876 73.1781 267.19 76.9312 272.604C79.6441 276.521 82.9578 281.928 86.4587 288.151C92.7144 299.276 95.0224 302.966 98.2035 306.928C109.176 320.599 118.552 318.357 130.186 299.282C132.477 295.526 132.762 295.035 136.633 288.151C140.134 281.928 143.448 276.521 146.161 272.604C149.914 267.19 149.554 265.876 144.094 265.053C135.795 263.805 134.494 262.908 131.99 256.7C125.969 241.778 117.852 234.237 109.418 235.733ZM91.1368 265.161C89.4569 266.026 88.8504 267.688 89.6327 269.286C90.2536 270.552 91.9609 271.185 93.0126 270.536C93.3022 270.359 93.5198 270.423 94.4044 270.959C97.5624 272.868 98.7669 272.499 97.7857 269.917C96.2874 265.981 93.4636 263.961 91.1368 265.161ZM128.864 265.24C126.936 266.209 124.471 270.349 125.076 271.607C125.512 272.512 126.371 272.359 128.688 270.959C129.572 270.423 129.79 270.359 130.08 270.536C131.131 271.185 132.839 270.552 133.46 269.286C134.799 266.551 131.695 263.815 128.864 265.24Z"
            fill="black" />
    </mask>
    <g mask="url(#mask0_1644_3597)">
        <path clipRule="evenodd" clipRule="evenodd"
            d="M107.32 10.7249C66.1575 14.7799 64.7081 75.7158 105.612 82.5348C107.466 82.8431 108.052 83.0059 108.096 83.2206C108.126 83.3762 107.977 86.4492 107.764 90.0496C107.552 93.65 107.284 100.73 107.169 105.782C107.054 110.835 106.92 114.999 106.871 115.035C106.822 115.071 106.153 115.408 105.386 115.785C103.948 116.493 102.056 118.043 101.295 119.141C100.869 119.756 100.869 119.756 98.2511 119.842C94.1162 119.978 91.5964 120.988 89.3085 123.428C88.6746 124.104 88.0925 124.584 88.0162 124.494C87.9384 124.405 85.554 120.891 82.7143 116.687C79.8761 112.482 76.6517 107.747 75.551 106.166L73.5499 103.288L74.724 101.986C96.6274 77.7199 66.0005 41.1716 39.9575 60.4975C14.0351 79.7326 37.2687 120.084 67.0738 107.59C67.1963 107.54 69.4106 110.308 72.3108 114.139C75.0741 117.789 78.5261 122.29 79.9813 124.14C81.4364 125.991 82.7503 127.69 82.9002 127.918C83.2099 128.383 83.3079 128.315 81.641 128.772C77.0191 130.043 72.6609 133.879 71.7965 137.439C71.6827 137.906 71.4968 138.292 71.383 138.295C63.5714 138.503 57.5938 144.304 57.5088 151.76C57.4815 154.296 57.4814 154.296 56.4167 154.927C46.7346 160.674 33.5987 179.951 32.6608 189.791C32.5225 191.245 32.5771 191.197 30.6609 191.524C26.3376 192.262 23.812 193.824 21.1488 197.402C17.7765 201.936 17.4653 205.833 20.037 211.336C20.9079 213.201 20.9557 212.87 19.5198 214.894C4.33669 236.282 7.49952 261.381 27.927 281.598C41.2871 294.824 60.0416 302.887 81.0661 304.441C89.0953 305.035 90.0145 305.34 92.0819 308.062C105.678 325.968 117.414 325.968 131.01 308.062C133.078 305.34 133.997 305.035 142.026 304.441C173.453 302.117 199.746 284.89 209.602 260.168C215.885 244.41 213.891 229.45 203.568 214.88C202.136 212.858 202.185 213.197 203.055 211.336C205.627 205.833 205.316 201.936 201.944 197.402C199.281 193.824 196.755 192.262 192.431 191.524C190.515 191.197 190.57 191.245 190.432 189.791C190.125 186.564 186.67 178.284 183.375 172.871C179.325 166.219 171.457 157.765 166.675 154.927C165.611 154.296 165.611 154.296 165.582 151.76C165.498 144.304 159.521 138.503 151.709 138.295C151.595 138.292 151.41 137.906 151.296 137.439C150.431 133.879 146.073 130.043 141.451 128.772C139.784 128.315 139.884 128.383 140.192 127.918C140.342 127.69 141.656 125.991 143.111 124.14C144.566 122.29 148.018 117.789 150.781 114.139C153.682 110.308 155.896 107.54 156.018 107.59C185.824 120.084 209.057 79.7326 183.134 60.4975C157.092 41.1716 126.465 77.7199 148.368 101.986L149.542 103.288L147.541 106.166C146.44 107.747 143.216 112.482 140.378 116.687C137.54 120.891 135.154 124.405 135.076 124.494C135 124.584 134.419 124.104 133.784 123.428C131.496 120.988 128.976 119.978 124.841 119.842C122.223 119.756 122.223 119.756 121.803 119.149C120.7 117.56 118.163 115.755 116.109 115.099C115.188 114.807 115.188 114.807 115.21 104.012C115.223 98.0759 115.193 90.9054 115.142 88.0801L115.053 82.9411L117.48 82.5348C163.486 74.8514 153.765 6.14983 107.32 10.7249ZM106.189 19.6187C90.4063 22.4699 80.0346 37.0628 82.8656 51.345C83.0687 52.3749 83.3425 53.4033 83.6868 54.4262C91.9335 78.8998 131.159 78.8998 139.405 54.4262C139.754 53.3918 140.029 52.3578 140.235 51.3262C143.849 33.2373 126.149 16.0133 106.189 19.6187ZM53.1953 64.422C41.539 66.5773 34.6403 78.4042 37.5147 88.4317C38.0674 90.3594 38.9811 92.2208 40.2917 93.9352C49.5648 106.057 66.2627 104.834 73.1421 91.5292C73.7444 90.3637 74.2039 89.178 74.5324 87.9836C78.0089 75.3614 66.7784 61.9108 53.1953 64.422ZM163.631 64.4321C152.005 66.5096 145.978 77.8553 148.574 87.9663C149.442 91.3463 151.273 94.5864 154.18 97.2979C162.541 105.097 175.421 103.582 182.8 93.9352C184.113 92.2193 185.022 90.3839 185.575 88.4979C189.159 76.2676 177.73 61.9137 163.631 64.4321ZM109.59 120.875C103.9 121.88 102.062 127.145 105.089 133.774C105.991 135.747 105.991 135.747 107.374 135.761C108.617 135.774 108.899 135.847 110.151 136.48C111.546 137.184 111.546 137.184 112.941 136.48C114.193 135.847 114.475 135.774 115.718 135.761C117.102 135.747 117.102 135.747 118.002 133.774C121.716 125.636 117.681 119.449 109.59 120.875ZM94.9936 126.085C90.3314 127.328 88.9872 132.985 91.9436 138.912C93.1682 141.365 92.9262 141.172 94.4072 140.867C95.3682 140.67 95.8984 140.648 96.5568 140.782C98.7179 141.223 98.4528 141.293 99.3676 140.024C99.8244 139.393 100.581 138.556 101.05 138.164C101.906 137.451 101.906 137.451 101.341 136.581C99.8028 134.208 99.1559 131.93 99.0089 128.377C98.8994 125.702 98.1142 125.254 94.9936 126.085ZM124.083 128.356C123.936 131.931 123.292 134.204 121.751 136.581C121.186 137.451 121.186 137.451 122.042 138.164C122.511 138.556 123.269 139.393 123.725 140.024C124.639 141.293 124.376 141.223 126.535 140.782C127.194 140.648 127.724 140.67 128.685 140.867C130.166 141.172 129.924 141.365 131.149 138.912C134.605 131.985 132.344 126.133 126.116 125.879L124.188 125.8L124.083 128.356ZM82.236 133.057C75.2686 134.859 72.792 143.199 77.5003 149.001C78.6227 150.384 78.5477 150.361 79.6701 149.69C81.4148 148.648 83.3814 148.313 85.6736 148.666C86.5049 148.794 86.5049 148.794 86.7152 147.968C87.0696 146.578 88.1098 144.767 89.2394 143.573C90.3127 142.439 90.3127 142.439 89.5808 141.475C87.9845 139.376 86.5654 135.362 86.5524 132.911C86.551 132.679 83.2675 132.79 82.236 133.057ZM136.54 132.911C136.527 135.362 135.108 139.376 133.511 141.475C132.78 142.439 132.78 142.439 133.853 143.573C134.982 144.767 136.023 146.578 136.377 147.968C136.587 148.794 136.587 148.794 137.419 148.666C139.711 148.313 141.677 148.648 143.422 149.69C144.544 150.361 144.47 150.384 145.592 149.001C149.516 144.166 148.345 136.46 143.318 134.028C141.159 132.982 136.544 132.223 136.54 132.911ZM104.574 141.396C99.6803 143.649 99.2351 149.142 103.441 155.421C104.733 157.352 104.733 157.352 105.237 156.566C107.915 152.39 115.177 152.39 117.855 156.566C118.584 157.703 121.517 153.372 122.264 150.06C123.593 144.147 117.76 138.134 114.464 142.019C113.762 142.845 112.9 144.362 112.559 145.371C111.901 147.323 111.192 147.323 110.533 145.371C110.006 143.809 108.895 142.126 107.881 141.352C107.159 140.802 105.826 140.819 104.574 141.396ZM69.8285 142.596C60.9363 143.751 59.3126 156.388 67.3605 161.792C69.0735 162.942 73.9633 164.972 73.9633 164.531C73.9633 164.505 73.802 163.857 73.6046 163.092C72.7603 159.831 73.6421 155.727 75.7369 153.158C76.2973 152.469 76.2973 152.469 74.8883 150.995C72.7978 148.812 71.6668 146.466 71.3556 143.668C71.2087 142.347 71.2908 142.406 69.8285 142.596ZM151.909 142.629C151.873 142.735 151.76 143.403 151.654 144.111C151.238 146.918 150.235 148.899 148.129 151.079C146.791 152.463 146.791 152.463 147.354 153.155C149.45 155.727 150.332 159.83 149.488 163.092C149.29 163.857 149.129 164.505 149.129 164.531C149.129 164.972 154.019 162.942 155.732 161.792C162.862 157.004 162.738 146.581 155.511 143.25C154.32 142.701 152.015 142.303 151.909 142.629ZM94.3914 144.888C88.7365 145.693 87.5825 154.872 92.3629 161.038C92.7763 161.573 93.1697 162.087 93.2359 162.184C93.308 162.288 93.6379 162.168 94.0456 161.89C96.3493 160.318 99.1371 159.977 103.347 160.75C103.487 160.776 104.25 158.898 104.128 158.828C99.5492 156.212 96.9357 151.569 97.1994 146.515C97.2757 145.049 97.2757 145.049 96.6332 144.943C96.2802 144.885 95.8696 144.814 95.7226 144.787C95.5742 144.76 94.9749 144.806 94.3914 144.888ZM127.28 144.79C127.181 144.817 126.812 144.886 126.459 144.944C125.816 145.049 125.816 145.049 125.893 146.515C126.157 151.569 123.543 156.212 118.964 158.828C118.842 158.898 119.606 160.776 119.745 160.75C123.955 159.977 126.743 160.318 129.047 161.89C129.454 162.168 129.784 162.288 129.856 162.184C129.923 162.087 130.316 161.573 130.729 161.038C134.243 156.507 134.67 148.825 131.561 146.118C130.598 145.281 128.212 144.541 127.28 144.79ZM82.9189 152.228C75.9876 154.074 75.502 163.544 82.0285 169.608C86.7455 173.991 82.138 172.962 77.0004 168.487C75.6087 167.272 75.6087 167.272 74.5468 167.382C70.2103 167.83 63.5325 164.039 59.971 159.109C59.1484 157.971 59.1484 157.971 58.6268 158.576C51.2221 167.134 47.0081 174.797 42.2092 188.427C41.0215 191.802 41.0096 191.539 42.3606 191.792C65.4184 196.12 80.6325 220.411 81.1065 253.653C81.2102 260.914 81.0272 260.479 83.5816 259.532C85.1405 258.954 85.456 258.516 86.7311 255.16C92.5602 239.803 97.4688 233.713 105.692 231.634C107.394 231.206 107.344 231.238 107.489 230.471C107.818 228.738 109.667 224.206 110.333 223.497C111.939 221.792 114.632 225.355 115.603 230.471C115.749 231.238 115.698 231.206 117.4 231.634C125.623 233.713 130.532 239.803 136.361 255.16C137.636 258.516 137.952 258.954 139.511 259.532C142.065 260.479 141.882 260.914 141.986 253.653C142.46 220.409 157.672 196.12 180.731 191.792C182.083 191.539 182.071 191.802 180.882 188.427C176.085 174.797 171.871 167.134 164.465 158.576C163.944 157.971 163.944 157.971 163.121 159.109C159.56 164.039 152.882 167.83 148.545 167.382C147.484 167.272 147.484 167.272 146.092 168.487C140.954 172.962 136.347 173.991 141.064 169.608C145.772 165.232 146.961 160.716 144.612 156.123C142.751 152.482 137.009 150.301 136.645 153.094C136.061 157.565 134.274 161.002 131.582 162.834C130.799 163.368 130.799 163.368 131.467 164.562C133.004 167.314 132.245 170.889 129.551 173.581C127.27 175.861 125.439 176.01 127.531 173.747C130.276 170.778 130.084 167.159 127.138 166.293C125.374 165.776 119.817 165.995 119.817 166.582C119.817 167.918 118.032 172.025 116.97 173.128C115.655 174.495 115.38 173.901 116.286 171.654C119.061 164.767 116.749 158.203 111.546 158.203C106.344 158.203 104.031 164.767 106.806 171.654C107.712 173.901 107.437 174.495 106.122 173.128C105.061 172.025 103.275 167.918 103.275 166.582C103.275 165.995 97.718 165.776 95.9546 166.293C93.0083 167.159 92.8167 170.778 95.5613 173.747C97.6532 176.01 95.822 175.861 93.5414 173.581C90.8472 170.889 90.0879 167.314 91.6252 164.562C92.2937 163.368 92.2937 163.368 91.5099 162.834C88.8201 161.005 87.0307 157.563 86.4487 153.106C86.3536 152.373 86.2513 152.168 85.9459 152.086C85.3134 151.919 83.8194 151.989 82.9189 152.228ZM33.3513 196.243C22.7408 197.91 24.3364 209.466 36.5146 219.149C40.3803 222.223 40.4505 222.265 46.6315 225.414C69.4164 237.022 75.4026 244.155 75.4026 259.707C75.4026 260.777 76.1705 261.104 77.2453 260.492C77.4398 260.379 77.4081 252.941 77.1978 248.966C76.2094 230.297 68.6442 212.847 57.8013 204.221C50.6288 198.513 40.3184 195.149 33.3513 196.243ZM184.283 196.185C164.607 198.255 149.645 216.872 146.347 243.387C145.822 247.607 145.452 260.266 145.847 260.492C146.922 261.104 147.69 260.777 147.69 259.707C147.69 244.152 153.671 237.025 176.461 225.414C182.642 222.265 182.712 222.223 186.578 219.149C201.172 207.545 199.873 194.543 184.283 196.185ZM25.6436 219.941C17.3666 228.862 14.9273 247.29 20.2837 260.434C27.8016 278.887 52.4003 296.04 74.0541 297.933C83.8669 298.791 86.0942 298.644 85.1549 297.2C83.6162 294.834 78.3403 285.233 75.2586 279.191C74.459 277.626 73.2199 275.429 72.5053 274.303C69.2882 269.251 69.0534 265.58 71.7605 262.721C73.3626 261.025 72.3555 253.011 69.9322 248.166C68.7335 245.769 68.8156 245.795 67.676 247.499C54.5568 267.133 27.7908 252.11 28.3334 225.416C28.4163 221.343 28.4163 221.343 27.2805 220.441C25.9554 219.392 26.1104 219.438 25.6436 219.941ZM195.772 220.454C194.676 221.343 194.676 221.343 194.758 225.416C195.301 252.11 168.535 267.133 155.416 247.499C154.277 245.795 154.359 245.769 153.16 248.166C150.737 253.011 149.73 261.025 151.333 262.721C154.039 265.58 153.804 269.251 150.588 274.303C149.872 275.429 148.633 277.626 147.834 279.191C144.752 285.233 139.476 294.834 137.937 297.2C136.992 298.654 136.729 298.585 142.254 298.327C153.778 297.796 158.571 296.746 167.919 292.695C201.717 278.054 215.461 246.953 199.063 222.217C197.036 219.159 197.236 219.268 195.772 220.454ZM32.885 224.742C31.1423 230.463 34.5925 241.241 39.9348 246.772C41.5938 248.486 41.6936 248.496 41.0305 246.89C38.3668 240.417 39.3434 232.39 43.105 229.843C43.8007 229.371 42.5305 228.58 37.6404 226.443C36.5032 225.946 35.0283 225.27 34.3633 224.94C32.9275 224.23 33.0368 224.246 32.885 224.742ZM188.958 224.824C188.464 225.077 186.926 225.79 185.542 226.408C180.198 228.783 179.27 229.358 179.985 229.84C183.749 232.39 184.726 240.412 182.062 246.89C181.398 248.496 181.499 248.486 183.157 246.772C188.5 241.241 191.95 230.463 190.207 224.742C190.058 224.253 190.066 224.253 188.958 224.824ZM109.418 235.733C102.537 236.949 96.0972 244.321 91.1022 256.7C88.5997 262.908 87.2973 263.805 78.9987 265.053C73.5383 265.876 73.1781 267.19 76.9312 272.604C79.6441 276.521 82.9578 281.928 86.4588 288.151C92.7144 299.276 95.0224 302.966 98.2035 306.928C109.176 320.599 118.552 318.357 130.186 299.282C132.477 295.526 132.762 295.035 136.633 288.151C140.134 281.928 143.448 276.521 146.161 272.604C149.914 267.19 149.554 265.876 144.094 265.053C135.795 263.805 134.494 262.908 131.99 256.7C125.969 241.778 117.852 234.237 109.418 235.733ZM91.1368 265.161C89.4569 266.026 88.8504 267.688 89.6327 269.286C90.2536 270.552 91.9609 271.185 93.0126 270.536C93.3022 270.359 93.5198 270.423 94.4044 270.959C97.5624 272.868 98.7669 272.499 97.7857 269.917C96.2874 265.981 93.4636 263.961 91.1368 265.161ZM128.864 265.24C126.936 266.209 124.471 270.349 125.076 271.607C125.512 272.512 126.371 272.359 128.688 270.959C129.572 270.423 129.79 270.359 130.08 270.536C131.131 271.185 132.839 270.552 133.46 269.286C134.799 266.551 131.695 263.815 128.864 265.24Z"
            stroke="white" stroke-width="8" />
    </g>
    <path
        d="M127.28 144.79C127.181 144.818 126.812 144.887 126.459 144.944C125.816 145.05 125.817 145.05 125.893 146.515C126.157 151.569 123.543 156.212 118.964 158.829C118.842 158.898 119.606 160.777 119.745 160.751C123.955 159.977 126.743 160.318 129.047 161.89C129.454 162.168 129.784 162.288 129.856 162.184C129.923 162.088 130.316 161.573 130.729 161.04C134.243 156.508 134.67 148.826 131.559 146.119C130.598 145.282 128.212 144.541 127.28 144.79Z"
        fill="#2430F0" />
    <path
        d="M151.909 142.629C151.873 142.736 151.76 143.403 151.654 144.112C151.238 146.918 150.235 148.899 148.129 151.079C146.791 152.463 146.791 152.463 147.354 153.155C149.45 155.728 150.332 159.83 149.488 163.092C149.29 163.857 149.129 164.505 149.129 164.531C149.129 164.972 154.019 162.942 155.732 161.792C162.862 157.005 162.738 146.582 155.511 143.25C154.32 142.701 152.015 142.303 151.909 142.629Z"
        fill="#2430F0" />
    <path
        d="M136.54 132.911C136.527 135.362 135.108 139.376 133.511 141.475C132.779 142.439 132.779 142.439 133.853 143.573C134.982 144.767 136.022 146.579 136.377 147.968C136.587 148.794 136.587 148.794 137.418 148.667C139.711 148.313 141.677 148.648 143.422 149.69C144.544 150.361 144.469 150.384 145.592 149.001C149.516 144.166 148.345 136.461 143.318 134.028C141.159 132.982 136.544 132.223 136.54 132.911Z"
        fill="#2430F0" />
    <path
        d="M124.083 128.356C123.936 131.932 123.292 134.204 121.75 136.581C121.186 137.451 121.186 137.451 122.042 138.164C122.511 138.556 123.268 139.393 123.724 140.024C124.639 141.294 124.374 141.223 126.535 140.782C127.194 140.648 127.724 140.668 128.685 140.867C130.166 141.173 129.924 141.366 131.147 138.912C134.605 131.985 132.344 126.133 126.114 125.879L124.188 125.8L124.083 128.356Z"
        fill="#2430F0" />
    <path
        d="M109.589 120.876C103.899 121.88 102.062 127.146 105.089 133.774C105.991 135.747 105.991 135.747 107.374 135.761C108.617 135.774 108.899 135.848 110.151 136.48C111.546 137.185 111.546 137.185 112.941 136.48C114.193 135.848 114.475 135.774 115.718 135.761C117.101 135.747 117.101 135.747 118.002 133.774C121.716 125.636 117.681 119.449 109.589 120.876Z"
        fill="#2430F0" />
    <path
        d="M104.574 141.396C99.68 143.649 99.2348 149.143 103.44 155.421C104.733 157.352 104.733 157.352 105.237 156.567C107.915 152.39 115.176 152.39 117.855 156.567C118.584 157.704 121.517 153.373 122.263 150.06C123.593 144.148 117.76 138.134 114.463 142.02C113.762 142.845 112.9 144.362 112.559 145.371C111.9 147.323 111.191 147.323 110.533 145.371C110.006 143.809 108.895 142.126 107.881 141.353C107.159 140.802 105.826 140.82 104.574 141.396Z"
        fill="#2430F0" />
    <path
        d="M94.3911 144.888C88.7363 145.694 87.5823 154.873 92.3626 161.039C92.7761 161.573 93.1694 162.088 93.2357 162.184C93.3077 162.288 93.6376 162.168 94.0453 161.89C96.3491 160.318 99.1369 159.977 103.347 160.751C103.486 160.777 104.25 158.898 104.128 158.829C99.5489 156.212 96.9354 151.569 97.1991 146.515C97.2755 145.05 97.2755 145.05 96.6329 144.943C96.2799 144.885 95.8693 144.815 95.7223 144.787C95.5739 144.76 94.9746 144.806 94.3911 144.888Z"
        fill="#2430F0" />
    <path
        d="M82.2359 133.057C75.2685 134.859 72.7919 143.2 77.5002 149.001C78.6225 150.384 78.5476 150.361 79.6699 149.69C81.4146 148.648 83.3812 148.313 85.6734 148.666C86.5047 148.794 86.5047 148.794 86.7151 147.968C87.0695 146.579 88.1097 144.767 89.2392 143.573C90.3126 142.439 90.3126 142.439 89.5807 141.475C87.9843 139.376 86.5652 135.362 86.5523 132.911C86.5508 132.679 83.2674 132.79 82.2359 133.057Z"
        fill="#2430F0" />
    <path
        d="M94.9935 126.087C90.3313 127.329 88.9872 132.985 91.9435 138.912C93.1681 141.366 92.9261 141.173 94.4072 140.867C95.3681 140.67 95.8983 140.648 96.5567 140.782C98.7178 141.223 98.4527 141.294 99.3676 140.024C99.8228 139.393 100.581 138.556 101.05 138.164C101.906 137.451 101.906 137.451 101.341 136.581C99.8027 134.208 99.1558 131.93 99.0088 128.378C98.8993 125.702 98.1141 125.254 94.9935 126.087Z"
        fill="#2430F0" />
    <path
        d="M69.8284 142.596C60.9363 143.751 59.3126 156.388 67.3604 161.792C69.0735 162.942 73.9633 164.972 73.9633 164.531C73.9633 164.505 73.8019 163.857 73.6046 163.092C72.7603 159.831 73.642 155.727 75.7368 153.158C76.2973 152.469 76.2973 152.469 74.8882 150.995C72.7977 148.813 71.6668 146.466 71.3556 143.668C71.2072 142.347 71.2907 142.406 69.8284 142.596Z"
        fill="#2430F0" />
    <path
        d="M184.283 196.185C164.607 198.256 149.645 216.873 146.347 243.388C145.822 247.608 145.452 260.266 145.847 260.492C146.922 261.104 147.69 260.777 147.69 259.707C147.69 244.153 153.672 237.026 176.461 225.415C182.642 222.265 182.712 222.224 186.578 219.149C201.172 207.545 199.873 194.544 184.283 196.185Z"
        fill="#2BE1B7" />
    <path
        d="M195.772 220.454C194.676 221.343 194.676 221.343 194.758 225.416C195.301 252.11 168.535 267.134 155.416 247.5C154.276 245.795 154.359 245.769 153.16 248.167C150.737 253.012 149.73 261.025 151.332 262.721C154.039 265.581 153.804 269.252 150.587 274.303C149.872 275.43 148.633 277.627 147.833 279.191C144.752 285.234 139.476 294.835 137.937 297.2C136.992 298.654 136.728 298.585 142.254 298.327C153.778 297.797 158.571 296.746 167.919 292.695C201.717 278.055 215.461 246.954 199.063 222.218C197.036 219.159 197.236 219.269 195.772 220.454Z"
        fill="#2BE1B7" />
    <path
        d="M25.6435 219.941C17.3664 228.862 14.9271 247.291 20.2836 260.434C27.8014 278.887 52.4002 296.04 74.054 297.933C83.8668 298.791 86.0942 298.644 85.1548 297.2C83.6161 294.834 78.3402 285.233 75.2585 279.191C74.4589 277.626 73.2199 275.429 72.5038 274.303C69.2881 269.252 69.0533 265.581 71.759 262.721C73.3625 261.025 72.3554 253.012 69.9321 248.167C68.7334 245.769 68.8156 245.795 67.676 247.499C54.5567 267.134 27.7906 252.11 28.3332 225.416C28.4162 221.343 28.4162 221.343 27.2807 220.441C25.9553 219.392 26.1104 219.438 25.6435 219.941Z"
        fill="#2BE1B7" />
    <path
        d="M33.3512 196.243C22.7405 197.91 24.3363 209.466 36.5144 219.149C40.3802 222.223 40.4504 222.265 46.6314 225.415C69.4163 237.023 75.4025 244.156 75.4025 259.707C75.4025 260.777 76.1704 261.104 77.2452 260.492C77.4397 260.38 77.408 252.941 77.1976 248.966C76.2093 230.297 68.6441 212.847 57.8012 204.222C50.6285 198.513 40.3182 195.149 33.3512 196.243Z"
        fill="#2BE1B7" />
    <path
        d="M82.9202 152.229C75.9875 154.074 75.5019 163.544 82.0284 169.608C86.7454 173.991 82.1379 172.962 77.0003 168.487C75.6086 167.273 75.6086 167.273 74.5467 167.382C70.2102 167.83 63.5324 164.04 59.9709 159.11C59.1483 157.971 59.1483 157.971 58.6267 158.577C51.2223 167.134 47.0079 174.798 42.209 188.427C41.0212 191.803 41.0095 191.539 42.3608 191.792C65.4183 196.12 80.6338 220.411 81.1064 253.653C81.2101 260.914 81.0271 260.479 83.5815 259.533C85.1404 258.955 85.4559 258.517 86.731 255.16C92.5616 239.803 97.4687 233.713 105.692 231.634C107.394 231.206 107.343 231.238 107.489 230.472C107.817 228.738 109.667 224.206 110.333 223.497C111.939 221.793 114.632 225.356 115.603 230.472C115.749 231.238 115.698 231.206 117.4 231.634C125.623 233.713 130.532 239.803 136.361 255.16C137.636 258.517 137.952 258.955 139.51 259.533C142.065 260.479 141.882 260.914 141.986 253.653C142.46 220.41 157.672 196.12 180.731 191.792C182.082 191.539 182.071 191.803 180.882 188.427C176.085 174.798 171.871 167.134 164.467 158.577C163.944 157.971 163.944 157.971 163.121 159.11C159.56 164.04 152.882 167.83 148.545 167.382C147.485 167.273 147.485 167.273 146.092 168.487C140.954 172.962 136.347 173.991 141.064 169.608C145.772 165.233 146.96 160.716 144.612 156.123C142.751 152.482 137.009 150.301 136.645 153.095C136.061 157.565 134.273 161.003 131.582 162.834C130.798 163.368 130.798 163.368 131.467 164.563C133.004 167.315 132.245 170.889 129.551 173.582C127.27 175.861 125.439 176.011 127.531 173.747C130.275 170.778 130.084 167.159 127.138 166.293C125.374 165.776 119.817 165.995 119.817 166.583C119.817 167.918 118.032 172.026 116.97 173.128C115.656 174.495 115.38 173.902 116.286 171.654C119.061 164.767 116.748 158.203 111.546 158.203C106.344 158.203 104.031 164.767 106.806 171.654C107.712 173.902 107.437 174.495 106.122 173.128C105.061 172.026 103.275 167.918 103.275 166.583C103.275 165.995 97.7179 165.776 95.9545 166.293C93.0082 167.159 92.8166 170.778 95.5612 173.747C97.6531 176.011 95.8219 175.861 93.5413 173.582C90.8471 170.889 90.0879 167.315 91.6251 164.563C92.2936 163.368 92.2936 163.368 91.5098 162.834C88.8215 161.006 87.0306 157.564 86.4486 153.106C86.3535 152.373 86.2526 152.168 85.9458 152.086C85.3133 151.919 83.8193 151.99 82.9202 152.229Z"
        fill="#2430F0" />
    <path clipRule="evenodd" clipRule="evenodd"
        d="M109.418 235.733C102.537 236.949 96.0971 244.321 91.1021 256.7C88.5982 262.908 87.2972 263.806 78.9986 265.053C73.5383 265.876 73.1781 267.19 76.9312 272.604C79.644 276.522 82.9577 281.929 86.4587 288.151C92.7143 299.276 95.0223 302.966 98.2035 306.928C109.175 320.599 118.552 318.357 130.186 299.282C132.477 295.526 132.762 295.035 136.633 288.151C140.134 281.929 143.448 276.522 146.161 272.604C149.914 267.19 149.554 265.876 144.093 265.053C135.795 263.806 134.492 262.908 131.99 256.7C125.969 241.778 117.852 234.238 109.418 235.733ZM89.6326 269.286C88.8503 267.688 89.4568 266.026 91.1367 265.161C93.4635 263.961 96.2873 265.981 97.7857 269.917C98.7668 272.499 97.5623 272.868 94.4043 270.959C93.5197 270.423 93.3021 270.36 93.0125 270.537C91.9608 271.185 90.2535 270.553 89.6326 269.286ZM125.076 271.607C124.471 270.349 126.936 266.209 128.864 265.241C131.695 263.816 134.799 266.552 133.459 269.286C132.839 270.553 131.131 271.185 130.08 270.537C129.79 270.36 129.572 270.423 128.688 270.959C126.371 272.359 125.512 272.512 125.076 271.607Z"
        fill="#F2C79C" />
    <path clipRule="evenodd" clipRule="evenodd"
        d="M74.5325 87.9854C72.1395 79.0702 64.6866 72.0496 54.5597 73.9211C46.5248 75.4079 39.385 81.5123 37.5146 88.4321C38.0675 90.3598 38.9812 92.2212 40.2918 93.9356C49.5649 106.058 66.2627 104.835 73.1422 91.5296C73.7444 90.3641 74.204 89.1784 74.5325 87.9854Z"
        fill="#2430F0" />
    <path clipRule="evenodd" clipRule="evenodd"
        d="M83.6867 54.4264C83.3424 53.4035 83.0686 52.3749 82.8655 51.3449C84.9589 40.6288 95.3119 31.3297 107.555 29.1181C123.941 26.1584 137.436 37.2573 140.235 51.3264C140.029 52.358 139.754 53.392 139.405 54.4264C131.159 78.9 91.9334 78.9 83.6867 54.4264Z"
        fill="#2430F0" />
    <path
        d="M163.631 64.4325C152.004 66.51 145.978 77.8557 148.574 87.9667C150.291 81.191 157.004 75.3604 164.997 73.9312C175.475 72.0597 183.113 79.5298 185.575 88.4983C189.159 76.268 177.73 61.9141 163.631 64.4325Z"
        fill="#2430F0" />
    <path
        d="M82.864 51.3454C84.9588 40.6291 95.3118 31.33 107.555 29.1183C123.941 26.1591 137.436 37.258 140.235 51.3267C143.848 33.2379 126.149 16.0139 106.189 19.6193C90.4062 22.4704 80.0344 37.0636 82.864 51.3454Z"
        fill="#2430F0" />
    <path
        d="M54.5594 73.9209C64.6863 72.0494 72.1406 79.0701 74.5322 87.9838C78.0087 75.3616 66.7782 61.911 53.195 64.4222C41.5383 66.5775 34.6402 78.4045 37.5145 88.4319C39.3848 81.5121 46.5246 75.4077 54.5594 73.9209Z"
        fill="#2430F0" />
    <path
        d="M154.18 97.2983C162.54 105.097 175.42 103.583 182.8 93.9357C184.112 92.2198 185.021 90.3843 185.575 88.4984C183.112 79.5299 175.475 72.0597 164.997 73.9312C157.004 75.3604 150.291 81.191 148.574 87.9668C149.443 91.3453 151.272 94.5869 154.18 97.2983Z"
        fill="#2430F0" />
    <path clipRule="evenodd" clipRule="evenodd"
        d="M87.2108 41.6899C91.7851 35.4089 99.2408 30.6231 107.571 29.1182C120.036 26.8665 130.83 32.7522 136.512 41.8922C137.596 40.8143 138.587 39.7186 139.405 38.6455C135.178 26.1292 121.342 16.8851 106.205 19.619C95.7471 21.5081 87.666 28.5518 84.2256 37.2444C84.969 38.6627 86.0207 40.1847 87.2108 41.6899Z"
        fill="#F2C79C" />
    <path
        d="M87.2108 41.6898C91.2722 46.8246 96.9573 51.769 97.6431 51.769C98.1618 51.769 101.027 49.0156 104.005 46.157C107.221 43.0683 110.565 39.8567 111.219 39.8567C111.849 39.8567 114.546 42.8348 117.243 45.8128C119.94 48.7909 122.637 51.769 123.266 51.769C124.07 51.769 131.347 47.0311 136.512 41.8921C130.83 32.752 120.036 26.8664 107.571 29.1181C99.2409 30.6229 91.7851 35.4089 87.2108 41.6898Z"
        fill="#2BE1B7" />
    <path
        d="M37.6101 87.9308C39.6817 81.2184 46.6696 75.372 54.5105 73.9212C60.5053 72.8132 65.5637 74.8216 69.19 78.4955C69.8643 76.0333 70.3513 73.0927 70.2951 70.6233C66.225 65.9395 59.9838 63.1589 53.1447 64.4225C41.7641 66.5274 34.9189 77.8515 37.2777 87.719C37.3869 87.791 37.498 87.8616 37.6101 87.9308Z"
        fill="#2BE1B7" />
    <path
        d="M37.6104 87.9307C42.02 90.6839 48.0314 91.8869 49.6153 90.9735C50.8415 90.2661 51.4092 86.6989 51.5426 83.0264C51.6442 80.2343 51.7349 77.7347 52.2785 77.2751C52.8799 76.7651 55.793 78.4219 58.8805 80.1781C62.2648 82.1015 66.087 83.7799 67.0739 83.2209C67.7799 82.8233 68.4757 81.1117 69.1903 78.4954C65.564 74.8215 60.5056 72.8131 54.5108 73.9211C46.6699 75.3719 39.682 81.2183 37.6104 87.9307Z"
        fill="#2BE1B7" />
    <path clipRule="evenodd" clipRule="evenodd"
        d="M149.912 75.2378C150.182 77.1943 155.847 87.6843 157.375 88.0401C158.202 88.2317 161.033 86.2349 163.628 84.4052C165.824 82.8564 167.849 81.4272 168.344 81.5497C168.795 81.662 169.655 83.0005 170.66 84.5665C172.059 86.7464 173.742 89.367 174.997 89.7287C176.623 90.1969 183.101 86.8299 186.271 84.5709C186.76 73.4211 176.288 62.1805 163.68 64.4324C157.096 65.608 152.308 69.7573 149.865 74.9699C149.884 75.052 149.899 75.1413 149.912 75.2378Z"
        fill="#2BE1B7" />
    <path
        d="M188.958 224.824C188.463 225.078 186.926 225.791 185.542 226.409C180.198 228.783 179.27 229.358 179.985 229.841C183.748 232.391 184.726 240.413 182.061 246.89C181.398 248.497 181.499 248.486 183.157 246.772C188.499 241.241 191.95 230.463 190.207 224.742C190.057 224.253 190.065 224.253 188.958 224.824Z"
        fill="#F1F1F1" />
    <path
        d="M32.8848 224.742C31.1421 230.463 34.5924 241.241 39.9347 246.772C41.5937 248.486 41.6934 248.496 41.0304 246.89C38.3666 240.415 39.3433 232.39 43.1049 229.843C43.8006 229.371 42.5303 228.58 37.6402 226.443C36.5031 225.946 35.0282 225.27 34.3631 224.94C32.9273 224.23 33.0367 224.246 32.8848 224.742Z"
        fill="#F1F1F1" />
    <path
        d="M177.249 241.032C177.249 240.444 176.726 239.966 176.08 239.966C175.435 239.966 174.912 240.444 174.912 241.032C174.912 241.623 175.435 242.1 176.08 242.1C176.726 242.1 177.249 241.623 177.249 241.032Z"
        fill="#F1F1F1" />
    <path opacity="0.2" clipRule="evenodd" clipRule="evenodd"
        d="M138.633 56.4436C128.629 67.4608 108.744 73.5234 86.0235 59.4936C97.2583 78.1755 129.708 77.1584 138.633 56.4436ZM70.2735 95.7913C59.7433 100.147 45.4458 95.6875 38.4613 90.9389C38.9519 91.9748 39.5601 92.9775 40.2919 93.9356C48.4535 104.604 62.3654 104.936 70.2735 95.7913ZM184.428 91.3668C178.374 96.9971 166.115 100.998 151.796 94.6516C152.49 95.5766 153.284 96.4626 154.18 97.2982C162.54 105.097 175.421 103.583 182.8 93.9356C183.435 93.1043 183.977 92.2456 184.428 91.3668Z"
        fill="#22110C" />
    <path
        d="M82.8655 51.3454C84.9603 40.6291 95.3119 31.33 107.555 29.1187C123.941 26.1591 137.436 37.2577 140.235 51.3267C143.849 33.2379 126.149 16.0139 106.189 19.6193C90.4063 22.4704 80.0345 37.0636 82.8655 51.3454Z"
        fill="#2430F0" />
    <path clipRule="evenodd" clipRule="evenodd"
        d="M87.2108 41.6899C91.7851 35.4089 99.2408 30.6231 107.571 29.1184C120.036 26.8664 130.83 32.7522 136.512 41.8922C137.596 40.8143 138.587 39.719 139.405 38.6455C135.178 26.1292 121.342 16.8851 106.205 19.619C95.7471 21.5081 87.666 28.5518 84.2256 37.2441C84.969 38.6627 86.0207 40.1847 87.2108 41.6899Z"
        fill="#2BE1B7" />
    <g opacity="0.2">
        <g style="mix-blend-mode:hard-light">
            <path clipRule="evenodd" clipRule="evenodd"
                d="M118.756 124.733C117.442 121.695 114.164 120.07 109.59 120.876C106.888 121.353 105.056 122.79 104.198 124.878C106.001 123.406 109.191 122.924 111.571 122.875C113.87 122.923 116.926 123.374 118.756 124.733ZM98.7309 126.654C96.5021 126.992 92.4335 128.063 90.6657 130.53C91.255 128.327 92.736 126.689 94.9936 126.087C97.2541 125.483 98.29 125.552 98.7309 126.654ZM86.5784 133.496C86.5625 133.293 86.5524 133.097 86.5524 132.912C86.551 132.68 83.2676 132.79 82.236 133.057C78.7048 133.97 76.3276 136.564 75.4545 139.654C77.8159 136.352 82.213 133.6 86.5784 133.496ZM62.1638 151.484C63.2069 147.973 67.0954 144.312 70.2578 144.312C70.7044 144.312 71.0934 144.287 71.432 144.244C71.4018 144.054 71.3773 143.862 71.3557 143.668C71.3484 143.603 71.3412 143.541 71.334 143.482C71.2793 142.963 71.249 142.697 71.1006 142.577C70.9407 142.449 70.6454 142.488 70.0345 142.569C69.9682 142.577 69.9005 142.587 69.8285 142.596C65.0568 143.216 62.3785 147.143 62.1638 151.484ZM109.574 143.355C107.74 141.948 105.025 141.392 101.216 144.542C101.859 143.207 102.981 142.129 104.574 141.396C105.826 140.82 107.159 140.802 107.881 141.353C108.454 141.791 109.061 142.521 109.574 143.355ZM121.366 144.1C119.721 141.101 116.573 139.535 114.464 142.02C114.155 142.381 113.817 142.877 113.504 143.404C115.249 142.031 117.806 141.416 121.366 144.1ZM97.2296 145.881C97.257 145.047 97.1648 145.032 96.6332 144.943C96.2802 144.885 95.8696 144.815 95.7226 144.787C95.5742 144.76 94.9749 144.806 94.3914 144.888C91.6137 145.284 89.9223 147.701 89.4857 150.787C90.5865 147.255 94.7314 145.606 97.2296 145.881ZM136.747 152.69C137.612 150.539 142.85 152.677 144.612 156.123C145.102 157.08 145.438 158.035 145.621 158.984C144.271 155.233 140.019 153.514 136.747 152.69ZM119.813 166.707C119.816 166.663 119.817 166.622 119.817 166.583C119.817 165.996 125.374 165.776 127.138 166.293C127.973 166.539 128.587 167.005 128.975 167.616C127.289 166.143 123.619 166.417 119.813 166.707ZM107.041 160.625C108.064 159.118 109.604 158.203 111.546 158.203C113.452 158.203 114.971 159.084 115.992 160.54C114.72 159.558 112.975 159.053 111.571 158.922C110.126 159.056 108.323 159.587 107.041 160.625ZM94.0557 167.718C94.439 167.057 95.0729 166.552 95.9546 166.293C97.7181 165.776 103.275 165.996 103.275 166.583C103.275 166.62 103.276 166.661 103.279 166.702C99.4051 166.408 95.6809 166.138 94.0557 167.718ZM86.3824 152.693C83.0371 153.537 78.6745 155.316 77.4326 159.247C77.6329 155.93 79.4842 153.144 82.9189 152.229C83.8194 151.99 85.3134 151.919 85.9459 152.086C86.1836 152.15 86.2989 152.288 86.3824 152.693ZM132.474 130.529C131.713 127.808 129.5 126.016 126.115 125.879L124.189 125.8L124.154 126.617C126.312 126.909 130.636 127.965 132.474 130.529ZM147.583 139.511C146.956 137.134 145.501 135.084 143.318 134.028C141.159 132.982 136.544 132.223 136.54 132.912C136.54 133.097 136.53 133.292 136.514 133.495C140.833 133.579 145.19 136.261 147.583 139.511ZM160.992 151.531C159.969 148.007 156.06 144.312 152.883 144.312C152.404 144.312 151.992 144.283 151.636 144.234C151.642 144.194 151.649 144.152 151.654 144.112C151.76 143.403 151.873 142.736 151.91 142.629C152.015 142.304 154.32 142.701 155.511 143.25C158.978 144.848 160.809 148.075 160.992 151.531ZM133.55 150.48C133.314 148.646 132.657 147.072 131.561 146.119C130.598 145.282 128.212 144.541 127.28 144.79C127.181 144.818 126.812 144.887 126.459 144.944C125.926 145.032 125.835 145.047 125.863 145.885C128.283 145.593 132.304 147.137 133.55 150.48Z"
                fill="white" />
        </g>
    </g>
    <g style="mix-blend-mode:hard-light">
        <path clipRule="evenodd" clipRule="evenodd"
            d="M193.803 197.774C186.717 197.249 178.455 199.57 172.484 203.252C164.122 208.408 151.265 222.098 148.568 235.343C147.822 239.007 147.263 240.207 146.848 239.943C150.967 215.269 165.469 198.165 184.282 196.185C188.525 195.739 191.711 196.377 193.803 197.774Z"
            fill="white" fill-opacity="0.4" />
    </g>
    <g style="mix-blend-mode:hard-light">
        <path clipRule="evenodd" clipRule="evenodd"
            d="M28.9216 197.943C36.1907 197.148 44.8903 199.508 51.1062 203.341C59.4682 208.498 72.3252 222.187 75.0222 235.432C75.4458 237.511 75.8074 238.793 76.1186 239.47C73.5066 224.55 66.777 211.363 57.8013 204.222C50.6287 198.513 40.3183 195.149 33.3513 196.243C31.5102 196.532 30.0365 197.12 28.9216 197.943Z"
            fill="white" fill-opacity="0.4" />
    </g>
    <g style="mix-blend-mode:hard-light">
        <path clipRule="evenodd" clipRule="evenodd"
            d="M93.8165 250.741C99.6961 244.347 107.23 243.255 111.257 243.255C115.439 243.255 123.732 244.591 129.718 251.617C124.003 240.09 116.834 234.419 109.418 235.733C103.726 236.74 98.3361 241.96 93.8165 250.741Z"
            fill="white" fill-opacity="0.4" />
    </g>
    <path opacity="0.2" clipRule="evenodd" clipRule="evenodd"
        d="M190.663 228.187C187.975 229.332 184.964 230.498 181.712 231.663C181.227 230.911 180.649 230.292 179.985 229.841C179.27 229.358 180.199 228.783 185.542 226.409C186.926 225.791 188.463 225.079 188.959 224.824L188.978 224.814C189.663 224.46 189.914 224.33 190.044 224.406C190.117 224.45 190.15 224.559 190.205 224.735L190.207 224.742C190.515 225.752 190.661 226.92 190.663 228.187ZM32.433 227.894C35.15 229.11 38.1806 230.342 41.4397 231.574C41.9124 230.864 42.4689 230.273 43.1054 229.844C43.8012 229.371 42.5305 228.58 37.6408 226.444C36.5036 225.946 35.0287 225.271 34.3637 224.941C34.2709 224.896 34.1852 224.853 34.1049 224.814C33.381 224.454 33.1407 224.333 33.0286 224.408C32.9724 224.444 32.9486 224.527 32.912 224.654C32.9041 224.68 32.8956 224.71 32.8854 224.742C32.6018 225.674 32.4555 226.742 32.433 227.894Z"
        fill="#22110C" />
    <path opacity="0.2" clipRule="evenodd" clipRule="evenodd"
        d="M71.3138 272.232C70.7404 278.334 72.8553 285.154 73.8322 288.304C73.9978 288.84 74.1318 289.269 74.2125 289.57C74.9098 292.155 67.3374 296.241 39.5634 283.725C49.818 291.443 62.3654 296.911 74.054 297.934C83.8654 298.791 86.0942 298.644 85.1548 297.2C83.6161 294.835 78.3402 285.234 75.257 279.191C74.4589 277.626 73.2199 275.429 72.5038 274.303C72.0471 273.588 71.6509 272.895 71.3138 272.232Z"
        fill="#22110C" />
    <path opacity="0.2" clipRule="evenodd" clipRule="evenodd"
        d="M183.699 283.669C155.825 296.251 148.23 292.158 148.929 289.57C149.009 289.269 149.143 288.84 149.309 288.304C150.29 285.141 152.419 278.271 151.819 272.153C151.474 272.839 151.064 273.557 150.588 274.303C149.872 275.43 148.633 277.627 147.835 279.191C144.752 285.234 139.476 294.835 137.937 297.2C137.594 297.728 137.342 298.055 137.422 298.245C137.561 298.578 138.731 298.493 142.254 298.327C153.778 297.797 158.573 296.746 167.92 292.695C173.806 290.145 179.083 287.098 183.699 283.669Z"
        fill="#22110C" />
    <path opacity="0.2" clipRule="evenodd" clipRule="evenodd"
        d="M84.8855 285.389C90.9625 295.104 93.4247 298.604 96.747 302.341C108.899 316.025 119.286 313.78 132.172 294.689C134.585 291.118 134.99 290.495 138.712 284.513C138.03 285.688 137.335 286.904 136.633 288.151C132.762 295.035 132.477 295.526 130.186 299.282C118.552 318.358 109.175 320.599 98.2036 306.928C95.0224 302.966 92.7144 299.277 86.4588 288.151C85.93 287.212 85.4056 286.291 84.8855 285.389Z"
        fill="#22110C" />
    <path
        d="M111.435 218.632C109.188 218.632 106.311 234.454 105.053 234.454L102.445 236.854L111.435 234.454L121.775 237.477C120.666 236.469 118.286 234.454 117.639 234.454C116.831 234.454 113.683 218.632 111.435 218.632Z"
        fill="black" fill-opacity="0.2" />
    <path
        d="M96.5107 176.137C95.2515 176.137 91.0259 173.204 91.0259 168.847C91.6252 167.751 92.8239 166.039 92.8239 167.958C92.8239 170.359 95.5209 173.471 96.2413 174.182C96.9602 174.893 97.7685 176.137 96.5107 176.137Z"
        fill="black" fill-opacity="0.2" />
    <path
        d="M72.4145 168.848C67.2898 168.848 60.6365 162.181 57.2191 157.647L59.288 155.87L63.9632 162.536L74.5727 165.648L76.6401 162.269C77.1501 163.04 78.3488 164.902 79.0677 166.181C79.9667 167.782 82.305 169.026 84.1924 171.693C86.0812 174.36 78.8876 171.071 77.9886 170.626C77.2697 170.271 75.7108 169.175 75.0222 168.67C75.0222 168.73 74.5006 168.848 72.4145 168.848Z"
        fill="black" fill-opacity="0.2" />
    <path
        d="M88.5087 160.758C86.4399 158.18 87.1602 155.158 86.8 152.579L92.6436 163.07L92.1941 163.87L92.1826 163.864C91.6049 163.563 90.1512 162.806 88.5087 160.758Z"
        fill="black" fill-opacity="0.2" />
    <path
        d="M106.94 174.537C105.053 174.093 103.344 169.736 103.344 166.447L105.142 165.647L106.311 170.271C106.671 171.693 108.828 174.982 106.94 174.537Z"
        fill="black" fill-opacity="0.2" />
    <path
        d="M126.45 176.137C127.709 176.137 131.935 173.204 131.935 168.847C131.336 167.751 130.137 166.039 130.137 167.958C130.137 170.359 127.44 173.471 126.72 174.182C126.001 174.893 125.191 176.137 126.45 176.137Z"
        fill="black" fill-opacity="0.2" />
    <path
        d="M150.546 168.848C155.671 168.848 162.324 162.181 165.74 157.647L163.673 155.87L158.998 162.536L148.388 165.648L146.321 162.269C145.811 163.04 144.612 164.902 143.893 166.181C142.994 167.782 140.656 169.026 138.768 171.693C136.88 174.36 144.073 171.071 144.972 170.626C145.691 170.271 147.25 169.175 147.938 168.67C147.938 168.73 148.46 168.848 150.546 168.848Z"
        fill="black" fill-opacity="0.2" />
    <path
        d="M134.452 160.758C136.52 158.18 135.801 155.158 136.161 152.579L130.317 163.07L130.767 163.87L130.778 163.864C131.356 163.563 132.81 162.806 134.452 160.758Z"
        fill="black" fill-opacity="0.2" />
    <path
        d="M115.932 174.626C117.819 174.181 119.617 169.736 119.617 166.447L117.819 165.647L116.651 170.271C116.29 171.693 114.043 175.071 115.932 174.626Z"
        fill="black" fill-opacity="0.2" />
    <path opacity="0.2"
        d="M90.1629 269.835C89.5333 269.835 91.5114 268.857 90.8818 267.169C92.3802 266.546 94.73 267.187 96.456 268.68C98.6142 270.547 98.6142 275.169 98.5234 277.125C98.4341 279.081 90.7925 269.835 90.1629 269.835Z"
        fill="#22110C" />
    <path opacity="0.2"
        d="M132.807 269.896C133.436 269.896 131.458 268.917 132.088 267.229C130.589 266.607 128.24 267.248 126.514 268.74C124.355 270.607 124.355 275.229 124.445 277.186C124.536 279.141 132.177 269.896 132.807 269.896Z"
        fill="#22110C" />
    <path opacity="0.2" clipRule="evenodd" clipRule="evenodd"
        d="M51.191 224.723C62.1348 231.196 72.7745 237.489 72.7745 245.3C72.7745 245.55 72.7702 245.801 72.7616 246.046C69.2044 238.677 61.4879 233.003 46.5935 225.415C40.4125 222.265 40.3424 222.224 36.4769 219.149C26.9949 211.61 23.9283 202.935 28.0433 198.678C25.2748 209.392 38.4396 217.181 51.191 224.723Z"
        fill="#22110C" />
    <path opacity="0.2" clipRule="evenodd" clipRule="evenodd"
        d="M28.2155 198.37L28.1305 198.7C26.7582 204.01 29.329 208.606 33.859 212.827C38.3896 217.047 44.8589 220.874 51.2373 224.647L51.2417 224.65C56.7106 227.884 62.1104 231.078 66.1445 234.444C70.177 237.807 72.864 241.354 72.864 245.3C72.864 245.553 72.8597 245.801 72.8525 246.046L72.681 246.081C69.1368 238.746 61.4477 233.082 46.5528 225.493C43.4636 223.919 41.8966 223.12 40.6194 222.327C39.3408 221.537 38.3524 220.754 36.4206 219.218C31.6712 215.442 28.5225 211.378 27.0776 207.716C25.6331 204.053 25.8874 200.779 27.9783 198.616L28.2155 198.37ZM27.245 207.651C28.6752 211.276 31.8007 215.317 36.5332 219.08C38.4671 220.617 39.4468 221.392 40.7149 222.179C41.9842 222.964 43.5428 223.761 46.6349 225.336C61.3079 232.809 69.0389 238.442 72.681 245.677C72.6839 245.55 72.6839 245.427 72.6839 245.3C72.6839 241.439 70.0517 237.933 66.0292 234.578C62.0081 231.225 56.6184 228.037 51.1449 224.8L51.1386 224.795C44.7677 221.026 38.2817 217.191 33.7355 212.954C29.2834 208.806 26.6716 204.256 27.8733 198.996C26.0655 201.09 25.8719 204.17 27.245 207.651Z"
        fill="#22110C" />
    <path opacity="0.2" clipRule="evenodd" clipRule="evenodd"
        d="M172.039 224.723C161.095 231.196 150.456 237.49 150.456 245.3C150.456 245.411 150.457 245.522 150.459 245.63C154.102 238.463 161.806 232.86 176.423 225.415C182.604 222.265 182.675 222.224 186.54 219.149C196.019 211.613 198.793 203.487 195.303 199.165C197.554 209.632 184.597 217.296 172.039 224.723Z"
        fill="#22110C" />
    <path opacity="0.2" clipRule="evenodd" clipRule="evenodd"
        d="M195.867 207.985C194.418 211.516 191.344 215.443 186.596 219.218C184.664 220.754 183.676 221.536 182.398 222.33C181.12 223.118 179.554 223.919 176.465 225.494C161.846 232.94 154.169 238.534 150.539 245.671L150.369 245.632C150.366 245.521 150.366 245.41 150.366 245.3C150.366 241.353 153.053 237.806 157.086 234.444C161.12 231.078 166.52 227.884 171.989 224.65L171.993 224.647C178.275 220.933 184.644 217.162 189.164 213.019C193.683 208.874 196.33 204.37 195.215 199.183L195.373 199.11C197.147 201.303 197.317 204.454 195.867 207.985ZM195.467 199.529C196.965 201.64 197.069 204.587 195.702 207.917C194.267 211.412 191.215 215.317 186.484 219.08C184.551 220.617 183.569 221.392 182.303 222.179C181.032 222.964 179.473 223.761 176.382 225.335C161.984 232.669 154.271 238.226 150.547 245.268C150.561 241.417 153.19 237.924 157.201 234.578C161.222 231.225 166.612 228.037 172.085 224.799L172.091 224.795C178.366 221.085 184.751 217.308 189.285 213.148C193.712 209.09 196.395 204.645 195.467 199.529Z"
        fill="#22110C" />
    <g style="mix-blend-mode:multiply">
        <path clipRule="evenodd" clipRule="evenodd"
            d="M24.029 221.849C23.9205 230.659 24.2593 268.68 69.448 268.68C69.6325 268.68 69.8169 268.68 69.9998 268.68C69.5633 266.34 70.141 264.391 71.7229 262.72C73.325 261.025 72.318 253.012 69.8947 248.167C69.2521 246.88 68.9784 246.294 68.6873 246.284C68.4338 246.277 68.1672 246.706 67.6385 247.5C54.5192 267.134 27.7536 252.11 28.2959 225.416C28.3787 221.343 28.3787 221.343 27.2433 220.441C26.416 219.787 26.1655 219.56 25.9806 219.601C25.8693 219.629 25.7817 219.753 25.6063 219.941C25.0543 220.538 24.5285 221.173 24.029 221.849Z"
            fill="black" fill-opacity="0.2" />
    </g>
    <path opacity="0.2" clipRule="evenodd" clipRule="evenodd"
        d="M199.28 222.606C199.35 232.381 198.118 268.857 153.856 268.857C153.562 268.857 153.271 268.857 152.984 268.854C153.483 266.438 152.916 264.436 151.294 262.721C149.692 261.025 150.699 253.012 153.122 248.167C153.765 246.88 154.039 246.294 154.33 246.284C154.583 246.278 154.85 246.706 155.38 247.5C168.498 267.134 195.264 252.11 194.722 225.416C194.663 222.521 194.644 221.682 195.035 221.123C195.193 220.894 195.418 220.712 195.736 220.455C196.33 219.972 196.65 219.669 196.955 219.682C197.403 219.702 197.821 220.401 199.025 222.218C199.112 222.348 199.195 222.477 199.28 222.606Z"
        fill="#22110C" />
    <path opacity="0.2" clipRule="evenodd" clipRule="evenodd"
        d="M103.684 126.695C103.413 128.717 103.847 131.138 105.051 133.774C105.953 135.748 105.953 135.748 107.336 135.763C108.578 135.774 108.862 135.848 110.114 136.48C111.508 137.185 111.508 137.185 112.902 136.48C114.155 135.848 114.438 135.774 115.679 135.763C117.064 135.748 117.064 135.748 117.964 133.774C119.167 131.136 119.558 128.704 119.258 126.669C118.662 129.961 117.286 134.263 114.201 134.623C112.864 134.9 111.935 134.918 111.615 134.891L111.594 134.888H111.344H111.324C111.003 134.915 110.074 134.9 108.738 134.623C105.661 134.264 104.283 129.984 103.684 126.695ZM121.712 136.581C123.255 134.204 123.899 131.932 124.046 128.356L124.122 126.477C124.713 129.699 124.556 134.208 121.851 138.037C121.15 137.447 121.184 137.396 121.712 136.581ZM132.7 133.552C132.575 135.196 132.058 137.013 131.11 138.912C131.009 139.115 130.917 139.301 130.833 139.47C130.326 140.5 130.126 140.903 129.82 141.011C129.623 141.082 129.379 141.027 128.982 140.939C128.881 140.917 128.77 140.893 128.646 140.867C127.686 140.67 127.156 140.648 126.498 140.782C126.325 140.818 126.168 140.851 126.025 140.88C125.994 140.887 125.963 140.893 125.934 140.899C126.053 140.547 126.969 140.259 127.903 139.967C128.783 139.691 129.676 139.41 129.935 139.068C131.216 137.36 132.194 135.639 132.7 133.552ZM136.502 132.911C136.489 135.362 135.069 139.376 133.474 141.476C132.791 142.373 132.745 142.435 133.612 143.358C135.449 140.732 137.362 135.562 136.639 132.746C136.55 132.786 136.502 132.841 136.502 132.911ZM147.849 141.232C147.615 142.736 146.773 145.901 145.489 147.247C143.961 148.846 143.331 149.024 142.072 148.49C141.324 148.173 140.231 148.327 139.436 148.537C140.879 148.591 142.184 148.974 143.383 149.69L143.422 149.713L143.49 149.753C143.926 150.016 144.168 150.16 144.389 150.134C144.662 150.101 144.905 149.802 145.446 149.132L145.501 149.066L145.553 149.001C147.374 146.758 148.099 143.897 147.849 141.232ZM160.897 150.854C160.578 153.336 159.673 157.749 156.188 160.67C152.909 163.416 150.434 163.603 149.895 159.692C149.843 159.314 149.77 159.114 149.682 159.055C149.845 160.435 149.777 161.827 149.45 163.092C149.253 163.857 149.09 164.505 149.09 164.532C149.09 164.972 153.98 162.943 155.694 161.792C159.629 159.15 161.355 154.79 160.897 150.854ZM151.601 144.211C151.176 146.964 150.172 148.925 148.091 151.079C146.753 152.465 146.753 152.465 147.316 153.155C147.375 153.23 147.436 153.305 147.494 153.381C149.286 151.58 151.283 148.143 151.601 144.211ZM133.606 152.547C133.274 154.429 132.725 156.487 131.914 157.468C130.294 159.425 128.136 159.958 126.429 159.692C125.57 159.558 124.145 159.931 122.9 160.367C125.426 160.261 127.344 160.753 129.009 161.89C129.417 162.168 129.747 162.288 129.819 162.184C129.885 162.087 130.278 161.573 130.692 161.04C132.52 158.68 133.513 155.467 133.606 152.547ZM119.091 159.497C121.68 158.147 125.829 154.537 125.779 148.79C125.276 152.936 122.808 156.611 118.925 158.829C118.879 158.854 118.963 159.148 119.091 159.497ZM122.372 149.177C121.572 151.507 119.796 155.171 116.988 154.179C114.471 153.29 112.942 153.113 111.683 153.113C111.602 153.113 111.532 153.12 111.47 153.135C111.406 153.12 111.336 153.113 111.255 153.113C109.996 153.113 108.467 153.29 105.95 154.179C103.417 155.074 101.723 152.177 100.828 149.89C101.245 151.611 102.101 153.479 103.402 155.421C104.217 156.639 104.518 157.088 104.756 157.058C104.896 157.041 105.012 156.858 105.198 156.567C107.878 152.39 115.139 152.39 117.817 156.567C118.546 157.703 121.48 153.373 122.225 150.06C122.291 149.765 122.34 149.471 122.372 149.177ZM89.3357 152.569C89.3674 155.365 90.3284 158.465 92.3252 161.04C92.7387 161.573 93.132 162.087 93.1983 162.184C93.2704 162.288 93.5988 162.168 94.0066 161.89C95.6533 160.768 97.545 160.272 100.027 160.363C98.7855 159.929 97.3663 159.558 96.5091 159.692C94.8019 159.958 92.6436 159.425 91.0257 157.468C90.216 156.49 89.6685 154.444 89.3357 152.569ZM97.1805 148.199C96.8232 154.338 101.242 158.164 103.912 159.532C104.048 159.167 104.138 158.856 104.09 158.829C100.024 156.506 97.509 152.584 97.1805 148.199ZM89.3602 143.404C90.2722 142.436 90.2362 142.388 89.5432 141.476C87.9469 139.376 86.5278 135.362 86.5134 132.911C86.5134 132.874 86.4284 132.845 86.28 132.825C85.6086 135.676 87.5305 140.819 89.3602 143.404ZM75.0999 141.295C74.8248 143.878 75.5523 146.649 77.4627 149.001C77.5002 149.047 77.5348 149.091 77.5693 149.132C78.111 149.802 78.3531 150.101 78.6283 150.134C78.8487 150.16 79.0893 150.016 79.5258 149.753C79.5604 149.733 79.5964 149.712 79.6325 149.69C80.8124 148.984 82.0961 148.604 83.5123 148.54C82.717 148.329 81.6178 148.172 80.8657 148.49C79.6065 149.024 78.9769 148.846 77.4498 147.247C76.1819 145.92 75.3477 142.824 75.0999 141.295ZM90.4336 134.267C90.6266 135.742 91.1107 137.317 91.906 138.912C92.0083 139.115 92.0991 139.301 92.1826 139.47C92.6912 140.5 92.89 140.903 93.1969 141.011C93.3943 141.082 93.6363 141.027 94.0354 140.939C94.1362 140.917 94.2472 140.893 94.3696 140.867C95.3306 140.67 95.8593 140.648 96.5178 140.782C96.6906 140.818 96.8477 140.851 96.9917 140.88C96.9917 140.88 96.9946 140.881 96.9975 140.881C96.8549 140.537 95.953 140.255 95.0353 139.967C94.1564 139.691 93.2617 139.41 93.0038 139.068C91.8714 137.559 90.9753 136.039 90.4336 134.267ZM98.7552 126.83C98.8805 127.228 98.9454 127.739 98.9713 128.377C99.1168 131.93 99.7652 134.209 101.304 136.581C101.844 137.415 101.867 137.45 101.117 138.078C98.4815 134.378 98.238 130.034 98.7552 126.83ZM73.335 159.039C73.214 159.01 73.1103 159.203 73.0426 159.692C72.5037 163.603 70.0286 163.416 66.7495 160.67C63.5324 157.974 62.5138 154.006 62.1262 151.459C61.9331 155.214 63.5857 159.282 67.3229 161.792C69.0359 162.943 73.9257 164.972 73.9257 164.532C73.9257 164.505 73.7644 163.857 73.5656 163.092C73.2371 161.822 73.1708 160.425 73.335 159.039ZM75.4889 153.426C75.5566 153.335 75.6272 153.246 75.6978 153.158C76.2597 152.469 76.2597 152.469 74.8492 150.995C72.7602 148.813 71.6278 146.466 71.3166 143.668C71.3094 143.607 71.3036 143.55 71.2979 143.493C71.4146 147.754 73.5771 151.53 75.4889 153.426Z"
        fill="#22110C" />
    <path
        d="M177.968 237.477C177.968 235.317 179.78 233.565 182.015 233.565C184.249 233.565 186.06 235.317 186.06 237.477C186.06 239.639 184.249 241.388 182.015 241.388C179.78 241.388 177.968 239.639 177.968 237.477Z"
        fill="#F1F1F1" />
    <path
        d="M36.8108 237.477C36.8108 235.317 38.6221 233.565 40.8566 233.565C43.0911 233.565 44.9025 235.317 44.9025 237.477C44.9025 239.639 43.0911 241.388 40.8566 241.388C38.6221 241.388 36.8108 239.639 36.8108 237.477Z"
        fill="#F1F1F1" />
    <path
        d="M47.5998 241.032C47.5998 240.444 47.0767 239.966 46.4308 239.966C45.7854 239.966 45.2621 240.444 45.2621 241.032C45.2621 241.623 45.7854 242.1 46.4308 242.1C47.0767 242.1 47.5998 241.623 47.5998 241.032Z"
        fill="#F1F1F1" />
</svg>
