<svg width="62" height="40" viewBox="0 0 62 40" fill="none" xmlns="http://www.w3.org/2000/svg">
<path d="M32 10H42C47.5228 10 52 14.4772 52 20C52 25.5228 47.5228 30 42 30H36V28H42C46.4183 28 50 24.4183 50 20C50 15.5817 46.4183 12 42 12H32V22H42C43.1046 22 44 21.1046 44 20C44 18.8954 43.1046 18 42 18H36V16H42C44.2091 16 46 17.7909 46 20C46 22.2091 44.2091 24 42 24H32V34H42C49.732 34 56 27.732 56 20C56 12.268 49.732 6 42 6H36V4H42C50.8366 4 58 11.1634 58 20C58 28.8366 50.8366 36 42 36H32V40H42C53.0457 40 62 31.0457 62 20C62 8.95431 53.0457 0 42 0H32V10Z" fill="#4D0DA2"></path>
<path d="M20 0C8.95431 0 0 8.95431 0 20C0 31.0457 8.95431 40 20 40H30V30H20C14.4772 30 10 25.5228 10 20C10 14.4772 14.4772 10 20 10H26V12H20C15.5817 12 12 15.5817 12 20C12 24.4183 15.5817 28 20 28H30V18H20C18.8954 18 18 18.8954 18 20C18 21.1046 18.8954 22 20 22H26V24H20C17.7909 24 16 22.2091 16 20C16 17.7909 17.7909 16 20 16H30V6H20C12.268 6 6 12.268 6 20C6 27.732 12.268 34 20 34H26V36H20C11.1634 36 4 28.8366 4 20C4 11.1634 11.1634 4 20 4H30V0H20Z" fill="#4D0DA2"></path>
</svg>