<svg width="45" height="44" viewBox="0 0 45 44" fill="none" xmlns="http://www.w3.org/2000/svg">
    <g clip-path="url(#clip0_1662_1242)">
        <path clipRule="evenodd" clipRule="evenodd"
            d="M26.4067 0.0855892C26.0897 0.0855892 25.7935 0.15315 25.5232 0.241498C26.1027 0.631269 26.4197 1.13797 26.5808 1.71743C26.5912 1.79539 26.6146 1.85255 26.625 1.93311C26.6354 2.01366 26.651 2.06823 26.651 2.14098C26.6978 3.1414 26.3911 3.26612 26.1729 3.85598C25.8429 4.61733 25.9338 5.43585 26.3288 6.09067C26.3649 6.17833 26.4102 6.26194 26.4639 6.34012C26.0325 3.46621 28.4309 3.03226 28.8727 2.13579C28.9065 1.35105 28.2594 0.828753 27.7475 0.464967C27.259 0.16874 26.8121 0.0751953 26.4067 0.0751953V0.0855892ZM30.0186 0.735208C29.9718 0.995056 30.0082 0.927496 29.9926 1.06521L29.9666 1.36144L29.8887 1.63428C29.8627 1.72523 29.8315 1.81617 29.7977 1.90712L29.673 2.16697C29.6392 2.21374 29.6158 2.25792 29.5821 2.30209L29.5145 2.40603L29.343 2.6321C29.2754 2.69966 29.2183 2.78021 29.1351 2.83997C29.052 2.89974 29 2.9751 28.9195 3.03226C28.6804 3.21415 28.4076 3.34928 28.1581 3.52078C28.0801 3.57794 28.0022 3.62471 27.932 3.69227C27.8551 3.74669 27.783 3.80754 27.7164 3.87417C27.6384 3.94173 27.5812 4.00929 27.5085 4.08984C27.4357 4.17039 27.3838 4.23795 27.337 4.31591L27.1811 4.55497L27.0563 4.81482L26.9654 5.07466L26.8874 5.3605C26.877 5.40727 26.8771 5.46444 26.8615 5.50861C26.8459 5.55278 26.8511 5.59956 26.8355 5.64373L26.8251 5.92956C26.8251 5.99712 26.8251 6.06468 26.8355 6.13744C26.8355 6.22839 26.8459 6.31933 26.8693 6.42327C26.8926 6.52721 26.903 6.60517 26.9264 6.69611L27.0174 6.96895C27.0434 7.02612 27.0745 7.08329 27.0953 7.12486L24.4813 6.11146L23.1638 5.77365L22.4466 5.60215C21.7627 5.46583 21.0724 5.36349 20.3783 5.29553C20.3523 5.29553 20.3445 5.28514 20.3211 5.28514L18.2865 5.1812L16.7976 5.23837C16.1038 5.28514 15.41 5.37349 14.7188 5.48782L14.2069 5.57877L13.1831 5.80484L12.6712 5.93996L12.1827 6.15563L11.8085 6.32713C11.7825 6.33752 11.7617 6.33752 11.7513 6.35311L11.4343 6.50902C11.4005 6.51942 11.3771 6.53501 11.3563 6.5428L11.003 6.7247C10.925 6.75848 10.847 6.80265 10.7769 6.83903C10.7431 6.86501 10.6989 6.8832 10.6729 6.8962L10.3767 7.0677C10.2826 7.11969 10.1915 7.17694 10.1039 7.23919L9.87782 7.3951L9.62836 7.577L9.43608 7.73291C9.41009 7.7433 9.3893 7.76669 9.36852 7.77968L9.19702 7.92779C9.18662 7.95378 9.16324 7.96157 9.15024 7.97456L8.94237 8.16685L8.7163 8.38252L8.52401 8.5904C8.49803 8.61639 8.46684 8.63717 8.44606 8.65796C8.385 8.72918 8.32085 8.79767 8.25377 8.86324C8.24337 8.88923 8.21999 8.89702 8.207 8.92041L7.94715 9.19325L7.33391 9.7831C7.12603 9.965 6.91295 10.1365 6.69728 10.282L6.01648 10.7134C5.79041 10.8381 5.54875 10.9524 5.2993 11.0512C5.05783 11.1539 4.81155 11.2449 4.56133 11.324C4.08321 11.4279 3.5947 11.6202 3.17375 11.654C3.0828 11.654 2.98146 11.68 2.88791 11.6878L2.60208 11.7553L2.32924 11.8593C2.23621 11.8961 2.14514 11.9378 2.0564 11.984C1.97845 12.0412 1.8849 12.088 1.80695 12.1399C1.72899 12.1919 1.65104 12.2646 1.58088 12.3322C1.51072 12.3998 1.42497 12.4673 1.35481 12.5401L1.16253 12.7662C1.10536 12.8571 1.0378 12.9377 0.991027 13.026C0.931557 13.1093 0.878565 13.197 0.83252 13.2884L0.707793 13.5847L0.603854 13.8809L0.546688 14.1537C0.512907 14.2889 0.512907 14.4266 0.499915 14.4915C0.486923 14.5565 0.499915 14.6423 0.499915 14.7228C0.497708 14.7724 0.501195 14.8221 0.510309 14.8709C0.520703 14.9489 0.536294 15.019 0.557081 15.0866L0.635036 15.2945C0.668816 15.3724 0.71299 15.4426 0.759763 15.5101L0.907876 15.718L1.10016 15.8999C1.16677 15.9665 1.23892 16.0274 1.31584 16.0818C1.58868 16.3209 1.65364 16.3988 2.00963 16.5807C2.0668 16.6145 2.12396 16.6379 2.19152 16.6717C2.2253 16.7054 2.2253 16.7158 2.2383 16.7392C2.24869 16.8302 2.27208 16.9211 2.29546 17.0121C2.31716 17.1057 2.34761 17.197 2.38641 17.2849L2.47736 17.4928C2.48775 17.5188 2.50334 17.5396 2.51114 17.5499L2.64626 17.7994L2.81776 18.0385L3.01004 18.2541C3.0776 18.3217 3.14516 18.3789 3.22572 18.4464L3.45178 18.6179C3.52974 18.6751 3.60769 18.7219 3.70124 18.766C3.7853 18.8144 3.87306 18.8562 3.96368 18.8908C4.03124 18.9245 4.1118 18.9479 4.18975 18.9687C4.26771 18.9895 4.33786 19.0155 4.38204 19.0259C4.34826 19.6391 4.33527 20.2212 4.42881 20.4239C4.53275 20.6499 5.03166 19.9561 5.53057 19.1636C5.463 19.9483 5.41623 20.8682 5.53057 21.1384C5.6449 21.4087 6.33609 20.5356 6.92855 19.5586C14.9838 17.6955 22.3375 23.264 23.1093 31.127C22.9611 29.9005 21.4514 29.2171 20.7576 29.386C20.4198 30.2279 19.8378 31.3089 18.9049 31.9767C18.9829 31.2231 18.9491 30.454 18.7906 29.703C18.5364 30.7491 18.0556 31.7266 17.3822 32.5665C16.3038 32.6445 15.2255 32.1248 14.6538 31.3401C14.607 31.3063 14.5966 31.2361 14.5629 31.1919L14.4719 30.9529C14.4381 30.8749 14.4148 30.797 14.4044 30.7138C14.394 30.6307 14.394 30.5579 14.394 30.4644V30.2929C14.4044 30.2149 14.4277 30.137 14.4511 30.0538L14.5291 29.8148C14.5759 29.7368 14.607 29.6588 14.6642 29.5757C14.8565 29.056 14.8565 28.5883 14.5083 28.3284C14.4407 28.2817 14.3732 28.2505 14.2926 28.2141C14.2459 28.2037 14.1887 28.1803 14.1445 28.1673L14.0536 28.1335L13.8145 28.0764C13.7368 28.0539 13.6563 28.0425 13.5754 28.0426C13.4929 28.0292 13.4096 28.0213 13.326 28.0192C13.2688 28.0192 13.2117 28.0296 13.1545 28.0296C13.0702 28.0289 12.9862 28.0403 12.905 28.0634L12.666 28.1076L12.4269 28.1855L12.2009 28.2895L11.9852 28.4038C9.33473 30.1318 10.9198 34.1724 12.7231 35.3469C12.0423 35.4716 11.346 35.6198 11.1563 35.7679C11.624 36.0849 12.1333 36.3395 12.6686 36.5526L14.5083 37.0723C15.4515 37.2802 16.4052 37.3451 17.3718 37.288C19.8272 37.1082 22.1477 36.0956 23.9494 34.4177C25.751 32.7398 26.926 30.4972 27.2798 28.0608L27.3474 28.357L27.4513 28.9936L27.4981 29.3003L27.5241 29.6381L27.5501 30.0122V30.1941C27.5501 30.2513 27.5604 30.3189 27.5604 30.376C27.5604 30.4332 27.5501 30.5112 27.5501 30.5839V30.7398C27.5501 30.8178 27.5397 30.8879 27.5397 30.9659C27.5397 31.0101 27.5397 31.0568 27.5293 31.114L27.5189 31.3634C27.5085 31.3972 27.5085 31.431 27.5085 31.4674L27.4747 31.7272C27.4747 31.761 27.4747 31.7948 27.4643 31.8312L27.4201 32.1612V32.1872L27.3526 32.5042L27.285 32.842L27.1941 33.1954L27.1031 33.5488L26.9888 33.9126L26.7393 34.5726L26.6042 34.9026L26.4483 35.2196C26.4379 35.2534 26.4223 35.2768 26.4145 35.2975C25.6532 36.8202 24.5618 38.1299 23.1976 39.1485C23.1067 39.2057 23.0157 39.2732 22.9248 39.3408C22.8988 39.3668 22.8676 39.3745 22.8468 39.3979L22.5974 39.5694L22.6311 39.637H22.6415L23.1197 39.5694H23.13L24.0135 39.4135C24.0915 39.4031 24.185 39.3797 24.263 39.3564L24.4189 39.3226L24.6579 39.2784L24.8658 39.2212C26.0014 38.9484 27.1005 38.5716 28.1607 38.1299C26.3548 40.5984 23.933 42.5837 21.1032 43.8907C22.4103 43.7998 23.7173 43.5841 24.975 43.2203C29.5535 41.8691 33.407 38.7899 35.7145 34.6401C35.2466 37.2711 34.2031 39.7663 32.6587 41.947C33.7604 41.2195 34.7712 40.3802 35.6937 39.4265C38.237 36.7709 39.9064 33.4004 40.4775 29.768C40.8672 31.5609 40.9764 33.4162 40.8075 35.2456C49.0109 23.8019 41.4883 11.9372 38.3389 8.81387C38.3285 8.78789 38.3129 8.78009 38.3129 8.7567C38.287 8.89183 38.2792 9.02954 38.2688 9.16467C38.235 9.42451 38.2012 9.67657 38.1544 9.92602C38.1077 10.1755 38.0297 10.4249 37.9621 10.6796C37.8946 10.9342 37.7906 11.1681 37.6893 11.4072C37.588 11.6462 37.4736 11.8749 37.3515 12.1009C37.2263 12.3232 37.0901 12.5391 36.9435 12.748C36.7954 12.9636 36.6369 13.1689 36.4758 13.3612C36.3062 13.559 36.1276 13.7489 35.9405 13.9303C35.8262 14.0342 35.7249 14.1226 35.6105 14.2161L35.3507 14.4422C35.1477 14.6032 34.9351 14.7515 34.7141 14.8865C34.4971 15.0265 34.2733 15.1557 34.0436 15.2737C33.8046 15.388 33.5655 15.4894 33.3265 15.5907C33.0845 15.6823 32.8382 15.762 32.5885 15.8298C32.339 15.8973 32.0766 15.9545 31.8271 16.0013C31.5777 16.048 31.3075 16.0688 31.0554 16.0922C30.8735 16.1026 30.6916 16.1182 30.5357 16.1182C30.2759 16.1182 30.016 16.0922 29.764 16.0714C29.5119 16.0506 29.2443 16.0142 28.9896 15.9571C28.7317 15.9104 28.4774 15.8462 28.2283 15.7648H28.2179C28.4673 15.7388 28.7168 15.718 28.9714 15.6739C29.2261 15.6297 29.4833 15.5699 29.7328 15.5024C29.9822 15.4348 30.2317 15.3542 30.4707 15.2633C30.7098 15.1723 30.9593 15.0554 31.1879 14.9463C31.4208 14.8327 31.648 14.7078 31.8687 14.5721C32.0844 14.424 32.3001 14.2759 32.5053 14.1174C32.7089 13.9589 32.9025 13.788 33.0848 13.6055C33.2771 13.434 33.4486 13.2417 33.6201 13.0494C33.7916 12.8571 33.9501 12.6414 34.0982 12.4361C34.1242 12.4024 34.145 12.3582 34.1658 12.3218L34.4958 11.8021C34.6205 11.5761 34.7348 11.3474 34.8336 11.1083C34.9323 10.8693 35.0259 10.6302 35.1064 10.3808C35.187 10.1313 35.2415 9.89224 35.2987 9.64279C35.3559 9.39333 35.3897 9.13089 35.413 8.88143C35.4364 8.63198 35.4572 8.36174 35.4572 8.10968C35.4572 7.92779 35.4468 7.7459 35.4312 7.58999C35.4052 7.33014 35.3741 7.07809 35.3403 6.82864C35.2951 6.57231 35.2378 6.31824 35.1688 6.06728C35.0908 5.82822 35.0129 5.57877 34.9193 5.33971C34.8258 5.10065 34.7115 4.86159 34.6023 4.63812C34.4932 4.41465 34.3529 4.18339 34.2125 3.96771C34.0722 3.75204 33.9163 3.54676 33.7578 3.34408L33.2381 2.76462C33.1421 2.66737 33.0433 2.57292 32.9419 2.48138C32.4327 2.08565 31.9055 1.71367 31.362 1.36664C31.2841 1.32246 31.2139 1.28868 31.136 1.25231C30.7618 1.01325 30.4084 0.888518 30.0576 0.774185L30.0186 0.735208Z"
            fill="#A0A0A0" />
    </g>
    <defs>
        <clipPath id="clip0_1662_1242">
            <rect width="44" height="44" fill="white" transform="translate(0.5)" />
        </clipPath>
    </defs>
</svg>
