<svg width="221" height="159" viewBox="0 0 221 159" fill="none" xmlns="http://www.w3.org/2000/svg">
<rect width="221" height="159" fill="white"/>
<path d="M35.5312 37.7484L30.9609 33.2015C30.75 32.9672 30.75 32.6156 30.9609 32.4047L31.5 31.8656C31.7109 31.6547 32.0625 31.6547 32.2969 31.8656L35.9297 35.475L39.5391 31.8656C39.7734 31.6547 40.125 31.6547 40.3359 31.8656L40.875 32.4047C41.0859 32.6156 41.0859 32.9672 40.875 33.2015L36.3047 37.7484C36.0937 37.9594 35.7422 37.9594 35.5312 37.7484Z" fill="black"/>
<path d="M52.8807 31.7273H53.9318L56.4034 37.7642H56.4886L58.9602 31.7273H60.0114V39H59.1875V33.4744H59.1165L56.8438 39H56.0483L53.7756 33.4744H53.7045V39H52.8807V31.7273ZM61.1522 31.7273H62.1607L64.1777 35.1222H64.263L66.28 31.7273H67.2885L64.6607 36.0028V39H63.78V36.0028L61.1522 31.7273ZM70.6479 34.973V35.7543H67.4661V34.973H70.6479ZM72.2362 39V31.7273H74.6935C75.2641 31.7273 75.7305 31.8303 76.0927 32.0362C76.4573 32.2398 76.7272 32.5156 76.9023 32.8636C77.0775 33.2116 77.1651 33.5999 77.1651 34.0284C77.1651 34.4569 77.0775 34.8464 76.9023 35.1967C76.7295 35.5471 76.462 35.8265 76.0998 36.0348C75.7376 36.2408 75.2736 36.3438 74.7077 36.3438H72.9464V35.5625H74.6793C75.07 35.5625 75.3836 35.495 75.6204 35.3601C75.8571 35.2251 76.0288 35.0429 76.1353 34.8132C76.2442 34.5812 76.2987 34.3196 76.2987 34.0284C76.2987 33.7372 76.2442 33.4768 76.1353 33.2472C76.0288 33.0175 75.8559 32.8376 75.6168 32.7074C75.3777 32.5748 75.0605 32.5085 74.6651 32.5085H73.1168V39H72.2362ZM78.5838 39V31.7273H81.0412C81.6094 31.7273 82.0758 31.8243 82.4403 32.0185C82.8049 32.2102 83.0748 32.4742 83.25 32.8104C83.4252 33.1465 83.5128 33.5289 83.5128 33.9574C83.5128 34.3859 83.4252 34.7659 83.25 35.0973C83.0748 35.4287 82.8061 35.6892 82.4439 35.8786C82.0817 36.0656 81.6188 36.1591 81.0554 36.1591H79.0668V35.3636H81.027C81.4152 35.3636 81.7277 35.3068 81.9645 35.1932C82.2036 35.0795 82.3764 34.9186 82.483 34.7102C82.5919 34.4995 82.6463 34.2486 82.6463 33.9574C82.6463 33.6662 82.5919 33.4117 82.483 33.1939C82.3741 32.9761 82.2 32.808 81.9609 32.6896C81.7218 32.5689 81.4058 32.5085 81.0128 32.5085H79.4645V39H78.5838ZM82.0071 35.733L83.7969 39H82.7741L81.0128 35.733H82.0071ZM91.1167 35.3636C91.1167 36.1307 90.9782 36.7936 90.7012 37.3523C90.4242 37.911 90.0442 38.3419 89.5613 38.6449C89.0783 38.9479 88.5267 39.0994 87.9064 39.0994C87.2862 39.0994 86.7346 38.9479 86.2516 38.6449C85.7686 38.3419 85.3887 37.911 85.1117 37.3523C84.8347 36.7936 84.6962 36.1307 84.6962 35.3636C84.6962 34.5966 84.8347 33.9337 85.1117 33.375C85.3887 32.8163 85.7686 32.3854 86.2516 32.0824C86.7346 31.7794 87.2862 31.6278 87.9064 31.6278C88.5267 31.6278 89.0783 31.7794 89.5613 32.0824C90.0442 32.3854 90.4242 32.8163 90.7012 33.375C90.9782 33.9337 91.1167 34.5966 91.1167 35.3636ZM90.2644 35.3636C90.2644 34.7339 90.159 34.2024 89.9483 33.7692C89.74 33.3359 89.4571 33.008 89.0996 32.7855C88.7445 32.563 88.3468 32.4517 87.9064 32.4517C87.4661 32.4517 87.0672 32.563 86.7097 32.7855C86.3546 33.008 86.0717 33.3359 85.861 33.7692C85.6526 34.2024 85.5485 34.7339 85.5485 35.3636C85.5485 35.9934 85.6526 36.5249 85.861 36.9581C86.0717 37.3913 86.3546 37.7192 86.7097 37.9418C87.0672 38.1643 87.4661 38.2756 87.9064 38.2756C88.3468 38.2756 88.7445 38.1643 89.0996 37.9418C89.4571 37.7192 89.74 37.3913 89.9483 36.9581C90.159 36.5249 90.2644 35.9934 90.2644 35.3636ZM95.3816 31.7273H96.2623V36.9261C96.2623 37.3902 96.177 37.7843 96.0066 38.1087C95.8361 38.433 95.5958 38.6792 95.2857 38.8473C94.9756 39.0154 94.6098 39.0994 94.1884 39.0994C93.7907 39.0994 93.4367 39.0272 93.1266 38.8828C92.8165 38.736 92.5726 38.5277 92.3951 38.2578C92.2175 37.9879 92.1287 37.6671 92.1287 37.2955H92.9952C92.9952 37.5014 93.0461 37.6813 93.1479 37.8352C93.2521 37.9867 93.3941 38.1051 93.574 38.1903C93.754 38.2756 93.9587 38.3182 94.1884 38.3182C94.4417 38.3182 94.6571 38.2649 94.8347 38.1584C95.0123 38.0518 95.1472 37.8956 95.2395 37.6896C95.3342 37.4813 95.3816 37.2268 95.3816 36.9261V31.7273ZM98.0272 39V31.7273H102.416V32.5085H98.9078V34.9659H102.189V35.7472H98.9078V38.2188H102.473V39H98.0272ZM109.856 34H108.975C108.923 33.7467 108.832 33.5241 108.702 33.3324C108.574 33.1406 108.418 32.9796 108.233 32.8494C108.051 32.7169 107.848 32.6174 107.626 32.5511C107.403 32.4848 107.171 32.4517 106.93 32.4517C106.49 32.4517 106.091 32.563 105.733 32.7855C105.378 33.008 105.095 33.3359 104.884 33.7692C104.676 34.2024 104.572 34.7339 104.572 35.3636C104.572 35.9934 104.676 36.5249 104.884 36.9581C105.095 37.3913 105.378 37.7192 105.733 37.9418C106.091 38.1643 106.49 38.2756 106.93 38.2756C107.171 38.2756 107.403 38.2424 107.626 38.1761C107.848 38.1098 108.051 38.0116 108.233 37.8814C108.418 37.7488 108.574 37.5866 108.702 37.3949C108.832 37.2008 108.923 36.9782 108.975 36.7273H109.856C109.79 37.099 109.669 37.4316 109.494 37.7251C109.319 38.0187 109.101 38.2685 108.84 38.4744C108.58 38.678 108.288 38.8331 107.963 38.9396C107.641 39.0462 107.297 39.0994 106.93 39.0994C106.31 39.0994 105.758 38.9479 105.275 38.6449C104.792 38.3419 104.412 37.911 104.135 37.3523C103.858 36.7936 103.72 36.1307 103.72 35.3636C103.72 34.5966 103.858 33.9337 104.135 33.375C104.412 32.8163 104.792 32.3854 105.275 32.0824C105.758 31.7794 106.31 31.6278 106.93 31.6278C107.297 31.6278 107.641 31.6811 107.963 31.7876C108.288 31.8942 108.58 32.0504 108.84 32.2564C109.101 32.46 109.319 32.7086 109.494 33.0021C109.669 33.2933 109.79 33.6259 109.856 34ZM110.881 32.5085V31.7273H116.336V32.5085H114.049V39H113.168V32.5085H110.881Z" fill="black"/>
<path d="M57.8516 59.9531L53.2812 55.4062C53.0703 55.1719 53.0703 54.8203 53.2812 54.6094L53.8203 54.0703C54.0312 53.8594 54.3828 53.8594 54.6172 54.0703L58.25 57.6797L61.8594 54.0703C62.0938 53.8594 62.4453 53.8594 62.6562 54.0703L63.1953 54.6094C63.4062 54.8203 63.4062 55.1719 63.1953 55.4062L58.625 59.9531C58.4141 60.1641 58.0625 60.1641 57.8516 59.9531Z" fill="black"/>
<path d="M62.1211 123.817L57.5742 128.388C57.3398 128.598 56.9883 128.598 56.7773 128.388L56.2383 127.848C56.0273 127.638 56.0273 127.286 56.2383 127.052L59.8477 123.419L56.2383 119.809C56.0273 119.575 56.0273 119.223 56.2383 119.013L56.7773 118.473C56.9883 118.263 57.3398 118.263 57.5742 118.473L62.1211 123.044C62.332 123.255 62.332 123.606 62.1211 123.817Z" fill="black"/>
<path d="M84.4375 55.1562V54.5469C84.4375 54.2344 84.3281 53.9687 84.1094 53.75C83.8906 53.5313 83.625 53.4219 83.3125 53.4219H79.1406L79.0938 53.2812C79.0312 53.0938 78.9219 52.9531 78.7656 52.8594C78.6094 52.7656 78.4375 52.7188 78.25 52.7188H74.5C74.1562 52.7188 73.875 52.8281 73.6562 53.0469C73.4375 53.2656 73.3281 53.5313 73.3281 53.8438V61.1562C73.3281 61.4687 73.4375 61.7344 73.6562 61.9531C73.875 62.1719 74.1562 62.2812 74.5 62.2812H83.5469C83.8594 62.2812 84.125 62.1719 84.3438 61.9531C84.5625 61.7344 84.6719 61.4687 84.6719 61.1562V55.7656C84.6719 55.5469 84.5937 55.3438 84.4375 55.1562ZM83.3125 54.2188C83.375 54.2188 83.4375 54.25 83.5 54.3125C83.5625 54.375 83.5938 54.4531 83.5938 54.5469V54.875H79.75L79.4688 54.2188H83.3125ZM83.8281 61.1562C83.8281 61.25 83.8047 61.3203 83.7578 61.3672C83.7109 61.4141 83.6406 61.4375 83.5469 61.4375H74.5C74.4062 61.4375 74.3281 61.4141 74.2656 61.3672C74.2031 61.3203 74.1719 61.25 74.1719 61.1562V53.8438C74.1719 53.75 74.2031 53.6797 74.2656 53.6328C74.3281 53.5859 74.4062 53.5625 74.5 53.5625H78.2969L79.0469 55.4844C79.0781 55.5469 79.1328 55.6016 79.2109 55.6484C79.2891 55.6953 79.375 55.7188 79.4688 55.7188H83.8281V55.7656V61.1562Z" fill="black"/>
<path d="M84.4375 120.656V120.047C84.4375 119.734 84.3281 119.469 84.1094 119.25C83.8906 119.031 83.625 118.922 83.3125 118.922H79.1406L79.0938 118.781C79.0312 118.594 78.9219 118.453 78.7656 118.359C78.6094 118.266 78.4375 118.219 78.25 118.219H74.5C74.1562 118.219 73.875 118.328 73.6562 118.547C73.4375 118.766 73.3281 119.031 73.3281 119.344V126.656C73.3281 126.969 73.4375 127.234 73.6562 127.453C73.875 127.672 74.1562 127.781 74.5 127.781H83.5469C83.8594 127.781 84.125 127.672 84.3438 127.453C84.5625 127.234 84.6719 126.969 84.6719 126.656V121.266C84.6719 121.047 84.5937 120.844 84.4375 120.656ZM83.3125 119.719C83.375 119.719 83.4375 119.75 83.5 119.812C83.5625 119.875 83.5938 119.953 83.5938 120.047V120.375H79.75L79.4688 119.719H83.3125ZM83.8281 126.656C83.8281 126.75 83.8047 126.82 83.7578 126.867C83.7109 126.914 83.6406 126.938 83.5469 126.938H74.5C74.4062 126.938 74.3281 126.914 74.2656 126.867C74.2031 126.82 74.1719 126.75 74.1719 126.656V119.344C74.1719 119.25 74.2031 119.18 74.2656 119.133C74.3281 119.086 74.4062 119.062 74.5 119.062H78.2969L79.0469 120.984C79.0781 121.047 79.1328 121.102 79.2109 121.148C79.2891 121.195 79.375 121.219 79.4688 121.219H83.8281V121.266V126.656Z" fill="black"/>
<path d="M98.5568 56.4205L97.6534 56.6761C97.5966 56.5256 97.5128 56.3793 97.402 56.2372C97.294 56.0923 97.1463 55.973 96.9588 55.8793C96.7713 55.7855 96.5312 55.7386 96.2386 55.7386C95.8381 55.7386 95.5043 55.831 95.2372 56.0156C94.973 56.1974 94.8409 56.429 94.8409 56.7102C94.8409 56.9602 94.9318 57.1577 95.1136 57.3026C95.2955 57.4474 95.5795 57.5682 95.9659 57.6648L96.9375 57.9034C97.5227 58.0455 97.9588 58.2628 98.2457 58.5554C98.5327 58.8452 98.6761 59.2187 98.6761 59.6761C98.6761 60.0511 98.5682 60.3864 98.3523 60.6818C98.1392 60.9773 97.8409 61.2102 97.4574 61.3807C97.0739 61.5511 96.6278 61.6364 96.1193 61.6364C95.4517 61.6364 94.8991 61.4915 94.4616 61.2017C94.0241 60.9119 93.7472 60.4886 93.6307 59.9318L94.5852 59.6932C94.6761 60.0455 94.848 60.3097 95.1009 60.4858C95.3565 60.6619 95.6903 60.75 96.1023 60.75C96.571 60.75 96.9432 60.6506 97.2188 60.4517C97.4972 60.25 97.6364 60.0085 97.6364 59.7273C97.6364 59.5 97.5568 59.3097 97.3977 59.1562C97.2386 59 96.9943 58.8835 96.6648 58.8068L95.5739 58.5511C94.9744 58.4091 94.5341 58.1889 94.2528 57.8906C93.9744 57.5895 93.8352 57.2131 93.8352 56.7614C93.8352 56.392 93.9389 56.0653 94.1463 55.7812C94.3565 55.4972 94.642 55.2741 95.0028 55.1122C95.3665 54.9503 95.7784 54.8693 96.2386 54.8693C96.8864 54.8693 97.3949 55.0114 97.7642 55.2955C98.1364 55.5795 98.4006 55.9545 98.5568 56.4205ZM102.934 61.6364C102.304 61.6364 101.76 61.4972 101.302 61.2188C100.848 60.9375 100.497 60.5455 100.25 60.0426C100.005 59.5369 99.8832 58.9489 99.8832 58.2784C99.8832 57.608 100.005 57.017 100.25 56.5057C100.497 55.9915 100.841 55.5909 101.281 55.304C101.724 55.0142 102.241 54.8693 102.832 54.8693C103.173 54.8693 103.51 54.9261 103.842 55.0398C104.174 55.1534 104.477 55.3381 104.75 55.5938C105.022 55.8466 105.24 56.1818 105.402 56.5994C105.564 57.017 105.645 57.5312 105.645 58.142V58.5682H100.599V57.6989H104.622C104.622 57.3295 104.548 57 104.4 56.7102C104.255 56.4205 104.048 56.1918 103.778 56.0241C103.511 55.8565 103.196 55.7727 102.832 55.7727C102.431 55.7727 102.085 55.8722 101.792 56.071C101.502 56.267 101.279 56.5227 101.123 56.8381C100.967 57.1534 100.889 57.4915 100.889 57.8523V58.4318C100.889 58.9261 100.974 59.3452 101.145 59.6889C101.318 60.0298 101.558 60.2898 101.865 60.4688C102.172 60.6449 102.528 60.733 102.934 60.733C103.199 60.733 103.437 60.696 103.65 60.6222C103.866 60.5455 104.052 60.4318 104.208 60.2812C104.365 60.1278 104.485 59.9375 104.571 59.7102L105.542 59.983C105.44 60.3125 105.268 60.6023 105.027 60.8523C104.785 61.0994 104.487 61.2926 104.132 61.4318C103.777 61.5682 103.377 61.6364 102.934 61.6364ZM107.174 61.5V54.9545H108.146V55.9432H108.214C108.333 55.6193 108.549 55.3565 108.862 55.1548C109.174 54.9531 109.527 54.8523 109.919 54.8523C109.993 54.8523 110.085 54.8537 110.196 54.8565C110.306 54.8594 110.39 54.8636 110.447 54.8693V55.892C110.413 55.8835 110.335 55.8707 110.213 55.8537C110.093 55.8338 109.967 55.8239 109.833 55.8239C109.515 55.8239 109.231 55.8906 108.981 56.0241C108.734 56.1548 108.538 56.3366 108.393 56.5696C108.251 56.7997 108.18 57.0625 108.18 57.358V61.5H107.174ZM117.191 54.9545L114.77 61.5H113.748L111.327 54.9545H112.418L114.225 60.1705H114.293L116.1 54.9545H117.191ZM121.028 61.6364C120.397 61.6364 119.853 61.4972 119.396 61.2188C118.941 60.9375 118.591 60.5455 118.343 60.0426C118.099 59.5369 117.977 58.9489 117.977 58.2784C117.977 57.608 118.099 57.017 118.343 56.5057C118.591 55.9915 118.934 55.5909 119.375 55.304C119.818 55.0142 120.335 54.8693 120.926 54.8693C121.267 54.8693 121.603 54.9261 121.936 55.0398C122.268 55.1534 122.571 55.3381 122.843 55.5938C123.116 55.8466 123.333 56.1818 123.495 56.5994C123.657 57.017 123.738 57.5312 123.738 58.142V58.5682H118.693V57.6989H122.716C122.716 57.3295 122.642 57 122.494 56.7102C122.349 56.4205 122.142 56.1918 121.872 56.0241C121.605 55.8565 121.289 55.7727 120.926 55.7727C120.525 55.7727 120.179 55.8722 119.886 56.071C119.596 56.267 119.373 56.5227 119.217 56.8381C119.061 57.1534 118.983 57.4915 118.983 57.8523V58.4318C118.983 58.9261 119.068 59.3452 119.238 59.6889C119.412 60.0298 119.652 60.2898 119.958 60.4688C120.265 60.6449 120.622 60.733 121.028 60.733C121.292 60.733 121.531 60.696 121.744 60.6222C121.96 60.5455 122.146 60.4318 122.302 60.2812C122.458 60.1278 122.579 59.9375 122.664 59.7102L123.636 59.983C123.534 60.3125 123.362 60.6023 123.12 60.8523C122.879 61.0994 122.581 61.2926 122.225 61.4318C121.87 61.5682 121.471 61.6364 121.028 61.6364ZM125.268 61.5V54.9545H126.24V55.9432H126.308C126.427 55.6193 126.643 55.3565 126.956 55.1548C127.268 54.9531 127.62 54.8523 128.012 54.8523C128.086 54.8523 128.179 54.8537 128.289 54.8565C128.4 54.8594 128.484 54.8636 128.541 54.8693V55.892C128.507 55.8835 128.429 55.8707 128.306 55.8537C128.187 55.8338 128.061 55.8239 127.927 55.8239C127.609 55.8239 127.325 55.8906 127.075 56.0241C126.828 56.1548 126.632 56.3366 126.487 56.5696C126.345 56.7997 126.274 57.0625 126.274 57.358V61.5H125.268Z" fill="black"/>
<path d="M98.0455 124.324V120.455H99.0511V127H98.0455V125.892H97.9773C97.8239 126.224 97.5852 126.507 97.2614 126.74C96.9375 126.97 96.5284 127.085 96.0341 127.085C95.625 127.085 95.2614 126.996 94.9432 126.817C94.625 126.635 94.375 126.362 94.1932 125.999C94.0114 125.632 93.9205 125.17 93.9205 124.614V120.455H94.9261V124.545C94.9261 125.023 95.0597 125.403 95.3267 125.688C95.5966 125.972 95.9403 126.114 96.358 126.114C96.608 126.114 96.8622 126.05 97.1207 125.922C97.3821 125.794 97.6009 125.598 97.777 125.334C97.956 125.07 98.0455 124.733 98.0455 124.324ZM100.893 127V120.455H101.899V127H100.893ZM101.404 119.364C101.208 119.364 101.039 119.297 100.897 119.163C100.758 119.03 100.689 118.869 100.689 118.682C100.689 118.494 100.758 118.334 100.897 118.2C101.039 118.067 101.208 118 101.404 118C101.6 118 101.768 118.067 101.907 118.2C102.049 118.334 102.12 118.494 102.12 118.682C102.12 118.869 102.049 119.03 101.907 119.163C101.768 119.297 101.6 119.364 101.404 119.364Z" fill="black"/>
<rect width="221" height="22" transform="translate(0 68)" fill="url(#paint0_linear_5505_28115)" fill-opacity="0.1"/>
<path d="M91.436 81.656H90.008L89.708 75.932H91.736L91.436 81.656ZM89.684 83.66C89.684 83.292 89.784 83.036 89.984 82.892C90.184 82.74 90.428 82.664 90.716 82.664C90.996 82.664 91.236 82.74 91.436 82.892C91.636 83.036 91.736 83.292 91.736 83.66C91.736 84.012 91.636 84.268 91.436 84.428C91.236 84.58 90.996 84.656 90.716 84.656C90.428 84.656 90.184 84.58 89.984 84.428C89.784 84.268 89.684 84.012 89.684 83.66Z" fill="#942FFA"/>
<path d="M105.42 83.5V76.9545H106.392V77.9773H106.477C106.614 77.6278 106.834 77.3565 107.138 77.1634C107.442 76.9673 107.807 76.8693 108.233 76.8693C108.665 76.8693 109.024 76.9673 109.311 77.1634C109.601 77.3565 109.827 77.6278 109.989 77.9773H110.057C110.224 77.6392 110.476 77.3707 110.811 77.1719C111.146 76.9702 111.548 76.8693 112.017 76.8693C112.602 76.8693 113.081 77.0526 113.453 77.419C113.825 77.7827 114.011 78.3494 114.011 79.1193V83.5H113.006V79.1193C113.006 78.6364 112.874 78.2912 112.609 78.0838C112.345 77.8764 112.034 77.7727 111.676 77.7727C111.216 77.7727 110.859 77.9119 110.607 78.1903C110.354 78.4659 110.227 78.8153 110.227 79.2386V83.5H109.205V79.017C109.205 78.6449 109.084 78.3452 108.842 78.1179C108.601 77.8878 108.29 77.7727 107.909 77.7727C107.648 77.7727 107.403 77.8423 107.176 77.9815C106.952 78.1207 106.77 78.3139 106.631 78.5611C106.494 78.8054 106.426 79.0881 106.426 79.4091V83.5H105.42ZM117.776 83.6534C117.362 83.6534 116.985 83.5753 116.647 83.419C116.309 83.2599 116.04 83.0312 115.842 82.733C115.643 82.4318 115.543 82.0682 115.543 81.642C115.543 81.267 115.617 80.9631 115.765 80.7301C115.913 80.4943 116.11 80.3097 116.357 80.1761C116.604 80.0426 116.877 79.9432 117.175 79.8778C117.477 79.8097 117.779 79.7557 118.083 79.7159C118.481 79.6648 118.803 79.6264 119.05 79.6009C119.3 79.5724 119.482 79.5256 119.596 79.4602C119.712 79.3949 119.771 79.2812 119.771 79.1193V79.0852C119.771 78.6648 119.656 78.3381 119.425 78.1051C119.198 77.8722 118.853 77.7557 118.39 77.7557C117.91 77.7557 117.533 77.8608 117.261 78.071C116.988 78.2812 116.796 78.5057 116.685 78.7443L115.731 78.4034C115.901 78.0057 116.129 77.696 116.413 77.4744C116.7 77.25 117.012 77.0937 117.35 77.0057C117.691 76.9148 118.026 76.8693 118.356 76.8693C118.566 76.8693 118.808 76.8949 119.08 76.946C119.356 76.9943 119.621 77.0952 119.877 77.2486C120.136 77.402 120.35 77.6335 120.521 77.9432C120.691 78.2528 120.776 78.6676 120.776 79.1875V83.5H119.771V82.6136H119.719C119.651 82.7557 119.538 82.9077 119.379 83.0696C119.219 83.2315 119.008 83.3693 118.744 83.483C118.479 83.5966 118.157 83.6534 117.776 83.6534ZM117.93 82.75C118.327 82.75 118.663 82.6719 118.935 82.5156C119.211 82.3594 119.418 82.1577 119.558 81.9105C119.7 81.6634 119.771 81.4034 119.771 81.1307V80.2102C119.728 80.2614 119.634 80.3082 119.489 80.3509C119.347 80.3906 119.183 80.4261 118.995 80.4574C118.81 80.4858 118.63 80.5114 118.454 80.5341C118.281 80.554 118.14 80.571 118.032 80.5852C117.771 80.6193 117.526 80.6747 117.299 80.7514C117.075 80.8253 116.893 80.9375 116.754 81.0881C116.617 81.2358 116.549 81.4375 116.549 81.6932C116.549 82.0426 116.678 82.3068 116.937 82.4858C117.198 82.6619 117.529 82.75 117.93 82.75ZM123.618 79.5625V83.5H122.612V76.9545H123.583V77.9773H123.669C123.822 77.6449 124.055 77.3778 124.368 77.1761C124.68 76.9716 125.083 76.8693 125.578 76.8693C126.021 76.8693 126.409 76.9602 126.741 77.142C127.074 77.321 127.332 77.5938 127.517 77.9602C127.701 78.3239 127.794 78.7841 127.794 79.3409V83.5H126.788V79.4091C126.788 78.8949 126.654 78.4943 126.387 78.2074C126.12 77.9176 125.754 77.7727 125.288 77.7727C124.967 77.7727 124.68 77.8423 124.427 77.9815C124.177 78.1207 123.98 78.3239 123.835 78.5909C123.69 78.858 123.618 79.1818 123.618 79.5625ZM129.631 83.5V76.9545H130.637V83.5H129.631ZM130.143 75.8636C129.947 75.8636 129.778 75.7969 129.636 75.6634C129.496 75.5298 129.427 75.3693 129.427 75.1818C129.427 74.9943 129.496 74.8338 129.636 74.7003C129.778 74.5668 129.947 74.5 130.143 74.5C130.339 74.5 130.506 74.5668 130.646 74.7003C130.788 74.8338 130.859 74.9943 130.859 75.1818C130.859 75.3693 130.788 75.5298 130.646 75.6634C130.506 75.7969 130.339 75.8636 130.143 75.8636ZM135.394 76.9545V77.8068H131.865V76.9545H135.394ZM132.922 83.5V76.0511C132.922 75.6761 133.01 75.3636 133.186 75.1136C133.363 74.8636 133.591 74.6761 133.873 74.5511C134.154 74.4261 134.451 74.3636 134.763 74.3636C135.01 74.3636 135.212 74.3835 135.368 74.4233C135.525 74.4631 135.641 74.5 135.718 74.5341L135.428 75.4034C135.377 75.3864 135.306 75.3651 135.215 75.3395C135.127 75.3139 135.01 75.3011 134.865 75.3011C134.533 75.3011 134.293 75.3849 134.145 75.5526C134 75.7202 133.928 75.9659 133.928 76.2898V83.5H132.922ZM139.278 83.6364C138.647 83.6364 138.103 83.4972 137.646 83.2188C137.191 82.9375 136.841 82.5455 136.593 82.0426C136.349 81.5369 136.227 80.9489 136.227 80.2784C136.227 79.608 136.349 79.017 136.593 78.5057C136.841 77.9915 137.184 77.5909 137.625 77.304C138.068 77.0142 138.585 76.8693 139.176 76.8693C139.517 76.8693 139.853 76.9261 140.186 77.0398C140.518 77.1534 140.821 77.3381 141.093 77.5938C141.366 77.8466 141.583 78.1818 141.745 78.5994C141.907 79.017 141.988 79.5312 141.988 80.142V80.5682H136.943V79.6989H140.966C140.966 79.3295 140.892 79 140.744 78.7102C140.599 78.4205 140.392 78.1918 140.122 78.0241C139.855 77.8565 139.539 77.7727 139.176 77.7727C138.775 77.7727 138.429 77.8722 138.136 78.071C137.846 78.267 137.623 78.5227 137.467 78.8381C137.311 79.1534 137.233 79.4915 137.233 79.8523V80.4318C137.233 80.9261 137.318 81.3452 137.488 81.6889C137.662 82.0298 137.902 82.2898 138.208 82.4688C138.515 82.6449 138.872 82.733 139.278 82.733C139.542 82.733 139.781 82.696 139.994 82.6222C140.21 82.5455 140.396 82.4318 140.552 82.2812C140.708 82.1278 140.829 81.9375 140.914 81.7102L141.886 81.983C141.784 82.3125 141.612 82.6023 141.37 82.8523C141.129 83.0994 140.831 83.2926 140.475 83.4318C140.12 83.5682 139.721 83.6364 139.278 83.6364ZM148.154 78.4205L147.251 78.6761C147.194 78.5256 147.11 78.3793 147 78.2372C146.892 78.0923 146.744 77.973 146.556 77.8793C146.369 77.7855 146.129 77.7386 145.836 77.7386C145.436 77.7386 145.102 77.831 144.835 78.0156C144.571 78.1974 144.439 78.429 144.439 78.7102C144.439 78.9602 144.529 79.1577 144.711 79.3026C144.893 79.4474 145.177 79.5682 145.564 79.6648L146.535 79.9034C147.12 80.0455 147.556 80.2628 147.843 80.5554C148.13 80.8452 148.274 81.2187 148.274 81.6761C148.274 82.0511 148.166 82.3864 147.95 82.6818C147.737 82.9773 147.439 83.2102 147.055 83.3807C146.672 83.5511 146.225 83.6364 145.717 83.6364C145.049 83.6364 144.497 83.4915 144.059 83.2017C143.622 82.9119 143.345 82.4886 143.228 81.9318L144.183 81.6932C144.274 82.0455 144.446 82.3097 144.699 82.4858C144.954 82.6619 145.288 82.75 145.7 82.75C146.169 82.75 146.541 82.6506 146.816 82.4517C147.095 82.25 147.234 82.0085 147.234 81.7273C147.234 81.5 147.154 81.3097 146.995 81.1562C146.836 81 146.592 80.8835 146.262 80.8068L145.172 80.5511C144.572 80.4091 144.132 80.1889 143.85 79.8906C143.572 79.5895 143.433 79.2131 143.433 78.7614C143.433 78.392 143.537 78.0653 143.744 77.7812C143.954 77.4972 144.24 77.2741 144.6 77.1122C144.964 76.9503 145.376 76.8693 145.836 76.8693C146.484 76.8693 146.993 77.0114 147.362 77.2955C147.734 77.5795 147.998 77.9545 148.154 78.4205ZM152.634 76.9545V77.8068H149.242V76.9545H152.634ZM150.231 75.3864H151.237V81.625C151.237 81.9091 151.278 82.1222 151.36 82.2642C151.445 82.4034 151.553 82.4972 151.684 82.5455C151.817 82.5909 151.958 82.6136 152.106 82.6136C152.217 82.6136 152.308 82.608 152.379 82.5966C152.45 82.5824 152.506 82.571 152.549 82.5625L152.754 83.4659C152.685 83.4915 152.59 83.517 152.468 83.5426C152.346 83.571 152.191 83.5852 152.004 83.5852C151.719 83.5852 151.441 83.5241 151.168 83.402C150.898 83.2798 150.674 83.0938 150.495 82.8438C150.319 82.5938 150.231 82.2784 150.231 81.8977V75.3864ZM154.88 83.5682C154.67 83.5682 154.489 83.4929 154.339 83.3423C154.188 83.1918 154.113 83.0114 154.113 82.8011C154.113 82.5909 154.188 82.4105 154.339 82.2599C154.489 82.1094 154.67 82.0341 154.88 82.0341C155.09 82.0341 155.271 82.1094 155.421 82.2599C155.572 82.4105 155.647 82.5909 155.647 82.8011C155.647 82.9403 155.612 83.0682 155.54 83.1847C155.472 83.3011 155.38 83.3949 155.263 83.4659C155.15 83.5341 155.022 83.5682 154.88 83.5682ZM158.099 85.9545C157.929 85.9545 157.777 85.9403 157.643 85.9119C157.51 85.8864 157.418 85.8608 157.366 85.8352L157.622 84.9489C157.866 85.0114 158.082 85.0341 158.27 85.017C158.457 85 158.624 84.9162 158.768 84.7656C158.916 84.6179 159.051 84.3778 159.173 84.0455L159.361 83.5341L156.94 76.9545H158.031L159.838 82.1705H159.906L161.713 76.9545H162.804L160.026 84.4545C159.901 84.7926 159.746 85.0724 159.561 85.294C159.376 85.5185 159.162 85.6847 158.918 85.7926C158.676 85.9006 158.403 85.9545 158.099 85.9545ZM164.131 83.5V76.9545H165.103V77.9773H165.188C165.325 77.6278 165.545 77.3565 165.849 77.1634C166.153 76.9673 166.518 76.8693 166.944 76.8693C167.376 76.8693 167.735 76.9673 168.022 77.1634C168.312 77.3565 168.538 77.6278 168.7 77.9773H168.768C168.935 77.6392 169.187 77.3707 169.522 77.1719C169.857 76.9702 170.259 76.8693 170.728 76.8693C171.313 76.8693 171.792 77.0526 172.164 77.419C172.536 77.7827 172.722 78.3494 172.722 79.1193V83.5H171.717V79.1193C171.717 78.6364 171.585 78.2912 171.32 78.0838C171.056 77.8764 170.745 77.7727 170.387 77.7727C169.927 77.7727 169.57 77.9119 169.317 78.1903C169.065 78.4659 168.938 78.8153 168.938 79.2386V83.5H167.915V79.017C167.915 78.6449 167.795 78.3452 167.553 78.1179C167.312 77.8878 167.001 77.7727 166.62 77.7727C166.359 77.7727 166.114 77.8423 165.887 77.9815C165.663 78.1207 165.481 78.3139 165.342 78.5611C165.205 78.8054 165.137 79.0881 165.137 79.4091V83.5H164.131ZM175.567 74.7727V83.5H174.561V74.7727H175.567Z" fill="black"/>
<path d="M91.25 99.1875C91.25 99.5156 91.4844 99.75 91.8125 99.75H95V107.438C95 107.766 94.7422 108 94.4375 108H86.5625C86.2344 108 86 107.766 86 107.438V96.5625C86 96.2578 86.2344 96 86.5625 96H91.25V99.1875ZM95 98.8594V99H92V96H92.1406C92.2812 96 92.4219 96.0703 92.5391 96.1641L94.8359 98.4609C94.9297 98.5781 95 98.7188 95 98.8594Z" fill="#F2C79C"/>
<path d="M105.42 107.955V98.9545H106.392V99.9943H106.511C106.585 99.8807 106.688 99.7358 106.818 99.5597C106.952 99.3807 107.142 99.2216 107.389 99.0824C107.639 98.9403 107.977 98.8693 108.403 98.8693C108.955 98.8693 109.44 99.0071 109.861 99.2827C110.281 99.5582 110.609 99.9489 110.845 100.455C111.081 100.96 111.199 101.557 111.199 102.244C111.199 102.938 111.081 103.538 110.845 104.047C110.609 104.553 110.283 104.945 109.865 105.223C109.447 105.499 108.966 105.636 108.42 105.636C108 105.636 107.663 105.567 107.411 105.428C107.158 105.286 106.963 105.125 106.827 104.946C106.69 104.764 106.585 104.614 106.511 104.494H106.426V107.955H105.42ZM106.409 102.227C106.409 102.722 106.482 103.158 106.626 103.536C106.771 103.911 106.983 104.205 107.261 104.418C107.54 104.628 107.881 104.733 108.284 104.733C108.705 104.733 109.055 104.622 109.337 104.401C109.621 104.176 109.834 103.875 109.976 103.497C110.121 103.116 110.193 102.693 110.193 102.227C110.193 101.767 110.122 101.352 109.98 100.983C109.841 100.611 109.629 100.317 109.345 100.101C109.064 99.8821 108.71 99.7727 108.284 99.7727C107.875 99.7727 107.531 99.8764 107.253 100.084C106.974 100.288 106.764 100.575 106.622 100.945C106.48 101.311 106.409 101.739 106.409 102.227ZM114.659 105.653C114.244 105.653 113.868 105.575 113.53 105.419C113.192 105.26 112.923 105.031 112.724 104.733C112.526 104.432 112.426 104.068 112.426 103.642C112.426 103.267 112.5 102.963 112.648 102.73C112.795 102.494 112.993 102.31 113.24 102.176C113.487 102.043 113.76 101.943 114.058 101.878C114.359 101.81 114.662 101.756 114.966 101.716C115.364 101.665 115.686 101.626 115.933 101.601C116.183 101.572 116.365 101.526 116.479 101.46C116.595 101.395 116.653 101.281 116.653 101.119V101.085C116.653 100.665 116.538 100.338 116.308 100.105C116.081 99.8722 115.736 99.7557 115.273 99.7557C114.793 99.7557 114.416 99.8608 114.143 100.071C113.871 100.281 113.679 100.506 113.568 100.744L112.614 100.403C112.784 100.006 113.011 99.696 113.295 99.4744C113.582 99.25 113.895 99.0937 114.233 99.0057C114.574 98.9148 114.909 98.8693 115.239 98.8693C115.449 98.8693 115.69 98.8949 115.963 98.946C116.239 98.9943 116.504 99.0952 116.76 99.2486C117.018 99.402 117.233 99.6335 117.403 99.9432C117.574 100.253 117.659 100.668 117.659 101.188V105.5H116.653V104.614H116.602C116.534 104.756 116.42 104.908 116.261 105.07C116.102 105.232 115.891 105.369 115.626 105.483C115.362 105.597 115.04 105.653 114.659 105.653ZM114.812 104.75C115.21 104.75 115.545 104.672 115.818 104.516C116.094 104.359 116.301 104.158 116.44 103.911C116.582 103.663 116.653 103.403 116.653 103.131V102.21C116.611 102.261 116.517 102.308 116.372 102.351C116.23 102.391 116.065 102.426 115.878 102.457C115.693 102.486 115.513 102.511 115.337 102.534C115.163 102.554 115.023 102.571 114.915 102.585C114.653 102.619 114.409 102.675 114.182 102.751C113.957 102.825 113.776 102.937 113.636 103.088C113.5 103.236 113.432 103.437 113.432 103.693C113.432 104.043 113.561 104.307 113.82 104.486C114.081 104.662 114.412 104.75 114.812 104.75ZM122.154 105.636C121.54 105.636 121.012 105.491 120.569 105.202C120.125 104.912 119.784 104.513 119.546 104.004C119.307 103.496 119.188 102.915 119.188 102.261C119.188 101.597 119.31 101.01 119.554 100.501C119.801 99.9901 120.145 99.5909 120.586 99.304C121.029 99.0142 121.546 98.8693 122.137 98.8693C122.597 98.8693 123.012 98.9545 123.381 99.125C123.75 99.2955 124.053 99.5341 124.289 99.8409C124.525 100.148 124.671 100.506 124.728 100.915H123.722C123.645 100.616 123.475 100.352 123.211 100.122C122.949 99.8892 122.597 99.7727 122.154 99.7727C121.762 99.7727 121.418 99.875 121.123 100.08C120.83 100.281 120.601 100.567 120.436 100.936C120.275 101.303 120.194 101.733 120.194 102.227C120.194 102.733 120.273 103.173 120.432 103.548C120.594 103.923 120.821 104.214 121.114 104.422C121.409 104.629 121.756 104.733 122.154 104.733C122.415 104.733 122.652 104.688 122.865 104.597C123.078 104.506 123.259 104.375 123.407 104.205C123.554 104.034 123.659 103.83 123.722 103.591H124.728C124.671 103.977 124.53 104.325 124.306 104.635C124.084 104.942 123.79 105.186 123.424 105.368C123.06 105.547 122.637 105.636 122.154 105.636ZM127.135 103.114L127.118 101.869H127.323L130.186 98.9545H131.431L128.38 102.04H128.294L127.135 103.114ZM126.198 105.5V96.7727H127.203V105.5H126.198ZM130.357 105.5L127.8 102.261L128.516 101.562L131.635 105.5H130.357ZM134.651 105.653C134.237 105.653 133.86 105.575 133.522 105.419C133.184 105.26 132.915 105.031 132.717 104.733C132.518 104.432 132.418 104.068 132.418 103.642C132.418 103.267 132.492 102.963 132.64 102.73C132.788 102.494 132.985 102.31 133.232 102.176C133.479 102.043 133.752 101.943 134.05 101.878C134.352 101.81 134.654 101.756 134.958 101.716C135.356 101.665 135.678 101.626 135.925 101.601C136.175 101.572 136.357 101.526 136.471 101.46C136.587 101.395 136.646 101.281 136.646 101.119V101.085C136.646 100.665 136.531 100.338 136.3 100.105C136.073 99.8722 135.728 99.7557 135.265 99.7557C134.785 99.7557 134.408 99.8608 134.136 100.071C133.863 100.281 133.671 100.506 133.56 100.744L132.606 100.403C132.776 100.006 133.004 99.696 133.288 99.4744C133.575 99.25 133.887 99.0937 134.225 99.0057C134.566 98.9148 134.901 98.8693 135.231 98.8693C135.441 98.8693 135.683 98.8949 135.955 98.946C136.231 98.9943 136.496 99.0952 136.752 99.2486C137.011 99.402 137.225 99.6335 137.396 99.9432C137.566 100.253 137.651 100.668 137.651 101.188V105.5H136.646V104.614H136.594C136.526 104.756 136.413 104.908 136.254 105.07C136.094 105.232 135.883 105.369 135.619 105.483C135.354 105.597 135.032 105.653 134.651 105.653ZM134.805 104.75C135.202 104.75 135.538 104.672 135.81 104.516C136.086 104.359 136.293 104.158 136.433 103.911C136.575 103.663 136.646 103.403 136.646 103.131V102.21C136.603 102.261 136.509 102.308 136.364 102.351C136.222 102.391 136.058 102.426 135.87 102.457C135.685 102.486 135.505 102.511 135.329 102.534C135.156 102.554 135.015 102.571 134.907 102.585C134.646 102.619 134.401 102.675 134.174 102.751C133.95 102.825 133.768 102.937 133.629 103.088C133.492 103.236 133.424 103.437 133.424 103.693C133.424 104.043 133.553 104.307 133.812 104.486C134.073 104.662 134.404 104.75 134.805 104.75ZM142.129 108.091C141.643 108.091 141.225 108.028 140.876 107.903C140.527 107.781 140.235 107.619 140.002 107.418C139.772 107.219 139.589 107.006 139.453 106.778L140.254 106.216C140.345 106.335 140.46 106.472 140.599 106.625C140.738 106.781 140.929 106.916 141.17 107.03C141.414 107.146 141.734 107.205 142.129 107.205C142.657 107.205 143.093 107.077 143.437 106.821C143.781 106.565 143.953 106.165 143.953 105.619V104.29H143.868C143.794 104.409 143.689 104.557 143.552 104.733C143.419 104.906 143.225 105.061 142.973 105.197C142.723 105.331 142.385 105.398 141.958 105.398C141.43 105.398 140.956 105.273 140.535 105.023C140.118 104.773 139.787 104.409 139.542 103.932C139.301 103.455 139.18 102.875 139.18 102.193C139.18 101.523 139.298 100.939 139.534 100.442C139.77 99.9418 140.098 99.5554 140.518 99.2827C140.939 99.0071 141.424 98.8693 141.975 98.8693C142.402 98.8693 142.74 98.9403 142.99 99.0824C143.243 99.2216 143.436 99.3807 143.569 99.5597C143.706 99.7358 143.811 99.8807 143.885 99.9943H143.987V98.9545H144.958V105.688C144.958 106.25 144.831 106.707 144.575 107.06C144.322 107.415 143.981 107.675 143.552 107.839C143.126 108.007 142.652 108.091 142.129 108.091ZM142.095 104.494C142.498 104.494 142.839 104.402 143.118 104.217C143.396 104.033 143.608 103.767 143.752 103.42C143.897 103.074 143.97 102.659 143.97 102.176C143.97 101.705 143.899 101.288 143.757 100.928C143.615 100.567 143.404 100.284 143.126 100.08C142.848 99.875 142.504 99.7727 142.095 99.7727C141.669 99.7727 141.314 99.8807 141.029 100.097C140.748 100.312 140.537 100.602 140.395 100.966C140.255 101.33 140.186 101.733 140.186 102.176C140.186 102.631 140.257 103.033 140.399 103.382C140.544 103.729 140.757 104.001 141.038 104.2C141.322 104.396 141.674 104.494 142.095 104.494ZM149.544 105.636C148.913 105.636 148.369 105.497 147.912 105.219C147.457 104.938 147.106 104.545 146.859 104.043C146.615 103.537 146.493 102.949 146.493 102.278C146.493 101.608 146.615 101.017 146.859 100.506C147.106 99.9915 147.45 99.5909 147.89 99.304C148.333 99.0142 148.85 98.8693 149.441 98.8693C149.782 98.8693 150.119 98.9261 150.451 99.0398C150.784 99.1534 151.086 99.3381 151.359 99.5938C151.632 99.8466 151.849 100.182 152.011 100.599C152.173 101.017 152.254 101.531 152.254 102.142V102.568H147.208V101.699H151.231C151.231 101.33 151.157 101 151.01 100.71C150.865 100.42 150.657 100.192 150.387 100.024C150.12 99.8565 149.805 99.7727 149.441 99.7727C149.041 99.7727 148.694 99.8722 148.402 100.071C148.112 100.267 147.889 100.523 147.733 100.838C147.576 101.153 147.498 101.491 147.498 101.852V102.432C147.498 102.926 147.583 103.345 147.754 103.689C147.927 104.03 148.167 104.29 148.474 104.469C148.781 104.645 149.137 104.733 149.544 104.733C149.808 104.733 150.047 104.696 150.26 104.622C150.475 104.545 150.662 104.432 150.818 104.281C150.974 104.128 151.095 103.937 151.18 103.71L152.152 103.983C152.049 104.312 151.877 104.602 151.636 104.852C151.395 105.099 151.096 105.293 150.741 105.432C150.386 105.568 149.987 105.636 149.544 105.636ZM154.517 105.568C154.306 105.568 154.126 105.493 153.975 105.342C153.825 105.192 153.75 105.011 153.75 104.801C153.75 104.591 153.825 104.411 153.975 104.26C154.126 104.109 154.306 104.034 154.517 104.034C154.727 104.034 154.907 104.109 155.058 104.26C155.208 104.411 155.284 104.591 155.284 104.801C155.284 104.94 155.248 105.068 155.177 105.185C155.109 105.301 155.017 105.395 154.9 105.466C154.787 105.534 154.659 105.568 154.517 105.568ZM157.088 98.9545H158.094V105.977C158.094 106.381 158.025 106.73 157.885 107.026C157.749 107.321 157.542 107.55 157.263 107.712C156.988 107.874 156.64 107.955 156.219 107.955C156.185 107.955 156.151 107.955 156.117 107.955C156.083 107.955 156.049 107.955 156.015 107.955V107.017C156.049 107.017 156.08 107.017 156.108 107.017C156.137 107.017 156.168 107.017 156.202 107.017C156.509 107.017 156.733 106.926 156.875 106.744C157.017 106.565 157.088 106.31 157.088 105.977V98.9545ZM157.583 97.8636C157.387 97.8636 157.218 97.7969 157.076 97.6634C156.936 97.5298 156.867 97.3693 156.867 97.1818C156.867 96.9943 156.936 96.8338 157.076 96.7003C157.218 96.5668 157.387 96.5 157.583 96.5C157.779 96.5 157.946 96.5668 158.086 96.7003C158.228 96.8338 158.299 96.9943 158.299 97.1818C158.299 97.3693 158.228 97.5298 158.086 97.6634C157.946 97.7969 157.779 97.8636 157.583 97.8636ZM164.572 100.42L163.669 100.676C163.612 100.526 163.528 100.379 163.418 100.237C163.31 100.092 163.162 99.973 162.974 99.8793C162.787 99.7855 162.547 99.7386 162.254 99.7386C161.854 99.7386 161.52 99.831 161.253 100.016C160.989 100.197 160.857 100.429 160.857 100.71C160.857 100.96 160.947 101.158 161.129 101.303C161.311 101.447 161.595 101.568 161.982 101.665L162.953 101.903C163.538 102.045 163.974 102.263 164.261 102.555C164.548 102.845 164.692 103.219 164.692 103.676C164.692 104.051 164.584 104.386 164.368 104.682C164.155 104.977 163.857 105.21 163.473 105.381C163.089 105.551 162.643 105.636 162.135 105.636C161.467 105.636 160.915 105.491 160.477 105.202C160.04 104.912 159.763 104.489 159.646 103.932L160.601 103.693C160.692 104.045 160.864 104.31 161.116 104.486C161.372 104.662 161.706 104.75 162.118 104.75C162.587 104.75 162.959 104.651 163.234 104.452C163.513 104.25 163.652 104.009 163.652 103.727C163.652 103.5 163.572 103.31 163.413 103.156C163.254 103 163.01 102.884 162.68 102.807L161.589 102.551C160.99 102.409 160.55 102.189 160.268 101.891C159.99 101.589 159.851 101.213 159.851 100.761C159.851 100.392 159.955 100.065 160.162 99.7812C160.372 99.4972 160.658 99.2741 161.018 99.1122C161.382 98.9503 161.794 98.8693 162.254 98.8693C162.902 98.8693 163.411 99.0114 163.78 99.2955C164.152 99.5795 164.416 99.9545 164.572 100.42ZM168.865 105.636C168.274 105.636 167.755 105.496 167.309 105.214C166.866 104.933 166.52 104.54 166.27 104.034C166.022 103.528 165.899 102.937 165.899 102.261C165.899 101.58 166.022 100.984 166.27 100.476C166.52 99.9673 166.866 99.5724 167.309 99.2912C167.755 99.0099 168.274 98.8693 168.865 98.8693C169.456 98.8693 169.973 99.0099 170.416 99.2912C170.862 99.5724 171.208 99.9673 171.456 100.476C171.706 100.984 171.831 101.58 171.831 102.261C171.831 102.937 171.706 103.528 171.456 104.034C171.208 104.54 170.862 104.933 170.416 105.214C169.973 105.496 169.456 105.636 168.865 105.636ZM168.865 104.733C169.314 104.733 169.683 104.618 169.973 104.388C170.262 104.158 170.477 103.855 170.616 103.48C170.755 103.105 170.825 102.699 170.825 102.261C170.825 101.824 170.755 101.416 170.616 101.038C170.477 100.661 170.262 100.355 169.973 100.122C169.683 99.8892 169.314 99.7727 168.865 99.7727C168.416 99.7727 168.047 99.8892 167.757 100.122C167.467 100.355 167.252 100.661 167.113 101.038C166.974 101.416 166.904 101.824 166.904 102.261C166.904 102.699 166.974 103.105 167.113 103.48C167.252 103.855 167.467 104.158 167.757 104.388C168.047 104.618 168.416 104.733 168.865 104.733ZM174.371 101.562V105.5H173.366V98.9545H174.337V99.9773H174.423C174.576 99.6449 174.809 99.3778 175.121 99.1761C175.434 98.9716 175.837 98.8693 176.332 98.8693C176.775 98.8693 177.163 98.9602 177.495 99.142C177.827 99.321 178.086 99.5938 178.271 99.9602C178.455 100.324 178.548 100.784 178.548 101.341V105.5H177.542V101.409C177.542 100.895 177.408 100.494 177.141 100.207C176.874 99.9176 176.508 99.7727 176.042 99.7727C175.721 99.7727 175.434 99.8423 175.181 99.9815C174.931 100.121 174.734 100.324 174.589 100.591C174.444 100.858 174.371 101.182 174.371 101.562Z" fill="black"/>
<defs>
<linearGradient id="paint0_linear_5505_28115" x1="0" y1="11" x2="221" y2="11" gradientUnits="userSpaceOnUse">
<stop stop-color="white"/>
<stop offset="0.5" stop-color="#00CECB"/>
<stop offset="1" stop-color="white"/>
</linearGradient>
</defs>
</svg>
