<svg width="958" height="108" viewBox="0 0 958 108" fill="none" xmlns="http://www.w3.org/2000/svg">
<mask id="mask0_5867_190" style="mask-type:luminance" maskUnits="userSpaceOnUse" x="0" y="0" width="958" height="108">
<path d="M957.35 0H0V107.48H957.35V0Z" fill="white"/>
</mask>
<g mask="url(#mask0_5867_190)">
<path d="M26.3202 40.62C22.8602 40.62 21.8702 41.12 21.8702 43.84V65.96C21.8702 67.07 22.2402 73.99 23.3502 75.23C24.7102 76.71 28.6602 77.58 32.6202 77.58C42.01 77.58 48.93 71.15 48.93 60.4C48.93 49.65 39.7902 40.62 26.3202 40.62ZM30.4002 6.15018C22.2402 6.15018 21.8702 7.26018 21.8702 9.73018V36.5502C21.8702 38.5302 23.4802 38.2802 26.4402 38.2802C33.9802 38.2802 39.1702 39.0202 39.1702 39.0202C42.75 36.3002 46.83 33.9502 46.83 24.1902C46.83 18.0102 41.64 6.15018 30.3902 6.15018M32.0002 79.81C26.8102 79.81 21.6202 78.57 16.1802 78.57C10.7402 78.57 8.27023 79.06 4.32023 79.06C3.08023 79.06 2.22023 78.94 2.22023 77.7C2.22023 76.46 2.96023 76.22 5.68023 76.22C11.2402 76.22 11.4902 75.97 11.4902 74.12V17.2702C11.4902 7.51018 9.51024 6.40018 6.05024 6.40018C0.490236 6.40018 -0.00976562 6.28018 -0.00976562 4.79018C-0.00976562 3.92018 0.360236 3.80018 2.46024 3.80018C6.29024 3.80018 10.1202 3.92018 14.4502 3.92018C17.0402 3.92018 22.9802 3.18018 34.1002 3.18018C50.17 3.18018 57.09 11.4602 57.09 20.2302C57.09 29.0002 51.78 33.3302 47.82 36.0502C45.47 37.6602 42.75 39.0202 42.75 39.3902C42.75 39.6402 45.1 40.25 47.57 41.49C53.38 44.46 60.67 48.66 60.67 59.41C60.67 73.25 49.18 79.8 32.0002 79.8" fill="#FFB700"/>
<path d="M83.5201 36.22C75.3501 36.22 72.7701 48.47 72.7701 49.98C72.7701 50.52 72.7701 50.62 74.0601 50.62C79.6501 50.62 85.4501 49.22 93.5101 47.93C94.6901 47.72 94.8001 47.5 94.8001 46.86C94.8001 44.17 88.4601 36.22 83.5101 36.22M100.06 49.12C97.2701 49.77 86.5201 52.13 74.2601 52.88C72.5401 52.99 72.2201 53.53 72.2201 56C72.2201 70.83 83.7201 74.81 91.8901 74.81C98.9801 74.81 102.85 72.23 103.5 72.23C104.04 72.23 104.36 72.87 104.36 73.09C104.36 73.63 95.2201 80.4 86.5101 80.4C77.8001 80.4 64.5801 76.1 64.5801 58.15C64.5801 42.99 74.7901 33.96 84.5701 33.96C90.1601 33.96 97.0401 37.51 100.91 42.02C102.74 44.17 104.46 46.75 104.46 47.61C104.46 48.04 102.96 48.47 100.05 49.12" fill="#FFB700"/>
<path d="M139.42 46.21C137.92 46.21 136.63 41.8 131.25 41.8C125.02 41.8 122.65 44.38 122.65 48.89V71.03C122.65 76.3 122.97 76.3 130.93 76.3C133.72 76.3 133.83 76.62 133.83 77.59C133.83 78.77 133.72 78.67 130.93 78.67C129.42 78.67 122.22 78.13 118.78 78.13C115.13 78.13 111.47 78.67 109.97 78.67C107.5 78.67 107.28 78.67 107.28 77.59C107.28 76.51 107.39 76.3 109.97 76.3C114.38 76.3 114.7 76.19 114.7 74.69V45.24C114.7 37.9302 114.91 37.7202 108.9 37.7202C106.96 37.7202 106.96 37.8302 106.96 36.6402C106.96 35.3502 106.85 35.0302 108.68 35.0302C112.33 35.0302 114.38 35.2402 116.53 35.2402C118.25 35.2402 120.29 34.7002 122.01 34.7002C122.44 34.7002 122.87 35.0202 122.87 35.8802C122.87 36.4202 122.65 38.7802 122.65 39.1002C122.65 40.07 122.76 40.82 123.19 40.82C124.8 40.82 129.85 35.2302 134.9 35.2302C136.84 35.2302 141.78 37.6002 141.78 40.39C141.78 41.46 140.06 46.19 139.42 46.19" fill="#FFB700"/>
<path d="M190.26 79.11C188.97 79.11 187.57 79 186.61 79C185.32 79 182.09 79.11 180.59 79.11C178.65 79.11 177.68 76.42 173.17 71.26C168.66 66.1 164.14 59.33 163.49 59.33C163.06 59.33 161.56 60.41 159.73 61.59C158.01 62.67 156.51 63.42 156.51 64.39V71.16C156.51 76.21 156.3 76.2101 162.96 76.2101C165.43 76.2101 165.86 76.75 165.86 77.61C165.86 78.69 165.32 78.69 162.96 78.69C161.35 78.69 156.4 78.48 152.96 78.48C149.3 78.48 145.33 78.69 143.82 78.69C141.35 78.69 140.7 78.58 140.7 77.61C140.7 76.75 141.24 76.2101 143.82 76.2101C147.47 76.2101 148.44 76.2101 148.44 74.6001C148.44 71.4801 148.76 39.6699 148.76 16.9799C148.76 9.34994 147.9 8.37994 145 8.37994C140.59 8.37994 140.16 8.05994 140.16 7.29994C140.16 6.22994 140.37 5.79994 141.56 5.79994C149.3 5.79994 155.64 3.43994 156.61 3.43994C157.15 3.43994 157.36 3.75994 157.36 4.40994C157.36 5.80994 157.14 10.3199 157.14 13.7599C157.14 30.0999 156.49 42.14 156.49 59.66C156.49 60.09 156.6 60.41 156.92 60.41C159.61 60.41 170.79 50.52 174.23 47.29C178.42 43.31 179.39 41.49 179.39 39.2299C179.39 37.5099 179.07 37.2999 174.34 37.2999C172.73 37.2999 172.19 37.0799 172.19 36.1199C172.19 35.2599 172.73 35.0399 174.13 35.0399C175.2 35.0399 177.25 35.3599 178.54 35.3599C179.94 35.3599 186.17 35.0399 187.46 35.0399C188.32 35.0399 188.75 35.1499 188.75 35.4699C188.75 36.4399 185.1 41.06 181.76 44.29C176.38 49.56 169.72 54.29 169.72 55.04C169.72 56.01 171.65 58.05 179.18 67.08C182.84 71.49 186.28 76.75 189.93 76.75C192.51 76.75 193.37 77.29 193.37 78.15C193.37 78.9 192.62 79.12 190.25 79.12" fill="#FFB700"/>
<path d="M208.859 36.22C200.689 36.22 198.109 48.47 198.109 49.98C198.109 50.52 198.109 50.62 199.399 50.62C204.989 50.62 210.789 49.22 218.859 47.93C220.039 47.72 220.149 47.5 220.149 46.86C220.149 44.17 213.809 36.22 208.859 36.22ZM225.419 49.12C222.619 49.77 211.879 52.13 199.619 52.88C197.899 52.99 197.579 53.53 197.579 56C197.579 70.83 209.079 74.81 217.249 74.81C224.339 74.81 228.219 72.23 228.859 72.23C229.399 72.23 229.719 72.87 229.719 73.09C229.719 73.63 220.579 80.4 211.879 80.4C203.179 80.4 189.949 76.1 189.949 58.15C189.949 42.99 200.159 33.96 209.939 33.96C215.529 33.96 222.409 37.51 226.279 42.02C228.109 44.17 229.829 46.75 229.829 47.61C229.829 48.04 228.329 48.47 225.419 49.12Z" fill="#FFB700"/>
<path d="M249.091 78.68C247.481 78.68 245.111 78.46 243.181 78.46C239.531 78.46 233.831 78.68 232.321 78.68C229.851 78.68 229.631 78.46 229.631 77.61C229.631 76.86 229.741 76.21 232.321 76.21C236.731 76.21 238.551 76.32 238.551 74.38V15.1501C238.551 8.38008 237.911 8.38007 233.071 8.38007C231.131 8.38007 230.061 8.17008 230.061 6.98008C230.061 5.69008 230.921 5.80008 232.751 5.69008C241.131 5.15008 245.221 3.33008 245.861 3.33008C246.401 3.33008 246.931 3.87008 246.931 5.05008C246.931 6.34008 246.391 10.2101 246.391 13.4401C246.391 54.4 245.851 62.89 245.851 66C245.851 74.92 246.601 76.1 248.541 76.1C253.911 76.1 253.701 76.74 253.701 77.61C253.701 78.68 252.951 78.68 249.081 78.68" fill="#FFB700"/>
<path d="M270.859 36.22C262.689 36.22 260.109 48.47 260.109 49.98C260.109 50.52 260.109 50.62 261.399 50.62C266.989 50.62 272.799 49.22 280.859 47.93C282.039 47.72 282.149 47.5 282.149 46.86C282.149 44.17 275.799 36.22 270.859 36.22ZM287.419 49.12C284.629 49.77 273.879 52.13 261.619 52.88C259.899 52.99 259.579 53.53 259.579 56C259.579 70.83 271.079 74.81 279.249 74.81C286.349 74.81 290.219 72.23 290.859 72.23C291.399 72.23 291.719 72.87 291.719 73.09C291.719 73.63 282.579 80.4 273.879 80.4C265.179 80.4 251.949 76.1 251.949 58.15C251.949 42.99 262.159 33.96 271.949 33.96C277.539 33.96 284.419 37.51 288.289 42.02C290.119 44.17 291.839 46.75 291.839 47.61C291.839 48.04 290.329 48.47 287.429 49.12" fill="#FFB700"/>
<path d="M336.11 37.6098C333.74 37.6098 329.01 50.51 320.52 71.15C313.74 87.59 308.91 96.3 305.47 103.4C304.29 105.77 303 105.87 300.63 106.19C297.41 106.62 296.65 107.48 294.29 107.48C292.46 107.48 291.39 106.94 291.39 106.41C291.39 105.77 296.44 105.12 300.1 100.5C303.97 95.66 313.21 82.98 313.21 79.76C313.21 78.58 304.61 58.69 298.7 44.72C296.01 38.2698 295.26 37.7298 293.33 37.7298C291.18 37.7298 291.07 37.6198 291.07 36.6598C291.07 35.6998 291.39 35.1498 293.33 35.1498C296.34 35.1498 297.09 35.3598 299.67 35.3598C302.68 35.3598 306.44 35.0398 309.88 35.0398C312.14 35.0398 312.57 35.4698 312.57 36.6498C312.57 37.6198 312.14 37.7198 309.88 37.7198C307.3 37.7198 306.66 38.3698 306.66 40.84C306.66 43.96 309.45 47.72 315.9 64.27C316.76 66.53 318.05 68.35 318.48 68.35C319.23 68.35 319.88 66.84 321.6 61.79C324.18 54.05 328.05 42.87 328.05 41.37C328.05 38.1498 328.05 37.4998 324.4 37.4998C321.07 37.4998 320.64 37.4998 320.64 36.4198C320.64 35.0198 320.96 35.0198 322.9 35.0198C325.8 35.0198 327.74 35.2298 330.64 35.2298C332.25 35.2298 335.15 34.7998 336.66 34.7998C338.38 34.7998 338.92 34.9098 338.92 36.0898C338.92 37.0598 337.41 37.5998 336.13 37.5998" fill="#FFB700"/>
<path d="M756.66 37.6499V43.93H721.6V72.3H760.69V78.47H714.84V5.6499H759.11V11.6599L721.34 11.6299L721.39 37.6499H756.66Z" fill="#15284A"/>
<path d="M450.001 5.63994H456.591V37.9599L492.651 5.43994L502.131 5.49994C502.131 5.49994 477.521 27.7899 465.191 38.9599C478.081 52.07 504.141 78.57 504.141 78.57L494.091 78.5L456.751 41.11V78.59H449.881L450.001 5.63994Z" fill="#15284A"/>
<path d="M854.269 19.2802C852.579 17.9002 851.129 16.5902 849.589 15.3302C841.109 8.3802 827.069 8.0802 816.899 14.6302C798.709 26.3502 798.359 57.09 816.369 69.1C828.279 77.04 845.619 76.17 854.919 63.78C855.339 63.28 855.639 62.89 855.639 62.89C857.709 64.45 859.239 65.6 861.159 67.05C857.929 71.86 853.779 75.43 848.589 77.54C827.169 86.26 797.799 75.41 796.389 44.18C795.969 34.8102 797.899 26.0202 803.559 18.3702C811.349 7.8602 822.129 3.5702 834.949 3.7402C843.689 3.8602 851.349 6.5502 857.459 13.0202C857.859 13.4502 858.849 14.5902 859.209 15.0402L854.279 19.2602L854.269 19.2802Z" fill="#15284A"/>
<path d="M362.619 69.37C365.209 67.65 366.859 66.55 369.039 65.1C369.769 66.05 370.399 66.92 371.079 67.75C376.899 74.74 388.539 76.27 396.189 71.31C403.289 66.71 405.719 53.85 394.919 48.82C391.229 47.1 387.249 46.02 383.429 44.58C380.389 43.43 377.259 42.43 374.409 40.9C362.279 34.4199 360.969 17.0399 371.889 8.63988C380.989 1.63988 396.619 2.16987 405.169 9.79987C406.149 10.6699 406.969 11.7099 408.019 12.8399C405.949 14.3299 404.069 15.6899 402.099 17.0999C396.529 9.90987 389.309 8.54987 381.139 10.9499C375.169 12.6999 371.939 16.8699 371.439 22.9499C370.989 28.4299 373.539 33.1299 379.039 35.6099C383.429 37.5899 388.119 38.9099 392.679 40.52C393.779 40.91 394.899 41.24 395.989 41.67C406.269 45.74 410.319 52.65 408.809 63.5C407.589 72.24 399.559 79.43 390.019 80.19C382.809 80.77 375.749 80.18 369.569 76C366.989 74.26 364.149 71.42 362.649 69.37H362.619Z" fill="#15284A"/>
<path d="M563.211 78.47H556.331L556.441 47.87L529.631 5.50993L537.751 5.41992L559.791 40.03L582.351 5.41992L590.021 5.49992L563.281 48.06L563.211 78.47Z" fill="#15284A"/>
<path d="M903.21 5.22002H909.8V37.54L945.86 5.02002L955.34 5.08002C955.34 5.08002 930.73 27.37 918.4 38.54C931.29 51.65 957.35 78.15 957.35 78.15L947.3 78.08L909.96 40.69V78.17H903.09L903.21 5.22002Z" fill="#15284A"/>
<path d="M629.43 0C626.16 0 622.98 0.370001 619.92 1.04C620.49 1.02 621.07 1 621.65 1C644.85 1 663.65 19.36 663.65 42C663.65 64.64 644.85 83 621.65 83C621.07 83 620.5 82.98 619.92 82.96C622.98 83.63 626.16 84 629.43 84C653.18 84 672.43 65.2 672.43 42C672.43 18.8 653.18 0 629.43 0Z" fill="#15284A"/>
</g>
</svg>
