<svg width="24" height="25" viewBox="0 0 24 25" fill="none" xmlns="http://www.w3.org/2000/svg">
<g clip-path="url(#clip0_3657_2095)">
<path d="M0 0.15332H24V24.1533H0V0.15332Z" fill="#FB651E"/>
<path d="M11.1913 13.7233L7.07185 6.00635H8.95444L11.3777 10.89C11.415 10.977 11.4585 11.0671 11.5082 11.1603C11.5579 11.2534 11.6014 11.3498 11.6386 11.4492C11.6635 11.4865 11.6821 11.5206 11.6946 11.5518C11.707 11.5827 11.7194 11.6108 11.7319 11.6356C11.7917 11.7549 11.8477 11.8761 11.8997 11.999C11.9494 12.1172 11.9928 12.2259 12.03 12.3253C12.1295 12.114 12.2382 11.8872 12.3563 11.6449C12.4744 11.4026 12.5955 11.1509 12.7197 10.89L15.1803 6.00635H16.9325L12.7756 13.8165V18.7934H11.1912L11.1913 13.7233Z" fill="white"/>
</g>
<defs>
<clipPath id="clip0_3657_2095">
<rect width="24" height="24" fill="white" transform="translate(0 0.15332)"/>
</clipPath>
</defs>
</svg>
