<svg width="70" height="71" viewBox="0 0 70 71" fill="none" xmlns="http://www.w3.org/2000/svg">
<g clip-path="url(#clip0_4073_11982)">
<path d="M25.0011 60.466C21.7596 57.5753 20.8133 51.5015 22.1638 47.1011C24.5055 49.8754 27.7501 50.7543 31.1109 51.2504C36.2993 52.0159 41.3947 51.7296 46.2144 49.4161C46.7658 49.1512 47.2753 48.7991 47.8777 48.4423C48.33 49.7223 48.4477 51.0145 48.2897 52.3297C47.9056 55.5328 46.2717 58.0071 43.6729 59.8827C42.6337 60.6329 41.534 61.3036 40.4607 62.0109C37.1635 64.1851 36.2714 66.7343 37.5104 70.4423C37.5398 70.5333 37.5662 70.6236 37.6327 70.844C35.9492 70.1087 34.7195 69.0384 33.7826 67.6312C32.7929 66.1464 32.3221 64.5035 32.2973 62.7259C32.2849 61.8609 32.2849 60.9881 32.1656 60.1353C31.8745 58.0561 30.874 57.1251 28.9891 57.0716C27.0547 57.0165 25.5246 58.1831 25.1188 60.0205C25.0878 60.1613 25.0429 60.3007 24.998 60.4645L25.0011 60.466Z" fill="black"/>
<path d="M25.0011 60.466C21.7596 57.5753 20.8133 51.5015 22.1638 47.1011C24.5055 49.8754 27.7501 50.7543 31.1109 51.2504C36.2993 52.0159 41.3947 51.7296 46.2144 49.4161C46.7658 49.1512 47.2753 48.7991 47.8777 48.4423C48.33 49.7223 48.4477 51.0145 48.2897 52.3297C47.9056 55.5328 46.2717 58.0071 43.6729 59.8827C42.6337 60.6329 41.534 61.3036 40.4607 62.0109C37.1635 64.1851 36.2714 66.7343 37.5104 70.4423C37.5398 70.5333 37.5662 70.6236 37.6327 70.844C35.9492 70.1087 34.7195 69.0384 33.7826 67.6312C32.7929 66.1464 32.3221 64.5035 32.2973 62.7259C32.2849 61.8609 32.2849 60.9881 32.1656 60.1353C31.8745 58.0561 30.874 57.1251 28.9891 57.0716C27.0547 57.0165 25.5246 58.1831 25.1188 60.0205C25.0878 60.1613 25.0429 60.3007 24.998 60.4645L25.0011 60.466Z" fill="url(#paint0_linear_4073_11982)"/>
<path d="M6.5 46.3682C6.5 46.3682 16.0987 41.8065 25.7243 41.8065L32.9816 19.895C33.2533 18.8354 34.0466 18.1152 34.9423 18.1152C35.8379 18.1152 36.6312 18.8354 36.9029 19.895L44.1603 41.8065C55.5603 41.8065 63.3845 46.3682 63.3845 46.3682C63.3845 46.3682 47.0803 3.03735 47.0485 2.95041C46.5805 1.66932 45.7905 0.844238 44.7255 0.844238H25.1607C24.0957 0.844238 23.3376 1.66932 22.8378 2.95041C22.8025 3.03572 6.5 46.3682 6.5 46.3682Z" fill="black"/>
</g>
<defs>
<linearGradient id="paint0_linear_4073_11982" x1="21.5683" y1="70.844" x2="52.5809" y2="55.8241" gradientUnits="userSpaceOnUse">
<stop stop-color="#D83333"/>
<stop offset="1" stop-color="#F041FF"/>
</linearGradient>
<clipPath id="clip0_4073_11982">
<rect width="57" height="70" fill="white" transform="translate(6.5 0.844238)"/>
</clipPath>
</defs>
</svg>
