<svg width="53" height="53" viewBox="0 0 53 53" fill="none" xmlns="http://www.w3.org/2000/svg">
<mask id="mask0_5172_26187" style="mask-type:luminance" maskUnits="userSpaceOnUse" x="0" y="0" width="53" height="53">
<path d="M52.757 0.864014H0.457031V52.8656H52.757V0.864014Z" fill="white"/>
</mask>
<g mask="url(#mask0_5172_26187)">
<path d="M20.5165 19.7928V14.8524C20.5165 14.4359 20.6718 14.1243 21.0346 13.9161L30.9349 8.19597C32.2832 7.41629 33.8898 7.05227 35.5479 7.05227C41.7683 7.05227 45.708 11.8886 45.708 17.0364C45.708 17.4004 45.708 17.8161 45.6557 18.2326L35.3926 12.2001C34.7707 11.8361 34.1489 11.8361 33.5262 12.2001L20.5165 19.7928ZM43.634 39.0331V27.2288C43.634 26.5008 43.3226 25.9802 42.7007 25.6162L29.6911 18.0244L33.9413 15.5804C34.3041 15.3721 34.6155 15.3721 34.9775 15.5804L44.8785 21.3005C47.7289 22.9648 49.6468 26.5008 49.6468 29.9327C49.6468 33.8844 47.3146 37.5246 43.634 39.0331ZM17.4586 28.6333L13.2076 26.1368C12.8456 25.9294 12.6895 25.617 12.6895 25.2013V13.7603C12.6895 8.19679 16.9397 3.98437 22.6935 3.98437C24.8705 3.98437 26.8922 4.71241 28.6026 6.01188L18.3919 11.941C17.77 12.3042 17.4586 12.8249 17.4586 13.5529V28.6333ZM26.607 33.9369L20.5165 30.505V23.2247L26.607 19.7928L32.6975 23.2247V30.505L26.607 33.9369ZM30.5205 49.7461C28.3436 49.7461 26.3218 49.0181 24.6115 47.7178L34.8222 41.7894C35.4441 41.4254 35.7554 40.9056 35.7554 40.1776V25.0964L40.0579 27.5929C40.42 27.8003 40.576 28.1127 40.576 28.5283V39.9694C40.576 45.5329 36.2735 49.7453 30.5205 49.7453V49.7461ZM18.2358 38.1493L8.33554 32.4292C5.48437 30.7649 3.56642 27.2288 3.56642 23.7969C3.56642 19.7928 5.95098 16.2051 9.63078 14.6966V26.5533C9.63078 27.2813 9.94212 27.8011 10.564 28.1651L23.523 35.7053L19.272 38.1493C18.9099 38.3575 18.5986 38.3575 18.2358 38.1493ZM17.6662 46.6782C11.8086 46.6782 7.50608 42.2576 7.50608 36.7974C7.50608 36.3817 7.5584 35.9652 7.60988 35.5495L17.8214 41.4779C18.4425 41.8419 19.0652 41.8419 19.6871 41.4779L32.6975 33.9377V38.8781C32.6975 39.2938 32.5414 39.6062 32.1786 39.8136L22.2784 45.5345C20.9309 46.3142 19.3234 46.6782 17.6654 46.6782H17.6662ZM30.5205 52.8656C36.7925 52.8656 42.0274 48.3942 43.2196 42.4658C49.0249 40.9573 52.757 35.4971 52.757 29.9327C52.757 26.2926 51.2019 22.7565 48.4031 20.2084C48.6621 19.1164 48.8182 18.0244 48.8182 16.9323C48.8182 9.49624 42.8053 3.93191 35.8592 3.93191C34.4602 3.93191 33.1127 4.13933 31.7643 4.60828C29.4321 2.32007 26.2181 0.864014 22.6935 0.864014C16.4216 0.864014 11.1867 5.33549 9.99443 11.2638C4.18913 12.7724 0.457031 18.2326 0.457031 23.7969C0.457031 27.4371 2.01214 30.9731 4.81101 33.5212C4.55196 34.6133 4.39587 35.7053 4.39587 36.7974C4.39587 44.2334 10.4087 49.7977 17.3548 49.7977C18.7539 49.7977 20.1014 49.5903 21.4498 49.1214C23.782 51.4096 26.9952 52.8656 30.5205 52.8656Z" fill="black"/>
</g>
</svg>
