<svg width="69" height="70" viewBox="0 0 69 70" fill="none" xmlns="http://www.w3.org/2000/svg">
<g clip-path="url(#clip0_4073_11995)">
<path d="M37.6771 0.844238C55.4212 0.844238 64.2388 9.28944 64.2388 22.7798C64.2388 32.8701 58.0339 39.4506 49.6516 40.5475C56.7275 41.9734 60.8639 46.0315 61.6261 54.0379L61.7364 55.5102L61.8327 56.8867L61.9159 58.1743L61.9737 59.1451L62.0358 60.2906L62.068 60.9444L62.1138 61.9829L62.1509 62.9638L62.1692 63.5276L62.194 64.431L62.2154 65.4639L62.2231 65.9631L62.2371 67.4095L62.2416 68.9189L62.2418 69.8213H43.9435L43.9444 69.4449L43.951 68.7139L43.9619 68.0018L43.9935 66.277L44.0015 65.6987L44.0078 64.792L44.0069 64.2122L44.0016 63.6041L43.9942 63.1269L43.9792 62.4587L43.9575 61.7502L43.9283 60.9968L43.891 60.1941L43.869 59.773L43.8316 59.1148L43.7885 58.4234L43.7218 57.4465L43.6643 56.6701C43.6478 56.4306 43.6287 56.1968 43.607 55.9685L43.5601 55.5192C42.9559 50.2156 40.8522 48.0479 37.2492 47.3249L36.9455 47.268C36.7407 47.2322 36.5313 47.2007 36.3172 47.1733L35.9927 47.1351C35.938 47.1292 35.883 47.1236 35.8278 47.1182L35.4928 47.0887L35.1509 47.0646L34.8021 47.0459L34.4502 47.0323L34.0915 47.0234L33.726 47.0191L4.76115 47.0186V32.6509H34.4116C34.8964 32.6509 35.3662 32.6417 35.821 32.623L36.2708 32.601L36.7107 32.5726L37.1405 32.5376C37.2113 32.5313 37.2817 32.5246 37.3516 32.5177L37.7665 32.4728C38.0397 32.4406 38.3063 32.4039 38.5662 32.3627L38.951 32.2973C43.7624 31.425 46.168 28.8709 46.168 23.8868C46.168 18.2934 42.2493 14.9035 34.4116 14.9035H4.76115V0.844238H37.6771ZM24.1091 59.1104C26.5099 59.1104 27.5143 60.4434 27.8722 61.7193L27.9194 61.9028L27.9581 62.0845L27.9834 62.2281L27.9942 62.2991L28.0122 62.4392L28.0258 62.5764L28.031 62.6438L28.0384 62.7758L28.0407 62.8404L28.0424 62.9661V69.8213H4.76115V59.1104H24.1091Z" fill="#121212"/>
</g>
<defs>
<clipPath id="clip0_4073_11995">
<rect width="59.4777" height="69.0034" fill="white" transform="translate(4.76115 0.844238)"/>
</clipPath>
</defs>
</svg>
