<svg width="44" height="54" viewBox="0 0 44 54" fill="none" xmlns="http://www.w3.org/2000/svg">
<path d="M21.8136 18.1234H3.39012C1.5874 18.1234 0.132812 16.6567 0.132812 14.8391V3.91372C0.132812 2.09611 1.5874 0.629395 3.39012 0.629395H18.5571C20.359 0.629395 21.8136 2.09611 21.8136 3.91372V18.1234Z" fill="#F5640C"/>
<path d="M40.2368 35.6069H21.8125V18.1235H40.2368C42.0281 18.1235 43.4827 19.5911 43.4827 21.3972V32.3226C43.4827 34.1402 42.0281 35.6069 40.2368 35.6069Z" fill="#F5640C"/>
<path d="M18.5574 53.1001H3.39039C1.59911 53.1001 0.144531 51.6333 0.144531 49.8272V38.901C0.144531 37.0949 1.59911 35.6282 3.39039 35.6282H21.8147V49.8379C21.8147 51.6219 20.3593 53.1001 18.5574 53.1001Z" fill="#F5640C"/>
</svg>
