<svg width="68" height="69" viewBox="0 0 68 69" fill="none" xmlns="http://www.w3.org/2000/svg">
<g clip-path="url(#clip0_4073_12003)">
<path d="M0 1.5083L58.2351 63.0875C58.2351 63.0875 60.219 64.4844 61.7362 62.8547C63.2533 61.225 62.0863 59.5953 62.0863 59.5953L0 1.5083Z" fill="#DF4F4F"/>
<path d="M18.4391 7.32864L62.7865 55.0554C62.7865 55.0554 64.7704 56.4523 66.2876 54.8226C67.8047 53.1929 66.6377 51.5632 66.6377 51.5632L18.4391 7.32864Z" fill="#DF4F4F"/>
<path d="M49.8325 67.511L5.48513 19.7842L53.6837 64.0188C53.6837 64.0188 54.8507 65.6485 53.3336 67.2782C51.8164 68.9079 49.8325 67.511 49.8325 67.511Z" fill="#DF4F4F"/>
<path d="M34.027 12.3341L65.0098 45.678C65.0098 45.678 66.3959 46.6539 67.4558 45.5153C68.5158 44.3768 67.7004 43.2382 67.7004 43.2382L34.027 12.3341Z" fill="#DF4F4F"/>
<path d="M40.7356 67.5625L9.75277 34.2186L43.4262 65.1227C43.4262 65.1227 44.2416 66.2613 43.1816 67.3998C42.1217 68.5384 40.7356 67.5625 40.7356 67.5625Z" fill="#DF4F4F"/>
<path d="M49.9489 19.5514L63.9914 34.7098C63.9914 34.7098 64.677 35.1671 65.2013 34.6336C65.7257 34.1001 65.3223 33.5666 65.3223 33.5666L49.9489 19.5514Z" fill="#DF4F4F"/>
<path d="M31.548 64.7428L17.5056 49.5843L32.879 63.5995C32.879 63.5995 33.2823 64.1331 32.758 64.6666C32.2337 65.2001 31.548 64.7428 31.548 64.7428Z" fill="#DF4F4F"/>
</g>
<defs>
<clipPath id="clip0_4073_12003">
<rect width="68" height="68" fill="white" transform="translate(0 0.844238)"/>
</clipPath>
</defs>
</svg>
