<svg width="53" height="31" viewBox="0 0 53 31" fill="none" xmlns="http://www.w3.org/2000/svg">
<path d="M52.3179 0.176412H51.8194C49.1964 0.172312 47.0676 2.30377 47.0676 4.93533V15.5783C47.0676 17.7036 45.3169 19.4252 43.2331 19.4252C41.9951 19.4252 40.7592 18.8001 40.0258 17.7508L29.1924 2.22588C28.2934 0.936743 26.8308 0.168213 25.2475 0.168213C22.7777 0.168213 20.555 2.27507 20.555 4.87589V15.5804C20.555 17.7058 18.8186 19.4273 16.7205 19.4273C15.4785 19.4273 14.2445 18.8022 13.5111 17.7529L1.38865 0.379325C1.1149 -0.0142046 0.5 0.180511 0.5 0.660125V9.94225C0.5 10.4116 0.643019 10.8666 0.910601 11.2519L12.8411 28.3467C13.5459 29.357 14.5857 30.1072 15.7848 30.3798C18.7859 31.0643 21.5479 28.7463 21.5479 25.793V15.0946C21.5479 12.9693 23.2639 11.2477 25.3824 11.2477H25.3884C26.6653 11.2477 27.8624 11.8728 28.5958 12.9222L39.4313 28.4451C40.3323 29.7362 41.7193 30.5028 43.3741 30.5028C45.8991 30.5028 48.0625 28.3939 48.0625 25.7951V15.0927C48.0625 12.9673 49.7785 11.2457 51.897 11.2457H52.3199C52.5854 11.2457 52.8 11.0305 52.8 10.7641V0.658075C52.8 0.391623 52.5854 0.176412 52.3199 0.176412H52.3179Z" fill="#0B100F"/>
</svg>
