<svg width="53" height="53" viewBox="0 0 53 53" fill="none" xmlns="http://www.w3.org/2000/svg">
<mask id="mask0_5172_26169" style="mask-type:luminance" maskUnits="userSpaceOnUse" x="0" y="0" width="53" height="53">
<path d="M52.8352 0.364746H0.535156V52.8353H52.8352V0.364746Z" fill="white"/>
</mask>
<g mask="url(#mask0_5172_26169)">
<mask id="mask1_5172_26169" style="mask-type:alpha" maskUnits="userSpaceOnUse" x="0" y="0" width="53" height="53">
<path fill-rule="evenodd" clip-rule="evenodd" d="M37.6218 52.477C38.4455 52.7992 39.3853 52.7787 40.2164 52.3769L50.9844 47.1791C52.1154 46.6322 52.8354 45.4836 52.8354 44.2235V8.9772C52.8354 7.71627 52.1154 6.56766 50.9844 6.02164L40.2164 0.822947C39.1254 0.296602 37.8481 0.425322 36.8904 1.12384C36.7539 1.22386 36.6232 1.33536 36.5014 1.45752L15.8879 20.3256L6.90861 13.4872C6.07344 12.851 4.90405 12.9027 4.12772 13.6118L1.24795 16.2395C0.298379 17.106 0.297557 18.6047 1.24549 19.473L9.03248 26.5999L1.24549 33.7269C0.297557 34.5951 0.298379 36.0938 1.24795 36.9604L4.12772 39.5889C4.90405 40.2972 6.07344 40.3489 6.90861 39.7127L15.8879 32.8751L36.5014 51.7424C36.8275 52.0695 37.2099 52.3163 37.6218 52.477ZM39.7677 14.6883L24.1267 26.5999L39.7677 38.5116V14.6883Z" fill="white"/>
</mask>
<g mask="url(#mask1_5172_26169)">
<path d="M50.9853 6.02978L40.209 0.823706C38.9612 0.221115 37.4706 0.475271 36.4916 1.45745L1.21527 33.7269C0.265697 34.5951 0.267331 36.0938 1.2169 36.9604L4.09913 39.5888C4.87546 40.2972 6.04567 40.3488 6.88165 39.7126L49.3631 7.38007C50.7891 6.29541 52.8354 7.3153 52.8354 9.10996V8.98453C52.8354 7.72441 52.1162 6.5758 50.9853 6.02978Z" fill="#0065A9"/>
<g filter="url(#filter0_d_5172_26169)">
<path d="M50.9853 47.17L40.209 52.3761C38.9612 52.9787 37.4706 52.7245 36.4916 51.7424L1.21527 19.4729C0.265697 18.6047 0.267331 17.106 1.2169 16.2394L4.09913 13.611C4.87546 12.9026 6.04567 12.851 6.88165 13.4872L49.3631 45.8197C50.7891 46.9044 52.8354 45.8845 52.8354 44.0898V44.2153C52.8354 45.4754 52.1162 46.624 50.9853 47.17Z" fill="#007ACC"/>
</g>
<g filter="url(#filter1_d_5172_26169)">
<path d="M40.2096 52.3768C38.9617 52.9786 37.4712 52.7245 36.4922 51.7423C37.6984 52.9524 39.7609 52.0948 39.7609 50.3838V2.81592C39.7609 1.10489 37.6984 0.247321 36.4922 1.45742C37.4712 0.47524 38.9617 0.221084 40.2096 0.822856L50.9834 6.02155C52.116 6.56757 52.8359 7.71618 52.8359 8.97711V44.2234C52.8359 45.4835 52.116 46.6321 50.9834 47.179L40.2096 52.3768Z" fill="#1F9CF0"/>
</g>
<g style="mix-blend-mode:overlay" opacity="0.25">
<path fill-rule="evenodd" clip-rule="evenodd" d="M37.5905 52.477C38.4142 52.7992 39.354 52.7778 40.1851 52.3769L50.9524 47.1791C52.0842 46.6322 52.8041 45.4836 52.8041 44.2235V8.9772C52.8041 7.71627 52.0842 6.56766 50.9532 6.02164L40.1851 0.822947C39.0942 0.296602 37.8169 0.425322 36.8592 1.12384C36.7227 1.22386 36.5919 1.33536 36.4702 1.45752L15.8566 20.3256L6.87736 13.4872C6.04219 12.851 4.8728 12.9027 4.09647 13.611L1.2167 16.2395C0.267129 17.106 0.266307 18.6047 1.21424 19.473L9.00123 26.5999L1.21424 33.7269C0.266307 34.5951 0.267129 36.0938 1.2167 36.9604L4.09647 39.5889C4.8728 40.2972 6.04219 40.3489 6.87736 39.7127L15.8566 32.8751L36.4702 51.7424C36.7962 52.0695 37.1787 52.3163 37.5905 52.477ZM39.7365 14.6883L24.0955 26.5999L39.7365 38.5116V14.6883Z" fill="url(#paint0_linear_5172_26169)"/>
</g>
</g>
</g>
<defs>
<filter id="filter0_d_5172_26169" x="-7.82943" y="4.70938" width="68.9987" height="56.3237" filterUnits="userSpaceOnUse" color-interpolation-filters="sRGB">
<feFlood flood-opacity="0" result="BackgroundImageFix"/>
<feColorMatrix in="SourceAlpha" type="matrix" values="0 0 0 0 0 0 0 0 0 0 0 0 0 0 0 0 0 0 127 0" result="hardAlpha"/>
<feOffset/>
<feGaussianBlur stdDeviation="4.16667"/>
<feColorMatrix type="matrix" values="0 0 0 0 0 0 0 0 0 0 0 0 0 0 0 0 0 0 0.25 0"/>
<feBlend mode="overlay" in2="BackgroundImageFix" result="effect1_dropShadow_5172_26169"/>
<feBlend mode="normal" in="SourceGraphic" in2="effect1_dropShadow_5172_26169" result="shape"/>
</filter>
<filter id="filter1_d_5172_26169" x="28.1588" y="-7.83358" width="33.0104" height="68.8669" filterUnits="userSpaceOnUse" color-interpolation-filters="sRGB">
<feFlood flood-opacity="0" result="BackgroundImageFix"/>
<feColorMatrix in="SourceAlpha" type="matrix" values="0 0 0 0 0 0 0 0 0 0 0 0 0 0 0 0 0 0 127 0" result="hardAlpha"/>
<feOffset/>
<feGaussianBlur stdDeviation="4.16667"/>
<feColorMatrix type="matrix" values="0 0 0 0 0 0 0 0 0 0 0 0 0 0 0 0 0 0 0.25 0"/>
<feBlend mode="overlay" in2="BackgroundImageFix" result="effect1_dropShadow_5172_26169"/>
<feBlend mode="normal" in="SourceGraphic" in2="effect1_dropShadow_5172_26169" result="shape"/>
</filter>
<linearGradient id="paint0_linear_5172_26169" x1="26.6541" y1="0.499927" x2="26.6541" y2="52.7" gradientUnits="userSpaceOnUse">
<stop stop-color="white"/>
<stop offset="1" stop-color="white" stop-opacity="0"/>
</linearGradient>
</defs>
</svg>
