<svg width="54" height="39" viewBox="0 0 54 39" fill="none" xmlns="http://www.w3.org/2000/svg">
<path d="M52.5913 3.56789C52.0372 3.2957 51.7986 3.81385 51.475 4.07703C51.3639 4.16147 51.2699 4.27215 51.1767 4.37381C50.3669 5.23958 49.4206 5.80855 48.185 5.74051C46.3782 5.63884 44.8354 6.20782 43.4715 7.59091C43.1814 5.8848 42.2187 4.86654 40.7527 4.2123C39.9853 3.87288 39.2098 3.53346 38.6729 2.79477C38.2979 2.26925 38.1957 1.68305 38.0086 1.10588C37.8893 0.75826 37.7699 0.401624 37.3687 0.341775C36.934 0.273727 36.764 0.638562 36.5932 0.944368C35.9117 2.19218 35.6477 3.56789 35.673 4.96C35.7327 8.09184 37.0533 10.5875 39.6789 12.3616C39.9772 12.5658 40.054 12.7691 39.96 13.0659C39.7811 13.6775 39.5677 14.2719 39.3806 14.8827C39.2613 15.2729 39.0815 15.3582 38.6648 15.1885C37.2241 14.5859 35.9795 13.6939 34.8804 12.6166C33.0139 10.808 31.3256 8.81332 29.2205 7.2515C28.7261 6.88666 28.2318 6.54724 27.721 6.22422C25.5726 4.13605 28.0021 2.42174 28.5643 2.21759C29.1527 2.00607 28.7694 1.27559 26.8687 1.28461C24.9679 1.29281 23.2289 1.92901 21.0127 2.77838C20.6891 2.90546 20.3483 2.99892 19.9986 3.07516C17.9875 2.69311 15.8996 2.60784 13.7169 2.85462C9.60885 3.31292 6.32783 5.25679 3.91549 8.57556C1.01774 12.5658 0.33623 17.0979 1.1714 21.826C2.04906 26.8091 4.58886 30.9346 8.49257 34.1599C12.5409 37.5041 17.2038 39.143 22.5221 38.8289C25.7524 38.642 29.3488 38.2091 33.4062 34.7715C34.4285 35.2806 35.5022 35.484 37.2837 35.6373C38.6558 35.7643 39.9772 35.5692 40.9995 35.3569C42.602 35.0175 42.4917 33.5319 41.9123 33.2605C37.2159 31.0707 38.2472 31.9619 37.3091 31.2404C39.6961 28.4135 43.2925 25.476 44.6989 15.9608C44.81 15.2049 44.7161 14.7302 44.6989 14.1186C44.6907 13.7455 44.7757 13.6013 45.2015 13.5586C46.3782 13.4225 47.5198 13.1003 48.5683 12.5231C51.6115 10.8588 52.838 8.12628 53.1281 4.84933C53.1706 4.3484 53.12 3.83025 52.5913 3.56789ZM26.076 33.0564C21.5243 29.4744 19.317 28.2947 18.4051 28.3455C17.5527 28.3963 17.7064 29.3728 17.8935 30.009C18.0896 30.637 18.3454 31.0707 18.7033 31.6216C18.9509 31.9873 19.1209 32.53 18.4565 32.9375C16.9905 33.8459 14.4417 32.6317 14.3224 32.5727C11.3568 30.8239 8.87664 28.5152 7.12867 25.3579C5.44118 22.3187 4.46137 19.059 4.29957 15.5787C4.25707 14.7384 4.50387 14.4416 5.33903 14.2883C6.43897 14.085 7.57241 14.0423 8.67153 14.2038C13.3172 14.8827 17.2716 16.9627 20.5869 20.256C22.4787 22.1318 23.9113 24.3725 25.3855 26.5631C26.9536 28.8882 28.6411 31.1043 30.7887 32.9211C31.5479 33.5573 32.1526 34.041 32.732 34.3976C30.9848 34.5928 28.07 34.6354 26.076 33.0564ZM28.2579 19.0082C28.2579 18.6343 28.5561 18.3376 28.9312 18.3376C29.0162 18.3376 29.0931 18.3548 29.1617 18.3802C29.2549 18.4138 29.3406 18.4646 29.4085 18.5409C29.5278 18.6597 29.5964 18.8295 29.5964 19.0082C29.5964 19.3812 29.2981 19.6788 28.9231 19.6788C28.548 19.6788 28.2579 19.3812 28.2579 19.0082ZM35.034 22.4885C34.5993 22.6664 34.1645 22.8197 33.7469 22.8361C33.0989 22.8705 32.3912 22.6073 32.008 22.2843C31.4114 21.7834 30.9857 21.5038 30.8067 20.629C30.7299 20.256 30.7724 19.6788 30.8402 19.3476C30.9938 18.6343 30.823 18.176 30.3205 17.7604C29.9111 17.4209 29.3913 17.3275 28.8201 17.3275C28.6076 17.3275 28.4115 17.234 28.2661 17.1578C28.0275 17.0389 27.8321 16.7413 28.0193 16.3765C28.0789 16.2576 28.369 15.969 28.4369 15.9182C29.2124 15.4771 30.1072 15.6214 30.9342 15.9526C31.7015 16.2666 32.2809 16.8438 33.1161 17.6587C33.9684 18.6434 34.122 18.9147 34.6075 19.6534C34.9915 20.2306 35.3404 20.8242 35.5791 21.5038C35.7245 21.9285 35.5366 22.2761 35.034 22.4885Z" fill="#4D6BFE"/>
</svg>
