<svg width="52" height="49" viewBox="0 0 52 49" fill="none" xmlns="http://www.w3.org/2000/svg">
<path d="M41.5051 7.31351L38.734 12.1285L45.7373 24.2771C45.7888 24.3697 45.819 24.4821 45.819 24.5845C45.819 24.687 45.7888 24.7993 45.7373 24.892L38.734 37.0512L41.5051 41.8662L51.4625 24.5845L41.5051 7.30285V7.31351ZM37.661 11.503L40.4313 6.68878H34.8899L32.1197 11.503H37.6708H37.661ZM32.109 12.7532L38.5803 23.9696H44.1225L37.661 12.7532H32.109ZM37.661 36.4363L44.1225 25.2093H38.5803L32.109 36.4363H37.661ZM32.109 37.6866L34.8793 42.4803H40.4215L37.6504 37.6866H32.0984H32.109ZM13.3276 43.6691C13.2157 43.6691 13.1135 43.6379 13.0212 43.5871C12.9288 43.5354 12.8471 43.4534 12.7964 43.3616L5.78254 31.2024H0.241188L10.1994 48.4734H30.1053L27.3342 43.6691H13.3382H13.3276ZM28.408 43.0443L31.1783 47.8487L33.9493 43.0337L31.1783 38.2195L28.408 43.0337V43.0443ZM30.1053 37.6046H17.1823L14.4112 42.4188H27.3342L30.1053 37.6046ZM16.0987 36.9897L9.62657 25.7627L6.85632 30.5768L13.3276 41.8047L16.0987 36.9897ZM0.231362 29.9521H5.77272L8.54299 25.1379H3.01226L0.231362 29.9521ZM12.7654 5.84843C12.8169 5.75661 12.8986 5.67462 12.9901 5.62297C13.0825 5.57214 13.1952 5.54098 13.2974 5.54098H27.3138L30.0849 0.726807H10.1684L0.210938 18.0077H5.75229L12.745 5.85909L12.7654 5.84843ZM8.54299 24.0623L5.77272 19.2473H0.231362L3.00164 24.0623H8.54299ZM13.3072 7.40533L6.8457 18.6226L9.61677 23.4376L16.0783 12.2203L13.3072 7.40533ZM27.3244 6.7806H14.381L17.1512 11.5956H30.0947L27.3244 6.7806ZM31.1783 10.9709L33.9387 6.16653L31.1783 1.35154L28.408 6.15587L31.1783 10.9709Z" fill="black"/>
</svg>
