<svg width="53" height="53" viewBox="0 0 53 53" fill="none" xmlns="http://www.w3.org/2000/svg">
<path d="M5.42656 3.37951C4.52357 3.37951 3.79219 4.11362 3.79219 5.01922V41.0927H0.523438V5.01922C0.523438 2.30246 2.7184 0.100098 5.42656 0.100098H49.2164C51.4007 0.100098 52.4941 2.7494 50.9496 4.29883L23.9792 31.357H31.5766V27.9751H34.8453V32.1768C34.8453 33.5353 33.7478 34.6364 32.3938 34.6364H20.7104L15.0923 40.2729H40.5656V19.7766H43.8344V40.2729C43.8344 42.0842 42.3708 43.5523 40.5656 43.5523H11.8235L6.1032 49.2913H47.9203C48.8225 49.2913 49.5547 48.557 49.5547 47.6516V11.578H52.8234V47.6516C52.8234 50.3684 50.6285 52.5707 47.9203 52.5707H4.1305C1.94616 52.5707 0.852763 49.9212 2.39725 48.372L29.2656 21.4163H21.7703V24.6957H18.5016V20.5964C18.5016 19.2381 19.599 18.1369 20.9531 18.1369H32.5343L38.2546 12.3979H12.7813V32.8942H9.5125V12.3979C9.5125 10.5867 10.9761 9.11848 12.7813 9.11848H41.5234L47.2437 3.37951H5.42656Z" fill="#084CCF"/>
</svg>
