<svg width="53" height="53" viewBox="0 0 53 53" fill="none" xmlns="http://www.w3.org/2000/svg">
<mask id="mask0_5172_26158" style="mask-type:luminance" maskUnits="userSpaceOnUse" x="0" y="0" width="53" height="53">
<path d="M52.4992 0.100098H0.199219V52.5707H52.4992V0.100098Z" fill="white"/>
</mask>
<g mask="url(#mask0_5172_26158)">
<path d="M4.25249 9.0201C8.95949 6.33098 15.4316 5.01922 20.9885 5.01922C37.2668 5.01922 47.5961 12.6275 47.5961 22.9248C47.5961 31.1233 40.4702 36.1736 30.9908 36.1736C23.342 36.1736 17.6543 33.3533 17.6543 29.6148C17.6543 26.073 21.25 24.3677 26.3492 26.3354L27.6567 22.3345C19.7463 19.7766 13.2088 23.3839 13.2088 29.6148C13.2088 35.8457 20.9231 40.3057 31.2523 40.3057C43.5428 40.3057 52.4992 33.4845 52.4992 22.9248C52.4992 9.74157 40.078 0.100098 20.9885 0.100098C14.8432 0.100098 7.91345 1.67422 2.22583 4.75686L4.25249 9.0201ZM48.446 43.6507C43.739 46.3398 37.2668 47.6516 31.71 47.6516C15.4316 47.6516 5.10234 40.0433 5.10234 29.746C5.10234 21.5475 12.2282 16.4972 21.7076 16.4972C29.3565 16.4972 35.0441 19.3175 35.0441 23.056C35.0441 26.5977 31.4485 28.303 26.3492 26.3354L25.0417 30.3363C32.9521 32.8942 39.4896 29.2869 39.4896 23.056C39.4896 16.8251 31.7753 12.3651 21.4461 12.3651C9.15559 12.3651 0.199219 19.1863 0.199219 29.746C0.199219 42.9292 12.6205 52.5707 31.71 52.5707C37.8552 52.5707 44.785 50.9966 50.4726 47.9139L48.446 43.6507Z" fill="url(#paint0_linear_5172_26158)"/>
</g>
<defs>
<linearGradient id="paint0_linear_5172_26158" x1="5.37038" y1="9.5407" x2="77.3064" y2="65.1859" gradientUnits="userSpaceOnUse">
<stop stop-color="#955AE0"/>
<stop offset="1" stop-color="#4D67F0"/>
</linearGradient>
</defs>
</svg>
