<svg width="68" height="69" viewBox="0 0 68 69" fill="none" xmlns="http://www.w3.org/2000/svg">
<path d="M34.0403 0.844553C39.5592 0.844553 44.7559 2.13397 49.6303 4.6316L50.2749 4.95388L49.7109 5.397C48.3412 6.48468 47.2536 7.89463 46.5687 9.50601L46.3673 9.94914L45.9645 9.74771C42.218 7.9752 38.2299 7.04866 34.0806 7.04866C18.7322 7.04866 6.28436 19.5368 6.28436 34.8449C6.28436 50.1529 18.6919 62.6411 34.0403 62.6411C49.3886 62.6411 61.8365 50.1529 61.8365 34.8449C61.8365 31.179 61.1517 27.5937 59.7014 24.2098L59.5 23.7667L59.9431 23.5652C61.5948 22.961 63.045 21.9539 64.2133 20.6648L64.6564 20.1008L64.9384 20.7453C66.9929 25.2169 68 29.9705 68 34.7643C68 53.4965 52.7322 68.7643 34 68.7643C15.2678 68.7643 0 53.4965 0 34.7643C0 16.0321 15.2678 0.764302 34.0403 0.844553ZM34.0403 19.3757C42.5403 19.3757 49.5095 26.3046 49.5498 34.8852C49.5498 43.4657 42.6209 50.3946 34.0403 50.3946C25.4597 50.3946 18.5308 43.4657 18.5308 34.8852C18.5308 26.3046 25.5 19.3757 34.0403 19.3757ZM56.237 6.56525C60.1527 6.56525 63.327 9.73957 63.327 13.6553C63.327 17.571 60.1527 20.7453 56.237 20.7453C52.3212 20.7453 49.1469 17.571 49.1469 13.6553C49.1469 9.73957 52.3212 6.56525 56.237 6.56525Z" fill="#3880FF"/>
</svg>
