<svg width="68" height="69" viewBox="0 0 68 69" fill="none" xmlns="http://www.w3.org/2000/svg">
<g clip-path="url(#clip0_4073_11977)">
<path d="M33.9608 0.844238L63.4061 17.8442V51.8442L33.9608 68.8442L4.51562 51.8442V17.8442L33.9608 0.844238Z" fill="#673AB8"/>
<path d="M12.5359 51.5632C16.4505 56.5736 28.8907 52.7558 40.6354 43.5798C52.3802 34.4038 59.0941 23.2567 55.1796 18.2464C51.265 13.236 38.8248 17.0537 27.0801 26.2297C15.3353 35.4057 8.62141 46.5528 12.5359 51.5632ZM14.2082 50.2567C12.91 48.595 13.4772 45.3331 15.9505 41.2266C18.5549 36.9025 22.9762 32.1291 28.3866 27.902C33.797 23.6749 39.4982 20.5398 44.324 19.0589C48.9068 17.6525 52.209 17.8912 53.5073 19.5529C54.8055 21.2145 54.2383 24.4764 51.765 28.5829C49.1605 32.907 44.7393 37.6804 39.3289 41.9075C33.9185 46.1346 28.2173 49.2697 23.3915 50.7507C18.8087 52.1571 15.5065 51.9183 14.2082 50.2567Z" fill="white"/>
<path d="M55.1796 51.5632C59.0941 46.5528 52.3802 35.4057 40.6354 26.2297C28.8907 17.0537 16.4505 13.236 12.5359 18.2464C8.62141 23.2567 15.3353 34.4038 27.0801 43.5798C38.8248 52.7558 51.265 56.5736 55.1796 51.5632ZM53.5073 50.2567C52.209 51.9183 48.9068 52.1571 44.324 50.7507C39.4982 49.2697 33.797 46.1346 28.3866 41.9075C22.9762 37.6804 18.5549 32.907 15.9505 28.5829C13.4772 24.4764 12.91 21.2145 14.2082 19.5529C15.5065 17.8912 18.8087 17.6525 23.3915 19.0589C28.2173 20.5398 33.9185 23.6749 39.3289 27.902C44.7393 32.1291 49.1605 36.9025 51.765 41.2266C54.2383 45.3331 54.8055 48.595 53.5073 50.2567Z" fill="white"/>
<path d="M33.8577 39.4143C36.3483 39.4143 38.3674 37.3952 38.3674 34.9046C38.3674 32.414 36.3483 30.395 33.8577 30.395C31.3671 30.395 29.3481 32.414 29.3481 34.9046C29.3481 37.3952 31.3671 39.4143 33.8577 39.4143Z" fill="white"/>
</g>
<defs>
<clipPath id="clip0_4073_11977">
<rect width="68" height="68" fill="white" transform="translate(0 0.844238)"/>
</clipPath>
</defs>
</svg>
